<?xml version="1.0" encoding="UTF-8"?>
<svg width="200px" height="50px" viewBox="0 0 200 50" version="1.1" xmlns="http://www.w3.org/2000/svg" xmlns:xlink="http://www.w3.org/1999/xlink">
    <!-- Generator: Sketch 42 (36781) - http://www.bohemiancoding.com/sketch -->
    <title>svg</title>
    <desc>Created with Sketch.</desc>
    <defs></defs>
    <g id="Page-1" stroke="none" stroke-width="1" fill="none" fill-rule="evenodd">
        <g id="svg" fill-rule="nonzero">
            <g id="10-COMM" transform="translate(0.000000, 2.000000)">
                <g id="Page-1">
                    <g id="Page_1">
                        <g id="图层_1_1_">
                            <g id="交通银行">
                                <path d="M34.6308725,35.033557 C31.9463087,35.1677852 29.5302013,35.1677852 26.8456376,35.3020134 C25.1006711,42.4161074 11.2751678,40.5369128 12.7516779,31.409396 C13.557047,26.0402685 20.8053691,23.6241611 25.3691275,27.7852349 C26.3087248,28.8590604 26.8456376,29.9328859 27.114094,32.2147651 C29.3959732,32.0805369 32.3489933,32.0805369 34.6308725,31.9463087 C34.7651007,20.4026846 21.6107383,14.4966443 11.6778523,20.1342282 C2.28187919,25.5033557 3.3557047,41.8791946 13.2885906,46.1744966 L13.2885906,46.442953 C7.91946309,46.3087248 2.01342282,42.147651 0.67114094,37.1812081 L0.805369128,10.4697987 C5.10067114,7.51677852 9.79865772,4.02684564 14.0939597,1.0738255 C14.2281879,1.20805369 14.4966443,1.20805369 14.6308725,1.34228188 C14.3624161,5.36912752 14.4966443,11.9463087 14.7651007,16.9127517 C17.4496644,14.3624161 19.3288591,11.5436242 23.8926174,10.6040268 C26.8456376,10.0671141 29.7986577,10.3355705 31.5436242,11.0067114 C45.1006711,15.704698 45.9060403,33.1543624 34.4966443,39.1946309 C34.2281879,39.1946309 33.6912752,39.7315436 33.2885906,39.7315436 C33.2885906,39.5973154 33.557047,39.3288591 33.8255034,38.9261745 C33.9597315,37.7181208 34.2281879,36.3758389 34.6308725,35.033557 L34.6308725,35.033557 Z" id="Shape" fill="#1D2088"></path>
                                <path d="M155.302013,2.68456376 C156.510067,2.95302013 157.449664,3.3557047 158.120805,4.29530201 C157.718121,6.17449664 155.973154,6.97986577 156.510067,8.18791946 C156.912752,8.99328859 157.718121,9.26174497 158.120805,9.79865772 C158.657718,10.4697987 158.926174,11.9463087 159.463087,12.3489933 C160.536913,13.0201342 161.208054,12.7516779 162.416107,12.6174497 C165.369128,12.2147651 169.261745,10.738255 173.020134,10.0671141 C173.288591,10.4697987 173.557047,10.738255 173.825503,11.1409396 C173.154362,12.3489933 172.61745,13.2885906 171.677852,13.6912752 C170.469799,14.0939597 168.85906,13.8255034 167.651007,15.033557 C166.845638,15.8389262 167.114094,17.1812081 167.248322,18.7919463 C167.516779,22.0134228 168.322148,26.1744966 166.979866,28.7248322 C166.442953,28.8590604 165.771812,28.8590604 165.234899,28.9932886 C163.355705,28.0536913 161.208054,27.114094 160.134228,25.3691275 C160.268456,25.2348993 160.268456,25.2348993 160.402685,25.1006711 C161.744966,24.966443 162.95302,24.6979866 164.295302,24.5637584 C164.42953,21.2080537 164.42953,17.852349 164.563758,14.4966443 C164.161074,14.6308725 163.892617,14.6308725 163.489933,14.7651007 C162.684564,14.8993289 159.731544,16.7785235 158.657718,15.033557 C158.255034,14.0939597 157.986577,13.1543624 157.583893,12.2147651 C156.778523,13.0201342 155.973154,13.8255034 155.302013,14.4966443 C155.302013,15.8389262 155.167785,17.4496644 155.302013,19.0604027 C155.704698,22.4161074 156.510067,26.0402685 155.033557,28.3221477 C154.630872,28.4563758 154.362416,28.7248322 153.959732,28.8590604 C153.825503,28.7248322 153.557047,28.4563758 153.422819,28.3221477 C152.885906,27.9194631 152.348993,27.5167785 151.812081,26.9798658 C151.946309,23.3557047 153.288591,21.2080537 152.348993,17.9865772 L152.080537,17.9865772 C149.798658,18.7919463 149.530201,20.6711409 147.248322,21.3422819 C146.979866,21.0738255 146.711409,20.8053691 146.442953,20.5369128 L146.442953,19.1946309 C148.590604,16.5100671 151.409396,14.7651007 153.154362,11.409396 C153.020134,11.1409396 153.020134,10.8724832 152.885906,10.6040268 C151.812081,10.3355705 151.812081,10.738255 151.14094,9.79865772 L151.14094,8.99328859 C152.080537,6.44295302 154.362416,5.5033557 155.302013,2.68456376 L155.302013,2.68456376 Z M66.3087248,3.89261745 C67.7852349,4.16107383 68.8590604,4.56375839 69.9328859,5.23489933 L69.9328859,8.32214765 C70.4697987,8.59060403 71.1409396,8.8590604 71.6778523,9.12751678 C73.0201342,8.32214765 74.4966443,7.91946309 76.5100671,7.7852349 C77.3154362,8.99328859 77.4496644,9.26174497 77.3154362,10.8724832 C74.7651007,11.1409396 72.4832215,10.6040268 70.3355705,11.9463087 L70.3355705,12.2147651 C70.4697987,12.885906 70.738255,13.557047 70.8724832,14.2281879 C72.6174497,14.4966443 76.3758389,14.7651007 77.3154362,16.5100671 C77.4496644,17.4496644 77.5838926,17.1812081 76.7785235,17.852349 C75.033557,18.6577181 73.2885906,17.7181208 71.8120805,16.9127517 C70.6040268,16.2416107 69.5302013,15.8389262 68.7248322,14.7651007 C68.1879195,13.9597315 68.1879195,12.885906 67.7852349,12.2147651 L66.9798658,12.2147651 C66.7114094,12.4832215 66.3087248,12.6174497 66.1744966,13.1543624 C65.9060403,13.9597315 66.0402685,15.4362416 65.6375839,16.2416107 C65.1006711,17.3154362 64.1610738,17.9865772 63.8926174,18.9261745 C64.6979866,19.4630872 64.966443,19.7315436 65.5033557,20.5369128 C65.9060403,20.4026846 66.3087248,20.4026846 66.8456376,20.2684564 C67.114094,19.0604027 67.3825503,18.3892617 68.1879195,17.7181208 C69.1275168,18.1208054 70.0671141,18.3892617 71.0067114,18.7919463 L71.0067114,19.0604027 C70.4697987,20.2684564 69.5302013,20.9395973 69.6644295,22.147651 C70.738255,25.9060403 74.3624161,27.3825503 77.3154362,27.9194631 C79.5973154,28.3221477 81.2080537,27.7852349 82.2818792,29.3959732 C81.8791946,29.5302013 81.6107383,30.0671141 81.2080537,30.2013423 C79.5973154,30.3355705 77.0469799,32.885906 75.8389262,31.8120805 C73.1543624,29.6644295 70.3355705,26.9798658 67.6510067,24.8322148 C65.2348993,26.7114094 63.3557047,28.7248322 60.9395973,29.5302013 C59.1946309,30.0671141 57.0469799,29.7986577 54.4966443,29.1275168 L54.4966443,28.3221477 L55.8389262,28.3221477 C56.9127517,28.1879195 57.9865772,28.0536913 59.0604027,27.7852349 C61.7449664,27.114094 64.4295302,25.6375839 64.8322148,22.5503356 C63.7583893,21.6107383 62.6845638,20.2684564 61.3422819,19.8657718 C60.1342282,19.4630872 58.6577181,20 58.3892617,19.1946309 C58.6577181,18.7919463 58.9261745,18.5234899 59.1946309,18.1208054 C61.4765101,17.852349 62.9530201,15.9731544 63.8926174,14.2281879 C63.7583893,13.8255034 63.7583893,13.4228188 63.6241611,12.885906 C61.0738255,13.1543624 60.5369128,13.4228188 58.5234899,12.885906 C58.3892617,12.4832215 58.1208054,12.2147651 57.9865772,11.8120805 C58.5234899,11.2751678 58.2550336,10.8724832 59.0604027,11.1409396 C66.9798658,10.8724832 65.6375839,10.3355705 68.3221477,9.26174497 L68.3221477,8.99328859 C67.5167785,7.7852349 66.442953,7.11409396 65.5033557,6.17449664 C65.6375839,5.5033557 65.9060403,4.69798658 66.3087248,3.89261745 L66.3087248,3.89261745 Z M103.624161,3.89261745 C105.100671,4.29530201 105.771812,4.83221477 105.90604,6.7114094 C104.161074,7.91946309 102.281879,8.99328859 101.208054,10.8724832 C101.342282,11.8120805 101.610738,12.0805369 102.013423,12.6174497 C103.087248,11.8120805 103.355705,11.2751678 105.100671,11.0067114 C106.174497,12.3489933 107.114094,13.0201342 105.90604,14.8993289 C105.90604,15.5704698 105.503356,15.8389262 105.503356,17.0469799 C105.503356,18.2550336 106.174497,18.7919463 106.308725,20.2684564 C106.442953,22.147651 106.174497,25.1006711 106.577181,26.1744966 C108.456376,25.6375839 110.33557,25.1006711 112.214765,24.5637584 C112.348993,24.8322148 112.61745,25.1006711 112.751678,25.3691275 C109.395973,34.6308725 98.7919463,27.5167785 91.1409396,27.114094 C89.261745,27.6510067 87.3825503,28.3221477 85.5033557,28.8590604 C84.295302,27.2483221 84.1610738,27.3825503 85.2348993,25.7718121 C86.3087248,25.6375839 87.2483221,25.6375839 88.3221477,25.5033557 C88.4563758,25.1006711 88.7248322,24.8322148 88.8590604,24.4295302 C88.9932886,24.0268456 88.7248322,23.6241611 88.8590604,23.2214765 C88.3221477,21.8791946 87.2483221,20 86.9798658,18.1208054 C86.8456376,17.0469799 87.5167785,15.9731544 87.3825503,15.033557 C87.2483221,13.6912752 87.114094,13.6912752 86.9798658,12.0805369 C87.2483221,11.9463087 87.5167785,11.9463087 87.7852349,11.8120805 C88.4563758,11.2751678 88.7248322,11.2751678 89.5302013,11.5436242 C90.0671141,12.3489933 90.6040268,13.2885906 91.1409396,14.0939597 C91.0067114,14.7651007 90.3355705,15.5704698 90.2013423,16.6442953 C89.9328859,18.2550336 90.4697987,19.8657718 90.8724832,21.6107383 C91.2751678,23.2214765 91.409396,24.8322148 92.7516779,25.5033557 L94.3624161,25.5033557 C94.4966443,25.3691275 94.4966443,25.1006711 94.6308725,24.966443 C94.0939597,23.4899329 94.2281879,20.9395973 94.2281879,18.6577181 C94.2281879,16.9127517 93.9597315,15.3020134 94.4966443,14.3624161 C95.3020134,14.3624161 96.5100671,14.3624161 97.1812081,13.557047 C97.5838926,13.0201342 97.5838926,11.9463087 97.9865772,11.409396 C98.3892617,10.8724832 99.0604027,11.1409396 99.3288591,10.6040268 C99.5973154,10.2013423 99.5973154,8.99328859 99.5973154,8.45637584 C99.3288591,8.32214765 99.0604027,8.32214765 98.7919463,8.18791946 C97.852349,8.99328859 96.9127517,9.79865772 95.9731544,10.4697987 C95.5704698,10.2013423 95.3020134,9.93288591 94.8993289,9.66442953 C95.033557,8.8590604 95.3020134,7.91946309 95.4362416,7.11409396 C96.9127517,7.11409396 98.1208054,7.38255034 99.0604027,6.97986577 C100,6.57718121 100.536913,5.63758389 101.208054,4.96644295 C101.879195,4.83221477 102.684564,4.56375839 103.624161,3.89261745 L103.624161,3.89261745 Z M124.697987,4.4295302 C127.516779,4.96644295 127.785235,8.45637584 128.85906,10.6040268 C128.590604,11.0067114 128.322148,11.409396 128.053691,11.9463087 L127.785235,11.9463087 C126.979866,11.409396 126.040268,10.738255 125.234899,10.2013423 C124.161074,10.8724832 122.416107,12.3489933 124.161074,13.557047 C125.234899,13.6912752 125.369128,12.885906 126.442953,13.557047 C126.711409,13.6912752 126.979866,13.9597315 127.248322,14.0939597 C126.979866,15.3020134 126.442953,15.8389262 126.577181,16.3758389 C126.711409,16.9127517 127.38255,17.4496644 128.053691,18.5234899 C126.845638,19.4630872 126.174497,19.7315436 126.040268,21.8791946 C126.174497,22.0134228 126.442953,22.0134228 126.577181,22.147651 C126.845638,22.0134228 127.114094,22.0134228 127.38255,21.8791946 C127.516779,21.2080537 127.785235,20.5369128 127.919463,19.8657718 L128.993289,19.8657718 C129.127517,21.6107383 128.724832,22.8187919 129.261745,24.0268456 C129.66443,23.8926174 130.067114,23.8926174 130.604027,23.7583893 C130.201342,21.2080537 130.201342,17.5838926 130.201342,14.2281879 C130.201342,11.9463087 130.067114,9.93288591 130.604027,8.32214765 C133.557047,8.8590604 134.630872,6.84563758 137.583893,6.30872483 C137.986577,6.7114094 138.389262,6.97986577 138.926174,7.38255034 C138.52349,10.4697987 137.718121,11.8120805 137.583893,16.1073826 C135.838926,17.1812081 135.704698,18.1208054 133.422819,18.3892617 C133.825503,19.7315436 135.167785,20.1342282 136.510067,19.4630872 C138.389262,18.3892617 138.52349,16.1073826 140.134228,15.033557 L142.95302,15.033557 C143.087248,15.1677852 143.087248,15.4362416 143.221477,15.5704698 L143.221477,16.6442953 C141.744966,17.3154362 139.060403,18.6577181 139.060403,20.8053691 C140.402685,21.7449664 141.744966,22.6845638 143.221477,23.6241611 C143.892617,25.1006711 143.087248,26.5771812 142.416107,27.5167785 C141.342282,26.5771812 138.926174,22.9530201 137.583893,24.1610738 C134.765101,25.5033557 135.838926,29.3959732 132.214765,30.0671141 C131.812081,29.9328859 131.409396,29.6644295 130.872483,29.5302013 C130.738255,28.8590604 130.469799,28.9932886 130.33557,28.3221477 C130.201342,27.5167785 130.201342,25.9060403 129.798658,25.7718121 C126.979866,27.114094 122.147651,30.3355705 118.926174,28.0536913 L118.926174,27.7852349 C119.865772,26.9798658 121.208054,26.5771812 122.281879,26.0402685 C121.879195,24.966443 121.610738,24.0268456 121.208054,22.9530201 C122.013423,22.6845638 122.95302,22.4161074 123.758389,22.147651 L123.758389,21.3422819 C123.489933,21.2080537 123.221477,20.9395973 122.95302,20.8053691 C122.550336,21.0738255 122.147651,21.3422819 121.610738,21.6107383 C120.536913,20.9395973 120.268456,21.2080537 120,19.5973154 C121.208054,19.1946309 122.416107,18.9261745 123.624161,18.5234899 C123.624161,17.0469799 123.355705,16.7785235 122.818792,15.9731544 L121.073826,15.9731544 C120,17.1812081 118.791946,18.3892617 117.718121,19.5973154 C116.375839,19.5973154 115.302013,19.5973154 114.630872,19.0604027 L114.09396,19.0604027 L114.09396,17.9865772 C115.302013,17.3154362 116.778523,16.6442953 117.852349,15.5704698 C119.865772,13.6912752 121.47651,11.0067114 122.550336,9.12751678 C123.355705,7.65100671 122.684564,7.24832215 123.624161,5.77181208 C124.026846,4.69798658 124.161074,5.23489933 124.697987,4.4295302 L124.697987,4.4295302 Z M167.919463,6.30872483 C168.322148,6.57718121 168.724832,6.84563758 169.261745,7.11409396 L169.261745,7.91946309 C168.993289,8.05369128 168.724832,8.32214765 168.456376,8.45637584 C167.919463,9.12751678 164.697987,10.2013423 163.087248,9.79865772 C161.47651,10.0671141 160.939597,8.8590604 160.268456,7.51677852 L160.805369,7.51677852 C163.221477,6.97986577 165.637584,6.57718121 167.919463,6.30872483 L167.919463,6.30872483 Z M89.3959732,7.51677852 C90.0671141,7.91946309 90.738255,8.18791946 91.409396,8.59060403 C91.6778523,10.2013423 91.409396,11.8120805 89.7986577,10.6040268 C88.9932886,10.3355705 89.261745,10.4697987 88.7248322,9.79865772 C88.0536913,8.59060403 88.4563758,8.32214765 89.3959732,7.51677852 L89.3959732,7.51677852 Z M134.228188,8.8590604 C133.691275,9.39597315 133.020134,10.0671141 132.483221,10.6040268 C132.751678,11.0067114 133.020134,11.2751678 133.288591,11.6778523 C134.765101,11.5436242 134.765101,11.409396 135.57047,10.8724832 C135.704698,10.4697987 135.704698,10.0671141 135.838926,9.53020134 C135.167785,8.99328859 135.436242,8.99328859 134.228188,8.8590604 L134.228188,8.8590604 Z M133.154362,13.1543624 C132.885906,14.2281879 133.020134,15.1677852 133.422819,15.9731544 L134.228188,15.9731544 C134.630872,15.5704698 134.899329,15.1677852 135.302013,14.6308725 C135.167785,14.2281879 135.167785,13.8255034 135.033557,13.2885906 C134.362416,13.4228188 133.825503,13.2885906 133.154362,13.1543624 L133.154362,13.1543624 Z M102.818792,13.6912752 C102.281879,14.0939597 101.744966,14.3624161 101.208054,14.7651007 L101.208054,15.8389262 C101.610738,16.2416107 101.879195,16.5100671 102.281879,16.9127517 C102.95302,16.6442953 103.221477,16.6442953 103.624161,16.1073826 C104.026846,14.8993289 103.624161,14.3624161 102.818792,13.6912752 L102.818792,13.6912752 Z M97.1812081,15.5704698 C96.9127517,16.6442953 96.6442953,17.0469799 96.9127517,18.1208054 L97.1812081,18.1208054 C98.1208054,17.7181208 97.9865772,17.852349 98.5234899,17.0469799 L98.5234899,15.4362416 C97.9865772,15.5704698 97.5838926,15.5704698 97.1812081,15.5704698 L97.1812081,15.5704698 Z M102.281879,18.1208054 C102.013423,18.5234899 101.744966,18.7919463 101.47651,19.1946309 C101.744966,19.5973154 102.013423,20 102.281879,20.5369128 C102.818792,20.4026846 103.355705,20.6711409 103.892617,20 L103.892617,18.3892617 C103.355705,18.2550336 102.818792,18.1208054 102.281879,18.1208054 L102.281879,18.1208054 Z M97.1812081,19.3288591 C97.0469799,19.4630872 96.7785235,19.4630872 96.6442953,19.5973154 C96.7785235,20.1342282 96.5100671,20.8053691 97.1812081,21.3422819 L97.9865772,21.3422819 C98.1208054,21.0738255 98.3892617,20.8053691 98.5234899,20.5369128 C98.3892617,20.1342282 98.3892617,19.8657718 98.2550336,19.4630872 C97.852349,19.5973154 97.5838926,19.4630872 97.1812081,19.3288591 L97.1812081,19.3288591 Z M133.020134,20.4026846 C132.348993,21.7449664 131.946309,23.4899329 132.751678,24.295302 C133.288591,24.8322148 132.885906,24.5637584 133.825503,24.8322148 C135.436242,23.6241611 136.644295,20.4026846 133.020134,20.4026846 L133.020134,20.4026846 Z M102.013423,21.7449664 C101.342282,23.2214765 100.939597,25.2348993 101.744966,26.8456376 L102.550336,26.8456376 C102.95302,26.0402685 103.221477,26.1744966 103.087248,25.2348993 C103.489933,24.0268456 103.355705,22.8187919 102.818792,21.8791946 C102.550336,21.8791946 102.281879,21.7449664 102.013423,21.7449664 L102.013423,21.7449664 Z M97.4496644,22.4161074 C97.1812081,22.8187919 96.9127517,23.0872483 96.6442953,23.4899329 C96.7785235,24.5637584 97.0469799,25.5033557 97.1812081,26.5771812 L98.2550336,26.5771812 C98.5234899,26.442953 98.7919463,26.1744966 99.0604027,26.0402685 C99.1946309,23.8926174 99.3288591,22.5503356 97.4496644,22.4161074 L97.4496644,22.4161074 Z" id="Shape" fill="#1D2088"></path>
                                <path d="M55.3020134,37.4496644 L55.3020134,39.5973154 L57.0469799,39.5973154 C57.9865772,39.5973154 58.5234899,39.1946309 58.5234899,38.3892617 C58.5234899,37.7181208 57.9865772,37.4496644 57.0469799,37.3154362 L55.3020134,37.3154362 L55.3020134,37.4496644 Z M54.3624161,43.7583893 L54.3624161,36.7785235 L57.4496644,36.7785235 C58.6577181,36.7785235 59.3288591,37.4496644 59.4630872,38.5234899 C59.4630872,39.1946309 59.1946309,39.7315436 58.5234899,40 C59.3288591,40.2684564 59.8657718,40.9395973 59.8657718,41.7449664 C59.7315436,43.0872483 58.9261745,43.7583893 57.4496644,43.7583893 L54.3624161,43.7583893 L54.3624161,43.7583893 Z M55.3020134,40.4026846 L55.3020134,42.8187919 L57.3154362,42.8187919 C58.2550336,42.8187919 58.7919463,42.4161074 58.7919463,41.6107383 C58.7919463,40.8053691 58.2550336,40.4026846 57.0469799,40.4026846 L55.3020134,40.4026846 L55.3020134,40.4026846 Z M65.3691275,41.6107383 L62.5503356,41.6107383 L61.8791946,43.6241611 L60.9395973,43.6241611 L63.6241611,36.6442953 L64.6979866,36.6442953 L67.2483221,43.6241611 L66.1744966,43.6241611 L65.3691275,41.6107383 L65.3691275,41.6107383 Z M62.8187919,40.8053691 L64.966443,40.8053691 L63.8926174,37.7181208 L63.8926174,37.7181208 L62.8187919,40.8053691 L62.8187919,40.8053691 Z M73.1543624,42.4161074 L73.1543624,36.7785235 L74.0939597,36.7785235 L74.0939597,43.7583893 L73.0201342,43.7583893 L69.5302013,38.1208054 L69.5302013,38.1208054 L69.5302013,43.7583893 L68.4563758,43.7583893 L68.4563758,36.7785235 L69.6644295,36.7785235 L73.1543624,42.4161074 L73.1543624,42.4161074 Z M76.9127517,41.2080537 L76.9127517,43.7583893 L75.9731544,43.7583893 L75.9731544,36.7785235 L76.9127517,36.7785235 L76.9127517,40.1342282 L80.2684564,36.7785235 L81.6107383,36.7785235 L78.6577181,39.5973154 L81.6107383,43.7583893 L80.5369128,43.7583893 L78.1208054,40.2684564 L76.9127517,41.2080537 L76.9127517,41.2080537 Z M90.738255,40.2684564 C90.6040268,38.3892617 89.7986577,37.4496644 88.3221477,37.3154362 C86.7114094,37.4496644 85.9060403,38.3892617 85.9060403,40.2684564 C85.9060403,42.147651 86.7114094,43.0872483 88.3221477,43.0872483 C89.7986577,42.9530201 90.738255,42.0134228 90.738255,40.2684564 L90.738255,40.2684564 Z M91.6778523,40.2684564 C91.5436242,42.5503356 90.3355705,43.7583893 88.3221477,43.8926174 C86.1744966,43.7583893 84.966443,42.6845638 84.8322148,40.2684564 C84.966443,37.852349 86.1744966,36.6442953 88.3221477,36.5100671 C90.4697987,36.6442953 91.5436242,37.852349 91.6778523,40.2684564 L91.6778523,40.2684564 Z M94.4966443,40.5369128 L94.4966443,43.7583893 L93.557047,43.7583893 L93.557047,36.7785235 L98.3892617,36.7785235 L98.3892617,37.5838926 L94.4966443,37.5838926 L94.4966443,39.7315436 L97.9865772,39.7315436 L97.9865772,40.5369128 L94.4966443,40.5369128 L94.4966443,40.5369128 Z M107.919463,38.7919463 L106.979866,38.7919463 C106.711409,37.852349 106.040268,37.4496644 104.966443,37.3154362 C103.489933,37.4496644 102.684564,38.3892617 102.684564,40.1342282 C102.684564,42.0134228 103.489933,43.0872483 104.966443,43.0872483 C106.040268,43.0872483 106.711409,42.4161074 106.979866,41.0738255 L107.919463,41.0738255 C107.651007,42.8187919 106.577181,43.7583893 104.832215,43.7583893 C102.818792,43.6241611 101.744966,42.4161074 101.744966,40.1342282 C101.879195,37.852349 102.95302,36.5100671 104.966443,36.5100671 C106.711409,36.6442953 107.651007,37.3154362 107.919463,38.7919463 L107.919463,38.7919463 Z M115.167785,40.2684564 C115.033557,38.3892617 114.228188,37.4496644 112.751678,37.3154362 C111.14094,37.4496644 110.33557,38.3892617 110.33557,40.2684564 C110.33557,42.147651 111.14094,43.0872483 112.751678,43.0872483 C114.228188,42.9530201 115.033557,42.0134228 115.167785,40.2684564 L115.167785,40.2684564 Z M116.107383,40.2684564 C115.973154,42.5503356 114.765101,43.7583893 112.751678,43.8926174 C110.604027,43.7583893 109.395973,42.6845638 109.261745,40.2684564 C109.395973,37.852349 110.604027,36.6442953 112.751678,36.5100671 C114.765101,36.6442953 115.973154,37.852349 116.107383,40.2684564 L116.107383,40.2684564 Z M124.42953,43.7583893 L123.489933,43.7583893 L123.489933,39.5973154 L123.489933,37.852349 L121.47651,43.7583893 L120.536913,43.7583893 L118.52349,37.852349 L118.52349,37.852349 L118.52349,39.1946309 L118.52349,39.5973154 L118.52349,43.7583893 L117.583893,43.7583893 L117.583893,36.7785235 L118.926174,36.7785235 L120.939597,42.6845638 L122.95302,36.7785235 L124.295302,36.7785235 L124.295302,43.7583893 L124.42953,43.7583893 Z M133.154362,43.7583893 L132.214765,43.7583893 L132.214765,39.5973154 L132.214765,37.852349 L130.201342,43.7583893 L129.261745,43.7583893 L127.248322,37.852349 L127.248322,37.852349 L127.248322,39.1946309 L127.248322,39.5973154 L127.248322,43.7583893 L126.308725,43.7583893 L126.308725,36.7785235 L127.651007,36.7785235 L129.66443,42.6845638 L131.677852,36.7785235 L133.020134,36.7785235 L133.020134,43.7583893 L133.154362,43.7583893 Z M139.731544,36.6442953 L140.671141,36.6442953 L140.671141,41.2080537 C140.536913,42.9530201 139.597315,43.7583893 137.852349,43.7583893 C136.107383,43.7583893 135.167785,42.9530201 135.167785,41.3422819 L135.167785,36.6442953 L136.107383,36.6442953 L136.107383,41.0738255 C136.107383,42.2818792 136.644295,42.9530201 137.852349,43.0872483 C139.060403,43.0872483 139.731544,42.4161074 139.731544,41.0738255 L139.731544,36.6442953 L139.731544,36.6442953 Z M147.248322,42.4161074 L147.248322,36.7785235 L148.187919,36.7785235 L148.187919,43.7583893 L147.114094,43.7583893 L143.624161,38.1208054 L143.624161,38.1208054 L143.624161,43.7583893 L142.684564,43.7583893 L142.684564,36.7785235 L143.892617,36.7785235 L147.248322,42.4161074 L147.248322,42.4161074 Z M151.275168,36.6442953 L151.275168,43.6241611 L150.33557,43.6241611 L150.33557,36.6442953 L151.275168,36.6442953 L151.275168,36.6442953 Z M159.328859,38.7919463 L158.389262,38.7919463 C158.120805,37.852349 157.449664,37.4496644 156.375839,37.3154362 C154.899329,37.4496644 154.09396,38.3892617 154.09396,40.1342282 C154.09396,42.0134228 154.899329,43.0872483 156.375839,43.0872483 C157.449664,43.0872483 158.120805,42.4161074 158.389262,41.0738255 L159.328859,41.0738255 C159.060403,42.8187919 157.986577,43.7583893 156.241611,43.7583893 C154.228188,43.6241611 153.154362,42.4161074 153.154362,40.1342282 C153.288591,37.852349 154.362416,36.5100671 156.375839,36.5100671 C158.120805,36.6442953 159.060403,37.3154362 159.328859,38.7919463 L159.328859,38.7919463 Z M164.966443,41.6107383 L162.147651,41.6107383 L161.47651,43.6241611 L160.536913,43.6241611 L163.221477,36.6442953 L164.295302,36.6442953 L166.845638,43.6241611 L165.771812,43.6241611 L164.966443,41.6107383 L164.966443,41.6107383 Z M162.416107,40.8053691 L164.563758,40.8053691 L163.489933,37.7181208 L163.489933,37.7181208 L162.416107,40.8053691 L162.416107,40.8053691 Z M167.516779,37.4496644 L167.516779,36.6442953 L173.154362,36.6442953 L173.154362,37.4496644 L170.738255,37.4496644 L170.738255,43.6241611 L169.798658,43.6241611 L169.798658,37.4496644 L167.516779,37.4496644 L167.516779,37.4496644 Z M175.704698,36.6442953 L175.704698,43.6241611 L174.765101,43.6241611 L174.765101,36.6442953 L175.704698,36.6442953 L175.704698,36.6442953 Z M183.355705,40.2684564 C183.221477,38.3892617 182.416107,37.4496644 180.939597,37.3154362 C179.328859,37.4496644 178.52349,38.3892617 178.52349,40.2684564 C178.52349,42.147651 179.328859,43.0872483 180.939597,43.0872483 C182.416107,42.9530201 183.221477,42.0134228 183.355705,40.2684564 L183.355705,40.2684564 Z M184.295302,40.2684564 C184.161074,42.5503356 182.95302,43.7583893 180.939597,43.8926174 C178.791946,43.7583893 177.583893,42.6845638 177.449664,40.2684564 C177.583893,37.852349 178.791946,36.6442953 180.939597,36.5100671 C183.087248,36.6442953 184.161074,37.852349 184.295302,40.2684564 L184.295302,40.2684564 Z M190.604027,42.4161074 L190.604027,36.7785235 L191.543624,36.7785235 L191.543624,43.7583893 L190.469799,43.7583893 L186.979866,38.1208054 L186.979866,38.1208054 L186.979866,43.7583893 L186.040268,43.7583893 L186.040268,36.7785235 L187.248322,36.7785235 L190.604027,42.4161074 L190.604027,42.4161074 Z M198.657718,38.6577181 L197.718121,38.6577181 C197.583893,37.7181208 197.04698,37.3154362 195.973154,37.1812081 C194.899329,37.1812081 194.362416,37.5838926 194.362416,38.3892617 C194.362416,38.9261745 194.630872,39.1946309 195.167785,39.3288591 L197.181208,39.7315436 C198.255034,40 198.791946,40.6711409 198.791946,41.6107383 C198.791946,42.9530201 197.852349,43.6241611 195.973154,43.6241611 C194.899329,43.6241611 194.228188,43.3557047 193.825503,42.9530201 C193.288591,42.5503356 193.020134,42.0134228 193.154362,41.2080537 L194.09396,41.2080537 C194.09396,42.2818792 194.765101,42.8187919 195.973154,42.8187919 C197.181208,42.8187919 197.852349,42.4161074 197.852349,41.6107383 C197.986577,40.9395973 197.449664,40.5369128 196.375839,40.4026846 L194.899329,40.1342282 C193.959732,39.8657718 193.422819,39.3288591 193.422819,38.3892617 C193.557047,37.0469799 194.362416,36.2416107 195.838926,36.2416107 C197.718121,36.5100671 198.657718,37.3154362 198.657718,38.6577181 L198.657718,38.6577181 Z" id="Shape" fill="#000000"></path>
                            </g>
                        </g>
                    </g>
                </g>
            </g>
        </g>
    </g>
</svg>