<?xml version="1.0" encoding="UTF-8"?>
<svg width="200px" height="50px" viewBox="0 0 200 50" version="1.1" xmlns="http://www.w3.org/2000/svg" xmlns:xlink="http://www.w3.org/1999/xlink">
    <!-- Generator: Sketch 42 (36781) - http://www.bohemiancoding.com/sketch -->
    <title>svg</title>
    <desc>Created with Sketch.</desc>
    <defs></defs>
    <g id="Page-1" stroke="none" stroke-width="1" fill="none" fill-rule="evenodd">
        <g id="svg">
            <g id="Page_1" transform="translate(0.000000, 1.000000)">
                <g id="Layer_1_1_">
                    <path d="M14.1176471,4.55322097 C17.9607843,6.04479335 21.4901961,9.73447241 21.4901961,14.0521819 L21.4901961,47.6518125 C22.4313725,47.7303163 23.2941176,47.8088201 24.2352941,47.8088201 C25.1764706,47.8088201 26.1176471,47.7303163 26.9803922,47.6518125 L26.9803922,14.1306858 C26.9803922,9.73447241 30.5098039,6.04479335 34.3529412,4.63172477 C34.745098,4.47471716 34.9803922,4.08219811 34.9803922,3.68967906 C34.9803922,3.2186562 34.6666667,2.74763334 34.1960784,2.66912953 C31.1372549,1.25606096 27.7647059,0.471022858 24.1568627,0.471022858 C20.5490196,0.471022858 17.1764706,1.25606096 14.1176471,2.66912953 C13.7254902,2.82613715 13.3333333,3.2186562 13.3333333,3.68967906 C13.4117647,4.08219811 13.7254902,4.39621335 14.1176471,4.55322097 L14.1176471,4.55322097 Z" id="Shape" fill="#D7000F"></path>
                    <path d="M17.9607843,47.023782 L17.9607843,16.2502886 C17.9607843,12.8746248 16.0784314,10.0484876 13.4117647,8.94943431 L13.4117647,45.2966982 C14.9019608,46.0032325 16.3921569,46.5527592 17.9607843,47.023782 L17.9607843,47.023782 Z" id="Shape" fill="#D7000F"></path>
                    <path d="M34.9803922,45.2966982 L34.9803922,8.94943431 C32.3137255,10.0484876 30.4313725,12.9531286 30.4313725,16.2502886 L30.4313725,47.023782 C32.0784314,46.5527592 33.5686275,46.0032325 34.9803922,45.2966982 L34.9803922,45.2966982 Z" id="Shape" fill="#D7000F"></path>
                    <path d="M5.41176471,19.8614639 C5.56862745,19.8614639 5.80392157,20.0184715 5.80392157,20.1754791 C6.19607843,21.5885477 7.29411765,22.6090972 8.62745098,22.687601 C9.01960784,22.687601 9.41176471,22.4520896 9.7254902,22.1380743 L9.7254902,5.25975525 C4.07843137,9.57746479 0.470588235,16.4072962 0.470588235,24.1006696 C0.470588235,31.7940429 4.07843137,38.6238744 9.7254902,42.9415839 L9.7254902,25.984761 C9.41176471,25.6707458 9.01960784,25.5137382 8.62745098,25.4352344 C7.29411765,25.5137382 6.11764706,26.5342877 5.80392157,27.9473563 C5.7254902,28.1043639 5.56862745,28.2613715 5.41176471,28.2613715 C5.25490196,28.2613715 5.09803922,28.1043639 5.01960784,28.0258601 C4.15686275,27.0053106 3.60784314,25.5137382 3.60784314,24.0221658 C3.60784314,22.4520896 4.15686275,21.1175248 5.01960784,20.0184715 C5.09803922,20.0184715 5.25490196,19.8614639 5.41176471,19.8614639 L5.41176471,19.8614639 Z" id="Shape" fill="#D7000F"></path>
                    <path d="M46.1960784,25.4352344 C44.8627451,25.5137382 43.7647059,26.5342877 43.372549,27.9473563 C43.2941176,28.1043639 43.1372549,28.2613715 42.9803922,28.2613715 C42.8235294,28.2613715 42.6666667,28.1043639 42.5882353,28.0258601 C41.7254902,27.0053106 41.254902,25.5137382 41.254902,24.0221658 C41.254902,22.4520896 41.8039216,21.1175248 42.5882353,20.0184715 C42.6666667,19.9399677 42.8235294,19.7829601 42.9803922,19.7829601 C43.1372549,19.7829601 43.372549,19.9399677 43.372549,20.0969753 C43.7647059,21.5100439 44.8627451,22.5305934 46.1960784,22.6090972 C46.8235294,22.5305934 47.4509804,22.0595705 47.7647059,21.4315401 C47.0588235,14.83722 43.6862745,9.10644193 38.745098,5.25975525 L38.745098,42.7845763 C43.4509804,39.0948973 46.745098,33.6781344 47.6862745,27.4763334 C47.6862745,27.1623182 47.7647059,26.8483029 47.7647059,26.5342877 C47.4509804,25.984761 46.9019608,25.5137382 46.1960784,25.4352344 L46.1960784,25.4352344 Z" id="Shape" fill="#D7000F"></path>
                    <path d="M100.705882,47.6518125 L100.705882,47.2592935 C100.313725,47.1807897 100.078431,47.1022858 100,47.023782 C99.8431373,46.9452782 99.8431373,46.7882706 99.8431373,46.631263 L99.8431373,46.3957516 C99.8431373,46.3172477 99.9215686,46.2387439 99.9215686,46.0817363 L100.392157,45.0611868 L103.764706,45.0611868 L104.235294,46.0817363 C104.313725,46.1602401 104.313725,46.3172477 104.313725,46.3957516 L104.313725,46.7097668 C104.313725,46.8667744 104.235294,47.023782 104.078431,47.1022858 C103.921569,47.1807897 103.686275,47.2592935 103.372549,47.2592935 L103.372549,47.6518125 L106.901961,47.6518125 L106.901961,47.2592935 C106.588235,47.2592935 106.352941,47.1807897 106.117647,47.023782 C105.882353,46.8667744 105.72549,46.631263 105.568627,46.2387439 L102.588235,39.5659201 L102.117647,39.5659201 L98.9803922,46.2387439 C98.8235294,46.5527592 98.6666667,46.7882706 98.5098039,46.9452782 C98.3529412,47.1022858 98.1176471,47.1807897 97.8823529,47.1807897 L97.8823529,47.5733087 L100.705882,47.5733087 L100.705882,47.6518125 Z M158.823529,47.6518125 C159.686275,47.6518125 160.392157,47.4163011 160.941176,47.023782 C161.490196,46.631263 161.803922,46.0817363 161.803922,45.4537058 C161.803922,44.9041792 161.647059,44.4331563 161.254902,44.0406373 C160.862745,43.726622 160.313725,43.4911106 159.529412,43.334103 C160.156863,43.1770954 160.627451,42.9415839 160.941176,42.6275687 C161.254902,42.3135535 161.411765,41.9210344 161.411765,41.4500115 C161.411765,40.8219811 161.176471,40.3509582 160.705882,40.036943 C160.235294,39.7229277 159.529412,39.5659201 158.588235,39.5659201 L154.745098,39.5659201 L154.745098,39.9584392 C155.137255,39.9584392 155.372549,40.036943 155.529412,40.1939506 C155.686275,40.3509582 155.764706,40.5864696 155.764706,40.9004849 L155.764706,46.3957516 C155.764706,46.7097668 155.686275,46.9452782 155.529412,47.1022858 C155.372549,47.2592935 155.137255,47.3377973 154.745098,47.3377973 L154.745098,47.7303163 L158.823529,47.7303163 L158.823529,47.6518125 Z M157.019608,40.1154468 L158.27451,40.1154468 C158.901961,40.1154468 159.372549,40.2724544 159.686275,40.5079658 C160,40.7434773 160.156863,41.1359963 160.156863,41.6070192 C160.156863,42.078042 160,42.4705611 159.607843,42.7845763 C159.294118,43.0200877 158.745098,43.1770954 158.117647,43.1770954 L157.019608,43.1770954 L157.019608,40.1154468 L157.019608,40.1154468 Z M165.333333,47.6518125 L165.333333,47.2592935 C164.941176,47.1807897 164.705882,47.1022858 164.627451,47.023782 C164.470588,46.9452782 164.470588,46.7882706 164.470588,46.631263 L164.470588,46.3957516 C164.470588,46.3172477 164.54902,46.2387439 164.54902,46.0817363 L165.019608,45.0611868 L168.392157,45.0611868 L168.862745,46.0817363 C168.941176,46.1602401 168.941176,46.3172477 168.941176,46.3957516 L168.941176,46.7097668 C168.941176,46.8667744 168.862745,47.023782 168.705882,47.1022858 C168.54902,47.1807897 168.313725,47.2592935 168,47.2592935 L168,47.6518125 L171.529412,47.6518125 L171.529412,47.2592935 C171.215686,47.2592935 170.980392,47.1807897 170.745098,47.023782 C170.509804,46.8667744 170.352941,46.631263 170.196078,46.2387439 L167.215686,39.5659201 L166.745098,39.5659201 L163.607843,46.2387439 C163.45098,46.5527592 163.294118,46.7882706 163.137255,46.9452782 C162.980392,47.1022858 162.745098,47.1807897 162.509804,47.1807897 L162.509804,47.5733087 L165.333333,47.5733087 L165.333333,47.6518125 Z M76.8627451,10.6765181 C76.8627451,10.7550219 76.9411765,10.8335257 76.9411765,11.0690372 C76.9411765,11.3830524 76.8627451,11.9325791 76.7058824,12.796121 C76.3137255,14.5232048 75.9215686,15.2297391 75.6862745,15.5437543 L75.6862745,15.5437543 C75.5294118,15.6222581 74.1176471,15.9362734 70.0392157,16.4858 C70.0392157,15.4652505 70.1176471,11.6970677 70.1176471,10.8335257 C74.6666667,10.4410067 76.4705882,10.5980143 76.8627451,10.6765181 L76.8627451,10.6765181 Z M66.8235294,11.3830524 C66.8235294,12.4036019 66.745098,16.093281 66.745098,16.9568229 C65.9607843,17.0353267 62.1176471,17.349342 61.1764706,17.5063496 C61.0980392,16.5643039 60.7843137,13.0316324 60.7058824,12.1680905 C61.6470588,12.0110829 65.8039216,11.4615562 66.8235294,11.3830524 L66.8235294,11.3830524 Z M107.137255,26.2987763 C110.666667,25.6707458 111.921569,25.6707458 112.392157,25.6707458 C112.156863,27.0053106 112.078431,28.1828677 111.686275,29.1249134 C110.666667,29.281921 108.941176,29.5174325 106.588235,29.8314477 C106.509804,29.1249134 106.27451,27.1623182 106.117647,26.4557839 C106.588235,26.4557839 107.137255,26.2987763 107.137255,26.2987763 L107.137255,26.2987763 Z M148.392157,11.4615562 C148.627451,11.3045486 148.627451,11.3045486 148.784314,11.2260448 C148.627451,12.0895867 148.470588,13.1101362 148.235294,14.1306858 C147.764706,14.1306858 147.294118,14.1306858 146.901961,14.2091896 C146.431373,14.2876934 145.803922,14.5232048 144.941176,14.7587162 L144.941176,12.4036019 C146.117647,12.0110829 148.156863,11.54006 148.392157,11.4615562 L148.392157,11.4615562 Z M149.176471,6.67282383 L149.176471,6.98683907 C149.176471,7.30085431 149.176471,7.85038097 149.019608,8.71392288 C149.019608,9.02793812 148.941176,9.42045717 148.862745,9.81297622 L148.862745,9.81297622 L148.784314,9.73447241 C148.392157,9.34195336 148,9.10644193 147.294118,9.02793812 C147.294118,9.02793812 145.490196,9.6559686 144.784314,9.96998384 L144.784314,9.96998384 C144.784314,9.96998384 144.705882,9.96998384 144.705882,10.0484876 L144.705882,7.92888478 C147.686275,6.90833526 148.784314,6.75132764 149.176471,6.67282383 L149.176471,6.67282383 Z M134.196078,1.64858 C133.960784,1.64858 133.647059,1.64858 133.568627,1.72708381 C133.254902,1.96259524 133.411765,2.90464096 133.333333,3.76818287 C133.254902,5.02424382 133.098039,5.49526668 132.862745,6.4373124 C131.45098,10.8335257 129.254902,14.9157239 126.27451,18.3698915 C125.72549,19.0764258 124.705882,19.9399677 125.490196,19.9399677 C125.882353,19.9399677 126.823529,19.5474486 127.45098,19.2334334 C128.470588,18.6839067 129.490196,17.8988686 131.137255,16.1717848 C131.294118,16.3287924 131.529412,16.5643039 132,16.6428077 C132.235294,16.7213115 132.784314,16.6428077 133.176471,16.5643039 C133.254902,16.8783191 133.333333,17.349342 133.411765,17.741861 C133.490196,18.1343801 133.490196,18.6839067 133.490196,19.4689448 C132.235294,19.7829601 130.745098,20.1754791 129.019608,20.5679982 C128.470588,20.7250058 127.686275,20.7250058 127.607843,21.1175248 C127.529412,21.3530363 127.764706,21.8240591 128.392157,22.3735858 C128.784314,22.7661048 129.490196,23.2371277 130.039216,23.1586239 C130.431373,23.0801201 131.607843,22.7661048 132,22.687601 C132.392157,22.5305934 133.098039,22.3735858 133.490196,22.2165782 C133.490196,22.9231124 133.411765,23.6296467 133.411765,24.2576772 C133.411765,24.2576772 133.411765,24.7287001 133.333333,24.8857077 C133.098039,26.1417686 132.705882,26.8483029 132.235294,27.240822 C131.764706,27.5548372 131.45098,27.7118448 131.372549,27.9473563 C131.372549,27.9473563 131.294118,28.0258601 131.294118,28.4183791 C131.294118,28.8108982 131.686275,30.3024706 132.078431,31.0875087 C132.313725,31.4015239 132.470588,31.5585315 132.470588,31.5585315 C133.019608,31.7940429 133.647059,31.3230201 134.27451,30.537982 C134.745098,30.0669591 135.215686,29.5959363 135.607843,29.281921 C136.235294,28.7323944 137.411765,27.633341 138.509804,26.6127915 C139.686275,25.5137382 140.235294,24.9642115 140.54902,24.6501963 C141.019608,24.1006696 141.333333,23.943662 141.254902,23.7081505 C141.176471,23.3941353 140.392157,23.6296467 136.235294,25.5137382 C136.235294,24.336181 136.313725,22.0595705 136.313725,21.5100439 C136.54902,21.4315401 136.862745,21.3530363 136.862745,21.3530363 C138.431373,20.8035096 140,20.3324867 140.313725,20.2539829 C140.627451,20.1754791 141.176471,20.1754791 141.254902,19.7044562 C141.254902,19.4689448 140.941176,18.8409143 140.313725,18.2913877 C139.686275,17.741861 138.980392,17.741861 138.509804,17.8988686 C138.509804,17.8988686 138.117647,18.0558762 137.960784,18.1343801 C137.803922,18.2128839 137.882353,18.2128839 137.098039,18.5268991 C137.098039,18.5268991 136.627451,18.6839067 136.313725,18.7624105 C136.313725,18.6839067 136.313725,18.6054029 136.392157,18.2913877 C136.470588,17.9773724 136.54902,17.5848534 136.627451,17.349342 C136.862745,16.6428077 136.235294,16.4072962 136.156863,16.3287924 C137.254902,16.093281 139.137255,15.3082429 139.137255,15.3082429 C139.45098,15.1512353 140.156863,14.9157239 140.313725,14.5232048 C140.392157,14.2091896 140.156863,13.8166705 139.686275,13.4241515 C139.294118,13.0316324 138.666667,12.5606096 137.490196,12.8746248 C136.784314,13.1101362 135.686275,13.4241515 135.686275,13.4241515 C134.117647,13.9736781 133.176471,14.2876934 132.392157,14.5232048 C132.941176,13.7381667 133.647059,12.6391134 134.196078,11.54006 C135.058824,11.7755715 136.078431,11.6185638 139.764706,10.5195105 C140.235294,10.3625029 140.941176,10.2839991 141.176471,9.89148003 C141.254902,9.73447241 141.098039,9.10644193 140.627451,8.63541907 C140.156863,8.16439621 139.607843,7.85038097 138.980392,7.85038097 C137.960784,8.00738859 137.098039,8.24290002 135.764706,8.71392288 C135.686275,8.71392288 135.607843,8.79242669 135.529412,8.79242669 C135.607843,8.55691526 135.764706,8.24290002 135.921569,8.00738859 C136.862745,5.88778573 137.254902,5.33825906 137.411765,5.18125144 C137.72549,4.78873239 137.960784,4.63172477 137.960784,4.23920573 C137.960784,3.92519049 137.490196,3.29716001 136.784314,2.74763334 C135.843137,2.04109905 134.666667,1.72708381 134.196078,1.64858 L134.196078,1.64858 Z M149.254902,3.29716001 C149.019608,3.37566382 148.862745,3.61117525 148.54902,3.84668668 L148.392157,4.0036943 L148.392157,4.0036943 C148.313725,4.08219811 147.607843,4.47471716 143.921569,5.88778573 C142.666667,5.33825906 141.568627,5.41676287 141.098039,5.6522743 C140.54902,5.96628954 141.176471,6.98683907 141.333333,7.45786193 C141.568627,8.0858924 141.882353,8.8709305 142.117647,11.147541 C142.117647,11.2260448 142.27451,24.9642115 142.27451,25.0427153 C142.117647,27.0838144 142.117647,27.3978296 141.333333,28.2613715 C140.54902,29.1249134 140.54902,29.1249134 140.705882,29.9884553 C140.862745,30.8519972 141.490196,32.4220734 142.196078,32.6575849 C142.823529,32.8145925 143.45098,32.1080582 144.078431,31.4015239 C144.470588,30.8519972 145.647059,29.7529439 146.901961,28.4183791 C148.862745,26.2202725 149.72549,25.3567305 149.647059,24.9642115 C149.568627,24.6501963 148.705882,24.7287001 144.784314,26.3772801 L144.784314,26.3772801 C144.784314,25.0427153 144.862745,20.7250058 144.862745,18.7624105 C145.882353,19.8614639 146.823529,20.8035096 147.607843,21.6670515 C149.019608,23.1586239 150.509804,24.8072039 152.235294,26.4557839 C153.960784,28.2613715 155.686275,28.3398753 160,26.5342877 C160.941176,26.1417686 161.882353,25.592242 161.72549,25.1997229 C161.568627,24.8857077 160.862745,24.8072039 159.764706,24.5716924 C156.313725,23.8651582 153.411765,22.6090972 150.666667,20.646502 C151.764706,19.7829601 152.627451,18.997922 153.176471,18.4483953 C153.490196,18.1343801 153.882353,17.8203648 154.352941,17.4278458 C154.745098,17.0353267 155.215686,17.1138305 155.215686,16.6428077 C155.215686,16.093281 154.509804,15.3082429 153.960784,14.9157239 L153.960784,14.9157239 C153.019608,14.2876934 152,14.1306858 151.686275,14.444701 C151.294118,14.6802124 151.45098,14.6802124 151.45098,14.83722 L151.372549,15.7007619 C151.372549,15.8577696 151.058824,17.1923343 149.176471,19.6259524 C148.627451,19.2334334 147.529412,18.2913877 146.745098,17.5848534 C146.431373,17.2708381 146.117647,17.0353267 145.803922,16.7998153 C146.196078,16.7213115 146.666667,16.5643039 146.666667,16.5643039 C147.529412,16.3287924 148,16.2502886 148.313725,16.1717848 C148.470588,16.3287924 148.784314,16.4858 148.941176,16.5643039 C149.333333,16.7213115 149.803922,16.3287924 150.039216,16.0147772 C150.27451,15.7007619 150.823529,14.9942277 151.058824,14.1306858 L151.058824,14.1306858 C151.372549,13.0316324 151.686275,11.54006 152,9.81297622 C152.156863,9.02793812 152.235294,8.55691526 152.313725,8.39990764 C152.470588,7.85038097 152.862745,7.37935812 153.176471,6.82983145 C153.490196,6.20180097 153.803922,5.80928192 153.803922,5.41676287 L153.647059,5.10274763 C152.705882,4.16070192 151.529412,3.45416763 149.568627,3.2186562 L149.254902,3.29716001 L149.254902,3.29716001 Z M191.843137,12.8746248 C190.901961,13.18864 185.490196,14.444701 178.901961,15.5437543 C178.117647,15.7007619 177.411765,15.7007619 177.254902,16.093281 C177.098039,16.4858 177.490196,16.9568229 177.803922,17.1923343 C178.196078,17.4278458 179.058824,17.9773724 180.156863,18.1343801 L180.235294,18.1343801 C180.705882,18.1343801 181.254902,17.9773724 181.882353,17.8203648 L181.960784,17.8203648 C182.352941,17.6633572 183.45098,17.349342 186.666667,16.7998153 C187.058824,18.2128839 187.294118,20.4894943 187.372549,23.7866544 L187.372549,24.7287001 C187.372549,27.7903486 187.137255,28.8108982 187.058824,29.2034172 C186.823529,29.2034172 186.509804,29.1249134 185.803922,28.9679058 C184.078431,28.5753867 182.352941,27.5548372 182.509804,28.3398753 C182.588235,28.7323944 183.607843,29.6744401 184.470588,30.7734934 C185.098039,31.6370353 185.568627,32.1080582 186.039216,32.9716001 C186.509804,33.9136458 186.745098,34.6986839 187.529412,34.4631725 C188.313725,34.1491572 189.333333,33.442623 190.039216,32.5005772 C190.509804,31.8725468 190.823529,31.1660125 190.901961,30.3809744 C190.980392,29.2034172 190.509804,27.4763334 190.431373,25.984761 C190.27451,24.2576772 190.27451,22.8446086 190.27451,22.2165782 L190.27451,20.4109905 C190.27451,19.7829601 190.352941,19.390441 190.509804,18.7624105 C190.666667,18.5268991 190.745098,18.2128839 190.745098,17.9773724 C190.745098,17.8203648 190.745098,17.6633572 190.666667,17.4278458 C190.509804,17.0353267 190.196078,16.6428077 189.803922,16.2502886 C191.529412,16.093281 193.176471,15.9362734 194.745098,15.9362734 C195.921569,15.9362734 196.941176,15.8577696 197.490196,15.8577696 C197.960784,15.8577696 199.372549,15.8577696 199.686275,15.3082429 C200.156863,14.5232048 199.529412,13.5811591 198.431373,12.796121 C197.568627,12.2465943 196.235294,11.8540753 194.588235,12.1680905 C194.27451,12.2465943 192.627451,12.6391134 191.843137,12.8746248 L191.843137,12.8746248 Z M175.843137,10.2054953 C175.45098,10.4410067 175.215686,10.9905334 175.137255,11.3830524 C175.137255,11.3830524 174.980392,12.796121 172.862745,15.6222581 C170.823529,18.0558762 168.705882,20.1754791 166.196078,22.0595705 C164.784314,23.0801201 164.235294,23.6296467 164.627451,23.8651582 C164.941176,24.1006696 166.509804,23.7866544 168.156863,23.0801201 C169.411765,22.5305934 171.215686,21.3530363 173.333333,19.2334334 C173.411765,19.9399677 173.411765,20.5679982 173.411765,21.2745324 C173.411765,23.4726391 173.568627,25.6707458 172.941176,27.633341 C172.784314,28.1043639 172.705882,28.4183791 172.627451,28.4968829 C172.627451,28.6538906 172.470588,28.889402 172.470588,29.1249134 C172.470588,29.5174325 172.627451,30.1454629 172.862745,30.6164858 C173.176471,31.1660125 173.647059,31.9510506 174.039216,32.3435696 C174.352941,32.7360887 174.745098,33.0501039 175.215686,32.9716001 C175.607843,32.8930963 176.156863,31.0090048 176.156863,29.2034172 L176.156863,22.4520896 C176.156863,22.1380743 176.156863,21.6670515 176.235294,21.1960286 C176.313725,20.7250058 176.392157,20.1754791 176.392157,19.8614639 C176.392157,18.8409143 176,18.2913877 175.215686,17.2708381 C175.607843,16.8783191 176.156863,16.3287924 176.862745,15.5437543 C177.411765,14.9157239 177.960784,14.3661972 178.431373,14.0521819 C178.745098,13.8166705 178.980392,13.4241515 178.980392,13.3456477 C179.137255,13.1101362 178.980392,12.8746248 178.980392,12.8746248 C178.352941,11.3830524 177.098039,10.4410067 176.705882,10.2839991 C176.54902,10.1269915 176.235294,9.96998384 175.843137,10.2054953 L175.843137,10.2054953 Z M189.960784,5.41676287 C189.568627,5.49526668 189.098039,5.6522743 188.156863,6.04479335 L188.156863,6.04479335 C187.372549,6.4373124 185.882353,6.82983145 183.607843,7.45786193 C182.588235,7.69337335 181.72549,7.77187716 181.72549,8.16439621 C181.72549,8.63541907 182.039216,8.94943431 182.509804,9.26344955 C182.980392,9.57746479 184.078431,10.2839991 186.196078,9.81297622 C187.686275,9.49896098 193.254902,8.24290002 193.803922,7.77187716 C193.803922,7.77187716 194.117647,7.61486955 194.117647,7.37935812 C194.196078,6.90833526 193.254902,6.12329716 192.941176,5.96628954 C191.843137,5.10274763 190.352941,5.33825906 189.960784,5.41676287 L189.960784,5.41676287 Z M176.627451,1.96259524 C176.235294,1.88409143 176,1.96259524 175.764706,2.11960286 C175.607843,2.27661048 175.45098,2.98314477 175.529412,3.53267144 C175.607843,3.92519049 175.45098,4.23920573 174.588235,5.57377049 C173.019608,7.77187716 170.745098,10.1269915 169.960784,10.8335257 C169.176471,11.54006 168.078431,12.5606096 168.235294,12.8746248 C168.392157,13.18864 169.647059,13.1101362 170.980392,12.4036019 C171.921569,11.9325791 173.803922,10.5980143 176.470588,8.16439621 C177.176471,7.53636574 177.882353,6.90833526 178.745098,6.20180097 C179.607843,5.49526668 179.843137,5.18125144 179.843137,4.94574001 C179.921569,4.78873239 179.764706,4.47471716 179.764706,4.47471716 C178.745098,2.82613715 177.333333,2.11960286 176.627451,1.96259524 L176.627451,1.96259524 Z M111.686275,22.9231124 C111.686275,22.9231124 108.313725,24.0221658 105.098039,24.2576772 C105.019608,24.2576772 104.784314,24.1791734 104.313725,24.1791734 C102.980392,23.943662 102.352941,24.0221658 102.117647,24.2576772 L102.117647,24.2576772 C101.72549,24.6501963 101.960784,25.0427153 102.117647,25.2782267 L102.352941,25.8277534 C102.431373,26.1417686 102.745098,26.7697991 103.764706,31.1660125 C104,32.3435696 104.392157,32.9716001 104.862745,33.442623 L105.176471,33.5996306 C105.411765,33.6781344 105.647059,33.5211268 105.882353,33.2856153 C106.039216,33.1286077 106.117647,32.7360887 106.509804,32.1080582 C109.254902,31.8725468 111.215686,31.7155391 112.470588,31.5585315 C115.058824,31.4015239 115.372549,31.2445163 115.529412,30.7734934 C115.607843,30.4594782 115.215686,29.7529439 114.823529,29.1249134 C115.843137,27.633341 115.843137,27.633341 116.235294,27.0838144 C116.705882,26.5342877 117.411765,26.0632648 117.490196,25.5137382 C117.568627,24.9642115 116.078431,23.4726391 113.333333,22.4520896 L113.176471,22.4520896 C112.941176,22.4520896 112.54902,22.6090972 111.686275,22.9231124 L111.686275,22.9231124 Z M111.607843,18.2128839 C111.45098,18.2128839 111.137255,18.2128839 107.529412,19.0764258 C105.411765,19.5474486 105.019608,19.6259524 104.941176,19.6259524 C103.921569,19.7829601 103.137255,19.7044562 103.137255,20.1754791 C103.137255,20.2539829 103.215686,20.4109905 103.215686,20.5679982 C103.372549,20.8035096 103.607843,21.039021 103.843137,21.1960286 L103.921569,21.2745324 C104.627451,21.6670515 105.098039,21.8240591 106.117647,21.7455553 L106.117647,21.7455553 C109.176471,21.4315401 111.607843,21.1175248 113.254902,20.7250058 L113.803922,20.646502 C114.352941,20.5679982 114.901961,20.5679982 114.901961,20.0184715 C114.901961,19.5474486 114.431373,19.0764258 114.117647,18.7624105 L114.039216,18.6839067 C113.490196,18.3698915 112.941176,17.9773724 111.607843,18.2128839 L111.607843,18.2128839 Z M112.470588,13.5026553 L112.470588,13.5026553 C111.686275,13.5026553 110.431373,13.7381667 108.627451,14.1306858 C106.745098,14.5232048 105.333333,14.83722 104.392157,14.9157239 C104,14.9942277 103.215686,15.0727315 102.901961,15.3867467 C102.745098,15.5437543 102.980392,16.0147772 103.45098,16.4858 C103.45098,16.4858 104.313725,17.349342 106.039216,17.2708381 C106.039216,17.2708381 108.784314,16.9568229 112.392157,16.4858 L113.647059,16.3287924 C114.431373,16.1717848 115.215686,16.2502886 115.529412,15.9362734 C115.764706,15.7007619 115.45098,14.9942277 114.980392,14.5232048 C114.352941,13.9736781 113.647059,13.5026553 112.470588,13.5026553 L112.470588,13.5026553 Z M114.196078,8.32140383 C113.098039,8.63541907 106.666667,9.73447241 100.235294,10.3625029 C99.5294118,10.4410067 98.9803922,10.4410067 98.8235294,10.5980143 C98.5882353,10.8335257 98.2745098,11.0690372 98.745098,11.6185638 C98.745098,11.6185638 100.235294,12.9531286 101.411765,13.2671438 L101.647059,13.2671438 C102.509804,13.18864 102.980392,12.9531286 103.607843,12.796121 C104.235294,12.6391134 105.568627,12.4036019 105.568627,12.4036019 C109.647059,11.54006 111.45098,11.147541 117.490196,11.3045486 C117.490196,11.3045486 118.823529,11.4615562 119.294118,11.4615562 C119.764706,11.4615562 120.54902,11.54006 120.941176,10.9120296 C121.176471,10.4410067 120.784314,9.73447241 120.313725,9.34195336 C119.764706,8.79242669 118.039216,7.69337335 116.313725,7.92888478 C115.294118,8.0858924 115.372549,8.00738859 114.196078,8.32140383 L114.196078,8.32140383 Z M96.1568627,3.06164858 C96.1568627,3.2186562 96.2352941,3.45416763 96.2352941,4.08219811 C96.2352941,4.08219811 96.2352941,4.47471716 96.1568627,4.8672362 C96.0784314,5.33825906 95.0588235,8.47841145 93.7254902,10.8335257 C92.5490196,12.9531286 90.5882353,15.9362734 88.627451,18.1343801 C87.6078431,19.3119372 87.372549,19.4689448 87.0588235,19.8614639 C86.745098,20.1754791 86.2745098,20.4894943 86.5098039,20.646502 C86.5882353,20.8820134 88,20.646502 89.8823529,19.390441 C91.2941176,18.4483953 92.8627451,17.0353267 94.9019608,14.5232048 C94.9803922,15.4652505 95.0588235,16.5643039 95.1372549,17.741861 L95.1372549,19.6259524 L95.1372549,20.1754791 C95.1372549,20.9605172 95.0588235,21.6670515 94.9803922,22.2165782 C94.9019608,24.1791734 94.5098039,26.3772801 94.0392157,28.3398753 L93.9607843,28.8108982 L93.9607843,28.8108982 C94.1176471,31.0090048 95.4509804,32.6575849 95.9215686,32.7360887 C96.3137255,32.8145925 96.7843137,32.0295544 96.7843137,32.0295544 C97.0980392,31.5585315 97.4901961,30.8519972 97.5686275,28.889402 L97.5686275,28.8108982 C97.7254902,17.6633572 97.8039216,15.3082429 97.8823529,14.9942277 L97.8823529,14.9942277 L97.8823529,14.9157239 L97.8823529,14.3661972 L97.8823529,14.2876934 C97.8823529,13.5026553 97.4901961,12.7176172 96.5490196,11.7755715 L96.627451,11.6970677 C97.4117647,10.6765181 97.8823529,9.81297622 98.2745098,9.34195336 C98.8235294,8.55691526 99.372549,7.77187716 99.9215686,7.06534288 C100.470588,6.35880859 100.470588,6.28030478 100.54902,6.04479335 L100.54902,5.73077811 C100.156863,4.08219811 98.745098,3.14015239 96.7058824,2.59062572 C96.7843137,2.59062572 96.1568627,2.4336181 96.1568627,3.06164858 L96.1568627,3.06164858 Z M105.960784,2.90464096 C105.254902,3.06164858 105.647059,3.45416763 105.647059,3.45416763 C107.215686,5.41676287 108.470588,6.51581621 110.588235,7.61486955 L110.980392,7.61486955 C111.45098,7.45786193 112.235294,7.06534288 112.235294,5.57377049 L112.235294,5.57377049 C112.156863,4.71022858 111.764706,3.92519049 111.058824,3.37566382 C110.588235,2.98314477 109.803922,2.74763334 108.705882,2.59062572 L108.705882,2.59062572 C107.372549,2.59062572 106.666667,2.66912953 105.960784,2.90464096 L105.960784,2.90464096 Z M66.9019608,0.314015239 C65.5686275,0.235511429 65.5686275,0.549526668 65.5686275,0.863541907 C65.5686275,1.09905334 65.8039216,1.49157239 66.0392157,2.19810667 C66.1960784,2.66912953 66.5098039,3.14015239 66.745098,6.12329716 C66.745098,7.30085431 66.8235294,8.24290002 66.8235294,9.10644193 C65.8823529,9.18494574 60.3137255,9.73447241 60.0784314,9.73447241 C57.6470588,8.79242669 56,8.94943431 55.8431373,9.6559686 C55.7647059,9.96998384 55.9215686,10.2839991 56.1568627,10.9120296 C56.1568627,10.9120296 57.4901961,13.5026553 58.1176471,17.8988686 L58.1176471,17.8988686 C58.5098039,20.3324867 59.1372549,21.1960286 59.372549,21.3530363 C59.6862745,21.5885477 59.9215686,21.8240591 60.3921569,21.5885477 C60.7058824,21.4315401 61.0980392,20.9605172 61.4117647,19.8614639 C62.1960784,19.7829601 65.7254902,19.4689448 66.6666667,19.390441 C66.5098039,29.4389287 67.1372549,33.2856153 67.2156863,33.9136458 C67.372549,34.6986839 67.6078431,35.483722 68,35.1697068 C68.4705882,34.7771877 68.8627451,33.9136458 69.3333333,30.7734934 C69.4901961,29.3604248 69.6470588,27.7118448 69.8039216,25.3567305 L69.8823529,21.9025629 L69.8823529,19.0764258 C73.0196078,18.9194181 75.7647059,18.7624105 76.8627451,18.7624105 C78.2745098,18.7624105 79.6078431,19.0764258 79.9215686,18.7624105 C80.3137255,18.4483953 80.0784314,17.8988686 79.8431373,17.349342 C79.6862745,17.0353267 79.4509804,16.6428077 79.0588235,16.0147772 C80.8627451,13.1101362 81.7254902,12.4036019 82.0392157,11.9325791 L82.4313725,11.54006 C82.9803922,10.9905334 83.0588235,10.8335257 83.1372549,10.5980143 C83.2156863,10.3625029 82.9019608,9.96998384 82.9019608,9.96998384 C82.0392157,8.94943431 80.5490196,8.00738859 78.4313725,7.06534288 L78.1960784,6.98683907 C77.9607843,6.98683907 77.3333333,7.30085431 77.3333333,7.30085431 L77.3333333,7.30085431 C77.1764706,7.37935812 75.372549,7.77187716 70.1960784,8.47841145 C70.4313725,4.47471716 70.6666667,3.84668668 70.8235294,3.61117525 C70.8235294,3.53267144 70.9019608,3.37566382 71.0588235,3.2186562 C71.2156863,3.06164858 71.2156863,2.82613715 71.2941176,2.66912953 C71.2941176,2.51212191 71.2156863,2.27661048 71.1372549,2.19810667 C69.7254902,0.785038097 68.0784314,0.392519049 66.9019608,0.314015239 L66.9019608,0.314015239 Z M184.470588,43.8836296 L187.45098,41.1359963 C187.607843,40.9789887 187.764706,40.8219811 187.843137,40.7434773 C187.921569,40.6649734 188,40.5079658 188,40.429462 C188,40.2724544 187.921569,40.1939506 187.764706,40.1154468 C187.607843,40.036943 187.372549,39.9584392 186.980392,39.9584392 L186.980392,39.5659201 L190.431373,39.5659201 L190.431373,39.9584392 C190.196078,40.036943 189.882353,40.1154468 189.647059,40.1939506 C189.411765,40.3509582 189.176471,40.5079658 188.941176,40.6649734 L186.745098,42.6275687 L188.941176,46.0032325 C189.254902,46.4742554 189.490196,46.7882706 189.72549,46.9452782 C189.960784,47.1022858 190.196078,47.1807897 190.509804,47.1807897 L190.509804,47.5733087 L186.901961,47.5733087 L186.901961,47.1807897 C187.215686,47.1807897 187.372549,47.1807897 187.529412,47.1022858 C187.686275,47.023782 187.764706,46.9452782 187.764706,46.8667744 C187.764706,46.7882706 187.764706,46.7097668 187.686275,46.631263 C187.607843,46.5527592 187.529412,46.3957516 187.372549,46.1602401 L185.647059,43.5696144 L184.313725,44.7471716 L184.313725,46.3172477 C184.313725,46.631263 184.392157,46.8667744 184.54902,47.023782 C184.705882,47.1807897 184.941176,47.2592935 185.333333,47.2592935 L185.333333,47.6518125 L182.039216,47.6518125 L182.039216,47.2592935 C182.431373,47.2592935 182.666667,47.1807897 182.823529,47.023782 C182.980392,46.8667744 183.058824,46.631263 183.058824,46.3172477 L183.058824,40.8219811 C183.058824,40.5079658 182.980392,40.2724544 182.823529,40.1154468 C182.666667,39.9584392 182.431373,39.8799353 182.039216,39.8799353 L182.039216,39.4874163 L185.333333,39.4874163 L185.333333,39.8799353 C184.941176,39.8799353 184.705882,39.9584392 184.54902,40.1154468 C184.392157,40.2724544 184.313725,40.5079658 184.313725,40.8219811 L184.313725,43.8836296 L184.470588,43.8836296 Z M174.039216,46.3172477 C174.039216,46.631263 174.117647,46.8667744 174.27451,47.023782 C174.431373,47.1807897 174.666667,47.2592935 174.980392,47.2592935 L175.058824,47.2592935 L175.058824,47.6518125 L172.235294,47.6518125 L172.235294,47.2592935 L172.235294,47.2592935 C172.54902,47.2592935 172.784314,47.1807897 172.941176,47.023782 C173.098039,46.8667744 173.176471,46.631263 173.176471,46.3172477 L173.176471,40.429462 C173.098039,40.2724544 172.941176,40.1939506 172.784314,40.1154468 C172.627451,40.036943 172.392157,39.9584392 172.156863,39.9584392 L172.156863,39.5659201 L174.27451,39.5659201 L179.058824,45.5322097 L179.058824,40.9789887 C179.058824,40.6649734 178.980392,40.429462 178.823529,40.2724544 C178.666667,40.1154468 178.352941,40.036943 178.039216,40.036943 L178.039216,39.6444239 L180.784314,39.6444239 L180.784314,40.036943 C180.470588,40.036943 180.156863,40.1154468 180,40.2724544 C179.843137,40.429462 179.764706,40.6649734 179.764706,40.9789887 L179.764706,47.8088201 L179.294118,47.8088201 L173.803922,40.9789887 L173.803922,46.3172477 L174.039216,46.3172477 Z M166.666667,41.1359963 L168,44.2761487 L165.254902,44.2761487 L166.666667,41.1359963 L166.666667,41.1359963 Z M158.431373,43.726622 C159.058824,43.726622 159.529412,43.8836296 159.921569,44.1976449 C160.235294,44.5116601 160.470588,44.9041792 160.470588,45.4537058 C160.470588,46.0032325 160.235294,46.3957516 159.843137,46.631263 C159.45098,46.9452782 158.823529,47.023782 158.117647,47.023782 C157.647059,47.023782 157.333333,46.9452782 157.176471,46.8667744 C157.019608,46.7882706 156.941176,46.5527592 156.941176,46.1602401 L156.941176,43.726622 L158.431373,43.726622 L158.431373,43.726622 Z M147.607843,45.5322097 L148.078431,45.8462249 C147.686275,46.4742554 147.215686,47.023782 146.666667,47.3377973 C146.117647,47.6518125 145.411765,47.8088201 144.705882,47.8088201 C144.156863,47.8088201 143.686275,47.7303163 143.215686,47.5733087 C142.745098,47.4163011 142.352941,47.1807897 141.960784,46.8667744 C141.490196,46.4742554 141.176471,46.0032325 140.941176,45.4537058 C140.705882,44.9041792 140.627451,44.3546525 140.627451,43.726622 C140.627451,43.1770954 140.705882,42.7060725 140.862745,42.2350496 C141.019608,41.7640268 141.254902,41.2930039 141.568627,40.9004849 C141.960784,40.429462 142.431373,40.036943 142.980392,39.7229277 C143.529412,39.4874163 144.078431,39.3304087 144.705882,39.3304087 C145.176471,39.3304087 145.647059,39.4089125 146.117647,39.5659201 C146.588235,39.7229277 146.823529,39.8014315 146.901961,39.8014315 C146.980392,39.8014315 147.058824,39.8014315 147.215686,39.7229277 C147.294118,39.6444239 147.372549,39.5659201 147.45098,39.4089125 L147.843137,39.4089125 L147.921569,41.9210344 L147.529412,41.9210344 C147.294118,41.2930039 146.980392,40.7434773 146.588235,40.429462 C146.196078,40.1154468 145.647059,39.8799353 145.019608,39.8799353 C144.156863,39.8799353 143.45098,40.1939506 142.901961,40.9004849 C142.352941,41.6070192 142.117647,42.4705611 142.117647,43.5696144 C142.117647,44.6686677 142.431373,45.4537058 142.901961,46.1602401 C143.45098,46.7882706 144.156863,47.1022858 145.019608,47.1022858 C145.568627,47.1022858 146.039216,46.9452782 146.431373,46.7097668 C146.823529,46.4742554 147.215686,46.0817363 147.607843,45.5322097 L147.607843,45.5322097 Z M138.039216,46.3172477 C138.039216,46.631263 138.117647,46.8667744 138.27451,47.023782 C138.431373,47.1807897 138.745098,47.2592935 139.137255,47.2592935 L139.137255,47.6518125 L135.686275,47.6518125 L135.686275,47.2592935 C136.078431,47.2592935 136.392157,47.1807897 136.54902,47.023782 C136.705882,46.8667744 136.784314,46.631263 136.784314,46.3172477 L136.784314,40.8219811 C136.784314,40.5079658 136.705882,40.2724544 136.54902,40.1154468 C136.392157,39.9584392 136.078431,39.8799353 135.686275,39.8799353 L135.686275,39.4874163 L139.058824,39.4874163 L139.058824,39.8799353 C138.666667,39.8799353 138.431373,39.9584392 138.196078,40.1154468 C138.039216,40.2724544 137.960784,40.5079658 137.960784,40.8219811 L137.960784,46.3172477 L138.039216,46.3172477 Z M134.509804,39.5659201 L134.588235,41.5285154 L134.196078,41.5285154 C134.117647,40.9789887 133.882353,40.6649734 133.647059,40.429462 C133.411765,40.1939506 132.941176,40.1154468 132.392157,40.1154468 L131.529412,40.1154468 L131.529412,46.3172477 C131.529412,46.631263 131.607843,46.8667744 131.764706,47.023782 C131.921569,47.1807897 132.235294,47.2592935 132.627451,47.2592935 L132.627451,47.6518125 L129.254902,47.6518125 L129.254902,47.2592935 C129.647059,47.2592935 129.882353,47.1807897 130.117647,47.023782 C130.27451,46.8667744 130.352941,46.631263 130.352941,46.3172477 L130.352941,40.1154468 L129.490196,40.1154468 C128.941176,40.1154468 128.470588,40.1939506 128.235294,40.429462 C128,40.6649734 127.764706,40.9789887 127.686275,41.5285154 L127.294118,41.5285154 L127.372549,39.5659201 L134.509804,39.5659201 L134.509804,39.5659201 Z M125.254902,46.3172477 C125.254902,46.631263 125.333333,46.8667744 125.490196,47.023782 C125.647059,47.1807897 125.960784,47.2592935 126.352941,47.2592935 L126.352941,47.6518125 L122.980392,47.6518125 L122.980392,47.2592935 C123.372549,47.2592935 123.686275,47.1807897 123.843137,47.023782 C124,46.8667744 124.078431,46.631263 124.078431,46.3172477 L124.078431,40.8219811 C124.078431,40.5079658 124,40.2724544 123.843137,40.1154468 C123.686275,39.9584392 123.372549,39.8799353 122.980392,39.8799353 L122.980392,39.4874163 L126.352941,39.4874163 L126.352941,39.8799353 C125.960784,39.8799353 125.72549,39.9584392 125.490196,40.1154468 C125.333333,40.2724544 125.254902,40.5079658 125.254902,40.8219811 L125.254902,46.3172477 L125.254902,46.3172477 Z M121.176471,45.5322097 L121.647059,45.8462249 C121.254902,46.4742554 120.784314,47.023782 120.235294,47.3377973 C119.686275,47.6518125 119.058824,47.8088201 118.27451,47.8088201 C117.72549,47.8088201 117.254902,47.7303163 116.784314,47.5733087 C116.313725,47.4163011 115.921569,47.1807897 115.529412,46.8667744 C115.058824,46.4742554 114.745098,46.0032325 114.509804,45.4537058 C114.27451,44.9041792 114.196078,44.3546525 114.196078,43.726622 C114.196078,43.1770954 114.27451,42.7060725 114.431373,42.2350496 C114.588235,41.7640268 114.823529,41.2930039 115.137255,40.9004849 C115.529412,40.429462 116,40.036943 116.54902,39.7229277 C117.098039,39.4874163 117.647059,39.3304087 118.27451,39.3304087 C118.745098,39.3304087 119.215686,39.4089125 119.686275,39.5659201 C120.156863,39.7229277 120.392157,39.8014315 120.470588,39.8014315 C120.54902,39.8014315 120.627451,39.8014315 120.784314,39.7229277 C120.862745,39.6444239 120.941176,39.5659201 121.019608,39.4089125 L121.411765,39.4089125 L121.490196,41.9210344 L121.098039,41.9210344 C120.862745,41.2930039 120.54902,40.7434773 120.156863,40.429462 C119.764706,40.1154468 119.215686,39.8799353 118.588235,39.8799353 C117.72549,39.8799353 117.019608,40.1939506 116.54902,40.9004849 C116,41.6070192 115.764706,42.4705611 115.764706,43.5696144 C115.764706,44.6686677 116,45.4537058 116.54902,46.1602401 C117.098039,46.7882706 117.803922,47.1022858 118.666667,47.1022858 C119.215686,47.1022858 119.686275,46.9452782 120.078431,46.7097668 C120.392157,46.4742554 120.784314,46.0817363 121.176471,45.5322097 L121.176471,45.5322097 Z M102.117647,41.1359963 L103.45098,44.2761487 L100.705882,44.2761487 L102.117647,41.1359963 L102.117647,41.1359963 Z M90.3529412,46.3172477 C90.3529412,46.631263 90.4313725,46.8667744 90.5882353,47.023782 C90.745098,47.1807897 90.9803922,47.2592935 91.372549,47.2592935 L91.4509804,47.2592935 L91.4509804,47.6518125 L88.627451,47.6518125 L88.627451,47.2592935 L88.627451,47.2592935 C88.9411765,47.2592935 89.1764706,47.1807897 89.3333333,47.023782 C89.4901961,46.8667744 89.5686275,46.631263 89.5686275,46.3172477 L89.5686275,40.429462 C89.4901961,40.2724544 89.3333333,40.1939506 89.1764706,40.1154468 C89.0196078,40.036943 88.7843137,39.9584392 88.5490196,39.9584392 L88.5490196,39.5659201 L90.6666667,39.5659201 L95.4509804,45.5322097 L95.4509804,40.9789887 C95.4509804,40.6649734 95.372549,40.429462 95.2156863,40.2724544 C95.0588235,40.1154468 94.745098,40.036943 94.4313725,40.036943 L94.4313725,39.6444239 L97.254902,39.6444239 L97.254902,40.036943 C96.9411765,40.036943 96.627451,40.1154468 96.4705882,40.2724544 C96.3137255,40.429462 96.2352941,40.6649734 96.2352941,40.9789887 L96.2352941,47.8088201 L95.7647059,47.8088201 L90.2745098,40.9789887 L90.2745098,46.3172477 L90.3529412,46.3172477 Z M86.2745098,46.3172477 C86.2745098,46.631263 86.3529412,46.8667744 86.5098039,47.023782 C86.6666667,47.1807897 86.9803922,47.2592935 87.372549,47.2592935 L87.372549,47.6518125 L83.9215686,47.6518125 L83.9215686,47.2592935 C84.3137255,47.2592935 84.627451,47.1807897 84.7843137,47.023782 C84.9411765,46.8667744 85.0196078,46.631263 85.0196078,46.3172477 L85.0196078,40.8219811 C85.0196078,40.5079658 84.9411765,40.2724544 84.7843137,40.1154468 C84.627451,39.9584392 84.3137255,39.8799353 83.9215686,39.8799353 L83.9215686,39.4874163 L87.2941176,39.4874163 L87.2941176,39.8799353 C86.9019608,39.8799353 86.6666667,39.9584392 86.4313725,40.1154468 C86.2745098,40.2724544 86.1960784,40.5079658 86.1960784,40.8219811 L86.1960784,46.3172477 L86.2745098,46.3172477 Z M80.3137255,43.0985915 L80.3137255,40.8219811 C80.3137255,40.5079658 80.2352941,40.2724544 80.0784314,40.1154468 C79.9215686,39.9584392 79.6078431,39.8799353 79.2156863,39.8799353 L79.2156863,39.4874163 L82.5098039,39.4874163 L82.5098039,39.8799353 C82.1176471,39.8799353 81.8823529,39.9584392 81.7254902,40.1154468 C81.5686275,40.2724544 81.4901961,40.5079658 81.4901961,40.8219811 L81.4901961,46.3172477 C81.4901961,46.631263 81.5686275,46.8667744 81.7254902,47.023782 C81.8823529,47.1807897 82.1176471,47.2592935 82.5098039,47.2592935 L82.5098039,47.6518125 L79.2156863,47.6518125 L79.2156863,47.2592935 C79.6078431,47.2592935 79.9215686,47.1807897 80.0784314,47.023782 C80.2352941,46.8667744 80.3137255,46.631263 80.3137255,46.3172477 L80.3137255,43.726622 L76.2352941,43.726622 L76.2352941,46.3172477 C76.2352941,46.631263 76.3137255,46.8667744 76.4705882,47.023782 C76.627451,47.1807897 76.9411765,47.2592935 77.3333333,47.2592935 L77.3333333,47.6518125 L74.0392157,47.6518125 L74.0392157,47.2592935 C74.4313725,47.2592935 74.6666667,47.1807897 74.8235294,47.023782 C74.9803922,46.8667744 75.0588235,46.631263 75.0588235,46.3172477 L75.0588235,40.8219811 C75.0588235,40.5079658 74.9803922,40.2724544 74.8235294,40.1154468 C74.6666667,39.9584392 74.4313725,39.8799353 74.0392157,39.8799353 L74.0392157,39.4874163 L77.3333333,39.4874163 L77.3333333,39.8799353 C76.9411765,39.8799353 76.627451,39.9584392 76.4705882,40.1154468 C76.3137255,40.2724544 76.2352941,40.5079658 76.2352941,40.8219811 L76.2352941,43.0200877 L80.3137255,43.0200877 L80.3137255,43.0985915 Z M72.2352941,45.5322097 L72.7058824,45.8462249 C72.3137255,46.4742554 71.8431373,47.023782 71.2941176,47.3377973 C70.745098,47.6518125 70.1176471,47.8088201 69.3333333,47.8088201 C68.7843137,47.8088201 68.3137255,47.7303163 67.8431373,47.5733087 C67.372549,47.4163011 66.9803922,47.1807897 66.5882353,46.8667744 C66.1176471,46.4742554 65.8039216,46.0032325 65.5686275,45.4537058 C65.3333333,44.9041792 65.254902,44.3546525 65.254902,43.726622 C65.254902,43.1770954 65.3333333,42.7060725 65.4901961,42.2350496 C65.6470588,41.7640268 65.8823529,41.2930039 66.1960784,40.9004849 C66.5882353,40.429462 67.0588235,40.036943 67.6078431,39.7229277 C68.1568627,39.4874163 68.7058824,39.3304087 69.3333333,39.3304087 C69.8039216,39.3304087 70.2745098,39.4089125 70.745098,39.5659201 C71.2156863,39.7229277 71.4509804,39.8014315 71.5294118,39.8014315 C71.6078431,39.8014315 71.6862745,39.8014315 71.8431373,39.7229277 C71.9215686,39.6444239 72,39.5659201 72.0784314,39.4089125 L72.4705882,39.4089125 L72.5490196,41.9210344 L72.1568627,41.9210344 C71.9215686,41.2930039 71.6078431,40.7434773 71.2156863,40.429462 C70.8235294,40.1154468 70.2745098,39.8799353 69.6470588,39.8799353 C68.7843137,39.8799353 68.0784314,40.1939506 67.5294118,40.9004849 C66.9803922,41.6070192 66.745098,42.4705611 66.745098,43.5696144 C66.745098,44.6686677 66.9803922,45.4537058 67.5294118,46.1602401 C68.0784314,46.7882706 68.7843137,47.1022858 69.6470588,47.1022858 C70.1960784,47.1022858 70.6666667,46.9452782 71.0588235,46.7097668 C71.4509804,46.4742554 71.9215686,46.0817363 72.2352941,45.5322097 L72.2352941,45.5322097 Z" id="Shape" fill="#004898"></path>
                </g>
            </g>
        </g>
    </g>
</svg>