<?xml version="1.0" encoding="UTF-8"?>
<svg width="200px" height="50px" viewBox="0 0 200 50" version="1.1" xmlns="http://www.w3.org/2000/svg" xmlns:xlink="http://www.w3.org/1999/xlink">
    <!-- Generator: Sketch 42 (36781) - http://www.bohemiancoding.com/sketch -->
    <title>svg</title>
    <desc>Created with Sketch.</desc>
    <defs></defs>
    <g id="Page-1" stroke="none" stroke-width="1" fill="none" fill-rule="evenodd">
        <g id="Page_1">
            <g id="图层_1_1_">
                <g id="Group" transform="translate(57.462687, 32.089552)" fill-rule="nonzero" fill="#000000">
                    <path d="M0.597014925,1.19402985 L4.02985075,1.19402985 C4.85074627,1.19402985 5.52238806,1.34328358 6.11940299,1.71641791 C6.71641791,2.1641791 7.01492537,2.8358209 7.01492537,3.65671642 C7.01492537,4.55223881 6.64179104,5.2238806 5.89552239,5.67164179 C5.67164179,5.82089552 5.37313433,5.89552239 4.92537313,6.04477612 C5.37313433,6.11940299 5.74626866,6.26865672 6.04477612,6.41791045 C6.79104478,6.86567164 7.1641791,7.6119403 7.1641791,8.58208955 C7.1641791,9.55223881 6.79104478,10.2985075 6.04477612,10.8208955 C5.52238806,11.1940299 4.92537313,11.3432836 4.25373134,11.3432836 L0.597014925,11.3432836 C0.671641791,11.1940299 0.671641791,11.0447761 0.671641791,10.8208955 L0.671641791,1.56716418 C0.671641791,1.49253731 0.597014925,1.34328358 0.597014925,1.19402985 L0.597014925,1.19402985 Z M2.3880597,5.82089552 L3.13432836,5.82089552 C3.80597015,5.82089552 4.25373134,5.67164179 4.62686567,5.44776119 C5.07462687,5.14925373 5.37313433,4.55223881 5.37313433,3.73134328 C5.37313433,2.53731343 4.7761194,1.94029851 3.50746269,1.94029851 L2.3880597,1.94029851 L2.3880597,5.82089552 L2.3880597,5.82089552 Z M2.3880597,10.6716418 L3.58208955,10.6716418 C4.85074627,10.6716418 5.44776119,10 5.44776119,8.73134328 C5.44776119,7.98507463 5.2238806,7.3880597 4.7761194,7.01492537 C4.55223881,6.86567164 4.32835821,6.71641791 4.10447761,6.64179104 C3.88059701,6.56716418 3.50746269,6.56716418 3.13432836,6.56716418 L2.3880597,6.56716418 L2.3880597,10.6716418 L2.3880597,10.6716418 Z M12.9104478,10.3731343 C12.6119403,10.7462687 12.3134328,11.0447761 12.0149254,11.1940299 C11.5671642,11.4925373 11.0447761,11.641791 10.4477612,11.641791 C9.85074627,11.641791 9.32835821,11.4925373 8.95522388,11.119403 C8.50746269,10.6716418 8.28358209,10.0746269 8.28358209,9.40298507 C8.28358209,8.50746269 8.58208955,7.91044776 9.25373134,7.46268657 C9.55223881,7.23880597 9.85074627,7.1641791 10.0746269,7.01492537 C10.2985075,6.94029851 10.8955224,6.71641791 11.7910448,6.49253731 C12.1641791,6.34328358 12.4626866,6.26865672 12.6119403,6.04477612 C12.761194,5.89552239 12.8358209,5.67164179 12.8358209,5.37313433 C12.8358209,5 12.6865672,4.7761194 12.4626866,4.55223881 C12.1641791,4.32835821 11.8656716,4.25373134 11.4179104,4.25373134 C11.0447761,4.25373134 10.7462687,4.32835821 10.4477612,4.40298507 C10.1492537,4.55223881 9.7761194,4.7761194 9.40298507,5.07462687 L9.17910448,4.02985075 C9.70149254,3.80597015 10.2238806,3.58208955 10.5970149,3.50746269 C10.9701493,3.43283582 11.4179104,3.35820896 11.9402985,3.35820896 C12.761194,3.35820896 13.4328358,3.50746269 13.880597,3.80597015 C14.3283582,4.10447761 14.5522388,4.55223881 14.5522388,5.14925373 L14.5522388,9.92537313 C14.5522388,10.3731343 14.7014925,10.5970149 15,10.5970149 C15.1492537,10.5970149 15.2985075,10.5223881 15.5223881,10.3731343 L15.5223881,11.2686567 C15.0746269,11.5671642 14.7014925,11.641791 14.3283582,11.641791 C13.9552239,11.641791 13.6567164,11.5671642 13.4328358,11.3432836 C13.1343284,11.119403 12.9850746,10.8208955 12.9104478,10.3731343 L12.9104478,10.3731343 Z M12.8358209,6.64179104 C12.6119403,6.71641791 12.4626866,6.79104478 12.3880597,6.86567164 C12.3134328,6.94029851 11.8656716,7.08955224 11.1940299,7.31343284 C10.6716418,7.53731343 10.2985075,7.76119403 10.0746269,8.05970149 C9.85074627,8.35820896 9.7761194,8.73134328 9.7761194,9.10447761 C9.7761194,9.55223881 9.92537313,9.85074627 10.1492537,10.1492537 C10.3731343,10.3731343 10.6716418,10.5223881 11.119403,10.5223881 C11.7164179,10.5223881 12.238806,10.2985075 12.5373134,9.7761194 C12.761194,9.47761194 12.8358209,9.10447761 12.8358209,8.73134328 L12.8358209,6.64179104 L12.8358209,6.64179104 Z M16.4179104,3.43283582 L17.9850746,3.43283582 L17.9850746,4.55223881 C18.2089552,4.17910448 18.4328358,3.88059701 18.7313433,3.73134328 C19.1791045,3.43283582 19.7761194,3.28358209 20.4477612,3.28358209 C21.3432836,3.28358209 22.0149254,3.58208955 22.5373134,4.10447761 C22.8358209,4.47761194 22.9850746,4.92537313 22.9850746,5.59701493 L22.9850746,10.9701493 C22.9850746,11.119403 22.9850746,11.2686567 23.0597015,11.4925373 L21.3432836,11.4925373 C21.4179104,11.3432836 21.4179104,11.1940299 21.4179104,10.9701493 L21.4179104,5.82089552 C21.4179104,5.37313433 21.2686567,5 21.0447761,4.7761194 C20.7462687,4.55223881 20.3731343,4.40298507 19.9253731,4.40298507 C19.3283582,4.40298507 18.880597,4.55223881 18.5820896,4.92537313 C18.2835821,5.29850746 18.0597015,5.74626866 18.0597015,6.34328358 L18.0597015,11.0447761 C18.0597015,11.1940299 18.0597015,11.4179104 18.1343284,11.5671642 L16.4179104,11.5671642 C16.4925373,11.4179104 16.4925373,11.2686567 16.4925373,11.0447761 L16.4925373,4.02985075 C16.4925373,3.73134328 16.4925373,3.58208955 16.4179104,3.43283582 L16.4179104,3.43283582 Z M26.641791,7.31343284 L26.641791,10.8955224 C26.641791,11.0447761 26.641791,11.1940299 26.7164179,11.4179104 L25,11.4179104 C25.0746269,11.2686567 25.0746269,11.119403 25.0746269,10.8955224 L25.0746269,0.820895522 C25.0746269,0.671641791 25.0746269,0.447761194 25,0.298507463 L26.7164179,0.298507463 C26.641791,0.447761194 26.641791,0.597014925 26.641791,0.820895522 L26.641791,6.64179104 L29.2537313,3.80597015 C29.3283582,3.73134328 29.4776119,3.58208955 29.5522388,3.43283582 L30.8208955,3.43283582 C30.7462687,3.50746269 30.5970149,3.65671642 30.3731343,3.88059701 L27.9104478,6.41791045 L31.5671642,11.0447761 C31.7164179,11.1940299 31.7910448,11.3432836 31.9402985,11.4179104 L29.9253731,11.4179104 C29.8507463,11.2686567 29.7014925,11.119403 29.6268657,10.9701493 L26.641791,7.31343284 L26.641791,7.31343284 Z M39.8507463,3.28358209 C41.0447761,3.28358209 41.9402985,3.65671642 42.6119403,4.47761194 C43.2089552,5.2238806 43.5074627,6.19402985 43.5074627,7.46268657 C43.5074627,8.80597015 43.1343284,9.7761194 42.4626866,10.5223881 C41.7910448,11.1940299 40.8955224,11.5671642 39.8507463,11.5671642 C38.6567164,11.5671642 37.761194,11.1940299 37.1641791,10.4477612 C36.4925373,9.62686567 36.1940299,8.65671642 36.1940299,7.31343284 C36.1940299,6.11940299 36.4925373,5.14925373 37.1641791,4.40298507 C37.761194,3.65671642 38.6567164,3.28358209 39.8507463,3.28358209 L39.8507463,3.28358209 Z M39.8507463,3.95522388 C39.5522388,3.95522388 39.3283582,4.02985075 39.0298507,4.17910448 C38.8059701,4.32835821 38.5820896,4.55223881 38.4328358,4.7761194 C38.0597015,5.44776119 37.8358209,6.34328358 37.8358209,7.3880597 C37.8358209,8.50746269 38.0597015,9.40298507 38.4328358,10.0746269 C38.5820896,10.2985075 38.8059701,10.5223881 39.0298507,10.6716418 C39.2537313,10.8208955 39.5522388,10.8955224 39.8507463,10.8955224 C40.1492537,10.8955224 40.3731343,10.8208955 40.6716418,10.6716418 C40.8955224,10.5223881 41.119403,10.2985075 41.2686567,10.0746269 C41.641791,9.40298507 41.8656716,8.50746269 41.8656716,7.3880597 C41.8656716,6.26865672 41.641791,5.37313433 41.2686567,4.70149254 C40.9701493,4.17910448 40.4477612,3.95522388 39.8507463,3.95522388 L39.8507463,3.95522388 Z M45.2985075,4.17910448 L44.4776119,4.17910448 L44.4776119,3.43283582 L45.2985075,3.43283582 L45.2985075,2.08955224 C45.2985075,1.49253731 45.4477612,1.11940299 45.8208955,0.820895522 C46.2686567,0.447761194 46.8656716,0.298507463 47.6119403,0.298507463 C48.1343284,0.298507463 48.7313433,0.373134328 49.4776119,0.597014925 L49.1791045,1.49253731 C48.6567164,1.26865672 48.2089552,1.11940299 47.8358209,1.11940299 C47.4626866,1.11940299 47.238806,1.19402985 47.0149254,1.34328358 C46.8656716,1.49253731 46.7910448,1.79104478 46.7910448,2.1641791 L46.7910448,3.50746269 L49.1044776,3.50746269 L49.1044776,4.25373134 L46.7910448,4.25373134 L46.7910448,11.0447761 C46.7910448,11.1940299 46.7910448,11.3432836 46.8656716,11.5671642 L45.1492537,11.5671642 C45.2238806,11.4179104 45.2238806,11.2686567 45.2238806,11.0447761 L45.2238806,4.17910448 L45.2985075,4.17910448 Z" id="Shape"></path>
                    <path d="M53.5074627,10.8208955 L53.880597,9.62686567 C54.1791045,9.85074627 54.4029851,10.0746269 54.5522388,10.1492537 C55.0746269,10.5223881 55.6716418,10.7462687 56.2686567,10.7462687 C56.8656716,10.7462687 57.3880597,10.5970149 57.761194,10.2238806 C58.0597015,9.92537313 58.2089552,9.47761194 58.2089552,9.02985075 C58.2089552,8.43283582 57.9850746,7.98507463 57.5373134,7.68656716 C57.3134328,7.53731343 56.7910448,7.23880597 55.9701493,6.86567164 C55.1492537,6.49253731 54.5522388,6.04477612 54.1791045,5.67164179 C53.7313433,5.2238806 53.5820896,4.62686567 53.5820896,4.02985075 C53.5820896,3.43283582 53.7313433,2.98507463 54.0298507,2.53731343 C54.6268657,1.64179104 55.5970149,1.26865672 56.9402985,1.26865672 C57.6865672,1.26865672 58.5074627,1.41791045 59.3283582,1.79104478 L59.0298507,2.91044776 C58.2089552,2.3880597 57.5373134,2.08955224 56.8656716,2.08955224 C56.3432836,2.08955224 55.8955224,2.23880597 55.5970149,2.6119403 C55.2985075,2.91044776 55.1492537,3.20895522 55.1492537,3.65671642 C55.1492537,4.10447761 55.2985075,4.40298507 55.5970149,4.70149254 C55.8955224,5 56.4179104,5.29850746 57.3134328,5.67164179 C58.2835821,6.11940299 58.880597,6.49253731 59.2537313,6.94029851 C59.7014925,7.46268657 59.8507463,8.05970149 59.8507463,8.73134328 C59.8507463,9.32835821 59.7014925,9.85074627 59.4029851,10.3731343 C58.8059701,11.3432836 57.761194,11.8656716 56.3432836,11.8656716 C55.8208955,11.8656716 55.3731343,11.7910448 54.9253731,11.7164179 C54.4776119,11.2686567 54.0298507,11.0447761 53.5074627,10.8208955 L53.5074627,10.8208955 Z M61.1940299,11.4179104 C61.2686567,11.2686567 61.2686567,11.119403 61.2686567,10.8955224 L61.2686567,0.820895522 C61.2686567,0.671641791 61.2686567,0.447761194 61.1940299,0.298507463 L62.9104478,0.298507463 C62.8358209,0.447761194 62.8358209,0.597014925 62.8358209,0.820895522 L62.8358209,4.40298507 C63.1343284,3.95522388 63.5074627,3.65671642 63.880597,3.43283582 C64.2537313,3.20895522 64.7014925,3.13432836 65.2238806,3.13432836 C66.0447761,3.13432836 66.641791,3.35820896 67.0895522,3.73134328 C67.5373134,4.10447761 67.761194,4.70149254 67.761194,5.44776119 L67.761194,10.8208955 C67.761194,10.9701493 67.761194,11.119403 67.8358209,11.3432836 L66.119403,11.3432836 C66.1940299,11.1940299 66.1940299,11.0447761 66.1940299,10.8208955 L66.1940299,5.97014925 C66.1940299,5.37313433 66.0447761,4.92537313 65.8208955,4.70149254 C65.5970149,4.40298507 65.2238806,4.25373134 64.6268657,4.25373134 C64.0298507,4.25373134 63.5820896,4.40298507 63.2835821,4.7761194 C62.9850746,5.14925373 62.8358209,5.59701493 62.8358209,6.11940299 L62.8358209,10.8208955 C62.8358209,10.9701493 62.8358209,11.1940299 62.9104478,11.3432836 L61.1940299,11.3432836 L61.1940299,11.4179104 Z M73.8059701,10.3731343 C73.5074627,10.7462687 73.2089552,11.0447761 72.9104478,11.1940299 C72.4626866,11.4925373 71.9402985,11.641791 71.3432836,11.641791 C70.7462687,11.641791 70.2238806,11.4925373 69.8507463,11.119403 C69.4029851,10.6716418 69.1791045,10.0746269 69.1791045,9.40298507 C69.1791045,8.50746269 69.4776119,7.91044776 70.1492537,7.46268657 C70.4477612,7.23880597 70.7462687,7.1641791 70.9701493,7.01492537 C71.1940299,6.94029851 71.7910448,6.71641791 72.6865672,6.49253731 C73.0597015,6.34328358 73.358209,6.26865672 73.5074627,6.04477612 C73.6567164,5.89552239 73.7313433,5.67164179 73.7313433,5.37313433 C73.7313433,5 73.5820896,4.7761194 73.358209,4.55223881 C73.0597015,4.32835821 72.761194,4.25373134 72.3134328,4.25373134 C71.9402985,4.25373134 71.641791,4.32835821 71.3432836,4.40298507 C71.0447761,4.55223881 70.6716418,4.7761194 70.2985075,5.07462687 L70.0746269,4.02985075 C70.5970149,3.80597015 71.119403,3.58208955 71.4925373,3.50746269 C71.8656716,3.43283582 72.3134328,3.35820896 72.8358209,3.35820896 C73.6567164,3.35820896 74.3283582,3.50746269 74.7761194,3.80597015 C75.2238806,4.10447761 75.4477612,4.55223881 75.4477612,5.14925373 L75.4477612,9.92537313 C75.4477612,10.3731343 75.5970149,10.5970149 75.8955224,10.5970149 C76.0447761,10.5970149 76.1940299,10.5223881 76.4179104,10.3731343 L76.4179104,11.2686567 C75.9701493,11.5671642 75.5970149,11.641791 75.2238806,11.641791 C74.8507463,11.641791 74.5522388,11.5671642 74.3283582,11.3432836 C74.0298507,11.119403 73.880597,10.8208955 73.8059701,10.3731343 L73.8059701,10.3731343 Z M73.7313433,6.64179104 C73.5074627,6.71641791 73.358209,6.79104478 73.2835821,6.86567164 C73.2089552,6.94029851 72.761194,7.08955224 72.0895522,7.31343284 C71.5671642,7.53731343 71.1940299,7.76119403 70.9701493,8.05970149 C70.7462687,8.35820896 70.6716418,8.73134328 70.6716418,9.10447761 C70.6716418,9.55223881 70.8208955,9.85074627 71.0447761,10.1492537 C71.2686567,10.3731343 71.5671642,10.5223881 72.0149254,10.5223881 C72.6119403,10.5223881 73.1343284,10.2985075 73.4328358,9.7761194 C73.6567164,9.47761194 73.7313433,9.10447761 73.7313433,8.73134328 L73.7313433,6.64179104 L73.7313433,6.64179104 Z M77.3134328,3.43283582 L78.880597,3.43283582 L78.880597,4.55223881 C79.1044776,4.17910448 79.3283582,3.88059701 79.6268657,3.73134328 C80.0746269,3.43283582 80.6716418,3.28358209 81.3432836,3.28358209 C82.238806,3.28358209 82.9104478,3.58208955 83.4328358,4.10447761 C83.7313433,4.47761194 83.880597,4.92537313 83.880597,5.59701493 L83.880597,10.9701493 C83.880597,11.119403 83.880597,11.2686567 83.9552239,11.4925373 L82.238806,11.4925373 C82.3134328,11.3432836 82.3134328,11.1940299 82.3134328,10.9701493 L82.3134328,5.82089552 C82.3134328,5.37313433 82.1641791,5 81.9402985,4.7761194 C81.641791,4.55223881 81.2686567,4.40298507 80.8208955,4.40298507 C80.2238806,4.40298507 79.7761194,4.55223881 79.4776119,4.92537313 C79.1791045,5.29850746 78.9552239,5.74626866 78.9552239,6.34328358 L78.9552239,11.0447761 C78.9552239,11.1940299 78.9552239,11.4179104 79.0298507,11.5671642 L77.3134328,11.5671642 C77.3880597,11.4179104 77.3880597,11.2686567 77.3880597,11.0447761 L77.3880597,4.02985075 C77.3880597,3.73134328 77.3880597,3.58208955 77.3134328,3.43283582 L77.3134328,3.43283582 Z M85.9701493,12.1641791 L85.5970149,11.0447761 L87.3134328,9.7761194 C86.8656716,9.47761194 86.4925373,9.25373134 86.2686567,8.95522388 C85.8208955,8.43283582 85.5970149,7.76119403 85.5970149,6.79104478 C85.5970149,5.59701493 85.8955224,4.7761194 86.5671642,4.10447761 C87.1641791,3.50746269 87.9850746,3.20895522 89.0298507,3.20895522 L89.8507463,3.20895522 C90.0746269,3.13432836 90.2985075,2.98507463 90.3731343,2.68656716 C90.5223881,2.46268657 90.5970149,2.1641791 90.5970149,1.86567164 L92.0895522,1.86567164 C92.0149254,2.23880597 91.9402985,2.53731343 91.7910448,2.68656716 C91.641791,2.91044776 91.3432836,3.13432836 90.8955224,3.43283582 C91.3432836,3.65671642 91.7164179,3.95522388 92.0149254,4.25373134 C92.5373134,4.85074627 92.761194,5.67164179 92.761194,6.64179104 C92.761194,7.6119403 92.4626866,8.43283582 91.9402985,9.02985075 C91.4925373,9.47761194 90.8955224,9.7761194 90.0746269,9.92537313 C89.9253731,9.92537313 89.5522388,10 89.1044776,10.0746269 C88.8059701,10.0746269 88.5074627,10.2238806 88.2835821,10.2985075 L86.8656716,11.1940299 C88.2835821,10.8955224 89.3283582,10.6716418 90,10.6716418 C90.8208955,10.6716418 91.5671642,10.8208955 92.1641791,11.0447761 C92.4626866,11.1940299 92.6865672,11.3432836 92.9104478,11.5671642 C93.0597015,11.7910448 93.2089552,12.0149254 93.2089552,12.3134328 C93.2089552,12.8358209 92.9104478,13.2089552 92.3134328,13.5074627 C91.7164179,13.8059701 90.9701493,13.9552239 89.9253731,13.9552239 C88.880597,13.9552239 87.5373134,13.7313433 86.0447761,13.2835821 L86.0447761,12.9850746 C87.238806,13.2835821 88.2835821,13.4328358 89.1791045,13.4328358 C89.7761194,13.4328358 90.2985075,13.358209 90.6716418,13.1343284 C91.0447761,12.9850746 91.2686567,12.6865672 91.2686567,12.3880597 C91.2686567,12.0895522 91.0447761,11.8656716 90.6716418,11.7164179 C90.2238806,11.5671642 89.7014925,11.4925373 89.0298507,11.4925373 C87.9850746,11.7164179 87.0149254,11.8656716 85.9701493,12.1641791 L85.9701493,12.1641791 Z M89.1791045,4.10447761 C88.5074627,4.10447761 88.0597015,4.32835821 87.6865672,4.85074627 C87.3880597,5.29850746 87.238806,5.97014925 87.238806,6.71641791 C87.238806,7.6119403 87.3880597,8.20895522 87.761194,8.73134328 C88.0597015,9.17910448 88.5820896,9.40298507 89.1791045,9.40298507 C89.8507463,9.40298507 90.2985075,9.17910448 90.5970149,8.65671642 C90.8955224,8.13432836 91.0447761,7.46268657 91.0447761,6.71641791 C91.0447761,5.89552239 90.8955224,5.29850746 90.5223881,4.7761194 C90.2985075,4.32835821 89.7761194,4.10447761 89.1791045,4.10447761 L89.1791045,4.10447761 Z M94.3283582,11.4179104 C94.4029851,11.2686567 94.4029851,11.119403 94.4029851,10.8955224 L94.4029851,0.820895522 C94.4029851,0.671641791 94.4029851,0.447761194 94.3283582,0.298507463 L96.0447761,0.298507463 C95.9701493,0.447761194 95.9701493,0.597014925 95.9701493,0.820895522 L95.9701493,4.40298507 C96.2686567,3.95522388 96.641791,3.65671642 97.0149254,3.43283582 C97.3880597,3.20895522 97.8358209,3.13432836 98.358209,3.13432836 C99.1791045,3.13432836 99.7761194,3.35820896 100.223881,3.73134328 C100.671642,4.10447761 100.895522,4.70149254 100.895522,5.44776119 L100.895522,10.8208955 C100.895522,10.9701493 100.895522,11.119403 100.970149,11.3432836 L99.2537313,11.3432836 C99.3283582,11.1940299 99.3283582,11.0447761 99.3283582,10.8208955 L99.3283582,5.97014925 C99.3283582,5.37313433 99.1791045,4.92537313 98.9552239,4.70149254 C98.7313433,4.40298507 98.358209,4.25373134 97.761194,4.25373134 C97.1641791,4.25373134 96.7164179,4.40298507 96.4179104,4.7761194 C96.119403,5.14925373 95.9701493,5.59701493 95.9701493,6.11940299 L95.9701493,10.8208955 C95.9701493,10.9701493 95.9701493,11.1940299 96.0447761,11.3432836 L94.3283582,11.3432836 L94.3283582,11.4179104 Z M106.865672,10.3731343 C106.567164,10.7462687 106.268657,11.0447761 105.970149,11.1940299 C105.522388,11.4925373 105,11.641791 104.402985,11.641791 C103.80597,11.641791 103.283582,11.4925373 102.910448,11.119403 C102.462687,10.6716418 102.238806,10.0746269 102.238806,9.40298507 C102.238806,8.50746269 102.537313,7.91044776 103.208955,7.46268657 C103.507463,7.23880597 103.80597,7.1641791 104.029851,7.01492537 C104.253731,6.94029851 104.850746,6.71641791 105.746269,6.49253731 C106.119403,6.34328358 106.41791,6.26865672 106.567164,6.04477612 C106.716418,5.89552239 106.791045,5.67164179 106.791045,5.37313433 C106.791045,5 106.641791,4.7761194 106.41791,4.55223881 C106.119403,4.32835821 105.820896,4.25373134 105.373134,4.25373134 C105,4.25373134 104.701493,4.32835821 104.402985,4.40298507 C104.104478,4.55223881 103.731343,4.7761194 103.358209,5.07462687 L103.134328,4.02985075 C103.656716,3.80597015 104.179104,3.58208955 104.552239,3.50746269 C104.925373,3.43283582 105.373134,3.35820896 105.895522,3.35820896 C106.716418,3.35820896 107.38806,3.50746269 107.835821,3.80597015 C108.283582,4.10447761 108.507463,4.55223881 108.507463,5.14925373 L108.507463,9.92537313 C108.507463,10.3731343 108.656716,10.5970149 108.955224,10.5970149 C109.104478,10.5970149 109.253731,10.5223881 109.477612,10.3731343 L109.477612,11.2686567 C109.029851,11.5671642 108.656716,11.641791 108.283582,11.641791 C107.910448,11.641791 107.61194,11.5671642 107.38806,11.3432836 C107.164179,11.119403 107.014925,10.8208955 106.865672,10.3731343 L106.865672,10.3731343 Z M106.865672,6.64179104 C106.641791,6.71641791 106.492537,6.79104478 106.41791,6.86567164 C106.343284,6.94029851 105.895522,7.08955224 105.223881,7.31343284 C104.701493,7.53731343 104.328358,7.76119403 104.104478,8.05970149 C103.880597,8.35820896 103.80597,8.73134328 103.80597,9.10447761 C103.80597,9.55223881 103.955224,9.85074627 104.179104,10.1492537 C104.402985,10.3731343 104.701493,10.5223881 105.149254,10.5223881 C105.746269,10.5223881 106.268657,10.2985075 106.567164,9.7761194 C106.791045,9.47761194 106.865672,9.10447761 106.865672,8.73134328 L106.865672,6.64179104 L106.865672,6.64179104 Z M111.343284,1.26865672 C111.641791,1.26865672 111.865672,1.34328358 112.089552,1.49253731 C112.238806,1.64179104 112.313433,1.79104478 112.313433,2.01492537 C112.313433,2.23880597 112.238806,2.46268657 112.089552,2.53731343 C111.940299,2.68656716 111.716418,2.76119403 111.41791,2.76119403 C110.746269,2.76119403 110.447761,2.53731343 110.447761,2.01492537 C110.447761,1.79104478 110.522388,1.64179104 110.746269,1.49253731 C110.820896,1.34328358 111.044776,1.26865672 111.343284,1.26865672 L111.343284,1.26865672 Z M110.447761,3.43283582 L112.164179,3.43283582 C112.089552,3.58208955 112.089552,3.73134328 112.089552,3.95522388 L112.089552,10.9701493 C112.089552,11.119403 112.089552,11.2686567 112.164179,11.4925373 L110.447761,11.4925373 C110.522388,11.3432836 110.522388,11.1940299 110.522388,10.9701493 L110.522388,3.95522388 C110.522388,3.73134328 110.522388,3.58208955 110.447761,3.43283582 L110.447761,3.43283582 Z" id="Shape"></path>
                </g>
                <path d="M68.7313433,26.5671642 L59.7014925,26.5671642 C59.4029851,26.5671642 59.1791045,26.5671642 58.880597,26.4925373 L59.4029851,27.238806 C60.5223881,27.1641791 61.119403,27.1641791 61.1940299,27.1641791 L84.1044776,27.1641791 C84.4029851,27.0149254 84.4029851,26.7910448 84.1791045,26.5671642 C83.7313433,26.119403 82.761194,25.3731343 81.0447761,24.4029851 L80.7462687,24.4029851 C80.0746269,25 79.4029851,25.8208955 78.7313433,26.7164179 L71.8656716,26.7164179 L71.8656716,14.6268657 L82.0895522,14.6268657 C82.4626866,14.5522388 82.5373134,14.3283582 82.3134328,14.0298507 C81.4925373,13.2835821 80.4477612,12.4626866 79.1791045,11.641791 L78.7313433,11.641791 C78.0597015,12.3134328 77.3880597,13.1343284 76.8656716,14.1044776 L71.8656716,14.1044776 L71.8656716,5.82089552 C71.8656716,5.74626866 71.9402985,5.67164179 72.1641791,5.52238806 C72.4626866,5.29850746 72.6119403,5.14925373 72.6119403,5 C71.7164179,4.40298507 70.3731343,4.02985075 68.5820896,4.02985075 C68.5074627,4.10447761 68.5820896,4.40298507 68.6567164,4.85074627 C68.7313433,5.29850746 68.7313433,5.59701493 68.7313433,5.82089552 L68.7313433,26.5671642 L68.7313433,26.5671642 Z M97.3134328,23.9552239 L104.402985,23.9552239 C103.58209,25.3731343 102.089552,25.8208955 100.074627,25.2238806 C99.7761194,25.2238806 99.7761194,25.2985075 100,25.5223881 C101.343284,25.9701493 102.089552,26.7910448 102.38806,27.9850746 C102.38806,28.0597015 102.462687,28.0597015 102.686567,28.0597015 C105.149254,28.1343284 106.791045,26.7164179 107.462687,23.880597 L111.791045,23.880597 C111.940299,23.8059701 111.940299,23.6567164 111.865672,23.4328358 C111.268657,22.6119403 110.447761,21.9402985 109.477612,21.4925373 C109.402985,21.3432836 109.328358,21.3432836 109.179104,21.4925373 C108.656716,21.9402985 108.134328,22.6119403 107.61194,23.358209 L107.462687,23.358209 C107.835821,21.8656716 107.985075,19.9253731 107.985075,17.5373134 L112.537313,17.5373134 C112.686567,17.4626866 112.686567,17.3134328 112.61194,17.0895522 C112.089552,16.4179104 111.268657,15.6716418 110.223881,15 L109.925373,15 C109.477612,15.4477612 108.955224,16.0447761 108.358209,16.8656716 L108.059701,16.8656716 L108.059701,14.1791045 L108.059701,12.5373134 C108.059701,12.4626866 108.208955,12.3880597 108.507463,12.238806 C108.731343,12.1641791 108.880597,12.0895522 108.955224,12.0149254 C109.104478,11.9402985 109.104478,11.7910448 108.955224,11.5671642 C108.059701,10.8955224 107.238806,10.3731343 106.492537,10 L106.268657,10 C106.19403,9.92537313 106.119403,9.92537313 106.044776,10 C105.895522,10.1492537 105.671642,10.3731343 105.298507,10.5970149 C105,10.8208955 104.850746,10.9701493 104.776119,11.0447761 L99.2537313,11.0447761 C98.880597,10.8955224 98.2089552,10.5970149 97.0895522,10.0746269 C96.8656716,10 96.7164179,10.0746269 96.641791,10.2985075 C96.5671642,11.641791 96.2686567,13.8059701 95.6716418,16.8656716 L93.7313433,16.8656716 C93.4328358,16.7910448 93.2089552,16.7910448 92.9104478,16.7910448 L93.4328358,17.5373134 L95.2238806,17.5373134 L95.6716418,17.5373134 C95.1492537,20 94.7014925,21.641791 94.1044776,22.3134328 C94.1044776,22.3134328 94.1044776,22.3134328 94.1044776,22.3880597 C94.0298507,22.5373134 94.0298507,22.6119403 94.1044776,22.6865672 C94.3283582,22.9850746 94.9253731,23.6567164 95.9701493,24.6268657 C96.119403,24.7014925 96.2686567,24.6268657 96.4179104,24.5522388 L97.3134328,23.9552239 L97.3134328,23.9552239 Z M98.1343284,17.6119403 L105.522388,17.6119403 C105.447761,20.1492537 105.149254,22.0895522 104.552239,23.4328358 L97.0895522,23.4328358 L97.0895522,23.358209 L98.1343284,17.6119403 L98.1343284,17.6119403 Z M99.1791045,11.7910448 L105.597015,11.7910448 L105.597015,14.2537313 L105.597015,16.9402985 L98.2089552,16.9402985 L99.1791045,11.7910448 L99.1791045,11.7910448 Z M99.7761194,18.5074627 C100.447761,19.4776119 100.597015,20.2985075 100.223881,20.8955224 C100.149254,21.119403 100.149254,21.2686567 100.149254,21.4179104 C100.223881,22.0895522 100.671642,22.4626866 101.492537,22.4626866 C102.313433,22.3134328 102.761194,21.8656716 102.835821,21.119403 C102.61194,19.7014925 101.716418,18.7313433 100,18.2835821 C99.7761194,18.4328358 99.7014925,18.5074627 99.7761194,18.5074627 L99.7761194,18.5074627 Z M100.522388,12.1641791 C100.298507,12.238806 100.223881,12.3134328 100.298507,12.4626866 C100.820896,13.5074627 100.970149,14.2537313 100.746269,14.6268657 C100.671642,14.8507463 100.671642,15.0746269 100.671642,15.2238806 C100.746269,16.0447761 101.19403,16.4179104 102.089552,16.3432836 C102.910448,16.0447761 103.358209,15.4477612 103.358209,14.5522388 C103.208955,13.5074627 102.238806,12.6865672 100.522388,12.1641791 L100.522388,12.1641791 Z M90.8208955,7.3880597 C91.1940299,8.05970149 91.7910448,8.28358209 92.6119403,7.91044776 C93.2835821,7.46268657 93.5820896,6.79104478 93.4328358,6.04477612 C92.9850746,4.70149254 91.5671642,4.02985075 89.4029851,3.88059701 C89.2537313,3.88059701 89.1791045,3.88059701 89.1044776,3.95522388 C89.1044776,4.02985075 89.1044776,4.10447761 89.1791045,4.17910448 C90.2238806,5 90.6716418,5.82089552 90.6716418,6.64179104 C90.6716418,7.01492537 90.7462687,7.31343284 90.8208955,7.3880597 L90.8208955,7.3880597 Z M88.5820896,13.6567164 C89.0298507,14.3283582 89.5522388,14.5522388 90.2238806,14.1791045 C90.8955224,13.6567164 91.119403,13.0597015 90.8208955,12.3134328 C90.5223881,11.1940299 89.4029851,10.4477612 87.4626866,10 C87.3134328,9.92537313 87.238806,10 87.1641791,10.0746269 C87.0895522,10.1492537 87.1641791,10.2238806 87.238806,10.2985075 C87.9104478,10.9701493 88.2835821,11.7910448 88.2835821,12.6865672 C88.358209,13.1343284 88.4328358,13.4328358 88.5820896,13.6567164 L88.5820896,13.6567164 Z M94.4029851,7.8358209 C94.4029851,7.68656716 94.3283582,7.6119403 94.1791045,7.6119403 C94.1044776,7.53731343 94.0298507,7.6119403 93.9552239,7.68656716 C91.119403,16.7164179 88.8059701,20.8208955 87.0895522,20.0746269 C86.9402985,20.0746269 86.8656716,20.0746269 86.8656716,20.1492537 C86.8656716,20.3731343 86.8656716,20.5223881 86.9402985,20.5970149 C87.9850746,20.7462687 88.5820896,21.5671642 88.8059701,23.0597015 C88.9552239,23.9552239 88.9552239,24.7761194 88.8059701,25.5223881 C88.6567164,26.641791 89.2537313,27.3134328 90.5970149,27.4626866 C91.7910448,27.4626866 92.4626866,26.8656716 92.5373134,25.5970149 C92.5373134,25.2238806 92.3880597,24.6268657 92.0149254,23.8059701 C91.4925373,22.6119403 91.3432836,21.641791 91.4179104,20.8208955 C91.7164179,18.880597 92.6865672,14.4776119 94.4029851,7.8358209 L94.4029851,7.8358209 Z M101.119403,4.92537313 C101.268657,4.7761194 101.268657,4.62686567 101.119403,4.40298507 C100.597015,4.17910448 99.8507463,3.88059701 98.8059701,3.50746269 C98.2835821,3.28358209 97.8358209,3.13432836 97.6865672,3.05970149 C97.3880597,3.13432836 97.238806,3.20895522 97.238806,3.28358209 C96.4179104,6.34328358 95.2238806,9.40298507 93.5820896,12.5373134 C93.5074627,12.761194 93.5820896,12.8358209 93.8059701,12.761194 C95.2238806,11.3432836 96.7164179,9.85074627 98.1343284,8.20895522 L111.641791,8.20895522 C111.865672,8.13432836 111.940299,7.98507463 111.865672,7.76119403 C111.641791,7.31343284 110.671642,6.49253731 108.880597,5.44776119 C108.731343,5.29850746 108.656716,5.29850746 108.58209,5.44776119 C108.208955,5.74626866 107.686567,6.41791045 106.940299,7.53731343 L106.865672,7.6119403 L98.6567164,7.6119403 C98.8059701,7.46268657 98.9552239,7.23880597 99.1791045,6.86567164 C99.7014925,6.19402985 100.149254,5.67164179 100.298507,5.29850746 L101.119403,4.92537313 L101.119403,4.92537313 Z M129.179104,10.5223881 L135.223881,10.5223881 L135.223881,14.4776119 L129.179104,14.4776119 L129.179104,10.5223881 L129.179104,10.5223881 Z M129.179104,5.97014925 L135.223881,5.97014925 L135.223881,9.92537313 L129.179104,9.92537313 L129.179104,5.97014925 L129.179104,5.97014925 Z M131.940299,15.1492537 C132.014925,17.8358209 132.313433,20.1492537 132.910448,22.0149254 C132.835821,21.9402985 131.641791,22.6119403 129.253731,24.0298507 L129.253731,15.2238806 L131.940299,15.2238806 L131.940299,15.1492537 Z M126.716418,24.7761194 C126.044776,25.0746269 125.597015,25.2238806 125.373134,25.2238806 C125.223881,25.4477612 125.223881,25.6716418 125.298507,25.8208955 C125.373134,25.9701493 125.597015,26.2686567 125.895522,26.641791 C126.41791,27.3134328 126.791045,27.761194 126.865672,27.9850746 C126.940299,28.1343284 127.089552,28.1343284 127.38806,28.0597015 C127.910448,27.4626866 128.880597,26.4925373 130.223881,25.2238806 C131.567164,23.9552239 132.462687,23.0597015 133.059701,22.3880597 C133.656716,24.1791045 134.776119,25.9701493 136.41791,27.761194 C136.641791,27.9104478 136.865672,27.9104478 137.014925,27.761194 C137.686567,26.7910448 138.731343,26.119403 140,25.6716418 C140.074627,25.5970149 140,25.4477612 139.925373,25.1492537 C137.985075,24.4029851 136.343284,22.9850746 134.925373,20.8955224 C135.746269,20.3731343 136.716418,19.6268657 137.835821,18.8059701 C138.283582,18.5074627 138.58209,18.2835821 138.80597,18.2089552 C138.955224,18.1343284 139.104478,18.1343284 139.328358,18.1343284 C139.477612,18.1343284 139.626866,18.1343284 139.776119,18.0597015 C139.850746,17.8358209 139.850746,17.6865672 139.776119,17.6119403 C139.626866,17.5373134 139.402985,17.3880597 139.179104,17.0895522 C138.432836,16.5671642 137.835821,16.1940299 137.537313,16.0447761 C137.38806,15.9701493 137.238806,16.0447761 137.014925,16.119403 C136.492537,17.5373134 135.671642,18.9552239 134.626866,20.2985075 C133.731343,18.7313433 133.134328,16.9402985 132.761194,15 L135.447761,15 L135.447761,15.5223881 C135.447761,15.8955224 135.746269,16.0447761 136.41791,16.0447761 C137.238806,16.0447761 137.761194,15.8955224 137.985075,15.5223881 L137.985075,6.71641791 C137.985075,6.71641791 138.059701,6.64179104 138.208955,6.49253731 C138.656716,6.11940299 138.80597,5.89552239 138.80597,5.67164179 C138.283582,5.07462687 137.38806,4.55223881 136.343284,4.25373134 C136.268657,4.25373134 136.044776,4.47761194 135.597015,4.85074627 C135.373134,5.07462687 135.223881,5.2238806 135.149254,5.29850746 L129.850746,5.29850746 C129.402985,5 128.432836,4.62686567 126.716418,4.02985075 C126.567164,3.95522388 126.492537,4.02985075 126.492537,4.10447761 L126.716418,6.41791045 L126.716418,24.7761194 L126.716418,24.7761194 Z M121.716418,23.4328358 L121.716418,17.6119403 L125.895522,17.6119403 C126.044776,17.4626866 126.119403,17.3880597 126.119403,17.3134328 C125.895522,16.7910448 125.298507,16.1940299 124.253731,15.4477612 C124.179104,15.2985075 124.104478,15.2985075 123.955224,15.4477612 C123.432836,15.8955224 122.985075,16.4179104 122.61194,17.0149254 L121.791045,17.0149254 L121.791045,14.3283582 C121.716418,14.2537313 121.940299,14.0298507 122.38806,13.7313433 C122.38806,13.7313433 122.38806,13.7313433 122.462687,13.6567164 C122.537313,13.6567164 122.537313,13.6567164 122.537313,13.5820896 L125,13.5820896 C125.149254,13.4328358 125.223881,13.358209 125.223881,13.2835821 C125,12.8358209 124.402985,12.1641791 123.358209,11.4179104 C123.283582,11.2686567 123.208955,11.2686567 123.059701,11.4179104 C122.61194,11.9402985 122.089552,12.3880597 121.716418,12.9850746 L117.686567,12.9850746 C117.38806,12.9104478 117.089552,12.9104478 116.716418,12.9104478 L117.238806,13.6567164 L119.029851,13.6567164 L119.253731,13.6567164 L119.253731,17.1641791 L116.567164,17.1641791 C116.268657,17.0895522 115.970149,17.0895522 115.671642,17.0895522 L116.268657,17.8358209 L117.910448,17.8358209 L119.253731,17.8358209 L119.253731,24.4029851 L118.283582,25 C118.134328,25.2238806 118.134328,25.3731343 118.208955,25.4477612 L119.776119,27.9104478 C120.149254,28.0597015 120.373134,28.0597015 120.522388,27.9104478 C121.940299,26.4179104 123.955224,24.3283582 126.567164,21.7910448 C126.716418,21.641791 126.716418,21.4925373 126.641791,21.3432836 C126.492537,21.2686567 126.343284,21.2686567 126.19403,21.3432836 L121.716418,23.4328358 L121.716418,23.4328358 Z M122.164179,4.92537313 C122.238806,4.62686567 122.238806,4.47761194 122.164179,4.40298507 C120.298507,3.80597015 119.104478,3.43283582 118.507463,3.28358209 C118.208955,3.35820896 118.059701,3.43283582 117.985075,3.50746269 C117.238806,7.8358209 116.19403,11.119403 115,13.2089552 C114.925373,13.4328358 115,13.5820896 115.074627,13.6567164 C115.149254,13.7313433 115.223881,13.6567164 115.373134,13.5820896 C116.641791,12.1641791 117.761194,10.6716418 118.731343,9.10447761 L125.895522,9.10447761 C126.044776,9.10447761 126.119403,9.02985075 126.119403,8.80597015 C125.746269,8.28358209 125.149254,7.6119403 124.253731,6.94029851 L123.955224,6.94029851 C123.880597,7.01492537 123.731343,7.23880597 123.507463,7.53731343 C122.985075,8.20895522 122.686567,8.58208955 122.537313,8.58208955 L119.104478,8.58208955 C119.328358,8.20895522 119.626866,7.76119403 119.925373,7.08955224 C120.298507,6.49253731 120.522388,5.97014925 120.746269,5.67164179 L122.164179,4.92537313 L122.164179,4.92537313 Z M155.597015,6.19402985 C155.298507,6.11940299 155,6.11940299 154.626866,6.11940299 L155.223881,6.86567164 L156.865672,6.86567164 L166.567164,6.86567164 C166.865672,6.79104478 166.865672,6.64179104 166.641791,6.34328358 C166.119403,5.74626866 165.298507,5.07462687 164.029851,4.40298507 C164.029851,4.40298507 164.029851,4.40298507 163.955224,4.40298507 C163.80597,4.32835821 163.731343,4.32835821 163.656716,4.40298507 C163.58209,4.55223881 163.358209,4.85074627 162.910448,5.37313433 C162.462687,5.82089552 162.164179,6.19402985 162.089552,6.34328358 L155.597015,6.34328358 L155.597015,6.19402985 Z M161.41791,24.7761194 C161.268657,24.9253731 160.746269,25 159.850746,25 C159.104478,25 158.432836,24.9253731 157.910448,24.7014925 C157.835821,24.6268657 157.761194,24.7014925 157.686567,24.7761194 C157.686567,24.9253731 157.686567,25 157.761194,25 C159.179104,25.4477612 160.074627,26.1940299 160.597015,27.3134328 C160.671642,27.5373134 160.820896,27.6119403 161.044776,27.6119403 C163.283582,27.3880597 164.402985,26.9402985 164.477612,26.1940299 C164.477612,25.9701493 164.477612,25.5970149 164.402985,25.0746269 C164.328358,23.880597 164.328358,22.9104478 164.328358,22.1641791 L164.328358,14.7761194 C164.328358,14.5522388 164.477612,14.4029851 164.776119,14.2537313 C165.074627,14.0298507 165.223881,13.880597 165.298507,13.7313433 L168.656716,13.7313433 C168.880597,13.6567164 168.955224,13.5074627 168.955224,13.2835821 C168.731343,12.9104478 167.835821,12.238806 166.119403,11.119403 C165.970149,11.0447761 165.895522,11.0447761 165.895522,11.0447761 L165.447761,11.0447761 C165.223881,11.1940299 164.925373,11.5671642 164.402985,12.3134328 C164.029851,12.761194 163.80597,13.0597015 163.656716,13.2835821 L153.955224,13.2835821 C153.656716,13.2089552 153.358209,13.2089552 152.985075,13.2089552 L153.58209,13.9552239 C154.104478,13.880597 154.701493,13.880597 155.223881,13.880597 L161.343284,13.880597 L161.343284,24.7761194 L161.41791,24.7761194 Z M150.597015,3.80597015 C150.522388,3.73134328 150.373134,3.73134328 150.149254,3.80597015 C147.985075,7.1641791 145.820896,9.62686567 143.731343,10.9701493 C143.656716,11.119403 143.731343,11.1940299 143.80597,11.2686567 C146.343284,10.5970149 149.104478,9.02985075 152.014925,6.71641791 C152.089552,6.41791045 152.462687,6.34328358 153.134328,6.41791045 C153.283582,6.26865672 153.283582,6.11940299 153.208955,5.97014925 C152.686567,5.37313433 151.791045,4.62686567 150.597015,3.80597015 L150.597015,3.80597015 Z M151.343284,15.2985075 C151.343284,15.0746269 151.492537,14.8507463 151.865672,14.7014925 C152.014925,14.4776119 151.940299,14.3283582 151.791045,14.1791045 C151.716418,14.1044776 151.41791,14.0298507 150.820896,13.880597 C151.41791,13.2835821 152.014925,12.6119403 152.462687,12.0149254 C152.61194,11.9402985 152.835821,11.8656716 153.208955,11.7164179 C153.432836,11.641791 153.58209,11.641791 153.656716,11.641791 C153.80597,11.5671642 153.80597,11.4179104 153.656716,11.1940299 C152.462687,10.4477612 151.492537,9.7761194 150.671642,9.32835821 C150.522388,9.25373134 150.373134,9.25373134 150.223881,9.32835821 C148.358209,13.2835821 146.268657,16.4179104 143.955224,18.6567164 C143.955224,18.880597 143.955224,18.9552239 144.029851,18.9552239 C145.671642,18.1343284 147.164179,17.0895522 148.507463,15.9701493 L148.507463,23.9552239 L148.507463,27.6865672 C148.507463,28.0597015 148.880597,28.1343284 149.626866,27.9850746 C150.597015,27.8358209 151.119403,27.6119403 151.268657,27.238806 L151.268657,15.2985075 L151.343284,15.2985075 Z" id="Shape" fill="#000000" fill-rule="nonzero"></path>
                <g id="Group">
                    <polygon id="Shape" fill="#EEBD18" points="25.6716418 21.3432836 26.1940299 21.3432836 26.7910448 21.3432836 27.3880597 21.4179104 27.9850746 21.4179104 28.5820896 21.4179104 29.1044776 21.4179104 29.7014925 21.4179104 30.2985075 21.4925373 30.8208955 21.4925373 31.3432836 21.4925373 31.9402985 21.5671642 32.4626866 21.5671642 32.9850746 21.641791 33.5820896 21.641791 34.1044776 21.7164179 34.6268657 21.7164179 35.1492537 21.7910448 35.6716418 21.8656716 36.1940299 21.9402985 36.641791 21.9402985 37.1641791 22.0149254 37.6865672 22.0895522 38.1343284 22.1641791 38.6567164 22.238806 39.1044776 22.3134328 39.6268657 22.3880597 40.0746269 22.4626866 40.5970149 22.5373134 41.0447761 22.6119403 41.4925373 22.6865672 41.9402985 22.761194 42.3880597 22.8358209 42.9850746 22.9850746 43.5074627 23.0597015 44.0298507 23.2089552 44.4776119 23.2835821 45 23.4328358 45.4477612 23.5074627 45.8955224 23.6567164 46.3432836 23.7313433 46.7910448 23.880597 47.238806 24.0298507 47.6119403 24.1044776 48.0597015 24.2537313 48.4328358 24.4029851 48.8059701 24.5522388 49.1791045 24.7014925 49.5522388 24.7761194 24.7761194 0.149253731 0.223880597 24.7014925 0.597014925 24.5522388 1.04477612 24.4776119 1.49253731 24.3283582 1.94029851 24.1791045 2.3880597 24.0298507 2.8358209 23.880597 3.35820896 23.8059701 3.88059701 23.6567164 4.40298507 23.5074627 4.92537313 23.4328358 5.44776119 23.2835821 5.97014925 23.1343284 6.56716418 23.0597015 7.1641791 22.9850746 7.76119403 22.8358209 8.35820896 22.761194 8.80597015 22.6865672 9.32835821 22.5373134 9.85074627 22.4626866 10.3731343 22.3880597 10.8208955 22.3134328 11.3432836 22.238806 11.8656716 22.238806 12.3880597 22.1641791 12.9104478 22.0895522 13.4328358 22.0149254 13.9552239 21.9402985 14.4776119 21.8656716 15 21.8656716 15.5223881 21.7910448 16.0447761 21.7164179 16.641791 21.7164179 17.1641791 21.641791 17.6865672 21.641791 18.2835821 21.5671642 18.8059701 21.5671642 19.3283582 21.5671642 19.9253731 21.4925373 20.4477612 21.4925373 21.0447761 21.4925373 21.5671642 21.4179104 22.1641791 21.4179104 22.761194 21.4179104 23.2835821 21.4179104 23.880597 21.4179104 24.4776119 21.3432836 25.0746269 21.3432836"></polygon>
                    <polygon id="Shape" fill="#303575" points="24.7761194 49.7014925 49.4029851 25 49.0298507 25 48.7313433 24.9253731 48.358209 24.9253731 48.0597015 24.9253731 47.6865672 24.9253731 47.3134328 24.8507463 46.9402985 24.8507463 46.5671642 24.8507463 46.1940299 24.8507463 45.7462687 24.8507463 45.3731343 24.8507463 45 24.8507463 44.5522388 24.7761194 44.1044776 24.7761194 43.7313433 24.7761194 43.2835821 24.8507463 42.8358209 24.8507463 42.3880597 24.8507463 41.9402985 24.8507463 41.4179104 24.8507463 40.9701493 24.8507463 40.5223881 24.8507463 40 24.9253731 39.4776119 24.9253731 39.0298507 24.9253731 38.5074627 25 37.9850746 25 37.4626866 25 36.9402985 25.0746269 36.3432836 25.0746269 35.8208955 25.1492537 35.2985075 25.1492537 34.1044776 25.2238806 32.9850746 25.2985075 32.4626866 25.3731343 31.9402985 25.4477612 31.4179104 25.4477612 30.8955224 25.5223881 30.4477612 25.5970149 29.9253731 25.5970149 29.4776119 25.6716418 29.0298507 25.7462687 28.5820896 25.7462687 28.1343284 25.8208955 27.6865672 25.8955224 27.3134328 25.9701493 26.9402985 25.9701493 26.4925373 26.0447761 26.119403 26.119403 25.7462687 26.1940299 25.4477612 26.1940299 25.0746269 26.2686567 24.7014925 26.3432836 24.4029851 26.4179104 24.1044776 26.4925373 23.8059701 26.5671642 23.5074627 26.641791 23.2089552 26.7164179 22.9850746 26.7164179 22.6865672 26.7910448 22.4626866 26.8656716 22.1641791 26.9402985 22.0149254 27.0149254 21.7910448 27.0895522 21.641791 27.1641791 21.4179104 27.238806 21.2686567 27.3134328 21.0447761 27.3880597 20.8955224 27.4626866 20.7462687 27.5373134 20.5970149 27.6119403 20.4477612 27.6865672 20.2985075 27.761194 20.2238806 27.8358209 20.0746269 27.9104478 19.9253731 27.9850746 19.8507463 28.0597015 19.7761194 28.2089552 19.6268657 28.2835821 19.5522388 28.358209 19.4776119 28.4328358 19.4029851 28.5074627 19.3283582 28.6567164 19.3283582 28.7313433 19.2537313 28.8059701 19.1791045 28.880597 19.1791045 29.0298507 19.1044776 29.1044776 19.1044776 29.1791045 19.1044776 29.3283582 19.1044776 29.4029851 19.1044776 29.4776119 19.1044776 29.6268657 19.1044776 29.7014925 19.1044776 29.7761194 19.1044776 29.8507463 19.1044776 29.9253731 19.1044776 30 19.1791045 30.0746269 19.1791045 30.1492537 19.1791045 30.2238806 19.2537313 30.2985075 19.2537313 30.3731343 19.3283582 30.4477612 19.3283582 30.5223881 19.4029851 30.5970149 19.4776119 30.6716418 19.4776119 30.6716418 19.5522388 30.7462687 19.6268657 30.8208955 20.2238806 31.3432836 20.5223881 31.5671642 20.8208955 31.7164179 21.0447761 31.8656716 21.2686567 32.0149254 21.4179104 32.1641791 21.5671642 32.238806 21.641791 32.238806 21.7164179 32.3134328 21.7164179 32.3134328 21.7910448 32.3880597 21.8656716 32.4626866 21.9402985 32.5373134 22.0149254 32.6119403 22.0149254 32.6119403 22.0895522 32.6865672 22.1641791 32.761194 22.238806 32.8358209 22.238806 32.9104478 22.3134328 32.9850746 22.3134328 33.0597015 22.3880597 33.1343284 22.4626866 33.2089552 22.4626866 33.2835821 22.4626866 33.358209 22.5373134 33.4328358 22.5373134 33.5820896 22.6119403 33.6567164 22.6119403 33.7313433 22.6119403 33.8059701 22.6119403 33.880597 22.6865672 33.9552239 22.6865672 34.0298507 22.6865672 34.1044776 22.6865672 34.2537313 22.6865672 34.3283582 22.6865672 34.4029851 22.6865672 34.4776119 22.6865672 34.6268657 22.6865672 34.7014925 22.6865672 34.7761194 22.6865672 34.8507463 22.6119403 35 22.6119403 35.0746269 22.5373134 35.2238806 22.4626866 35.3731343 22.3880597 35.5223881 22.3134328 35.5970149 22.1641791 35.7462687 22.0895522 35.8955224 21.9402985 36.0447761 21.7910448 36.119403 21.641791 36.2686567 21.4179104 36.4179104 21.2686567 36.5671642 21.0447761 36.641791 20.8208955 36.7910448 20.5970149 36.9402985 20.2985075 37.0895522 20.0746269 37.238806 19.7761194 37.3134328 19.4776119 37.4626866 19.1791045 37.6119403 18.880597 37.761194 18.5074627 37.9104478 18.2089552 38.0597015 17.8358209 38.1343284 17.4626866 38.2835821 17.0895522 38.4328358 16.641791 38.5820896 16.2686567 38.7313433 15.8208955 38.880597 15.3731343 38.9552239 14.9253731 39.1044776 14.4776119 39.2537313"></polygon>
                </g>
            </g>
        </g>
        <g id="svg"></g>
    </g>
</svg>