<?xml version="1.0" encoding="UTF-8"?>
<svg width="200px" height="50px" viewBox="0 0 200 50" version="1.1" xmlns="http://www.w3.org/2000/svg" xmlns:xlink="http://www.w3.org/1999/xlink">
    <!-- Generator: Sketch 42 (36781) - http://www.bohemiancoding.com/sketch -->
    <title>svg</title>
    <desc>Created with Sketch.</desc>
    <defs>
        <radialGradient cx="50%" cy="50%" fx="50%" fy="50%" r="100%" id="radialGradient-1">
            <stop stop-color="#FFEC00" offset="0%"></stop>
            <stop stop-color="#F07C00" offset="100%"></stop>
        </radialGradient>
    </defs>
    <g id="Page-1" stroke="none" stroke-width="1" fill="none" fill-rule="evenodd">
        <g id="svg">
            <g id="14-NBBANK">
                <g id="Layer1000" transform="translate(-0.000000, 0.000000)">
                    <g id="Layer1001">
                        <path d="M24.5046127,0.291263723 C30.9888269,0.291263723 37.207464,2.86711003 41.7924926,7.45214493 C46.3775213,12.0371798 48.9533591,18.2558204 48.9533503,24.7400346 C48.9533319,38.2426951 38.0072511,49.188751 24.5045905,49.1887388 C11.00193,49.1887265 0.0558690874,38.2426507 0.0558752175,24.7399902 C0.0558813476,11.2373296 11.0019522,0.291263723 24.5046127,0.291263723 L24.5046127,0.291263723 Z" id="path9" fill="url(#radialGradient-1)" fill-rule="nonzero"></path>
                        <path d="M37.5347934,4.07010002 C39.5958497,5.37534244 41.4500878,6.97980697 43.0355387,8.82185772 C41.6780506,8.63455253 40.2933242,8.53572199 38.8855884,8.53572199 C22.1958141,8.53572199 8.58510396,22.1464322 8.58510396,38.8362065 C8.58510396,40.4519592 8.71436952,42.0381761 8.96001402,43.5866322 C7.08523065,42.0368108 5.44510321,40.2121087 4.09936958,38.1777247 C4.44414431,19.7656085 19.2103859,4.77546637 37.5347934,4.07010002 L37.5347934,4.07010002 Z M48.1812866,18.6424766 C48.6850294,20.5926482 48.9533503,22.6361894 48.9533503,24.7400346 C48.9533503,24.8906446 48.9500204,25.0404887 48.9474231,25.1904994 C45.9936953,22.7948577 42.2355708,21.3565204 38.151119,21.3565204 C28.6888274,21.3565204 20.9709548,29.0736272 20.9709548,38.5366847 C20.9709548,42.5536732 22.3624075,46.2552899 24.687356,49.1863413 C24.6262862,49.1866743 24.5656826,49.1886722 24.5046127,49.1886722 C22.3246468,49.1886722 20.210912,48.8988736 18.1972397,48.3593348 C16.7261365,45.38989 15.8967991,42.0502635 15.8967991,38.5222663 C15.8967991,26.2565239 25.8996951,16.2536279 38.1654375,16.2536279 C41.7643942,16.2536279 45.1673881,17.1154316 48.1812866,18.6423767 L48.1812866,18.6424766 Z M46.7599982,34.8446581 C44.3453431,40.1327912 40.0982272,44.419466 34.8396633,46.8875656 C31.1282901,45.6208497 28.4468458,42.0968151 28.4468458,37.966511 C28.4468458,32.77571 32.6803758,28.5424463 37.8709105,28.5424463 C41.9675495,28.5424463 45.4670763,31.180336 46.7599982,34.8446581 Z M38.01556,33.1816877 C40.8100202,33.1816877 43.0894493,35.4611169 43.0894493,38.2561764 C43.0894493,41.0506033 40.8100202,43.3300324 38.01556,43.3300324 C35.220667,43.3300324 32.9411046,41.0506033 32.9411046,38.2561764 C32.9411046,35.4611169 35.220667,33.1816877 38.01556,33.1816877 Z" id="path11" fill="#FFFFFF"></path>
                        <path d="M24.5046127,0.291263723 C26.5149551,0.291263723 28.4687563,0.53737441 30.3400433,0.998627993 C31.7459477,3.9144619 32.5347939,7.18006535 32.5347939,10.6240166 C32.5347939,22.8891263 22.5321976,32.8917226 10.2670879,32.8917226 C6.89013357,32.8917226 3.68573313,32.1318463 0.813320732,30.7769555 C0.319467722,28.8447319 0.0558752175,26.8223687 0.0558752175,24.7400346 C0.0558752175,24.6434683 0.0585391135,24.5475348 0.0596712692,24.451135 C2.91443536,26.5645702 6.44166669,27.8175669 10.2527694,27.8175669 C19.7149278,27.8175669 27.4320013,20.1004602 27.4320013,10.6383351 C27.4320013,6.76160059 26.1363489,3.17829426 23.9565495,0.298123255 C24.1389597,0.293994217 24.3212701,0.291263723 24.5046127,0.291263723 L24.5046127,0.291263723 Z M2.04623837,15.0936344 C2.90208154,13.1123618 4.01255987,11.2643839 5.33651615,9.59335528 C5.23585419,9.99463791 5.1816439,10.4144679 5.1816439,10.8462188 C5.1816439,13.6878633 7.49976616,16.005819 10.3418767,16.005819 C13.1835211,16.005819 15.5014769,13.6878633 15.5014769,10.8462188 C15.5014769,8.00394176 13.1835211,5.685986 10.3418767,5.685986 C9.87572825,5.685986 9.42433108,5.74828787 8.99427838,5.86509971 C10.7705642,4.40238774 12.7557328,3.18502059 14.8969057,2.26457795 C18.0429668,3.83877396 20.211811,7.09478738 20.211811,10.8416569 C20.211811,16.118968 15.9069885,20.4237905 10.6296774,20.4237905 C6.87734687,20.4237905 3.61783709,18.2474542 2.04623837,15.0936344 L2.04623837,15.0936344 Z" id="path13" fill="#FFFFFF"></path>
                    </g>
                    <g id="Layer1002" transform="translate(57.273763, 4.994805)" fill="#5D503B">
                        <path d="M110.354221,4.12081394 L110.354221,3.58357273 L108.071029,1.56896812 L108.071029,1.56896812 L106.593699,3.18062516 L97.1921438,3.18062516 C97.1027701,3.18062516 96.7549318,3.43266302 96.7526675,3.65180176 C96.7500036,3.90806855 96.9405721,4.12081394 97.1921438,4.12081394 L110.354221,4.12081394 L110.354221,4.12081394 Z M10.026871,1.0316936 L10.026871,1.0316936 C10.7630054,1.95213625 10.7666683,2.16561421 10.8537776,3.32910406 C10.9344937,4.40515153 11.7677936,4.92384537 12.4654347,4.89520849 C13.5737486,4.84982237 14.1174165,4.04482631 14.1378286,3.04629821 C14.1460534,2.63755668 13.6448746,1.63643128 12.9816644,1.19755442 C11.9624245,0.522922775 11.1041506,0.244379155 9.91355558,0.1126495 C9.75352203,0.0950011892 9.41527384,0.334252344 9.5211304,0.454860233 L10.026871,1.0316936 Z M33.5305249,23.7296188 C33.2723934,22.175402 32.6002258,20.9187424 32.8817996,19.3657244 C33.3316318,16.8840722 34.1682949,14.4289258 34.8845166,12.0113736 C35.5320098,9.8257802 36.2590203,7.66649275 36.8882658,5.46385038 L36.8882658,5.46385038 C36.8882658,5.17008926 36.7059888,5.10901944 36.4853183,5.32952343 C34.5985141,9.73271034 32.8546945,14.2029275 30.7100252,18.4917667 C30.1893667,19.2731207 29.4762085,19.0290079 28.6954539,19.0290079 L28.6954539,19.0290079 C28.1791908,19.0130245 28.4534722,19.410944 29.0001702,19.5173999 C32.0282208,20.1062874 29.3892656,24.9497498 30.9786791,25.7442234 C32.6609627,26.3047737 33.781031,25.2381831 33.5305249,23.7296188 L33.5305249,23.7296188 Z M32.4561424,3.90976678 C32.5921342,4.58985942 32.5756847,4.95031784 33.0892172,5.46385038 C33.725289,5.88794262 34.470747,5.86679794 35.0080215,5.32952343 L35.0080215,5.32952343 C35.9561353,4.46209231 35.7543452,2.9492991 34.6050739,2.37486324 C33.5979881,1.97221536 32.1986435,1.70329507 31.1129727,1.70329507 C30.9119818,1.90431932 30.9640609,1.80835247 31.1129727,2.10624263 C32.056558,2.5780186 32.208067,2.91669967 32.4561424,3.90976678 L32.4561424,3.90976678 Z M10.9670931,22.6551031 C10.8120544,22.9651473 10.7228139,23.0346084 10.4298186,23.1923776 L10.4298186,23.1923776 C9.35164002,23.1923776 8.29324086,22.9237237 7.20637132,22.9237237 L7.20637132,22.9237237 L7.20637132,23.3266713 L7.20637132,23.3266713 L7.34069827,23.3266713 C8.69921861,23.9088657 9.57410863,24.2857737 9.8925441,25.8785504 L10.026871,26.147171 L10.026871,26.147171 C11.1345856,26.0871667 12.1319149,25.7122234 13.1367032,25.3103414 C13.4834425,24.963602 13.4334945,24.8406965 13.6532659,24.4010538 L13.6532659,12.5821466 L24.2633304,12.5821466 L24.397624,12.3820215 L23.8603828,11.6420911 C23.3378596,11.2647169 22.8613885,10.795072 22.3413294,10.4152671 C22.0595891,10.2095144 21.764596,10.0646984 21.4428306,9.89610706 L21.4428306,9.89610706 C20.9501764,10.4234919 20.4576886,11.0294283 19.9655005,11.6420911 C13.4735528,11.6420911 6.98053954,11.5519182 0.491022621,11.6420911 C-0.00482831141,11.6489173 -0.204920196,12.5821466 0.491022621,12.5821466 L10.9670931,12.5821466 L10.9670931,22.6551031 Z M4.03533618,7.80704656 C4.10812714,7.35934554 4.14985041,6.90325326 4.11741747,6.2697455 L19.9655005,6.2697455 L19.9655005,6.2697455 C19.795544,7.50356221 19.2465483,8.47208818 18.7568244,9.62748645 L18.7568244,9.7618134 L18.7568244,9.7618134 L19.1596054,9.7618134 C19.8324056,9.08901318 20.6541509,8.54138277 21.4428306,8.01569621 C22.4163847,7.66116495 23.4729524,7.60635529 24.397624,7.34426123 L24.397624,6.80698672 L24.397624,6.80698672 C23.5940265,6.20134997 22.8558942,5.56298061 22.1143988,4.92670906 C21.6991307,4.57630685 21.5541482,4.40711616 21.0400496,4.25514089 L21.0400496,4.25514089 C20.64546,4.52269594 20.2987206,4.90936044 19.9655005,5.32952343 L3.98309052,5.32952343 C3.65643028,4.83963296 3.53079429,4.40058961 3.31152235,3.85219333 L3.31152235,3.85219333 C3.15724948,3.69792046 2.95499318,3.74104227 2.90857479,3.98652029 C2.58770852,5.67719515 2.32514828,6.3004802 0.886344779,7.29810923 C0.448999662,7.60132719 0.12263911,8.10630197 0.111051162,8.82585356 C0.102227007,9.37681384 0.956704931,10.0427878 1.48438942,10.1342927 C1.94990524,10.2150087 2.32041986,10.1610981 2.7803415,9.76880613 C3.29460661,9.33036215 3.91852434,8.52446703 4.03533618,7.80704656 L4.03533618,7.80704656 Z M94.6402979,2.7778108 C94.9480778,2.6753174 95.4790922,2.61061803 95.714847,2.37486324 C94.7298381,1.61968203 93.7446961,0.780887798 92.7600203,0.360291927 L92.7600203,0.360291927 C91.7742789,3.31691674 88.6239555,6.64465556 86.4476191,8.82159133 C86.1917852,9.07742523 86.4113902,9.39509483 86.7162398,9.09021193 C89.5341422,7.21133282 92.0546539,4.95201607 94.6402979,2.7778108 L94.6402979,2.7778108 Z M29.0984014,8.55297072 C29.5267892,9.19560232 29.8197844,9.68276229 30.0005298,10.2369525 C30.1243343,10.6164245 30.1529712,11.0448123 30.3072441,11.5077641 C31.6426551,13.5109473 33.800544,11.276438 32.7247963,9.35886584 C31.9313882,8.56545773 30.247706,8.12611469 29.2327284,8.01569621 C28.6323861,8.01569621 28.5037199,8.15684939 29.0984014,8.55297072 Z M62.0037432,25.4755695 L62.0037432,25.4755695 L66.9729747,20.9091524 L67.9131968,19.9689303 C68.0322729,19.8498209 67.9284143,19.759981 67.7788698,19.8346034 L66.4357335,20.5062048 L66.4357335,20.5062048 L63.4810733,21.849208 L63.4810733,15.1339925 L67.9131968,15.1339925 C67.996943,15.0583045 68.0417298,14.9685978 68.0475238,14.8653719 L66.4357335,13.1194212 L66.4357335,13.1194212 L66.1670796,12.9850942 L65.898459,13.1194212 L64.9585366,14.1939369 L63.4810733,14.1939369 L63.4810733,10.701869 L67.3759223,10.701869 L67.3759223,10.4332484 L65.7642985,8.82159133 L65.4956446,8.68726437 L64.4212954,9.89610706 L58.5118085,9.89610706 L58.5118085,9.89610706 L59.3175704,8.82159133 L60.9293607,6.53836611 L67.6445762,6.53836611 L67.6445762,6.53836611 C67.9226536,6.46893832 67.9395361,6.27703792 67.7788698,6.0010916 L66.0327859,4.38946785 L64.824243,5.59814404 L61.1978481,5.59814404 L62.9439653,2.64351714 L63.6056438,2.07683988 L60.5460594,0.655418299 L60.4213224,1.0316936 C59.6900497,4.32320344 58.3666928,9.02168321 56.6313977,11.9107117 C56.4728626,12.1744707 56.9234939,12.2806269 57.0523265,12.0712114 C57.5061212,11.3334121 57.8871582,10.8372615 58.3775149,10.1645945 C58.4143765,10.3581598 58.4967575,10.5390716 58.6461355,10.701869 L61.3321751,10.701869 L61.3321751,14.1939369 L57.1686722,14.1939369 C56.9027821,14.1939369 56.6487463,14.4593608 56.6667276,14.7079023 C56.682711,14.9273407 56.9403763,15.1339925 57.1686722,15.1339925 L61.3321751,15.1339925 L61.3321751,21.3120999 L61.3321751,21.3120999 L61.3321751,22.1178286 L61.3321751,22.1178286 L61.0636876,22.6551031 L61.0636876,22.6551031 L60.5264131,23.1923776 L60.538434,23.3479824 L60.7006319,23.4716538 L61.8647212,25.1871695 L62.0037432,25.4755695 Z M92.8943472,25.2069489 L92.8943472,11.2391435 L95.9834676,8.28431681 L96.7891962,8.01569621 C96.0283875,7.25488752 94.8824461,6.71241841 93.9687298,6.13541855 L93.9687298,6.13541855 C92.436257,9.04818898 89.5825918,13.1061683 86.1789985,16.0742145 L86.1789985,16.0742145 C85.9124757,16.340704 86.0040139,16.4771621 86.3132922,16.4771621 C87.8344767,15.4627838 89.2754113,14.3425823 90.745449,13.2537148 L90.745449,25.6098965 C90.745449,25.8634661 90.7114843,26.012844 91.0140696,26.012844 C91.7392487,25.9092851 92.6255601,26.013843 92.8943472,25.2069489 Z M82.8212243,22.7893967 C79.7012028,21.9309896 78.0816539,20.0261708 76.2402025,17.6858383 L81.0752736,15.9398876 L81.8619887,15.9245036 L82.3118541,15.785315 L80.1350515,13.2537148 L80.0007579,13.5223687 C78.7000774,14.8234821 77.3783854,16.0926287 75.9715486,17.2828907 C74.9090537,15.5239868 74.5396047,14.3022243 73.9569773,12.3136592 L77.4490452,12.3136592 C77.4490452,12.7414476 77.3930035,13.0635126 77.7175326,13.3880418 C78.6420377,13.3540771 79.7281414,13.2071299 80.0007579,12.5821466 L80.0007579,10.701869 L80.0007579,3.71786638 L80.672326,3.18062516 L80.672326,2.91213775 L78.1204802,1.30034751 L77.3147183,2.50919019 L70.867857,2.50919019 L68.7189587,1.43464116 L68.7236538,21.7882713 L68.4503048,23.0580506 L68.0149243,23.6457061 L68.0475238,23.7296188 L68.9875793,25.6098965 L68.9875793,25.6098965 L69.2561999,25.8785504 L69.3905269,26.012844 L69.3905269,26.012844 L69.5248538,25.8785504 L75.9715486,20.9091524 C77.0229551,22.3809882 78.1891421,23.6638539 79.4636498,24.9383283 L79.4636498,24.9383283 C79.55319,24.9552107 79.6427302,24.9104573 79.7322704,24.8040014 C80.6462864,23.5848028 81.3082646,23.3815142 82.8212243,23.1923776 L82.8212243,23.1923776 C82.9221859,23.0725023 83.0088625,23.0537884 82.8212243,22.7893967 L82.8212243,22.7893967 Z M70.867857,3.31491882 L77.4490452,3.31491882 L77.4490452,6.94131367 L70.867857,6.94131367 L70.867857,3.31491882 Z M70.867857,7.7470756 L77.4490452,7.7470756 L77.4490452,11.3734372 L70.867857,11.3734372 L70.867857,7.7470756 Z M70.867857,22.3864492 L70.867857,12.3136592 L73.4197028,12.3136592 L73.4197028,12.3136592 C73.8465588,15.266488 74.4310509,17.8411767 75.837255,20.5062048 C74.1805448,21.2619854 72.524101,21.877079 70.867857,22.3864492 Z M53.6767375,23.8639458 L53.6767375,23.8639458 C53.8424318,23.6982514 53.8110644,23.6658185 53.8110644,23.4609982 C53.5553637,23.3508794 53.2867431,23.3059595 53.0051693,23.3266713 L53.0051693,23.3266713 C50.5225848,22.7223998 48.806503,21.9492373 46.5584412,20.6404985 L46.5584412,20.6404985 C48.1051991,18.7070761 49.336585,16.9289922 50.1846696,14.5968844 L50.4533235,14.0596099 L50.9905647,13.7909893 L50.9905647,13.7909893 C51.2298159,13.6380817 51.3941449,13.4664602 51.3935123,13.2537148 L51.3935123,13.2537148 L48.5730458,11.3734372 L48.5730458,11.3734372 L47.9014444,12.3136592 L45.6182191,12.3136592 L45.6182191,6.67269306 L49.244614,6.67269306 L49.244614,6.67269306 C49.0726928,7.63316075 48.8512565,8.67294593 48.3043919,9.4931595 L48.3043919,9.4931595 L48.3043919,9.89610706 L48.3043919,9.89610706 L48.7073395,9.89610706 C49.4209639,8.97266753 50.1301596,8.33170086 51.2592186,7.88136925 C51.664597,7.71980396 53.6450704,7.59753114 53.5424438,7.20993428 L53.5424438,7.20993428 L53.1394963,6.53836611 L50.5876171,4.65808845 L50.5876171,4.65808845 L50.0503759,4.65808845 L49.244614,5.86679794 L45.6182191,5.86679794 L45.6182191,2.37486324 L46.6927682,1.56896812 L46.6927682,1.56896812 L46.5584412,1.30034751 L46.5584412,1.30034751 L43.2007003,0.628746041 L43.2007003,0.628746041 L43.0663733,0.763072994 L43.2007003,3.58357273 L43.2007003,5.86679794 L39.8430925,5.86679794 L38.7685435,5.19536297 L38.7685435,5.19536297 L37.5598673,4.65808845 L37.5598673,6.0010916 C37.7525003,9.00113791 37.8149353,12.1220918 37.5763169,15.0779508 C37.4075924,17.1679436 37.1139644,19.2096201 36.4934099,20.9495104 C35.9103163,22.5841436 35.0349601,23.9308096 33.7991455,25.4755695 L33.7991455,25.4755695 C33.5194031,25.8783839 33.6936219,26.101019 34.1195789,25.7654014 C36.866655,23.60032 39.2878367,20.1245684 39.7087656,14.7310449 L39.7087656,14.7310449 L39.8430925,13.5223687 L39.8430925,13.5223687 L39.8430925,13.2537148 L40.5145275,13.2537148 L40.5145275,13.2537148 C41.0435439,15.8992299 41.9489023,18.5960582 43.7379415,20.6404985 L43.7379415,20.6404985 C41.9269584,22.6371218 38.6340833,24.9043636 35.9480771,25.5016424 C35.7176501,25.5527892 35.7024326,25.9437159 36.0953239,25.8785504 C39.2178095,25.3604559 42.2930776,23.8232881 44.946651,22.1178286 C46.7338588,23.6405448 48.5747108,24.8551815 50.5876171,26.012844 L50.9905647,26.012844 L50.9905647,26.012844 C51.7385867,24.7948775 52.1107995,24.2301982 53.6767375,23.8639458 L53.6767375,23.8639458 Z M39.977253,12.3136592 L39.977253,6.67269306 L43.2007003,6.67269306 L43.2007003,12.3136592 L39.977253,12.3136592 Z M44.946651,19.2974953 L44.946651,19.2974953 C43.1566794,17.5073573 41.9461718,15.7568446 41.3204226,13.2537148 L47.7671507,13.2537148 L47.7671507,13.2537148 C47.348353,15.3482696 46.3140288,17.656602 44.946651,19.2974953 L44.946651,19.2974953 Z M109.414165,8.28431681 L109.414165,8.28431681 L108.071029,9.89610706 L95.0432455,9.89610706 C94.9949624,9.89610706 94.7675989,10.0913373 94.7833158,10.2894646 C94.7995989,10.4939852 94.9468458,10.701869 95.0432455,10.701869 L104.310473,10.701869 L104.310473,22.5207761 C104.310473,22.7629243 104.324625,22.9831286 104.176146,23.0580506 C103.345577,23.4264342 101.218289,23.1492558 100.281264,23.0580506 L100.281264,23.0580506 C99.8094881,23.0580506 99.8443852,23.1242818 100.012643,23.4609982 C101.335235,23.6108424 102.741772,24.6926838 102.698816,26.012844 L102.698816,26.012844 C103.604907,26.012844 104.52182,25.7221464 105.384989,25.4755695 C106.798819,24.5329499 106.365569,24.9512482 106.862319,23.4609982 L106.862319,10.701869 L111.563097,10.701869 L111.563097,10.701869 C111.913499,10.701869 111.912733,10.4891236 111.69739,10.2989214 L109.414165,8.28431681 Z" id="path16"></path>
                        <path d="M96.294877,33.8455306 C98.5534279,32.8124051 98.2118498,29.6642129 95.4876166,29.6642129 L91.8613883,29.6642129 L91.8613883,38.3941662 L95.2191292,38.3941662 C96.0713428,38.3941662 97.5080152,37.9831271 97.8867213,37.0199289 C98.3881997,35.7448218 97.8501927,34.2853398 96.294877,33.8455306 L96.294877,33.8455306 Z M92.935904,30.470108 L95.2191292,30.470108 L95.2191292,30.470108 L95.7562705,30.604435 C97.1326057,31.2926192 96.7077476,32.8148692 95.4876166,33.4249014 L94.9505086,33.5590619 L92.935904,33.5590619 L92.935904,30.470108 Z M92.935904,37.5884043 L92.935904,34.3453441 L94.9602651,34.3453441 C96.4312019,34.3453441 96.9360102,35.1337241 96.9415045,36.1227953 C96.945467,36.8452439 95.9916924,37.5884043 95.0848356,37.5884043 L92.935904,37.5884043 Z M70.330749,38.3690257 L71.4051315,38.3690257 L71.4051315,29.6390724 L70.330749,29.6390724 L70.330749,38.3690257 Z M87.1190541,34.3398498 L88.999465,34.3398498 L88.999465,37.2946432 L88.999465,37.2946432 C86.4657336,37.9280177 83.2241719,37.7402464 83.2241719,34.0712292 L83.2241719,34.0712292 C83.2767172,29.665445 87.2597744,30.4101038 89.8052269,30.8479151 L89.6708999,29.9077263 C85.5998343,28.8240534 81.9292853,30.1364551 82.0154957,34.0712292 C82.1262138,39.1331976 86.7094135,38.6833321 90.2081745,38.1005383 L90.2081745,33.5339547 L87.1190541,33.5339547 L87.1190541,34.3398498 Z M79.7322704,37.0260226 L79.7322704,37.0260226 L74.6285455,29.6390724 L73.1510822,29.6390724 L73.1510822,38.3690257 L74.2255979,38.3690257 L74.2255979,31.1164025 L74.2255979,31.1164025 L79.3293229,38.3690257 L80.806653,38.3690257 L80.806653,29.6390724 L79.7322704,29.6390724 L79.7322704,37.0260226 Z M50.856271,38.3690257 L52.0649472,38.3690257 L52.0649472,34.3398498 L55.825669,34.3398498 L55.825669,33.5339547 L52.0649472,33.5339547 L52.0649472,30.5792945 L56.2286166,30.5792945 L56.2286166,29.6390724 L50.856271,29.6390724 L50.856271,38.3690257 Z M36.6196452,29.6390724 L35.2764756,29.6390724 L31.9189011,33.8025753 L35.8137501,38.3690257 L37.2912467,38.3690257 L33.2619043,33.6682816 L36.6196452,29.6390724 Z M30.7100252,38.3690257 L31.9189011,38.3690257 L31.9189011,29.6390724 L30.7100252,29.6390724 L30.7100252,38.3690257 Z M16.2051117,29.6390724 L12.0414424,38.3690257 L13.384612,38.3690257 L14.996269,34.7427973 L18.4881704,34.7427973 L19.8311736,38.3690257 L21.0400496,38.3690257 L17.5479484,29.6390724 L16.2051117,29.6390724 Z M15.2648897,33.9369022 L16.7420533,30.5792945 L18.2195498,33.9369022 L15.2648897,33.9369022 Z M28.1583458,37.0260226 L28.1583458,37.0260226 L23.0546209,29.6390724 L21.5771576,29.6390724 L21.5771576,38.3690257 L22.6516733,38.3690257 L22.6516733,31.1164025 L22.6516733,31.1164025 L27.7553983,38.3690257 L29.2327284,38.3690257 L29.2327284,29.6390724 L28.1583458,29.6390724 L28.1583458,37.0260226 Z M10.4311839,33.8203901 C12.6897347,32.7872979 12.3481567,29.6390724 9.62392349,29.6390724 L5.99769513,29.6390724 L5.99769513,38.3690257 L9.35543608,38.3690257 C10.2076164,38.3690257 11.6442888,37.9580199 12.0230282,36.9947884 C12.5245066,35.7197146 11.9864662,34.2601993 10.4311839,33.8203901 L10.4311839,33.8203901 Z M7.07221086,30.4449675 L9.35543608,30.4449675 L9.35543608,30.4449675 L9.8925441,30.5792945 C11.2689125,31.2674787 10.8440211,32.7897287 9.62392349,33.3997942 L9.08681547,33.5339547 L7.07221086,33.5339547 L7.07221086,30.4449675 Z M7.07221086,37.5632971 L7.07221086,34.3202035 L9.09653869,34.3202035 C10.5674754,34.3202035 11.072317,35.1085836 11.077778,36.0976881 C11.0817405,36.8201367 10.1279659,37.5632971 9.22110912,37.5632971 L7.07221086,37.5632971 Z M67.5102492,37.0260226 L62.4066908,29.6390724 L60.9293607,29.6390724 L60.9293607,38.3690257 L62.0037432,38.3690257 L62.0037432,31.1164025 L62.0037432,31.1164025 L67.1073017,38.3690257 L68.5846318,38.3690257 L68.5846318,29.6390724 L67.5102492,29.6390724 L67.5102492,37.0260226 Z M103.321835,30.4291506 C105.343432,30.4291506 106.991918,32.0464352 106.991918,34.0291729 C106.991918,36.011944 105.343432,37.6293617 103.321835,37.6293617 C101.299905,37.6293617 99.6514192,36.011944 99.6514192,34.0291729 C99.6514192,32.0464352 101.299905,30.4291506 103.321835,30.4291506 Z M103.321835,29.5245582 C105.851437,29.5245582 107.914158,31.5481534 107.914158,34.0291729 C107.914158,36.5102257 105.851437,38.5339542 103.321835,38.5339542 C100.7919,38.5339542 98.7291784,36.5102257 98.7291784,34.0291729 C98.7291784,31.5481534 100.7919,29.5245582 103.321835,29.5245582 Z M44.9964325,30.4291506 C47.0180299,30.4291506 48.6665486,32.0464352 48.6665486,34.0291729 C48.6665486,36.011944 47.0180299,37.6293617 44.9964325,37.6293617 C42.9745355,37.6293617 41.3260501,36.011944 41.3260501,34.0291729 C41.3260501,32.0464352 42.9745355,30.4291506 44.9964325,30.4291506 Z M44.9964325,29.5245582 C47.5260681,29.5245582 49.5887894,31.5481534 49.5887894,34.0291729 C49.5887894,36.5102257 47.5260681,38.5339542 44.9964325,38.5339542 C42.4665306,38.5339542 40.4038093,36.5102257 40.4038093,34.0291729 C40.4038093,31.5481534 42.4665306,29.5245582 44.9964325,29.5245582 Z" id="path18"></path>
                    </g>
                </g>
            </g>
        </g>
    </g>
</svg>