<?xml version="1.0" encoding="UTF-8"?>
<svg width="200px" height="50px" viewBox="0 0 200 50" version="1.1" xmlns="http://www.w3.org/2000/svg" xmlns:xlink="http://www.w3.org/1999/xlink">
    <!-- Generator: Sketch 42 (36781) - http://www.bohemiancoding.com/sketch -->
    <title>svg</title>
    <desc>Created with Sketch.</desc>
    <defs></defs>
    <g id="Page-1" stroke="none" stroke-width="1" fill="none" fill-rule="evenodd">
        <g id="svg">
            <g id="Page_1" transform="translate(0.000000, 4.000000)">
                <g id="图层_1_1_">
                    <g id="Group">
                        <g id="Shape" fill="#EA5504">
                            <path d="M59.5275591,35.2230971 L60.0524934,35.0131234 L60.2624672,34.9081365 L60.4724409,34.7506562 L60.6299213,34.5931759 L60.839895,34.3307087 L60.9448819,34.4356955 L61.1548556,34.6456693 L61.3648294,34.8031496 L61.5748031,34.9606299 L62.0997375,35.2230971 L59.5275591,35.2230971 L59.5275591,35.2230971 Z M61.8372703,34.2257218 L61.9422572,34.488189 L62.2047244,34.4356955 L62.2572178,34.4356955 L62.3097113,34.3832021 L62.3622047,34.3307087 L62.519685,34.1207349 L62.6246719,33.9107612 L62.7296588,33.7007874 L62.8346457,33.4908136 L62.8346457,33.3858268 L62.8346457,33.2808399 L62.8346457,33.175853 L62.7821522,33.0708661 L62.7296588,33.0183727 L62.6246719,32.9658793 L62.519685,32.9658793 L62.4146982,32.9658793 L60.2624672,32.9658793 L60.2624672,32.6509186 L60.1049869,32.4934383 L60.0524934,32.4934383 L60,32.4934383 L59.9475066,32.4934383 L59.8950131,32.4934383 L59.8425197,32.5459318 L59.7900262,32.5984252 L59.7375328,32.6509186 L59.6325459,32.808399 L59.5800525,32.9133858 L59.4225722,33.1233596 L59.2125984,33.3858268 L59.0551181,33.5958005 L59.0551181,33.3333333 L58.8976378,33.175853 L58.0052493,32.8608924 L57.847769,32.808399 L57.7952756,32.808399 L57.7427822,32.808399 L57.6902887,32.808399 L57.6377953,32.808399 L57.5853018,32.8608924 L57.5328084,32.9133858 L57.480315,32.9658793 L57.480315,33.0183727 L57.480315,33.0708661 L57.480315,33.1233596 L57.480315,33.175853 L57.5328084,33.2283465 L57.5853018,33.2808399 L57.6377953,33.3333333 L57.6902887,33.3858268 L57.7952756,33.4383202 L57.9002625,33.4383202 C58.0052493,33.4908136 58.1102362,33.4908136 58.1627297,33.5433071 L58.4251969,33.648294 C58.5301837,33.7007874 58.6351706,33.7532808 58.7401575,33.7532808 L58.7926509,33.7532808 L58.8451444,33.7532808 L59.0026247,33.7532808 L59.0026247,33.8582677 L59.0026247,33.9107612 L59.0551181,34.015748 L58.7926509,34.1207349 L58.5301837,34.3307087 L58.2677165,34.488189 L57.9527559,34.6456693 C57.847769,34.6981627 57.6902887,34.7506562 57.5853018,34.8031496 L57.5328084,34.855643 L57.480315,34.9081365 L57.4278215,34.9606299 L57.4278215,35.0131234 L57.4278215,35.0656168 L57.4278215,35.1181102 L57.4278215,35.1706037 L57.480315,35.2230971 L57.5328084,35.2755906 L57.5853018,35.328084 L57.6377953,35.328084 L57.6902887,35.328084 L57.7427822,35.328084 L57.7952756,35.328084 L57.847769,35.328084 L58.2152231,35.1706037 C58.3727034,35.1181102 58.4776903,35.0131234 58.6351706,34.9606299 L58.8451444,34.855643 L58.8451444,35.0656168 L58.8451444,35.1181102 L58.8976378,35.2755906 L58.5301837,35.2755906 L58.4251969,35.2755906 L58.32021,35.328084 L58.2152231,35.3805774 L58.1627297,35.4330709 L58.1102362,35.4855643 L58.0577428,35.5905512 L58.0052493,35.6955381 L58.0052493,35.8005249 L58.0052493,37.2703412 L58.0052493,37.3228346 L58.0052493,37.3753281 L58.0052493,37.4278215 L58.2677165,37.6377953 L57.6902887,37.6902887 L57.6377953,37.6902887 L57.5853018,37.6902887 L57.5328084,37.7427822 L57.480315,37.7952756 L57.4278215,37.847769 L57.4278215,37.9002625 L57.4278215,37.9527559 L57.4278215,38.0052493 L57.4278215,38.0577428 L57.480315,38.1102362 L57.5328084,38.1627297 L57.5853018,38.2152231 L57.6377953,38.2152231 L57.6902887,38.2152231 L57.7427822,38.2152231 L57.7952756,38.2152231 L58.3727034,38.1627297 L58.8976378,38.0577428 L59.3175853,37.9002625 L59.6850394,37.6902887 L60,37.4278215 L60.2099738,37.0603675 L60.3674541,36.6404199 L60.4724409,36.167979 L60.4724409,36.1154856 L60.4724409,36.0629921 L60.4199475,35.9055118 L61.67979,35.9055118 L61.7322835,35.9055118 L61.7322835,35.9055118 L61.7322835,35.9580052 L61.7322835,36.0104987 L61.7322835,37.1128609 L61.7322835,37.3228346 L61.4173228,37.2178478 C61.2598425,37.1653543 61.1023622,37.1128609 60.9448819,37.0603675 L60.839895,37.007874 L60.6299213,36.9553806 L60.5774278,36.9553806 L60.5249344,36.9553806 L60.4724409,36.9553806 C60.4199475,36.9553806 60.4199475,36.9553806 60.3674541,37.007874 L60.2624672,37.1128609 L60.2624672,37.2703412 L60.2624672,37.3228346 L60.2624672,37.3753281 L60.3149606,37.4278215 L60.3674541,37.480315 L60.4199475,37.5328084 L60.4724409,37.5328084 L60.7349081,37.5853018 L60.9973753,37.6902887 L61.2598425,37.7952756 L61.5223097,37.9002625 L61.7322835,38.0052493 L61.9422572,38.1102362 L62.152231,38.2152231 L62.4146982,38.3727034 L62.6246719,38.4251969 L62.8346457,38.2677165 L62.8346457,38.0052493 L62.6771654,37.847769 L62.0472441,37.5328084 L62.2047244,37.4278215 L62.2572178,37.3753281 L62.3097113,37.3228346 L62.3622047,37.2703412 L62.3622047,37.2178478 L62.3622047,37.1653543 L62.3622047,35.6955381 L62.3622047,35.5905512 L62.3097113,35.4855643 L62.152231,35.2230971 L62.6246719,35.328084 L62.8871391,35.328084 L63.0446194,35.1706037 L63.0446194,35.0656168 L63.0446194,35.0131234 L63.0446194,34.9606299 L62.992126,34.9081365 L62.9396325,34.855643 L62.8871391,34.8031496 L62.8346457,34.7506562 L62.4671916,34.6456693 L62.2047244,34.5406824 L61.8897638,34.3832021 L61.8897638,34.3832021 L61.5223097,34.1207349 L61.3648294,33.9632546 L61.2073491,33.8057743 L61.1023622,33.648294 L61.1023622,33.5433071 L61.1023622,33.4383202 L62.0997375,33.4383202 C62.0472441,33.5433071 61.9947507,33.5958005 61.9422572,33.7007874 C61.8897638,33.7532808 61.8372703,33.8057743 61.7847769,33.9107612 L61.7847769,33.9632546 L61.7847769,34.015748 L61.7847769,34.0682415 L61.8372703,34.2257218 L61.8372703,34.2257218 Z M59.3175853,34.3307087 L59.2650919,34.0682415 L59.3700787,34.015748 C59.4225722,34.015748 59.4750656,33.9632546 59.5275591,33.9107612 C59.5800525,33.8582677 59.6325459,33.8057743 59.6850394,33.7532808 C59.7375328,33.648294 59.8425197,33.5958005 59.8950131,33.4908136 L60.5249344,33.4908136 L60.4724409,33.648294 L60.3674541,33.8582677 L60.2624672,34.015748 L60.1049869,34.1732283 L59.8950131,34.3307087 L59.6325459,34.4356955 L59.3700787,34.5406824 L59.0551181,34.6456693 L59.3175853,34.3307087 L59.3175853,34.3307087 Z M60.2099738,37.1128609 L60.2624672,37.007874 L60.3674541,36.8503937 L60.3674541,37.007874 L60.2099738,37.1128609 L60.2099738,37.1128609 Z M60,35.8005249 L59.9475066,35.9580052 L59.9475066,36.0104987 L59.8950131,36.3779528 L59.7900262,36.6929134 L59.6325459,36.9553806 L59.4225722,37.1653543 L59.1076115,37.3228346 L58.4776903,37.5328084 L58.687664,37.2703412 L58.7401575,37.2178478 L58.7401575,37.1653543 L58.7401575,37.1128609 L58.7401575,35.8530184 L58.7401575,35.8005249 L58.7401575,35.8005249 L58.7401575,35.8005249 L58.7926509,35.8005249 L60,35.8005249 L60,35.8005249 Z M55.4330709,34.9606299 L53.0183727,34.9606299 L53.2283465,34.8031496 L53.3858268,34.6456693 L53.4908136,34.488189 L53.5958005,34.3307087 L53.648294,34.1732283 L53.7007874,33.9632546 L53.7007874,33.7532808 L53.7007874,33.3333333 L54.9081365,33.3333333 L54.9081365,34.2782152 L54.9081365,34.4356955 L54.9606299,34.5406824 L54.9606299,34.5931759 L54.9606299,34.6456693 L55.0131234,34.6981627 L55.0656168,34.7506562 L55.1181102,34.8031496 L55.4330709,34.9606299 L55.4330709,34.9606299 Z M54.6981627,36.3254593 L54.5406824,36.4829396 L54.2782152,36.6929134 L54.1207349,36.5354331 L54.015748,36.4304462 C53.9632546,36.3779528 53.9107612,36.3254593 53.8582677,36.2204724 L53.7532808,36.0629921 L53.5433071,35.8005249 L53.3333333,35.4855643 L55.1706037,35.4855643 L55.0656168,35.6955381 L54.9606299,35.8530184 L54.855643,36.0104987 L54.7506562,36.167979 L54.6981627,36.3254593 L54.6981627,36.3254593 Z M52.5459318,35.1181102 L52.3884514,35.2230971 C52.2834646,35.2755906 52.2309711,35.328084 52.1259843,35.3805774 L52.1259843,34.3832021 L52.808399,34.3832021 L52.808399,33.9632546 L52.808399,33.9107612 L52.7559055,33.8582677 L52.7034121,33.8057743 L52.6509186,33.8057743 L52.5984252,33.8057743 L52.5459318,33.8057743 L52.1259843,33.8057743 L52.1259843,32.808399 L52.1259843,32.7559055 L52.1259843,32.7034121 L52.1259843,32.6509186 L52.0734908,32.5984252 L52.0209974,32.5459318 L51.9685039,32.5459318 L51.9160105,32.5459318 L51.8110236,32.5459318 L51.7585302,32.5459318 L51.7060367,32.5459318 L51.6535433,32.5984252 L51.6010499,32.6509186 L51.6010499,32.7034121 L51.6010499,32.7559055 L51.6010499,32.808399 L51.6010499,33.8057743 L51.1286089,33.8057743 L51.0761155,33.8057743 L51.023622,33.8057743 L50.9711286,33.8057743 L50.9186352,33.8582677 L50.8661417,33.9107612 L50.8661417,33.9632546 L50.8661417,34.015748 L50.8661417,34.1207349 L50.8661417,34.1732283 L50.8661417,34.2257218 L50.9186352,34.2782152 L50.9711286,34.3307087 L51.023622,34.3832021 L51.0761155,34.3832021 L51.1286089,34.3832021 L51.6010499,34.3832021 L51.6010499,35.6430446 L51.4435696,35.7480315 L51.2335958,35.8530184 C51.1811024,35.9055118 51.0761155,35.9055118 51.023622,35.9580052 L50.9711286,36.0104987 L50.9186352,36.0629921 L50.9186352,36.1154856 L50.9186352,36.167979 L50.9186352,36.2204724 L50.9186352,36.2729659 L50.9186352,36.3254593 L50.9711286,36.3779528 L51.023622,36.4304462 L51.0761155,36.4829396 L51.1286089,36.5354331 L51.1811024,36.5354331 L51.2335958,36.5354331 L51.2860892,36.5354331 L51.3385827,36.5354331 C51.3910761,36.4829396 51.496063,36.4829396 51.5485564,36.4304462 L51.7060367,36.3254593 L51.7060367,37.5328084 L51.496063,37.4278215 L51.2335958,37.4278215 L51.0761155,37.6377953 L51.0761155,37.6902887 L51.0761155,37.7427822 L51.0761155,37.7952756 L51.1286089,37.847769 L51.1811024,37.9002625 L51.2335958,37.9527559 L51.2860892,38.0052493 L51.3385827,38.0577428 L51.5485564,38.1102362 L51.7060367,38.1102362 L51.8635171,38.1102362 L52.0209974,38.0577428 L52.1259843,37.9527559 L52.2834646,37.7427822 L52.3884514,37.9002625 L52.4409449,37.9527559 L52.4934383,38.0052493 L52.5459318,38.0577428 L52.5984252,38.0577428 L52.6509186,38.0577428 L52.7034121,38.0577428 L52.7559055,38.0577428 L53.0183727,38.0052493 L53.2283465,37.9527559 L53.4383202,37.9002625 L53.648294,37.7952756 L53.8582677,37.6902887 L54.0682415,37.5853018 L54.3832021,37.4278215 L54.5406824,37.5328084 L54.7506562,37.6377953 L54.9606299,37.7427822 L55.1706037,37.847769 L55.4330709,37.9527559 L55.6955381,38.0052493 L55.9580052,38.0577428 L56.2729659,38.1102362 L56.3254593,38.1102362 L56.3779528,38.1102362 L56.4304462,38.1102362 L56.4829396,38.0577428 L56.5354331,38.0052493 L56.5879265,37.9527559 L56.5879265,37.9002625 L56.5879265,37.847769 L56.5879265,37.7952756 L56.5879265,37.7427822 L56.5879265,37.6902887 L56.5354331,37.6377953 L56.4829396,37.5853018 L56.4304462,37.5328084 L56.3779528,37.5328084 L56.3254593,37.5328084 L56.1154856,37.480315 L55.9055118,37.4278215 L55.6955381,37.3753281 L55.4855643,37.3228346 L55.2755906,37.2703412 L55.1181102,37.2178478 L54.855643,37.1128609 L55.0656168,36.9028871 L55.2230971,36.7454068 L55.3805774,36.5879265 L55.4855643,36.4304462 L55.5905512,36.2204724 L55.6955381,36.0104987 L55.8005249,35.8005249 L55.8530184,35.6430446 L55.9055118,35.4855643 L55.9055118,35.4330709 L55.9055118,35.3805774 L55.9055118,35.328084 L55.9055118,35.2755906 L55.8530184,35.2230971 L55.8005249,35.1706037 L55.7480315,35.1181102 L55.4330709,34.9081365 L56.167979,34.9081365 L56.2204724,34.9081365 L56.2729659,34.9081365 L56.3254593,34.9081365 L56.3779528,34.855643 L56.4304462,34.8031496 L56.4829396,34.7506562 L56.4829396,34.6981627 L56.4829396,34.6456693 L56.4829396,34.5931759 L56.4829396,34.5406824 L56.4829396,34.488189 L56.4304462,34.4356955 L56.3779528,34.3832021 L56.3254593,34.3832021 L56.2729659,34.3832021 L56.2204724,34.3832021 L55.6955381,34.3832021 L55.5905512,34.3307087 L55.5905512,33.3333333 L55.5905512,33.2283465 L55.5905512,33.1233596 L55.5380577,33.0183727 L55.4855643,32.9658793 L55.4330709,32.9133858 L55.328084,32.8608924 L55.2230971,32.8608924 L55.1181102,32.8608924 L53.7532808,32.8608924 L53.648294,32.8608924 L53.5433071,32.8608924 L53.4383202,32.9133858 L53.3858268,32.9658793 L53.3333333,33.0183727 L53.2808399,33.1233596 L53.2808399,33.2283465 L53.2808399,33.3333333 L53.2808399,33.7532808 L53.2808399,33.9107612 L53.2808399,34.015748 L53.2283465,34.1207349 L53.175853,34.2257218 L52.9658793,34.488189 L52.9658793,34.4356955 L52.6509186,34.6456693 L52.5984252,34.6981627 L52.5459318,34.7506562 L52.5459318,34.8031496 L52.5459318,34.855643 L52.5459318,34.9081365 L52.5459318,34.9606299 L52.5984252,35.0131234 L52.5459318,35.1181102 L52.5459318,35.1181102 Z M52.1259843,37.6902887 L52.1259843,36.0104987 C52.2834646,35.9055118 52.4934383,35.8005249 52.6509186,35.6955381 L52.7034121,35.6430446 L52.9658793,35.3805774 L52.8608924,35.7480315 L52.8608924,35.8005249 L52.8608924,35.8530184 L52.8608924,35.9055118 L52.9133858,35.9580052 L53.1233596,36.2729659 L53.3333333,36.5354331 C53.3858268,36.6404199 53.4908136,36.6929134 53.5433071,36.7979003 L53.7007874,36.9553806 L53.3333333,37.1128609 L53.175853,37.1653543 L52.808399,37.2703412 L52.3884514,37.3753281 L52.335958,37.3753281 L52.2834646,37.4278215 L52.1259843,37.6902887 L52.1259843,37.6902887 Z M37.9002625,34.5406824 L37.9002625,35.0131234 L37.9002625,35.0656168 L37.9002625,35.0656168 L37.847769,35.0656168 C37.847769,35.0656168 37.847769,35.0656168 37.7952756,35.0656168 L36.167979,35.0656168 L36.167979,34.5406824 L37.9002625,34.5406824 L37.9002625,34.5406824 Z M36.167979,33.4908136 L36.167979,33.4908136 L36.167979,33.4908136 L36.2204724,33.4383202 L36.2204724,33.4383202 L36.2204724,33.4383202 L37.7952756,33.4383202 L37.847769,33.4383202 L37.847769,33.4383202 L37.847769,33.4908136 L37.847769,33.4908136 L37.847769,33.9632546 L36.1154856,33.9632546 L36.167979,33.4908136 L36.167979,33.4908136 Z M37.1653543,37.007874 L36.8503937,36.9028871 L36.6404199,37.0603675 L36.5354331,37.2178478 C36.4829396,37.2703412 36.4829396,37.2703412 36.4304462,37.3228346 C36.3779528,37.3753281 36.2729659,37.480315 36.167979,37.5328084 L36.167979,35.6955381 L36.5354331,35.6955381 L36.6404199,36.0104987 L36.7979003,36.3779528 L37.007874,36.6929134 L37.1653543,37.007874 L37.1653543,37.007874 Z M35.5905512,35.8530184 L35.5905512,37.007874 L35.2755906,36.9028871 L35.0656168,37.007874 C34.9606299,37.1128609 34.9081365,37.2178478 34.8031496,37.2703412 L34.6456693,37.480315 L34.6456693,36.0104987 L35.328084,36.0104987 L35.3805774,36.0104987 L35.4330709,36.0104987 L35.5905512,35.8530184 L35.5905512,35.8530184 Z M35.5905512,34.6456693 L35.5905512,35.4855643 L35.4330709,35.3805774 L35.3805774,35.3805774 L35.328084,35.3805774 L34.6456693,35.3805774 L34.6456693,34.7506562 L35.2230971,34.7506562 L35.2755906,34.7506562 L35.328084,34.7506562 L35.3805774,34.7506562 L35.4330709,34.6981627 L35.4855643,34.6456693 L35.5380577,34.488189 L35.4330709,34.3307087 L35.3805774,34.2782152 L35.328084,34.2257218 L35.2755906,34.2257218 L35.2230971,34.2257218 L35.1706037,34.2257218 L34.1732283,34.2257218 L34.3832021,33.7532808 L35.328084,33.7532808 L35.4330709,33.7532808 L35.5905512,33.7007874 L35.5905512,34.3832021 L35.4855643,34.5931759 L35.5905512,34.6456693 L35.5905512,34.6456693 Z M38.1627297,35.6430446 C38.0052493,35.8005249 37.847769,36.0104987 37.6902887,36.167979 L37.6377953,36.2204724 L37.480315,36.3779528 L37.3228346,36.1154856 C37.2703412,36.0104987 37.2178478,35.9580052 37.2178478,35.8530184 L37.1653543,35.6430446 L38.1627297,35.6430446 L38.1627297,35.6430446 Z M38.5826772,35.9580052 L38.5826772,35.9055118 L38.5826772,35.8530184 L38.5301837,35.8005249 L38.4776903,35.7480315 L38.2152231,35.6955381 L38.3727034,35.5380577 L38.4251969,35.4855643 L38.4776903,35.4330709 L38.5301837,35.328084 L38.5301837,35.2230971 L38.5301837,33.2808399 L38.5301837,33.175853 L38.5301837,33.0708661 L38.4776903,33.0183727 L38.4251969,32.9658793 L38.3727034,32.9133858 L38.32021,32.8608924 L38.2152231,32.8608924 L38.1102362,32.8608924 L36.1154856,32.8608924 L36.0104987,32.8608924 L35.9055118,32.8608924 L35.8530184,32.9133858 L35.8005249,32.9658793 L35.7480315,33.0183727 L35.6430446,33.175853 L35.5380577,33.1233596 L35.4855643,33.1233596 L35.4330709,33.1233596 L34.6456693,33.1233596 C34.6456693,33.0708661 34.6456693,33.0183727 34.6981627,32.9658793 L34.6981627,32.9658793 L34.6981627,32.9133858 L34.6981627,32.8608924 L34.6981627,32.808399 L34.6981627,32.7559055 L34.6456693,32.7034121 L34.5931759,32.6509186 L34.5406824,32.5984252 L34.488189,32.5984252 L34.4356955,32.5984252 L34.3832021,32.5984252 L34.3307087,32.5984252 L34.2782152,32.5984252 L34.2257218,32.6509186 L34.1732283,32.7034121 L34.1207349,32.7559055 L34.1207349,32.808399 L34.0682415,33.0708661 L34.015748,33.3333333 L33.9107612,33.5433071 L33.8057743,33.7532808 L33.7007874,33.9632546 L33.5958005,34.1732283 L33.4908136,34.3832021 L33.3858268,34.5931759 L33.3333333,34.6456693 L33.3333333,34.6981627 L33.3333333,34.7506562 L33.3333333,34.8031496 L33.3333333,34.855643 L33.3858268,34.9081365 L33.4383202,34.9606299 L33.4908136,35.0131234 L33.7532808,35.0656168 L33.9632546,34.9081365 L34.0682415,34.7506562 L34.2257218,34.7506562 L34.2257218,35.3805774 L33.7007874,35.3805774 L33.648294,35.3805774 L33.5958005,35.3805774 L33.5433071,35.3805774 L33.4908136,35.4330709 L33.4383202,35.4855643 L33.4383202,35.5380577 L33.4383202,35.5905512 L33.4383202,35.6430446 L33.4383202,35.6955381 L33.4383202,35.7480315 L33.4383202,35.8005249 L33.4908136,35.8530184 L33.5433071,35.9055118 L33.5958005,35.9580052 L33.648294,35.9580052 L33.7007874,35.9580052 L34.2257218,35.9580052 L34.2257218,37.7427822 L34.2257218,37.9002625 L34.2257218,37.9527559 L34.2257218,38.0052493 L34.2782152,38.0577428 L34.3307087,38.1102362 L34.3832021,38.1627297 L34.4356955,38.1627297 L34.488189,38.1627297 L34.5406824,38.1627297 L34.5931759,38.1627297 L34.6456693,38.1627297 L34.6981627,38.1627297 L34.8031496,38.1102362 L35.0131234,37.9527559 L35.2230971,37.7952756 L35.5380577,37.480315 L35.7480315,37.2703412 L35.7480315,37.6377953 L35.7480315,37.7952756 L35.8005249,37.9527559 L35.8530184,38.0577428 L35.9580052,38.1627297 L36.0629921,38.2152231 L36.167979,38.2152231 L36.2729659,38.2152231 L36.4304462,38.1627297 L36.6404199,38.0577428 L36.8503937,37.9002625 C36.9553806,37.7952756 37.0603675,37.6902887 37.1653543,37.5853018 L37.2703412,37.480315 L37.3228346,37.4278215 L37.3753281,37.3753281 L37.3753281,37.3228346 L37.3753281,37.1128609 L37.5853018,37.3753281 L37.9002625,37.6377953 L38.2152231,37.847769 L38.5826772,38.0577428 L38.8451444,38.1102362 L39.0551181,37.9527559 L39.0551181,37.6902887 L38.8976378,37.5328084 L38.5826772,37.3753281 L38.32021,37.2178478 L38.1102362,37.0603675 L37.9527559,36.9553806 C38.1102362,36.7979003 38.2152231,36.6929134 38.3727034,36.5354331 C38.4251969,36.4829396 38.5301837,36.3779528 38.5826772,36.3254593 L38.6351706,36.2729659 L38.687664,36.2204724 L38.687664,36.167979 L38.687664,36.1154856 L38.5826772,35.9580052 L38.5826772,35.9580052 Z M42.0997375,32.9133858 L42.0472441,32.9133858 L41.9947507,32.9133858 L41.9422572,32.9133858 L41.8897638,32.9658793 L41.8372703,33.0183727 L41.7847769,33.0708661 L41.7847769,33.1233596 L41.7847769,33.175853 L41.7847769,33.2283465 L41.7847769,33.2808399 L41.8372703,33.3333333 L41.8897638,33.3858268 L41.9422572,33.4383202 L41.9947507,33.4383202 L42.0472441,33.4383202 L42.0997375,33.4383202 L44.8818898,33.4383202 L44.9343832,33.4383202 L44.9868766,33.4383202 L45.0393701,33.4383202 L45.0918635,33.3858268 L45.144357,33.3333333 L45.1968504,33.2808399 L45.1968504,33.2283465 L45.1968504,33.175853 L45.1968504,33.1233596 L45.1968504,33.0708661 L45.144357,33.0183727 L45.0918635,32.9658793 L45.0393701,32.9133858 L44.9868766,32.9133858 L44.9343832,32.9133858 L44.8818898,32.9133858 L42.0997375,32.9133858 L42.0997375,32.9133858 Z M40.7874016,32.808399 L40.6299213,33.1233596 L40.4199475,33.4383202 L40.2099738,33.7532808 L39.9475066,34.015748 L39.8950131,34.0682415 L39.8950131,34.1207349 L39.8950131,34.1732283 L39.8950131,34.2257218 L39.8950131,34.2782152 L39.8950131,34.3307087 L39.9475066,34.3832021 L40,34.4356955 L40.2099738,34.5406824 L40.4199475,34.4356955 L40.6824147,34.1207349 L40.8923885,33.8057743 L41.1023622,33.4383202 L41.312336,33.0708661 L41.3648294,32.808399 L41.2073491,32.5984252 L40.9448819,32.5984252 L40.7874016,32.808399 L40.7874016,32.808399 Z M40.3674541,36.0629921 L40.5249344,35.8530184 L40.5249344,37.9002625 L40.5249344,37.9527559 L40.5249344,38.0052493 L40.5249344,38.0577428 L40.5774278,38.1102362 L40.6299213,38.1627297 L40.6824147,38.2152231 L40.7349081,38.2152231 L40.7874016,38.2152231 L40.839895,38.2152231 L40.8923885,38.2152231 L40.9448819,38.1627297 L40.9973753,38.1102362 L41.0498688,38.0577428 L41.0498688,38.0052493 L41.0498688,37.9527559 L41.0498688,37.9002625 L41.0498688,35.0131234 L41.2073491,34.7506562 C41.312336,34.5931759 41.312336,34.488189 41.312336,34.2782152 L41.1548556,34.0682415 L40.8923885,34.0682415 L40.7349081,34.2257218 L40.6299213,34.4356955 L40.5249344,34.5931759 L40.4199475,34.7506562 L40.3149606,34.9081365 L40.1049869,35.2230971 L39.8425197,35.5380577 L39.7375328,35.7480315 L39.8425197,35.9580052 L40.0524934,36.0629921 L40.3674541,36.0629921 L40.3674541,36.0629921 Z M41.5223097,34.488189 L41.5223097,34.5931759 L41.5223097,34.6456693 L41.5748031,34.6981627 L41.6272966,34.7506562 L41.67979,34.8031496 L41.7322835,34.8031496 L41.7847769,34.8031496 L41.8372703,34.8031496 L43.9370079,34.8031496 L43.9370079,37.1128609 L43.9370079,37.2178478 L43.9370079,37.2703412 L43.9370079,37.3228346 C43.9370079,37.3228346 43.9370079,37.3753281 43.8845144,37.3753281 C43.8845144,37.3753281 43.8845144,37.3753281 43.832021,37.4278215 L43.7795276,37.4278215 L43.7270341,37.4278215 L43.6220472,37.4278215 L43.4645669,37.4278215 L43.2020997,37.3753281 L42.6246719,37.2178478 L42.519685,37.2178478 L42.4671916,37.2178478 L42.4146982,37.2178478 L42.3622047,37.2178478 L42.2047244,37.3753281 L42.2047244,37.6377953 L42.4146982,37.7952756 L42.6771654,37.847769 L42.9396325,37.9002625 L43.1496063,37.9527559 L43.3595801,38.0052493 L43.5695538,38.0052493 L43.7270341,38.0052493 L43.8845144,38.0052493 L43.9895013,37.9527559 L44.0944882,37.9002625 L44.1994751,37.847769 L44.3044619,37.7427822 L44.3569554,37.6377953 L44.4094488,37.5328084 L44.4619423,37.3753281 L44.4619423,37.2178478 L44.4619423,37.0603675 L44.4619423,34.6981627 L45.0393701,34.6981627 L45.0918635,34.6981627 L45.144357,34.6981627 L45.1968504,34.6981627 L45.2493438,34.6456693 L45.3018373,34.5931759 L45.3543307,34.5406824 L45.3543307,34.488189 L45.3543307,34.4356955 L45.3543307,34.3832021 L45.3543307,34.3307087 L45.3018373,34.2782152 L45.2493438,34.2257218 L45.1968504,34.1732283 L45.144357,34.1732283 L45.0918635,34.1732283 L45.0393701,34.1732283 L41.7322835,34.1732283 L41.67979,34.1732283 L41.6272966,34.1732283 L41.5748031,34.1732283 L41.5223097,34.2257218 L41.4698163,34.2782152 L41.4173228,34.3307087 L41.5223097,34.488189 L41.5223097,34.488189 Z M23.0971129,33.4908136 L23.6220472,33.4908136 L23.4120735,34.5406824 L23.4120735,34.7506562 L23.4120735,34.855643 C23.4120735,34.9081365 23.4120735,34.9606299 23.4645669,35.0131234 C23.4645669,35.0656168 23.5170604,35.1181102 23.5170604,35.1706037 C23.5695538,35.2755906 23.6220472,35.3805774 23.6745407,35.5380577 L23.7270341,35.6955381 L23.7795276,35.9580052 L23.7795276,36.1154856 L23.7795276,36.2204724 L23.7795276,36.2729659 L23.7795276,36.3254593 C23.7795276,36.3254593 23.7795276,36.3779528 23.7270341,36.3779528 L23.6745407,36.4304462 L23.6220472,36.4304462 L23.6220472,36.4304462 L23.4120735,36.3779528 L23.3595801,36.3779528 L23.3070866,36.3779528 L23.1496063,36.4304462 L23.0971129,33.4908136 L23.0971129,33.4908136 Z M26.9816273,34.5931759 L26.9816273,34.488189 L26.9816273,34.3307087 L27.3490814,34.5406824 L27.6115486,34.5406824 L27.8215223,34.3832021 L27.8215223,34.1207349 L27.664042,33.9632546 L27.4015748,33.8582677 L27.191601,33.7532808 L26.9816273,33.648294 L26.7716535,33.5433071 L26.6141732,33.3858268 L26.4566929,33.2283465 L26.2992126,33.0708661 L26.0892388,32.808399 L25.984252,32.7559055 L25.8792651,32.7034121 L25.7742782,32.7034121 L25.6692913,32.7034121 L25.5643045,32.7559055 L25.4593176,32.808399 C25.3543307,32.9133858 25.2493438,33.0708661 25.144357,33.175853 L25.0918635,33.2283465 L24.9343832,33.3858268 L24.7769029,33.5433071 L24.6194226,33.7007874 L24.4619423,33.8582677 L23.9895013,34.1732283 L24.0944882,33.648294 L24.0944882,33.648294 L24.0944882,33.4383202 L24.0944882,33.2808399 L24.0944882,33.175853 L24.0944882,33.1233596 L24.0944882,33.0708661 L24.0419948,33.0183727 L23.9895013,32.9658793 L23.9370079,32.9658793 L23.832021,32.9133858 L23.7270341,32.9133858 L22.8346457,32.9133858 L22.7296588,32.9133858 L22.6246719,32.9133858 L22.519685,32.9658793 L22.4671916,33.0183727 L22.4146982,33.0708661 L22.3622047,33.1233596 L22.3622047,33.2283465 L22.3622047,33.3333333 L22.3622047,37.9527559 L22.3622047,38.0052493 L22.3622047,38.0577428 L22.4146982,38.1102362 L22.4671916,38.1627297 L22.519685,38.2152231 L22.5721785,38.2152231 L22.6246719,38.2152231 L22.6771654,38.2152231 L22.7296588,38.2152231 L22.7821522,38.2152231 L22.8346457,38.2152231 L22.8871391,38.1627297 L22.9396325,38.1102362 L22.9396325,38.0577428 L22.9396325,38.0052493 L22.9396325,37.9527559 L22.9396325,36.8503937 L23.0971129,36.9028871 C23.1496063,36.9028871 23.2020997,36.9028871 23.2020997,36.9553806 L23.4120735,36.9553806 L23.5170604,36.9553806 L23.6220472,36.9553806 L23.6745407,36.9553806 L23.7270341,36.9553806 L23.7795276,36.9028871 L23.832021,36.8503937 L23.8845144,36.7979003 L23.9370079,36.7454068 L23.9895013,36.6929134 L24.0419948,36.6404199 L24.0944882,36.5879265 L24.0944882,36.5354331 L24.0944882,36.4829396 L24.0944882,36.3254593 L24.0944882,36.2204724 L24.0944882,36.1154856 C24.0944882,36.0629921 24.0944882,35.9580052 24.0419948,35.9055118 C24.0419948,35.8005249 23.9895013,35.6955381 23.9895013,35.6430446 L23.8845144,35.3805774 L23.7270341,35.0131234 L23.7270341,34.9081365 L23.7270341,34.6456693 L23.8845144,34.7506562 L23.9370079,34.7506562 L23.9895013,34.7506562 L24.0419948,34.7506562 L24.0944882,34.7506562 L24.1469816,34.7506562 L24.1994751,34.6981627 L24.4094488,34.5406824 L24.4094488,34.6981627 C24.4094488,34.7506562 24.4094488,34.7506562 24.4619423,34.8031496 L24.5144357,34.855643 L24.5669291,34.9081365 L24.6194226,34.9081365 L24.671916,34.9081365 L24.7244094,34.9081365 L25.3543307,34.9081365 L25.1968504,35.0656168 L25.144357,35.1181102 L25.144357,35.1706037 L25.144357,35.2230971 L25.144357,35.2755906 L25.144357,35.328084 C25.1968504,35.4855643 25.2493438,35.6955381 25.3018373,35.9055118 C25.3543307,36.1154856 25.3543307,36.2729659 25.4068241,36.4829396 L25.4593176,36.9028871 L25.4593176,36.9553806 L25.4593176,37.007874 L25.511811,37.0603675 L25.5643045,37.1128609 L25.6167979,37.1653543 L25.6692913,37.1653543 L25.7217848,37.1653543 L25.7742782,37.1653543 L25.8267717,37.1653543 L25.984252,37.1128609 L25.984252,37.2703412 L25.984252,37.3228346 L25.984252,37.3753281 L26.0367454,37.5328084 L24.9868766,37.5328084 L25.1968504,37.3228346 L25.2493438,37.2703412 L25.2493438,37.2178478 L25.2493438,37.1653543 L25.2493438,37.1128609 C25.2493438,37.0603675 25.2493438,37.007874 25.1968504,36.9553806 C25.1968504,36.8503937 25.144357,36.7454068 25.144357,36.6404199 L25.0918635,36.4304462 L25.0393701,36.2204724 L24.9343832,36.0104987 L24.7244094,35.5905512 L24.6194226,35.3805774 L24.5669291,35.328084 L24.5144357,35.2755906 L24.4619423,35.2230971 L24.4094488,35.1706037 L24.3569554,35.1706037 L24.3044619,35.1706037 L24.2519685,35.1706037 L24.1994751,35.1706037 L24.1469816,35.2230971 L24.0944882,35.2755906 L24.0419948,35.328084 L24.0419948,35.3805774 L24.0419948,35.4330709 C24.0419948,35.6430446 24.1994751,35.8005249 24.2519685,36.0104987 L24.4094488,36.4304462 L24.5144357,36.7979003 L24.6194226,37.1653543 L24.6194226,37.2178478 L24.671916,37.2703412 L24.7244094,37.3228346 L24.9343832,37.5328084 L24.0944882,37.5328084 L24.0419948,37.5328084 L23.9895013,37.5328084 L23.9370079,37.5328084 L23.8845144,37.5853018 L23.832021,37.6377953 L23.832021,37.6902887 L23.832021,37.7427822 L23.832021,37.7952756 L23.832021,37.847769 L23.832021,37.9002625 L23.832021,37.9527559 L23.8845144,38.0052493 L23.9370079,38.0577428 L23.9895013,38.0577428 L24.0419948,38.0577428 L24.0944882,38.0577428 L27.191601,38.0577428 L27.2440945,38.0577428 L27.2965879,38.0577428 L27.3490814,38.0577428 L27.4015748,38.0052493 L27.4540682,37.9527559 L27.4540682,37.9002625 L27.4540682,37.847769 L27.4540682,37.7952756 L27.4540682,37.7427822 L27.4540682,37.6902887 L27.4540682,37.6377953 L27.4015748,37.5853018 L27.3490814,37.5328084 L27.2965879,37.5328084 L27.2440945,37.5328084 L27.191601,37.5328084 L26.4041995,37.5328084 C26.4566929,37.480315 26.4566929,37.4278215 26.5091864,37.3228346 L26.5091864,37.3228346 L26.6666667,36.8503937 L26.7191601,36.5879265 L26.7716535,36.3254593 L26.824147,36.0629921 L26.8766404,35.8005249 L26.9291339,35.5380577 L26.9816273,35.2755906 L26.9816273,35.2230971 L26.9816273,35.1706037 L26.9816273,35.1181102 L26.9816273,35.0656168 L26.9291339,35.0131234 L26.8766404,34.9606299 L26.824147,34.9081365 L26.7716535,34.9081365 L26.6141732,34.9081365 L26.5091864,35.0131234 C26.5091864,35.0656168 26.4566929,35.0656168 26.4566929,35.1181102 L26.4041995,35.4855643 L26.2992126,36.0104987 L26.2467192,36.2729659 L26.0367454,37.1128609 C25.984252,36.9028871 25.984252,36.6404199 25.9317585,36.4304462 C25.9317585,36.2729659 25.8792651,36.1154856 25.8792651,36.0104987 L25.7742782,35.5905512 L25.6692913,35.2230971 L25.6692913,35.1706037 L25.511811,34.9081365 L26.6666667,34.9081365 L26.9816273,34.5931759 L26.9816273,34.5931759 L26.9816273,34.5931759 Z M25.0393701,34.1732283 L25.2493438,33.9632546 L25.3543307,33.8582677 L25.4593176,33.7532808 L25.6167979,33.4908136 L25.6692913,33.4383202 L25.7742782,33.3333333 L25.9317585,33.4908136 L26.0367454,33.5958005 L26.1417323,33.7007874 C26.1942257,33.7532808 26.2992126,33.8057743 26.351706,33.8582677 C26.4566929,33.9632546 26.5616798,34.015748 26.7191601,34.1207349 L25.0393701,34.1207349 L25.0393701,34.1732283 Z M17.6377953,34.1732283 L17.6377953,33.3858268 L17.6377953,33.3333333 L17.6377953,33.3333333 L17.6377953,33.3333333 L17.6902887,33.3333333 L17.7427822,33.3333333 L20.2099738,33.3333333 L20.2624672,33.3333333 L20.2624672,33.3333333 L20.2624672,33.3858268 L20.2624672,34.2257218 L20.1574803,34.2782152 L17.6902887,34.2782152 C17.6902887,34.2782152 17.6902887,34.2782152 17.6377953,34.2782152 L17.6377953,34.1732283 L17.6377953,34.1732283 L17.6377953,34.1732283 L17.6377953,34.1732283 Z M16.6929134,35.7480315 L16.9028871,35.8530184 L16.9553806,35.8530184 L17.007874,35.8530184 L18.4776903,35.8530184 L18.2677165,36.0629921 L18.1102362,36.2204724 L17.9002625,36.3779528 L17.6902887,36.5354331 L17.4278215,36.6929134 L17.1128609,36.8503937 L16.6929134,37.1128609 L16.6929134,35.7480315 L16.6929134,35.7480315 Z M17.0603675,33.1233596 L17.0603675,34.4356955 L17.0603675,34.5406824 L17.1128609,34.6456693 L17.1653543,34.6981627 L17.2178478,34.7506562 L17.2703412,34.8031496 L17.3228346,34.855643 L17.4278215,34.855643 L17.5328084,34.855643 L18.687664,34.855643 L18.687664,35.328084 L17.0603675,35.328084 L17.007874,35.328084 C16.9553806,35.328084 16.9553806,35.328084 16.9028871,35.3805774 L16.7454068,35.5380577 L16.7454068,34.1207349 C16.7979003,34.015748 16.8503937,33.9107612 16.8503937,33.7532808 L17.0603675,33.1233596 L17.0603675,33.1233596 Z M19.6325459,36.167979 L19.4225722,35.9055118 L21.0498688,35.9055118 L21.1023622,35.9055118 L21.1548556,35.9055118 L21.2073491,35.9055118 L21.2598425,35.8530184 L21.312336,35.8005249 L21.312336,35.7480315 L21.312336,35.6955381 L21.312336,35.6430446 L21.312336,35.5905512 L21.312336,35.5380577 L21.312336,35.4855643 L21.2598425,35.4330709 L21.2073491,35.3805774 L21.1548556,35.328084 L21.1023622,35.328084 L21.0498688,35.328084 L19.2650919,35.328084 L19.2650919,34.855643 L20.4724409,34.855643 L20.5774278,34.855643 L20.6824147,34.8031496 L20.7349081,34.7506562 L20.7874016,34.6981627 L20.839895,34.6456693 L20.8923885,34.5931759 L20.8923885,34.488189 L20.8923885,34.3832021 L20.8923885,33.175853 L20.8923885,33.0708661 L20.8923885,32.9658793 L20.839895,32.9133858 L20.7874016,32.8608924 L20.7349081,32.808399 L20.6824147,32.7559055 L20.5774278,32.7559055 L20.4724409,32.7559055 L17.5328084,32.7559055 L17.4278215,32.7559055 L17.3228346,32.7559055 L17.2703412,32.808399 L17.2178478,32.8608924 L17.1128609,33.0183727 L17.0603675,32.808399 L17.0603675,32.7559055 L16.8503937,32.5984252 L16.7454068,32.5984252 L16.6929134,32.5984252 L16.6404199,32.6509186 L16.5879265,32.7034121 L16.5354331,32.7559055 L16.4829396,32.808399 L16.4304462,32.8608924 L16.4304462,32.9133858 L16.3779528,33.175853 L16.3254593,33.4383202 L16.2204724,33.7007874 L16.1154856,33.9632546 L16.0104987,34.1732283 L15.9055118,34.3832021 L15.7480315,34.5931759 L15.5905512,34.8031496 L15.5380577,34.855643 L15.5380577,34.9081365 L15.5380577,34.9606299 L15.5380577,35.0131234 L15.5380577,35.0656168 L15.5380577,35.1181102 L15.5905512,35.1706037 L15.6430446,35.2230971 L15.8530184,35.328084 L16.167979,35.1706037 L16.167979,37.7952756 L16.167979,37.847769 L16.167979,37.9002625 L16.167979,37.9527559 L16.2204724,38.0052493 L16.2729659,38.0577428 L16.3254593,38.1102362 L16.3779528,38.1102362 L16.4304462,38.1102362 L16.4829396,38.1102362 L16.5354331,38.1102362 L16.5879265,38.0577428 L16.6404199,38.0052493 L16.6929134,37.9527559 L16.6929134,37.9002625 L16.6929134,37.847769 L16.6929134,37.7952756 L16.6929134,37.5328084 L16.9028871,37.6377953 L16.9553806,37.6377953 L17.007874,37.6377953 L17.0603675,37.6377953 L17.1128609,37.6377953 L17.3753281,37.480315 L17.6377953,37.3228346 L17.9002625,37.1653543 L18.1102362,37.007874 L18.32021,36.8503937 L18.6351706,36.5354331 L18.6351706,37.9527559 L18.6351706,38.0052493 L18.6351706,38.0577428 L18.6351706,38.1102362 L18.687664,38.1627297 L18.7401575,38.2152231 L18.7926509,38.2152231 L18.8451444,38.2152231 L18.8976378,38.2152231 L18.9501312,38.2152231 L19.0026247,38.2152231 L19.0551181,38.2152231 L19.1076115,38.1627297 L19.160105,38.1102362 L19.160105,38.0577428 L19.160105,38.0052493 L19.160105,37.9527559 L19.160105,36.4829396 L19.3700787,36.7454068 L19.5800525,36.9553806 L19.7900262,37.1653543 L20.0524934,37.3228346 L20.3149606,37.480315 L20.5774278,37.6377953 L20.8923885,37.7952756 L21.1023622,37.7952756 L21.2598425,37.6377953 L21.312336,37.3753281 L21.1548556,37.2178478 L20.7874016,37.0603675 L20.4724409,36.9028871 L20.2099738,36.7454068 L19.9475066,36.5879265 L19.7375328,36.4304462 L19.6325459,36.167979 L19.6325459,36.167979 Z M48.5564304,35.3805774 L48.5564304,35.2755906 L48.503937,35.1706037 L48.4514436,35.1181102 L48.3989501,35.0656168 L48.3464567,35.0131234 L48.2939633,34.9606299 L48.1889764,34.9081365 L48.0839895,34.9081365 L47.9790026,34.9081365 L47.8740157,34.9606299 L47.8215223,35.0131234 L47.7690289,35.0656168 L47.7165354,35.1181102 L47.664042,35.1706037 L47.6115486,35.2755906 L47.6115486,35.3805774 L47.6115486,35.4855643 L47.664042,35.5905512 L47.7165354,35.6430446 L47.7690289,35.6955381 L47.8215223,35.7480315 L47.8740157,35.8005249 L47.9790026,35.8005249 L48.0839895,35.8005249 L48.1889764,35.8005249 L48.2939633,35.8005249 L48.3464567,35.7480315 L48.3989501,35.6955381 L48.4514436,35.6430446 L48.503937,35.5905512 L48.5564304,35.4855643 L48.5564304,35.3805774 L48.5564304,35.3805774 Z M31.023622,35.3805774 L31.023622,35.2755906 L31.023622,35.1706037 L30.9711286,35.1181102 L30.9186352,35.0656168 L30.8661417,35.0131234 L30.8136483,34.9606299 L30.7086614,34.9081365 L30.6036745,34.9081365 L30.4986877,34.9081365 L30.3937008,34.9606299 L30.3412073,35.0131234 L30.2887139,35.0656168 L30.2362205,35.1181102 L30.183727,35.2230971 L30.183727,35.328084 L30.183727,35.4330709 L30.183727,35.5380577 L30.183727,35.6430446 L30.2362205,35.6955381 L30.2887139,35.7480315 L30.3412073,35.8005249 L30.3937008,35.8530184 L30.4986877,35.8530184 L30.6036745,35.8530184 L30.7086614,35.8530184 L30.8136483,35.8530184 L30.8661417,35.8005249 L30.9186352,35.7480315 L30.9711286,35.6955381 L31.023622,35.6430446 L31.023622,35.5380577 L31.023622,35.3805774 L31.023622,35.3805774 Z"></path>
                            <path d="M75.5905512,26.6141732 C75.5905512,28.2939633 74.2257218,29.7112861 72.4934383,29.7112861 L5.56430446,29.7112861 C3.88451444,29.7112861 2.4671916,28.3464567 2.4671916,26.6141732 L2.4671916,5.6167979 C2.4671916,3.88451444 3.832021,2.51968504 5.56430446,2.51968504 L72.5459318,2.51968504 C74.2257218,2.51968504 75.6430446,3.88451444 75.6430446,5.6167979 L75.6430446,26.6141732 L75.5905512,26.6141732 Z M36.0629921,16.9553806 L34.5931759,16.9553806 L34.5931759,17.5328084 L33.1233596,17.5328084 L33.1233596,16.2729659 L35.5905512,16.2729659 L35.5905512,15.0656168 L33.1233596,15.0656168 L33.1233596,14.1732283 L36.0104987,14.1732283 L36.0104987,12.8608924 L28.3464567,12.8608924 L28.3464567,14.1732283 L31.2335958,14.1732283 L31.2335958,15.0656168 L28.7664042,15.0656168 L28.7664042,16.2729659 L31.2335958,16.2729659 L31.2335958,17.5328084 L28.3464567,17.5328084 L28.3464567,18.8451444 L36.0629921,18.8451444 L36.0629921,16.9553806 L36.0629921,16.9553806 Z M21.9947507,11.7060367 L17.6902887,11.7060367 L17.6902887,10.3937008 C17.6902887,10.2362205 17.5853018,10.1312336 17.4278215,10.1312336 L15.6955381,10.1312336 C15.5380577,10.1312336 15.4330709,10.2362205 15.4330709,10.3937008 L15.4330709,11.7060367 L11.1286089,11.7060367 C10.3412073,11.7060367 9.71128609,12.335958 9.71128609,13.175853 L9.71128609,17.9002625 C9.71128609,18.687664 10.3412073,19.3175853 11.1286089,19.3175853 L15.4330709,19.3175853 L15.4330709,21.3648294 C15.4330709,21.5223097 15.5380577,21.6272966 15.6955381,21.6272966 L17.4278215,21.6272966 C17.5853018,21.6272966 17.6902887,21.5223097 17.6902887,21.3648294 L17.6902887,19.3175853 L21.9947507,19.3175853 C22.7821522,19.3175853 23.4645669,18.687664 23.4645669,17.9002625 L23.4645669,13.175853 C23.4645669,12.3884514 22.7821522,11.7060367 21.9947507,11.7060367 L21.9947507,11.7060367 Z M15.4330709,17.7427822 L11.7060367,17.7427822 L11.7060367,13.3333333 L15.4330709,13.3333333 L15.4330709,17.7427822 L15.4330709,17.7427822 Z M21.4173228,17.7427822 L17.6902887,17.7427822 L17.6902887,13.3333333 L21.4173228,13.3333333 L21.4173228,17.7427822 L21.4173228,17.7427822 Z M55.4855643,13.3333333 L56.6404199,13.3333333 C56.7979003,13.3333333 56.9028871,13.2283465 56.9028871,13.0708661 L56.9028871,12.335958 L67.0341207,12.335958 L67.0341207,13.0708661 C67.0341207,13.2283465 67.1391076,13.3333333 67.2965879,13.3333333 L68.4514436,13.3333333 C68.6089239,13.3333333 68.7139108,13.2283465 68.7139108,13.0708661 L68.7139108,12.2309711 C68.7139108,11.5485564 68.1364829,10.9711286 67.4540682,10.9711286 L62.992126,10.9711286 L62.992126,10.3937008 C62.992126,10.2362205 62.8871391,10.1312336 62.7296588,10.1312336 L61.1023622,10.1312336 C60.9448819,10.1312336 60.839895,10.2362205 60.839895,10.3937008 L60.839895,10.9711286 L56.4829396,10.9711286 C55.8005249,10.9711286 55.2230971,11.5485564 55.2230971,12.2309711 L55.2230971,13.0708661 C55.2230971,13.2283465 55.328084,13.3333333 55.4855643,13.3333333 L55.4855643,13.3333333 Z M51.023622,13.175853 C50.8136483,13.175853 50.656168,13.2808399 50.6036745,13.3858268 L48.9238845,16.5879265 C48.8713911,16.6929134 48.9238845,16.7979003 49.0813648,16.7979003 L50.7611549,16.7979003 C50.9711286,16.7979003 51.1286089,16.6929134 51.1811024,16.5879265 L52.808399,13.3858268 C52.8608924,13.2808399 52.808399,13.175853 52.6509186,13.175853 L51.023622,13.175853 L51.023622,13.175853 Z M37.5328084,10.5511811 L26.8766404,10.5511811 C26.0892388,10.5511811 25.4593176,11.1811024 25.4593176,11.9685039 L25.4593176,19.7900262 C25.4593176,20.5774278 26.0892388,21.2073491 26.8766404,21.2073491 L37.5328084,21.2073491 C38.32021,21.2073491 38.9501312,20.5774278 38.9501312,19.7900262 L38.9501312,11.9685039 C38.9501312,11.1811024 38.32021,10.5511811 37.5328084,10.5511811 L37.5328084,10.5511811 Z M37.007874,19.7375328 L27.2965879,19.7375328 L27.2965879,11.9685039 L37.007874,11.9685039 L37.007874,19.7375328 L37.007874,19.7375328 Z M68.4514436,14.3832021 L66.351706,14.3832021 L66.351706,13.4908136 C66.351706,13.3333333 66.2467192,13.2283465 66.0892388,13.2283465 L64.671916,13.2283465 C64.5144357,13.2283465 64.4094488,13.3333333 64.4094488,13.4908136 L64.4094488,14.3832021 L59.4750656,14.3832021 L59.4750656,13.4908136 C59.4750656,13.3333333 59.3700787,13.2283465 59.2125984,13.2283465 L57.7427822,13.2283465 C57.5853018,13.2283465 57.480315,13.3333333 57.480315,13.4908136 L57.480315,14.3832021 L55.3805774,14.3832021 C55.2230971,14.3832021 55.1181102,14.488189 55.1181102,14.6456693 L55.1181102,15.6955381 C55.1181102,15.8530184 55.2230971,15.9580052 55.3805774,15.9580052 L57.480315,15.9580052 L57.480315,16.6404199 C57.480315,17.4278215 57.847769,18.1627297 58.7926509,18.6351706 C59.160105,18.7926509 59.5800525,19.0026247 60.0524934,19.2650919 C59.2125984,19.6325459 58.4776903,19.7900262 57.6902887,19.7900262 L55.6955381,19.7900262 C55.5380577,19.7900262 55.4330709,19.8950131 55.4330709,20.0524934 L55.4330709,21.1023622 C55.4330709,21.2598425 55.5380577,21.3648294 55.6955381,21.3648294 L57.6902887,21.3648294 C58.4776903,21.3648294 59.4225722,21.2073491 60.2624672,20.8923885 C60.5774278,20.7874016 61.2073491,20.4724409 61.9422572,20.1574803 C62.6771654,20.4724409 63.3070866,20.7874016 63.6220472,20.8923885 C64.4619423,21.2073491 65.4068241,21.3648294 66.1942257,21.3648294 L68.1889764,21.3648294 C68.3464567,21.3648294 68.4514436,21.2598425 68.4514436,21.1023622 L68.4514436,20.0524934 C68.4514436,19.8950131 68.3464567,19.7900262 68.1889764,19.7900262 L66.1417323,19.7900262 C65.3543307,19.7900262 64.6194226,19.6325459 63.7795276,19.2650919 C64.2519685,19.0551181 64.7244094,18.8451444 65.0393701,18.6351706 C65.984252,18.1627297 66.351706,17.4278215 66.351706,16.6404199 L66.351706,15.9580052 L68.4514436,15.9580052 C68.6089239,15.9580052 68.7139108,15.8530184 68.7139108,15.6955381 L68.7139108,14.6456693 C68.7139108,14.5406824 68.6089239,14.3832021 68.4514436,14.3832021 L68.4514436,14.3832021 Z M64.4094488,16.4304462 C64.4094488,16.8503937 64.3044619,17.2178478 63.7795276,17.480315 C63.3595801,17.6902887 62.6246719,18.0577428 61.9422572,18.3727034 C61.2598425,18.0577428 60.5249344,17.6902887 60.1049869,17.480315 C59.5275591,17.2178478 59.4750656,16.8503937 59.4750656,16.4304462 L59.4750656,15.9580052 L64.4094488,15.9580052 L64.4094488,16.4304462 L64.4094488,16.4304462 Z M43.6220472,16.8503937 L45.3018373,16.8503937 C45.4068241,16.8503937 45.511811,16.7454068 45.4593176,16.6404199 L43.832021,13.4383202 C43.7795276,13.3333333 43.6220472,13.2283465 43.4120735,13.2283465 L41.7322835,13.2283465 C41.6272966,13.2283465 41.5223097,13.3333333 41.5748031,13.4383202 L43.2020997,16.6404199 C43.2545932,16.7454068 43.4120735,16.8503937 43.6220472,16.8503937 L43.6220472,16.8503937 Z M53.648294,17.6902887 L48.2414698,17.6902887 L48.2414698,12.335958 L53.175853,12.335958 C53.3333333,12.335958 53.4383202,12.2309711 53.4383202,12.0734908 L53.4383202,11.023622 C53.4383202,10.8661417 53.3333333,10.7611549 53.175853,10.7611549 L41.1548556,10.7611549 C40.9973753,10.7611549 40.8923885,10.8661417 40.8923885,11.023622 L40.8923885,12.0734908 C40.8923885,12.2309711 40.9973753,12.335958 41.1548556,12.335958 L46.0892388,12.335958 L46.0892388,17.6902887 L40.6824147,17.6902887 C40.5249344,17.6902887 40.4199475,17.7952756 40.4199475,17.9527559 L40.4199475,19.0551181 C40.4199475,19.2125984 40.5249344,19.3175853 40.6824147,19.3175853 L46.0892388,19.3175853 L46.0892388,21.3648294 C46.0892388,21.5223097 46.1942257,21.6272966 46.351706,21.6272966 L47.9790026,21.6272966 C48.1364829,21.6272966 48.2414698,21.5223097 48.2414698,21.3648294 L48.2414698,19.3175853 L53.648294,19.3175853 C53.8057743,19.3175853 53.9107612,19.2125984 53.9107612,19.0551181 L53.9107612,17.9527559 C53.9107612,17.7952756 53.8057743,17.6902887 53.648294,17.6902887 L53.648294,17.6902887 Z"></path>
                            <path d="M72.4934383,0.997375328 L5.56430446,0.997375328 C2.99212598,0.997375328 0.94488189,3.04461942 0.94488189,5.6167979 L0.94488189,36.4304462 C0.94488189,39.0026247 3.04461942,41.0498688 5.56430446,41.0498688 L72.5459318,41.0498688 C75.1181102,41.0498688 77.1653543,39.0026247 77.1653543,36.4304462 L77.1653543,5.6167979 C77.1653543,3.04461942 75.0656168,0.997375328 72.4934383,0.997375328 L72.4934383,0.997375328 Z M72.5459318,0.157480315 L5.51181102,0.157480315 L4.98687664,0.209973753 L4.46194226,0.31496063 L3.93700787,0.472440945 L3.41207349,0.682414698 L2.93963255,0.892388451 L2.4671916,1.15485564 L2.04724409,1.46981627 L1.67979003,1.83727034 L1.31233596,2.20472441 L0.997375328,2.62467192 L0.734908136,3.09711286 L0.524934383,3.56955381 L0.367454068,4.09448819 L0.209973753,4.61942257 L0.104986877,5.14435696 L0.0524934383,5.66929134 L0.0524934383,36.5354331 L0.104986877,37.0603675 L0.209973753,37.5853018 L0.367454068,38.1102362 L0.524934383,38.6351706 L0.734908136,39.1076115 L0.997375328,39.5800525 L1.31233596,40 L1.67979003,40.3674541 L2.04724409,40.7349081 L2.4671916,41.0498688 L2.93963255,41.312336 L3.41207349,41.5223097 L3.93700787,41.7322835 L4.46194226,41.8897638 L4.98687664,41.9947507 L5.51181102,42.0472441 L72.4934383,42.0472441 L73.0183727,41.9947507 L73.5433071,41.8897638 L74.0682415,41.7322835 L74.5931759,41.5223097 L75.0656168,41.312336 L75.5380577,41.0498688 L75.9580052,40.7349081 L76.3254593,40.3674541 L76.6929134,40 L77.007874,39.5800525 L77.2703412,39.1076115 L77.480315,38.6351706 L77.6377953,38.1102362 L77.7952756,37.5853018 L77.9002625,37.0603675 L77.9527559,36.5354331 L77.9527559,5.66929134 L77.9002625,5.14435696 L77.7952756,4.61942257 L77.6377953,4.09448819 L77.480315,3.56955381 L77.2703412,3.09711286 L77.007874,2.62467192 L76.6929134,2.20472441 L76.3254593,1.83727034 L75.9580052,1.46981627 L75.5380577,1.15485564 L75.0656168,0.892388451 L74.5931759,0.682414698 L74.0682415,0.472440945 L73.5433071,0.31496063 L73.0183727,0.209973753 L72.5459318,0.157480315 L72.5459318,0.157480315 Z"></path>
                        </g>
                        <g transform="translate(81.889764, 0.524934)" id="Shape" fill="#EA5504">
                            <path d="M101.627297,4.72440945 C101.312336,4.72440945 101.102362,4.46194226 101.102362,4.19947507 L101.102362,1.99475066 C101.102362,1.67979003 101.364829,1.46981627 101.627297,1.46981627 L116.272966,1.46981627 C116.587927,1.46981627 116.850394,1.73228346 116.850394,1.99475066 L116.850394,4.19947507 C116.850394,4.5144357 116.587927,4.72440945 116.272966,4.72440945 L101.627297,4.72440945 L101.627297,4.72440945 Z M100.734908,11.7060367 C100.419948,11.7060367 100.209974,11.4435696 100.209974,11.1811024 L100.209974,8.92388451 C100.209974,8.66141732 100.472441,8.39895013 100.734908,8.39895013 L117.112861,8.39895013 C117.427822,8.39895013 117.637795,8.66141732 117.637795,8.92388451 L117.637795,11.1286089 C117.637795,11.4435696 117.375328,11.6535433 117.112861,11.6535433 L114.225722,11.6535433 L114.225722,21.0498688 C114.225722,22.2047244 113.28084,23.0971129 112.125984,23.0971129 L104.199475,23.0971129 C103.884514,23.0971129 103.674541,22.8346457 103.674541,22.5721785 L103.674541,20.6299213 C103.674541,20.3149606 103.937008,20.1049869 104.199475,20.1049869 L110.183727,20.1049869 L110.183727,11.6535433 L100.734908,11.6535433 L100.734908,11.7060367 Z M90.2887139,14.5931759 C90.0262467,14.5931759 89.8687664,14.488189 89.8687664,14.3307087 C89.8687664,14.2782152 89.8687664,14.2257218 89.9737533,14.1732283 L94.3832021,8.66141732 C94.6981627,8.24146982 94.8031496,8.18897638 95.1181102,8.18897638 L98.5826772,8.18897638 C98.7401575,8.18897638 98.8976378,8.29396325 98.8976378,8.45144357 C98.8976378,8.55643045 98.8451444,8.60892388 98.7926509,8.71391076 L95.1706037,13.2283465 L96.7979003,13.2283465 L96.7979003,22.6246719 C96.7979003,22.8871391 96.5354331,23.1496063 96.2729659,23.1496063 L93.4383202,23.1496063 C93.1233596,23.1496063 92.8608924,22.8871391 92.8608924,22.6246719 L92.8608924,14.5931759 L90.2887139,14.5931759 L90.2887139,14.5931759 Z M90.2887139,7.55905512 C90.0262467,7.55905512 89.8687664,7.45406824 89.8687664,7.29658793 L89.9212598,7.13910761 L94.3832021,1.62729659 C94.6981627,1.20734908 94.8031496,1.15485564 95.1181102,1.15485564 L98.5826772,1.15485564 C98.7401575,1.15485564 98.8976378,1.25984252 98.8976378,1.41732283 C98.8976378,1.52230971 98.8451444,1.62729659 98.7926509,1.73228346 L94.2782152,7.34908136 C94.1207349,7.50656168 94.015748,7.61154856 93.648294,7.61154856 L90.2887139,7.61154856 L90.2887139,7.55905512 Z"></path>
                            <path d="M83.3595801,14.855643 C83.6745407,14.488189 83.832021,14.3832021 84.0944882,14.3832021 L86.7191601,14.3832021 C87.0341207,14.3832021 87.191601,14.4356955 87.191601,14.6456693 C87.191601,14.7506562 87.0866142,14.855643 86.9291339,15.0656168 L83.5170604,19.0026247 L83.7795276,19.4225722 C84.1994751,20.1049869 84.2519685,20.1574803 84.4094488,20.3149606 C84.6194226,20.5249344 84.7244094,20.5774278 85.4593176,20.5774278 L86.8766404,20.5774278 C87.1391076,20.5774278 87.4015748,20.839895 87.4015748,21.1023622 L87.4015748,22.6246719 C87.4015748,22.8871391 87.1391076,23.1496063 86.8766404,23.1496063 L84.7769029,23.1496063 C82.9396325,23.1496063 81.9422572,22.6771654 81.2073491,21.5223097 L77.3753281,14.9606299 C77.3228346,14.8031496 77.2703412,14.6981627 77.2703412,14.6456693 C77.2703412,14.488189 77.3753281,14.3832021 77.5853018,14.3832021 L80.4199475,14.3832021 C80.839895,14.3832021 80.8923885,14.488189 81.2073491,14.9606299 L82.0997375,16.4829396 L83.3595801,14.855643 L83.3595801,14.855643 Z M75.4330709,8.71391076 L75.4330709,10.656168 L83.4645669,10.656168 L83.4645669,8.71391076 L75.4330709,8.71391076 L75.4330709,8.71391076 Z M83.4645669,4.14698163 L75.4330709,4.14698163 L75.4330709,6.08923885 L83.4645669,6.08923885 L83.4645669,4.14698163 L83.4645669,4.14698163 Z M75.4330709,20.5774278 L78.1102362,20.5774278 C78.4251969,20.5774278 78.687664,20.839895 78.687664,21.1023622 L78.687664,22.6246719 C78.687664,22.8871391 78.4251969,23.1496063 78.1102362,23.1496063 L74.1207349,23.1496063 C72.9658793,23.1496063 72.0209974,22.2047244 72.0209974,21.1023622 L72.0209974,3.46456693 C72.0209974,2.36220472 72.9658793,1.41732283 74.1207349,1.41732283 L84.7769029,1.41732283 C85.9317585,1.41732283 86.824147,2.36220472 86.824147,3.46456693 L86.824147,11.2335958 C86.824147,12.3884514 85.9317585,13.3333333 84.7769029,13.3333333 L75.3805774,13.3333333 L75.3805774,20.5774278 L75.4330709,20.5774278 Z M66.7716535,13.4908136 L70.0262467,13.4908136 C70.3412073,13.4908136 70.6036745,13.7532808 70.6036745,14.015748 L70.6036745,15.8530184 C70.6036745,16.167979 70.3412073,16.3779528 70.0262467,16.3779528 L66.7716535,16.3779528 L66.7716535,20.5249344 L69.343832,20.5249344 C69.6062992,20.5249344 69.8687664,20.7874016 69.8687664,21.0498688 L69.8687664,22.5721785 C69.8687664,22.8346457 69.6062992,23.0971129 69.343832,23.0971129 L65.3018373,23.0971129 C64.1994751,23.0971129 63.2545932,22.152231 63.2545932,21.0498688 L63.2545932,16.3254593 L60.6299213,16.3254593 C60.3149606,16.3254593 60.1049869,16.0629921 60.1049869,15.8005249 L60.1049869,13.9632546 C60.1049869,13.648294 60.3674541,13.4383202 60.6299213,13.4383202 L63.2545932,13.4383202 L63.2545932,11.023622 L60.6299213,11.023622 C60.3149606,11.023622 60.1049869,10.7611549 60.1049869,10.4986877 L60.1049869,8.66141732 C60.1049869,8.34645669 60.3674541,8.13648294 60.6299213,8.13648294 L70.0262467,8.13648294 C70.3412073,8.13648294 70.6036745,8.39895013 70.6036745,8.66141732 L70.6036745,10.4986877 C70.6036745,10.8136483 70.3412073,11.023622 70.0262467,11.023622 L66.7716535,11.023622 L66.7716535,13.4908136 L66.7716535,13.4908136 Z M70.0262467,2.99212598 C70.3412073,2.99212598 70.6036745,3.25459318 70.6036745,3.51706037 L70.6036745,5.35433071 C70.6036745,5.6167979 70.3412073,5.87926509 70.0262467,5.87926509 L63.9370079,5.87926509 L63.5170604,6.61417323 C63.2545932,7.08661417 63.2020997,7.13910761 62.7296588,7.13910761 L59.9475066,7.13910761 C59.5800525,7.13910761 59.4750656,7.08661417 59.4750656,6.92913386 C59.4750656,6.87664042 59.5275591,6.77165354 59.5800525,6.61417323 L62.3622047,1.62729659 C62.5721785,1.25984252 62.6771654,1.15485564 62.992126,1.15485564 L66.0367454,1.15485564 C66.351706,1.15485564 66.4566929,1.20734908 66.4566929,1.31233596 C66.4566929,1.41732283 66.4041995,1.46981627 66.351706,1.62729659 L65.6167979,2.93963255 L70.0262467,2.93963255 L70.0262467,2.99212598 Z"></path>
                            <path d="M38.2152231,12.9658793 C38.2152231,14.4356955 38.32021,14.5931759 40,15.3805774 L43.2020997,16.8503937 L46.4041995,15.3805774 C48.1364829,14.5406824 48.1889764,14.4356955 48.1889764,12.9658793 L48.1889764,11.9160105 L38.1627297,11.9160105 L38.1627297,12.9658793 L38.2152231,12.9658793 Z M41.1023622,0.94488189 C41.1023622,0.62992126 41.3648294,0.367454068 41.6272966,0.367454068 L44.7244094,0.367454068 C45.0393701,0.367454068 45.2493438,0.62992126 45.2493438,0.94488189 L45.2493438,2.04724409 L54.0682415,2.04724409 C55.4855643,2.04724409 56.6404199,3.20209974 56.6404199,4.61942257 L56.6404199,6.14173228 C56.6404199,6.45669291 56.3779528,6.66666667 56.1154856,6.66666667 L54.0682415,6.66666667 C53.7532808,6.66666667 53.5433071,6.40419948 53.5433071,6.14173228 L53.5433071,4.77690289 L33.0708661,4.77690289 L33.0708661,6.14173228 C33.0708661,6.45669291 32.808399,6.66666667 32.5459318,6.66666667 L30.4986877,6.66666667 C30.183727,6.66666667 29.9212598,6.40419948 29.9212598,6.14173228 L29.9212598,4.61942257 C29.9212598,3.20209974 31.1286089,2.04724409 32.5459318,2.04724409 L41.2073491,2.04724409 L41.2073491,0.94488189 L41.1023622,0.94488189 Z M30.183727,11.9160105 C29.8687664,11.9160105 29.6062992,11.6535433 29.6062992,11.3910761 L29.6062992,9.4488189 C29.6062992,9.13385827 29.8687664,8.92388451 30.183727,8.92388451 L34.3832021,8.92388451 L34.3832021,7.08661417 C34.3832021,6.77165354 34.6456693,6.56167979 34.9081365,6.56167979 L37.6377953,6.56167979 C37.9527559,6.56167979 38.2152231,6.82414698 38.2152231,7.08661417 L38.2152231,8.92388451 L48.2414698,8.92388451 L48.2414698,7.13910761 C48.2414698,6.82414698 48.503937,6.56167979 48.8188976,6.56167979 L51.5485564,6.56167979 C51.8635171,6.56167979 52.0734908,6.82414698 52.0734908,7.13910761 L52.0734908,8.92388451 L56.1154856,8.92388451 C56.4304462,8.92388451 56.6404199,9.18635171 56.6404199,9.4488189 L56.6404199,11.3910761 C56.6404199,11.7060367 56.3779528,11.9160105 56.1154856,11.9160105 L52.0734908,11.9160105 L52.0734908,13.0183727 C52.0734908,15.5380577 51.3385827,16.4304462 48.1364829,17.847769 L46.824147,18.4776903 L47.0866142,18.5826772 C48.7139108,19.3175853 49.9737533,19.6325459 51.3910761,19.5800525 L55.6430446,19.5800525 C55.9580052,19.5800525 56.167979,19.8425197 56.167979,20.1574803 L56.167979,22.0472441 C56.167979,22.3622047 55.9055118,22.5721785 55.6430446,22.5721785 L51.3910761,22.5721785 C49.1863517,22.519685 48.0314961,22.2572178 45.511811,21.1023622 L43.2545932,20.1049869 L40.9973753,21.1023622 C38.32021,22.3097113 37.480315,22.519685 35.1181102,22.5721785 L30.8661417,22.5721785 C30.5511811,22.5721785 30.3412073,22.3097113 30.3412073,22.0472441 L30.3412073,20.1574803 C30.3412073,19.8425197 30.6036745,19.5800525 30.8661417,19.5800525 L35.1181102,19.5800525 C36.4829396,19.5800525 38.0052493,19.2125984 39.4225722,18.5826772 L39.6850394,18.4776903 L38.32021,17.847769 C35.0656168,16.3254593 34.4356955,15.5905512 34.3832021,13.0183727 L34.3832021,11.9160105 L30.183727,11.9160105 L30.183727,11.9160105 Z"></path>
                            <path d="M21.6272966,6.35170604 L24.671916,6.35170604 C24.9343832,6.35170604 25.0393701,6.45669291 25.0393701,6.61417323 C25.0393701,6.66666667 24.9868766,6.82414698 24.8818898,7.03412073 L21.7322835,13.175853 C21.5223097,13.5958005 21.3648294,13.7007874 20.7349081,13.7007874 L17.6377953,13.7007874 C17.3753281,13.7007874 17.2703412,13.5958005 17.2703412,13.4383202 C17.2703412,13.3858268 17.2703412,13.3333333 17.4278215,13.0708661 L20.5774278,6.92913386 C20.7874016,6.50918635 20.9973753,6.35170604 21.6272966,6.35170604 L21.6272966,6.35170604 Z M10.0787402,13.0183727 C10.183727,13.2283465 10.2362205,13.3333333 10.2362205,13.3858268 C10.2362205,13.5433071 10.1312336,13.648294 9.8687664,13.648294 L6.77165354,13.648294 C6.14173228,13.648294 5.98425197,13.5433071 5.77427822,13.1233596 L2.62467192,6.9816273 C2.57217848,6.82414698 2.51968504,6.66666667 2.51968504,6.56167979 C2.51968504,6.40419948 2.62467192,6.2992126 2.88713911,6.2992126 L5.93175853,6.2992126 C6.56167979,6.2992126 6.7191601,6.40419948 6.92913386,6.82414698 L10.0787402,13.0183727 L10.0787402,13.0183727 Z M0.94488189,18.5826772 C0.62992126,18.5826772 0.367454068,18.32021 0.367454068,18.0052493 L0.367454068,16.0104987 C0.367454068,15.6955381 0.62992126,15.4330709 0.94488189,15.4330709 L11.6535433,15.4330709 L11.6535433,4.56692913 L1.7847769,4.56692913 C1.46981627,4.56692913 1.25984252,4.30446194 1.25984252,3.98950131 L1.25984252,2.09973753 C1.25984252,1.7847769 1.52230971,1.57480315 1.7847769,1.57480315 L25.7217848,1.57480315 C26.0367454,1.57480315 26.2467192,1.83727034 26.2467192,2.09973753 L26.2467192,3.98950131 C26.2467192,4.30446194 25.984252,4.56692913 25.7217848,4.56692913 L15.8530184,4.56692913 L15.8530184,15.4330709 L26.6666667,15.4330709 C26.9816273,15.4330709 27.2440945,15.6955381 27.2440945,16.0104987 L27.2440945,18.0052493 C27.2440945,18.32021 26.9816273,18.5826772 26.6666667,18.5826772 L15.8530184,18.5826772 L15.8530184,22.7296588 C15.8530184,23.0446194 15.5905512,23.2545932 15.2755906,23.2545932 L12.1259843,23.2545932 C11.8110236,23.2545932 11.6010499,22.992126 11.6010499,22.7296588 L11.6010499,18.5826772 L0.94488189,18.5826772 L0.94488189,18.5826772 Z"></path>
                        </g>
                        <path d="M154.015748,31.8110236 C154.015748,31.2860892 154.435696,30.9186352 154.908136,30.9186352 L158.635171,30.9186352 C159.790026,30.9186352 160.734908,31.2335958 161.312336,31.8110236 C161.784777,32.2834646 161.994751,32.808399 161.994751,33.4908136 L161.994751,33.5433071 C161.994751,34.8031496 161.312336,35.4330709 160.524934,35.8530184 C161.732283,36.2729659 162.572178,36.9553806 162.572178,38.3727034 L162.572178,38.4251969 C162.572178,40.2624672 161.049869,41.2598425 158.740157,41.2598425 L154.908136,41.2598425 C154.383202,41.2598425 154.015748,40.839895 154.015748,40.3674541 L154.015748,31.8110236 L154.015748,31.8110236 Z M158.215223,35.2230971 C159.370079,35.2230971 160.15748,34.7506562 160.15748,33.8057743 L160.15748,33.7532808 C160.15748,32.9658793 159.527559,32.4409449 158.372703,32.4409449 L155.748031,32.4409449 L155.748031,35.1706037 L158.215223,35.1706037 L158.215223,35.2230971 Z M158.792651,39.5800525 C160.052493,39.5800525 160.787402,39.1076115 160.787402,38.1627297 L160.787402,38.1102362 C160.787402,37.2178478 160.104987,36.7454068 158.687664,36.7454068 L155.800525,36.7454068 L155.800525,39.5800525 L158.792651,39.5800525 L158.792651,39.5800525 Z M164.041995,40 L167.874016,31.496063 C168.08399,31.023622 168.451444,30.7611549 168.976378,30.7611549 L169.081365,30.7611549 C169.606299,30.7611549 169.973753,31.023622 170.131234,31.496063 L173.963255,40 C174.015748,40.1574803 174.068241,40.2624672 174.068241,40.3674541 C174.068241,40.839895 173.700787,41.2598425 173.228346,41.2598425 C172.808399,41.2598425 172.493438,40.9973753 172.335958,40.6299213 L171.496063,38.687664 L166.509186,38.687664 L165.616798,40.6824147 C165.459318,41.0498688 165.144357,41.2598425 164.776903,41.2598425 C164.304462,41.2598425 163.937008,40.8923885 163.937008,40.4199475 C163.884514,40.3149606 163.937008,40.1574803 164.041995,40 L164.041995,40 Z M170.761155,37.1128609 L168.976378,32.9658793 L167.191601,37.1128609 L170.761155,37.1128609 L170.761155,37.1128609 Z M175.958005,31.7585302 C175.958005,31.2335958 176.377953,30.8661417 176.850394,30.8661417 L177.060367,30.8661417 C177.480315,30.8661417 177.742782,31.0761155 178.005249,31.3910761 L183.149606,38.0577428 L183.149606,31.7585302 C183.149606,31.2860892 183.569554,30.8661417 184.041995,30.8661417 C184.566929,30.8661417 184.934383,31.2860892 184.934383,31.7585302 L184.934383,40.4199475 C184.934383,40.9448819 184.566929,41.312336 184.041995,41.312336 L183.989501,41.312336 C183.569554,41.312336 183.307087,41.1023622 183.044619,40.7874016 L177.742782,33.9632546 L177.742782,40.4724409 C177.742782,40.9448819 177.322835,41.3648294 176.850394,41.3648294 C176.325459,41.3648294 175.958005,40.9448819 175.958005,40.4724409 L175.958005,31.7585302 L175.958005,31.7585302 Z M187.611549,31.7585302 C187.611549,31.2335958 188.031496,30.8661417 188.503937,30.8661417 C188.976378,30.8661417 189.396325,31.2860892 189.396325,31.7585302 L189.396325,36.1154856 L194.278215,31.1811024 C194.488189,30.9711286 194.698163,30.8661417 195.013123,30.8661417 C195.538058,30.8661417 195.853018,31.2860892 195.853018,31.7060367 C195.853018,31.9685039 195.748031,32.1784777 195.538058,32.3884514 L192.335958,35.4855643 L195.800525,39.7900262 C195.958005,40 196.062992,40.1574803 196.062992,40.4199475 C196.062992,40.9448819 195.643045,41.312336 195.170604,41.312336 C194.80315,41.312336 194.593176,41.1548556 194.383202,40.8923885 L191.076115,36.6929134 L189.396325,38.32021 L189.396325,40.4724409 C189.396325,40.9973753 188.976378,41.3648294 188.503937,41.3648294 C187.979003,41.3648294 187.611549,40.9448819 187.611549,40.4724409 L187.611549,31.7585302 L187.611549,31.7585302 Z" id="Shape" fill="#EA5504"></path>
                        <path d="M110.551181,30.8136483 L108.976378,30.8136483 C108.818898,30.8136483 108.713911,30.9186352 108.713911,31.0761155 L108.713911,38.1627297 C107.926509,37.2178478 102.519685,31.1286089 102.414698,31.023622 C102.257218,30.8661417 102.099738,30.8661417 101.942257,30.8661417 L100.419948,30.8661417 C100.262467,30.8661417 100.15748,30.9711286 100.15748,31.1286089 L100.15748,40.9448819 C100.15748,41.1023622 100.262467,41.2073491 100.419948,41.2073491 L101.994751,41.2073491 C102.152231,41.2073491 102.257218,41.1023622 102.257218,40.9448819 L102.257218,33.8057743 C102.834646,34.488189 108.503937,40.8923885 108.608924,40.9973753 C108.766404,41.1548556 108.923885,41.1548556 109.081365,41.1548556 L110.551181,41.1548556 C110.708661,41.1548556 110.813648,41.0498688 110.813648,40.8923885 L110.813648,31.0761155 C110.813648,30.9186352 110.708661,30.8136483 110.551181,30.8136483 L110.551181,30.8136483 Z M119.580052,30.656168 L116.010499,30.656168 C114.068241,30.656168 112.493438,32.0734908 112.493438,33.8057743 L112.493438,38.1102362 C112.493438,39.8425197 114.068241,41.2598425 116.010499,41.2598425 L119.580052,41.2598425 C121.52231,41.2598425 123.097113,39.8425197 123.097113,38.1102362 L123.097113,35.328084 L117.637795,35.328084 L117.637795,36.7979003 C117.637795,36.9553806 117.742782,37.0603675 117.900262,37.0603675 L120.892388,37.0603675 L120.892388,39.0551181 C120.892388,39.2125984 120.787402,39.3175853 120.629921,39.3175853 L114.908136,39.3175853 C114.750656,39.3175853 114.645669,39.2125984 114.645669,39.0551181 L114.645669,32.8608924 C114.645669,32.7034121 114.750656,32.5984252 114.908136,32.5984252 L120.629921,32.5984252 C120.787402,32.5984252 120.892388,32.7034121 120.892388,32.8608924 L120.892388,34.0682415 C120.892388,34.2257218 120.997375,34.3307087 121.154856,34.3307087 L122.887139,34.3307087 C123.044619,34.3307087 123.149606,34.2257218 123.149606,34.0682415 L123.149606,33.8057743 C123.097113,32.0734908 121.52231,30.656168 119.580052,30.656168 L119.580052,30.656168 Z M149.291339,30.8136483 L147.716535,30.8136483 C147.559055,30.8136483 147.454068,30.9186352 147.454068,31.0761155 L147.454068,38.1627297 C146.666667,37.2178478 141.259843,31.1286089 141.154856,31.023622 C140.997375,30.8661417 140.839895,30.8661417 140.682415,30.8661417 L139.160105,30.8661417 C139.002625,30.8661417 138.897638,30.9711286 138.897638,31.1286089 L138.897638,40.9448819 C138.897638,41.1023622 139.002625,41.2073491 139.160105,41.2073491 L140.734908,41.2073491 C140.892388,41.2073491 140.997375,41.1023622 140.997375,40.9448819 L140.997375,33.8057743 C141.574803,34.488189 147.244094,40.8923885 147.349081,40.9973753 C147.506562,41.1548556 147.664042,41.1548556 147.821522,41.1548556 L149.291339,41.1548556 C149.448819,41.1548556 149.553806,41.0498688 149.553806,40.8923885 L149.553806,31.0761155 C149.501312,30.9186352 149.396325,30.8136483 149.291339,30.8136483 L149.291339,30.8136483 Z M133.018373,31.0761155 C132.913386,30.9186352 132.755906,30.8136483 132.545932,30.8136483 L131.023622,30.8136483 C130.813648,30.8136483 130.656168,30.9186352 130.551181,31.0761155 L125.721785,40.6299213 C125.564304,40.9448819 125.721785,41.1023622 125.984252,41.1023622 L127.506562,41.1023622 C127.716535,41.1023622 127.821522,41.0498688 127.926509,40.839895 L131.75853,33.175853 L135.590551,40.839895 C135.695538,41.0498688 135.800525,41.1023622 136.010499,41.1023622 L137.532808,41.1023622 C137.795276,41.1023622 137.952756,40.8923885 137.795276,40.6299213 L133.018373,31.0761155 L133.018373,31.0761155 Z M92.1784777,35.9055118 C92.1784777,36.0629921 92.0734908,36.167979 91.9160105,36.167979 L86.6666667,36.167979 L86.6666667,32.6509186 L91.9160105,32.6509186 C92.0734908,32.6509186 92.1784777,32.7559055 92.1784777,32.9133858 L92.1784777,35.9055118 L92.1784777,35.9055118 Z M90.9711286,30.8136483 L84.6194226,30.8136483 C84.4619423,30.8136483 84.3569554,30.9186352 84.3569554,31.0761155 L84.3569554,40.8923885 C84.3569554,41.0498688 84.4619423,41.1548556 84.6194226,41.1548556 L86.351706,41.1548556 C86.5091864,41.1548556 86.6141732,41.0498688 86.6141732,40.8923885 L86.6141732,38.0052493 L90.9711286,38.0052493 C92.9133858,38.0052493 94.488189,36.8503937 94.488189,35.1181102 L94.488189,33.9632546 C94.488189,32.1784777 92.9133858,30.8136483 90.9711286,30.8136483 L90.9711286,30.8136483 Z M98.0052493,30.8136483 L96.2729659,30.8136483 C96.1154856,30.8136483 96.0104987,30.9186352 96.0104987,31.0761155 L96.0104987,40.8923885 C96.0104987,41.0498688 96.1154856,41.1548556 96.2729659,41.1548556 L98.0052493,41.1548556 C98.1627297,41.1548556 98.2677165,41.0498688 98.2677165,40.8923885 L98.2677165,31.0761155 C98.2152231,30.9186352 98.1102362,30.8136483 98.0052493,30.8136483 L98.0052493,30.8136483 Z" id="Shape" fill="#EA5504"></path>
                        <path d="M133.12336,38.0052493 L130.498688,38.0052493 C130.341207,38.0052493 130.23622,38.1102362 130.23622,38.2677165 L130.23622,40.839895 C130.23622,40.9973753 130.341207,41.1023622 130.498688,41.1023622 L133.12336,41.1023622 C133.28084,41.1023622 133.385827,40.9973753 133.385827,40.839895 L133.385827,38.2677165 C133.333333,38.1102362 133.228346,38.0052493 133.12336,38.0052493 L133.12336,38.0052493 Z" id="Shape" fill="#005E3C"></path>
                    </g>
                </g>
            </g>
        </g>
    </g>
</svg>