<?xml version="1.0" encoding="UTF-8"?>
<svg width="200px" height="50px" viewBox="0 0 200 50" version="1.1" xmlns="http://www.w3.org/2000/svg" xmlns:xlink="http://www.w3.org/1999/xlink">
    <!-- Generator: Sketch 42 (36781) - http://www.bohemiancoding.com/sketch -->
    <title>svg</title>
    <desc>Created with Sketch.</desc>
    <defs></defs>
    <g id="Page-1" stroke="none" stroke-width="1" fill="none" fill-rule="evenodd">
        <g id="svg" fill-rule="nonzero" fill="#631123">
            <g id="16-BJRCB" transform="translate(0.000000, 3.000000)">
                <g id="Group">
                    <path d="M41.7910448,5.07462687 C40.5970149,4.02985075 39.2537313,3.28358209 37.761194,2.53731343 C35.2238806,1.19402985 32.3880597,0.447761194 29.4029851,0.298507463 L29.4029851,0.298507463 L29.4029851,0.298507463 C29.2537313,0.298507463 29.2537313,0.447761194 29.2537313,0.447761194 C29.2537313,0.597014925 29.2537313,0.597014925 29.4029851,0.597014925 L29.4029851,0.597014925 C30.4477612,0.746268657 31.4925373,1.04477612 32.5373134,1.34328358 C38.5074627,3.28358209 42.0895522,7.91044776 42.0895522,7.91044776 C43.7313433,9.70149254 44.9253731,11.9402985 45.5223881,14.4776119 C45.9701493,15.8208955 46.119403,17.3134328 46.119403,18.8059701 C46.119403,19.5522388 46.119403,20.1492537 45.9701493,20.8955224 C45.8208955,21.641791 45.8208955,22.238806 45.5223881,22.9850746 C45.2238806,24.1791045 44.7761194,25.3731343 44.1791045,26.4179104 C42.6865672,29.2537313 40.5970149,31.4925373 37.9104478,33.1343284 L37.9104478,33.1343284 C37.0149254,33.7313433 35.9701493,34.1791045 34.9253731,34.6268657 C33.2835821,35.0746269 31.4925373,35.3731343 29.5522388,35.3731343 C20.1492537,35.3731343 12.6865672,27.761194 12.6865672,18.5074627 C12.6865672,17.6119403 12.8358209,16.5671642 12.9850746,15.6716418 C13.5820896,11.9402985 15.5223881,8.50746269 18.2089552,6.11940299 L18.2089552,6.11940299 L18.2089552,6.11940299 L18.2089552,6.11940299 L18.2089552,5.97014925 C18.2089552,5.82089552 18.0597015,5.82089552 18.0597015,5.82089552 L18.0597015,5.82089552 L18.0597015,5.82089552 C15.6716418,6.86567164 13.4328358,8.50746269 11.7910448,10.2985075 C8.95522388,13.880597 7.1641791,18.358209 7.1641791,23.1343284 C7.1641791,28.6567164 9.40298507,33.7313433 12.9850746,37.3134328 C14.3283582,38.6567164 15.6716418,39.7014925 17.3134328,40.7462687 C20.4477612,42.6865672 24.3283582,43.7313433 28.2089552,43.7313433 C37.3134328,43.7313433 45.2238806,37.9104478 48.2089552,29.7014925 C48.0597015,29.8507463 53.880597,15.6716418 41.7910448,5.07462687 L41.7910448,5.07462687 Z M29.7014925,20 C33.1343284,21.7910448 34.3283582,25.9701493 32.5373134,29.2537313 C31.3432836,31.641791 28.8059701,32.9850746 26.4179104,32.9850746 L26.4179104,32.9850746 L26.4179104,32.9850746 C26.2686567,32.9850746 26.2686567,33.1343284 26.2686567,33.1343284 C26.2686567,33.2835821 26.2686567,33.2835821 26.4179104,33.2835821 L26.4179104,33.2835821 C32.3880597,34.7761194 38.9552239,32.0895522 41.9402985,26.2686567 C45.3731343,19.7014925 42.9850746,11.4925373 36.4179104,7.91044776 C36.2686567,7.91044776 36.2686567,7.76119403 36.119403,7.76119403 C32.6865672,5.97014925 28.6567164,7.31343284 26.8656716,10.5970149 C25.0746269,14.1791045 26.4179104,18.358209 29.7014925,20 L29.7014925,20 Z M11.4925373,8.20895522 C13.2835821,6.41791045 15.6716418,5.82089552 16.5671642,5.82089552 L16.5671642,5.82089552 C16.7164179,5.82089552 16.7164179,5.67164179 16.7164179,5.67164179 C16.7164179,5.67164179 16.7164179,5.52238806 16.5671642,5.52238806 L16.5671642,5.52238806 C11.1940299,1.79104478 7.91044776,6.56716418 7.91044776,6.56716418 C5.37313433,10 2.53731343,10.1492537 1.49253731,10.4477612 L1.49253731,10.4477612 C1.34328358,10.4477612 1.34328358,10.5970149 1.34328358,10.5970149 C1.34328358,10.7462687 1.34328358,10.7462687 1.49253731,10.7462687 L1.49253731,10.7462687 C7.31343284,12.3880597 11.4925373,8.20895522 11.4925373,8.20895522 L11.4925373,8.20895522 Z" id="Shape"></path>
                    <g transform="translate(62.686567, 8.955224)" id="Shape">
                        <path d="M3.73134328,24.6268657 L3.73134328,24.3283582 C3.73134328,24.1791045 3.58208955,24.1791045 3.58208955,24.0298507 C3.43283582,24.0298507 3.43283582,23.880597 3.28358209,23.880597 L2.68656716,23.880597 L1.94029851,23.880597 L1.94029851,25.2238806 L2.8358209,25.2238806 L3.28358209,25.2238806 C3.43283582,25.2238806 3.43283582,25.2238806 3.58208955,25.0746269 C3.73134328,25.0746269 3.73134328,24.9253731 3.73134328,24.9253731 C3.73134328,24.7761194 3.73134328,24.6268657 3.73134328,24.6268657 L3.73134328,24.6268657 Z M3.43283582,22.5373134 L3.43283582,22.238806 C3.43283582,22.0895522 3.28358209,22.0895522 3.28358209,22.0895522 C3.28358209,22.0895522 3.13432836,21.9402985 2.98507463,21.9402985 L2.53731343,21.9402985 L1.94029851,21.9402985 L1.94029851,23.2835821 L2.53731343,23.2835821 L2.98507463,23.2835821 C3.13432836,23.2835821 3.13432836,23.1343284 3.28358209,23.1343284 L3.43283582,22.9850746 L3.43283582,22.5373134 L3.43283582,22.5373134 Z M4.92537313,24.4776119 C4.92537313,24.6268657 4.92537313,24.7761194 4.7761194,24.9253731 C4.7761194,25.0746269 4.62686567,25.2238806 4.47761194,25.3731343 L4.17910448,25.6716418 C4.02985075,25.8208955 3.88059701,25.8208955 3.73134328,25.8208955 C3.58208955,25.8208955 3.43283582,25.9701493 3.13432836,25.9701493 L2.53731343,25.9701493 L1.04477612,25.9701493 L0.746268657,25.9701493 C0.746268657,25.9701493 0.597014925,25.8208955 0.597014925,25.6716418 L0.597014925,21.3432836 C0.597014925,21.1940299 0.597014925,21.1940299 0.746268657,21.0447761 C0.746268657,21.0447761 0.895522388,20.8955224 1.04477612,20.8955224 L2.53731343,20.8955224 C2.8358209,20.8955224 3.13432836,20.8955224 3.43283582,21.0447761 C3.73134328,21.0447761 3.88059701,21.1940299 4.02985075,21.3432836 C4.17910448,21.4925373 4.32835821,21.641791 4.47761194,21.7910448 C4.62686567,21.9402985 4.62686567,22.0895522 4.62686567,22.3880597 L4.62686567,22.6865672 C4.62686567,22.8358209 4.47761194,22.8358209 4.47761194,22.9850746 C4.47761194,23.1343284 4.32835821,23.1343284 4.17910448,23.2835821 C4.02985075,23.2835821 4.02985075,23.4328358 3.88059701,23.4328358 C4.02985075,23.4328358 4.17910448,23.4328358 4.32835821,23.5820896 C4.47761194,23.5820896 4.62686567,23.7313433 4.62686567,23.880597 C4.7761194,24.0298507 4.7761194,24.0298507 4.92537313,24.1791045 C4.92537313,24.1791045 4.92537313,24.3283582 4.92537313,24.4776119 L4.92537313,24.4776119 Z"></path>
                        <path d="M9.25373134,25.6716418 L9.25373134,25.8208955 L9.25373134,25.9701493 L9.25373134,25.9701493 L9.25373134,25.9701493 L6.41791045,25.9701493 L6.11940299,25.9701493 C6.11940299,25.9701493 5.97014925,25.8208955 5.97014925,25.6716418 L5.97014925,21.3432836 C5.97014925,21.1940299 5.97014925,21.1940299 6.11940299,21.0447761 C6.11940299,21.0447761 6.26865672,20.8955224 6.41791045,20.8955224 L9.25373134,20.8955224 L9.25373134,20.8955224 L9.25373134,20.8955224 C9.25373134,20.8955224 9.25373134,20.8955224 9.25373134,21.0447761 L9.25373134,21.1940299 L9.25373134,21.3432836 L9.25373134,21.4925373 L9.25373134,21.4925373 L9.25373134,21.4925373 L7.1641791,21.4925373 L7.1641791,22.6865672 L8.95522388,22.6865672 L8.95522388,22.6865672 L8.95522388,22.6865672 C8.95522388,22.6865672 8.95522388,22.6865672 8.95522388,22.8358209 L8.95522388,22.9850746 L8.95522388,23.1343284 L8.95522388,23.2835821 L8.95522388,23.2835821 L8.95522388,23.2835821 L7.1641791,23.2835821 L7.1641791,24.6268657 L9.25373134,24.6268657 L9.25373134,24.6268657 L9.25373134,24.6268657 C9.25373134,24.6268657 9.25373134,24.6268657 9.25373134,24.7761194 L9.25373134,25.6716418 L9.25373134,25.6716418 Z"></path>
                        <path d="M11.4925373,25.8208955 C11.4925373,25.9701493 11.4925373,25.9701493 11.4925373,25.8208955 C11.4925373,25.9701493 11.3432836,25.9701493 11.4925373,25.8208955 C11.3432836,25.9701493 11.1940299,25.9701493 11.1940299,25.9701493 L10.8955224,25.9701493 L10.5970149,25.9701493 L10.4477612,25.9701493 L10.2985075,25.9701493 L10.2985075,25.9701493 L10.2985075,21.3432836 L10.2985075,21.3432836 L10.4477612,21.3432836 L10.5970149,21.3432836 L10.8955224,21.3432836 L11.1940299,21.3432836 L11.3432836,21.3432836 L11.4925373,21.3432836 L11.4925373,21.3432836 L11.4925373,25.8208955 L11.4925373,25.8208955 Z"></path>
                        <path d="M14.4776119,24.6268657 L14.4776119,25.2238806 C14.4776119,25.3731343 14.3283582,25.5223881 14.1791045,25.6716418 C14.0298507,25.8208955 13.880597,25.8208955 13.7313433,25.9701493 C13.5820896,25.9701493 13.2835821,26.119403 12.9850746,26.119403 L12.6865672,26.119403 L12.3880597,26.119403 L12.238806,26.119403 L12.0895522,26.119403 L12.0895522,26.119403 L12.0895522,26.119403 C12.0895522,26.119403 12.0895522,26.119403 12.0895522,25.9701493 L12.0895522,25.8208955 L12.0895522,25.6716418 L12.0895522,25.5223881 C12.0895522,25.5223881 12.0895522,25.5223881 12.0895522,25.3731343 L12.0895522,25.3731343 L12.238806,25.3731343 L12.3880597,25.3731343 L12.5373134,25.3731343 L12.6865672,25.3731343 L12.8358209,25.3731343 C12.8358209,25.3731343 12.9850746,25.3731343 12.9850746,25.2238806 C12.9850746,25.2238806 12.9850746,25.0746269 13.1343284,25.0746269 L13.1343284,24.7761194 L13.1343284,21.3432836 L13.1343284,21.3432836 L13.2835821,21.3432836 L13.4328358,21.3432836 L13.7313433,21.3432836 L14.0298507,21.3432836 L14.1791045,21.3432836 L14.3283582,21.3432836 L14.3283582,21.3432836 L14.3283582,24.6268657 L14.4776119,24.6268657 Z"></path>
                        <path d="M17.0149254,25.8208955 C17.0149254,25.9701493 17.0149254,25.9701493 17.0149254,25.8208955 C16.8656716,25.9701493 16.8656716,25.9701493 17.0149254,25.8208955 C16.8656716,25.9701493 16.7164179,25.9701493 16.7164179,25.9701493 L16.4179104,25.9701493 L16.119403,25.9701493 L15.9701493,25.9701493 L15.8208955,25.9701493 L15.8208955,25.9701493 L15.8208955,21.3432836 L15.8208955,21.3432836 L15.9701493,21.3432836 L16.119403,21.3432836 L16.4179104,21.3432836 L16.7164179,21.3432836 L16.8656716,21.3432836 L17.0149254,21.3432836 L17.0149254,21.3432836 L17.0149254,25.8208955 L17.0149254,25.8208955 Z"></path>
                        <path d="M22.9850746,25.6716418 L22.9850746,25.8208955 C22.9850746,25.8208955 22.9850746,25.9701493 22.8358209,25.9701493 L22.6865672,25.9701493 L22.5373134,25.9701493 L22.0895522,25.9701493 L21.7910448,25.9701493 C21.641791,25.9701493 21.641791,25.9701493 21.641791,25.8208955 L21.4925373,25.6716418 C21.4925373,25.5223881 21.3432836,25.5223881 21.3432836,25.3731343 L19.8507463,23.1343284 C19.7014925,22.9850746 19.7014925,22.8358209 19.5522388,22.6865672 C19.4029851,22.5373134 19.4029851,22.3880597 19.2537313,22.238806 L19.2537313,22.238806 L19.2537313,22.8358209 L19.2537313,23.4328358 L19.2537313,25.9701493 L19.2537313,25.9701493 C19.2537313,25.9701493 19.2537313,25.9701493 19.1044776,25.9701493 L18.9552239,25.9701493 L18.6567164,25.9701493 L18.358209,25.9701493 L18.2089552,25.9701493 C18.2089552,25.9701493 18.2089552,25.9701493 18.0597015,25.9701493 L18.0597015,25.9701493 L18.0597015,21.4925373 C18.0597015,21.3432836 18.0597015,21.3432836 18.2089552,21.1940299 C18.358209,21.1940299 18.358209,21.0447761 18.5074627,21.0447761 L19.1044776,21.0447761 L19.4029851,21.0447761 C19.5522388,21.0447761 19.5522388,21.0447761 19.5522388,21.1940299 L19.7014925,21.3432836 C19.7014925,21.3432836 19.8507463,21.4925373 19.8507463,21.641791 L21.0447761,23.4328358 C21.0447761,23.5820896 21.1940299,23.5820896 21.1940299,23.7313433 C21.1940299,23.880597 21.3432836,23.880597 21.3432836,24.0298507 C21.3432836,24.1791045 21.4925373,24.1791045 21.4925373,24.3283582 C21.4925373,24.4776119 21.641791,24.4776119 21.641791,24.6268657 L21.641791,24.6268657 L21.641791,24.0298507 L21.641791,23.4328358 L21.641791,21.0447761 L21.641791,21.0447761 L21.7910448,21.0447761 L21.9402985,21.0447761 L22.238806,21.0447761 L22.5373134,21.0447761 L22.6865672,21.0447761 L22.8358209,21.0447761 L22.8358209,21.0447761 L22.8358209,25.6716418 L22.9850746,25.6716418 Z"></path>
                        <path d="M28.9552239,21.7910448 L28.9552239,21.9402985 L28.9552239,22.0895522 L28.9552239,22.0895522 L28.9552239,22.0895522 L28.8059701,22.0895522 C28.6567164,22.0895522 28.6567164,21.9402985 28.5074627,21.9402985 C28.358209,21.9402985 28.2089552,21.7910448 28.0597015,21.7910448 L27.3134328,21.7910448 C27.0149254,21.7910448 26.7164179,21.7910448 26.5671642,21.9402985 C26.2686567,22.0895522 26.119403,22.0895522 25.9701493,22.238806 C25.8208955,22.3880597 25.6716418,22.5373134 25.6716418,22.8358209 C25.5223881,22.9850746 25.5223881,23.2835821 25.5223881,23.5820896 C25.5223881,23.880597 25.5223881,24.1791045 25.6716418,24.3283582 C25.8208955,24.4776119 25.8208955,24.7761194 25.9701493,24.9253731 C26.119403,25.0746269 26.2686567,25.2238806 26.5671642,25.2238806 C26.7164179,25.2238806 27.0149254,25.3731343 27.3134328,25.3731343 L27.761194,25.3731343 C27.9104478,25.3731343 28.0597015,25.3731343 28.0597015,25.2238806 L28.0597015,24.0298507 L27.0149254,24.0298507 C27.0149254,24.0298507 26.8656716,24.0298507 26.8656716,23.880597 L26.8656716,23.5820896 L26.8656716,23.4328358 L26.8656716,23.2835821 L26.8656716,23.2835821 L26.8656716,23.2835821 L28.8059701,23.2835821 L28.9552239,23.2835821 L29.1044776,23.2835821 C29.1044776,23.2835821 29.1044776,23.2835821 29.1044776,23.4328358 L29.1044776,23.5820896 L29.1044776,25.5223881 L29.1044776,25.6716418 L28.9552239,25.8208955 C28.8059701,25.8208955 28.8059701,25.8208955 28.6567164,25.9701493 C28.5074627,25.9701493 28.358209,25.9701493 28.2089552,26.119403 L27.761194,26.119403 L27.3134328,26.119403 C26.8656716,26.119403 26.4179104,26.119403 26.119403,25.9701493 C25.8208955,25.8208955 25.3731343,25.6716418 25.2238806,25.5223881 C24.9253731,25.3731343 24.7761194,25.0746269 24.6268657,24.7761194 C24.4776119,24.4776119 24.4776119,24.1791045 24.4776119,23.7313433 C24.4776119,23.2835821 24.4776119,22.9850746 24.6268657,22.6865672 C24.7761194,22.3880597 24.9253731,22.0895522 25.2238806,21.7910448 C25.5223881,21.4925373 25.8208955,21.3432836 26.119403,21.3432836 C26.4179104,21.1940299 26.8656716,21.1940299 27.3134328,21.1940299 L28.0597015,21.1940299 C28.2089552,21.1940299 28.5074627,21.1940299 28.6567164,21.3432836 C28.8059701,21.3432836 28.9552239,21.4925373 29.1044776,21.4925373 C29.2537313,21.4925373 29.2537313,21.641791 29.2537313,21.641791 C29.2537313,21.641791 29.2537313,21.7910448 29.4029851,21.7910448 C28.9552239,21.641791 28.9552239,21.7910448 28.9552239,21.7910448 L28.9552239,21.7910448 Z"></path>
                        <path d="M34.9253731,22.5373134 C34.9253731,22.3880597 34.9253731,22.238806 34.7761194,22.0895522 C34.6268657,21.9402985 34.4776119,21.9402985 34.3283582,21.7910448 L34.1791045,21.7910448 L33.880597,21.7910448 L33.2835821,21.7910448 L33.2835821,23.1343284 L33.880597,23.1343284 L34.3283582,23.1343284 C34.4776119,23.1343284 34.6268657,22.9850746 34.6268657,22.9850746 C34.7761194,22.9850746 34.7761194,22.8358209 34.7761194,22.8358209 C34.9253731,22.6865672 34.9253731,22.6865672 34.9253731,22.5373134 L34.9253731,22.5373134 Z M36.4179104,25.9701493 L36.4179104,25.9701493 L36.4179104,25.9701493 C36.2686567,26.119403 36.2686567,26.119403 36.119403,26.119403 L35.8208955,26.119403 L35.5223881,26.119403 L35.3731343,26.119403 C35.3731343,26.119403 35.3731343,26.119403 35.2238806,26.119403 C35.2238806,26.119403 35.2238806,26.119403 35.2238806,25.9701493 L34.7761194,24.9253731 C34.7761194,24.7761194 34.6268657,24.6268657 34.6268657,24.6268657 C34.6268657,24.4776119 34.4776119,24.4776119 34.4776119,24.3283582 C34.4776119,24.3283582 34.3283582,24.1791045 34.1791045,24.1791045 L33.880597,24.1791045 L33.5820896,24.1791045 L33.5820896,26.119403 L33.5820896,26.119403 C33.5820896,26.119403 33.5820896,26.119403 33.4328358,26.119403 L33.2835821,26.119403 L32.9850746,26.119403 L32.6865672,26.119403 L32.5373134,26.119403 L32.3880597,26.119403 L32.3880597,26.119403 L32.3880597,21.641791 C32.3880597,21.4925373 32.3880597,21.4925373 32.5373134,21.3432836 C32.5373134,21.3432836 32.6865672,21.1940299 32.8358209,21.1940299 L34.3283582,21.1940299 L34.7761194,21.1940299 L35.0746269,21.1940299 C35.3731343,21.1940299 35.5223881,21.3432836 35.6716418,21.3432836 C35.8208955,21.3432836 35.9701493,21.4925373 36.119403,21.641791 C36.2686567,21.7910448 36.4179104,21.9402985 36.4179104,22.0895522 C36.4179104,22.238806 36.5671642,22.3880597 36.5671642,22.6865672 L36.5671642,23.1343284 C36.5671642,23.2835821 36.4179104,23.4328358 36.4179104,23.4328358 C36.2686567,23.5820896 36.2686567,23.5820896 36.119403,23.7313433 C35.9701493,23.880597 35.8208955,23.880597 35.6716418,23.880597 C35.8208955,23.880597 35.8208955,24.0298507 35.9701493,24.0298507 C36.119403,24.0298507 36.119403,24.1791045 36.119403,24.1791045 C36.119403,24.1791045 36.2686567,24.3283582 36.2686567,24.4776119 C36.2686567,24.6268657 36.4179104,24.6268657 36.4179104,24.7761194 L36.8656716,25.8208955 C36.4179104,25.6716418 36.4179104,25.8208955 36.4179104,25.9701493 C36.4179104,25.8208955 36.4179104,25.8208955 36.4179104,25.9701493 L36.4179104,25.9701493 Z"></path>
                        <path d="M42.0895522,24.1791045 C42.0895522,24.4776119 42.0895522,24.7761194 41.9402985,24.9253731 C41.7910448,25.2238806 41.641791,25.3731343 41.4925373,25.5223881 C41.3432836,25.6716418 41.0447761,25.8208955 40.7462687,25.9701493 C40.4477612,26.119403 40.1492537,26.119403 39.7014925,26.119403 C39.4029851,26.119403 38.9552239,26.119403 38.6567164,25.9701493 C38.358209,25.8208955 38.0597015,25.8208955 37.9104478,25.6716418 C37.761194,25.5223881 37.6119403,25.3731343 37.4626866,25.0746269 C37.3134328,24.7761194 37.3134328,24.6268657 37.3134328,24.1791045 L37.3134328,21.1940299 L37.3134328,21.1940299 L37.4626866,21.1940299 L37.6119403,21.1940299 L37.9104478,21.1940299 L38.2089552,21.1940299 L38.358209,21.1940299 L38.5074627,21.1940299 L38.5074627,21.1940299 L38.5074627,24.1791045 C38.5074627,24.3283582 38.5074627,24.4776119 38.6567164,24.6268657 C38.6567164,24.7761194 38.8059701,24.9253731 38.9552239,24.9253731 C39.1044776,25.0746269 39.2537313,25.0746269 39.4029851,25.0746269 L39.8507463,25.0746269 L40.2985075,25.0746269 C40.4477612,25.0746269 40.5970149,24.9253731 40.5970149,24.9253731 C40.7462687,24.7761194 40.7462687,24.7761194 40.8955224,24.6268657 C40.8955224,24.4776119 41.0447761,24.3283582 41.0447761,24.1791045 L41.0447761,21.1940299 L41.0447761,21.1940299 L41.1940299,21.1940299 L41.3432836,21.1940299 L41.641791,21.1940299 L41.9402985,21.1940299 L42.0895522,21.1940299 L42.238806,21.1940299 L42.238806,21.1940299 L42.238806,24.1791045 L42.0895522,24.1791045 Z"></path>
                        <path d="M46.119403,22.5373134 C46.119403,22.3880597 46.119403,22.238806 45.9701493,22.0895522 C45.8208955,21.9402985 45.6716418,21.9402985 45.5223881,21.7910448 L45.3731343,21.7910448 L45.0746269,21.7910448 L44.4776119,21.7910448 L44.4776119,23.1343284 L45.0746269,23.1343284 L45.5223881,23.1343284 C45.6716418,23.1343284 45.8208955,22.9850746 45.8208955,22.9850746 C45.9701493,22.9850746 45.9701493,22.8358209 45.9701493,22.8358209 C45.9701493,22.6865672 46.119403,22.6865672 46.119403,22.5373134 L46.119403,22.5373134 Z M47.6119403,25.9701493 L47.6119403,25.9701493 C47.6119403,25.9701493 47.4626866,25.9701493 47.6119403,25.9701493 C47.4626866,26.119403 47.4626866,26.119403 47.3134328,26.119403 L47.0149254,26.119403 L46.7164179,26.119403 L46.5671642,26.119403 C46.5671642,26.119403 46.5671642,26.119403 46.4179104,26.119403 C46.4179104,26.119403 46.4179104,26.119403 46.4179104,25.9701493 L45.9701493,24.9253731 C45.9701493,24.7761194 45.8208955,24.6268657 45.8208955,24.6268657 C45.8208955,24.4776119 45.6716418,24.4776119 45.6716418,24.3283582 C45.6716418,24.3283582 45.5223881,24.1791045 45.3731343,24.1791045 L45.0746269,24.1791045 L44.7761194,24.1791045 L44.7761194,26.119403 L44.7761194,26.119403 C44.7761194,26.119403 44.7761194,26.119403 44.6268657,26.119403 L44.4776119,26.119403 L44.1791045,26.119403 L43.880597,26.119403 L43.7313433,26.119403 C43.7313433,26.119403 43.7313433,26.119403 43.5820896,26.119403 L43.5820896,26.119403 L43.5820896,21.641791 C43.5820896,21.4925373 43.5820896,21.4925373 43.7313433,21.3432836 C43.7313433,21.3432836 43.880597,21.1940299 44.0298507,21.1940299 L45.5223881,21.1940299 L45.9701493,21.1940299 L46.2686567,21.1940299 C46.5671642,21.1940299 46.7164179,21.3432836 46.8656716,21.3432836 C47.0149254,21.3432836 47.1641791,21.4925373 47.3134328,21.641791 C47.4626866,21.7910448 47.6119403,21.9402985 47.6119403,22.0895522 C47.6119403,22.238806 47.761194,22.3880597 47.761194,22.6865672 L47.761194,23.1343284 C47.761194,23.2835821 47.6119403,23.4328358 47.6119403,23.4328358 C47.4626866,23.5820896 47.4626866,23.5820896 47.3134328,23.7313433 C47.1641791,23.880597 47.0149254,23.880597 46.8656716,23.880597 C47.0149254,23.880597 47.0149254,24.0298507 47.1641791,24.0298507 C47.3134328,24.0298507 47.3134328,24.1791045 47.3134328,24.1791045 C47.3134328,24.1791045 47.4626866,24.3283582 47.4626866,24.4776119 C47.4626866,24.6268657 47.6119403,24.6268657 47.6119403,24.7761194 L48.0597015,25.8208955 C47.4626866,25.6716418 47.4626866,25.8208955 47.6119403,25.9701493 C47.6119403,25.8208955 47.6119403,25.8208955 47.6119403,25.9701493 L47.6119403,25.9701493 Z"></path>
                        <path d="M50.4477612,22.0895522 L50.4477612,22.0895522 L49.5522388,24.1791045 L51.1940299,24.1791045 L50.4477612,22.0895522 L50.4477612,22.0895522 Z M53.1343284,25.6716418 L53.1343284,25.8208955 L53.1343284,25.9701493 L52.9850746,25.9701493 L52.6865672,25.9701493 L52.3880597,25.9701493 L52.238806,25.9701493 L52.0895522,25.9701493 C52.0895522,25.9701493 52.0895522,25.9701493 52.0895522,25.8208955 L51.641791,24.7761194 L49.4029851,24.7761194 L49.1044776,25.6716418 C49.1044776,25.6716418 49.1044776,25.6716418 49.1044776,25.8208955 C49.1044776,25.8208955 49.1044776,25.8208955 48.9552239,25.8208955 L48.8059701,25.8208955 L48.5074627,25.8208955 L48.2089552,25.8208955 L48.0597015,25.8208955 C48.0597015,25.8208955 48.0597015,25.8208955 48.0597015,25.6716418 L48.0597015,25.5223881 L49.8507463,21.1940299 L49.8507463,21.0447761 L50,21.0447761 L50.1492537,21.0447761 L50.4477612,21.0447761 L50.8955224,21.0447761 L51.1940299,21.0447761 L51.3432836,21.0447761 C51.3432836,21.0447761 51.3432836,21.0447761 51.3432836,21.1940299 L53.1343284,25.6716418 L53.1343284,25.6716418 Z"></path>
                        <path d="M57.1641791,25.6716418 L57.1641791,25.8208955 L57.1641791,25.9701493 L57.1641791,25.9701493 C57.1641791,25.9701493 57.1641791,25.9701493 57.0149254,25.9701493 L54.3283582,25.9701493 L54.0298507,25.9701493 C54.0298507,25.9701493 53.880597,25.8208955 53.880597,25.6716418 L53.880597,21.1940299 L53.880597,21.1940299 L54.0298507,21.1940299 L54.1791045,21.1940299 L54.4776119,21.1940299 L54.7761194,21.1940299 L54.9253731,21.1940299 L55.0746269,21.1940299 L55.0746269,21.1940299 L55.0746269,25.2238806 L56.8656716,25.2238806 L57.0149254,25.2238806 L57.0149254,25.2238806 L57.0149254,25.3731343 C57.1641791,25.5223881 57.1641791,25.5223881 57.1641791,25.6716418 L57.1641791,25.6716418 Z"></path>
                        <path d="M63.880597,25.2238806 L63.880597,25.3731343 L63.880597,25.5223881 C63.880597,25.5223881 63.880597,25.5223881 63.880597,25.6716418 C63.880597,25.6716418 63.880597,25.6716418 63.880597,25.8208955 C63.880597,25.8208955 63.7313433,25.8208955 63.7313433,25.9701493 C63.5820896,25.9701493 63.5820896,26.119403 63.4328358,26.119403 C63.2835821,26.119403 63.1343284,26.2686567 62.9850746,26.2686567 L62.3880597,26.2686567 C61.9402985,26.2686567 61.641791,26.2686567 61.3432836,26.119403 C61.0447761,25.9701493 60.7462687,25.8208955 60.5970149,25.6716418 C60.4477612,25.5223881 60.1492537,25.2238806 60.1492537,24.9253731 C60,24.6268657 60,24.1791045 60,23.880597 C60,23.4328358 60,23.1343284 60.1492537,22.8358209 C60.2985075,22.5373134 60.4477612,22.238806 60.7462687,21.9402985 C61.0447761,21.7910448 61.1940299,21.4925373 61.641791,21.4925373 C61.9402985,21.3432836 62.3880597,21.3432836 62.6865672,21.3432836 L63.1343284,21.3432836 C63.2835821,21.3432836 63.4328358,21.3432836 63.5820896,21.4925373 C63.7313433,21.4925373 63.880597,21.641791 63.880597,21.641791 C64.0298507,21.641791 64.0298507,21.7910448 64.0298507,21.7910448 C64.0298507,21.7910448 64.0298507,21.7910448 64.1791045,21.9402985 C64.1791045,21.9402985 64.1791045,21.9402985 64.1791045,22.0895522 L64.1791045,22.238806 L64.1791045,22.3880597 L64.1791045,22.5373134 L64.1791045,22.6865672 L64.1791045,22.6865672 L64.1791045,22.6865672 L64.0298507,22.6865672 C64.0298507,22.6865672 63.880597,22.5373134 63.7313433,22.5373134 C63.5820896,22.5373134 63.4328358,22.3880597 63.2835821,22.3880597 L62.6865672,22.3880597 C62.3880597,22.3880597 62.238806,22.3880597 62.0895522,22.5373134 C61.9402985,22.6865672 61.7910448,22.6865672 61.641791,22.8358209 C61.4925373,22.9850746 61.4925373,23.1343284 61.3432836,23.4328358 C61.3432836,23.5820896 61.1940299,23.880597 61.1940299,24.1791045 C61.1940299,24.4776119 61.1940299,24.7761194 61.3432836,24.9253731 C61.3432836,25.0746269 61.4925373,25.3731343 61.641791,25.5223881 C61.7910448,25.6716418 61.9402985,25.8208955 62.0895522,25.8208955 C62.238806,25.8208955 62.5373134,25.9701493 62.6865672,25.9701493 L63.2835821,25.9701493 C63.4328358,25.9701493 63.5820896,25.8208955 63.7313433,25.8208955 C63.880597,25.8208955 63.880597,25.6716418 64.0298507,25.6716418 L64.1791045,25.6716418 L64.1791045,25.6716418 L64.1791045,25.6716418 C64.1791045,25.6716418 64.1791045,25.6716418 64.1791045,25.8208955 C63.880597,25.0746269 63.880597,25.2238806 63.880597,25.2238806 L63.880597,25.2238806 Z"></path>
                        <path d="M68.8059701,23.5820896 L68.8059701,22.8358209 C68.8059701,22.6865672 68.6567164,22.3880597 68.5074627,22.238806 C68.358209,22.0895522 68.2089552,21.9402985 68.0597015,21.9402985 C67.9104478,21.7910448 67.6119403,21.7910448 67.3134328,21.7910448 C67.0149254,21.7910448 66.7164179,21.7910448 66.5671642,21.9402985 C66.4179104,22.0895522 66.2686567,22.0895522 66.119403,22.238806 C65.9701493,22.3880597 65.9701493,22.5373134 65.8208955,22.8358209 L65.8208955,23.4328358 L65.8208955,24.1791045 C65.8208955,24.3283582 65.9701493,24.6268657 66.119403,24.7761194 C66.2686567,24.9253731 66.4179104,25.0746269 66.5671642,25.0746269 C66.7164179,25.2238806 67.0149254,25.2238806 67.3134328,25.2238806 C67.6119403,25.2238806 67.9104478,25.2238806 68.0597015,25.0746269 C68.2089552,24.9253731 68.358209,24.9253731 68.5074627,24.6268657 C68.6567164,24.4776119 68.6567164,24.3283582 68.8059701,24.0298507 C68.6567164,24.0298507 68.8059701,23.7313433 68.8059701,23.5820896 L68.8059701,23.5820896 Z M70,23.4328358 C70,23.880597 70,24.1791045 69.8507463,24.4776119 C69.7014925,24.7761194 69.5522388,25.0746269 69.2537313,25.3731343 C68.9552239,25.6716418 68.6567164,25.8208955 68.358209,25.8208955 C68.0597015,25.9701493 67.6119403,25.9701493 67.1641791,25.9701493 C66.7164179,25.9701493 66.2686567,25.9701493 65.9701493,25.8208955 C65.6716418,25.6716418 65.3731343,25.5223881 65.0746269,25.3731343 C64.9253731,25.2238806 64.6268657,24.9253731 64.6268657,24.6268657 C64.4776119,24.3283582 64.4776119,23.880597 64.4776119,23.4328358 C64.4776119,22.9850746 64.4776119,22.6865672 64.6268657,22.3880597 C64.7761194,22.0895522 64.9253731,21.7910448 65.2238806,21.641791 C65.5223881,21.4925373 65.8208955,21.1940299 66.119403,21.1940299 C66.4179104,21.0447761 66.8656716,21.0447761 67.3134328,21.0447761 C67.761194,21.0447761 68.2089552,21.0447761 68.5074627,21.1940299 C68.8059701,21.3432836 69.1044776,21.4925373 69.4029851,21.641791 C69.5522388,21.7910448 69.8507463,22.0895522 69.8507463,22.3880597 C69.8507463,22.6865672 70,23.1343284 70,23.4328358 L70,23.4328358 Z"></path>
                        <path d="M77.761194,25.8208955 C77.761194,25.9701493 77.6119403,25.9701493 77.761194,25.8208955 C77.6119403,25.9701493 77.6119403,25.9701493 77.761194,25.8208955 C77.6119403,25.9701493 77.6119403,25.9701493 77.4626866,25.9701493 L77.1641791,25.9701493 L76.8656716,25.9701493 L76.7164179,25.9701493 C76.7164179,25.9701493 76.7164179,25.9701493 76.5671642,25.9701493 L76.5671642,25.9701493 L76.5671642,21.9402985 L76.5671642,21.9402985 L74.9253731,25.9701493 C74.9253731,25.9701493 74.9253731,25.9701493 74.9253731,26.119403 C74.9253731,26.119403 74.9253731,26.119403 74.7761194,26.119403 L74.6268657,26.119403 L74.3283582,26.119403 L74.0298507,26.119403 L73.880597,26.119403 L73.7313433,26.119403 L73.7313433,26.119403 L72.0895522,22.0895522 L72.0895522,22.0895522 L72.0895522,26.119403 L72.0895522,26.119403 C72.0895522,26.119403 72.0895522,26.119403 71.9402985,26.119403 L71.7910448,26.119403 L71.4925373,26.119403 L71.1940299,26.119403 L71.0447761,26.119403 C71.0447761,26.119403 71.0447761,26.119403 70.8955224,26.119403 L70.8955224,26.119403 L70.8955224,21.641791 C70.8955224,21.4925373 70.8955224,21.3432836 71.0447761,21.3432836 C71.1940299,21.3432836 71.1940299,21.1940299 71.3432836,21.1940299 L72.0895522,21.1940299 L72.3880597,21.1940299 C72.5373134,21.1940299 72.5373134,21.1940299 72.6865672,21.3432836 L72.8358209,21.4925373 C72.8358209,21.4925373 72.9850746,21.641791 72.9850746,21.7910448 L74.1791045,24.7761194 L74.1791045,24.7761194 L75.5223881,21.7910448 C75.5223881,21.641791 75.6716418,21.641791 75.6716418,21.4925373 C75.6716418,21.3432836 75.8208955,21.3432836 75.8208955,21.3432836 L75.9701493,21.1940299 L76.2686567,21.1940299 L77.0149254,21.1940299 L77.1641791,21.1940299 C77.1641791,21.1940299 77.3134328,21.1940299 77.3134328,21.3432836 C77.3134328,21.3432836 77.3134328,21.4925373 77.4626866,21.4925373 L77.4626866,21.641791 L77.4626866,25.8208955 L77.761194,25.8208955 Z"></path>
                        <path d="M85.6716418,25.8208955 C85.6716418,25.9701493 85.6716418,25.9701493 85.6716418,25.8208955 C85.6716418,25.9701493 85.6716418,25.9701493 85.6716418,25.8208955 C85.5223881,25.9701493 85.5223881,25.9701493 85.3731343,25.9701493 L85.0746269,25.9701493 L84.7761194,25.9701493 L84.6268657,25.9701493 C84.6268657,25.9701493 84.6268657,25.9701493 84.4776119,25.9701493 L84.4776119,25.9701493 L84.4776119,21.9402985 L84.4776119,21.9402985 L82.8358209,25.9701493 C82.8358209,25.9701493 82.8358209,25.9701493 82.8358209,26.119403 C82.8358209,26.119403 82.8358209,26.119403 82.6865672,26.119403 L82.5373134,26.119403 L82.238806,26.119403 L81.9402985,26.119403 L81.7910448,26.119403 L81.641791,26.119403 L81.641791,26.119403 L80,22.0895522 L80,22.0895522 L80,26.119403 L80,26.119403 C80,26.119403 80,26.119403 79.8507463,26.119403 L79.7014925,26.119403 L79.4029851,26.119403 L79.1044776,26.119403 L78.9552239,26.119403 C78.9552239,26.119403 78.9552239,26.119403 78.8059701,26.119403 L78.8059701,26.119403 L78.8059701,21.641791 C78.8059701,21.4925373 78.8059701,21.3432836 78.9552239,21.3432836 C79.1044776,21.3432836 79.1044776,21.1940299 79.2537313,21.1940299 L80,21.1940299 L80.2985075,21.1940299 C80.4477612,21.1940299 80.4477612,21.1940299 80.5970149,21.3432836 L80.7462687,21.4925373 C80.7462687,21.4925373 80.8955224,21.641791 80.8955224,21.7910448 L82.0895522,24.7761194 L82.0895522,24.7761194 L83.4328358,21.7910448 C83.4328358,21.641791 83.5820896,21.641791 83.5820896,21.4925373 C83.5820896,21.3432836 83.7313433,21.3432836 83.7313433,21.3432836 L83.880597,21.1940299 L84.1791045,21.1940299 L84.9253731,21.1940299 L85.0746269,21.1940299 C85.0746269,21.1940299 85.2238806,21.1940299 85.2238806,21.3432836 C85.2238806,21.3432836 85.2238806,21.4925373 85.3731343,21.4925373 L85.3731343,21.641791 L85.3731343,25.8208955 L85.6716418,25.8208955 Z"></path>
                        <path d="M90.4477612,25.6716418 L90.4477612,25.8208955 L90.4477612,25.9701493 L90.4477612,25.9701493 L90.4477612,25.9701493 L87.6119403,25.9701493 L87.3134328,25.9701493 C87.3134328,25.9701493 87.1641791,25.8208955 87.1641791,25.6716418 L87.1641791,21.3432836 C87.1641791,21.1940299 87.1641791,21.1940299 87.3134328,21.0447761 C87.3134328,21.0447761 87.4626866,20.8955224 87.6119403,20.8955224 L90.4477612,20.8955224 L90.4477612,20.8955224 L90.4477612,20.8955224 C90.4477612,20.8955224 90.4477612,20.8955224 90.4477612,21.0447761 L90.4477612,21.1940299 L90.4477612,21.3432836 L90.4477612,21.4925373 L90.4477612,21.4925373 L90.4477612,21.4925373 L88.0597015,21.4925373 L88.0597015,22.6865672 L89.8507463,22.6865672 L89.8507463,22.6865672 L89.8507463,22.6865672 C89.8507463,22.6865672 89.8507463,22.6865672 89.8507463,22.8358209 L89.8507463,22.9850746 L89.8507463,23.1343284 L89.8507463,23.2835821 L89.8507463,23.2835821 L89.8507463,23.2835821 L88.0597015,23.2835821 L88.0597015,24.6268657 L90.1492537,24.6268657 L90.1492537,24.6268657 L90.1492537,24.6268657 C90.1492537,24.6268657 90.1492537,24.6268657 90.1492537,24.7761194 C90.4477612,25.5223881 90.4477612,25.5223881 90.4477612,25.6716418 L90.4477612,25.6716418 Z"></path>
                        <path d="M94.1791045,22.5373134 C94.1791045,22.3880597 94.1791045,22.238806 94.0298507,22.0895522 C93.880597,21.9402985 93.7313433,21.9402985 93.5820896,21.7910448 L93.4328358,21.7910448 L93.1343284,21.7910448 L92.5373134,21.7910448 L92.5373134,23.1343284 L93.1343284,23.1343284 L93.5820896,23.1343284 C93.7313433,23.1343284 93.880597,22.9850746 93.880597,22.9850746 C94.0298507,22.9850746 94.0298507,22.8358209 94.0298507,22.8358209 C94.1791045,22.6865672 94.1791045,22.6865672 94.1791045,22.5373134 L94.1791045,22.5373134 Z M95.6716418,25.9701493 L95.6716418,25.9701493 L95.6716418,25.9701493 C95.5223881,26.119403 95.5223881,26.119403 95.3731343,26.119403 L95.0746269,26.119403 L94.7761194,26.119403 L94.6268657,26.119403 C94.6268657,26.119403 94.6268657,26.119403 94.4776119,26.119403 C94.4776119,26.119403 94.4776119,26.119403 94.4776119,25.9701493 L94.0298507,24.9253731 C94.0298507,24.7761194 93.880597,24.6268657 93.880597,24.6268657 C93.880597,24.4776119 93.7313433,24.4776119 93.7313433,24.3283582 C93.7313433,24.3283582 93.5820896,24.1791045 93.4328358,24.1791045 L93.1343284,24.1791045 L92.5373134,24.1791045 L92.5373134,26.119403 L92.5373134,26.119403 C92.5373134,26.119403 92.5373134,26.119403 92.3880597,26.119403 L92.238806,26.119403 L91.9402985,26.119403 L91.641791,26.119403 L91.4925373,26.119403 L91.3432836,26.119403 L91.3432836,26.119403 L91.3432836,21.641791 C91.3432836,21.4925373 91.3432836,21.4925373 91.4925373,21.3432836 C91.4925373,21.3432836 91.641791,21.1940299 91.7910448,21.1940299 L93.2835821,21.1940299 L93.7313433,21.1940299 L94.0298507,21.1940299 C94.3283582,21.1940299 94.4776119,21.3432836 94.6268657,21.3432836 C94.7761194,21.3432836 94.9253731,21.4925373 95.0746269,21.641791 C95.2238806,21.7910448 95.3731343,21.9402985 95.3731343,22.0895522 C95.3731343,22.238806 95.5223881,22.3880597 95.5223881,22.6865672 C95.5223881,22.8358209 95.5223881,22.9850746 95.3731343,23.1343284 C95.3731343,23.2835821 95.2238806,23.4328358 95.2238806,23.4328358 C95.0746269,23.5820896 95.0746269,23.5820896 94.9253731,23.7313433 C94.7761194,23.880597 94.6268657,23.880597 94.4776119,23.880597 C94.6268657,23.880597 94.6268657,24.0298507 94.7761194,24.0298507 C94.9253731,24.0298507 94.9253731,24.1791045 94.9253731,24.1791045 C94.9253731,24.1791045 95.0746269,24.3283582 95.0746269,24.4776119 C95.0746269,24.6268657 95.2238806,24.6268657 95.2238806,24.7761194 L95.6716418,25.8208955 C95.6716418,25.6716418 95.6716418,25.8208955 95.6716418,25.9701493 C95.6716418,25.8208955 95.6716418,25.8208955 95.6716418,25.9701493 L95.6716418,25.9701493 Z"></path>
                        <path d="M100.597015,25.2238806 L100.597015,25.3731343 L100.597015,25.5223881 C100.597015,25.5223881 100.597015,25.5223881 100.597015,25.6716418 C100.597015,25.6716418 100.597015,25.6716418 100.597015,25.8208955 C100.597015,25.8208955 100.447761,25.8208955 100.447761,25.9701493 C100.298507,25.9701493 100.298507,26.119403 100.149254,26.119403 C100,26.119403 99.8507463,26.2686567 99.7014925,26.2686567 L99.1044776,26.2686567 C98.6567164,26.2686567 98.358209,26.2686567 98.0597015,26.119403 C97.761194,25.9701493 97.4626866,25.8208955 97.3134328,25.6716418 C97.1641791,25.5223881 96.8656716,25.2238806 96.8656716,24.9253731 C96.7164179,24.6268657 96.7164179,24.1791045 96.7164179,23.880597 C96.7164179,23.4328358 96.7164179,23.1343284 96.8656716,22.8358209 C97.0149254,22.5373134 97.1641791,22.238806 97.4626866,21.9402985 C97.761194,21.7910448 97.9104478,21.4925373 98.358209,21.4925373 C98.6567164,21.3432836 99.1044776,21.3432836 99.4029851,21.3432836 L99.8507463,21.3432836 C100,21.3432836 100.149254,21.3432836 100.298507,21.4925373 C100.447761,21.4925373 100.597015,21.641791 100.597015,21.641791 C100.746269,21.641791 100.746269,21.7910448 100.746269,21.7910448 C100.746269,21.7910448 100.746269,21.7910448 100.895522,21.9402985 C100.895522,21.9402985 100.895522,21.9402985 100.895522,22.0895522 L100.895522,22.238806 L100.895522,22.3880597 L100.895522,22.5373134 L100.895522,22.6865672 L100.895522,22.6865672 L100.895522,22.6865672 L100.746269,22.6865672 C100.746269,22.6865672 100.597015,22.5373134 100.447761,22.5373134 C100.298507,22.5373134 100.149254,22.3880597 100,22.3880597 L99.4029851,22.3880597 C99.1044776,22.3880597 98.9552239,22.3880597 98.8059701,22.5373134 C98.6567164,22.6865672 98.5074627,22.6865672 98.358209,22.8358209 C98.2089552,22.9850746 98.2089552,23.1343284 98.0597015,23.4328358 C98.0597015,23.5820896 97.9104478,23.880597 97.9104478,24.1791045 C97.9104478,24.4776119 97.9104478,24.7761194 98.0597015,24.9253731 C98.0597015,25.0746269 98.2089552,25.3731343 98.358209,25.5223881 C98.5074627,25.6716418 98.6567164,25.8208955 98.8059701,25.8208955 C98.9552239,25.8208955 99.2537313,25.9701493 99.4029851,25.9701493 L100,25.9701493 C100.149254,25.9701493 100.298507,25.8208955 100.447761,25.8208955 C100.597015,25.8208955 100.597015,25.6716418 100.746269,25.6716418 L100.895522,25.6716418 L100.895522,25.6716418 L100.895522,25.6716418 C100.895522,25.6716418 100.895522,25.6716418 100.895522,25.8208955 C100.597015,25.0746269 100.597015,25.2238806 100.597015,25.2238806 L100.597015,25.2238806 Z"></path>
                        <path d="M102.537313,25.8208955 C102.537313,25.9701493 102.537313,25.9701493 102.537313,25.8208955 C102.537313,25.9701493 102.537313,25.9701493 102.537313,25.8208955 C102.38806,25.9701493 102.238806,25.9701493 102.238806,25.9701493 L101.940299,25.9701493 L101.641791,25.9701493 L101.492537,25.9701493 L101.343284,25.9701493 L101.343284,25.9701493 L101.343284,21.3432836 L101.343284,21.3432836 L101.492537,21.3432836 L101.641791,21.3432836 L101.940299,21.3432836 L102.238806,21.3432836 L102.38806,21.3432836 L102.537313,21.3432836 L102.537313,21.3432836 L102.537313,25.8208955 L102.537313,25.8208955 Z"></path>
                        <path d="M105.970149,22.0895522 L105.970149,22.0895522 L105.074627,24.1791045 L106.716418,24.1791045 L105.970149,22.0895522 L105.970149,22.0895522 Z M108.656716,25.6716418 L108.656716,25.8208955 L108.656716,25.9701493 L108.507463,25.9701493 L108.208955,25.9701493 L107.910448,25.9701493 L107.761194,25.9701493 L107.61194,25.9701493 C107.61194,25.9701493 107.61194,25.9701493 107.61194,25.8208955 L107.164179,24.7761194 L104.925373,24.7761194 L104.626866,25.6716418 C104.626866,25.6716418 104.626866,25.6716418 104.626866,25.8208955 C104.626866,25.8208955 104.626866,25.8208955 104.477612,25.8208955 L104.328358,25.8208955 L104.029851,25.8208955 L103.731343,25.8208955 L103.58209,25.8208955 C103.58209,25.8208955 103.58209,25.8208955 103.58209,25.6716418 L103.58209,25.5223881 L105.373134,21.1940299 L105.373134,21.0447761 L105.522388,21.0447761 L105.671642,21.0447761 L105.970149,21.0447761 L106.41791,21.0447761 L106.716418,21.0447761 L106.865672,21.0447761 C106.865672,21.0447761 106.865672,21.0447761 106.865672,21.1940299 L108.656716,25.6716418 L108.656716,25.6716418 Z"></path>
                        <path d="M112.537313,25.6716418 L112.537313,25.8208955 L112.537313,25.9701493 L112.537313,25.9701493 C112.537313,25.9701493 112.537313,25.9701493 112.38806,25.9701493 L109.701493,25.9701493 L109.402985,25.9701493 C109.402985,25.9701493 109.253731,25.8208955 109.253731,25.6716418 L109.253731,21.1940299 L109.253731,21.1940299 L109.402985,21.1940299 L109.552239,21.1940299 L109.850746,21.1940299 L110.149254,21.1940299 L110.298507,21.1940299 L110.447761,21.1940299 L110.447761,21.1940299 L110.447761,25.2238806 L112.238806,25.2238806 L112.38806,25.2238806 L112.38806,25.2238806 L112.38806,25.3731343 C112.537313,25.5223881 112.537313,25.5223881 112.537313,25.6716418 L112.537313,25.6716418 Z"></path>
                        <path d="M118.358209,24.6268657 L118.358209,24.3283582 C118.358209,24.1791045 118.208955,24.1791045 118.208955,24.0298507 C118.059701,24.0298507 118.059701,23.880597 117.910448,23.880597 L117.313433,23.880597 L116.567164,23.880597 L116.567164,25.2238806 L117.462687,25.2238806 L117.910448,25.2238806 C118.059701,25.2238806 118.059701,25.2238806 118.208955,25.0746269 C118.358209,25.0746269 118.358209,24.9253731 118.358209,24.9253731 C118.358209,24.7761194 118.358209,24.6268657 118.358209,24.6268657 L118.358209,24.6268657 Z M118.059701,22.5373134 L118.059701,22.238806 C118.059701,22.0895522 117.910448,22.0895522 117.910448,22.0895522 C117.910448,22.0895522 117.761194,21.9402985 117.61194,21.9402985 L117.164179,21.9402985 L116.567164,21.9402985 L116.567164,23.2835821 L117.164179,23.2835821 L117.61194,23.2835821 C117.761194,23.2835821 117.761194,23.1343284 117.910448,23.1343284 L118.059701,22.9850746 L118.059701,22.5373134 L118.059701,22.5373134 Z M119.552239,24.4776119 C119.552239,24.6268657 119.552239,24.7761194 119.402985,24.9253731 C119.402985,25.0746269 119.253731,25.2238806 119.104478,25.3731343 C118.955224,25.5223881 118.955224,25.5223881 118.80597,25.6716418 C118.656716,25.8208955 118.507463,25.8208955 118.358209,25.8208955 C118.208955,25.8208955 118.059701,25.9701493 117.761194,25.9701493 L117.164179,25.9701493 L115.671642,25.9701493 L115.373134,25.9701493 C115.373134,25.9701493 115.223881,25.8208955 115.223881,25.6716418 L115.223881,21.3432836 C115.223881,21.1940299 115.223881,21.1940299 115.373134,21.0447761 C115.373134,21.0447761 115.522388,20.8955224 115.671642,20.8955224 L117.164179,20.8955224 C117.462687,20.8955224 117.761194,20.8955224 118.059701,21.0447761 C118.358209,21.0447761 118.507463,21.1940299 118.656716,21.3432836 C118.80597,21.4925373 118.955224,21.641791 119.104478,21.7910448 C119.253731,21.9402985 119.253731,22.0895522 119.253731,22.3880597 L119.253731,22.6865672 C119.253731,22.8358209 119.104478,22.8358209 119.104478,22.9850746 C119.104478,23.1343284 118.955224,23.1343284 118.80597,23.2835821 C118.656716,23.2835821 118.656716,23.4328358 118.507463,23.4328358 C118.656716,23.4328358 118.80597,23.4328358 118.955224,23.5820896 C119.104478,23.5820896 119.253731,23.7313433 119.253731,23.880597 C119.402985,24.0298507 119.402985,24.0298507 119.552239,24.1791045 C119.552239,24.1791045 119.552239,24.3283582 119.552239,24.4776119 L119.552239,24.4776119 Z"></path>
                        <path d="M122.537313,22.0895522 L122.537313,22.0895522 L121.641791,24.1791045 L123.283582,24.1791045 L122.537313,22.0895522 L122.537313,22.0895522 Z M125.223881,25.6716418 L125.223881,25.8208955 L125.223881,25.9701493 L125.074627,25.9701493 L124.776119,25.9701493 L124.477612,25.9701493 L124.328358,25.9701493 L124.179104,25.9701493 C124.179104,25.9701493 124.179104,25.9701493 124.179104,25.8208955 L123.731343,24.7761194 L121.492537,24.7761194 L121.19403,25.6716418 C121.19403,25.6716418 121.19403,25.6716418 121.19403,25.8208955 C121.19403,25.8208955 121.19403,25.8208955 121.044776,25.8208955 L120.895522,25.8208955 L120.597015,25.8208955 L120.298507,25.8208955 L120.149254,25.8208955 C120.149254,25.8208955 120.149254,25.8208955 120.149254,25.6716418 L120.149254,25.5223881 L121.940299,21.1940299 L121.940299,21.0447761 L122.089552,21.0447761 L122.238806,21.0447761 L122.537313,21.0447761 L122.985075,21.0447761 L123.283582,21.0447761 L123.432836,21.0447761 C123.432836,21.0447761 123.432836,21.0447761 123.432836,21.1940299 L125.223881,25.6716418 L125.223881,25.6716418 Z"></path>
                        <path d="M130.746269,25.6716418 L130.746269,25.8208955 C130.746269,25.8208955 130.746269,25.9701493 130.597015,25.9701493 L130.447761,25.9701493 L130.298507,25.9701493 L129.850746,25.9701493 L129.552239,25.9701493 C129.402985,25.9701493 129.402985,25.9701493 129.402985,25.8208955 L129.253731,25.6716418 C129.253731,25.5223881 129.104478,25.5223881 129.104478,25.3731343 L127.61194,23.1343284 C127.462687,22.9850746 127.462687,22.8358209 127.313433,22.6865672 C127.164179,22.5373134 127.164179,22.3880597 127.014925,22.238806 L127.014925,22.238806 L127.014925,22.8358209 L127.014925,23.4328358 L127.014925,25.9701493 L127.014925,25.9701493 C127.014925,25.9701493 127.014925,25.9701493 126.865672,25.9701493 L126.716418,25.9701493 L126.41791,25.9701493 L126.119403,25.9701493 L125.970149,25.9701493 C125.970149,25.9701493 125.970149,25.9701493 125.820896,25.9701493 L125.820896,25.9701493 L125.820896,21.4925373 C125.820896,21.3432836 125.820896,21.3432836 125.970149,21.1940299 C126.119403,21.1940299 126.119403,21.0447761 126.268657,21.0447761 L126.865672,21.0447761 L127.164179,21.0447761 C127.313433,21.0447761 127.313433,21.0447761 127.313433,21.1940299 L127.462687,21.3432836 C127.462687,21.3432836 127.61194,21.4925373 127.61194,21.641791 L128.80597,23.4328358 C128.80597,23.5820896 128.955224,23.5820896 128.955224,23.7313433 C128.955224,23.880597 129.104478,23.880597 129.104478,24.0298507 C129.104478,24.1791045 129.253731,24.1791045 129.253731,24.3283582 C129.253731,24.4776119 129.402985,24.4776119 129.402985,24.6268657 L129.402985,24.6268657 L129.402985,24.0298507 L129.402985,23.4328358 L129.402985,21.0447761 L129.402985,21.0447761 L129.552239,21.0447761 L129.701493,21.0447761 L130,21.0447761 L130.298507,21.0447761 L130.447761,21.0447761 L130.597015,21.0447761 L130.597015,21.0447761 L130.597015,25.6716418 L130.746269,25.6716418 Z"></path>
                        <path d="M136.268657,25.8208955 C136.268657,25.9701493 136.268657,25.9701493 136.268657,25.8208955 C136.268657,25.9701493 136.268657,25.9701493 136.268657,25.8208955 C136.119403,25.9701493 135.970149,25.9701493 135.970149,25.9701493 L135.671642,25.9701493 L135.223881,25.9701493 L135.074627,25.9701493 C135.074627,25.9701493 135.074627,25.9701493 134.925373,25.8208955 L133.134328,23.4328358 L133.134328,25.8208955 L133.134328,25.8208955 C133.134328,25.8208955 133.134328,25.8208955 132.985075,25.8208955 L132.835821,25.8208955 L132.537313,25.8208955 L132.238806,25.8208955 L132.089552,25.8208955 L131.940299,25.8208955 L131.940299,25.8208955 L131.940299,21.1940299 L131.940299,21.1940299 L132.089552,21.1940299 L132.238806,21.1940299 L132.537313,21.1940299 L132.835821,21.1940299 L132.985075,21.1940299 L133.134328,21.1940299 L133.134328,21.1940299 L133.134328,23.2835821 L134.776119,21.1940299 C134.776119,21.1940299 134.776119,21.1940299 134.925373,21.0447761 L135.074627,21.0447761 L135.223881,21.0447761 L135.522388,21.0447761 L135.820896,21.0447761 L135.970149,21.0447761 L136.119403,21.0447761 L136.119403,21.0447761 L136.119403,21.1940299 L135.970149,21.3432836 L134.328358,23.1343284 L136.119403,25.3731343 C136.268657,25.6716418 136.268657,25.8208955 136.268657,25.8208955 L136.268657,25.8208955 L136.268657,25.8208955 Z"></path>
                        <path d="M82.8358209,5.82089552 L78.2089552,5.82089552 C77.9104478,5.07462687 77.4626866,4.62686567 77.1641791,3.88059701 L79.4029851,3.88059701 L82.3880597,3.88059701 L84.1791045,3.88059701 L82.8358209,5.82089552 L82.8358209,5.82089552 Z M84.7761194,10.1492537 L77.1641791,10.1492537 C77.9104478,9.70149254 78.6567164,9.25373134 79.5522388,8.65671642 L78.2089552,7.46268657 L82.6865672,7.46268657 L81.641791,8.65671642 C82.8358209,9.10447761 83.880597,9.70149254 84.7761194,10.1492537 L84.7761194,10.1492537 Z M82.3880597,13.1343284 L78.5074627,13.1343284 L78.5074627,11.641791 L82.3880597,11.641791 L82.3880597,13.1343284 L82.3880597,13.1343284 Z M89.2537313,2.3880597 L89.2537313,2.3880597 L86.4179104,2.3880597 L82.238806,2.3880597 L82.238806,1.79104478 L82.238806,1.49253731 L82.238806,1.49253731 L82.238806,1.49253731 L79.4029851,1.49253731 L79.4029851,1.49253731 L79.4029851,1.49253731 L79.4029851,2.53731343 L74.6268657,2.53731343 L70.4477612,2.53731343 L70.4477612,2.53731343 L70.4477612,4.02985075 L70.4477612,4.02985075 L74.6268657,4.02985075 C74.9253731,4.62686567 75.5223881,5.52238806 75.6716418,5.97014925 L70.7462687,5.97014925 L70.5970149,5.97014925 L70.5970149,16.8656716 L70.7462687,16.8656716 L72.3880597,16.8656716 C73.1343284,16.8656716 73.5820896,16.119403 73.5820896,15.6716418 L73.5820896,7.46268657 L77.9104478,7.46268657 C77.4626866,7.76119403 75.8208955,8.80597015 74.1791045,9.40298507 L74.1791045,11.3432836 C74.1791045,11.3432836 74.7761194,11.1940299 75.8208955,10.7462687 L75.8208955,14.6268657 L75.9701493,14.6268657 L84.4776119,14.6268657 C85.0746269,14.4776119 85.3731343,14.1791045 85.3731343,13.880597 L85.3731343,10.4477612 L85.3731343,10.2985075 C86.4179104,10.8955224 86.7164179,11.3432836 86.7164179,11.3432836 L86.7164179,9.25373134 C85.3731343,8.20895522 83.7313433,7.46268657 83.1343284,7.31343284 L87.3134328,7.31343284 L87.3134328,9.85074627 L87.3134328,14.0298507 C87.3134328,14.6268657 87.3134328,15.0746269 85.9701493,15.0746269 L84.6268657,15.0746269 L84.6268657,16.8656716 L88.0597015,16.8656716 C90,16.8656716 90,16.119403 90,14.9253731 L90,7.31343284 C90,6.86567164 89.7014925,5.97014925 88.5074627,5.82089552 L85.3731343,5.82089552 C85.5223881,5.67164179 85.6716418,5.52238806 85.6716418,5.2238806 C85.8208955,5.07462687 85.8208955,4.7761194 85.9701493,4.7761194 L86.4179104,3.88059701 L90.1492537,3.88059701 L90.1492537,3.88059701 L90.1492537,3.58208955 C90.2985075,2.98507463 90,2.53731343 89.2537313,2.3880597 L89.2537313,2.3880597 Z M98.6567164,14.3283582 L98.6567164,11.1940299 L101.343284,11.1940299 L101.492537,11.1940299 L101.492537,10.4477612 C101.343284,10.1492537 101.19403,9.70149254 100.597015,9.55223881 L98.8059701,9.55223881 L98.8059701,7.6119403 L101.492537,7.6119403 L101.641791,7.6119403 L101.641791,6.86567164 C101.492537,6.56716418 101.343284,6.11940299 100.746269,5.97014925 L98.8059701,5.97014925 L95.5223881,5.97014925 C95.8208955,5.52238806 96.2686567,5.07462687 96.4179104,4.62686567 L97.0149254,4.62686567 L101.343284,4.62686567 L101.492537,4.62686567 L101.492537,3.88059701 C101.343284,3.58208955 101.19403,3.13432836 100.597015,2.98507463 L96.4179104,2.98507463 L97.4626866,2.98507463 C97.761194,2.3880597 97.761194,2.08955224 97.761194,2.08955224 L95.6716418,1.04477612 C94.4776119,4.92537313 92.238806,5.97014925 92.238806,6.11940299 C92.3880597,6.26865672 93.2835821,8.05970149 93.2835821,8.05970149 C93.4328358,8.05970149 93.4328358,7.91044776 93.5820896,7.76119403 L95.8208955,7.76119403 L95.8208955,9.70149254 L93.4328358,9.70149254 L93.2835821,9.70149254 L93.2835821,11.1940299 L93.4328358,11.1940299 L95.8208955,11.1940299 L95.8208955,16.8656716 C95.8208955,17.0149254 95.8208955,17.0149254 95.9701493,17.1641791 C95.9701493,17.1641791 96.119403,17.3134328 96.2686567,17.3134328 L96.5671642,17.3134328 L97.0149254,17.1641791 C97.6119403,16.8656716 98.5074627,16.5671642 99.7014925,16.119403 C100.298507,15.8208955 100.895522,15.5223881 101.641791,15.2238806 L101.641791,13.2835821 C101.044776,13.5820896 99.8507463,14.0298507 99.2537313,14.3283582 C98.9552239,14.1791045 98.8059701,14.1791045 98.6567164,14.3283582 L98.6567164,14.3283582 Z M124.477612,5.2238806 C124.477612,5.2238806 124.477612,5.07462687 124.477612,5.2238806 C124.477612,5.07462687 124.477612,5.07462687 124.477612,5.2238806 L122.38806,4.32835821 L122.238806,4.32835821 C120.895522,6.11940299 118.208955,7.01492537 115.671642,7.6119403 C115.671642,7.6119403 115.671642,7.6119403 115.671642,7.76119403 C116.119403,8.35820896 116.41791,9.10447761 116.567164,9.70149254 L116.567164,9.70149254 L116.716418,9.70149254 C118.059701,9.40298507 118.656716,9.10447761 118.656716,9.10447761 L118.656716,17.1641791 L118.80597,17.1641791 L120.597015,17.1641791 L120.597015,17.1641791 C121.19403,17.1641791 121.641791,16.5671642 121.641791,15.9701493 L121.641791,7.91044776 C122.985075,7.1641791 123.58209,6.56716418 124.179104,5.82089552 L124.477612,5.2238806 L124.477612,5.2238806 Z M135.373134,6.56716418 L133.731343,6.56716418 L130.746269,6.56716418 L124.179104,6.56716418 L124.179104,6.56716418 L124.179104,8.20895522 L124.179104,8.20895522 L130.746269,8.20895522 L130.746269,14.0298507 C130.746269,14.9253731 129.552239,14.7761194 128.059701,14.7761194 L126.119403,14.7761194 L126.119403,16.8656716 L131.19403,16.8656716 C132.38806,16.8656716 133.731343,16.119403 133.731343,14.6268657 L133.731343,8.20895522 L136.268657,8.20895522 L136.268657,8.20895522 L136.268657,7.6119403 C136.268657,7.01492537 135.820896,6.56716418 135.373134,6.56716418 L135.373134,6.56716418 Z M105.074627,6.71641791 L110,6.71641791 L110,8.35820896 L105.074627,8.35820896 L105.074627,6.71641791 L105.074627,6.71641791 Z M105.074627,3.58208955 L110,3.58208955 L110,5.07462687 L105.074627,5.07462687 L105.074627,3.58208955 L105.074627,3.58208955 Z M107.313433,14.0298507 C106.41791,14.3283582 105.671642,14.6268657 105.074627,14.6268657 L105.074627,10 L112.835821,10 L112.985075,10 L112.985075,3.13432836 C112.985075,2.68656716 112.686567,1.94029851 111.492537,1.94029851 L109.253731,1.94029851 L105.223881,1.94029851 L102.38806,1.94029851 L102.38806,16.7164179 C102.38806,16.8656716 102.38806,16.8656716 102.537313,17.0149254 L102.835821,17.1641791 L102.985075,17.1641791 C103.432836,17.0149254 104.029851,16.8656716 105.074627,16.7164179 C106.268657,16.4179104 107.164179,16.2686567 107.61194,16.119403 L107.313433,14.0298507 L107.313433,14.0298507 L107.313433,14.0298507 Z M116.716418,5.97014925 L116.716418,5.97014925 L116.716418,5.97014925 C119.552239,5.37313433 121.791045,3.73134328 123.283582,2.23880597 L123.58209,1.64179104 L123.58209,1.64179104 L123.58209,1.64179104 L121.641791,0.895522388 L121.492537,0.895522388 C120.149254,2.53731343 117.910448,3.58208955 115.820896,3.88059701 C115.820896,3.88059701 115.820896,3.88059701 115.820896,4.02985075 C116.119403,4.62686567 116.41791,5.2238806 116.716418,5.97014925 C116.567164,5.97014925 116.567164,5.97014925 116.716418,5.97014925 L116.716418,5.97014925 Z M111.343284,13.880597 C113.283582,11.9402985 113.432836,10.5970149 113.432836,10.5970149 L111.343284,10.5970149 C110.298507,12.5373134 110,12.3880597 109.850746,12.5373134 C109.701493,12.6865672 108.955224,10.7462687 108.955224,10.7462687 L106.716418,10.7462687 C107.313433,12.6865672 108.358209,13.880597 108.358209,13.880597 L108.358209,14.0298507 C110.746269,17.0149254 113.731343,17.1641791 113.731343,17.1641791 L113.731343,14.9253731 C111.791045,14.7761194 111.343284,13.880597 111.343284,13.880597 L111.343284,13.880597 Z M125.373134,4.02985075 L135.373134,4.02985075 L135.522388,4.02985075 L135.522388,3.43283582 C135.522388,2.68656716 134.925373,2.3880597 134.477612,2.3880597 L134.477612,2.3880597 L125.522388,2.3880597 L125.522388,2.3880597 L125.373134,4.02985075 L125.373134,4.02985075 L125.373134,4.02985075 Z M28.5074627,12.0895522 C28.5074627,12.0895522 27.3134328,13.4328358 24.4776119,14.4776119 L24.4776119,17.0149254 C24.4776119,17.0149254 28.2089552,15.8208955 30.5970149,13.4328358 L28.5074627,12.0895522 L28.5074627,12.0895522 Z M28.0597015,7.31343284 L39.7014925,7.31343284 L39.7014925,9.70149254 L28.0597015,9.70149254 L28.0597015,7.31343284 L28.0597015,7.31343284 Z M35.6716418,11.3432836 L42.6865672,11.3432836 L42.8358209,11.3432836 L42.8358209,6.71641791 C42.8358209,6.11940299 42.3880597,5.82089552 41.641791,5.67164179 L35.6716418,5.67164179 L32.6865672,5.67164179 L25.2238806,5.67164179 L25.2238806,5.67164179 L25.2238806,11.3432836 L25.2238806,11.3432836 L32.6865672,11.3432836 L32.6865672,14.3283582 C32.6865672,14.7761194 32.5373134,15.0746269 31.641791,15.0746269 L30.1492537,15.0746269 L30.1492537,17.0149254 L33.880597,17.0149254 C35.5223881,17.0149254 35.6716418,16.119403 35.6716418,15.2238806 L35.6716418,11.3432836 L35.6716418,11.3432836 Z M8.80597015,1.34328358 L8.80597015,1.34328358 L5.82089552,1.34328358 L5.82089552,1.34328358 L5.82089552,1.34328358 L5.82089552,5.67164179 L0.895522388,5.67164179 L0.895522388,5.67164179 L0.895522388,7.6119403 L0.895522388,7.6119403 L5.82089552,7.6119403 L5.82089552,12.6865672 C4.47761194,13.1343284 2.8358209,13.5820896 0.895522388,14.0298507 L0.895522388,16.4179104 C3.28358209,15.8208955 5.82089552,15.0746269 5.82089552,15.0746269 L5.82089552,17.0149254 L5.82089552,17.0149254 L7.31343284,17.0149254 L7.31343284,17.0149254 C8.05970149,16.8656716 8.65671642,16.4179104 8.65671642,15.8208955 L8.65671642,2.53731343 L8.80597015,1.34328358 L8.80597015,1.34328358 L8.80597015,1.34328358 Z M20.8955224,5.2238806 L18.6567164,3.88059701 C17.1641791,5.82089552 15.9701493,6.41791045 14.7761194,7.01492537 L14.7761194,1.49253731 L14.7761194,1.49253731 L11.9402985,1.49253731 L11.9402985,1.49253731 L11.9402985,1.49253731 L11.9402985,14.9253731 C11.9402985,15.6716418 12.0895522,16.119403 12.5373134,16.5671642 C12.9850746,17.0149254 13.7313433,17.1641791 14.6268657,17.1641791 L14.7761194,17.1641791 L17.9104478,17.1641791 L18.5074627,17.1641791 C20.8955224,17.0149254 20.7462687,15.0746269 20.7462687,12.6865672 L20.7462687,12.6865672 L18.0597015,12.6865672 C18.0597015,14.6268657 18.0597015,14.7761194 17.6119403,15.0746269 C17.4626866,15.2238806 17.1641791,15.2238806 17.0149254,15.2238806 C17.0149254,15.2238806 17.0149254,15.2238806 16.8656716,15.2238806 L15.8208955,15.2238806 C15.0746269,15.2238806 14.7761194,14.9253731 14.7761194,14.4776119 L14.7761194,10.1492537 C19.4029851,7.46268657 20.8955224,5.2238806 20.8955224,5.2238806 L20.8955224,5.2238806 Z M37.1641791,13.4328358 C40,16.119403 43.5820896,17.0149254 43.5820896,17.0149254 L43.5820896,14.4776119 C41.1940299,14.0298507 39.2537313,12.0895522 39.2537313,12.0895522 L37.1641791,13.4328358 L37.1641791,13.4328358 Z M65.5223881,8.05970149 L62.6865672,8.05970149 C62.238806,9.25373134 61.3432836,10.2985075 60.2985075,10.7462687 C60.1492537,10.7462687 59.5522388,10.1492537 59.1044776,9.25373134 C58.6567164,8.50746269 58.5074627,7.6119403 58.5074627,7.6119403 L55.9701493,7.6119403 C56.7164179,6.71641791 57.3134328,5.82089552 57.9104478,4.62686567 L63.4328358,4.62686567 L63.4328358,6.86567164 L66.4179104,6.86567164 L66.5671642,6.86567164 L66.5671642,4.02985075 C66.5671642,3.28358209 66.119403,2.8358209 65.2238806,2.8358209 L64.6268657,2.8358209 L64.6268657,2.8358209 L58.8059701,2.8358209 C58.9552239,2.3880597 59.1044776,1.79104478 59.2537313,1.34328358 L56.5671642,1.34328358 C56.5671642,1.34328358 56.4179104,1.94029851 56.119403,2.8358209 L47.9104478,2.8358209 L47.9104478,2.8358209 L47.9104478,6.71641791 L47.9104478,6.71641791 L49.4029851,6.71641791 C50.2985075,6.71641791 50.7462687,6.26865672 50.7462687,5.82089552 L50.7462687,4.47761194 L55.0746269,4.47761194 C53.7313433,6.41791045 51.3432836,8.95522388 47.0149254,10.4477612 L47.0149254,12.9850746 C47.0149254,12.9850746 48.8059701,12.5373134 51.1940299,11.3432836 L51.1940299,16.4179104 C51.1940299,16.4179104 51.1940299,16.5671642 51.3432836,16.7164179 C51.4925373,16.8656716 51.641791,16.8656716 51.7910448,16.8656716 L52.0895522,16.8656716 C54.3283582,16.4179104 55.5223881,16.119403 57.9104478,15.3731343 L57.9104478,15.3731343 L57.9104478,13.5820896 L57.9104478,13.5820896 L57.9104478,13.5820896 C56.4179104,13.880597 55.6716418,14.1791045 54.1791045,14.4776119 L54.1791045,9.40298507 C54.7761194,8.80597015 55.3731343,8.20895522 55.9701493,7.6119403 C55.9701493,8.20895522 57.0149254,15.2238806 66.7164179,16.8656716 L66.7164179,14.3283582 C64.0298507,14.0298507 62.0895522,12.3880597 62.0895522,12.3880597 C65.0746269,10.8955224 65.5223881,8.05970149 65.5223881,8.05970149 L65.5223881,8.05970149 Z M42.8358209,2.68656716 L42.8358209,2.68656716 L35.6716418,2.68656716 L35.6716418,1.49253731 L35.6716418,1.49253731 L32.8358209,1.49253731 L32.8358209,1.49253731 L32.8358209,1.49253731 L32.8358209,2.68656716 L24.1791045,2.68656716 L24.1791045,2.68656716 L24.1791045,4.32835821 L24.1791045,4.32835821 L32.8358209,4.32835821 L35.8208955,4.32835821 L44.0298507,4.32835821 L44.1791045,4.32835821 L44.1791045,3.43283582 C43.880597,3.13432836 43.5820896,2.68656716 42.8358209,2.68656716 L42.8358209,2.68656716 Z"></path>
                    </g>
                </g>
            </g>
        </g>
    </g>
</svg>