<?xml version="1.0" encoding="UTF-8"?>
<svg width="200px" height="50px" viewBox="0 0 200 50" version="1.1" xmlns="http://www.w3.org/2000/svg" xmlns:xlink="http://www.w3.org/1999/xlink">
    <!-- Generator: Sketch 42 (36781) - http://www.bohemiancoding.com/sketch -->
    <title>svg</title>
    <desc>Created with Sketch.</desc>
    <defs></defs>
    <g id="Page-1" stroke="none" stroke-width="1" fill="none" fill-rule="evenodd">
        <g id="svg">
            <g id="17-FDB">
                <g id="Layer1000">
                    <path d="M144.03227,8.70466837 C144.077653,8.58701531 144.155536,8.46813776 144.231964,8.37339286 C144.414974,8.12642857 144.598648,7.98545918 144.901199,7.97589286 C145.195842,7.96484694 145.519005,8.01566327 145.806148,7.95028061 C145.929617,7.92591837 146.638418,7.52423469 146.638418,7.42053571 C146.638418,7.45283163 147.068214,7.23688776 147.112347,7.21938776 C147.323903,7.14068878 147.558163,7.1752551 147.732245,7.32433673 C147.949617,7.50507653 147.920255,7.79306122 147.907781,8.05668367 L147.907781,8.08686224 C147.892372,8.35132653 147.926097,8.69071429 147.86676,8.95433673 C147.783673,9.33706633 147.453827,9.39369898 147.160663,9.52446429 C146.762526,9.70061224 146.368138,9.95341837 145.9825,10.1664286 C145.582934,10.3852806 145.232474,10.6674235 144.77273,10.7438265 C144.423724,10.7981888 144.119515,10.6343112 144.082857,10.2919898 C144.018316,9.72936224 143.80676,9.25709184 144.03227,8.70466837 L144.03227,8.70466837 Z M147.45676,13.524898 C147.438418,13.5821684 147.414898,13.626301 147.385536,13.6733673 C147.343699,13.7475 147.295179,13.8166327 147.259158,13.8965816 C147.184184,14.053801 147.175434,14.2116327 147.062372,14.349898 C146.883087,14.56 146.637806,14.6965816 146.402704,14.8427551 C146.002296,15.0918112 144.438316,15.9409439 144.190102,15.1292857 C144.101199,14.8369388 144.128469,14.4158929 144.124719,14.1066837 C144.122679,13.7687245 144.128469,13.4339031 144.149694,13.1040816 C144.155536,12.9753827 144.155536,12.8152806 144.19676,12.6911735 C144.309821,12.331148 144.525128,12.201199 144.901199,12.2747194 C145.022372,12.3046939 145.138367,12.3958929 145.258087,12.4415051 C145.600408,12.5633163 145.972092,12.5339541 146.334413,12.54875 C146.613444,12.5633163 147.073418,12.5075 147.307653,12.6734694 C147.581684,12.8689796 147.566913,13.2383929 147.45676,13.524898 L147.45676,13.524898 Z M141.135842,31.1928827 C141.460459,31.5779082 141.802781,31.9048214 142.246531,32.1582398 C142.435995,32.267551 142.569694,32.2785714 142.783316,32.2573469 C143.004464,32.2360969 143.306378,32.2904592 143.51648,32.2285969 C143.672245,32.1742602 143.743469,32.0464031 143.860281,31.9245918 C144.045383,31.7365816 144.269439,31.5976786 144.459745,31.4308929 C144.754184,31.1708163 144.875587,30.7910204 145.107551,30.4876276 C145.373444,30.1365561 145.655587,29.8546173 145.849464,29.4358673 C146.072883,28.9517602 146.446658,28.3897449 146.563469,27.8631378 C146.613444,27.6463776 146.638418,27.3363265 146.547423,27.1308163 C146.278622,26.5386224 145.460281,27.3848469 145.258087,27.6426276 C144.917423,28.0642857 144.549286,28.3955867 144.108673,28.71375 C143.737628,28.9811224 143.358648,29.0927296 143.328469,28.5103061 C143.301173,27.8556633 143.353444,27.2203571 143.291811,26.5694388 C143.268291,26.2829082 143.404056,26.0097194 143.404056,25.7246684 C143.405587,25.3802551 143.462143,25.0370918 143.462143,24.6970663 C143.462143,24.2577041 143.619362,23.8758163 143.619362,23.4475 C143.618597,22.7628571 143.619362,22.0813265 143.619362,21.3966837 C143.619362,20.9639796 143.601658,20.5135969 143.661199,20.1023469 C143.718469,19.7240051 143.753878,19.3544133 143.780306,18.9777296 C143.803622,18.7014031 143.777194,18.3767857 143.92648,18.1306633 C144.179898,17.7208673 144.685255,17.6479847 145.121505,17.6319643 C145.488801,17.6107143 145.832602,17.4564286 146.161786,17.3233673 C146.556173,17.1617857 146.766276,16.9231633 147.20273,16.9729082 C147.558163,17.0112245 147.827806,17.057449 148.021684,17.40125 C148.175128,17.6804592 148.203036,18.0057143 148.215536,18.3209694 C148.238444,18.9248214 148.23551,21.0674745 147.153367,20.431352 C146.955128,20.3139031 146.788342,20.1494133 146.602398,20.014898 C146.342321,19.8260459 146.124311,19.7115051 145.806148,19.6629847 C145.538163,19.6196939 145.142117,19.5197449 144.916607,19.7173469 C144.328163,20.22125 145.82676,21.0279082 146.099337,21.3004847 C146.234464,21.4356122 146.378342,21.5949235 146.486429,21.758801 C146.568673,21.8762245 146.679643,22.2112755 146.681735,22.3566071 C146.6825,22.5977296 146.40125,22.7982653 146.252781,22.9583673 C146.089745,23.1345408 145.944209,23.3527551 145.788648,23.5209949 C145.641658,23.6782143 145.052577,24.1960714 145.639362,24.0382398 C145.918597,23.9676531 146.161786,23.7906633 146.416658,23.6642602 C146.775842,23.4931122 147.021148,23.2821684 147.429694,23.224898 C147.740995,23.1764031 148.026046,23.3227806 148.273622,23.5166327 C148.771709,23.9022704 149.144005,24.3701531 149.608342,24.8051276 C149.930893,25.1120663 150.21949,25.4522959 150.519133,25.7835969 C150.669898,25.9576786 150.822526,26.1280102 150.986403,26.2947959 C151.214184,26.5269643 151.544031,26.6312755 151.769541,26.8640816 C151.951735,27.0535714 152.090408,27.2784439 152.281556,27.4604337 C152.704668,27.8512755 153.040332,28.1305102 153.577347,28.3281122 C154.017959,28.4786735 154.52625,28.4786735 154.983291,28.4001531 C156.010893,28.2098469 157.029745,28.1540306 158.048597,27.9541327 C158.432781,27.8843878 159.799158,27.6867857 159.558852,27.0439796 C159.54199,27.0108673 159.53324,26.9919388 159.519286,26.9588265 C159.31648,26.5929592 158.826531,26.5269643 158.469617,26.4072194 C158.025051,26.2558418 157.553444,26.1140561 157.084923,26.0274235 C156.660357,25.9495408 156.219541,25.8048214 155.820561,25.6240816 C155.567985,25.5116582 155.307092,25.4308673 155.065536,25.291352 C154.814209,25.156199 154.613699,24.9652551 154.355077,24.8344898 C153.627117,24.466352 152.884592,24.176301 152.219719,23.6459439 C151.662296,23.1970153 151.150281,22.6776786 150.532474,22.3053827 C150.174719,22.0848724 149.530485,21.8381122 149.476122,21.3502551 C149.434286,21.0058418 149.505485,20.7193367 149.680408,20.4417602 C149.918393,20.0619643 150.133495,19.6615306 150.234286,19.2207143 C150.315077,18.8690306 150.368597,18.3047449 150.28426,17.9588776 C150.208469,17.6531888 149.995459,17.4564286 149.745791,17.2881633 C149.430536,17.0743367 149.037602,16.9171173 149.239592,16.4983673 C149.391582,16.17375 149.791173,16.086301 150.094566,15.9409439 C150.365663,15.8029082 150.901862,15.4289286 150.942245,15.1107653 C150.993061,14.6986735 150.798367,14.2447449 150.566199,13.9207398 C150.352551,13.622551 150.094566,13.3133418 150.052704,12.935 C150.029184,12.7719643 150.043954,12.5949745 150.094566,12.4415051 C150.140153,12.307602 150.331097,12.1160459 150.331097,11.9727806 L150.331097,11.8280612 L150.380459,11.8280612 C150.401684,11.8280612 150.628673,11.1044898 150.649898,11.0295153 C150.726327,10.7246684 150.776301,10.4058929 150.934337,10.1356122 C151.178163,9.72352041 151.64023,9.50010204 151.888418,9.08594388 C152.126429,8.69364796 152.281556,8.17785714 152.304872,7.71372449 C152.357143,6.65010204 151.828265,5.62022959 151.107577,4.86790816 C150.365663,4.09433673 149.108827,4.02604592 148.124541,3.78658163 C147.730791,3.68308673 147.467168,3.53255102 147.090281,3.76762755 C146.629668,4.05395408 146.424796,4.59762755 146.183648,5.05094388 C145.996454,5.40408163 145.536709,5.76931122 145.187704,5.93234694 C144.820408,6.09767857 144.272347,6.44145408 143.860281,6.41647959 C143.450485,6.38627551 143.265357,5.94193878 142.897219,5.8530102 C142.891403,5.8530102 142.750434,5.64959184 142.695255,5.62022959 C142.58426,5.5702551 142.424974,5.55255102 142.305867,5.5665051 C142.027474,5.59293367 141.814439,5.80303571 141.758648,6.07561224 C141.680765,6.42229592 141.889413,6.67655612 141.989362,6.99535714 C142.048903,7.18920918 142.048903,7.38596939 142.070765,7.59170918 C142.091403,7.83408163 142.171556,8.05895408 142.216327,8.29260204 C142.337526,8.87790816 142.286913,9.50821429 142.364796,10.0922959 C142.450587,10.7438265 142.364796,11.4674235 142.364796,12.1204082 L142.364796,14.1729082 C142.364796,14.5202296 142.384566,14.8735714 142.364796,15.2254847 C142.35375,15.4751531 142.285459,15.7014796 142.269209,15.9578061 C142.229439,16.6203827 142.135536,17.2544388 142.135536,17.9184694 C142.135536,18.2047959 142.062857,18.4502806 142.048903,18.7220153 C142.018724,19.3494133 142.070765,19.9576276 141.995179,20.5798214 C141.916684,21.2232398 141.944592,21.8953827 141.909184,22.5417092 C141.865255,23.4556122 141.694719,24.3518367 141.594158,25.2605357 C141.545638,25.6592857 141.547908,26.0655357 141.451709,26.4571939 C141.337832,26.9140561 141.216633,27.3694388 141.135842,27.8396173 C141.026301,28.4888776 140.994668,29.0985459 140.68398,29.6797194 C140.379974,30.2490051 140.782474,30.7683163 141.135842,31.1928827 L141.135842,31.1928827 Z" id="path4" fill="#1B1918"></path>
                    <path d="M134.441786,26.8153571 C134.322066,27.0806378 133.585357,27.7336224 133.428776,27.1657908 C133.342143,26.8499235 133.788801,26.3951531 133.989923,26.2033673 C134.089872,26.1042602 134.397015,25.7965051 134.549031,25.9360204 C134.730383,26.0955102 134.526327,26.6331633 134.441786,26.8153571 Z M139.713852,26.1954592 C139.59477,25.7752551 139.196633,25.7171684 138.822041,25.7752551 C138.344566,25.8450255 137.878138,26.0197194 137.407347,26.091148 C137.070842,26.1431888 136.555918,26.1783929 136.287704,25.9455867 C135.980791,25.6805102 136.018265,25.2118112 136.245867,24.9107143 C136.600051,24.4390816 136.937781,24.64625 137.414643,24.7151786 C137.623265,24.7459949 137.865638,24.8003571 138.077219,24.7584949 C138.516556,24.6858163 138.933648,24.4228316 138.868265,23.9241327 C138.822041,23.5539031 138.565714,23.2305357 138.34602,22.9360969 C138.10449,22.6083418 137.829617,22.5188265 137.455663,22.4188776 C137.292602,22.3763776 137.128112,22.2910204 136.972347,22.2720663 C136.754133,22.2404082 136.572143,22.3470153 136.364133,22.2139796 C136.187959,22.0994388 136.114464,21.8899745 136.178393,21.6850765 C136.287704,21.3340051 136.628571,20.9937755 136.951122,20.8571684 C137.413163,20.6639286 137.906888,20.5008929 138.351224,20.2834949 C138.603189,20.1614796 138.913852,19.9763776 138.986531,19.6775765 C139.035051,19.4814286 138.980689,19.2353061 138.949872,19.0553827 C138.885332,18.6520663 138.706684,18.2891071 138.357066,18.0635969 C138.182143,17.9453316 138.049923,17.9145153 137.837755,17.8968112 C137.45648,17.8703827 136.829923,17.6317347 137.087704,17.1270153 C137.259719,16.7855102 137.577679,16.4327806 137.809847,16.1206378 C138.050765,15.8004082 138.311454,15.5594898 138.29023,15.1290816 C138.277092,14.9402041 138.29023,14.7219898 138.230051,14.5502041 C138.182143,14.4002806 138.077219,14.2578571 138.010357,14.1175255 C137.89875,13.8972194 137.790051,13.665051 137.704056,13.4320408 C137.646811,13.2602551 137.654082,13.0899235 137.582041,12.9275 C137.407347,12.505 137.001097,12.1524745 136.697704,11.821199 C136.328929,11.4120408 135.891862,11.2056888 135.376097,11.0784439 C135.010459,10.9866327 134.756199,10.8067092 134.925918,10.426301 C135.113112,10.0119133 135.390893,9.56318878 135.737577,9.25752551 C136.038673,8.99306122 136.361224,8.70446429 136.74102,8.56119898 C136.912194,8.49875 137.095,8.45979592 137.275128,8.52517857 C137.534974,8.61910714 137.577679,8.76528061 137.56602,9.01367347 C137.549133,9.32811224 137.568929,9.68645408 137.463776,9.99214286 C137.394005,10.1978571 137.280944,10.4431633 137.474796,10.6180612 C137.704056,10.828801 138.12051,10.6796939 138.395995,10.6517857 C139.011505,10.5841327 139.865255,10.7346684 140.425587,10.4431633 C140.942806,10.1714286 140.865561,9.40451531 140.730434,8.94163265 C140.654847,8.68010204 140.558648,8.43252551 140.494719,8.22701531 C140.295638,7.59232143 139.87773,7.33142857 139.284082,7.08530612 C139.093138,7.00596939 138.92051,6.95244898 138.708954,6.93994898 C138.521556,6.93267857 138.352679,6.93994898 138.188827,6.84668367 C137.861913,6.67260204 137.623265,6.31193878 137.544566,5.95339286 C137.471276,5.60752551 137.423367,5.34806122 137.172245,5.10862245 C136.927602,4.87956633 136.710816,4.64594388 136.549235,4.35130102 C136.437628,4.14556122 136.290638,3.96272959 136.187143,3.76076531 C135.952041,3.29579082 135.71926,2.79979592 135.125612,2.73670918 C134.720179,2.68673469 134.413878,2.96076531 134.137781,3.22436224 C133.985561,3.37428571 133.854184,3.53441327 133.80273,3.74244898 C133.732985,3.98336735 133.793163,4.15742347 133.911429,4.34691327 C134.084898,4.62530612 134.211913,4.89704082 134.23398,5.23584184 C134.277908,6.00563776 133.878316,6.69903061 133.488954,7.33142857 C133.394209,7.48135204 133.27301,7.63043367 133.163699,7.7759949 C132.822832,8.25635204 132.463648,8.74403061 132.166071,9.25232143 C131.939107,9.63502551 131.701122,9.99214286 131.490179,10.3719388 C131.062066,11.1432143 130.38699,11.7755867 129.915357,12.5227041 C129.77648,12.7453061 129.59574,12.9347959 129.445204,13.1684184 C129.270281,13.4445153 129.149082,13.7435459 128.983138,14.0175765 C128.744515,14.4121429 128.493189,14.7617602 128.347015,15.2069643 C128.277883,15.4051786 128.189184,15.8004082 128.252883,16.0090306 C128.321403,16.2330867 128.541709,16.2162245 128.734923,16.2258163 C129.116199,16.2382908 129.47102,16.1618878 129.684031,15.8260204 C129.935153,15.4235204 130.165026,15.0224745 130.439056,14.6345408 C130.768265,14.1689541 131.236148,13.9096939 131.676122,13.542398 C132.089031,13.2015306 132.399719,12.7453061 132.830944,12.4227551 C133.043138,12.2611735 133.275918,12.14 133.537449,12.0981378 C134.472602,11.9505102 134.812015,13.032449 134.888444,13.7824745 C134.914056,14.0352551 134.962551,14.3063776 134.909668,14.5597959 C134.856786,14.842551 134.630638,14.95125 134.397015,15.0907653 C133.89977,15.3845663 133.342143,15.5815561 132.905077,15.9678061 C132.727245,16.1264796 132.640638,16.372602 132.675204,16.6106122 C132.711837,16.8494388 132.902781,16.9543878 133.138699,17.0235204 C133.553699,17.1432398 133.975357,17.1078571 134.356633,17.3620918 C134.537372,17.4803571 134.739974,17.6529847 134.787857,17.8793367 C134.869286,18.2964031 134.399923,18.8194643 134.09426,19.0295663 C133.879158,19.178648 133.646148,19.3021429 133.40898,19.4035459 C133.172449,19.501199 132.957959,19.6613265 132.716224,19.7589796 C132.498214,19.8493622 132.26602,19.8809949 132.037602,19.9763776 C131.824592,20.0661224 131.474158,20.2122959 131.418342,20.4663265 C131.352117,20.7580612 131.662806,20.9600255 131.855408,21.109949 C132.213776,21.3935714 132.631888,21.6365561 133.071046,21.7490051 C133.543495,21.8599745 134.043648,21.9178827 134.421173,22.2572704 C134.736429,22.535051 134.711429,23.0175255 134.483648,23.3429847 C134.247092,23.6934184 133.760893,23.8079337 133.362755,23.7933673 C132.910918,23.7735969 132.479056,23.3333929 132.146939,23.0404337 C131.834796,22.7745153 131.524745,22.565051 131.164923,22.8684184 C130.856964,23.1278827 130.965026,23.5141327 131.062066,23.8366837 C131.166378,24.1996173 131.233852,24.5704592 131.352117,24.9333929 C131.477679,25.3109184 131.510791,25.7523469 131.726735,26.088852 C131.840638,26.2556378 132.006582,26.3408163 132.157347,26.472398 C132.321837,26.6317092 132.472372,26.8116071 132.650842,26.9527806 C132.977755,27.2009949 133.170995,27.5845408 132.656046,27.7196684 C132.472372,27.7702806 132.262296,27.7702806 132.075077,27.8165051 C131.855408,27.8768878 131.640944,27.9657908 131.422704,28.0178571 C130.827602,28.1692347 130.21875,28.1881888 129.61199,28.196301 C129.223418,28.2021429 128.519005,28.1773724 128.487985,28.7458163 C128.465281,29.12625 128.793648,29.4862755 129.079337,29.6992857 C129.469337,29.9820663 129.965969,30.1253061 130.38324,30.3383418 C130.718291,30.5080357 131.03125,30.7181378 131.422704,30.7408418 C131.84875,30.7681122 132.101531,30.5705102 132.457602,30.3751786 C132.971097,30.1055357 133.597015,29.9805867 134.07301,29.6486735 C134.272908,29.5068878 134.433036,29.3392602 134.642296,29.2189031 C135.153495,28.933852 135.704464,28.6650255 136.237117,28.4592857 C136.982781,28.1808929 137.72176,27.8460714 138.445969,27.5220663 C138.960077,27.293648 139.913546,26.906352 139.713852,26.1954592 L139.713852,26.1954592 Z" id="path6" fill="#1B1918"></path>
                    <path d="M167.382117,23.6730102 C167.362347,23.5576531 167.329235,23.4475 167.274898,23.3379847 C167.121429,23.0339541 166.782857,22.7782653 166.443444,22.9854592 C166.305383,23.0566582 166.244362,23.1918112 166.202526,23.331301 C166.108393,23.641352 166.151097,23.9807653 166.072372,24.2937245 C165.989515,24.6250255 165.824184,24.9196684 165.759617,25.2603316 C165.722143,25.4593878 165.734643,25.6166071 165.654464,25.8048214 C165.576582,25.9964031 165.481224,26.1858929 165.389388,26.3680867 C165.300485,26.5421684 165.279872,26.7670408 165.171173,26.9300765 C165.098495,27.0439796 164.995638,27.1410204 164.907347,27.2511735 C164.67977,27.5456122 164.320561,27.8975 164.302883,28.2854337 C164.285995,28.6283673 164.28227,29.0581633 164.417398,29.3659184 C164.494643,29.5599745 164.592934,29.7480102 164.661429,29.9477041 C164.749515,30.2025765 164.79949,30.4039286 164.940459,30.6285969 C165.015434,30.7564541 165.015434,30.8680612 165.118903,30.9848724 C165.342347,31.2405867 165.485587,31.3457398 165.827092,31.2170408 C166.172321,31.0973214 166.325791,30.8122449 166.526531,30.5126276 C166.757015,30.160102 166.972959,29.7979847 167.155153,29.4167347 C167.334439,29.0369133 167.348393,28.5815306 167.424184,28.1752806 C167.454158,28.0216071 167.51227,27.8725255 167.536429,27.713852 C167.594515,27.3694388 167.672398,27.0262755 167.656148,26.6781378 C167.642194,26.3387245 167.548291,25.9964031 167.500383,25.6592857 C167.439592,25.2678061 167.4425,24.8667602 167.424184,24.4780102 C167.416071,24.2181378 167.429184,23.9380867 167.382117,23.6730102 L167.382117,23.6730102 Z" id="path8" fill="#1B1918"></path>
                    <path d="M161.664235,24.9319388 C162.150434,25.0679082 162.555867,24.6110714 162.837168,24.2981122 C162.995204,24.1188265 163.130969,23.9241327 163.301505,23.7602551 C163.637168,23.4379337 164.018444,23.2307398 164.26602,22.8244898 C164.434898,22.5460969 164.581071,22.3697194 164.830102,22.1692092 C164.960255,22.0663265 165.066658,21.931199 165.196786,21.8343878 C165.295077,21.7629592 165.409796,21.7196429 165.505179,21.646148 C165.734439,21.4581122 165.866658,21.1672194 166.092168,20.9710714 C166.239158,20.8448724 166.375765,20.7580612 166.502781,20.6133418 C166.65125,20.4436224 166.825332,20.2849745 166.981071,20.1219133 C167.236582,19.8597704 167.545153,19.6871429 167.82273,19.4520663 C167.921224,19.3689796 167.988061,19.2529847 168.06301,19.1472194 C168.315816,18.7703316 168.641046,18.5117092 168.951939,18.1943622 C169.10602,18.0307143 169.25074,17.8909949 169.355077,17.6890051 C169.47125,17.4562245 169.645332,17.2336224 169.753189,17.0081122 C169.900204,16.6805612 169.906862,16.2603571 169.950791,15.9099235 C170.005153,15.4839031 169.894362,15.1253316 169.68574,14.753648 C169.49977,14.4377551 169.386709,14.1395918 169.146429,13.8582653 C168.890102,13.558648 168.621276,13.2721173 168.312066,13.0326531 C168.118189,12.8783673 167.81398,12.6638776 167.761939,12.3956888 C167.676556,11.9682143 168.115918,11.4672194 168.419923,11.2240051 C168.569209,11.1057398 168.749745,11.0109949 168.913622,10.9081122 C169.517474,10.5364286 170.006607,10.0339796 170.439286,9.47428571 C170.620051,9.23045918 170.67875,8.91165816 170.855128,8.65969388 C170.955689,8.50915816 171.07398,8.40255102 171.145383,8.22701531 C171.31051,7.8619898 171.264286,7.33163265 171.179745,6.93788265 C171.143112,6.73653061 171.068138,6.53369898 170.974235,6.34359694 C170.881582,6.15410714 170.772041,5.97255102 170.658342,5.81096939 C170.487806,5.57005102 170.402653,5.27040816 170.26898,5.00594388 C170.155077,4.78252551 169.972883,4.64010204 169.817959,4.45936224 C169.654898,4.27798469 169.571199,4.05456633 169.380051,3.89382653 C169.120816,3.67852041 168.815128,3.5477551 168.564643,3.33326531 C168.364949,3.17086735 168.156301,2.92556122 167.911633,2.83227041 C167.725077,2.76461735 167.50102,2.72211735 167.307781,2.67882653 C167.152857,2.64487245 167.038342,2.65237245 166.884668,2.71109694 C166.587321,2.82854592 166.375765,3.12316327 166.206071,3.38533163 C166.020128,3.67038265 166.034898,4.1147449 166.069464,4.44104592 C166.119235,4.93681122 166.156097,5.48841837 166.343291,5.95566327 C166.416173,6.14890306 166.480714,6.26780612 166.410128,6.47436224 C166.297066,6.78505102 166.103189,7.07885204 165.956199,7.37265306 C165.801888,7.68270408 165.599923,7.97795918 165.381071,8.24969388 C165.179719,8.49206633 165.032908,8.7727551 164.873418,9.04533163 C164.716199,9.29790816 164.445918,9.53382653 164.37699,9.81140306 C164.373265,9.82035714 164.127143,9.97964286 164.089031,10.0304592 C164.00074,10.1612245 163.952423,10.3184184 163.856862,10.4460714 C163.712755,10.6517857 163.549107,10.8816837 163.471837,11.121148 C163.391046,11.3820408 163.34773,11.6956378 163.307347,11.9682143 C163.266327,12.2753316 163.203852,12.5616582 163.236122,12.8760714 C163.332321,13.9332398 164.987321,13.3139796 165.544949,13.1773724 C165.929133,13.0847194 166.26625,13.1015816 166.526301,13.4447449 C166.795128,13.8030867 166.665816,14.2497449 166.614388,14.6568112 C166.553393,15.138648 166.294974,15.5632398 166.095077,16.0040306 C165.921837,16.3690561 165.750663,16.7428316 165.540561,17.0926531 C165.409796,17.3056633 165.266556,17.4893112 165.170969,17.7206633 C165.081429,17.9519898 164.946301,18.1158673 164.785332,18.3047449 C164.572321,18.5506378 164.403444,18.8409184 164.268929,19.1384694 C164.080893,19.5497194 163.875179,19.9501276 163.674031,20.3643112 C163.57699,20.5650255 163.512245,20.7896939 163.402092,20.9762755 C163.269235,21.1996939 163.091403,21.3898214 162.972321,21.6117857 C162.886531,21.7704592 162.763036,21.8901786 162.674974,22.043648 C162.604362,22.1604592 162.569796,22.3066327 162.516301,22.4240816 C162.441964,22.5975255 162.330357,22.743699 162.228954,22.9029847 C162.051939,23.1741071 161.927015,23.4783163 161.733163,23.737551 C161.542832,23.9814031 161.321071,24.1077806 161.329184,24.4390816 C161.329184,24.6689541 161.434133,24.8694898 161.664235,24.9319388 L161.664235,24.9319388 Z" id="path10" fill="#1B1918"></path>
                    <path d="M175.08523,7.49196429 C175.172704,7.63438776 175.340102,7.66020408 175.465051,7.75204082 C175.618495,7.86219388 175.740536,8.01045918 175.90273,8.10831633 C176.099719,8.22428571 176.336276,8.23678571 176.530128,8.35278061 C176.804158,8.52102041 176.992806,8.82522959 177.270561,8.97494898 C177.410077,9.05219388 177.554184,9.03076531 177.716378,9.03076531 C178.208622,9.03076531 178.702959,9.04846939 179.192296,8.95808673 C179.697653,8.86854592 180.013546,8.60265306 180.454133,8.37339286 C180.876633,8.16265306 181.389286,8.16329082 181.840306,8.07875 C182.252372,8.00252551 182.849566,7.71372449 183.064056,7.33913265 C183.346199,6.8425 183.530689,6.24678571 183.500485,5.67165816 C183.47926,5.31744898 183.315383,5.0817602 183.166913,4.76816327 C182.989923,4.39418367 182.66301,4.2692602 182.295077,4.09517857 C182.131199,4.01813776 181.971071,3.91589286 181.816148,3.84466837 C181.653724,3.77283163 181.481122,3.80658163 181.316607,3.75076531 C181.166071,3.69642857 181.024898,3.62811224 180.876633,3.59063776 C180.783342,3.57002551 180.690051,3.57211735 180.600306,3.55377551 C180.369821,3.49589286 180.219056,3.45757653 179.978138,3.52005102 C179.775536,3.56857143 179.596888,3.7109949 179.385306,3.75660714 C179.109209,3.81469388 178.82852,3.79178571 178.553036,3.8667602 C178.240918,3.95130102 178.002908,4.09517857 177.788444,4.33255102 C177.602474,4.53369898 177.532117,4.78418367 177.38801,5.00533163 C177.302857,5.1390051 177.135434,5.22354592 177.020077,5.3284949 C176.847449,5.48071429 176.71898,5.67831633 176.513265,5.79658163 C176.233393,5.96691327 175.895459,6.04334184 175.660357,6.2805102 C175.437143,6.50456633 175.13,6.72653061 175.026531,7.03719388 C174.975077,7.18420918 174.993418,7.34204082 175.077117,7.47946429 C175.078648,7.48530612 175.080026,7.48821429 175.08523,7.49196429 L175.08523,7.49196429 Z" id="path12" fill="#1B1918"></path>
                    <path d="M188.230765,14.0410969 C188.15227,13.6869133 187.976735,13.3425 187.736429,13.0501531 C187.213571,12.4044388 186.478138,12.0040306 185.646684,11.9679847 C185.327883,11.9540561 185.009082,11.8284949 184.686556,11.8255612 C184.057704,11.8145408 183.836556,12.642449 183.285612,12.811301 C183.088827,12.8694133 182.883929,12.8906378 182.681122,12.9420663 C182.289668,13.0420153 181.912143,13.2402551 181.522755,13.3724745 C181.052577,13.538648 180.583878,13.7037755 180.099107,13.8234949 C179.714107,13.9153316 179.299949,14.0108929 178.909949,14.0131888 C178.480791,14.0131888 178.107015,14.226199 177.716173,14.3855102 C177.332628,14.5375 176.92574,14.6264286 176.529923,14.7469898 C176.12574,14.8658673 175.740944,14.9129337 175.32949,14.9725 C175.024031,15.0149745 174.697117,15.1207398 174.403929,15.2148724 C173.869821,15.3874745 173.342398,15.5197194 172.804133,15.6717092 C172.494694,15.76 172.178827,15.8164286 171.887296,15.9480357 C171.73301,16.0090306 171.455434,16.0640051 171.34301,16.2072704 C171.232857,16.3505357 171.201199,16.6451786 171.245332,16.8169643 C171.323214,17.1415816 171.757372,17.4156122 172.054719,17.4803571 C172.530714,17.594898 173.041301,17.6765051 173.529158,17.5347194 C174.048495,17.3804082 174.57301,17.1578316 175.104821,17.0453827 C175.721786,16.9169133 176.341684,16.9096173 176.95074,16.7384694 C177.182908,16.6766071 177.41051,16.6222704 177.63977,16.5731378 C177.98875,16.5048214 178.261939,16.4269388 178.567602,16.6208163 C178.671939,16.6803571 178.804158,16.7280357 178.907653,16.794898 C179.117755,16.9337755 179.206658,17.2034184 179.238112,17.4362245 C179.283087,17.7483418 179.255179,18.0708929 179.299949,18.3867857 C179.318903,18.5344133 179.390306,18.6718367 179.402806,18.8305102 C179.496097,19.8022959 179.651837,20.7955357 179.651837,21.7702296 C179.651837,22.2785204 179.706199,22.7632653 179.706199,23.259898 C179.706199,24.1546429 179.706709,25.0470918 179.723061,25.9360204 C179.731811,26.774949 179.571046,27.5997449 179.559184,28.4401531 C179.549617,29.0931378 179.339515,29.6801276 178.58801,29.4517092 C178.402908,29.3892347 178.198852,29.307602 178.018112,29.2343112 C177.888801,29.1843367 177.747832,29.1570663 177.622066,29.0991837 C177.262245,28.9359184 176.917015,28.7501786 176.546786,28.6069388 C176.316684,28.513648 175.976658,28.4343112 175.718036,28.5253061 C174.942398,28.7964286 176.078699,29.5905867 176.33523,29.7536224 C176.744388,30.0012245 177.096071,30.3016837 177.412781,30.6673214 C177.554592,30.8259949 177.708061,30.9750765 177.855077,31.1360459 C178.099515,31.3842602 178.309617,31.661199 178.499949,31.9572959 C178.621122,32.135102 178.715255,32.3135714 178.845179,32.4841071 C178.986148,32.6646429 179.130867,32.8932653 179.222704,33.1002551 C179.341811,33.3978061 179.413852,33.7621939 179.631862,34.0179082 C180.179898,34.6744388 181.25977,34.1655357 181.702041,33.6343367 C182.047908,33.2126786 182.106633,32.6558929 182.222806,32.133648 C182.319005,31.7171939 182.319643,31.2682653 182.367526,30.8451531 C182.523291,29.3854847 182.484974,27.8627296 182.507883,26.3878571 C182.523291,25.1778571 182.587832,23.9239286 182.465816,22.719949 C182.419592,22.2718622 182.399796,21.7958418 182.404184,21.3433673 C182.404184,21.1097449 182.418954,20.8534184 182.396888,20.62125 C182.380026,20.3774235 182.299872,20.1327551 182.277781,19.8918367 C182.241964,19.5451276 182.194082,19.1368112 182.256556,18.7857398 C182.289668,18.5983418 182.344617,18.3896939 182.441658,18.2347704 C182.557653,18.0577806 182.640102,18.0055102 182.613648,17.7675 C182.596582,17.5890561 182.498291,17.4010204 182.404184,17.2452806 C182.277781,17.0233163 181.976684,16.803852 181.725357,16.7553316 C181.555026,16.7178316 181.437602,16.7384694 181.302245,16.59375 C181.092985,16.372602 181.092985,16.0148724 181.353673,15.8303827 C181.582321,15.6777551 181.924643,15.7150255 182.18449,15.7085714 C182.533495,15.6923214 182.872908,15.6717092 183.21875,15.6615051 C183.475918,15.6533929 183.695612,15.567398 183.951939,15.554898 C184.556607,15.5174235 185.153801,15.6533929 185.754541,15.7085714 C186.068954,15.7393878 186.371735,15.7539541 186.675102,15.8149745 C186.94602,15.8745153 187.311862,15.9765561 187.572781,15.8297704 C187.794541,15.7085714 187.91051,15.4470408 188.03773,15.2435969 C188.277194,14.860051 188.317602,14.4421429 188.230765,14.0410969 L188.230765,14.0410969 Z" id="path14" fill="#1B1918"></path>
                    <path d="M78.3235969,25.1632908 C78.3991837,25.0075255 78.5343112,24.784949 78.7054847,24.7093622 C78.9266071,24.6189796 79.1762755,24.6050255 79.401148,24.5050765 C79.8132398,24.3178827 80.1997194,24.2618878 80.6205357,24.2354337 C80.9416071,24.2179337 81.2508418,24.1856633 81.5681633,24.2304337 C81.8186735,24.2714541 81.9683929,24.4353316 82.1514031,24.5983673 C82.3254847,24.754949 82.552449,24.9554847 82.6655102,25.1632908 C82.7698469,25.3608929 82.7544388,25.6555357 82.7654592,25.8781378 C82.7817092,26.2364796 82.7383929,26.5619388 82.5995153,26.887398 C82.5149745,27.085 82.4443878,27.289898 82.3585969,27.49125 C82.2571939,27.7336224 82.2049235,27.9928827 82.1014286,28.2390051 C81.9994133,28.488648 81.9479847,28.7655867 81.862602,29.0058929 C81.8186735,29.1395663 81.756199,29.2709694 81.7282908,29.4046429 C81.7105867,29.5010459 81.7216327,29.6141327 81.7024745,29.712602 C81.6725,29.8542092 81.5865051,30.0012245 81.4705102,30.0863776 C81.3014286,30.2142347 80.9945153,30.2142347 80.7850255,30.1834184 C80.4912245,30.1407143 80.2738265,29.8939796 79.9637755,29.8887755 C79.6479082,29.8829337 79.3892857,30.0549235 79.0771684,30.0709694 C78.8743367,30.0842857 78.592398,30.0593112 78.4264541,29.9204337 C78.3096429,29.8233929 78.300051,29.6486735 78.2985969,29.4958418 C78.2985969,29.3548724 78.3535714,29.1953827 78.4270663,29.0756378 C78.5680357,28.8545153 78.7702296,28.823699 78.9801276,28.7097959 C79.2058418,28.5775765 79.4246939,28.4592857 79.6612245,28.3468622 C79.8478061,28.2581633 80.0454082,28.1596684 80.218648,28.0530612 C80.3215306,27.9943367 80.5514031,27.9097959 80.6013776,27.8048469 C80.6902806,27.599949 80.616148,27.293648 80.5955357,27.0827041 C80.5830612,26.9586224 80.6013776,26.803699 80.5545153,26.6897959 C80.4999745,26.5421684 80.357551,26.4238776 80.2334439,26.3291327 C79.951301,26.1086224 79.6862245,26.0139031 79.326199,25.9764031 C79.1954337,25.9632908 79.0684184,25.9653827 78.9382653,25.9455867 C78.8435204,25.9287245 78.7467092,25.9609949 78.6534184,25.9287245 C78.5651276,25.8956122 78.4982908,25.8081633 78.4125,25.7677551 C78.3770918,25.6494898 78.2721684,25.6047194 78.2507143,25.4814541 C78.232398,25.380051 78.2838265,25.2603316 78.3235969,25.1632908 L78.3235969,25.1632908 Z M78.0687245,31.8898214 C78.4029337,31.8427551 78.7406633,31.8142347 79.0771684,31.8023724 C79.2145918,31.7979847 79.3892857,31.7692602 79.5185969,31.8081888 C79.6164541,31.8296429 79.7347449,31.8758673 79.8294898,31.9139796 C79.9571173,31.9618622 80.0175,32.0095663 80.0945408,32.1226276 C80.1416071,32.1859184 80.1997194,32.2460969 80.2415561,32.3195918 C80.2929847,32.3995663 80.3273469,32.4936735 80.3694133,32.577398 C80.4912245,32.8441327 80.5661735,33.1150255 80.6696684,33.382398 C80.7431888,33.58 80.8475,33.8055102 81.056148,33.8673469 C81.1392347,33.8923469 81.2302296,33.9423214 81.3124745,33.9547959 C81.4653061,33.9752041 81.6416837,33.9327296 81.7884694,33.9054592 C82.0302296,33.8592347 82.2284439,33.6630867 82.3350765,33.4448469 C82.4100255,33.289949 82.4275255,33.1150255 82.4995663,32.9644898 C82.5643112,32.8212245 82.675102,32.7125255 82.766301,32.5846684 C82.8221173,32.5157398 82.8610459,32.4224745 82.9043622,32.3445918 C82.9630867,32.2358929 83.0284694,32.1432398 83.0915561,32.046199 C83.2289796,31.8331888 83.3480867,31.6047704 83.4832143,31.3932143 C83.6352296,31.1552041 83.7630867,30.9032398 83.9113265,30.6565051 C84.0531378,30.4214031 84.177449,30.1642602 84.2846939,29.9102296 C84.3411224,29.7705102 84.380051,29.6376531 84.4462755,29.5010459 C84.4822959,29.4260969 84.5241582,29.3584184 84.5555867,29.2886735 C84.7003061,28.9977806 84.8142092,28.6995918 84.9714286,28.421199 C85.0345153,28.3043878 85.0882398,28.1881888 85.1579847,28.087602 C85.2631378,27.9289541 85.3864031,27.7813265 85.5017602,27.6284694 C85.6177551,27.4683418 85.807449,27.3979592 85.9432143,27.2532653 C86.11,27.0768878 86.2084949,26.7668367 86.2032908,26.5267602 C86.1989031,26.4238776 86.1989031,26.3291327 86.1393622,26.2364796 C86.0814796,26.1431888 86.0614796,26.0447194 86.0365051,25.9403827 C86.0269133,25.9229082 86.0204592,25.8956122 86.0123469,25.8720918 C85.985051,25.7833929 85.9492602,25.7055102 85.9205102,25.6166071 C85.878648,25.485 85.8522194,25.3431888 85.7934949,25.2249235 C85.7235204,25.0714541 85.6273214,24.9107143 85.5319643,24.7709949 C85.3864031,24.5631888 85.2631378,24.3347449 85.1278061,24.1165306 C84.9281122,23.8058673 84.5916071,23.6228316 84.3375765,23.3554592 C84.1060204,23.1064286 83.8680357,22.8480102 83.5785969,22.6679082 C83.4890561,22.6179337 83.3809949,22.560051 83.2827041,22.5298469 C83.172551,22.5004847 83.0557398,22.5004847 82.9514286,22.4725765 C82.6957143,22.4130357 82.4179337,22.4357398 82.1601531,22.447602 C81.7988776,22.4557143 81.4403316,22.4696684 81.0811224,22.4761224 C80.9195408,22.4821684 80.7504592,22.5042347 80.5903316,22.4821684 C80.445,22.4615561 80.2884184,22.4740561 80.1468112,22.5115306 C80.0247959,22.5423469 79.9102806,22.5827296 79.7955357,22.63125 C79.6685204,22.6774745 79.5465051,22.7414031 79.4157398,22.7745153 C79.3291071,22.7980357 79.2622704,22.8105357 79.1704337,22.8215816 C79.023648,22.8390561 78.8891327,22.8823724 78.7467092,22.9227806 C78.6115561,22.9544133 78.4762245,22.9750255 78.3410714,23.0043878 C78.223648,23.0264796 78.1245153,23.0924745 78.0077041,23.1182908 C77.897551,23.1389031 77.7865816,23.1203316 77.6755867,23.1203316 C77.4852806,23.1203316 77.3361735,23.1403061 77.1606378,23.2100765 C76.7215051,23.3847704 76.2946429,23.5759184 75.8648469,23.7602041 C75.6526786,23.8564031 75.472551,23.9894643 75.2603827,24.0708929 C75.1075255,24.1275255 74.9671939,24.1958163 74.8166327,24.2478827 C74.6681888,24.2978571 74.5126276,24.3324235 74.3575,24.3521939 C74.2165306,24.3692602 74.076199,24.3632398 73.9372959,24.3655102 C73.7655102,24.369898 73.6266327,24.4794133 73.477551,24.5543878 C73.352602,24.6189286 73.2189286,24.6726531 73.0910714,24.7217857 C72.973648,24.7709439 72.8295408,24.8194643 72.75625,24.9229337 C72.640051,25.0832653 72.6952296,25.4079082 72.8155867,25.5503316 C72.9111735,25.6627806 73.0602551,25.6627806 73.1747704,25.7464796 C73.242449,25.7891582 73.2564031,25.8449745 73.3342857,25.8720408 C73.4011224,25.8955612 73.4717092,25.9051531 73.5347959,25.9286735 C73.6045663,25.9536735 73.6707653,25.9882398 73.7382398,26.0094643 C73.8785969,26.0623469 73.9806122,26.0696429 74.1253316,26.0696429 C74.448699,26.0696429 74.8262245,26.1137755 75.1156633,25.9440816 C75.2714031,25.8449745 75.4307143,25.7522959 75.5916582,25.6590306 C75.7009694,25.597398 75.8186224,25.5430357 75.9456378,25.5430357 C76.0264286,25.5430357 76.112449,25.5546939 76.1940561,25.5657398 C76.2373724,25.572398 76.276301,25.572398 76.3152551,25.577602 C76.3620918,25.5930102 76.3716837,25.6069643 76.4106122,25.6400765 C76.5164031,25.7098214 76.6494643,25.7252296 76.7383673,25.8295663 C76.8008418,25.9074235 76.8514286,26.0425765 76.8616327,26.1431378 C76.8755867,26.2826531 76.8456122,26.4413265 76.7743878,26.5618878 C76.716301,26.6589286 76.6529847,26.7513776 76.573648,26.8292602 C76.4524745,26.9562755 76.2563265,26.9997959 76.096199,27.0687245 C75.9691837,27.1230612 75.8421684,27.1692857 75.7186735,27.2355102 C75.5291837,27.3360714 75.3807398,27.491199 75.1825,27.5630357 C75.0084184,27.6284184 74.8203827,27.6071939 74.6535969,27.688801 C74.5294898,27.7431633 74.4441327,27.8628827 74.3972704,27.9869898 C74.3633418,28.0706888 74.3795663,28.1750255 74.3693878,28.2581122 C74.3575,28.3395153 74.3883163,28.4057398 74.4405867,28.4711224 C74.5463776,28.6010459 74.7196173,28.6766327 74.8782908,28.7193112 C75.0958673,28.7809694 75.3176276,28.802398 75.5431378,28.8119898 C75.8003061,28.821352 76.0125,28.9323469 76.201352,29.1028827 C76.301301,29.1953316 76.3975,29.2732143 76.4466327,29.4083418 C76.4870408,29.5251531 76.5076531,29.644898 76.4620408,29.7535714 C76.4166582,29.8697704 76.4056122,29.9894898 76.3562755,30.1025765 C76.2783929,30.2722704 76.1345153,30.4190816 75.9941582,30.5454592 C75.8877551,30.6402041 75.782602,30.7564031 75.6605867,30.840102 C75.5533418,30.9215306 75.4205102,30.9752551 75.2926531,31.0272959 C75.0958673,31.1051786 74.9011735,31.2403061 74.692551,31.2911224 C74.4882653,31.3454592 74.2333929,31.3181888 74.0210204,31.3181888 C73.8477806,31.3219388 73.5583418,31.3623469 73.4113265,31.2440561 C73.3482398,31.1926276 73.3174235,31.1051786 73.2741071,31.0377041 C73.2395408,30.9715051 73.1895663,30.9215306 73.1535459,30.8555102 C73.0867092,30.7503571 73.0544388,30.6320918 73.0052806,30.5198469 C72.8995153,30.2862245 72.8803571,30.0246939 72.8443367,29.7704592 C72.8155867,29.5384949 72.8016327,29.3004847 72.7620663,29.0639286 C72.7458418,28.9360969 72.7083673,28.8082398 72.6452551,28.6957908 C72.5865306,28.5812755 72.5755102,28.4557143 72.5571939,28.3359694 C72.535102,28.1654337 72.5203316,27.9928316 72.4843112,27.8202041 C72.4505612,27.688801 72.4005867,27.5395153 72.35,27.4104082 C72.3073214,27.3090051 72.271301,27.2009439 72.2029847,27.1114031 C72.0341071,26.8792347 71.8071429,26.5772959 71.5433418,26.4567347 C71.1091837,26.2482908 70.828699,25.8316327 70.409949,25.597398 C70.2306633,25.492449 70.0513776,25.38 69.8700255,25.2683929 C69.5152041,25.0530867 69.1568622,24.5308418 68.6741837,24.7070153 C68.5550765,24.7519898 68.4692857,24.8502806 68.4016071,24.96125 C68.3164541,25.0957653 68.2546173,25.2756888 68.2818878,25.4233163 C68.2943878,25.492449 68.3164541,25.5621939 68.3449745,25.6319643 C68.411199,25.7752041 68.3934949,25.9492857 68.4126531,26.1042092 C68.4324235,26.2401786 68.4536735,26.3311735 68.5236224,26.4552806 C68.6065051,26.6081122 68.6623214,26.778648 68.7416582,26.9373214 C68.8320153,27.109949 68.9575765,27.2686224 69.0700255,27.4331122 C69.2676276,27.7077551 69.413801,28.0332143 69.5210459,28.3572194 C69.5782908,28.5173469 69.6218112,28.6722704 69.6555612,28.8390561 C69.6732398,28.9169388 69.693648,28.9904337 69.7040561,29.0639286 C69.7215561,29.1395153 69.7436224,29.2107398 69.7525765,29.2886224 C69.7935969,29.7073469 69.7069898,30.1252551 69.8340051,30.5433929 C69.90375,30.7834694 70.1080357,30.9517092 70.2696173,31.1359949 C70.3570663,31.2440561 70.4509694,31.3454592 70.5575765,31.4364541 C70.6810714,31.5416071 70.8095408,31.6011735 70.935102,31.7017347 C71.022551,31.7648469 71.1004337,31.8456378 71.1878827,31.9139286 C71.3067857,32.0007653 71.4390051,32.0807143 71.55875,32.1681633 C71.6865816,32.2614541 71.7975765,32.3951276 71.9547959,32.4332398 C72.0376531,32.4553061 72.1384439,32.445102 72.225051,32.445102 C72.3543622,32.445102 72.4799235,32.4532398 72.6011224,32.4084694 C72.6952296,32.3789031 72.7664541,32.3195408 72.8495408,32.2672959 C72.944898,32.1998214 73.0346429,32.1240306 73.1241837,32.0542602 C73.1852041,32.0095153 73.2255867,31.9418367 73.3026276,31.9243367 C73.3798724,31.9074745 73.4656633,31.9301786 73.5420918,31.9618112 C73.6010204,31.9801531 73.6626531,32.0007653 73.7213776,32.0211735 C73.8132143,32.0565561 73.8983673,32.1042347 73.9866582,32.1431888 C74.176148,32.2202296 74.3575,32.3291327 74.5492857,32.4024235 C74.7843622,32.4884184 75.0075765,32.4884184 75.2470408,32.4782143 C75.4205102,32.4721939 75.5916582,32.4721939 75.7680357,32.4628061 C75.9985459,32.445102 76.1984439,32.3605612 76.4085459,32.2745663 C76.5436735,32.2202296 76.6654847,32.176301 76.8066582,32.1490051 C76.9513776,32.1167347 77.0902551,32.1019643 77.2297704,32.063852 C77.4096939,32.0007653 77.5770918,31.9647449 77.7645153,31.9455867 C77.8679847,31.9345408 77.9679337,31.9051786 78.0687245,31.8897704 L78.0687245,31.8898214 Z" id="path16" fill="#1B1918"></path>
                    <path d="M75.2137245,18.6978571 C75.2358163,18.6258163 75.2343367,18.5273214 75.2270663,18.4502806 C75.2210204,18.3694898 75.2241327,18.2805867 75.2064541,18.1989541 C75.1820918,18.1071173 75.1189796,18.0321684 75.0573469,17.9646939 C74.9992602,17.9022449 74.9780102,17.8185204 74.9367857,17.7383673 C74.8568367,17.5621939 74.7568878,17.3916582 74.6261224,17.2477806 C74.565102,17.182398 74.5122194,17.1074235 74.4482908,17.0478827 C74.4108163,17.0147704 74.3639541,16.9877041 74.3218878,16.9597959 C74.2169643,16.8842092 74.1009694,16.8032143 73.9745663,16.7694898 C73.8452806,16.7328316 73.7482398,16.6247704 73.6270408,16.5622959 C73.3898724,16.4419388 73.1260459,16.3728061 72.9188776,16.1987245 C72.8441071,16.1377296 72.7625,16.1069133 72.675051,16.0717092 C72.5780102,16.0319388 72.4863776,15.9805102 72.3945663,15.9290816 C72.3245918,15.8895153 72.2417092,15.8622449 72.1659184,15.8168367 C72.0911735,15.7770663 72.0191327,15.7314796 71.9441582,15.6919133 C71.8485969,15.6367347 71.7642602,15.5596939 71.6672194,15.5192857 C71.4219388,15.4120663 71.0171429,15.3004592 70.843699,15.5759184 C70.7916327,15.658801 70.7379082,15.7221173 70.7239541,15.8029082 C70.7189541,15.8307908 70.7160459,15.8593367 70.7189541,15.8895153 C70.73,15.9805102 70.7218878,16.0717092 70.7416582,16.1679082 C70.7674745,16.2809949 70.8195408,16.3971684 70.8651276,16.5073214 C70.8951276,16.5668878 70.932602,16.6226786 70.9686224,16.6770408 C71.0060969,16.7299235 71.0296429,16.7982143 71.0662755,16.8546429 C71.0906378,16.8892092 71.1281378,16.9112755 71.15375,16.9472959 C71.1662245,16.9708418 71.1691582,16.9929082 71.1781122,17.0185204 C71.1935204,17.0632908 71.2316071,17.0772449 71.2624235,17.1147194 C71.312398,17.1757398 71.3615561,17.2419388 71.4100765,17.305051 C71.51875,17.4387245 71.6230867,17.5767857 71.7069898,17.7223214 C71.7407398,17.7839541 71.7642602,17.8507908 71.7927806,17.9147194 C71.8267347,17.996352 71.8860714,18.0617347 71.9243878,18.1446173 C71.95,18.2047959 71.9610204,18.2680867 71.9845663,18.3320153 C72.016199,18.4186224 72.0580612,18.503801 72.0880612,18.59125 C72.133648,18.7397194 72.1455102,18.8969388 72.147602,19.0495663 C72.147602,19.181148 72.1673724,19.3148469 72.1673724,19.4476786 C72.1673724,19.5499235 72.1969643,19.6417602 72.2321429,19.7423214 C72.2467092,19.79375 72.260051,19.8443622 72.2887755,19.893699 C72.3100255,19.927449 72.34,19.9538776 72.3495918,19.993648 C72.3664541,20.0398724 72.3681122,20.0788265 72.3797704,20.1221429 C72.4105867,20.2043878 72.4370408,20.2778827 72.4841071,20.3528571 C72.553852,20.4650765 72.6090306,20.5827296 72.6331888,20.714949 C72.6544133,20.8538265 72.7418878,21.0072959 72.8110204,21.1328571 C72.8799235,21.252602 72.963852,21.3298469 73.0760714,21.41125 C73.2120663,21.5068367 73.3480357,21.5928316 73.5183673,21.6242857 C73.6843112,21.6603061 73.8615051,21.6661224 74.0289286,21.6765306 C74.1192857,21.6800765 74.1992602,21.6971429 74.2852551,21.7088265 C74.38875,21.7198469 74.4939031,21.7198469 74.5953061,21.7198469 C74.7502296,21.7198469 74.8964031,21.7102806 75.0529847,21.6911224 C75.1608418,21.6800765 75.2703827,21.6640561 75.381148,21.646352 C75.5589796,21.6207398 75.7338776,21.5618112 75.9071173,21.5089286 C76.1070153,21.4516582 76.3023469,21.3781633 76.5132653,21.3598214 C76.7019133,21.343801 76.8893367,21.3135969 77.0817347,21.2938265 C77.1310714,21.2900765 77.1802296,21.2842347 77.2293622,21.2798724 C77.3351531,21.2732143 77.4388265,21.2879847 77.5431633,21.2842347 C77.6878827,21.2732143 77.8369643,21.2717602 77.9808418,21.2680102 C78.2717347,21.2578061 78.5701276,21.2578061 78.8639286,21.243852 C79.015102,21.2342602 79.1644133,21.2232398 79.3120408,21.215102 C79.3942857,21.2078316 79.4786224,21.215102 79.5587755,21.2092857 C79.6322959,21.2077551 79.7041327,21.1857398 79.7770153,21.1865816 C79.8732143,21.1865816 79.9642092,21.1718112 80.0627041,21.1526531 C80.1861735,21.1278571 80.2867347,21.0314541 80.3968878,20.9712755 C80.4616582,20.9381633 80.5320408,20.9146429 80.5901276,20.8817347 C80.670102,20.8390561 80.7540051,20.794898 80.8208418,20.7303571 C80.8597959,20.6914286 80.8891327,20.6393622 80.9301531,20.6077041 C81.046352,20.506301 81.1881633,20.4842347 81.2739541,20.3439031 C81.3430867,20.2270663 81.3291327,20.0575765 81.3372449,19.927449 C81.3401531,19.8091582 81.3445408,19.6777806 81.3070663,19.5638776 C81.2879082,19.5072449 81.2585459,19.4587245 81.2358418,19.40375 C81.1710714,19.2346684 81.1352551,19.0651786 81.1056888,18.8865051 C81.0859184,18.7586735 81.0963265,18.6412245 81.103648,18.5142092 C81.1300765,18.21375 81.30125,17.996352 81.4070408,17.7267092 C81.4407653,17.6421684 81.4605357,17.5546939 81.511352,17.4768367 C81.5729847,17.3806378 81.6566837,17.2477806 81.7470663,17.1815561 C81.8095408,17.1361735 81.8742857,17.1030612 81.9411224,17.0670408 C82.0123469,17.0310204 82.0519133,16.9708418 82.1041582,16.9090051 C82.1680867,16.8173724 82.2084949,16.7041071 82.2599235,16.6108163 C82.311352,16.5154592 82.3442602,16.4155102 82.3596684,16.3103316 C82.3860969,16.17375 82.4060969,15.993852 82.3811224,15.8534949 C82.3671684,15.7543878 82.3303061,15.6779592 82.2782398,15.5942602 C82.2209949,15.5097194 82.202449,15.3972704 82.1680867,15.3019133 C82.0997959,15.0918112 82.0210969,14.8817092 81.8990561,14.6943112 C81.8478316,14.6224745 81.7970408,14.5379337 81.7618367,14.4527551 C81.7139541,14.346148 81.6377551,14.2705612 81.5613265,14.1874745 C81.4480612,14.0619133 81.2768878,14.0067347 81.1330102,13.932602 C81.0719898,13.9017857 81.0301276,13.8509949 80.9780867,13.8166327 C80.9089541,13.7754082 80.8237755,13.7826786 80.7479847,13.7652041 C80.5901531,13.7268878 80.4358673,13.6864796 80.2882398,13.6152806 C80.0090051,13.4859694 79.7526786,13.3066837 79.6337755,13.0055867 C79.6035714,12.935 79.6123214,12.8989796 79.67625,12.8483673 C79.7689031,12.7800765 79.8534439,12.713852 79.9173724,12.6126531 C80.0090051,12.4810714 80.1222704,12.3686224 80.2213776,12.2468112 C80.3169643,12.1329082 80.4608418,12.0608673 80.5549745,11.9448724 C80.6651276,11.811199 80.6488776,11.6046429 80.6511735,11.4459694 C80.6511735,11.1765306 80.6430357,10.9045918 80.5997449,10.6395153 C80.5834949,10.5499745 80.5520408,10.4822959 80.5108163,10.400051 C80.4704337,10.3044643 80.4352296,10.206199 80.3631888,10.1333163 C80.292602,10.0598214 80.2228571,9.99234694 80.1472704,9.92757653 C80.0017092,9.81096939 79.8607398,9.68895408 79.6991582,9.59193878 C79.3876531,9.40681122 79.0072194,9.41056122 78.6567857,9.42451531 C78.2578061,9.44658163 77.861148,9.42681122 77.4615561,9.4744898 C77.2081378,9.50821429 76.9739031,9.61836735 76.738801,9.71456633 C76.633648,9.75808673 76.519949,9.7822449 76.4147959,9.82410714 C76.2950765,9.87114796 76.1974235,9.96298469 76.0718622,10.0106633 C75.9344388,10.0583418 75.7882653,10.1018622 75.6604082,10.1832908 C75.4958929,10.289898 75.3518112,10.4308673 75.1791837,10.5285204 C75.0588265,10.5947449 74.932449,10.6461735 74.8164541,10.7107143 C74.7046429,10.7769388 74.6128061,10.8562755 74.504949,10.9231122 C74.39625,10.9934949 74.2756888,11.0507653 74.1640816,11.1271684 C74.0760204,11.1890306 73.9745918,11.2608673 73.8790306,11.3058418 C73.8284184,11.3256122 73.7688776,11.3402041 73.7401531,11.3820408 C73.6799745,11.4834439 73.6703827,11.6810714 73.6732908,11.7934949 C73.6770408,11.8809694 73.7005867,11.9719643 73.7432653,12.0521173 C73.7601276,12.0866837 73.796148,12.1189541 73.8203061,12.1549745 C73.8453061,12.201199 73.8430102,12.2239031 73.8790306,12.2563776 C73.9290051,12.2953316 73.9862755,12.331148 74.0414541,12.3686224 C74.1559694,12.4508673 74.2808929,12.5229082 74.39625,12.6103827 C74.5122449,12.7042857 74.6378061,12.7902806 74.7517092,12.8910714 C74.8670663,12.9930867 74.9876276,13.0503571 75.1167347,13.123852 C75.2681122,13.2017347 75.4267857,13.2898214 75.5912755,13.3281378 C75.719949,13.3618622 75.8682143,13.3810204 75.9983418,13.3999745 C76.1628571,13.4278571 76.3229847,13.4528571 76.4853827,13.4528571 C76.5976276,13.4528571 76.6528061,13.4191327 76.7402551,13.3485459 C76.8879082,13.2302551 77.1096684,13.1973724 77.2904082,13.1773724 C77.4051276,13.1628061 77.5217347,13.145102 77.6356378,13.145102 C77.7582908,13.145102 77.8480357,13.2215051 77.9552551,13.2752296 C77.9977296,13.3002296 78.0352296,13.3281378 78.0691582,13.3729082 C78.1432908,13.4749235 78.1601531,13.6042347 78.1470408,13.7254337 C78.1330867,13.9017857 78.0154337,14.0133929 77.9009184,14.1302041 C77.8265816,14.2066327 77.7707653,14.2793112 77.68125,14.3292857 C77.6297959,14.3609184 77.5777551,14.3836224 77.5321429,14.4188265 C77.4798724,14.4652551 77.4403316,14.5202296 77.3888776,14.5679082 C77.3322449,14.6120408 77.2758163,14.6364031 77.2118878,14.6716071 C77.0817602,14.7471939 76.9863776,14.8817092 76.8797704,14.9793622 C76.7806633,15.0703571 76.6359439,15.0909694 76.5228827,15.1607398 C76.3891837,15.243801 76.2802806,15.3629082 76.147449,15.4443367 C75.9579592,15.5634439 75.7478571,15.6919133 75.6089796,15.8822194 C75.5662755,15.9430357 75.5662755,16.0165306 75.5662755,16.0892092 C75.5662755,16.1481378 75.5612755,16.2164286 75.5744133,16.2707908 C75.5979337,16.3617857 75.6479082,16.3434439 75.7007908,16.3919643 C75.7639031,16.4419388 75.8353061,16.4610969 75.9065306,16.4904592 C75.9946173,16.5343878 76.0820663,16.5808418 76.1709694,16.6226786 C76.261352,16.6630867 76.345051,16.7063776 76.4354082,16.747398 C76.5037245,16.784898 76.5793112,16.8209184 76.6542602,16.8421429 C76.8570663,16.8921173 77.0721684,16.8679847 77.2802041,16.8679847 C77.4065816,16.8679847 77.5373469,16.8767092 77.6643622,16.8569388 C77.773699,16.8488265 77.8861224,16.8488265 77.9992092,16.8569388 C78.1991071,16.8767092 78.3592347,17.0185204 78.4760459,17.1757398 C78.5289286,17.2477806 78.5701531,17.3137755 78.5751531,17.4079082 C78.5789031,17.5195153 78.5326786,17.597398 78.4922704,17.6883929 C78.4533418,17.7868878 78.4533418,17.8970153 78.4100255,17.994898 C78.3710969,18.0733929 78.2982143,18.1314796 78.251352,18.2047959 C78.2124235,18.2599745 78.2049235,18.3297194 78.1682908,18.3869898 C78.0764541,18.5421173 77.9177806,18.6464286 77.7936735,18.7734439 C77.6614541,18.9123469 77.5292347,19.0466327 77.3888776,19.1738776 C77.1875255,19.3618878 76.9459949,19.4947449 76.6821684,19.5830357 C76.5080867,19.6417602 76.3508929,19.7356633 76.1791071,19.79375 C76.02625,19.8385204 75.8931888,19.8643367 75.7397449,19.8739286 C75.6633163,19.8739286 75.5877296,19.8643367 75.5090306,19.8739286 C75.4642602,19.8768367 75.422398,19.893699 75.3732653,19.8864286 C75.2468622,19.8643367 75.1190051,19.7548214 75.0530102,19.6498724 C74.9940816,19.5586735 74.9670153,19.4072959 74.9838776,19.3023469 C75.0051276,19.181148 75.0742347,19.0805867 75.1160969,18.9716837 C75.1483673,18.8858929 75.1843878,18.7882398 75.21375,18.6978571 L75.2137245,18.6978571 Z" id="path18" fill="#1B1918"></path>
                    <path d="M67.0818878,13.0747194 C67.1068622,12.9418622 67.1647449,12.8169388 67.2059694,12.6890816 C67.2521939,12.5577041 67.2515816,12.4165051 67.308852,12.2871939 C67.3463265,12.2139031 67.3858929,12.1529082 67.4314796,12.0802296 C67.5439286,11.907602 67.6172194,11.6975 67.6482398,11.4946939 C67.6621939,11.4014031 67.709898,11.3139541 67.7398724,11.2235969 C67.778801,11.116352 67.8083673,11.018699 67.8267092,10.9041582 C67.8604337,10.7284184 67.8662755,10.5499745 67.8604337,10.3721429 C67.8575255,10.206199 67.8575255,10.0460714 67.8691837,9.88530612 C67.8810459,9.64732143 67.8604337,9.41076531 67.8523214,9.1777551 C67.8398214,9.01117347 67.7348724,8.85168367 67.7180102,8.6805102 C67.7180102,8.6732398 67.7164796,8.6694898 67.7164796,8.6694898 C67.6833673,8.40877551 67.5796684,8.16704082 67.4732653,7.93341837 C67.4232908,7.81512755 67.3762245,7.70206633 67.3556122,7.5765051 C67.33875,7.47946429 67.2704592,7.39806122 67.2477551,7.30540816 C67.225051,7.24375 67.2058929,7.18941327 67.1977806,7.12693878 C67.1890306,7.05053571 67.1632143,6.96826531 67.1434439,6.89331633 C67.0972194,6.72132653 67.0501531,6.55390306 66.9435459,6.40543367 C66.8423469,6.2592602 66.7621684,6.10663265 66.6586735,5.96691327 C66.5947704,5.88321429 66.4933418,5.76056122 66.3881888,5.76056122 C66.2553571,5.7547449 66.1222959,5.75035714 65.9908929,5.77535714 C65.8763776,5.79658163 65.7874745,5.99191327 65.7220918,6.08977041 C65.6947959,6.12558673 65.6669133,6.16744898 65.6419133,6.21012755 C65.5904847,6.31216837 65.5134439,6.39232143 65.4480612,6.48790816 C65.3524745,6.61928571 65.3077041,6.78316327 65.2423214,6.92352041 C65.2071429,7.00137755 65.1673724,7.07405612 65.1284184,7.14673469 C65.0674235,7.26354592 65.0374235,7.38910714 64.9764286,7.50446429 C64.9491582,7.5602551 64.9197959,7.62418367 64.89125,7.68081633 C64.8317092,7.79306122 64.7604847,7.90341837 64.689898,8.00982143 C64.6134949,8.12433673 64.5260204,8.22428571 64.4489796,8.34112245 C64.3954847,8.42191327 64.3519643,8.51456633 64.3109439,8.60265306 C64.2667857,8.68719388 64.2153571,8.75403061 64.1566327,8.83543367 C64.0781378,8.94727041 63.998801,9.05803571 63.9230102,9.1777551 C63.809949,9.35933673 63.7401786,9.5267602 63.6908418,9.73686224 C63.6579337,9.8594898 63.6431633,9.97109694 63.592551,10.0893878 C63.5484184,10.1878827 63.5336224,10.302398 63.4946939,10.395051 C63.4499235,10.4970918 63.4228571,10.591199 63.3926531,10.696148 C63.3670408,10.7879847 63.3516327,10.8902296 63.3383163,10.9812245 C63.3266582,11.1215561 63.3206122,11.2610714 63.3398469,11.3955867 C63.3796173,11.6664796 63.4479082,11.9280102 63.5484949,12.1880867 C63.5757653,12.2668112 63.6036735,12.338648 63.6269898,12.4202551 C63.6534439,12.5033418 63.6705102,12.6016327 63.7013265,12.6853316 C63.7269388,12.7428061 63.7702551,12.7948724 63.8012755,12.8617092 C63.83125,12.9314541 63.8614541,12.9880867 63.8951786,13.0520153 C63.9384949,13.1453061 63.9774235,13.2267347 64.0392857,13.3068878 C64.166301,13.4780612 64.3764031,13.5640561 64.5621429,13.6654592 C64.6481378,13.7131378 64.7332908,13.7439541 64.8163776,13.7968367 C64.9206888,13.8534949 65.0250255,13.9055357 65.137449,13.9555102 C65.3798469,14.0729592 65.671352,14.1531122 65.9395408,14.0993878 C66.1319388,14.0554592 66.3039541,13.959898 66.4919643,13.9011735 C66.6675,13.8430612 66.8084694,13.6983673 66.893648,13.5346939 C66.9232143,13.4780612 66.9511224,13.4222449 66.9804592,13.3699745 C67.0421173,13.2723214 67.0633418,13.1944388 67.0818878,13.0747194 L67.0818878,13.0747194 Z" id="path20" fill="#1B1918"></path>
                    <path d="M89.8601531,9.62066327 C89.9063776,9.57880102 89.9371939,9.52446429 89.9900765,9.48989796 C90.031301,9.45469388 90.0812755,9.43471939 90.1275255,9.40471939 C90.2053827,9.34433673 90.3097194,9.3025 90.3655102,9.21961735 C90.4492347,9.09760204 90.4939796,8.97265306 90.5343878,8.83688776 C90.5602041,8.73173469 90.5660459,8.62681122 90.5675,8.52311224 C90.5675,8.45563776 90.5659694,8.38795918 90.5675,8.32257653 C90.5690306,8.12788265 90.5756122,7.93693878 90.5572959,7.74454082 C90.5395918,7.54693878 90.4771173,7.32954082 90.358852,7.16795918 C90.3192857,7.12298469 90.3067857,7.08405612 90.2905612,7.0282398 C90.2370408,6.85563776 90.1091837,6.70507653 90.0069388,6.56035714 C89.9122194,6.41793367 89.8616071,6.2592602 89.7675,6.12558673 C89.7189796,6.055 89.6721173,5.99252551 89.6265306,5.91548469 C89.5882143,5.8530102 89.527398,5.78908163 89.4664031,5.73910714 C89.4053827,5.69288265 89.3731122,5.64145408 89.3193878,5.58045918 C89.2460969,5.49237245 89.1682143,5.41887755 89.0807653,5.34035714 C88.94625,5.22125 88.7669643,5.11109694 88.5966327,5.04864796 C88.4452551,4.99201531 88.3234439,4.89663265 88.1851786,4.81209184 C87.7966327,4.58658163 87.3464541,4.45145408 86.9204082,4.32589286 C86.6234949,4.23614796 86.3311224,4.20094388 86.0410714,4.11058673 C85.3439286,3.90193878 84.6107653,3.81594388 83.8865561,3.78658163 C83.2085714,3.75721939 82.5033163,3.72119898 81.8282398,3.78658163 C81.6306378,3.80864796 81.4292857,3.84466837 81.2302296,3.82989796 C81.1075765,3.82989796 80.9416071,3.85862245 80.8366837,3.79989796 C80.7277806,3.73806122 80.6455102,3.59043367 80.5641071,3.49568878 C80.5001786,3.42219388 80.4847704,3.33846939 80.4604082,3.24602041 C80.4414541,3.17543367 80.4016837,3.11234694 80.3914796,3.04260204 C80.3833673,2.98303571 80.3964796,2.92056122 80.3958673,2.86331633 C80.3935714,2.76107143 80.3767092,2.67443878 80.3796173,2.57303571 C80.3796173,2.51806122 80.3694133,2.47017857 80.3627551,2.41290816 C80.3481633,2.30505102 80.3202806,2.22341837 80.2607143,2.12951531 C80.1189286,1.89943878 79.8640561,1.71951531 79.6106378,1.63206633 C79.5319388,1.60354592 79.447602,1.58875 79.3711735,1.55711735 C79.2997449,1.53066327 79.2308418,1.48818878 79.1625255,1.45443878 C79.0971429,1.4242602 79.028852,1.43155612 78.9553571,1.40885204 C78.8884949,1.39053571 78.8245918,1.34492347 78.7548214,1.32660714 C78.5072449,1.25017857 78.2486224,1.21270408 77.9995918,1.14066327 C77.8609184,1.09964286 77.712449,1.05112245 77.5729337,1.03196429 C77.4744388,1.01655612 77.3753316,0.985739796 77.2805867,0.957831633 C77.1922959,0.936377551 77.0983929,0.926173469 77.016148,0.888086735 C76.9455612,0.860790816 76.8757908,0.820408163 76.8045918,0.788137755 C76.7406633,0.763137755 76.6767347,0.759387755 76.6105102,0.73002551 C76.513699,0.700663265 76.4143622,0.68380102 76.3225255,0.645484694 C76.1455357,0.577193878 75.9677296,0.551581633 75.782602,0.519311224 C75.6534949,0.501607143 75.5233673,0.419362245 75.4036224,0.376658163 C75.2684949,0.328979592 75.1296173,0.282755102 74.9892602,0.257780612 C74.8372704,0.225510204 74.6867092,0.215076531 74.5353316,0.225510204 C74.4626531,0.237168367 74.3525,0.233418367 74.2856633,0.263596939 C74.2275765,0.294413265 74.1996684,0.391454082 74.1615561,0.448086735 C74.1299235,0.495765306 74.0866071,0.537627551 74.058699,0.586760204 C73.9918622,0.699209184 73.9918622,0.860790816 73.9814541,0.985739796 C73.9683418,1.10920918 73.9625,1.25977041 74.0072704,1.37364796 C74.0372449,1.44487245 74.0822194,1.50505102 74.1203316,1.56959184 C74.1615561,1.64017857 74.163648,1.71806122 74.177602,1.79303571 C74.1996684,1.88109694 74.1944643,1.97229592 74.2048724,2.06329082 C74.2144643,2.15512755 74.2254847,2.25943878 74.2408929,2.34836735 C74.2583929,2.43352041 74.3156633,2.4872449 74.3693878,2.55033163 C74.4245663,2.6142602 74.4707908,2.67443878 74.5457398,2.71130102 C74.6125765,2.75086735 74.6213265,2.77732143 74.6477806,2.84852041 C74.7044133,2.9932398 74.7954082,3.01239796 74.9159694,3.08153061 C74.9892602,3.12255102 75.0458929,3.17772959 75.098801,3.24165816 C75.1487755,3.30704082 75.1935459,3.38117347 75.2347704,3.44946429 C75.2545408,3.47818878 75.2545408,3.52005102 75.2714031,3.5515051 C75.2926531,3.59043367 75.3176276,3.62145408 75.3376276,3.65956633 C75.371352,3.73160714 75.4036224,3.8182398 75.3853061,3.90193878 C75.367602,3.98647959 75.3176276,4.06061224 75.2897449,4.14076531 C75.2618367,4.22303571 75.2487245,4.31109694 75.1839541,4.37357143 C75.102551,4.45956633 74.9996684,4.53369898 74.9011735,4.60137755 C74.7866582,4.68507653 74.6742092,4.77397959 74.5396939,4.80188776 C74.3825,4.84 74.1996684,4.81729592 74.042449,4.82020408 C73.9375255,4.82020408 73.8317347,4.82020408 73.7244898,4.82604592 C73.5943622,4.82604592 73.5143878,4.87165816 73.3946684,4.91869898 C73.271199,4.96931122 73.1566582,5.01783163 73.0360969,5.0817602 C72.8861735,5.15961735 72.7585459,5.17357143 72.5975765,5.18816327 C72.446199,5.20002551 72.3043878,5.20877551 72.1590561,5.25354592 C72.0341071,5.29392857 71.9210459,5.36160714 71.8033929,5.40637755 C71.6961735,5.44614796 71.5810204,5.42469388 71.4714796,5.4430102 C71.343648,5.46655612 71.2253571,5.51068878 71.1012755,5.5502551 C70.9940306,5.58627551 70.8940816,5.62022959 70.7905867,5.65686224 C70.6714796,5.69061224 70.5473724,5.72954082 70.422449,5.73910714 C70.2843878,5.74140306 70.1390561,5.72954082 70.0030867,5.76035714 C69.8810714,5.78387755 69.7702806,5.82719388 69.6695153,5.90298469 C69.5483163,5.99107143 69.3815306,5.99107143 69.2545153,6.055 C69.1347704,6.11227041 68.9717347,6.05576531 68.8453316,6.06165816 C68.7608163,6.07040816 68.6845918,6.08956633 68.6029592,6.09165816 C68.4457653,6.09165816 68.2833418,6.1534949 68.1731888,6.2680102 C68.0519898,6.39002551 68.1167602,6.60012755 68.1981888,6.73007653 C68.2833418,6.87040816 68.4597194,6.90122449 68.5831888,7.00117347 C68.6544133,7.0569898 68.7256122,7.06946429 68.8020408,7.10112245 C68.8953061,7.14068878 68.9694388,7.26709184 69.0342092,7.35015306 C69.0870918,7.35954082 69.1487245,7.36704082 69.1920408,7.38890306 C69.2318112,7.40512755 69.2545153,7.43969388 69.2905357,7.46030612 C69.3875765,7.52193878 69.4977041,7.56005102 69.6026531,7.61607143 C69.7040561,7.66290816 69.8127551,7.69831633 69.9208418,7.73433673 C69.998699,7.75913265 70.0705357,7.80262755 70.1478061,7.82387755 C70.2227551,7.8444898 70.2968878,7.8444898 70.3556122,7.90382653 C70.4084949,7.95464286 70.4157908,7.9715051 70.4967857,7.96484694 C70.6862755,7.94653061 70.8801276,7.9715051 71.0739796,7.95234694 C71.1930867,7.93987245 71.3069898,7.8930102 71.4223469,7.8730102 C71.5720663,7.84803571 71.721148,7.82096939 71.860051,7.74683673 C71.9195918,7.71372449 71.9806122,7.69311224 72.0459949,7.66290816 C72.1471939,7.62397959 72.2435969,7.56670918 72.3447959,7.52193878 C72.4676531,7.46030612 72.5961224,7.39992347 72.7150255,7.3309949 C72.7899745,7.28770408 72.8634949,7.22959184 72.9405357,7.1965051 C73.0302806,7.16045918 73.1116837,7.13257653 73.2028827,7.1055102 C73.4025765,7.05030612 73.6097704,7.00117347 73.8073724,6.93788265 C73.9558418,6.88872449 74.1011735,6.83293367 74.2496429,6.78295918 C74.3406378,6.75420918 74.4245663,6.73007653 74.5155612,6.69632653 C74.6448469,6.64408163 74.8006122,6.6169898 74.9386735,6.61117347 C75.0810969,6.60306122 75.2208163,6.62367347 75.3646939,6.64408163 C75.4513265,6.65010204 75.5608418,6.62719388 75.6035204,6.73007653 C75.6174745,6.77857143 75.6166582,6.83438776 75.6503827,6.87625 C75.6834949,6.91456633 75.7392857,6.94890306 75.777602,6.98785714 C75.8708929,7.07155612 75.9691837,7.15318878 76.0595408,7.24647959 C76.1632398,7.35163265 76.2675765,7.45283163 76.3704337,7.56670918 C76.4108163,7.61607143 76.4526786,7.68290816 76.5032653,7.72767857 C76.5532398,7.7622449 76.6273724,7.80262755 76.682551,7.8282398 C76.7485714,7.8569898 76.8316582,7.88196429 76.9007908,7.90382653 C76.9969898,7.92591837 77.0902551,7.95464286 77.1841837,7.98920918 C77.3201531,8.04209184 77.4692347,8.07645408 77.6095918,8.07875 C77.822602,8.09206633 78.035,8.09997449 78.2486224,8.09206633 C78.3567092,8.08686224 78.4595663,8.08686224 78.5615816,8.05084184 C78.6923469,8.01045918 78.7644133,7.89655612 78.8606122,7.80262755 C78.9222449,7.74454082 78.9832398,7.685 79.041352,7.63002551 C79.0823724,7.58816327 79.1367092,7.56005102 79.1706633,7.51903061 C79.1910714,7.48591837 79.2006378,7.44783163 79.2204082,7.41701531 C79.2872704,7.29352041 79.3711735,7.18045918 79.438648,7.06280612 C79.5194388,6.92704082 79.5664796,6.79920918 79.6222959,6.64408163 C79.6502041,6.57951531 79.6862245,6.51788265 79.7184949,6.45979592 C79.752449,6.40107143 79.7713776,6.34964286 79.7957398,6.28632653 C79.8507143,6.14683673 79.9704592,6.08665816 80.1026786,6.01543367 C80.2113776,5.95505102 80.3202806,5.89403061 80.4414541,5.85821429 C80.557449,5.81989796 80.657398,5.81117347 80.7852296,5.80742347 C81.2237755,5.79637755 81.6652041,5.79637755 82.0993622,5.75451531 C82.280102,5.73910714 82.46375,5.73329082 82.6451276,5.71788265 C82.9697449,5.69642857 83.2943622,5.64145408 83.6235714,5.63125 C83.7866071,5.62522959 83.9481888,5.58045918 84.1112245,5.55691327 C84.2059694,5.53859694 84.3015561,5.52903061 84.3977551,5.52903061 C84.4843878,5.52903061 84.567449,5.5502551 84.6571939,5.5502551 C85.0713776,5.54380102 85.492398,5.52903061 85.9015561,5.59522959 C85.9954847,5.61354592 86.0820918,5.64354592 86.1703827,5.68415816 C86.2790816,5.73910714 86.3480102,5.84780612 86.4435714,5.92359694 C86.5545663,6.01543367 86.6926276,6.10413265 86.7344643,6.24969388 C86.7565306,6.32903061 86.7292602,6.41418367 86.726352,6.49061224 C86.7228061,6.56410714 86.7292602,6.65655612 86.7109439,6.73007653 C86.6888776,6.79252551 86.6316071,6.84688776 86.5970408,6.90122449 C86.5522704,6.98056122 86.5222959,7.05030612 86.4560714,7.11132653 C86.3656888,7.19066327 86.3232143,7.32433673 86.2064031,7.37576531 C86.0931378,7.42492347 86.0079592,7.50280612 85.9205102,7.58816327 C85.8405612,7.66290816 85.7670408,7.73433673 85.6729337,7.79015306 C85.6060969,7.82387755 85.5415306,7.83553571 85.476148,7.8619898 C85.4195153,7.88405612 85.3674745,7.93403061 85.3166582,7.9627551 C85.2454337,8.00232143 85.1617347,8.03107143 85.0942602,8.075 C85.0280612,8.10811224 85.0214031,8.18306122 85.002449,8.25137755 C84.9745408,8.33298469 84.9339286,8.40336735 84.9310204,8.49020408 C84.9237245,8.61951531 84.9356122,8.77589286 85.0347194,8.8625 C85.0582398,8.88895408 85.0742857,8.90956633 85.096352,8.93081633 C85.1300765,8.96913265 85.1544388,8.97265306 85.2044133,8.98515306 C85.3453827,9.02201531 85.476148,9.0719898 85.6135969,9.11966837 C85.7133163,9.15778061 85.8147449,9.17028061 85.9146939,9.19234694 C86.1776786,9.25709184 86.4412755,9.3722449 86.6888776,9.46344388 C86.9172959,9.55673469 87.1444643,9.64772959 87.3624745,9.75204082 C87.4682653,9.80056122 87.5661224,9.85346939 87.6733673,9.90719388 C87.7635204,9.94612245 87.839949,10.0106633 87.939898,10.0319133 C88.0383929,10.0583418 88.1427041,10.0754337 88.2395153,10.0943878 C88.4615051,10.1274745 88.7515561,10.1664286 88.9558163,10.0444133 C89.0255867,10.0010969 89.0990816,9.96298469 89.1725765,9.91966837 C89.3231378,9.83431122 89.5001276,9.77267857 89.6721173,9.72352041 C89.7404337,9.70061224 89.8049745,9.67354592 89.8601531,9.62066327 L89.8601531,9.62066327 Z" id="path22" fill="#1B1918"></path>
                    <path d="M97.2834184,14.8340306 C97.3921173,15.0228827 97.5470153,15.1705102 97.6667602,15.3393878 C97.763801,15.4797194 97.7887755,15.6531888 97.8585459,15.7999745 C97.9416071,15.966148 98.070102,16.1004592 98.1456888,16.264949 C98.2964286,16.5941582 98.4784184,16.9260714 98.5298469,17.283801 C98.5798214,17.6144643 98.6181378,17.9553316 98.747449,18.2637245 C98.9325765,18.7236735 99.4475,18.9410714 99.8558418,18.5929082 C100.053444,18.418852 100.224617,18.1968622 100.410357,18.0030102 C100.565485,17.8333163 100.741633,17.6804592 100.902602,17.504949 C101.163291,17.2134184 101.409413,16.9129592 101.674694,16.6249745 C101.88625,16.395102 102.12426,16.1335714 102.142577,15.8022704 C102.185255,15.1065816 102.239617,14.4477551 101.502704,14.1429082 C101.335281,14.070051 101.154541,14.0215306 100.972347,13.9907143 C100.659388,13.9334439 100.534668,13.8026786 100.301658,13.562602 C100.09676,13.3502041 99.8366837,13.1394643 99.6009694,12.9756122 C99.1484949,12.6530612 98.4109694,12.2241071 97.8475,12.5033418 C97.4479082,12.7030357 97.1776276,13.1305102 97.0695663,13.5565561 C97.0122959,13.7968367 97.0122959,14.027551 97.0608163,14.2580612 C97.1055867,14.4542092 97.1820153,14.6503571 97.2834184,14.8340306 L97.2834184,14.8340306 Z" id="path24" fill="#1B1918"></path>
                    <path d="M99.3027806,6.00543367 C99.4304337,6.37566327 99.673648,6.67239796 99.7756633,7.05010204 C99.8279337,7.23147959 99.8625,7.4232398 99.9197704,7.61127551 C100.000561,7.86989796 100.127577,8.20556122 100.283316,8.42816327 C100.373699,8.56244898 100.509668,8.61910714 100.625663,8.75214286 C100.788699,8.93061224 100.902602,9.15757653 101.05023,9.35747449 C101.287602,9.66584184 101.493954,9.77244898 101.880434,9.77244898 C102.260842,9.77244898 102.674388,9.75247449 103.027755,9.5865051 C103.516862,9.35747449 103.729898,8.71321429 103.900434,8.23053571 C104.042857,7.82803571 104.080332,7.43283163 104.080332,7.00076531 C104.082628,6.18096939 103.703444,5.6375 103.15852,5.10278061 C103.032959,4.97701531 102.894694,4.87936224 102.74352,4.79563776 C102.46574,4.6355102 102.157372,4.53410714 101.857526,4.43125 C101.47625,4.30278061 101.083342,4.22719388 100.687296,4.19262755 C100.373699,4.17056122 100.051148,4.17721939 99.7631888,4.17721939 C99.3490051,4.17721939 99.3306888,4.55035714 99.2967602,4.9072449 C99.268852,5.25770408 99.1859694,5.61168367 99.2909184,5.96505102 C99.2967602,5.97545918 99.3005102,5.99086735 99.3027806,6.00543367 L99.3027806,6.00543367 Z" id="path26" fill="#1B1918"></path>
                    <path d="M101.461276,24.9144643 C101.506862,24.6631378 101.491454,24.4120153 101.539133,24.1696429 C101.583291,23.971199 101.629515,23.7456888 101.689694,23.5539031 C101.766939,23.3004847 101.810867,23.0339541 101.915204,22.7855612 C101.923954,22.7628571 101.965179,22.6864286 102.012857,22.5916837 C102.098214,22.4278316 102.152577,22.2470918 102.245026,22.0848724 C102.505102,21.630102 102.582985,21.1372449 102.794541,20.6568622 C103.000893,20.1881378 103.147066,19.7246173 103.30574,19.2398724 C103.415255,18.9048469 103.512296,18.5668878 103.653265,18.2408163 C103.75676,18.001352 104.456811,16.7517857 103.745077,16.7590816 C103.554133,16.7657398 103.387985,16.9229337 103.280128,17.0632908 C103.04273,17.3739541 103.000255,17.7441837 102.825357,18.0792347 C102.65648,18.412602 102.508852,18.7159694 102.392041,19.086199 C102.26273,19.4741327 102.062194,19.8158418 101.818163,20.1616837 C101.614107,20.4540561 101.52727,20.823648 101.334872,21.1276531 C101.111658,21.4847704 100.941939,21.8527041 100.828036,22.2595663 C100.714158,22.65625 100.506327,22.9517092 100.271888,23.2894643 C100.002423,23.6730102 99.9172704,24.1277806 99.7990051,24.5706633 C99.6909184,24.9665051 99.5278827,25.3823469 99.3030102,25.7209184 C99.1707653,25.9229082 98.947551,26.1858929 98.6912245,26.0463776 C98.4782143,25.9281122 98.4215816,25.5726531 98.3259949,25.3692347 C98.2702041,25.2405357 98.2100255,25.0752041 98.0859184,24.9981633 C97.5532653,24.6645918 97.3490051,25.7967092 97.2911224,26.1044643 C97.2242857,26.4569898 97.0258418,26.6972959 97.0089796,27.0829337 C96.9854337,27.4714796 96.9662755,27.8675255 97.04125,28.2450255 C97.1059949,28.5425765 97.1109949,28.8488776 97.2353061,29.1316582 C97.2829847,29.2534694 97.351301,29.3196939 97.4189796,29.422551 C97.5378571,29.602449 97.5915816,29.8273469 97.7052806,30.0130867 C97.8383418,30.218801 98.0271939,30.3847704 98.1798214,30.5742602 C98.4090816,30.8395408 98.6493878,31.2332908 99.0510459,31.2405867 C99.4683418,31.252449 99.8092092,30.9813265 100.072806,30.6794133 C100.202959,30.5317857 100.327066,30.3679082 100.440128,30.2025765 C100.548827,30.0380612 100.564439,29.8073469 100.666454,29.6591071 C100.685612,29.6259949 100.774337,29.5789286 100.811173,29.5245918 C100.861148,29.4556633 100.87574,29.3505102 100.892602,29.2674235 C100.922168,29.1066837 100.922168,28.9436224 100.926531,28.7884949 C100.941939,28.4051531 100.975689,28.0216071 101.008776,27.6463776 C101.046888,27.2143112 101.055026,26.7612245 101.091658,26.3337245 C101.114566,26.069898 101.132883,25.8106633 101.209311,25.554949 C101.279056,25.3419388 101.426071,25.1341327 101.461276,24.9144643 L101.461276,24.9144643 Z" id="path28" fill="#1B1918"></path>
                    <path d="M109.13273,23.657602 C109.358852,23.4931122 109.681403,23.7479847 109.860689,23.8735459 C110.048724,24.0005612 110.238827,24.0932143 110.436429,24.2056633 C110.703163,24.356199 110.870587,24.5823469 110.844974,24.872602 C110.843444,24.9040561 110.836224,24.9386224 110.829566,24.968801 C110.799362,25.1106122 110.720051,25.3207143 110.63051,25.4308673 C110.234464,25.9222704 109.239974,26.0617857 109.053393,25.3140306 C108.98801,25.0443878 109.012168,24.7278827 109.012168,24.4428316 C109.012168,24.2231378 108.923265,23.8110714 109.13273,23.657602 L109.13273,23.657602 Z M108.73523,31.5741582 C108.960102,31.3294898 109.13273,31.0679592 109.319923,30.8064286 C109.652041,30.3289541 110.028112,29.8866837 110.396862,29.4356633 C110.75023,29.0133929 111.028622,28.5527806 111.370128,28.1267602 C111.719107,27.6969898 112.089337,27.2628316 112.524107,26.9198724 C112.84602,26.6685459 113.371173,26.5965051 113.764107,26.5965051 C113.971276,26.602551 114.209286,26.6215051 114.39523,26.7376786 C114.550153,26.8368112 114.65301,27.1657908 114.688214,27.3305102 C114.718393,27.4816837 114.67801,27.6426276 114.707372,27.7954847 C114.754413,28.0526276 114.982857,28.4205612 115.195867,28.5586224 C115.405128,28.7041837 115.751199,28.7041837 115.984005,28.5954847 C116.198469,28.492602 116.288827,28.2970918 116.363163,28.0805357 C116.625332,27.3444643 116.711964,26.2733418 117.679362,26.1184184 C117.932168,26.0771939 118.231786,26.0890561 118.483138,26.1236224 C118.639515,26.1434184 118.759235,26.2015051 118.912066,26.2477296 C119.141327,26.3174745 119.324974,26.3526786 119.540077,26.4651276 C119.808903,26.5965051 120.065434,26.7516327 120.312806,26.9198724 C120.658878,27.1483163 120.804235,27.3694388 121.247959,27.3694388 C121.723954,27.3694388 122.373418,27.4604337 122.607041,26.9683929 C122.706786,26.7551786 122.736352,26.5267602 122.836939,26.3174745 C122.922092,26.1375765 123.00227,26.0347194 122.980179,25.8106633 C122.945612,25.5116582 122.786122,25.248648 122.648061,24.9833673 C122.294082,24.3106122 121.442015,23.8793622 120.696352,23.8758163 C120.409847,23.8758163 120.091888,23.8883163 119.822857,23.9609949 C119.236709,24.1144643 118.515408,24.7293367 117.895306,24.4207398 C117.545077,24.2481378 117.62148,23.8581378 117.606071,23.5172704 C117.591301,23.1676531 117.591301,22.8201276 117.595051,22.4696684 C117.602959,21.8256378 117.69625,21.2357143 117.69625,20.6060459 C117.69625,20.2982908 117.701454,19.989898 117.716224,19.6813265 C117.743291,19.198648 117.768291,18.7307653 117.838878,18.2591327 C117.937985,17.5767857 117.885944,16.8488265 117.885944,16.1589541 C117.884413,15.34875 118.018776,14.5004337 117.906352,13.7039796 C117.845536,13.2662755 117.630867,12.9835204 117.270204,12.7455102 C116.919974,12.52 116.646582,12.1643622 116.27926,11.9484184 C115.959847,11.7595663 115.63,11.5738265 115.301633,11.3989031 C115.054898,11.2675255 114.788163,11.0661735 114.494974,11.1059439 C114.256964,11.1484184 114.124133,11.3108418 113.952117,11.4651276 C113.725995,11.6656633 113.233112,12.243699 112.875383,12.0527551 C112.497041,11.8574235 112.991378,11.023699 113.125051,10.7944388 C113.367423,10.3719388 113.58648,9.94591837 114.005026,9.68584184 C114.467066,9.4009949 114.957015,9.26584184 115.405128,8.96890306 C115.593163,8.84563776 115.803265,8.76548469 115.991276,8.64428571 C116.165561,8.53477041 116.349847,8.43211735 116.506224,8.3005102 C116.814821,8.04188776 117.109464,7.66584184 117.163801,7.25293367 C117.243138,6.60283163 116.860408,6.15329082 116.372551,5.79637755 C116.163291,5.64145408 115.845102,5.51859694 115.750357,5.26375 C115.654158,5.01989796 115.742449,4.7252551 115.730587,4.47186224 C115.712883,3.97316327 115.563801,3.48318878 115.316224,3.05487245 C115.119439,2.72795918 114.875612,2.43352041 114.592015,2.18012755 C114.336301,1.95316327 114.073316,1.65038265 113.773061,1.48214286 C113.448214,1.29556122 113.074464,1.16418367 112.706301,1.08984694 C112.338367,1.0230102 111.975434,0.893903061 111.609592,0.82997449 C111.55023,0.820408163 111.500255,0.807908163 111.44801,0.807908163 C111.167526,0.788137755 110.97199,0.875382653 110.675893,0.985535714 C110.393112,1.08984694 110.061837,1.23102041 109.881939,1.48798469 C109.690995,1.74951531 109.731378,2.05808673 109.876097,2.33211735 C109.955434,2.47017857 110.058291,2.58178571 110.16324,2.69798469 C110.166148,2.7015051 110.379184,2.99533163 110.326276,2.98137755 C110.377092,2.99533163 110.426224,3.01239796 110.475383,3.0255102 C110.661327,3.08798469 110.898495,3.36408163 110.99324,3.54045918 C111.120459,3.77992347 111.16523,4.06061224 111.207092,4.33234694 C111.251224,4.62094388 111.254133,4.9222449 111.304107,5.21668367 C111.340128,5.44594388 111.308495,5.68040816 111.339311,5.90882653 C111.363469,6.08290816 111.442781,6.29507653 111.412806,6.46770408 C111.389286,6.59992347 111.300357,6.73007653 111.257066,6.86084184 C111.176888,7.14068878 111.120459,7.46239796 110.850179,7.62397959 C110.559286,7.79285714 110.205102,7.81576531 109.890051,7.91632653 C109.520459,8.03168367 109.239133,8.24908163 108.900561,8.42168367 C108.530332,8.61721939 108.054949,8.76548469 107.76051,9.06303571 C107.631224,9.19816327 107.551046,9.35913265 107.589362,9.56318878 C107.639337,9.82410714 107.79801,9.88655612 108.017474,9.98339286 C108.385612,10.1443622 108.713163,10.2272194 109.096709,10.2919898 C109.528571,10.3611224 110.049337,10.4608673 110.404158,10.7246684 C110.935357,11.121352 110.470995,12.0365051 110.299847,12.4993878 C110.166148,12.8402551 109.957526,13.0840816 109.679107,13.3322959 C109.388214,13.5842347 109.200204,13.945102 109.557296,14.2793112 C109.784898,14.4981633 110.321276,14.4290306 110.622372,14.4121429 C110.804566,14.4040306 110.97199,14.3682143 111.137321,14.3255357 C111.318061,14.2828571 111.542117,14.3130357 111.709541,14.2578571 C111.854235,14.2064286 112.030612,14.053801 112.139311,13.9780102 C112.380842,13.8024745 112.62926,13.6864796 112.892245,13.5403061 C113.168367,13.3962245 113.421786,13.4101786 113.739107,13.4101786 C114.204082,13.4101786 114.591378,13.8649235 114.774821,14.2578571 C114.917449,14.5597959 114.920995,14.9983163 114.990128,15.3289796 C115.186276,16.2382908 115.101735,17.1978061 115.247296,18.101301 C115.435944,19.3148469 115.29727,20.6275 115.29727,21.8541582 C115.29727,22.4074235 115.318495,22.966301 115.29727,23.5164286 C115.28102,23.8897704 115.456556,24.4076276 115.264158,24.754949 C115.087168,25.0620918 114.639056,25.0231633 114.315051,25.0231633 C113.96898,25.0231633 113.624592,25.3140306 113.286633,25.1905612 C113.043418,25.1016582 112.776071,24.9510969 112.607194,24.7476786 C112.485995,24.5985714 112.393342,24.356199 112.485995,24.1717092 C112.646122,23.8456378 113.061964,23.7604592 113.356378,23.6332398 C113.67227,23.4931122 114.186582,23.1528571 114.254056,22.7980357 C114.334209,22.3639031 114.011046,21.9718112 113.683316,21.7402551 C113.510051,21.6205357 113.310153,21.5176531 113.101531,21.4787245 C112.870179,21.4391582 112.715893,21.5316071 112.501403,21.5859694 C112.331097,21.6367602 112.145128,21.6559184 111.972526,21.7181888 C111.543571,21.8637245 111.017602,22.0796684 110.656122,22.3763776 C110.371046,22.6210459 109.717423,23.3086224 109.292015,23.0904082 C108.923265,22.8994643 108.994464,22.043648 108.994464,21.6983929 C108.994464,20.8001276 108.902015,19.8179082 109.096709,18.9446173 C109.175204,18.6 109.244337,18.2385204 109.423622,17.9249235 C109.57125,17.6656888 109.823214,17.5259694 110.115561,17.5465816 C110.383546,17.5744898 110.617168,17.7148214 110.883903,17.7441837 C111.182092,17.7729337 111.455281,17.9147194 111.759515,17.8853571 C112.145128,17.8485204 112.599898,17.6282143 112.916403,17.3916582 C113.258112,17.1397194 113.432806,16.6982653 113.360128,16.2801531 C113.296224,15.9145153 113.066964,15.7241837 112.769617,15.5582398 C112.365434,15.3327296 111.924005,15.4332908 111.491301,15.5338776 C111.055077,15.6367347 110.672347,15.6919133 110.319005,15.9767602 C110.125128,16.1333418 109.681403,16.5622959 109.384694,16.4498469 C109.131276,16.3565816 109.015077,15.7358418 108.928469,15.4972194 C108.79625,15.1534439 108.362092,14.6347449 107.964592,14.9983163 C107.838393,15.1130357 107.739898,15.3995663 107.675153,15.5582398 C107.482117,16.0055102 107.471709,16.3969643 107.525434,16.8679847 C107.58352,17.3916582 107.507117,17.9667857 107.484209,18.4956888 C107.37926,20.8890306 107.361556,23.3056888 107.365306,25.7092602 C107.365306,26.0074235 107.306582,26.3872449 107.052959,26.577551 C106.825995,26.7612245 106.50074,26.7243622 106.229643,26.7243622 C105.972474,26.7243622 105.764668,26.7978571 105.525204,26.8286735 C105.214337,26.8794898 104.901582,26.8522194 104.587143,26.8713776 C104.053061,26.8969898 103.524158,27.0829337 102.992985,27.0367092 C102.656684,27.0071173 102.181301,26.892602 101.973495,27.2628316 C101.888954,27.4215051 101.943316,27.5684949 102.024107,27.7042602 C102.135077,27.8902041 102.225459,28.0649235 102.328316,28.2500255 C102.711658,28.9436224 103.656378,29.1029337 104.379133,28.9686224 C104.833265,28.8878316 105.267219,28.6298469 105.72574,28.510102 C105.970408,28.4426531 106.212781,28.4168112 106.452245,28.3125 C106.97676,28.0840816 107.481301,27.8902041 108.043929,27.7661224 C108.423087,27.6867857 108.80727,27.6690816 108.929082,28.1230102 C109.035689,28.5021939 108.800612,28.7402041 108.638189,29.0581633 C108.480995,29.3586224 108.369362,29.6876276 108.189464,29.9720663 C107.969158,30.3231378 107.703265,30.6131888 107.453393,30.938648 C107.174362,31.2876276 106.79227,31.5976786 106.529286,31.9729082 C106.28773,32.3218878 106.340638,32.8287245 106.829745,32.8249745 C107.589362,32.8133163 108.247551,32.0949235 108.73523,31.5741582 L108.73523,31.5741582 Z" id="path30" fill="#1B1918"></path>
                    <path d="M118.958291,32.6317347 C118.944337,32.5157398 118.923724,32.4024745 118.900204,32.3062755 C118.812117,31.9243878 118.715918,31.5358418 118.565383,31.1749745 C118.419209,30.8297449 118.175357,30.6013265 117.975459,30.2958418 C117.899056,30.1680102 117.918214,30.2296429 117.818265,30.1540561 C117.627321,30.0070408 117.434082,29.8698214 117.217321,29.7609184 C116.799413,29.5458163 116.335893,29.4356633 115.873852,29.3929847 C115.493418,29.3584184 115.08926,29.3548724 114.707372,29.3892347 C114.469974,29.4127551 114.237194,29.3856888 114.002092,29.4223469 C113.534209,29.4943878 113.108801,29.8344133 113.483622,30.2958418 C113.755357,30.638801 114.178469,30.7797704 114.49727,31.0581633 C114.953495,31.463801 115.263316,32.0095663 115.513189,32.557602 C115.67852,32.9182653 115.88926,33.2472449 116.053138,33.6072704 C116.137449,33.7967602 116.230944,33.9577296 116.420434,34.0495408 C116.794209,34.2375765 117.343724,34.2544388 117.733087,34.1030612 C118.134133,33.9547959 118.620357,33.7740561 118.858342,33.386148 C118.977449,33.1870663 118.988495,32.8984694 118.958291,32.6317347 L118.958291,32.6317347 Z" id="path32" fill="#1B1918"></path>
                    <path d="M111.363673,19.1363776 C110.97949,19.3435714 110.310255,19.4339541 110.18699,19.9634694 C110.143673,20.1729337 110.275051,20.4609184 110.426429,20.6004337 C110.658393,20.8178061 110.998648,20.7518112 111.292449,20.7518112 C111.631862,20.7518112 111.968367,20.7832398 112.304643,20.7788776 C112.603648,20.7788776 112.875383,20.6547704 113.161276,20.5504592 C113.288291,20.4990306 113.365332,20.4394643 113.416148,20.3528571 C113.477168,20.2479082 113.491122,20.112551 113.491122,19.9459694 C113.491122,19.5778316 113.477168,19.1268112 113.161276,18.8867347 C112.582423,18.4444643 111.890485,18.8484184 111.363673,19.1363776 L111.363673,19.1363776 Z" id="path34" fill="#1B1918"></path>
                    <path d="M166.87301,41.2227296 C167.66926,41.4496939 168.065944,42.3458929 168.065944,43.9261224 L168.065944,46.1452041 L163.230102,41.0178316 L160.33824,41.0178316 L160.33824,41.2227296 C160.78176,41.3174745 161.074107,41.5554847 161.206352,41.9213265 C161.289413,42.163699 161.334184,42.6199235 161.334184,43.2964541 L161.334184,47.0245408 C161.334184,47.551148 161.238827,47.861199 161.052245,48.365102 C160.816327,48.9924745 160.479847,49.5632143 160.044235,49.6931633 L160.034031,49.8482908 L163.042908,49.8482908 L163.04727,49.6660969 C162.21125,49.4493367 161.79625,48.5627041 161.79625,47.0053827 L161.79625,42.6149235 L167.866046,49.5095153 C168.06801,49.7439796 168.209184,49.8584949 168.287066,49.8584949 C168.473648,49.8584949 168.566939,49.7152296 168.566939,49.4266327 L168.566939,43.9261224 C168.566939,43.3237245 168.650638,42.7910969 168.824719,42.3342347 C169.05398,41.7208163 169.407117,41.3580867 169.8825,41.2227296 L169.8825,41.0178316 L166.87301,41.0178316 L166.87301,41.2227296 Z" id="path36" fill="#1B1918"></path>
                    <path d="M144.795408,48.8842092 C144.459745,49.250051 143.977092,49.4264286 143.341786,49.4264286 C142.641735,49.4264286 142.207577,49.2477551 142.034949,48.8819133 C141.93648,48.6749235 141.881505,48.1364541 141.881505,47.2652551 L141.881505,45.3362245 L142.390408,45.3362245 C144.336276,45.3362245 145.303903,46.0017347 145.303903,47.33875 C145.303903,48.0123469 145.135663,48.5279337 144.795408,48.8842092 L144.795408,48.8842092 Z M141.881505,41.4898724 L142.264847,41.4898724 C143.009668,41.4898724 143.554796,41.5715051 143.897755,41.7389286 C144.412704,41.9777551 144.667577,42.4418878 144.667577,43.1340306 L144.667577,43.1802551 C144.667577,43.8721939 144.412704,44.3519388 143.897755,44.6228571 C143.529821,44.8285714 142.982602,44.92125 142.264847,44.92125 L141.881505,44.92125 L141.881505,41.4898724 Z M146.424796,45.5992347 C145.838622,45.2685714 145.130459,45.0959439 144.286505,45.0805357 C145.066531,44.9718367 145.65352,44.8006888 146.04727,44.5684949 C146.616556,44.2284694 146.893495,43.69375 146.893495,42.9518367 C146.893495,41.66625 145.757832,41.0176276 143.463597,41.0176276 L139.139158,41.0176276 L139.139158,41.2285714 C139.546862,41.3459949 139.756352,41.878648 139.756352,42.8283673 L139.756352,47.1844388 C139.756352,47.7139796 139.707832,48.1980867 139.604337,48.629949 C139.449209,49.3000255 139.193495,49.6394388 138.835765,49.6394388 L138.835765,49.8582908 L143.462143,49.8582908 C144.086607,49.8582908 144.639668,49.8207908 145.130459,49.7318878 C146.759821,49.4630612 147.573571,48.721148 147.573571,47.5244898 C147.573571,46.6761735 147.19023,46.0333673 146.424796,45.5992347 L146.424796,45.5992347 Z" id="path38" fill="#1B1918"></path>
                    <path d="M151.761837,45.9775765 L152.891454,43.5269643 L153.955918,45.9775765 L151.761837,45.9775765 Z M157.293138,48.0710714 L154.107908,41.5238265 C153.983189,41.1873214 153.865536,41.0176276 153.763495,41.0176276 C153.707704,41.0176276 153.608367,41.163801 153.459286,41.4665561 L150.540791,47.5861224 C150.344847,47.9952806 150.097883,48.3898724 149.802628,48.7909184 C149.403036,49.3293878 149.060714,49.6202806 148.766913,49.6760969 L148.766913,49.8582908 L151.764745,49.8582908 L151.764745,49.6533929 C151.130077,49.4843112 150.809821,49.1280357 150.809821,48.5837245 C150.809821,48.4889796 150.833342,48.3671684 150.879566,48.1966327 C150.939133,47.9234439 151.013878,47.6831633 151.10426,47.4820153 L151.592117,46.4190051 L154.165383,46.4190051 L154.769031,47.6912755 C154.852959,47.8691071 154.930612,48.0571173 154.996837,48.2509949 C155.113648,48.56625 155.168622,48.8121429 155.168622,48.9870663 C155.168622,49.2169388 155.113648,49.3756122 154.990995,49.4726531 C154.930612,49.5307398 154.771939,49.5909184 154.528954,49.6533929 L154.528954,49.8582908 L158.594158,49.8582908 L158.594158,49.6077806 C158.171658,49.4843112 157.736046,48.9693622 157.293138,48.0710714 L157.293138,48.0710714 Z" id="path40" fill="#1B1918"></path>
                    <path d="M179.984184,48.545 C179.84676,48.3009694 179.599158,47.8228827 179.249566,47.1065816 C178.82352,46.2228571 178.351071,45.6381633 177.829668,45.3260204 C177.390918,45.0711735 176.7725,44.9329082 175.976862,44.9160459 L178.166786,42.8672959 C178.702347,42.4383418 179.092959,42.1401786 179.341378,41.976301 C179.739515,41.7008163 180.162628,41.473852 180.60926,41.2916582 L180.60926,41.0176276 L177.208112,41.0176276 L177.208112,41.25125 C177.591658,41.338699 177.795102,41.5421429 177.795102,41.8728061 C177.795102,42.0160714 177.722219,42.2041071 177.584158,42.4420918 C177.451327,42.6792602 177.324082,42.8570918 177.208112,42.981199 L175.272423,44.9947449 L175.272423,42.785051 C175.272423,42.3134184 175.292423,41.9975255 175.329082,41.8367857 C175.422347,41.5092602 175.610383,41.3070663 175.911684,41.2285714 L175.911684,41.0176276 L172.50824,41.0176276 L172.50824,41.2285714 C172.811607,41.2689541 173.014439,41.4665561 173.099592,41.8265816 C173.132704,41.9815051 173.148954,42.3032143 173.148954,42.7835969 L173.148954,47.141148 C173.148954,48.7792602 172.850561,49.6013265 172.26523,49.6013265 L172.26523,49.8582908 L176.107015,49.8582908 L176.107015,49.6013265 C175.683061,49.6013265 175.424643,49.2854592 175.320332,48.6668112 C175.292423,48.4831633 175.272423,47.9990306 175.272423,47.213801 L175.272423,46.1685204 C175.272423,45.6918878 175.437143,45.4524235 175.753648,45.4524235 C176.034337,45.4524235 176.284005,45.6242092 176.494107,45.9592602 C176.556556,46.0621173 176.686505,46.3617602 176.879745,46.8685714 L177.99125,49.7614541 C178.01477,49.8274745 178.070587,49.8582908 178.157832,49.8582908 L181.038852,49.8582908 L181.038852,49.7231378 C180.695893,49.5351276 180.350663,49.139898 179.984184,48.545 L179.984184,48.545 Z" id="path42" fill="#1B1918"></path>
                    <path d="M70.3830867,41.0176276 L70.3830867,41.2285714 C70.8305612,41.3541071 71.0567092,41.8653061 71.0567092,42.7519388 L71.0567092,47.0940816 C71.0567092,48.7871684 70.7306122,49.6394388 70.0776276,49.6394388 L70.0776276,49.8582908 L74.1088776,49.8582908 L74.1088776,49.6394388 C73.7011735,49.6394388 73.4352806,49.3220918 73.3059694,48.6938776 C73.2318367,48.3730102 73.1949745,47.8917857 73.1949745,47.2571173 L73.1949745,45.4478571 L73.9289796,45.4478571 C74.5107653,45.4478571 75.0263265,45.5469643 75.4677806,45.7468622 C76.0210204,45.9944388 76.3595918,46.3742347 76.474949,46.8927296 L76.6769388,46.8927296 L76.6769388,43.4769898 L76.4279082,43.4769898 C76.1561735,44.4641837 75.3180612,44.9587245 73.9289796,44.9587245 L73.1949745,44.9587245 L73.1949745,41.4898724 L74.3491837,41.4898724 C75.6478827,41.4898724 76.7791837,42.1326786 77.7376531,43.4153571 L77.9977041,43.4153571 L77.4307143,41.0176276 L70.3830867,41.0176276 Z" id="path44" fill="#1B1918"></path>
                    <path d="M86.2057908,41.2227296 C87.117398,41.458648 87.5788265,42.3635969 87.5788265,43.9355102 L87.5788265,46.10625 C87.5788265,47.148648 87.3826786,47.9192857 86.9984949,48.4231888 C86.5687245,48.9814541 85.8526276,49.2590051 84.8645918,49.2590051 C83.5717092,49.2590051 82.9260204,48.361352 82.9260204,46.5639286 L82.9260204,42.7448724 C82.9260204,41.8076276 83.2316837,41.3072704 83.8324235,41.2227296 L83.8324235,41.0178316 L80.0949745,41.0178316 L80.0949745,41.2227296 C80.4035714,41.2691582 80.5980357,41.4667602 80.6811224,41.8155357 C80.7171429,41.9683929 80.7354847,42.276148 80.7354847,42.7448724 L80.7354847,47.2918878 C80.7354847,48.2145408 81.147551,48.8954337 81.9696173,49.3391837 C82.6197194,49.6844133 83.4328316,49.8584949 84.4231633,49.8584949 C85.6527296,49.8584949 86.5687245,49.5690561 87.1586224,48.9864286 C87.7477041,48.4150765 88.040051,47.4976276 88.040051,46.2443112 L88.040051,43.9107143 C88.040051,43.3449745 88.1260459,42.8227296 88.3030357,42.3458929 C88.5145918,41.7266327 88.8379592,41.3580867 89.2704592,41.2227296 L89.2704592,41.0178316 L86.2057908,41.0178316 L86.2057908,41.2227296 Z" id="path46" fill="#1B1918"></path>
                    <path d="M126.96273,41.2227296 C127.756684,41.4496939 128.155638,42.3496429 128.155638,43.9261224 L128.155638,46.1452041 L123.320638,41.0178316 L120.427755,41.0178316 L120.427755,41.2227296 C120.868571,41.3174745 121.159464,41.5554847 121.295434,41.9213265 C121.376837,42.163699 121.423291,42.6199235 121.423291,43.2964541 L121.423291,47.0245408 C121.423291,47.551148 121.327704,47.861199 121.140306,48.365102 C120.904592,48.9924745 120.569541,49.5632143 120.130408,49.6931633 L120.12602,49.8482908 L123.131786,49.8482908 L123.135536,49.6660969 C122.300944,49.4493367 121.88074,48.5627041 121.88074,47.0053827 L121.88074,42.6149235 L127.954286,49.5095153 C128.155638,49.7439796 128.297449,49.8584949 128.375128,49.8584949 C128.562526,49.8584949 128.653724,49.7152296 128.653724,49.4266327 L128.653724,43.9261224 C128.653724,43.3237245 128.740357,42.7910969 128.913597,42.3342347 C129.143673,41.7208163 129.495383,41.3580867 129.971378,41.2227296 L129.971378,41.0178316 L126.96273,41.0178316 L126.96273,41.2227296 Z" id="path48" fill="#1B1918"></path>
                    <path d="M105.920434,48.9264796 C105.835051,48.6187245 105.793189,48.0354592 105.793189,47.1752806 L105.793189,42.3336224 C105.793189,42.0162755 105.832143,41.7820153 105.90648,41.6256378 C105.998291,41.4376276 106.174464,41.3074745 106.432245,41.2289796 L106.432245,41.0174235 L103.027551,41.0174235 L103.027551,41.2289796 C103.263469,41.3155867 103.419209,41.4065816 103.501454,41.5169643 C103.626199,41.6835204 103.68949,41.970051 103.68949,42.388801 L103.68949,47.1752806 C103.68949,47.9854847 103.638061,48.5629082 103.535204,48.8994133 C103.391939,49.3664541 103.119362,49.6009184 102.709566,49.6009184 L102.709566,49.858699 L106.654209,49.858699 L106.654209,49.6009184 C106.288367,49.6009184 106.043061,49.3716582 105.920434,48.9264796 L105.920434,48.9264796 Z" id="path50" fill="#1B1918"></path>
                    <path d="M97.6442602,48.0571173 C97.2444643,48.9731122 96.6268878,49.4264286 95.7908418,49.4264286 C95.1642857,49.4264286 94.7749235,49.2250765 94.6235204,48.8158929 C94.5581378,48.6241327 94.5177551,48.1091837 94.5177551,47.2652551 L94.5177551,41.4898724 L95.3221429,41.4898724 C96.4357143,41.4898724 97.2055357,41.878648 97.6309439,42.667398 C97.9416071,43.2602296 98.1011224,44.1909949 98.1011224,45.4771939 C98.1011224,46.5056378 97.951199,47.3622704 97.6442602,48.0571173 Z M99.0046173,42.0402296 C98.1819133,41.3576531 97.2467602,41.0176276 96.2000255,41.0176276 L91.7279337,41.0176276 L91.7279337,41.2285714 C92.0092602,41.3078827 92.2060204,41.5009184 92.2978571,41.8272194 C92.3515816,42.0239796 92.383852,42.3200765 92.383852,42.7269643 L92.383852,47.2440051 C92.383852,47.7662245 92.3257653,48.2370408 92.2120663,48.6711735 C92.0510969,49.3139796 91.7808418,49.6394388 91.4230867,49.6394388 L91.4230867,49.8582908 L96.2000255,49.8582908 C97.251148,49.8582908 98.1935714,49.5307398 99.0141837,48.865051 C100.018265,48.0548469 100.518622,46.9243878 100.518622,45.4771939 C100.518622,44.0146173 100.011811,42.8760459 99.0046173,42.0402296 L99.0046173,42.0402296 Z" id="path52" fill="#1B1918"></path>
                    <path d="M111.530051,45.9775765 L112.670077,43.5269643 L113.736811,45.9775765 L111.530051,45.9775765 Z M117.088648,48.0710714 L113.883622,41.5238265 C113.758061,41.1873214 113.645,41.0176276 113.542755,41.0176276 C113.489235,41.0176276 113.387832,41.163801 113.240204,41.4665561 L110.304005,47.5861224 C110.107857,47.9952806 109.861939,48.3898724 109.56,48.7909184 C109.15898,49.3293878 108.815179,49.6202806 108.522628,49.6760969 L108.522628,49.8582908 L111.532959,49.8582908 L111.532959,49.6533929 C110.894745,49.4843112 110.573036,49.1280357 110.573036,48.5837245 C110.573036,48.4889796 110.602398,48.3671684 110.642781,48.1966327 C110.702959,47.9234439 110.780842,47.6831633 110.868291,47.4820153 L111.361786,46.4190051 L113.949005,46.4190051 L114.550561,47.6912755 C114.637398,47.8691071 114.716735,48.0571173 114.780663,48.2509949 C114.901837,48.56625 114.959719,48.8121429 114.959719,48.9870663 C114.959719,49.2169388 114.901837,49.3756122 114.780663,49.4726531 C114.716735,49.5307398 114.550561,49.5909184 114.306097,49.6533929 L114.306097,49.8582908 L118.396913,49.8582908 L118.396913,49.6077806 C117.972985,49.4843112 117.535893,48.9693622 117.088648,48.0710714 L117.088648,48.0710714 Z" id="path54" fill="#1B1918"></path>
                    <path d="M45.6079337,0.385408163 L45.6079337,0.385408163 C34.8155612,0.385408163 25.6452806,7.31456633 22.2882653,16.9610459 C20.8102806,20.7896939 17.6683418,23.7904592 13.7501531,25.0714541 C16.3652806,25.9324745 18.6395153,27.5528827 20.2953316,29.6817857 C18.5549745,35.8698469 13.3918112,40.6305357 6.97739796,41.7839031 L6.97739796,8.35778061 C12.5520408,9.35683673 17.185051,13.0899235 19.4432653,18.1129592 C20.2526531,15.0805612 21.5682143,12.2582653 23.2960714,9.74747449 C18.7746684,4.04436224 11.7903316,0.385408163 3.94665816,0.385408163 L0.0930357143,0.385408163 L0.0930357143,49.7554082 L3.94665816,49.7554082 C14.7404847,49.7554082 23.9124235,42.8262755 27.2700765,33.1768622 L27.2671684,33.18125 C28.7451531,29.3548724 31.88625,26.3526786 35.8073469,25.0714541 C33.1855867,24.2127296 30.9165306,22.5894133 29.256352,20.4613265 C31.0002296,14.2703571 36.1613265,9.5117602 42.5807398,8.35778061 L42.5807398,41.7839031 C37.0025765,40.7856633 32.3747449,37.0546684 30.1113265,32.0330867 C29.3071429,35.0631888 27.9855357,37.8831888 26.2570663,40.3977296 C30.7776531,46.095 37.7678061,49.7554082 45.6079337,49.7554082 L49.462398,49.7554082 L49.462398,0.385408163 L45.6079337,0.385408163 Z" id="path56" fill="#A41C2A"></path>
                </g>
            </g>
        </g>
    </g>
</svg>