<?xml version="1.0" encoding="UTF-8"?>
<svg width="200px" height="50px" viewBox="0 0 200 50" version="1.1" xmlns="http://www.w3.org/2000/svg" xmlns:xlink="http://www.w3.org/1999/xlink">
    <!-- Generator: Sketch 42 (36781) - http://www.bohemiancoding.com/sketch -->
    <title>svg</title>
    <desc>Created with Sketch.</desc>
    <defs></defs>
    <g id="Page-1" stroke="none" stroke-width="1" fill="none" fill-rule="evenodd">
        <g id="svg" fill-rule="nonzero">
            <g id="2-CCB" transform="translate(0.000000, 3.000000)">
                <g id="Page-1">
                    <g id="Page_1">
                        <g id="图层_1_1_">
                            <g id="中国建设银行">
                                <path d="M19.25,1.625 C19.25,1.625 22.875,-1.25 29.125,0.875 C29.125,0.875 31.25,1.625 33.625,3.875 L41.125,11.75 L37.125,15.75 L25.625,4 C25.625,4.125 23.75,1.75 19.25,1.625 L19.25,1.625 Z M35.875,17.25 L31.125,21.875 C31.125,21.875 30.375,23 29.75,22 L21,13.5 C21,13.5 20.25,12.5 19.625,13.375 L10.875,22.375 C10.875,22.375 10.25,23.25 11,23.625 L19.625,32.25 C19.625,32.25 20.375,33.375 21,32.5 L29.875,23.5 C29.875,23.5 30.125,22.75 31.5,22.875 L40.625,22.875 C40.625,22.875 41,32.125 34,37.875 C34,37.875 24.875,47 12.25,41.375 C12.25,41.375 0.125,37.125 0.25,21.5 C0.25,21.5 0.625,11 10.125,5.375 C10.125,5.375 17.125,0.25 22.625,4 L35.875,17.25 L35.875,17.25 Z" id="Shape" fill="#003B90"></path>
                                <path d="M154.875,9 C155.625,9.375 156.375,9.625 157.25,10 C157.125,10.5 157,10.875 156.875,11.375 C157,11.375 157.125,11.5 157.25,11.5 C158.5,11.5 159.75,11.625 161,11.625 C161,12.125 160.875,12.75 160.875,13.375 C158.875,13.375 156.875,12.75 155.375,13.75 C155.25,13.875 155.25,14.125 155.125,14.25 C155.125,14.375 155.25,14.375 155.25,14.5 L160.375,14.5 C160.5,14.5 160.5,14.625 160.625,14.625 C160.625,15.125 160.5,15.625 160.5,16.25 C159.5,16.25 158.375,16.375 157.375,16.375 C157.375,16.875 157.5,17.25 157.5,17.75 C158.625,17.875 159.875,17.875 161,18 C161,18.625 161,19.375 160.75,19.625 C159.875,19.375 157.875,19.25 157.375,20 C157.5,20.625 157.125,22.125 157.75,22.875 C158.75,22.25 159.875,21.625 160.875,21.125 L160.875,23.125 C160.75,23.375 160.75,23.5 160.625,23.75 C159.5,24.25 156,26.75 154.75,25.875 C154.125,25.5 153.75,24.75 153.375,24.25 C153.875,24.125 154.25,23.875 154.75,23.75 C154.75,22.375 154.625,21 154.625,19.625 C153.875,19.625 152.75,19.75 152.375,19.375 C152.375,18.875 152.25,18.5 152.25,18 C153,17.875 153.75,17.875 154.625,17.75 L154.625,16.375 C153.5,16.125 153,16.375 152.125,16.5 C151.625,16 151.25,15.375 150.75,14.875 C151.25,14.25 152,13.875 152.5,13.5 C153.5,12 154.25,10.875 154.875,9 L154.875,9 Z M181.125,9.25 C181.875,9.5 182.625,10.125 183,10.75 C182.25,12.625 179.5,16.125 177.375,16.125 C177,15.625 176.75,15.125 176.375,14.5 C176.5,14.375 176.75,14.125 176.875,14 C178.5,12.5 180.125,11.375 181.125,9.25 L181.125,9.25 Z M78.75,9.625 C82.625,9.75 86.5,9.75 90.5,9.875 C92,10 94.875,9.375 95.625,10.625 C96.75,12 95.75,19.875 96,22.5 C96.125,23.625 96.125,25.125 95.625,25.625 C89.125,25.5 82.625,25.5 76.125,25.375 C76.125,24.375 75.75,18.25 76,13.875 C76,12.75 75.875,11.625 76,10.875 C76.125,10.125 76.875,9.75 77.125,9.625 L78.75,9.625 L78.75,9.625 Z M60.25,9.625 C60.875,9.625 61.5,9.75 62.125,9.75 C62.25,10.375 62.25,11 62.375,11.5 C65.375,11.875 67.625,11.25 70.125,12 C70.5,13.625 70.875,23.75 70,23.625 C67.375,23.625 64.875,23.75 62.25,23.75 C62.25,24.375 62.125,25 62.125,25.5 L58.625,25.5 C58.375,25.375 58.625,25.5 58.5,25.25 C58.375,24.75 58.5,24.125 58.375,23.625 C55.75,23.625 52.875,23.5 50.25,23.5 C50.125,20.625 50,12.75 50.5,12.125 C53,10.75 56,11.75 58.25,11.375 C58.5,10.875 58.5,10.125 58.625,9.625 C59.25,9.75 59.75,9.75 60.25,9.625 L60.25,9.625 Z M121.875,15 L120.5,15 L120.5,17.75 C118.875,17.75 116.25,17.375 115,18 L115,18.125 C115,18.375 115.125,18.5 115.125,18.75 C117,18.75 119.25,18.375 120.75,19 C120.75,19.375 120.625,19.75 120.625,20 L120.625,20.5 C118.875,20.5 117.125,20.625 115.5,20.625 C115.375,20.75 115.375,20.875 115.25,21 L115.5,21 C117,21.625 119.625,20.5 120.625,21.375 C120.875,21.875 120.75,22.625 120.5,23 L115.125,23 L115.125,23.75 C115.25,23.75 115.25,23.875 115.375,23.875 L121.625,23.875 C121.625,24.375 121.75,24.75 121.75,25.25 C121.625,25.5 121.5,25.5 121.375,25.625 C117.625,24.75 112.125,25.75 108.5,25.625 C106.75,25.5 105.5,24.75 104.125,24.5 C103.375,25.125 102.25,25.5 100.75,25.5 L100.75,23.25 C101.375,23 101.875,22.875 102.25,22.5 C101.625,21.5 101.125,20.25 101.125,18.75 L102.75,18.75 C103,19.375 103.125,20.5 103.75,20.75 C104.25,19.5 104.375,18.125 104.125,17.125 L101,17.125 C101,17 100.875,17 100.875,16.875 C100.875,16.375 101,15.875 101,15.375 C102.625,15 104.125,13.75 104.25,12 C104,12 103.75,11.875 103.5,11.875 C102.875,12 101.375,12.125 100.625,11.625 C100.75,11.125 100.75,10.625 100.875,10 L106.875,10 C107,10 107,10.125 107.125,10.125 C107.125,12.5 106.25,13.5 105.375,15 L105.375,15.125 L105.75,15.125 C106,15.125 106.375,15.25 106.625,15.25 L106.625,20 C106.5,20.625 105.625,22.375 105.625,22.625 C106,23.75 110.5,23.875 111.875,23.5 L111.875,23.375 C111.875,23.125 111.75,23 111.75,22.75 C110.25,22.75 108.625,22.625 107.125,22.625 C107.125,22.125 107.25,21.5 107.25,20.875 C108.75,20.75 110.375,20.75 111.875,20.625 C111.875,20.5 111.75,20.25 111.75,20.125 L107.5,20.125 C107.5,20 107.375,19.875 107.375,19.75 C107.5,19.125 107.25,18.25 108.125,18.5 C109,18.125 110.75,18.5 111.875,18.25 C111.875,18.125 112,17.875 112,17.75 C111.875,17.625 111.75,17.5 111.625,17.375 C110.25,17.625 109.625,17.375 107.875,17.375 L107.875,15.75 L108.125,15.75 C109.375,15.625 110.625,15.625 111.875,15.5 L111.875,14.75 L111.625,14.75 C110.25,14.75 108.75,14.625 107.375,14.625 C107.375,14 107.5,13.375 107.5,12.875 C108.75,12.875 111.375,13.375 111.875,12.5 C111.75,12.25 111.75,12.375 111.5,12.125 C110.375,11.75 108.5,12.25 107.75,11.875 C107.75,11.375 107.875,10.75 107.875,10.125 C109.25,10.125 110.875,10.375 111.875,9.875 C111.875,9.625 112,9.5 112,9.25 C113,9.25 114,9.375 115,9.375 C115.125,10.125 115.25,10 115.875,10.25 C117.25,10 119.75,9.875 120.375,11.25 C120.5,11.75 120.5,12.25 120.625,12.75 C121.25,12.75 121.625,12.75 122,13 C121.875,13.875 121.875,14.375 121.875,15 L121.875,15 Z M147.25,14.375 C147.25,14.875 147.125,15.375 147.125,15.875 C146,15.875 144.875,16.125 144,16 C143.625,15.875 143.25,15.625 142.875,15.5 C142.625,15 142.25,14.375 142.125,13.875 C142,13.125 142.25,12.375 142.125,11.5 C140.75,11.5 139.375,11.625 138,11.625 C137.875,13 137.875,14.5 137.125,15.5 C136,15.75 134.25,16 133,15.875 C133.125,15.375 133.125,14.875 133.25,14.375 C135.5,14.375 134.5,11 134.75,9.75 C138.125,9.75 141.5,9.875 144.875,9.875 L145.5,10.5 C145.5,11.75 145.25,13.125 145.625,14 C145.625,14.25 145.875,14.25 146,14.375 L147.25,14.375 L147.25,14.375 Z M164,9.625 C166.625,9.75 169.25,9.75 171.75,9.875 C173.625,11.125 172.25,15.625 172.75,17.625 C172.625,17.75 172.5,17.875 172.375,18 C169.75,18 167.125,18.125 164.5,18.125 C164.5,19.75 164.125,22.125 164.75,23.375 C165.875,22.875 166.625,22.5 166.875,22.875 C167,23 167,23.875 167.125,24.5 C166.75,25.5 161.875,25.875 161.125,25.625 C161,25.125 160.75,24 160.875,23.75 C161,23.375 161.375,23.75 161.5,23.5 L161.5,23.125 C161.5,18.75 161.625,14.375 161.625,10 C162.5,9.75 163.25,9.75 164,9.625 L164,9.625 Z M185.875,11.75 L185.875,10.125 C189.5,9.875 195.375,9.75 198.625,10.125 C198.75,11 198.625,11 198.75,11.75 L185.875,11.75 L185.875,11.75 Z M132.375,11.875 L126.625,11.875 L126.125,11.875 C126.125,11.125 126,10.5 126.5,10.25 C128.5,10.25 130.5,10.125 132.5,10.125 C132.375,10.75 132.375,11.375 132.375,11.875 L132.375,11.875 Z M80,11.5 C79.75,11.625 79.375,11.75 79.125,12.375 C78.875,13.25 79.125,14.625 79.125,16.125 L79.125,23.75 C79.25,23.75 79.375,23.875 79.5,23.875 C79.875,24.125 91.875,24.125 92.625,23.75 C92.625,19.875 92.5,15.875 92.5,12 C92.375,12 92.25,11.875 92.125,11.875 C88.125,11.625 84.125,11.5 80,11.5 L80,11.5 Z M165.375,11.5 C165.125,11.5 164.875,11.625 164.625,11.625 L164.625,13 C166.25,13 167.875,12.875 169.625,12.875 C169.625,12.125 169.625,11.75 169.25,11.5 L165.375,11.5 L165.375,11.5 Z M180.25,25.5 C180.25,23.875 180.5,19.875 179.75,19.375 C179.25,19.625 178.75,19.875 178.25,20.125 C177.875,19.25 177.375,18.75 177.25,17.75 C180.5,17 181.875,13.875 184,12 C184.625,12.5 185.25,13 185.75,13.5 C185.125,14.75 183.75,15.625 183.375,16.625 C183.375,19.5 183.5,22.375 183.5,25.125 C183.5,25.25 183.375,25.25 183.375,25.375 C182.25,25.5 181.25,25.5 180.25,25.5 L180.25,25.5 Z M115.125,13.125 C115.875,13.125 116.625,13 117.5,13 C117.5,12.75 117.375,12.5 117.375,12.25 C116.625,12.25 116,12.375 115.25,12.375 C115.125,12.625 115.125,12.875 115.125,13.125 L115.125,13.125 Z M91.625,17.75 C90.75,17.75 89.875,17.875 89,17.875 C89,18 89.125,18.125 89.125,18.25 C90.375,18.125 90.75,19.125 91.75,19.625 C91.75,20 91.625,20.375 91.625,20.75 C91,20.75 90.375,20.875 89.875,20.875 C89.875,21 90,21 90,21.125 C90.75,21.125 91.625,21 91.875,21.5 C91.875,21.875 92,22.25 92,22.5 C91.625,23.25 81.5,23.25 80.125,22.875 C80.125,22.375 80.25,21.875 80.25,21.25 C81.5,21 83.125,21.375 84.125,21 C84.125,20 84,19 84,18 C82.75,18 80.875,18.25 80.25,17.625 C80.25,17.125 80.375,16.625 80.375,16 C81.625,16 83.375,16.375 84.25,15.625 C84.25,15.25 84.125,14.75 84.125,14.375 C84,14.375 83.875,14.25 83.75,14.25 L80.125,14.25 L80.125,12.5 L91.875,12.5 L91.875,13 C92,13.5 92.125,14 91.625,14.25 C90.875,14.5 88.375,13.875 87.75,14.625 C87.75,15.125 87.875,15.5 87.875,16 C89.125,16.125 90.375,16.125 91.625,16.25 L91.625,17.75 L91.625,17.75 Z M56.125,13.375 C55.375,13.625 54.375,13.375 53.75,13.75 C54,15.125 53.25,21 54.125,21.875 C54.75,22.125 57.625,22.25 58.5,21.75 C58.625,20.875 58.5,19 58.5,17.25 C58.5,15.625 58.625,14.125 58.375,13.5 C57.75,13.5 56.875,13.375 56.125,13.375 L56.125,13.375 Z M62.75,13.375 C62.625,13.375 62.5,13.5 62.375,13.5 C62.25,14.875 62.375,16.375 62.25,17.875 C62.25,19.25 62.125,20.375 62.375,22 C63.75,22.125 65.875,22.25 67,21.875 C67,19.125 66.875,16.25 66.875,13.5 C65.625,13.375 64.125,13.375 62.75,13.375 L62.75,13.375 Z M124.875,15.5 C124.875,15 125,14.375 125,13.875 C126.875,13.875 128.625,14 130.5,14 C130.5,16.625 130.625,19.25 130.625,21.875 C131.625,21.25 132.25,20.5 133.125,19.875 C133.125,20.75 133.375,21.75 133,22.5 C132.25,23.75 128.875,26.25 127.125,25.5 C126.75,25 126.5,24.625 126.125,24.125 C126.125,24 126.25,23.875 126.25,23.75 C126.625,23.625 127,23.5 127.375,23.375 C127.5,22 127.375,20.125 127.375,18.5 C127.375,17.25 127.625,16.25 127.25,15.5 L124.875,15.5 L124.875,15.5 Z M164.625,14.75 C164.625,15.125 164.5,15.5 164.5,15.75 C164.625,15.875 164.75,15.875 164.875,16 C165.5,16.25 169.375,16 169.625,15.875 L169.625,14.875 L169.375,14.875 C167.875,14.875 166.25,14.75 164.625,14.75 L164.625,14.75 Z M115.125,15 C115,15.5 115.125,15.75 115.375,16 C116,16 116.75,15.875 117.375,15.875 C117.375,15.625 117.25,15.375 117.25,15 L115.125,15 L115.125,15 Z M185.25,15 C189.875,15 194.5,15.125 199.125,15.125 C199.125,15.25 199.25,15.25 199.25,15.375 C199.125,15.875 199.375,16.5 199.25,16.75 C198.5,17 197.25,16.5 196.75,16.875 C196.75,18.375 196.875,19.75 196.875,21.25 C196.75,22.125 197.125,23 196.75,24 C195.875,26.25 191.25,25.875 189,25.625 L189,24.125 C190.5,24.125 192,24.5 193.375,23.75 C193.5,21.5 193.75,19.125 193.375,17 C191.125,16.625 187.75,17.125 185.5,16.875 C185.25,16.25 185.25,15.5 185.25,15 L185.25,15 Z M133,18.375 C133,17.375 132.875,16.875 133.375,16.5 C138,16.625 142.5,16.625 147.125,16.75 L147.125,18.75 L147,18.875 C145.75,20.125 144.5,21.25 143.25,22.5 C144.75,22.875 146,23.375 147.875,23.375 C147.875,23.5 148,23.625 148,23.75 C148,24.375 147.875,25.125 147.875,25.75 C146.25,25.75 144.5,25.5 142.875,25 C142.125,24.75 141.125,23.75 140,24 C138.25,24.375 134.5,26.625 132.875,25.5 L132.875,23.75 C132.875,23.625 133,23.625 133,23.5 C134.5,23.375 136,23 137.25,22.5 L137.25,22.25 C136.25,21 134.75,20.75 133.875,19.375 C134,19.25 134,19.25 134.125,19.125 C137.125,18.5 138.125,20 140.25,21 C141.5,20.625 142.75,19.5 143.5,18.625 C143.5,18.5 143.375,18.5 143.375,18.375 L133,18.375 L133,18.375 Z M87.75,17.875 C87.5,18.625 87.5,19.375 87.625,20.25 C88.375,21 88.5,20.875 89.375,21.125 C89,20.25 88.625,19.375 88.25,18.625 C88.375,18.5 88.5,18.375 88.625,18.25 C88.625,18.125 88.5,18.125 88.5,18 C88.375,17.875 88.125,17.875 87.75,17.875 L87.75,17.875 Z M171.375,18.375 C172,18.375 172.75,18.5 173.375,18.5 L173.375,19 C172.625,20.125 171.875,21.375 171,22.5 C171.875,22.875 172.75,23.125 173.625,23.5 C173.625,24.25 173.5,25 173.5,25.75 C169.5,25.75 166.125,22.25 165.5,18.75 C166.25,18.75 167,18.625 167.875,18.625 C168.125,19.625 168.75,20.375 169.5,20.875 C170.25,20.125 170.625,19.25 171.375,18.375 L171.375,18.375 Z" id="Shape" fill="#000000"></path>
                                <path d="M92.875,30.875 C92.25,30.875 92,30.875 91.625,30.625 C90.875,27.75 85.125,29.375 86.25,33.5 C86.625,35 88.75,36.5 90.625,35.5 C91.375,35.125 91.5,33.875 92.375,33.625 L93.25,33.625 C92,37.75 86,37.5 85.125,33.25 C84.125,28.375 90.125,27 93,30.25 C92.875,30.5 92.875,30.625 92.875,30.875 L92.875,30.875 Z M135.625,28.375 C135.75,28.5 136,28.75 136.125,28.875 C136.125,29.125 136,29.25 136,29.5 L135,29.5 L135,28.875 C135,28.75 134.875,28.75 134.875,28.625 C135,28.625 135.375,28.5 135.625,28.375 L135.625,28.375 Z M58.625,33.625 C58.625,35.625 55.5,37.875 53.125,36.625 C53,36.125 50.75,35.375 50.75,32.75 C50.75,32.625 50.625,32.625 50.625,32.5 C50.875,27.75 58.25,27.125 58.5,30.875 C58.375,30.875 58.25,31 58.125,31 C57.875,31 57.5,30.875 57.25,30.875 C56.375,27.75 51.625,29.5 51.625,32.625 C51.75,36.25 56.75,36.875 57.375,33.625 L58.625,33.625 L58.625,33.625 Z M60.625,28.5 C60.625,29.375 60.75,30.25 60.75,31.125 C61,31.125 61.125,31 61.375,31 C61.75,30.5 63.25,30.375 64.125,30.625 C65.25,31.5 64.875,32.375 64.875,33.75 C65,35 65.25,36.25 64.75,36.625 C64.5,36.625 64.125,36.5 63.875,36.5 C63.75,34.875 63.625,33.375 63.5,31.75 C62.125,31 61.75,31.5 60.875,31.875 C60.5,32.75 61,35.875 60.5,36.5 L59.625,36.5 L59.625,28.5 L60.625,28.5 L60.625,28.5 Z M66.25,28.5 L66.875,28.5 L66.875,29.5 C66.75,29.5 66.625,29.625 66.5,29.625 C66.25,29.625 66,29.5 65.75,29.5 L65.75,28.5 L66.25,28.5 L66.25,28.5 Z M155.25,28.5 C156.875,28.625 158.5,28.625 159.625,29.375 C160.125,30.75 159.875,31.125 159.25,32.25 C159.75,32.75 160.125,33.125 160.5,33.875 C160.375,34.625 160.25,35.125 160,35.75 C159.5,36 159.25,36.375 158.625,36.5 C157.125,36.875 155.125,36.75 153.75,36.375 C153.75,33.625 153.375,30.125 153.625,28.625 C154.125,28.375 154.875,28.5 155.25,28.5 L155.25,28.5 Z M174.625,28.5 C174.875,28.5 175.25,28.625 175.5,28.625 C175.5,30.125 175.625,31.5 175.625,33 C175.75,32.875 175.875,32.875 176,32.75 C176.75,32.125 177.5,31.5 178.375,30.875 C178.75,30.875 179.125,31 179.5,31 C179.375,31.125 179.375,31.25 179.25,31.375 C178.5,31.625 177.875,32.375 177.375,32.875 L177.375,33.25 C178.125,33.75 179.875,35.875 179.625,36.625 C179.25,36.5 179,36.375 178.625,36.25 C178,35.375 177.375,34.5 176.875,33.625 C176.5,33.75 176.125,34 175.75,34.125 C175.625,34.875 175.625,35.75 175.5,36.5 C175,36.5 174.875,36.5 174.625,36.25 C174.25,35.5 174.375,29.25 174.625,28.5 L174.625,28.5 Z M112.75,30.625 C112.75,30.125 112.875,29.625 112.875,29 C113.375,29 113.625,29 113.875,29.25 C114,29.75 114,30.125 114.125,30.625 C114.625,30.625 114.75,30.625 115,31 L115,31.5 C114.625,31.5 114.375,31.625 114,31.625 C114,32.875 113.625,34.75 114.25,35.625 C114.5,35.875 114.75,35.875 115.125,36 L115.125,36.625 C114.25,36.75 113.625,36.75 113.25,36.25 C112.625,35.125 113.125,33.25 112.875,31.75 C112.625,31.625 112.25,31.625 112,31.5 C111.875,30.75 111.75,30.625 112.75,30.625 L112.75,30.625 Z M132.125,29.125 C132.5,29.125 132.875,29.25 133.125,29.25 C133.125,29.75 133.25,30.125 133.25,30.625 C133.625,30.625 133.875,30.75 134.25,30.75 L134.25,31.5 C133.875,31.625 133.5,31.625 133.25,31.75 C133.25,33 133,35 133.5,35.875 C133.75,35.875 134.125,36 134.375,36 L134.375,36.625 C134.25,36.75 134.25,36.75 134.125,36.875 C133.25,36.875 132.75,36.875 132.375,36.375 C131.75,35.25 132.125,32.875 132.125,31.75 C131.875,31.75 131.5,31.625 131.25,31.625 C131.25,31.375 131.125,31.25 131.125,31 L131.125,30.875 L132,30.875 C132,30.125 132,29.625 132.125,29.125 L132.125,29.125 Z M155,29.375 C154.75,30 154.75,30.875 155,31.75 C156.375,31.75 158.125,32 159,30.875 C159,29 157,29.25 155,29.375 L155,29.375 Z M139.75,30.25 C141.125,30.5 141.75,31 142.75,31.625 C143.125,34.125 143.125,35.875 140.5,36.5 C140,36.625 138.625,36.625 138,36.25 C136.5,35.375 136.375,32.25 137.625,31.125 C138.125,30.625 138.875,30.5 139.75,30.25 L139.75,30.25 Z M77.125,30.375 C78.125,30.375 79.125,30.625 79.5,31.375 C80.25,32.375 79.75,34.625 79.875,35.5 C80.125,35.625 80.25,35.75 80.5,35.875 L80.5,36.375 C79.5,36.5 79.25,36.25 78.625,35.75 C77.25,36.5 76.25,36.5 74.75,36.125 C74.5,35.625 74.375,35.25 74.375,34.5 C75.375,32.75 77.625,33.75 78.75,32.5 C78.625,32.25 78.5,32 78.375,31.75 C77.25,31.5 76.5,31.25 75.5,32 C75.375,32.5 75.375,32.5 74.75,32.5 C74.625,32.5 74.625,32.375 74.5,32.375 L74.5,32.25 C74.75,31.875 75,31.375 75.25,31 C76,30.625 76.5,30.5 77.125,30.375 L77.125,30.375 Z M100.25,30.625 L101.25,30.625 C101.25,30.75 101.375,31 101.375,31.125 C102.125,30.875 103.875,29.875 105,30.75 C106.25,31.625 105.75,34.625 105.75,36.25 L104.75,36.25 C104.75,35.125 105,31 103.625,31.375 C103.125,31.25 102.875,31.375 102.25,31.5 C102,31.875 101.625,32.125 101.5,32.625 C101.25,33.75 101.75,35.25 101.375,36.375 L101.25,36.375 C101,36.375 100.625,36.25 100.375,36.25 C100.375,35.25 100.5,33.875 100,33.25 C99.875,37.25 94.25,37.625 93.5,34 C92.625,30.375 98.25,28.5 100,33 C100.125,33 100.125,32.875 100.25,32.875 C100.125,32.25 100.25,31.5 100.25,30.625 L100.25,30.625 Z M108.375,30.5 C109.75,30.625 111.625,30.5 111.5,32.25 L110.5,32.25 C110.125,31.25 108.75,31.25 107.75,31.625 C107.625,31.75 107.625,31.875 107.5,32 C107.625,32.25 107.625,32.375 107.75,32.625 C109.125,33.125 110.75,33.375 111.75,34.25 C111.75,34.625 111.625,35 111.625,35.25 C110.875,37.25 106.625,37.125 106.375,34.75 L107.375,34.75 C107.75,35.625 108.25,35.75 109.125,36.125 C110.125,35.875 110.75,35.75 110.875,34.75 C109.5,33.875 108.125,33.875 106.75,33.125 C106.625,32.375 106.625,32.25 106.75,31.5 C107.25,30.875 107.625,30.75 108.375,30.5 L108.375,30.5 Z M146.625,30.5 C147.625,30.625 148,30.75 148.75,31.25 C149,32.5 149.375,34.75 149,36.375 C148.625,36.375 148.375,36.25 148,36.25 C148,34.75 148.25,32.125 147.375,31.625 C146.875,31.25 146.25,31.375 145.625,31.5 C145.375,31.875 145,32.125 144.75,32.5 C144.75,33.75 144.625,35 144.625,36.25 L144.25,36.25 C143.75,36.375 143.75,36 143.625,35.625 C143.625,34 143.75,32.375 143.75,30.625 L144.75,30.625 C144.875,30.75 144.875,31 145,31.125 C145.375,30.875 146,30.75 146.625,30.5 L146.625,30.5 Z M70.625,30.625 C71.75,30.625 72.375,30.75 73,31.125 C73.625,32.75 73.5,34.625 73.375,36.375 L72.375,36.375 C72,34.625 72.625,33 71.875,31.625 C71.75,31.5 71.625,31.5 71.5,31.375 C70.875,31.5 70.25,31.5 69.75,31.625 C68.875,33 69.5,35.625 68.75,36.375 L67.875,36.375 C67.875,34.5 68,32.625 68,30.625 L68.75,30.625 C68.875,30.875 68.875,30.75 69,31.125 C69.625,31 70.125,30.75 70.625,30.625 L70.625,30.625 Z M118.125,30.625 C118.5,30.875 118.5,31.375 118.25,31.625 C117.625,31.5 117.125,31.875 116.625,32.125 C116.5,32.5 116.375,32.875 116.375,33.375 C116.375,34.5 116.625,35.875 116.125,36.5 C115.875,36.375 115.625,36.375 115.375,36.25 L115.375,30.75 L115.625,30.75 C115.75,30.75 116,30.625 116.125,30.625 C116.25,30.875 116.375,31 116.5,31.25 C117,31 117.5,30.875 118.125,30.625 L118.125,30.625 Z M127.875,30.625 C129.375,30.625 130.25,31.125 130.875,32.125 L130.875,32.5 C130.625,32.5 130.25,32.625 130,32.625 C129.5,31.5 128,31.375 127,32 C126.125,33.875 126.375,35 127.875,36.125 C128.5,36 129.25,35.875 129.625,35.5 C129.875,35.25 130,34.75 130.25,34.5 C130.5,34.375 130.75,34.5 131.125,34.5 C130.75,36.75 127.25,37.625 126,35.625 C124.875,33.875 125.25,32 126.375,31 C126.625,30.625 127.25,30.75 127.875,30.625 L127.875,30.625 Z M163.125,30.625 C164.75,30.625 165.75,30.75 166.625,31.375 C166.75,32.25 166.75,34.5 166.875,35.25 C167,35.875 167.375,35.25 167.625,35.625 C167.75,35.75 167.5,36 167.5,36 C167.375,36.125 167.25,36.125 167.125,36.25 C166.375,36.5 165.875,36 165.5,35.625 C164.125,36.625 162.375,36.5 161.125,35.5 C161.125,35.125 161,34.75 161,34.375 C162.125,32.5 163.875,33.5 165.375,32.625 L165.375,31.875 C165.25,31.75 165,31.625 164.875,31.5 C163.625,30.75 162.5,31.625 161.875,32.375 C161.75,32.375 161.5,32.25 161.375,32.25 L161.375,31.875 C161.625,31.5 161.75,31.125 162.125,30.875 C162.5,30.875 162.875,30.75 163.125,30.625 L163.125,30.625 Z M170.75,30.625 C171.75,30.625 172.25,30.875 172.875,31 C173.375,32.125 173.875,35 173.25,36.375 C173,36.375 172.75,36.25 172.375,36.25 C172.375,34.5 172.5,32.625 171.75,31.5 C171.625,31.5 171.625,31.375 171.5,31.375 C170.25,31.375 169.875,31.625 169.25,32.125 C169,33.375 169,34.75 169,36.25 C168.875,36.375 168.625,36.375 168.5,36.5 C168.375,36.5 168.25,36.375 168.125,36.375 C167.75,35 167.875,32.75 167.875,30.625 C168.25,30.625 168.75,30.5 168.875,30.75 C169.125,31.375 169.875,31 170.75,30.625 L170.75,30.625 Z M65.875,30.625 C66.375,30.625 66.75,30.625 67,30.875 C67,32.75 66.875,34.625 66.875,36.5 C66.5,36.5 66.125,36.375 65.875,36.375 L65.875,30.625 L65.875,30.625 Z M135,30.625 L136,30.625 L136,30.875 L136,36.375 L135.125,36.375 C135,36.375 135,36.25 134.875,36.25 C135,34.375 135,32.5 135,30.625 L135,30.625 Z M119.25,30.75 L120,30.75 C120.125,30.75 120.125,30.875 120.25,30.875 C120.25,33.125 119.75,36.375 122.75,35.5 C123.25,34.375 123.75,32.375 123.375,30.875 L124.375,30.875 C124.5,31.875 124.75,35.375 124.125,36.5 C123.875,36.5 123.625,36.375 123.375,36.375 L123.375,35.75 C122.875,36 122.625,36.25 122.125,36.375 C121.625,36.5 121,36.5 120.25,36.5 C120,36.125 119.625,36.125 119.375,35.75 C119,35 118.75,32.375 119.25,30.75 L119.25,30.75 Z M139.125,31.25 C137.75,32.125 137.375,33.75 138.25,35.375 C138.625,35.5 139,35.75 139.375,35.875 C140.25,35.625 140.875,35.5 141.25,34.875 C141.875,33.875 141.5,32.375 140.875,31.625 C140.5,31.375 140,31.25 139.125,31.25 L139.125,31.25 Z M96.375,31.25 C96.125,31.375 95.875,31.375 95.625,31.5 C94.375,32.375 94.5,34.25 95.25,35.5 C96.625,36 97.125,36 98.25,35.125 C98.5,33.75 98.5,33.125 98.125,31.875 C97.5,31.5 97,31.375 96.375,31.25 L96.375,31.25 Z M155,32.625 L155,35 C155.125,35.125 155.125,35.25 155.25,35.375 C157.625,35.5 158.875,35.625 159.625,34.125 C159.5,33.75 159.375,33.375 159.25,33 C157.5,32.75 156.625,32.875 155,32.625 L155,32.625 Z M78.375,33.5 C77.25,34 76.125,33.75 75.375,34.25 L75.375,35.25 C76.625,35.875 77.75,35.625 78.625,34.875 C78.75,34.25 78.875,33.75 78.375,33.5 L78.375,33.5 Z M165.25,33.625 C164.25,33.75 163.375,34 162.375,34.125 C162.125,34.875 162.125,35.25 162.75,35.625 C163.875,36.25 165.5,35.25 165.625,34.5 L165.625,33.625 L165.25,33.625 L165.25,33.625 Z" id="Shape" fill="#000000"></path>
                            </g>
                        </g>
                    </g>
                </g>
            </g>
        </g>
    </g>
</svg>