<?xml version="1.0" encoding="UTF-8"?>
<svg width="200px" height="50px" viewBox="0 0 200 50" version="1.1" xmlns="http://www.w3.org/2000/svg" xmlns:xlink="http://www.w3.org/1999/xlink">
    <!-- Generator: Sketch 42 (36781) - http://www.bohemiancoding.com/sketch -->
    <title>svg</title>
    <desc>Created with Sketch.</desc>
    <defs></defs>
    <g id="Page-1" stroke="none" stroke-width="1" fill="none" fill-rule="evenodd">
        <g id="svg" fill-rule="nonzero">
            <g id="3-BOCB2C">
                <g id="Page-1">
                    <g id="Page_1">
                        <g id="图层_1_1_">
                            <g id="中国银行">
                                <path d="M24.7058824,0.441176471 C24.7058824,0.441176471 35.2941176,-0.441176471 43.5294118,9.11764706 C43.5294118,9.11764706 48.8235294,15 49.1176471,23.5294118 C49.1176471,23.5294118 49.5588235,30 46.6176471,35.4411765 C43.6764706,40.8823529 40.4411765,43.8235294 35.1470588,46.4705882 C29.8529412,49.1176471 21.3235294,49.4117647 15.7352941,46.9117647 C10.1470588,44.2647059 6.61764706,41.6176471 3.38235294,35.7352941 C3.38235294,35.7352941 -1.02941176,28.2352941 1.02941176,19.4117647 C1.02941176,19.4117647 1.61764706,14.2647059 6.32352941,8.52941176 C6.47058824,8.52941176 13.5294118,5.22915045e-14 24.7058824,0.441176471 Z M22.5,5.73529412 C18.9705882,5.73529412 13.6764706,8.82352941 12.9411765,9.55882353 C12.2058824,10.2941176 8.08823529,13.2352941 6.32352941,20.7352941 C4.55882353,28.2352941 8.82352941,34.2647059 8.82352941,34.2647059 C13.6764706,42.7941176 22.5,43.2352941 22.5,43.2352941 L22.5,34.4117647 L18.8235294,34.4117647 C13.5294118,33.8235294 13.3823529,28.8235294 13.3823529,28.8235294 L13.3823529,20.5882353 C13.5294118,15 18.6764706,14.7058824 18.6764706,14.7058824 L22.5,14.7058824 L22.5,5.73529412 Z M27.3529412,5.73529412 L27.3529412,14.5588235 L30.5882353,14.5588235 C35.5882353,14.7058824 36.3235294,19.4117647 36.3235294,19.4117647 L36.3235294,28.8235294 C36.0294118,33.5294118 31.6176471,34.4117647 31.6176471,34.4117647 L27.3529412,34.4117647 L27.3529412,43.2352941 C30.4411765,42.9411765 37.3529412,40.4411765 40.8823529,35 C44.5588235,29.5588235 44.1176471,23.0882353 43.6764706,20.8823529 C43.2352941,18.6764706 42.0588235,14.4117647 37.5,10.2941176 C32.9411765,6.17647059 27.3529412,5.73529412 27.3529412,5.73529412 Z M19.2647059,19.7058824 C18.5294118,19.7058824 18.3823529,20.5882353 18.3823529,20.5882353 L18.3823529,28.5294118 C18.5294118,29.5588235 19.4117647,29.2647059 19.4117647,29.2647059 L30.5882353,29.2647059 C31.6176471,29.4117647 31.3235294,28.2352941 31.3235294,28.2352941 L31.3235294,20.5882353 C31.1764706,19.5588235 30.2941176,19.7058824 30.2941176,19.7058824 L19.2647059,19.7058824 Z" id="Shape" fill="#B81C22"></path>
                                <path d="M106.176471,26.4705882 L105.588235,26.4705882 C105,27.3529412 103.382353,28.8235294 102.352941,29.2647059 C100.735294,27.9411765 98.5294118,27.2058824 96.3235294,26.3235294 L92.6470588,26.3235294 C92.0588235,26.1764706 90.5882353,25.8823529 89.8529412,25.7352941 L89.8529412,26.7647059 C90.2941176,27.0588235 90.4411765,27.9411765 90.4411765,28.6764706 C85.5882353,28.5294118 87.0588235,11.1764706 89.1176471,8.82352941 C89.4117647,8.97058824 89.2647059,8.82352941 89.4117647,9.11764706 C89.7058824,9.85294118 89.1176471,11.1764706 88.8235294,11.9117647 C88.2352941,13.2352941 88.3823529,21.6176471 88.8235294,22.3529412 L88.9705882,22.3529412 C88.9705882,22.2058824 89.1176471,21.9117647 89.1176471,21.7647059 L89.2647059,21.7647059 C89.2647059,22.7941176 89.4117647,24.7058824 90,25 C90.4411765,24.5588235 91.6176471,25 92.0588235,24.7058824 C93.0882353,23.9705882 97.2058824,20.1470588 97.3529412,18.9705882 C97.3529412,18.9705882 97.2058824,18.9705882 97.2058824,18.8235294 C96.6176471,19.2647059 92.6470588,22.5 91.6176471,21.7647059 C91.9117647,19.1176471 93.8235294,17.7941176 94.5588235,15.8823529 C94.5588235,15.8823529 94.5588235,15.8823529 94.4117647,15.8823529 C93.9705882,16.3235294 93.9705882,16.4705882 93.2352941,16.4705882 C93.2352941,14.2647059 94.4117647,14.4117647 94.5588235,12.6470588 C94.2647059,12.2058824 94.7058824,12.0588235 94.2647059,11.7647059 C94.2647059,11.6176471 94.1176471,11.6176471 94.1176471,11.4705882 C93.6764706,11.7647059 93.3823529,12.0588235 92.6470588,12.0588235 L92.6470588,11.1764706 C92.9411765,10.8823529 93.2352941,10.5882353 93.6764706,10.1470588 C93.6764706,9.26470588 93.2352941,7.5 92.6470588,6.91176471 C92.6470588,6.91176471 92.5,6.91176471 92.5,7.05882353 C92.5,7.94117647 92.5,8.67647059 92.2058824,9.26470588 C92.0588235,9.26470588 92.0588235,9.26470588 91.9117647,9.41176471 C91.9117647,9.41176471 91.7647059,9.41176471 91.7647059,9.26470588 C91.4705882,8.67647059 91.1764706,8.38235294 91.1764706,7.35294118 C92.3529412,6.76470588 92.6470588,5 93.8235294,4.26470588 C94.8529412,3.52941176 96.3235294,2.94117647 97.5,2.5 C108.235294,-1.91176471 107.205882,18.8235294 106.176471,26.4705882 L106.176471,26.4705882 Z M158.823529,2.35294118 C158.970588,3.23529412 159.558824,3.67647059 159.852941,4.41176471 C160.882353,6.76470588 159.852941,9.11764706 159.264706,10.7352941 C156.470588,11.0294118 155,12.6470588 153.235294,13.9705882 C153.235294,13.9705882 153.235294,14.1176471 153.382353,14.1176471 C154.117647,14.4117647 157.352941,15.1470588 156.911765,16.0294118 C156.911765,16.3235294 156.911765,16.6176471 157.058824,16.9117647 C155.882353,17.6470588 153.529412,19.8529412 153.088235,21.1764706 C155.294118,22.0588235 157.5,26.4705882 155.147059,28.3823529 L155.147059,28.5294118 C155.147059,28.5294118 155,28.5294118 155,28.3823529 C154.264706,27.2058824 152.794118,27.3529412 152.647059,25.5882353 C153.088235,25.2941176 153.235294,22.7941176 153.235294,22.3529412 C150,22.5 150.147059,26.0294118 148.235294,24.5588235 C148.088235,24.4117647 147.5,24.4117647 147.352941,24.1176471 C147.058824,23.8235294 147.058824,23.0882353 146.617647,22.6470588 C147.058824,21.9117647 146.911765,21.6176471 147.5,20.8823529 C148.823529,19.2647059 150.735294,17.6470588 152.058824,16.0294118 C152.058824,15.8823529 152.058824,15.7352941 151.911765,15.5882353 C150.588235,15.5882353 148.676471,15 148.235294,14.1176471 C148.235294,13.6764706 148.235294,13.3823529 148.382353,12.9411765 C150.588235,11.6176471 153.676471,7.20588235 155.294118,5.14705882 C156.029412,4.11764706 156.323529,2.79411765 157.352941,2.05882353 C157.647059,2.35294118 158.235294,2.35294118 158.823529,2.35294118 L158.823529,2.35294118 Z M76.6176471,15.4411765 C76.9117647,15.4411765 77.2058824,15.4411765 77.6470588,15.5882353 C77.6470588,15.5882353 77.6470588,15.5882353 77.6470588,15.7352941 C77.3529412,16.6176471 77.0588235,16.7647059 77.0588235,17.7941176 C76.4705882,17.7941176 75.8823529,18.0882353 75.5882353,18.5294118 C74.7058824,19.4117647 74.1176471,24.8529412 73.3823529,26.3235294 C72.6470588,27.9411765 73.6764706,29.8529412 73.0882353,30.8823529 C72.2058824,31.0294118 72.0588235,31.4705882 71.1764706,31.6176471 C71.1764706,31.4705882 71.1764706,31.1764706 71.0294118,31.0294118 C69.7058824,29.5588235 70.7352941,26.4705882 69.8529412,25.2941176 C69.8529412,25.2941176 69.7058824,25.2941176 69.7058824,25.4411765 C69.7058824,27.5 69.5588235,29.4117647 70.1470588,30.7352941 C70.4411765,31.3235294 71.0294118,31.4705882 71.1764706,32.3529412 L70.5882353,32.3529412 C68.8235294,28.9705882 69.4117647,24.7058824 68.2352941,20.5882353 C68.2352941,20.5882353 68.2352941,20.5882353 68.0882353,20.5882353 C67.9411765,20.5882353 67.7941176,20.5882353 67.5,20.7352941 C67.5,21.7647059 67.3529412,22.0588235 66.4705882,22.0588235 C65.7352941,21.4705882 64.5588235,21.3235294 63.6764706,20.7352941 C61.7647059,19.2647059 60.2941176,15 60.7352941,12.0588235 L61.3235294,12.0588235 C62.2058824,12.9411765 63.0882353,13.8235294 63.9705882,14.7058824 C64.1176471,14.7058824 64.4117647,14.7058824 64.5588235,14.5588235 C66.0294118,13.5294118 67.3529412,12.5 68.8235294,11.3235294 C68.8235294,7.79411765 68.9705882,5 69.8529412,2.64705882 L70.8823529,2.64705882 C72.7941176,3.97058824 74.2647059,5.58823529 74.8529412,7.94117647 C76.7647059,7.79411765 78.3823529,6.61764706 80.8823529,7.35294118 C80.8823529,11.0294118 77.0588235,13.0882353 76.6176471,15.4411765 L76.6176471,15.4411765 Z M97.3529412,25.5882353 C99.1176471,25.5882353 102.794118,26.4705882 103.529412,26.1764706 C108.088235,23.6764706 105.147059,5.73529412 102.058824,3.97058824 C99.1176471,2.20588235 93.6764706,5.29411765 92.9411765,6.76470588 C93.8235294,7.20588235 94.2647059,8.23529412 94.4117647,9.11764706 C95.7352941,9.11764706 96.0294118,8.38235294 97.2058824,8.38235294 C97.3529412,8.52941176 97.5,8.67647059 97.6470588,8.97058824 C97.5,10.4411765 96.6176471,11.3235294 96.0294118,12.5 C97.2058824,13.0882353 98.8235294,15.1470588 98.8235294,17.2058824 C98.2352941,17.3529412 98.0882353,17.7941176 98.3823529,18.2352941 C99.7058824,17.2058824 100.735294,15 101.617647,13.5294118 C101.617647,13.5294118 101.764706,13.5294118 101.764706,13.6764706 C101.911765,13.8235294 101.911765,13.9705882 102.058824,14.1176471 C101.911765,16.3235294 99.8529412,17.7941176 98.6764706,19.1176471 L98.6764706,19.8529412 C99.4117647,20.2941176 99.7058824,20.7352941 100.735294,20.8823529 C101.470588,19.7058824 101.617647,18.6764706 102.205882,17.2058824 L102.352941,17.2058824 C102.352941,19.5588235 101.617647,20.5882353 101.176471,22.2058824 C101.764706,22.2058824 102.205882,22.2058824 102.794118,22.3529412 L102.794118,23.5294118 C101.911765,24.2647059 102.352941,25 100.441176,25 C100.147059,24.5588235 97.9411765,25 97.0588235,25.1470588 C97.3529412,25.1470588 97.3529412,25.4411765 97.3529412,25.5882353 L97.3529412,25.5882353 Z M115.147059,22.2058824 C114.411765,22.2058824 114.264706,22.0588235 113.970588,21.9117647 L113.970588,19.5588235 C115.882353,19.4117647 116.176471,16.3235294 116.911765,14.8529412 C118.676471,11.3235294 120.147059,6.61764706 122.647059,3.67647059 L123.235294,3.67647059 C123.823529,4.55882353 124.852941,5 125.147059,6.32352941 C123.970588,6.91176471 121.764706,7.64705882 121.176471,8.82352941 C119.558824,11.4705882 115.147059,18.8235294 115.147059,22.2058824 L115.147059,22.2058824 Z M128.676471,20.1470588 C128.676471,17.3529412 130,16.7647059 130.588235,14.8529412 L130,14.8529412 C129.705882,15.2941176 129.264706,15.2941176 128.970588,15.7352941 C128.235294,17.3529412 127.941176,19.1176471 127.941176,21.0294118 L128.235294,21.0294118 C129.117647,19.8529412 132.205882,21.1764706 133.970588,20.5882353 C135.882353,19.8529412 136.176471,18.2352941 138.676471,18.2352941 C138.676471,18.2352941 138.676471,18.2352941 138.676471,18.3823529 C138.529412,18.5294118 138.529412,18.5294118 138.382353,18.6764706 C138.235294,19.2647059 137.794118,19.5588235 137.058824,19.5588235 C136.911765,20.7352941 135.735294,22.0588235 135.147059,22.7941176 C136.323529,24.1176471 140.735294,24.7058824 142.5,25.7352941 C142.352941,25.8823529 142.352941,25.8823529 142.205882,26.0294118 L142.205882,26.1764706 C140.294118,26.3235294 138.088235,27.3529412 136.176471,26.4705882 C135.294118,26.0294118 134.852941,25.1470588 133.235294,25.1470588 C132.352941,26.6176471 130.147059,28.9705882 127.941176,28.9705882 C127.058824,28.3823529 126.323529,28.0882353 125.588235,27.5 C125.588235,26.6176471 125.588235,25.8823529 125.441176,25 L124.852941,25 C124.117647,27.7941176 120.441176,28.2352941 118.235294,29.4117647 C118.088235,28.8235294 117.941176,28.2352941 117.794118,27.5 C118.529412,27.0588235 118.970588,26.3235294 119.558824,25.7352941 C119.558824,25.5882353 119.558824,25.4411765 119.411765,25.2941176 C118.823529,25.2941176 118.676471,25.4411765 118.382353,25 C119.558824,25 119.852941,24.7058824 119.705882,23.5294118 C119.705882,23.5294118 119.705882,23.3823529 119.558824,23.3823529 C119.558824,23.3823529 119.411765,23.3823529 119.411765,23.5294118 C118.823529,24.4117647 117.5,26.7647059 116.176471,26.9117647 C115.882353,26.3235294 115.588235,26.3235294 115.441176,25.4411765 C115.441176,25.4411765 115.441176,25.2941176 115.588235,25.2941176 C117.205882,25.1470588 118.088235,23.5294118 119.117647,22.6470588 C119.117647,22.6470588 119.117647,22.5 118.970588,22.5 L118.382353,22.5 C118.088235,20.1470588 117.647059,19.4117647 119.411765,17.9411765 C119.411765,16.9117647 118.970588,16.4705882 118.676471,15.8823529 C119.558824,15.2941176 120.441176,14.7058824 121.323529,14.1176471 C121.764706,14.5588235 122.205882,15.1470588 122.794118,15.5882353 L122.794118,16.0294118 C122.352941,16.6176471 121.617647,16.9117647 121.029412,17.5 C121.029412,17.9411765 121.029412,18.5294118 121.176471,18.9705882 L121.470588,18.9705882 C121.617647,18.5294118 121.764706,18.3823529 122.5,18.3823529 C122.5,17.9411765 122.5,17.9411765 122.647059,17.7941176 L122.794118,17.7941176 C122.941176,18.3823529 122.941176,18.9705882 123.088235,19.7058824 C122.647059,20 122.352941,20.2941176 122.058824,20.7352941 L124.411765,20.7352941 C124.705882,21.1764706 124.852941,21.1764706 124.852941,22.0588235 C123.970588,22.6470588 121.029412,25.8823529 120.441176,26.9117647 L120.588235,26.9117647 C120.588235,26.9117647 120.588235,26.9117647 120.735294,27.0588235 C122.794118,26.4705882 124.558824,24.2647059 125.882353,22.6470588 C125.882353,19.8529412 126.029412,17.2058824 126.911765,15.2941176 C127.352941,14.2647059 126.764706,13.3823529 127.058824,12.5 C127.5,11.3235294 128.382353,10 128.676471,8.38235294 C129.411765,8.52941176 129.411765,8.67647059 130,8.52941176 C130.147059,8.23529412 130.147059,8.23529412 130.441176,8.08823529 L130.441176,7.5 L131.029412,7.5 C131.617647,6.47058824 133.529412,6.17647059 133.823529,4.85294118 C134.264706,4.85294118 134.558824,4.85294118 135,4.70588235 C135.147059,5.73529412 132.5,14.8529412 131.764706,15.8823529 C131.176471,16.0294118 130.735294,16.3235294 130.147059,16.4705882 C130,16.9117647 130,17.3529412 129.852941,17.7941176 C129.852941,17.7941176 129.852941,17.7941176 130,17.9411765 C130.588235,17.5 131.323529,17.3529412 131.911765,17.0588235 C131.911765,16.3235294 131.764706,16.0294118 132.058824,15.8823529 C132.352941,16.3235294 132.5,16.6176471 132.794118,17.0588235 C132.794118,17.3529412 132.794118,17.7941176 132.647059,18.0882353 C131.176471,18.2352941 130.294118,19.8529412 128.676471,20.1470588 L128.676471,20.1470588 Z M131.176471,7.94117647 C130.882353,9.55882353 129.117647,11.0294118 129.705882,13.0882353 L130.294118,13.0882353 C131.176471,12.2058824 132.205882,11.4705882 133.088235,10.5882353 C133.382353,9.11764706 133.676471,7.79411765 133.970588,6.32352941 C133.970588,6.32352941 133.970588,6.32352941 133.823529,6.17647059 L133.382353,6.61764706 C132.794118,7.05882353 132.205882,7.94117647 131.176471,7.94117647 L131.176471,7.94117647 Z M98.2352941,7.79411765 C100.294118,7.79411765 100.294118,8.52941176 101.764706,8.82352941 C101.911765,10.7352941 101.176471,11.6176471 99.1176471,11.4705882 C98.6764706,10.2941176 98.2352941,9.55882353 98.2352941,7.79411765 L98.2352941,7.79411765 Z M125.147059,8.38235294 C125.294118,8.97058824 125.588235,9.70588235 125.735294,10.2941176 C124.411765,10.2941176 124.117647,11.0294118 122.941176,11.3235294 C122.941176,11.3235294 122.941176,11.3235294 122.794118,11.1764706 C122.794118,10.5882353 123.088235,8.52941176 123.382353,8.08823529 C123.676471,7.79411765 123.823529,7.94117647 124.264706,7.94117647 C124.705882,8.52941176 124.558824,8.38235294 125.147059,8.38235294 L125.147059,8.38235294 Z M169.558824,8.82352941 C169.705882,8.82352941 169.852941,8.82352941 170.147059,8.97058824 C170.147059,8.97058824 170.147059,9.11764706 170,9.11764706 C169.411765,9.41176471 169.117647,10.1470588 168.970588,10.8823529 C165.588235,10.8823529 163.235294,12.2058824 161.176471,13.9705882 L160.882353,13.9705882 C160.735294,13.6764706 160.735294,13.6764706 160.441176,13.5294118 C160.441176,12.6470588 160.294118,12.6470588 160.147059,12.0588235 C160.588235,11.9117647 160.588235,11.3235294 160.882353,11.0294118 C162.5,12.2058824 165,10 166.176471,9.55882353 C167.5,9.11764706 168.529412,9.41176471 169.558824,8.82352941 L169.558824,8.82352941 Z M77.0588235,8.97058824 C75.5882353,10.5882353 73.6764706,10.5882353 74.7058824,14.4117647 L75.2941176,14.4117647 C75.5882353,13.3823529 77.7941176,10.5882353 78.5294118,9.55882353 L77.9411765,8.97058824 L77.0588235,8.97058824 L77.0588235,8.97058824 Z M95.5882353,10.4411765 L95.5882353,11.0294118 L96.1764706,11.0294118 L96.1764706,10.4411765 L95.5882353,10.4411765 L95.5882353,10.4411765 Z M165.735294,17.6470588 C165.735294,18.3823529 165.294118,21.0294118 165.588235,21.6176471 C166.470588,23.3823529 166.617647,26.7647059 166.617647,29.2647059 C165.588235,30 165.147059,30.7352941 163.382353,30.7352941 C163.088235,29.8529412 162.647059,28.5294118 161.911765,28.0882353 C160.588235,27.2058824 158.529412,26.7647059 157.941176,25.1470588 L158.823529,25.1470588 C159.411765,26.3235294 161.764706,26.7647059 163.676471,26.7647059 C163.970588,24.4117647 164.558824,19.7058824 163.823529,17.2058824 C163.823529,17.2058824 163.676471,17.2058824 163.676471,17.3529412 C163.235294,17.9411765 159.117647,20 158.235294,20.1470588 C158.235294,20.1470588 158.088235,20.1470588 158.088235,20 L158.088235,18.8235294 C162.352941,16.9117647 166.764706,13.8235294 172.205882,13.5294118 C172.352941,13.9705882 172.5,13.8235294 172.5,14.5588235 C170.882353,15.2941176 166.029412,16.0294118 165.147059,17.2058824 C165.147059,17.2058824 165.147059,17.2058824 165.147059,17.3529412 C165.441176,17.5 165.441176,17.5 165.588235,17.7941176 C165.441176,17.6470588 165.588235,17.6470588 165.735294,17.6470588 L165.735294,17.6470588 Z M68.5294118,14.5588235 C67.3529412,14.5588235 65.7352941,15.7352941 65.7352941,17.0588235 C66.1764706,17.7941176 66.6176471,18.5294118 67.2058824,19.2647059 C67.9411765,19.1176471 68.2352941,18.5294118 68.6764706,18.0882353 C68.6764706,16.9117647 68.6764706,15.7352941 68.5294118,14.5588235 L68.5294118,14.5588235 Z M97.9411765,16.7647059 L97.9411765,16.1764706 C97.6470588,16.0294118 97.3529412,15.7352941 96.9117647,15.5882353 L96.9117647,15.7352941 L96.9117647,16.4705882 C97.3529412,16.6176471 97.3529412,16.7647059 97.9411765,16.7647059 L97.9411765,16.7647059 Z M93.9705882,19.2647059 C95.2941176,19.2647059 96.4705882,18.5294118 97.0588235,17.7941176 L97.0588235,17.2058824 C96.6176471,16.9117647 96.4705882,16.4705882 96.1764706,16.1764706 C95.2941176,16.7647059 93.9705882,18.0882353 93.9705882,19.2647059 L93.9705882,19.2647059 Z M120,19.2647059 C120,19.2647059 119.852941,19.2647059 120,19.2647059 C120,19.4117647 120.147059,19.5588235 120.294118,19.5588235 C120.294118,19.5588235 120.294118,19.5588235 120.294118,19.4117647 C120.147059,19.4117647 120.147059,19.2647059 120,19.2647059 L120,19.2647059 Z M119.705882,19.5588235 C119.558824,19.5588235 119.558824,19.5588235 119.705882,19.5588235 C119.705882,19.7058824 119.705882,19.8529412 119.852941,19.8529412 C119.852941,19.8529412 120,19.8529412 120,19.7058824 C119.852941,19.7058824 119.705882,19.5588235 119.705882,19.5588235 L119.705882,19.5588235 Z M97.9411765,19.8529412 C97.0588235,21.7647059 94.4117647,22.3529412 93.6764706,24.2647059 L95.1470588,24.2647059 C96.3235294,23.5294118 99.5588235,22.7941176 101.029412,22.3529412 L101.029412,21.9117647 C101.029412,21.9117647 101.029412,21.7647059 100.882353,21.7647059 C99.2647059,21.7647059 99.2647059,20.2941176 97.9411765,19.8529412 L97.9411765,19.8529412 Z M134.558824,21.0294118 C134.264706,21.4705882 133.823529,21.4705882 133.529412,21.9117647 C133.823529,22.2058824 133.823529,22.3529412 134.264706,22.5 L134.411765,22.5 C134.705882,22.0588235 135,21.6176471 135.147059,21.0294118 L134.558824,21.0294118 L134.558824,21.0294118 Z M123.382353,21.6176471 L122.5,21.6176471 C121.617647,22.0588235 121.176471,22.3529412 121.323529,23.8235294 L121.470588,23.9705882 C122.205882,23.5294118 123.235294,22.6470588 123.382353,21.6176471 L123.382353,21.6176471 Z M132.5,25.1470588 C132.5,24.5588235 132.647059,24.5588235 132.794118,24.2647059 C131.617647,23.3823529 129.411765,22.3529412 127.794118,22.0588235 C127.794118,22.0588235 127.794118,22.0588235 127.647059,22.2058824 C127.5,24.8529412 127.058824,25.4411765 128.529412,27.2058824 C129.558824,26.6176471 131.323529,25.2941176 132.5,25.1470588 L132.5,25.1470588 Z M72.0588235,25.2941176 C71.7647059,25.2941176 71.6176471,25.2941176 71.3235294,25.4411765 C71.3235294,26.9117647 71.1764706,28.2352941 71.1764706,29.7058824 C71.4705882,29.8529412 71.4705882,29.8529412 71.7647059,30 C71.9117647,30 72.0588235,30 72.3529412,29.8529412 C72.0588235,28.8235294 72.0588235,27.0588235 72.0588235,25.2941176 L72.0588235,25.2941176 Z M120.294118,26.6176471 C120.147059,26.6176471 120.147059,26.7647059 120,26.7647059 C120,26.7647059 120,26.9117647 120.147059,26.9117647 C120.588235,26.9117647 120.588235,26.9117647 120.735294,26.7647059 C120.588235,26.7647059 120.441176,26.7647059 120.294118,26.6176471 L120.294118,26.6176471 Z" id="Shape" fill="#000000"></path>
                                <path d="M66.9117647,41.9117647 L66.9117647,41.9117647 L67.3529412,41.9117647 C67.9411765,41.9117647 68.3823529,41.7647059 68.6764706,41.4705882 C68.9705882,41.1764706 69.1176471,40.7352941 69.1176471,40 C69.1176471,39.2647059 68.9705882,38.6764706 68.6764706,38.3823529 C68.3823529,38.0882353 67.9411765,37.9411765 67.3529412,37.9411765 L67.0588235,37.9411765 L66.9117647,37.9411765 L66.9117647,41.9117647 L66.9117647,41.9117647 Z M66.9117647,46.6176471 L67.2058824,46.6176471 L67.5,46.6176471 C68.2352941,46.6176471 68.6764706,46.4705882 68.9705882,46.1764706 C69.2647059,45.8823529 69.4117647,45.2941176 69.4117647,44.5588235 C69.4117647,43.6764706 69.2647059,43.0882353 68.9705882,42.7941176 C68.6764706,42.5 68.2352941,42.3529412 67.3529412,42.3529412 L67.0588235,42.3529412 L66.9117647,42.3529412 L66.9117647,46.6176471 L66.9117647,46.6176471 Z M63.3823529,46.7647059 L63.3823529,46.6176471 L64.2647059,46.6176471 L64.2647059,38.0882353 L63.3823529,38.0882353 L63.3823529,37.7941176 L67.6470588,37.7941176 L69.2647059,37.7941176 C69.7058824,37.7941176 70,37.9411765 70.1470588,37.9411765 C70.5882353,38.0882353 70.7352941,38.3823529 71.0294118,38.6764706 C71.1764706,38.9705882 71.3235294,39.2647059 71.3235294,39.7058824 C71.3235294,40.2941176 71.0294118,40.7352941 70.5882353,41.1764706 C70.1470588,41.6176471 69.4117647,41.7647059 68.5294118,41.9117647 C69.5588235,42.0588235 70.4411765,42.2058824 71.0294118,42.6470588 C71.6176471,43.0882353 71.9117647,43.6764706 71.9117647,44.4117647 C71.9117647,44.8529412 71.7647059,45.2941176 71.4705882,45.7352941 C71.1764706,46.1764706 70.7352941,46.3235294 70.2941176,46.6176471 C70,46.7647059 69.8529412,46.7647059 69.5588235,46.7647059 L68.3823529,46.7647059 L67.6470588,46.7647059 L63.3823529,46.7647059 L63.3823529,46.7647059 Z M74.4117647,43.6764706 L76.4705882,43.6764706 L75.4411765,40.5882353 L74.4117647,43.6764706 L74.4117647,43.6764706 Z M72.6470588,46.7647059 L72.6470588,46.6176471 L72.7941176,46.6176471 C72.9411765,46.6176471 73.0882353,46.6176471 73.2352941,46.4705882 C73.3823529,46.3235294 73.3823529,46.3235294 73.3823529,46.1764706 L76.1764706,37.7941176 L77.2058824,37.7941176 L80.2941176,46.6176471 L80.7352941,46.6176471 L80.7352941,46.7647059 L77.0588235,46.7647059 L77.0588235,46.6176471 L77.6470588,46.6176471 L76.6176471,43.9705882 L74.4117647,43.9705882 L73.8235294,45.7352941 C73.8235294,45.8823529 73.8235294,46.0294118 73.6764706,46.0294118 L73.6764706,46.1764706 C73.6764706,46.3235294 73.6764706,46.4705882 73.8235294,46.4705882 C73.9705882,46.4705882 74.1176471,46.6176471 74.4117647,46.6176471 L74.5588235,46.6176471 L74.5588235,46.7647059 L72.6470588,46.7647059 L72.6470588,46.7647059 Z M81.3235294,38.0882353 L81.0294118,38.0882353 L81.0294118,37.7941176 L84.1176471,37.7941176 L88.6764706,44.1176471 L88.6764706,38.9705882 C88.6764706,38.5294118 88.6764706,38.3823529 88.5294118,38.2352941 C88.3823529,38.0882353 88.2352941,38.0882353 87.9411765,38.0882353 L87.7941176,38.0882353 L87.6470588,38.0882353 L87.6470588,37.7941176 L89.8529412,37.7941176 L89.8529412,38.0882353 L89.7058824,38.0882353 L89.5588235,38.0882353 C89.2647059,38.0882353 89.1176471,38.0882353 88.9705882,38.2352941 C88.8235294,38.3823529 88.8235294,38.6764706 88.8235294,38.9705882 L88.8235294,46.7647059 L87.3529412,46.7647059 L82.3529412,39.7058824 L82.3529412,45.5882353 C82.3529412,46.0294118 82.3529412,46.3235294 82.5,46.4705882 C82.6470588,46.6176471 82.7941176,46.6176471 83.0882353,46.6176471 L83.2352941,46.6176471 L83.3823529,46.6176471 L83.3823529,46.7647059 L81.1764706,46.7647059 L81.1764706,46.6176471 L81.3235294,46.6176471 L81.4705882,46.6176471 C81.7647059,46.6176471 81.9117647,46.6176471 82.0588235,46.4705882 C82.2058824,46.3235294 82.2058824,46.0294118 82.2058824,45.7352941 L82.2058824,39.4117647 L81.3235294,38.0882353 L81.3235294,38.0882353 Z M91.0294118,46.7647059 L91.0294118,46.6176471 L91.9117647,46.6176471 L91.9117647,38.0882353 L91.0294118,38.0882353 L91.0294118,37.9411765 L95.2941176,37.9411765 L95.2941176,38.0882353 L94.4117647,38.0882353 L94.4117647,42.0588235 L97.6470588,38.9705882 C97.7941176,38.8235294 97.7941176,38.8235294 97.9411765,38.6764706 L97.9411765,38.3823529 C97.9411765,38.2352941 97.9411765,38.2352941 97.7941176,38.0882353 C97.6470588,38.0882353 97.5,37.9411765 97.3529412,37.9411765 L97.2058824,37.9411765 L97.2058824,37.6470588 L100.147059,37.6470588 L100.147059,37.9411765 L100.147059,37.9411765 C99.8529412,37.9411765 99.4117647,37.9411765 99.1176471,38.0882353 C98.8235294,38.2352941 98.3823529,38.5294118 98.0882353,38.8235294 L96.4705882,40.2941176 L100,46.3235294 L100.735294,46.3235294 L100.735294,46.4705882 L96.4705882,46.4705882 L96.4705882,46.3235294 L97.0588235,46.3235294 L94.7058824,41.9117647 L94.5588235,42.0588235 L94.5588235,46.3235294 L95.4411765,46.3235294 L95.4411765,46.4705882 L91.0294118,46.4705882 L91.0294118,46.7647059 Z M106.911765,42.3529412 C106.911765,44.1176471 107.058824,45.2941176 107.352941,45.8823529 C107.647059,46.4705882 108.088235,46.7647059 108.676471,46.7647059 C109.264706,46.7647059 109.705882,46.4705882 110,45.8823529 C110.294118,45.2941176 110.441176,44.1176471 110.441176,42.3529412 C110.441176,40.5882353 110.294118,39.4117647 110,38.8235294 C109.705882,38.2352941 109.264706,37.9411765 108.676471,37.9411765 C108.088235,37.9411765 107.647059,38.2352941 107.352941,38.8235294 C107.058824,39.4117647 106.911765,40.5882353 106.911765,42.3529412 L106.911765,42.3529412 Z M104.264706,42.3529412 C104.264706,41.6176471 104.411765,41.0294118 104.558824,40.4411765 C104.705882,39.8529412 105.147059,39.4117647 105.588235,38.9705882 C106.029412,38.5294118 106.470588,38.2352941 107.058824,37.9411765 C107.5,37.6470588 108.088235,37.6470588 108.676471,37.6470588 C109.264706,37.6470588 109.852941,37.7941176 110.294118,37.9411765 C110.882353,38.2352941 111.323529,38.5294118 111.764706,38.9705882 C112.205882,39.4117647 112.5,40 112.794118,40.4411765 C112.941176,41.0294118 113.088235,41.6176471 113.088235,42.3529412 C113.088235,43.0882353 112.941176,43.6764706 112.794118,44.2647059 C112.647059,44.8529412 112.205882,45.2941176 111.764706,45.7352941 C111.323529,46.1764706 110.882353,46.4705882 110.294118,46.7647059 C109.852941,46.9117647 109.264706,47.0588235 108.676471,47.0588235 C108.088235,47.0588235 107.5,46.9117647 107.058824,46.7647059 C106.470588,46.6176471 106.029412,46.1764706 105.588235,45.7352941 C105.147059,45.2941176 104.852941,44.7058824 104.558824,44.2647059 C104.264706,43.6764706 104.264706,43.0882353 104.264706,42.3529412 L104.264706,42.3529412 Z M114.411765,46.7647059 L114.411765,46.6176471 L115.294118,46.6176471 L115.294118,38.0882353 L114.411765,38.0882353 L114.411765,37.9411765 L121.617647,37.9411765 L121.617647,40.2941176 L121.470588,40.2941176 C121.323529,39.5588235 121.029412,38.9705882 120.735294,38.6764706 C120.294118,38.3823529 119.705882,38.2352941 118.823529,38.2352941 L118.382353,38.2352941 L118.088235,38.2352941 L118.088235,42.2058824 L118.529412,42.2058824 L118.823529,42.2058824 C119.411765,42.2058824 119.852941,42.0588235 120.147059,41.9117647 C120.441176,41.6176471 120.588235,41.3235294 120.588235,40.5882353 L120.588235,40.5882353 L120.588235,44.1176471 L120.441176,44.1176471 C120.441176,43.5294118 120.294118,43.0882353 120,42.7941176 C119.705882,42.5 119.264706,42.3529412 118.529412,42.3529412 L118.235294,42.3529412 L118.088235,42.3529412 L118.088235,46.6176471 L118.970588,46.6176471 L118.970588,46.7647059 L114.411765,46.7647059 L114.411765,46.7647059 Z M133.823529,43.9705882 L133.970588,43.9705882 L133.970588,46.7647059 L133.823529,46.7647059 C133.823529,46.6176471 133.823529,46.4705882 133.676471,46.4705882 C133.676471,46.3235294 133.529412,46.3235294 133.382353,46.3235294 C133.382353,46.3235294 133.088235,46.4705882 132.5,46.6176471 C131.911765,46.9117647 131.323529,46.9117647 130.735294,46.9117647 C130.147059,46.9117647 129.558824,46.7647059 128.970588,46.6176471 C128.382353,46.4705882 127.941176,46.0294118 127.5,45.7352941 C127.058824,45.2941176 126.617647,44.8529412 126.470588,44.2647059 C126.176471,43.6764706 126.176471,43.0882353 126.176471,42.5 C126.176471,41.7647059 126.323529,41.0294118 126.617647,40.4411765 C126.911765,39.7058824 127.352941,39.2647059 127.941176,38.6764706 C128.382353,38.3823529 128.823529,38.0882353 129.264706,37.9411765 C129.705882,37.7941176 130.294118,37.6470588 130.735294,37.6470588 C131.323529,37.6470588 131.911765,37.7941176 132.5,37.9411765 C133.088235,38.2352941 133.382353,38.2352941 133.382353,38.2352941 C133.529412,38.2352941 133.529412,38.2352941 133.676471,38.0882353 C133.823529,37.9411765 133.823529,37.9411765 133.823529,37.7941176 L133.970588,37.7941176 L133.970588,40.5882353 L133.823529,40.5882353 C133.676471,39.7058824 133.235294,38.9705882 132.794118,38.3823529 C132.352941,37.9411765 131.764706,37.6470588 131.029412,37.6470588 C130.735294,37.6470588 130.441176,37.6470588 130.147059,37.7941176 C129.852941,37.9411765 129.705882,38.0882353 129.558824,38.3823529 C129.411765,38.6764706 129.117647,39.1176471 129.117647,39.5588235 C128.970588,40 128.970588,40.8823529 128.970588,41.9117647 C128.970588,43.0882353 128.970588,43.9705882 129.117647,44.4117647 C129.117647,44.8529412 129.264706,45.2941176 129.411765,45.5882353 C129.558824,45.8823529 129.705882,46.1764706 130,46.3235294 C130.294118,46.4705882 130.588235,46.6176471 131.029412,46.6176471 C131.764706,46.6176471 132.5,46.3235294 132.941176,45.8823529 C133.529412,45.5882353 133.823529,44.8529412 133.823529,43.9705882 L133.823529,43.9705882 Z M135.735294,46.7647059 L135.735294,46.6176471 L136.617647,46.6176471 L136.617647,38.0882353 L135.735294,38.0882353 L135.735294,37.9411765 L140,37.9411765 L140,38.0882353 L139.264706,38.0882353 L139.264706,42.0588235 L141.764706,42.0588235 L141.764706,38.0882353 L141.029412,38.0882353 L141.029412,37.9411765 L145.294118,37.9411765 L145.294118,38.0882353 L144.411765,38.0882353 L144.411765,46.6176471 L145.294118,46.6176471 L145.294118,46.7647059 L141.029412,46.7647059 L141.029412,46.6176471 L141.764706,46.6176471 L141.764706,42.3529412 L139.264706,42.3529412 L139.264706,46.6176471 L140,46.6176471 L140,46.7647059 L135.735294,46.7647059 L135.735294,46.7647059 Z M146.323529,46.7647059 L146.323529,46.6176471 L147.205882,46.6176471 L147.205882,38.0882353 L146.323529,38.0882353 L146.323529,37.9411765 L150.588235,37.9411765 L150.588235,38.0882353 L149.705882,38.0882353 L149.705882,46.6176471 L150.588235,46.6176471 L150.588235,46.7647059 L146.323529,46.7647059 L146.323529,46.7647059 Z M152.058824,38.0882353 L151.764706,38.0882353 L151.764706,37.7941176 L154.852941,37.7941176 L159.411765,44.1176471 L159.411765,38.9705882 C159.411765,38.5294118 159.411765,38.3823529 159.264706,38.2352941 C159.117647,38.0882353 158.970588,38.0882353 158.676471,38.0882353 L158.529412,38.0882353 L158.382353,38.0882353 L158.382353,37.7941176 L160.588235,37.7941176 L160.588235,38.0882353 L160.441176,38.0882353 L160.294118,38.0882353 C160,38.0882353 159.852941,38.0882353 159.705882,38.2352941 C159.558824,38.3823529 159.558824,38.6764706 159.558824,38.9705882 L159.558824,46.7647059 L158.088235,46.7647059 L153.088235,39.5588235 L153.088235,45.4411765 C153.088235,45.8823529 153.088235,46.1764706 153.235294,46.3235294 C153.382353,46.4705882 153.529412,46.4705882 153.823529,46.4705882 L153.970588,46.4705882 L154.117647,46.4705882 L154.117647,46.6176471 L151.911765,46.6176471 L151.911765,46.4705882 L152.058824,46.4705882 L152.205882,46.4705882 C152.5,46.4705882 152.647059,46.4705882 152.794118,46.3235294 C152.941176,46.1764706 152.941176,45.8823529 152.941176,45.5882353 L152.941176,39.2647059 L152.058824,38.0882353 L152.058824,38.0882353 Z M162.794118,43.6764706 L164.852941,43.6764706 L163.823529,40.5882353 L162.794118,43.6764706 L162.794118,43.6764706 Z M161.029412,46.7647059 L161.029412,46.6176471 L161.176471,46.6176471 C161.323529,46.6176471 161.470588,46.6176471 161.617647,46.4705882 C161.764706,46.3235294 161.764706,46.3235294 161.764706,46.1764706 L164.558824,37.7941176 L165.588235,37.7941176 L168.676471,46.6176471 L169.117647,46.6176471 L169.117647,46.7647059 L165.441176,46.7647059 L165.441176,46.6176471 L166.029412,46.6176471 L165,43.9705882 L162.794118,43.9705882 L162.205882,45.7352941 C162.205882,45.8823529 162.205882,46.0294118 162.058824,46.0294118 L162.058824,46.1764706 C162.058824,46.3235294 162.058824,46.4705882 162.205882,46.4705882 C162.352941,46.4705882 162.5,46.6176471 162.794118,46.6176471 L162.941176,46.6176471 L162.941176,46.7647059 L161.029412,46.7647059 L161.029412,46.7647059 Z" id="Shape" fill="#000000"></path>
                            </g>
                        </g>
                    </g>
                </g>
            </g>
        </g>
    </g>
</svg>