<?xml version="1.0" encoding="UTF-8"?>
<svg width="200px" height="50px" viewBox="0 0 200 50" version="1.1" xmlns="http://www.w3.org/2000/svg" xmlns:xlink="http://www.w3.org/1999/xlink">
    <!-- Generator: Sketch 42 (36781) - http://www.bohemiancoding.com/sketch -->
    <title>svg</title>
    <desc>Created with Sketch.</desc>
    <defs></defs>
    <g id="Page-1" stroke="none" stroke-width="1" fill="none" fill-rule="evenodd">
        <g id="svg" fill-rule="nonzero">
            <g id="4-ICBCB2C" transform="translate(0.000000, 5.000000)">
                <g id="Page-1">
                    <g id="Page_1">
                        <g id="图层_1_1_">
                            <g id="中国工商银行">
                                <path d="M4.55696203,19.3670886 L4.6835443,21.0126582 L4.81012658,22.5316456 L5.18987342,24.1772152 L5.69620253,25.5696203 L6.32911392,27.0886076 L7.08860759,28.3544304 L7.46835443,28.9873418 L7.97468354,29.4936709 L8.86075949,30.7594937 L10.1265823,31.6455696 L11.3924051,32.5316456 L12.7848101,33.2911392 L14.1772152,33.9240506 L15.6962025,34.4303797 L17.2151899,34.8101266 L17.9746835,34.9367089 L18.7341772,35.0632911 L19.4936709,35.0632911 L20.2531646,35.0632911 L21.8987342,35.0632911 L23.4177215,34.8101266 L25.0632911,34.4303797 L26.4556962,33.9240506 L27.9746835,33.2911392 L29.2405063,32.5316456 L29.8734177,32.1518987 L30.3797468,31.6455696 L31.6455696,30.7594937 L32.5316456,29.4936709 L33.4177215,28.2278481 L34.1772152,26.9620253 L34.8101266,25.443038 L35.3164557,24.0506329 L35.6962025,22.4050633 L35.8227848,21.7721519 L35.9493671,21.0126582 L35.9493671,20.2531646 L35.9493671,19.4936709 L35.9493671,17.721519 L35.6962025,16.0759494 L35.3164557,14.556962 L34.8101266,13.0379747 L34.1772152,11.6455696 L33.4177215,10.2531646 L33.0379747,9.62025316 L32.5316456,9.11392405 L31.6455696,7.97468354 L30.3797468,6.83544304 L29.1139241,5.94936709 L27.8481013,5.18987342 L26.3291139,4.55696203 L24.9367089,4.05063291 L23.2911392,3.67088608 L22.6582278,3.5443038 L21.8987342,3.5443038 L21.1392405,3.41772152 L20.3797468,3.41772152 L18.7341772,3.5443038 L17.0886076,3.67088608 L15.5696203,4.05063291 L14.0506329,4.55696203 L12.6582278,5.18987342 L11.2658228,5.94936709 L10.6329114,6.32911392 L10.1265823,6.83544304 L8.86075949,7.97468354 L7.97468354,9.11392405 L7.08860759,10.3797468 L6.32911392,11.7721519 L5.69620253,13.164557 L5.18987342,14.6835443 L4.81012658,16.2025316 L4.6835443,16.9620253 L4.6835443,17.721519 L4.55696203,18.4810127 L4.55696203,19.3670886 L4.55696203,19.3670886 Z M0.632911392,19.3670886 L0.759493671,17.3417722 L0.886075949,16.2025316 L1.01265823,15.3164557 L1.51898734,13.4177215 L1.7721519,12.5316456 L2.15189873,11.7721519 L2.53164557,10.8860759 L2.91139241,10.1265823 L3.79746835,8.48101266 L4.30379747,7.72151899 L4.93670886,6.96202532 L6.20253165,5.56962025 L6.83544304,4.93670886 L7.46835443,4.43037975 L8.2278481,3.79746835 L8.98734177,3.29113924 L9.74683544,2.78481013 L10.5063291,2.40506329 L12.278481,1.64556962 L14.0506329,1.01265823 L14.9367089,0.759493671 L15.8227848,0.506329114 L16.7088608,0.379746835 L17.8481013,0.253164557 L19.8734177,0.126582278 L21.8987342,0.253164557 L22.7848101,0.379746835 L23.6708861,0.506329114 L25.5696203,1.01265823 L26.4556962,1.26582278 L27.3417722,1.64556962 L28.1012658,2.02531646 L28.8607595,2.40506329 L30.6329114,3.29113924 L31.2658228,3.79746835 L32.0253165,4.43037975 L33.4177215,5.69620253 L34.0506329,6.32911392 L34.6835443,6.96202532 L35.1898734,7.72151899 L35.6962025,8.48101266 L36.2025316,9.24050633 L36.5822785,10 L37.4683544,11.7721519 L38.1012658,13.5443038 L38.2278481,14.4303797 L38.4810127,15.3164557 L38.6075949,16.2025316 L38.7341772,17.3417722 L38.8607595,19.3670886 L38.7341772,21.3924051 L38.6075949,22.278481 L38.4810127,23.164557 L38.1012658,25.0632911 L37.721519,25.9493671 L37.4683544,26.835443 L37.0886076,27.5949367 L36.5822785,28.3544304 L35.6962025,30.1265823 L35.1898734,30.7594937 L34.6835443,31.5189873 L33.2911392,32.9113924 L32.6582278,33.5443038 L32.0253165,34.1772152 L31.2658228,34.6835443 L30.6329114,35.1898734 L29.8734177,35.6962025 L28.9873418,36.0759494 L27.3417722,36.9620253 L25.443038,37.5949367 L24.556962,37.8481013 L23.6708861,37.9746835 L22.7848101,38.1012658 L21.8987342,38.2278481 L19.8734177,38.3544304 L17.8481013,38.2278481 L16.7088608,38.1012658 L15.8227848,37.9746835 L13.9240506,37.5949367 L13.0379747,37.2151899 L12.278481,36.9620253 L11.3924051,36.5822785 L10.6329114,36.0759494 L8.98734177,35.1898734 L8.2278481,34.6835443 L7.46835443,34.1772152 L6.07594937,32.7848101 L5.44303797,32.1518987 L4.93670886,31.5189873 L4.30379747,30.7594937 L3.79746835,30.1265823 L3.29113924,29.3670886 L2.91139241,28.4810127 L2.15189873,26.835443 L1.51898734,24.9367089 L1.26582278,24.0506329 L1.01265823,23.164557 L0.886075949,22.278481 L0.759493671,21.3924051 L0.632911392,19.3670886 L0.632911392,19.3670886 Z M31.6455696,20.7594937 L31.6455696,23.4177215 L31.6455696,26.7088608 L31.6455696,29.4936709 L28.4810127,29.4936709 L21.8987342,29.4936709 L21.8987342,26.7088608 L28.4810127,26.7088608 L28.4810127,23.4177215 L24.9367089,23.4177215 L21.7721519,23.4177215 L21.7721519,20.6329114 L21.7721519,17.5949367 L21.7721519,14.556962 L24.9367089,14.556962 L28.4810127,14.556962 L28.4810127,11.5189873 L21.8987342,11.5189873 L21.8987342,8.86075949 L28.4810127,8.86075949 L31.6455696,8.86075949 L31.6455696,11.6455696 L31.6455696,14.6835443 L31.6455696,17.721519 L28.4810127,17.721519 L24.9367089,17.721519 L24.9367089,20.7594937 L31.6455696,20.7594937 L31.6455696,20.7594937 L31.6455696,20.7594937 Z M9.24050633,20.7594937 L9.24050633,23.4177215 L9.24050633,26.7088608 L9.24050633,29.4936709 L12.4050633,29.4936709 L18.9873418,29.4936709 L18.9873418,26.7088608 L12.4050633,26.7088608 L12.4050633,23.4177215 L15.9493671,23.4177215 L18.9873418,23.4177215 L18.9873418,20.6329114 L18.9873418,17.5949367 L18.9873418,14.556962 L15.8227848,14.556962 L12.278481,14.556962 L12.278481,11.5189873 L18.9873418,11.5189873 L18.9873418,8.86075949 L12.4050633,8.86075949 L9.24050633,8.86075949 L9.24050633,11.6455696 L9.24050633,14.6835443 L9.24050633,17.721519 L12.4050633,17.721519 L15.9493671,17.721519 L15.9493671,20.7594937 L9.36708861,20.7594937 L9.36708861,20.7594937 L9.24050633,20.7594937 Z" id="Shape" fill="#E60012"></path>
                                <polygon id="Shape" fill="#E60012" points="47.5949367 27.5949367 199.493671 27.5949367 199.493671 28.8607595 47.5949367 28.8607595"></polygon>
                                <path d="M47.5949367,32.6582278 L48.8607595,32.6582278 L48.8607595,36.5822785 L47.5949367,36.5822785 L47.5949367,32.6582278 L47.5949367,32.6582278 Z M49.8734177,32.6582278 L51.0126582,32.6582278 L52.6582278,34.8101266 L52.6582278,32.6582278 L53.7974684,32.6582278 L53.7974684,36.5822785 L52.6582278,36.5822785 L51.0126582,34.3037975 L51.0126582,36.5822785 L49.8734177,36.5822785 L49.8734177,32.6582278 L49.8734177,32.6582278 Z M54.556962,32.6582278 L56.4556962,32.6582278 L56.9620253,32.6582278 L57.4683544,32.7848101 L57.721519,32.9113924 L57.9746835,33.164557 L58.2278481,33.5443038 L58.3544304,33.9240506 L58.3544304,34.3037975 L58.3544304,34.6835443 L58.3544304,35.1898734 L58.2278481,35.6962025 L58.1012658,35.9493671 L57.8481013,36.2025316 L57.5949367,36.4556962 L57.2151899,36.5822785 L56.4556962,36.7088608 L54.556962,36.7088608 L54.556962,32.6582278 L54.556962,32.6582278 Z M55.6962025,33.5443038 L55.6962025,35.8227848 L56.0759494,35.8227848 L56.4556962,35.6962025 L56.5822785,35.6962025 L56.835443,35.5696203 L56.9620253,35.3164557 L56.9620253,35.0632911 L56.9620253,34.6835443 L56.9620253,34.1772152 L56.835443,33.9240506 L56.835443,33.7974684 L56.7088608,33.6708861 L56.4556962,33.6708861 L56.0759494,33.5443038 L55.6962025,33.5443038 L55.6962025,33.5443038 Z M61.5189873,32.6582278 L62.7848101,32.6582278 L62.7848101,35.0632911 L62.7848101,35.443038 L62.6582278,35.6962025 L62.5316456,36.0759494 L62.4050633,36.3291139 L62.1518987,36.4556962 L61.8987342,36.5822785 L61.3924051,36.7088608 L60.8860759,36.7088608 L60.2531646,36.7088608 L59.6202532,36.5822785 L59.4936709,36.4556962 L59.2405063,36.2025316 L58.9873418,35.6962025 L58.8607595,35.3164557 L58.8607595,35.0632911 L58.8607595,32.6582278 L60.1265823,32.6582278 L60.1265823,35.0632911 L60.1265823,35.443038 L60.2531646,35.5696203 L60.5063291,35.8227848 L60.8860759,35.8227848 L61.1392405,35.8227848 L61.3924051,35.5696203 L61.5189873,35.443038 L61.5189873,35.0632911 L61.5189873,32.6582278 L61.5189873,32.6582278 Z M63.4177215,35.3164557 L64.6835443,35.3164557 L64.8101266,35.6962025 L64.9367089,35.8227848 L65.0632911,35.9493671 L65.443038,35.9493671 L65.6962025,35.9493671 L65.8227848,35.8227848 L65.9493671,35.6962025 L65.9493671,35.5696203 L65.9493671,35.443038 L65.8227848,35.3164557 L65.5696203,35.1898734 L65.1898734,35.0632911 L64.4303797,34.8101266 L64.1772152,34.6835443 L63.9240506,34.556962 L63.7974684,34.4303797 L63.6708861,34.1772152 L63.6708861,33.9240506 L63.6708861,33.7974684 L63.6708861,33.4177215 L63.7974684,33.164557 L64.0506329,32.9113924 L64.3037975,32.7848101 L64.8101266,32.6582278 L65.3164557,32.5316456 L66.0759494,32.6582278 L66.5822785,32.9113924 L66.835443,33.0379747 L66.9620253,33.2911392 L67.0886076,33.4177215 L67.0886076,33.7974684 L65.8227848,33.7974684 L65.8227848,33.5443038 L65.6962025,33.4177215 L65.443038,33.2911392 L65.1898734,33.2911392 L65.0632911,33.2911392 L64.9367089,33.4177215 L64.8101266,33.5443038 L64.8101266,33.6708861 L64.9367089,33.7974684 L65.0632911,33.9240506 L65.3164557,33.9240506 L66.0759494,34.1772152 L66.5822785,34.3037975 L66.835443,34.556962 L67.0886076,34.8101266 L67.2151899,35.0632911 L67.2151899,35.3164557 L67.2151899,35.6962025 L66.9620253,36.0759494 L66.7088608,36.3291139 L66.3291139,36.5822785 L65.8227848,36.7088608 L65.3164557,36.7088608 L64.8101266,36.7088608 L64.3037975,36.7088608 L64.0506329,36.5822785 L63.7974684,36.3291139 L63.6708861,36.2025316 L63.4177215,35.9493671 L63.4177215,35.3164557 L63.4177215,35.3164557 Z M67.4683544,32.6582278 L71.2658228,32.6582278 L71.2658228,33.6708861 L69.8734177,33.6708861 L69.8734177,36.5822785 L68.6075949,36.5822785 L68.6075949,33.6708861 L67.3417722,33.6708861 L67.3417722,32.6582278 L67.4683544,32.6582278 Z M71.7721519,36.7088608 L71.7721519,32.7848101 L73.9240506,32.7848101 L74.556962,32.7848101 L74.9367089,32.9113924 L75.1898734,33.0379747 L75.443038,33.2911392 L75.5696203,33.5443038 L75.5696203,33.9240506 L75.5696203,34.1772152 L75.443038,34.4303797 L75.3164557,34.6835443 L75.0632911,34.8101266 L74.556962,35.0632911 L74.9367089,35.1898734 L75.0632911,35.443038 L75.3164557,35.6962025 L75.9493671,36.7088608 L74.4303797,36.7088608 L73.7974684,35.443038 L73.5443038,35.1898734 L73.2911392,35.0632911 L73.164557,35.0632911 L73.164557,36.7088608 L71.7721519,36.7088608 L71.7721519,36.7088608 Z M73.164557,34.3037975 L73.6708861,34.3037975 L74.0506329,34.1772152 L74.1772152,34.0506329 L74.3037975,33.7974684 L74.3037975,33.6708861 L74.1772152,33.5443038 L73.9240506,33.4177215 L73.6708861,33.4177215 L73.164557,33.4177215 L73.164557,34.3037975 L73.164557,34.3037975 Z M76.2025316,32.6582278 L77.5949367,32.6582278 L77.5949367,36.5822785 L76.2025316,36.5822785 L76.2025316,32.6582278 L76.2025316,32.6582278 Z M81.0126582,35.9493671 L79.4936709,35.9493671 L79.3670886,36.7088608 L77.9746835,36.7088608 L79.6202532,32.7848101 L81.0126582,32.7848101 L82.5316456,36.7088608 L81.2658228,36.7088608 L81.0126582,35.9493671 L81.0126582,35.9493671 Z M80.7594937,35.0632911 L80.2531646,33.6708861 L79.8734177,35.0632911 L80.7594937,35.0632911 L80.7594937,35.0632911 Z M82.7848101,32.6582278 L84.1772152,32.6582278 L84.1772152,35.5696203 L86.0759494,35.5696203 L86.0759494,36.5822785 L82.9113924,36.5822785 L82.9113924,32.6582278 L82.7848101,32.6582278 Z M91.1392405,35.9493671 L89.6202532,35.9493671 L89.3670886,36.7088608 L88.1012658,36.7088608 L89.6202532,32.7848101 L91.1392405,32.7848101 L92.6582278,36.7088608 L91.2658228,36.7088608 L91.1392405,35.9493671 L91.1392405,35.9493671 Z M90.8860759,35.0632911 L90.3797468,33.6708861 L89.8734177,35.0632911 L90.8860759,35.0632911 L90.8860759,35.0632911 Z M92.9113924,32.6582278 L94.1772152,32.6582278 L95.6962025,34.8101266 L95.6962025,32.6582278 L96.9620253,32.6582278 L96.9620253,36.5822785 L95.6962025,36.5822785 L94.1772152,34.3037975 L94.1772152,36.5822785 L92.9113924,36.5822785 L92.9113924,32.6582278 L92.9113924,32.6582278 Z M97.721519,32.6582278 L99.6202532,32.6582278 L100.126582,32.6582278 L100.506329,32.7848101 L100.759494,32.9113924 L101.012658,33.164557 L101.265823,33.5443038 L101.392405,33.9240506 L101.518987,34.3037975 L101.518987,34.6835443 L101.518987,35.1898734 L101.392405,35.6962025 L101.139241,35.9493671 L100.886076,36.2025316 L100.632911,36.4556962 L100.379747,36.5822785 L99.6202532,36.7088608 L97.721519,36.7088608 L97.721519,32.6582278 L97.721519,32.6582278 Z M98.9873418,33.5443038 L98.9873418,35.8227848 L99.2405063,35.8227848 L99.6202532,35.6962025 L99.8734177,35.6962025 L100,35.5696203 L100.126582,35.3164557 L100.126582,35.0632911 L100.253165,34.6835443 L100.126582,34.1772152 L100.126582,33.9240506 L100,33.7974684 L99.8734177,33.6708861 L99.7468354,33.6708861 L99.2405063,33.5443038 L98.9873418,33.5443038 L98.9873418,33.5443038 Z M106.708861,35.0632911 L107.848101,35.3164557 L107.721519,35.8227848 L107.468354,36.0759494 L107.21519,36.4556962 L106.962025,36.5822785 L106.455696,36.7088608 L105.949367,36.7088608 L105.443038,36.7088608 L104.936709,36.5822785 L104.43038,36.3291139 L104.177215,35.9493671 L104.050633,35.5696203 L103.924051,35.3164557 L103.797468,35.0632911 L103.797468,34.6835443 L103.924051,34.1772152 L103.924051,33.7974684 L104.177215,33.4177215 L104.43038,33.164557 L104.683544,32.9113924 L105.063291,32.6582278 L105.443038,32.6582278 L105.949367,32.5316456 L106.582278,32.6582278 L107.21519,32.9113924 L107.341772,33.0379747 L107.594937,33.2911392 L107.721519,33.5443038 L107.848101,33.7974684 L106.708861,34.0506329 L106.582278,33.7974684 L106.329114,33.5443038 L106.202532,33.5443038 L105.949367,33.5443038 L105.822785,33.5443038 L105.56962,33.5443038 L105.443038,33.6708861 L105.316456,33.7974684 L105.189873,34.1772152 L105.063291,34.6835443 L105.189873,35.1898734 L105.189873,35.443038 L105.316456,35.5696203 L105.443038,35.6962025 L105.56962,35.6962025 L105.949367,35.8227848 L106.202532,35.8227848 L106.455696,35.5696203 L106.582278,35.3164557 L106.708861,35.0632911 L106.708861,35.0632911 Z M108.227848,34.6835443 L108.227848,34.1772152 L108.35443,33.7974684 L108.481013,33.5443038 L108.481013,33.4177215 L108.734177,33.164557 L109.113924,32.9113924 L109.493671,32.6582278 L109.873418,32.6582278 L110.379747,32.5316456 L110.886076,32.6582278 L111.265823,32.6582278 L111.64557,32.9113924 L112.025316,33.164557 L112.151899,33.4177215 L112.405063,33.7974684 L112.405063,33.9240506 L112.531646,34.1772152 L112.531646,34.6835443 L112.405063,35.3164557 L112.405063,35.5696203 L112.278481,35.8227848 L112.025316,36.2025316 L111.518987,36.4556962 L111.265823,36.5822785 L111.012658,36.7088608 L110.379747,36.7088608 L109.746835,36.7088608 L109.240506,36.5822785 L108.987342,36.4556962 L108.860759,36.2025316 L108.481013,35.8227848 L108.227848,35.3164557 L108.227848,35.0632911 L108.227848,34.6835443 L108.227848,34.6835443 Z M109.493671,34.6835443 L109.620253,35.1898734 L109.620253,35.443038 L109.746835,35.5696203 L109.873418,35.6962025 L110,35.6962025 L110.379747,35.8227848 L110.759494,35.6962025 L111.012658,35.5696203 L111.139241,35.1898734 L111.265823,34.556962 L111.139241,34.1772152 L111.139241,33.9240506 L111.012658,33.7974684 L110.886076,33.6708861 L110.759494,33.5443038 L110.379747,33.5443038 L110,33.5443038 L109.746835,33.7974684 L109.620253,34.1772152 L109.493671,34.6835443 L109.493671,34.6835443 Z M113.037975,32.6582278 L114.810127,32.6582278 L115.443038,35.0632911 L116.075949,32.6582278 L117.721519,32.6582278 L117.721519,36.5822785 L116.708861,36.5822785 L116.708861,33.5443038 L115.822785,36.5822785 L114.936709,36.5822785 L114.050633,33.5443038 L114.050633,36.5822785 L113.037975,36.5822785 L113.037975,32.6582278 L113.037975,32.6582278 Z M118.481013,32.6582278 L120.126582,32.6582278 L120.759494,35.0632911 L121.392405,32.6582278 L123.037975,32.6582278 L123.037975,36.5822785 L122.025316,36.5822785 L122.025316,33.5443038 L121.265823,36.5822785 L120.253165,36.5822785 L119.493671,33.5443038 L119.493671,36.5822785 L118.481013,36.5822785 L118.481013,32.6582278 L118.481013,32.6582278 Z M123.797468,32.6582278 L127.088608,32.6582278 L127.088608,33.5443038 L124.936709,33.5443038 L124.936709,34.1772152 L126.962025,34.1772152 L126.962025,34.9367089 L124.936709,34.9367089 L124.936709,35.6962025 L127.21519,35.6962025 L127.21519,36.7088608 L123.797468,36.7088608 L123.797468,32.6582278 L123.797468,32.6582278 Z M127.848101,36.7088608 L127.848101,32.7848101 L130,32.7848101 L130.506329,32.7848101 L130.886076,32.9113924 L131.265823,33.0379747 L131.392405,33.2911392 L131.64557,33.5443038 L131.64557,33.9240506 L131.64557,34.1772152 L131.518987,34.4303797 L131.265823,34.6835443 L131.139241,34.8101266 L130.632911,35.0632911 L131.012658,35.1898734 L131.139241,35.443038 L131.392405,35.6962025 L132.025316,36.835443 L130.506329,36.835443 L129.873418,35.5696203 L129.620253,35.3164557 L129.240506,35.1898734 L129.240506,36.835443 L127.848101,36.835443 L127.848101,36.7088608 Z M129.240506,34.3037975 L129.746835,34.3037975 L130.126582,34.1772152 L130.253165,34.0506329 L130.379747,33.7974684 L130.379747,33.6708861 L130.253165,33.5443038 L130,33.4177215 L129.746835,33.4177215 L129.240506,33.4177215 L129.240506,34.3037975 L129.240506,34.3037975 Z M134.936709,35.0632911 L136.075949,35.3164557 L135.949367,35.8227848 L135.696203,36.0759494 L135.443038,36.4556962 L135.063291,36.5822785 L134.683544,36.7088608 L134.177215,36.7088608 L133.544304,36.7088608 L133.037975,36.5822785 L132.658228,36.3291139 L132.278481,35.9493671 L132.151899,35.5696203 L132.151899,35.3164557 L132.025316,35.0632911 L132.025316,34.6835443 L132.025316,34.1772152 L132.151899,33.7974684 L132.278481,33.4177215 L132.531646,33.164557 L132.911392,32.9113924 L133.164557,32.6582278 L133.670886,32.6582278 L134.177215,32.5316456 L134.810127,32.6582278 L135.316456,32.9113924 L135.56962,33.0379747 L135.696203,33.2911392 L135.949367,33.5443038 L136.075949,33.7974684 L134.936709,34.0506329 L134.810127,33.7974684 L134.556962,33.5443038 L134.303797,33.5443038 L134.177215,33.5443038 L133.924051,33.5443038 L133.797468,33.5443038 L133.544304,33.6708861 L133.417722,33.7974684 L133.291139,34.1772152 L133.291139,34.6835443 L133.291139,35.1898734 L133.417722,35.443038 L133.544304,35.5696203 L133.670886,35.6962025 L133.797468,35.6962025 L134.050633,35.8227848 L134.43038,35.8227848 L134.683544,35.5696203 L134.810127,35.3164557 L134.936709,35.0632911 L134.936709,35.0632911 Z M136.708861,32.6582278 L137.974684,32.6582278 L137.974684,36.5822785 L136.708861,36.5822785 L136.708861,32.6582278 L136.708861,32.6582278 Z M141.392405,35.9493671 L139.873418,35.9493671 L139.746835,36.7088608 L138.35443,36.7088608 L140,32.7848101 L141.392405,32.7848101 L142.911392,36.7088608 L141.518987,36.7088608 L141.392405,35.9493671 L141.392405,35.9493671 Z M141.139241,35.0632911 L140.632911,33.6708861 L140.126582,35.0632911 L141.139241,35.0632911 L141.139241,35.0632911 Z M143.164557,32.6582278 L144.43038,32.6582278 L144.43038,35.5696203 L146.455696,35.5696203 L146.455696,36.5822785 L143.291139,36.5822785 L143.291139,32.6582278 L143.164557,32.6582278 Z M148.860759,32.6582278 L151.265823,32.6582278 L151.772152,32.6582278 L152.278481,32.9113924 L152.531646,33.2911392 L152.531646,33.6708861 L152.531646,33.9240506 L152.278481,34.3037975 L152.151899,34.4303797 L151.898734,34.556962 L152.278481,34.6835443 L152.531646,34.9367089 L152.658228,35.1898734 L152.78481,35.5696203 L152.658228,35.8227848 L152.531646,36.0759494 L152.405063,36.3291139 L152.151899,36.4556962 L152.025316,36.5822785 L151.64557,36.5822785 L151.139241,36.7088608 L148.860759,36.7088608 L148.860759,32.6582278 L148.860759,32.6582278 Z M150.253165,34.1772152 L150.759494,34.1772152 L151.012658,34.1772152 L151.139241,34.1772152 L151.265823,34.0506329 L151.265823,33.7974684 L151.265823,33.6708861 L151.139241,33.5443038 L151.012658,33.5443038 L150.759494,33.4177215 L150.253165,33.4177215 L150.253165,34.1772152 L150.253165,34.1772152 Z M150.253165,35.8227848 L150.886076,35.8227848 L151.139241,35.8227848 L151.265823,35.6962025 L151.392405,35.5696203 L151.392405,35.443038 L151.392405,35.1898734 L151.265823,35.0632911 L151.139241,35.0632911 L150.886076,34.9367089 L150.253165,34.9367089 L150.253165,35.8227848 L150.253165,35.8227848 Z M155.696203,35.9493671 L154.303797,35.9493671 L154.050633,36.7088608 L152.78481,36.7088608 L154.303797,32.7848101 L155.696203,32.7848101 L157.341772,36.7088608 L155.949367,36.7088608 L155.696203,35.9493671 L155.696203,35.9493671 Z M155.443038,35.0632911 L155.063291,33.6708861 L154.556962,35.0632911 L155.443038,35.0632911 L155.443038,35.0632911 Z M157.721519,32.6582278 L158.860759,32.6582278 L160.506329,34.8101266 L160.506329,32.6582278 L161.64557,32.6582278 L161.64557,36.5822785 L160.506329,36.5822785 L158.860759,34.3037975 L158.860759,36.5822785 L157.721519,36.5822785 L157.721519,32.6582278 L157.721519,32.6582278 Z M162.405063,32.6582278 L163.670886,32.6582278 L163.670886,34.1772152 L165.063291,32.6582278 L166.708861,32.6582278 L165.189873,34.1772152 L166.835443,36.7088608 L165.189873,36.7088608 L164.303797,35.0632911 L163.670886,35.6962025 L163.670886,36.7088608 L162.405063,36.7088608 L162.405063,32.6582278 L162.405063,32.6582278 Z M168.734177,34.6835443 L168.860759,34.1772152 L168.987342,33.7974684 L168.987342,33.5443038 L169.113924,33.4177215 L169.367089,33.164557 L169.620253,32.9113924 L170,32.6582278 L170.506329,32.6582278 L170.886076,32.5316456 L171.392405,32.6582278 L171.898734,32.6582278 L172.278481,32.9113924 L172.531646,33.164557 L172.78481,33.4177215 L172.911392,33.7974684 L173.037975,33.9240506 L173.037975,34.1772152 L173.037975,34.6835443 L173.037975,35.3164557 L172.911392,35.5696203 L172.78481,35.8227848 L172.531646,36.2025316 L172.151899,36.4556962 L171.898734,36.5822785 L171.64557,36.7088608 L171.012658,36.7088608 L170.379747,36.7088608 L169.873418,36.5822785 L169.620253,36.4556962 L169.367089,36.2025316 L169.113924,35.8227848 L168.860759,35.3164557 L168.860759,35.0632911 L168.734177,34.6835443 L168.734177,34.6835443 Z M170.126582,34.6835443 L170.126582,35.1898734 L170.253165,35.443038 L170.253165,35.5696203 L170.379747,35.6962025 L170.632911,35.6962025 L170.886076,35.8227848 L171.265823,35.6962025 L171.518987,35.5696203 L171.772152,35.1898734 L171.772152,34.556962 L171.772152,34.1772152 L171.64557,33.9240506 L171.518987,33.7974684 L171.392405,33.6708861 L171.265823,33.5443038 L170.886076,33.5443038 L170.632911,33.5443038 L170.253165,33.7974684 L170.126582,34.1772152 L170.126582,34.6835443 L170.126582,34.6835443 Z M173.670886,32.6582278 L176.708861,32.6582278 L176.708861,33.5443038 L174.810127,33.5443038 L174.810127,34.1772152 L176.455696,34.1772152 L176.455696,35.0632911 L174.810127,35.0632911 L174.810127,36.7088608 L173.544304,36.7088608 L173.544304,32.6582278 L173.670886,32.6582278 Z M182.151899,35.0632911 L183.291139,35.3164557 L183.037975,35.8227848 L182.911392,36.0759494 L182.658228,36.4556962 L182.278481,36.5822785 L181.898734,36.7088608 L181.392405,36.7088608 L180.759494,36.7088608 L180.253165,36.5822785 L179.873418,36.3291139 L179.493671,35.9493671 L179.367089,35.5696203 L179.240506,35.3164557 L179.240506,35.0632911 L179.240506,34.6835443 L179.240506,34.1772152 L179.367089,33.7974684 L179.493671,33.4177215 L179.746835,33.164557 L180,32.9113924 L180.379747,32.6582278 L180.886076,32.6582278 L181.265823,32.5316456 L182.025316,32.6582278 L182.531646,32.9113924 L182.78481,33.0379747 L182.911392,33.2911392 L183.037975,33.5443038 L183.164557,33.7974684 L182.025316,34.0506329 L181.898734,33.7974684 L181.64557,33.5443038 L181.518987,33.5443038 L181.265823,33.5443038 L181.139241,33.5443038 L180.886076,33.5443038 L180.759494,33.6708861 L180.632911,33.7974684 L180.506329,34.1772152 L180.506329,34.6835443 L180.506329,35.1898734 L180.632911,35.443038 L180.632911,35.5696203 L180.759494,35.6962025 L180.886076,35.6962025 L181.265823,35.8227848 L181.64557,35.8227848 L181.898734,35.5696203 L182.025316,35.3164557 L182.151899,35.0632911 L182.151899,35.0632911 Z M183.670886,32.6582278 L185.063291,32.6582278 L185.063291,34.0506329 L186.455696,34.0506329 L186.455696,32.6582278 L187.721519,32.6582278 L187.721519,36.5822785 L186.455696,36.5822785 L186.455696,34.9367089 L185.063291,34.9367089 L185.063291,36.5822785 L183.670886,36.5822785 L183.670886,32.6582278 L183.670886,32.6582278 Z M188.481013,32.6582278 L189.746835,32.6582278 L189.746835,36.5822785 L188.481013,36.5822785 L188.481013,32.6582278 L188.481013,32.6582278 Z M190.759494,32.6582278 L191.898734,32.6582278 L193.417722,34.8101266 L193.417722,32.6582278 L194.683544,32.6582278 L194.683544,36.5822785 L193.417722,36.5822785 L191.898734,34.3037975 L191.898734,36.5822785 L190.759494,36.5822785 L190.759494,32.6582278 L190.759494,32.6582278 Z M197.848101,35.9493671 L196.455696,35.9493671 L196.202532,36.7088608 L194.936709,36.7088608 L196.455696,32.7848101 L197.848101,32.7848101 L199.493671,36.7088608 L198.101266,36.7088608 L197.848101,35.9493671 L197.848101,35.9493671 Z M197.594937,35.0632911 L197.21519,33.6708861 L196.708861,35.0632911 L197.594937,35.0632911 L197.594937,35.0632911 Z" id="Shape" fill="#040000"></path>
                                <path d="M47.5949367,17.9746835 L47.5949367,6.70886076 L55.5696203,6.70886076 L55.5696203,2.02531646 C57.4683544,2.02531646 58.4810127,2.02531646 58.8607595,2.15189873 C59.3670886,2.15189873 59.4936709,2.15189873 59.4936709,2.27848101 C59.4936709,2.40506329 59.4936709,2.40506329 59.3670886,2.53164557 C59.1139241,3.03797468 59.1139241,3.67088608 59.1139241,4.43037975 L59.1139241,6.83544304 L67.4683544,6.83544304 L67.4683544,17.8481013 L63.9240506,17.8481013 L63.9240506,16.4556962 L59.1139241,16.4556962 L59.1139241,24.8101266 L55.5696203,24.8101266 L55.5696203,16.4556962 L50.8860759,16.4556962 L50.8860759,18.2278481 L47.5949367,18.2278481 L47.5949367,17.9746835 Z M50.8860759,9.36708861 L50.8860759,13.6708861 L55.5696203,13.6708861 L55.5696203,9.36708861 L50.8860759,9.36708861 L50.8860759,9.36708861 Z M63.9240506,13.6708861 L63.9240506,9.36708861 L59.1139241,9.36708861 L59.1139241,13.6708861 L63.9240506,13.6708861 L63.9240506,13.6708861 Z M73.5443038,24.556962 L73.5443038,2.53164557 L93.7974684,2.53164557 L93.7974684,24.3037975 L90.6329114,24.3037975 L90.6329114,23.2911392 L76.7088608,23.2911392 L76.7088608,24.556962 L73.5443038,24.556962 L73.5443038,24.556962 Z M90.5063291,5.18987342 L76.5822785,5.18987342 L76.5822785,20.7594937 L90.5063291,20.7594937 L90.5063291,5.18987342 L90.5063291,5.18987342 Z M77.8481013,11.1392405 L81.7721519,11.1392405 L81.7721519,8.98734177 L77.4683544,8.98734177 L77.4683544,6.58227848 L89.6202532,6.58227848 L89.6202532,8.98734177 L84.9367089,8.98734177 L84.9367089,11.1392405 L89.2405063,11.1392405 L89.2405063,13.5443038 L88.1012658,13.5443038 C88.8607595,14.9367089 89.3670886,15.6962025 89.4936709,15.8227848 L88.1012658,16.835443 L89.8734177,16.835443 L89.8734177,19.3670886 L77.3417722,19.3670886 L77.3417722,16.835443 L81.8987342,16.835443 L81.8987342,13.6708861 L77.9746835,13.6708861 L77.9746835,11.1392405 L77.8481013,11.1392405 Z M85.443038,14.556962 L86.835443,13.5443038 L84.9367089,13.5443038 L84.9367089,16.7088608 L86.835443,16.7088608 C86.4556962,15.9493671 85.9493671,15.1898734 85.443038,14.556962 L85.443038,14.556962 Z M98.8607595,19.2405063 L107.848101,19.2405063 L107.848101,7.21518987 L100.379747,7.21518987 L100.379747,4.17721519 L118.987342,4.17721519 L118.987342,7.21518987 L111.392405,7.21518987 L111.392405,19.2405063 L120.632911,19.2405063 L120.632911,22.1518987 L98.8607595,22.1518987 L98.8607595,19.2405063 L98.8607595,19.2405063 Z M138.227848,3.79746835 L146.835443,3.79746835 L146.835443,6.20253165 L140.886076,6.20253165 C141.64557,6.58227848 142.025316,6.83544304 142.151899,6.83544304 C142.151899,6.96202532 142.025316,7.08860759 141.898734,7.21518987 C141.518987,7.59493671 141.139241,8.10126582 140.759494,8.73417722 L145.063291,8.73417722 L145.063291,22.4050633 C145.063291,23.9240506 143.544304,24.556962 140.379747,24.556962 C140.379747,23.5443038 140,22.6582278 139.493671,21.8987342 C141.265823,21.8987342 142.025316,21.6455696 141.772152,21.0126582 L141.772152,14.6835443 C141.518987,14.9367089 141.139241,15.3164557 140.759494,15.9493671 C140.632911,15.9493671 140.379747,15.5696203 139.873418,15.1898734 L139.873418,21.2658228 L136.835443,21.2658228 L136.835443,20.6329114 L134.177215,20.6329114 L134.177215,21.5189873 L131.64557,21.5189873 L131.64557,15.3164557 L131.012658,15.6962025 C130.632911,15.0632911 130.253165,14.556962 130,14.1772152 L130,24.1772152 L126.962025,24.0506329 L126.962025,8.73417722 L131.64557,8.73417722 C131.518987,8.60759494 131.392405,8.35443038 131.265823,8.10126582 C130.886076,7.59493671 130.759494,7.34177215 130.886076,7.21518987 C131.392405,7.08860759 132.405063,6.70886076 133.924051,6.4556962 C134.050633,6.58227848 134.303797,7.34177215 134.936709,8.73417722 L137.594937,8.73417722 C138.101266,7.84810127 138.481013,7.08860759 138.734177,6.20253165 L125.189873,6.20253165 L125.189873,3.79746835 L134.43038,3.79746835 C134.303797,3.16455696 134.177215,2.78481013 134.050633,2.53164557 C133.924051,2.27848101 133.924051,2.15189873 134.050633,2.15189873 C135.56962,2.02531646 136.835443,1.89873418 137.974684,1.89873418 C137.974684,2.40506329 138.101266,3.03797468 138.227848,3.79746835 L138.227848,3.79746835 Z M133.291139,11.1392405 L130,11.1392405 L130,13.7974684 C131.139241,13.164557 132.278481,12.278481 133.291139,11.1392405 L133.291139,11.1392405 Z M138.101266,11.1392405 L133.797468,11.1392405 L135.443038,12.7848101 C135.316456,12.9113924 135.189873,13.0379747 135.063291,13.164557 C134.43038,13.5443038 133.924051,13.9240506 133.291139,14.3037975 L139.113924,14.3037975 C137.974684,13.5443038 137.21519,13.164557 136.835443,13.0379747 C136.582278,12.9113924 136.455696,12.7848101 136.582278,12.7848101 C136.835443,12.5316456 137.341772,11.8987342 138.101266,11.1392405 L138.101266,11.1392405 Z M141.898734,11.1392405 L138.35443,11.1392405 C139.240506,11.7721519 140.379747,12.4050633 141.898734,13.4177215 L141.898734,11.1392405 L141.898734,11.1392405 Z M134.177215,18.4810127 L137.088608,18.4810127 L137.088608,16.4556962 L134.177215,16.4556962 L134.177215,18.4810127 L134.177215,18.4810127 Z M156.455696,4.6835443 L160.379747,4.6835443 L160.379747,7.21518987 L155.443038,7.21518987 C154.936709,8.35443038 154.683544,8.98734177 154.683544,9.24050633 L160.253165,9.24050633 L160.253165,11.7721519 L157.341772,11.7721519 L157.341772,13.7974684 L160.379747,13.7974684 L160.379747,16.3291139 L157.341772,16.3291139 L157.341772,19.1139241 C157.721519,18.8607595 158.227848,18.6075949 158.734177,18.2278481 C159.493671,17.5949367 159.873418,17.3417722 159.873418,17.3417722 C160.126582,18.1012658 160.253165,18.8607595 160.379747,19.6202532 C157.848101,21.5189873 156.329114,22.7848101 155.696203,23.5443038 C155.189873,24.0506329 154.936709,24.1772152 154.936709,24.1772152 C154.556962,23.7974684 154.050633,22.9113924 153.417722,21.3924051 C153.417722,21.3924051 153.544304,21.1392405 153.797468,20.8860759 C154.303797,20.2531646 154.556962,19.8734177 154.556962,19.4936709 L154.556962,16.2025316 L151.139241,16.2025316 L151.139241,13.6708861 L154.556962,13.6708861 L154.556962,11.6455696 L153.544304,11.6455696 C153.417722,11.7721519 153.291139,12.0253165 153.291139,12.278481 C153.164557,12.5316456 153.037975,12.7848101 153.037975,12.9113924 C152.658228,12.5316456 151.898734,12.1518987 150.886076,11.5189873 C150.759494,11.3924051 150.632911,11.3924051 150.632911,11.2658228 C152.405063,7.72151899 153.417722,5.06329114 153.670886,3.03797468 C153.924051,2.40506329 154.050633,2.02531646 154.050633,1.89873418 C154.683544,2.02531646 155.696203,2.15189873 157.21519,2.53164557 C157.21519,2.65822785 157.21519,2.91139241 156.962025,3.16455696 C156.708861,3.79746835 156.582278,4.17721519 156.455696,4.6835443 L156.455696,4.6835443 Z M161.139241,19.4936709 L161.139241,2.91139241 L171.772152,2.91139241 L171.772152,13.9240506 L170.759494,13.9240506 C171.392405,14.556962 171.898734,15.1898734 172.405063,15.6962025 C172.78481,16.2025316 172.78481,16.5822785 172.278481,16.7088608 C172.151899,16.835443 172.025316,16.835443 172.025316,16.835443 C171.139241,17.4683544 170.506329,17.9746835 169.873418,18.4810127 C170.886076,19.6202532 172.151899,20.5063291 173.544304,21.0126582 C172.78481,21.6455696 172.025316,22.5316456 171.139241,23.7974684 C171.012658,23.7974684 170.886076,23.6708861 170.759494,23.5443038 C168.734177,22.0253165 167.341772,20.6329114 166.708861,19.2405063 C166.708861,19.4936709 166.708861,19.8734177 166.835443,20.2531646 C166.835443,20.7594937 166.835443,21.0126582 166.962025,21.2658228 C164.43038,22.5316456 162.911392,23.4177215 162.405063,23.9240506 C161.898734,24.3037975 161.64557,24.4303797 161.64557,24.4303797 C161.392405,24.1772152 160.886076,23.164557 160.253165,21.2658228 C160.253165,21.2658228 160.379747,21.1392405 160.506329,20.8860759 C160.886076,20.3797468 161.139241,20 161.139241,19.4936709 L161.139241,19.4936709 Z M164.050633,5.56962025 L164.050633,7.34177215 L168.607595,7.34177215 L168.607595,5.56962025 L164.050633,5.56962025 L164.050633,5.56962025 Z M168.607595,11.3924051 L168.607595,9.62025316 L164.050633,9.62025316 L164.050633,11.3924051 L168.607595,11.3924051 L168.607595,11.3924051 Z M164.936709,13.9240506 L164.050633,13.9240506 L164.050633,19.7468354 C165.189873,19.2405063 165.949367,18.8607595 166.329114,18.6075949 C165.443038,16.9620253 164.936709,15.3164557 164.936709,13.9240506 L164.936709,13.9240506 Z M170.253165,13.9240506 L167.594937,13.9240506 L167.594937,14.3037975 C167.848101,15.1898734 168.101266,15.8227848 168.481013,16.2025316 C169.113924,15.5696203 169.746835,14.8101266 170.253165,13.9240506 L170.253165,13.9240506 Z M176.962025,7.97468354 C179.240506,6.20253165 181.139241,4.05063291 182.911392,1.64556962 C183.164557,1.89873418 183.544304,2.02531646 184.050633,2.27848101 C185.443038,2.91139241 186.075949,3.29113924 186.075949,3.29113924 C186.075949,3.41772152 185.822785,3.5443038 185.696203,3.67088608 C185.316456,3.92405063 185.063291,4.17721519 184.810127,4.43037975 C182.78481,6.70886076 180.886076,8.48101266 179.240506,9.87341772 C178.734177,9.49367089 177.974684,8.86075949 176.962025,7.97468354 L176.962025,7.97468354 Z M197.974684,3.29113924 L197.974684,5.82278481 L187.594937,5.82278481 L187.594937,3.29113924 L197.974684,3.29113924 L197.974684,3.29113924 Z M183.417722,12.278481 L183.417722,24.1772152 L180.379747,24.1772152 L180.379747,15.1898734 C179.873418,15.6962025 179.367089,16.3291139 178.734177,16.9620253 L176.582278,15.0632911 C179.113924,13.0379747 181.265823,10.5063291 183.291139,7.46835443 C185.189873,8.48101266 186.075949,8.98734177 186.202532,9.24050633 C186.202532,9.36708861 186.075949,9.36708861 185.949367,9.49367089 C185.189873,10 184.43038,11.0126582 183.417722,12.278481 L183.417722,12.278481 Z M186.075949,9.49367089 L199.493671,9.49367089 L199.493671,12.1518987 L195.822785,12.1518987 L195.822785,22.1518987 C195.949367,23.5443038 194.43038,24.1772152 191.139241,24.3037975 C191.012658,23.0379747 190.632911,22.0253165 190.126582,21.2658228 C191.898734,21.3924051 192.78481,21.1392405 192.658228,20.6329114 L192.658228,12.278481 L186.075949,12.278481 L186.075949,9.49367089 L186.075949,9.49367089 Z" id="Shape" fill="#000000"></path>
                            </g>
                        </g>
                    </g>
                </g>
            </g>
        </g>
    </g>
</svg>