<?xml version="1.0" encoding="UTF-8"?>
<svg width="200px" height="50px" viewBox="0 0 200 50" version="1.1" xmlns="http://www.w3.org/2000/svg" xmlns:xlink="http://www.w3.org/1999/xlink">
    <!-- Generator: Sketch 42 (36781) - http://www.bohemiancoding.com/sketch -->
    <title>svg</title>
    <desc>Created with Sketch.</desc>
    <defs></defs>
    <g id="Page-1" stroke="none" stroke-width="1" fill="none" fill-rule="evenodd">
        <g id="svg" fill-rule="nonzero">
            <g id="5-ABC" transform="translate(0.000000, 3.000000)">
                <g id="Page-1">
                    <g id="Page_1">
                        <g id="图层_1_1_">
                            <g id="中国农业银行">
                                <path d="M19.0849673,0.653594771 L20,0.522875817 L20.9150327,0.522875817 L21.8300654,0.522875817 L22.745098,0.653594771 L22.745098,13.0718954 L22.745098,13.4640523 L22.6143791,13.5947712 L22.4836601,13.7254902 L22.3529412,13.7254902 L22.2222222,13.8562092 L21.9607843,13.9869281 L19.4771242,13.9869281 L19.2156863,13.8562092 L19.0849673,13.7254902 L18.9542484,13.7254902 L18.9542484,13.5947712 L18.8235294,13.4640523 L18.6928105,13.0718954 L18.6928105,0.653594771 L19.0849673,0.653594771 Z M27.8431373,21.1764706 L27.8431373,27.0588235 L27.8431373,27.3202614 L27.7124183,27.4509804 L27.5816993,27.5816993 L27.4509804,27.7124183 L27.4509804,27.7124183 L27.3202614,27.8431373 L26.9281046,27.9738562 L23.2679739,27.9738562 L23.2679739,37.7777778 L24.0522876,37.6470588 L24.8366013,37.5163399 L25.4901961,37.254902 L26.1437908,37.124183 L26.5359477,36.9934641 L26.9281046,36.8627451 L27.5816993,36.6013072 L28.2352941,36.2091503 L28.8888889,35.8169935 L29.5424837,35.4248366 L30.1960784,35.0326797 L30.7189542,34.6405229 L31.372549,34.248366 L32.5490196,33.3333333 L33.0718954,32.8104575 L33.4640523,32.2875817 L33.9869281,31.6339869 L34.379085,31.1111111 L34.7712418,30.4575163 L35.1633987,29.8039216 L35.5555556,29.1503268 L35.9477124,28.496732 L36.3398693,27.8431373 L36.6013072,27.1895425 L36.9934641,25.751634 L37.254902,25.0980392 L37.3856209,24.3137255 L37.5163399,23.6601307 L37.6470588,22.875817 L37.7777778,21.3071895 L37.6470588,20.130719 L37.5163399,19.4771242 L37.5163399,18.8235294 L37.254902,17.6470588 L36.8627451,16.4705882 L36.7320261,15.9477124 L36.6013072,15.4248366 L36.2091503,14.248366 L35.5555556,13.2026144 L35.0326797,12.1568627 L34.379085,11.2418301 L33.5947712,10.3267974 L32.8104575,9.41176471 L31.8954248,8.62745098 L30.9803922,7.97385621 L30.0653595,7.32026144 L29.0196078,6.66666667 L27.9738562,6.14379085 L27.9738562,20.130719 L27.9738562,20.3921569 L27.8431373,20.5228758 L27.7124183,20.6535948 L27.5816993,20.7843137 L27.4509804,20.9150327 L27.3202614,20.9150327 L26.9281046,21.0457516 L22.0915033,21.0457516 L21.8300654,21.0457516 L21.6993464,21.1764706 L21.5686275,21.3071895 L21.5686275,15.2941176 L21.6993464,15.1633987 L21.8300654,15.0326797 L21.9607843,14.9019608 L22.0915033,14.9019608 L24.3137255,14.9019608 L24.7058824,14.7712418 L24.9673203,14.6405229 L25.0980392,14.5098039 L25.2287582,14.248366 L25.2287582,5.22875817 L25.2287582,1.83006536 L25.2287582,0.91503268 L26.9281046,1.4379085 L27.8431373,1.69934641 L28.627451,1.96078431 L29.5424837,2.35294118 L30.3267974,2.74509804 L31.1111111,3.1372549 L31.7647059,3.52941176 L32.5490196,4.05228758 L33.2026144,4.44444444 L33.8562092,4.96732026 L34.5098039,5.62091503 L35.1633987,6.2745098 L35.8169935,6.92810458 L36.9934641,8.10457516 L37.5163399,8.75816993 L38.0392157,9.41176471 L38.4313725,10.1960784 L38.8235294,10.8496732 L39.7385621,12.4183007 L40.130719,13.2026144 L40.3921569,14.1176471 L40.9150327,15.8169935 L41.1764706,16.7320261 L41.3071895,17.6470588 L41.4379085,18.5620915 L41.5686275,19.4771242 L41.5686275,20.3921569 L41.5686275,21.3071895 L41.5686275,22.3529412 L41.4379085,23.3986928 L41.3071895,24.4444444 L41.1764706,25.4901961 L40.9150327,26.4052288 L40.6535948,27.4509804 L40.2614379,28.3660131 L39.869281,29.2810458 L39.4771242,30.1960784 L39.0849673,31.1111111 L38.5620915,32.0261438 L38.0392157,32.9411765 L37.3856209,33.7254902 L36.7320261,34.5098039 L36.0784314,35.2941176 L35.4248366,35.9477124 L34.7712418,36.6013072 L33.9869281,37.254902 L33.2026144,37.9084967 L32.4183007,38.5620915 L31.503268,39.0849673 L30.5882353,39.6078431 L29.6732026,40 L28.7581699,40.3921569 L27.8431373,40.7843137 L26.7973856,41.1764706 L25.8823529,41.4379085 L24.9673203,41.6993464 L23.9215686,41.8300654 L22.875817,41.9607843 L21.8300654,42.0915033 L20.7843137,42.2222222 L19.7385621,42.0915033 L18.6928105,41.9607843 L17.6470588,41.8300654 L16.6013072,41.6993464 L15.5555556,41.4379085 L14.6405229,41.1764706 L13.7254902,40.7843137 L12.8104575,40.3921569 L11.8954248,40 L10.9803922,39.6078431 L10.0653595,39.0849673 L9.1503268,38.5620915 L8.36601307,37.9084967 L7.58169935,37.254902 L6.79738562,36.6013072 L6.14379085,35.9477124 L5.49019608,35.2941176 L4.83660131,34.5098039 L4.18300654,33.7254902 L3.66013072,32.9411765 L3.1372549,32.0261438 L2.61437908,31.1111111 L2.22222222,30.1960784 L1.83006536,29.2810458 L1.4379085,28.3660131 L1.30718954,27.4509804 L1.04575163,26.4052288 L0.784313725,25.4901961 L0.653594771,24.4444444 L0.522875817,23.3986928 L0.392156863,22.3529412 L0.392156863,21.3071895 L0.392156863,20.3921569 L0.522875817,19.4771242 L0.653594771,18.5620915 L0.784313725,17.6470588 L0.91503268,16.7320261 L1.04575163,15.8169935 L1.56862745,14.1176471 L1.96078431,13.2026144 L2.35294118,12.4183007 L2.74509804,11.6339869 L3.1372549,10.8496732 L3.52941176,10.1960784 L4.05228758,9.41176471 L4.5751634,8.75816993 L5.09803922,8.10457516 L5.62091503,7.45098039 L6.2745098,6.79738562 L6.92810458,6.14379085 L7.58169935,5.49019608 L9.01960784,4.44444444 L9.67320261,3.92156863 L10.3267974,3.39869281 L11.1111111,3.00653595 L11.8954248,2.61437908 L12.6797386,2.22222222 L13.4640523,1.83006536 L14.248366,1.56862745 L15.1633987,1.30718954 L16.0784314,1.04575163 L16.9934641,0.784313725 L16.9934641,5.09803922 L16.9934641,14.1176471 L17.124183,14.248366 L17.254902,14.379085 L17.5163399,14.5098039 L17.7777778,14.6405229 L18.0392157,14.7712418 L20.2614379,14.7712418 L20.3921569,14.7712418 L20.5228758,14.9019608 L20.6535948,15.0326797 L20.6535948,15.1633987 L20.6535948,21.1764706 L20.5228758,21.0457516 L20.3921569,21.0457516 L15.4248366,21.0457516 L15.0326797,20.9150327 L14.9019608,20.9150327 L14.7712418,20.7843137 L14.6405229,20.6535948 L14.5098039,20.5228758 L14.5098039,20.3921569 L14.379085,20.130719 L14.379085,6.14379085 L13.3333333,6.66666667 L12.4183007,7.32026144 L11.503268,7.97385621 L10.5882353,8.62745098 L9.67320261,9.41176471 L8.88888889,10.3267974 L8.23529412,11.2418301 L7.58169935,12.1568627 L6.92810458,13.0718954 L6.40522876,14.1176471 L6.14379085,14.6405229 L6.0130719,15.2941176 L5.62091503,16.4705882 L5.35947712,17.6470588 L5.09803922,18.8235294 L4.96732026,19.4771242 L4.96732026,20.130719 L4.83660131,21.3071895 L4.83660131,22.0915033 L4.96732026,22.875817 L5.09803922,23.5294118 L5.22875817,24.3137255 L5.35947712,25.0980392 L5.49019608,25.751634 L5.75163399,26.4052288 L5.88235294,26.7973856 L6.0130719,27.1895425 L6.2745098,27.8431373 L6.53594771,28.496732 L7.18954248,29.8039216 L8.10457516,30.9803922 L8.49673203,31.6339869 L8.88888889,32.2875817 L9.41176471,32.8104575 L9.93464052,33.3333333 L10.9803922,34.248366 L11.6339869,34.6405229 L12.2875817,35.0326797 L13.4640523,35.6862745 L14.1176471,36.0784314 L14.7712418,36.4705882 L15.4248366,36.7320261 L16.0784314,36.9934641 L16.8627451,37.124183 L17.5163399,37.3856209 L18.1699346,37.5163399 L18.9542484,37.6470588 L18.9542484,27.8431373 L15.2941176,27.8431373 L14.9019608,27.7124183 L14.7712418,27.5816993 L14.379085,27.5816993 L14.248366,27.4509804 L14.1176471,27.3202614 L14.1176471,27.1895425 L13.9869281,26.9281046 L13.9869281,21.0457516 L14.1176471,21.1764706 L14.248366,21.3071895 L14.5098039,21.4379085 L14.7712418,21.5686275 L15.0326797,21.6993464 L19.869281,21.6993464 L20,21.6993464 L20.130719,21.8300654 L20.2614379,21.9607843 L20.2614379,22.0915033 L20.2614379,27.8431373 L21.5686275,27.8431373 L21.5686275,22.0915033 L21.6993464,21.9607843 L21.8300654,21.8300654 L21.9607843,21.6993464 L22.0915033,21.6993464 L26.9281046,21.6993464 L27.1895425,21.5686275 L27.4509804,21.4379085 L27.7124183,21.3071895 L27.8431373,21.1764706 L27.8431373,21.1764706 Z" id="Shape" fill="#067E68"></path>
                                <path d="M60,2.74509804 L59.869281,2.61437908 L59.7385621,2.48366013 L59.4771242,2.35294118 L59.2156863,2.22222222 L58.4313725,1.96078431 L57.254902,1.69934641 L56.9934641,1.83006536 L56.7320261,1.96078431 L56.6013072,2.09150327 L56.4705882,2.22222222 L56.3398693,2.74509804 L56.3398693,3.39869281 L56.3398693,3.79084967 L56.4705882,4.31372549 L56.4705882,6.14379085 L56.3398693,6.66666667 L56.3398693,6.92810458 L56.2091503,7.05882353 L55.5555556,7.32026144 L54.6405229,7.7124183 L51.372549,8.49673203 L50.5882353,8.62745098 L50.3267974,8.62745098 L50.0653595,8.75816993 L49.8039216,8.88888889 L49.6732026,9.01960784 L49.5424837,9.1503268 L49.4117647,9.28104575 L49.2810458,9.41176471 L49.2810458,9.67320261 L49.2810458,9.93464052 L49.4117647,10.1960784 L49.5424837,10.4575163 L49.6732026,10.8496732 L50.0653595,11.6339869 L50.4575163,12.4183007 L50.5882353,12.8104575 L50.8496732,13.0718954 L51.372549,13.8562092 L52.0261438,14.6405229 L52.1568627,14.9019608 L52.9411765,16.2091503 L53.0718954,16.3398693 L53.3333333,16.3398693 L54.1176471,15.9477124 L54.9019608,15.6862745 L55.1633987,15.5555556 L55.5555556,15.4248366 L56.2091503,15.2941176 L56.4705882,15.4248366 L56.6013072,15.5555556 L56.7320261,15.8169935 L56.8627451,16.4705882 L56.9934641,17.5163399 L56.9934641,18.9542484 L57.254902,20.130719 L57.254902,20 L57.124183,21.5686275 L57.124183,23.6601307 L56.9934641,24.0522876 L56.8627451,24.4444444 L56.6013072,24.7058824 L56.4705882,24.9673203 L56.6013072,25.0980392 L56.7320261,25.2287582 L57.124183,25.3594771 L57.3856209,25.3594771 L57.6470588,25.3594771 L57.9084967,25.2287582 L58.6928105,25.0980392 L58.8235294,25.0980392 L58.9542484,24.9673203 L59.0849673,24.8366013 L59.0849673,24.7058824 L58.8235294,23.5294118 L58.8235294,23.2679739 L58.6928105,23.0065359 L58.5620915,21.5686275 L58.5620915,19.6078431 L58.5620915,20 L58.5620915,19.869281 L58.6928105,18.4313725 L58.9542484,15.5555556 L59.0849673,15.0326797 L59.2156863,14.7712418 L59.3464052,14.6405229 L59.6078431,14.5098039 L59.869281,14.5098039 L60.6535948,14.379085 L61.6993464,14.248366 L62.875817,14.248366 L64.1830065,14.1176471 L64.3137255,13.9869281 L64.4444444,13.7254902 L64.5751634,13.4640523 L64.7058824,12.9411765 L64.7058824,13.0718954 L64.8366013,12.8104575 L65.0980392,12.2875817 L65.620915,11.6339869 L66.2745098,10.8496732 L66.4052288,10.5882353 L66.5359477,10.3267974 L66.7973856,9.93464052 L67.0588235,9.67320261 L67.1895425,9.54248366 L67.3202614,9.41176471 L67.5816993,9.28104575 L67.8431373,9.1503268 L67.9738562,8.88888889 L68.1045752,8.62745098 L67.9738562,8.49673203 L67.9738562,8.36601307 L67.7124183,8.10457516 L67.3202614,7.7124183 L67.0588235,7.58169935 L66.7973856,7.45098039 L66.5359477,7.32026144 L66.2745098,7.05882353 L65.8823529,6.92810458 L65.2287582,6.66666667 L64.5751634,6.40522876 L64.0522876,6.2745098 L63.5294118,6.14379085 L63.3986928,6.2745098 L62.4836601,6.2745098 L61.5686275,6.40522876 L59.7385621,6.66666667 L59.4771242,6.40522876 L59.3464052,6.0130719 L59.3464052,5.49019608 L59.3464052,4.96732026 L59.4771242,4.31372549 L59.4771242,4.05228758 L59.6078431,3.79084967 L59.7385621,3.66013072 L60,3.39869281 L60.2614379,3.1372549 L60,2.74509804 L60,2.74509804 L60,2.74509804 Z M56.7320261,12.9411765 L56.4705882,13.0718954 L55.8169935,13.2026144 L53.8562092,13.7254902 L53.7254902,13.4640523 L53.5947712,13.2026144 L53.5947712,13.0718954 L53.4640523,12.8104575 L53.3333333,12.5490196 L53.2026144,11.8954248 L53.0718954,11.503268 L53.0718954,10.9803922 L53.0718954,10.4575163 L53.2026144,10.0653595 L53.3333333,9.93464052 L53.5947712,9.80392157 L54.9019608,9.28104575 L55.4248366,9.01960784 L56.0784314,8.75816993 L56.4705882,8.88888889 L56.6013072,9.41176471 L56.7320261,10.1960784 L56.7320261,11.2418301 L56.7320261,12.9411765 L56.7320261,12.9411765 Z M59.2156863,10.7189542 L59.2156863,9.1503268 L59.3464052,8.62745098 L59.3464052,8.49673203 L59.4771242,8.36601307 L59.6078431,8.23529412 L59.869281,8.10457516 L60.3921569,7.97385621 L61.0457516,7.84313725 L62.2222222,7.84313725 L62.6143791,7.84313725 L62.875817,7.97385621 L63.1372549,8.10457516 L63.2679739,8.23529412 L63.3986928,8.36601307 L63.5294118,8.49673203 L63.6601307,8.75816993 L63.6601307,9.28104575 L63.5294118,9.80392157 L63.3986928,10.5882353 L63.2679739,10.8496732 L63.1372549,11.1111111 L62.875817,11.372549 L62.745098,11.6339869 L62.4836601,11.7647059 L62.2222222,11.8954248 L61.6993464,12.0261438 L61.0457516,12.1568627 L60.3921569,12.2875817 L59.7385621,12.4183007 L59.4771242,12.5490196 L59.3464052,12.4183007 L59.3464052,12.2875817 L59.3464052,12.0261438 L59.2156863,11.503268 L59.2156863,10.7189542 L59.2156863,10.7189542 Z M77.5163399,5.75163399 L77.254902,5.88235294 L76.9934641,6.0130719 L76.7320261,6.14379085 L76.6013072,6.2745098 L76.4705882,6.53594771 L76.3398693,7.05882353 L76.2091503,7.7124183 L76.0784314,8.49673203 L75.9477124,10.5882353 L75.8169935,13.4640523 L75.9477124,15.0326797 L75.8169935,16.6013072 L75.9477124,19.2156863 L76.0784314,20 L76.2091503,20.6535948 L76.3398693,20.9150327 L76.4705882,21.1764706 L76.6013072,21.3071895 L76.7320261,21.4379085 L76.8627451,21.5686275 L76.9934641,21.6993464 L77.124183,21.5686275 L77.254902,21.4379085 L77.6470588,21.0457516 L77.9084967,20.9150327 L78.3006536,20.6535948 L78.4313725,20.6535948 L78.5620915,20.5228758 L78.8235294,20.3921569 L79.0849673,20.2614379 L79.6078431,20.2614379 L80.130719,20.130719 L80.2614379,20 L81.9607843,19.7385621 L82.745098,19.6078431 L83.2679739,19.4771242 L83.7908497,19.3464052 L84.8366013,19.2156863 L85.620915,19.0849673 L86.4052288,19.2156863 L87.0588235,19.3464052 L87.5816993,19.3464052 L87.8431373,19.3464052 L87.9738562,19.2156863 L88.1045752,19.0849673 L88.2352941,18.9542484 L88.2352941,18.8235294 L88.2352941,18.3006536 L88.2352941,18.0392157 L88.1045752,17.9084967 L87.9738562,17.5163399 L87.8431373,17.254902 L87.7124183,17.124183 L87.5816993,16.9934641 L87.3202614,16.8627451 L87.0588235,16.8627451 L86.2745098,16.8627451 L85.2287582,16.8627451 L84.0522876,16.9934641 L83.3986928,17.124183 L82.745098,17.254902 L81.3071895,17.5163399 L79.869281,17.9084967 L78.6928105,18.1699346 L78.1699346,18.3006536 L78.0392157,18.3006536 L77.7777778,18.1699346 L77.6470588,18.0392157 L77.5163399,17.7777778 L77.3856209,17.6470588 L77.3856209,17.5163399 L77.254902,17.3856209 L77.254902,17.124183 L77.124183,16.7320261 L77.254902,14.1176471 L77.3856209,13.3333333 L77.3856209,13.0718954 L77.5163399,12.9411765 L77.6470588,12.6797386 L77.9084967,10.4575163 L78.1699346,8.88888889 L78.3006536,8.23529412 L78.4313725,7.7124183 L78.5620915,7.32026144 L78.6928105,7.18954248 L78.8235294,7.05882353 L79.2156863,6.79738562 L79.7385621,6.53594771 L80.3921569,6.0130719 L81.0457516,5.75163399 L81.4379085,5.62091503 L81.8300654,5.49019608 L82.6143791,5.22875817 L82.745098,5.09803922 L83.0065359,4.96732026 L83.7908497,4.83660131 L84.7058824,4.70588235 L86.4052288,4.5751634 L86.6666667,4.5751634 L86.7973856,4.70588235 L87.0588235,4.83660131 L87.1895425,4.96732026 L87.5816993,5.22875817 L87.8431373,5.49019608 L87.9738562,5.75163399 L88.1045752,6.0130719 L88.2352941,6.2745098 L88.3660131,6.53594771 L88.496732,6.79738562 L88.627451,7.45098039 L88.7581699,7.84313725 L88.7581699,8.10457516 L88.8888889,8.23529412 L88.8888889,8.88888889 L89.0196078,9.54248366 L89.4117647,16.0784314 L89.5424837,18.5620915 L89.6732026,19.6078431 L89.5424837,19.869281 L89.4117647,20 L89.2810458,20.130719 L88.8888889,20.2614379 L88.3660131,20.2614379 L87.7124183,20.130719 L87.1895425,20 L87.0588235,19.869281 L86.9281046,19.7385621 L86.5359477,19.4771242 L86.2745098,19.3464052 L86.1437908,19.4771242 L86.0130719,19.6078431 L86.0130719,19.7385621 L86.1437908,19.869281 L86.2745098,20.130719 L86.4052288,20.2614379 L86.6666667,20.5228758 L87.1895425,21.0457516 L87.9738562,21.5686275 L88.7581699,22.0915033 L89.5424837,22.6143791 L90.0653595,22.875817 L90.5882353,23.1372549 L91.1111111,23.2679739 L91.6339869,23.3986928 L91.8954248,23.2679739 L92.1568627,23.1372549 L92.2875817,23.0065359 L92.2875817,22.875817 L92.4183007,22.6143791 L92.2875817,22.3529412 L92.1568627,21.3071895 L92.0261438,20.9150327 L91.8954248,20.3921569 L91.7647059,19.869281 L91.6339869,14.7712418 L91.503268,8.88888889 L91.372549,8.75816993 L91.372549,8.62745098 L91.2418301,8.10457516 L91.1111111,7.32026144 L91.1111111,6.2745098 L91.1111111,6.0130719 L91.2418301,5.88235294 L91.372549,5.35947712 L91.503268,5.22875817 L91.6339869,5.09803922 L91.7647059,4.70588235 L91.7647059,4.44444444 L91.7647059,4.31372549 L91.6339869,4.18300654 L90.1960784,3.52941176 L89.5424837,3.39869281 L89.0196078,3.26797386 L88.496732,3.1372549 L87.4509804,3.00653595 L86.2745098,3.00653595 L85.620915,3.1372549 L84.9673203,3.26797386 L84.3137255,3.39869281 L83.6601307,3.52941176 L82.0915033,3.79084967 L81.4379085,3.92156863 L80.9150327,4.05228758 L80.3921569,4.18300654 L80,4.31372549 L79.6078431,4.44444444 L79.0849673,4.70588235 L78.5620915,4.96732026 L77.5163399,5.75163399 L77.5163399,5.75163399 Z M80.3921569,12.9411765 L80.6535948,12.8104575 L80.9150327,12.6797386 L81.8300654,12.4183007 L81.9607843,12.4183007 L82.0915033,12.5490196 L82.2222222,12.6797386 L82.3529412,12.8104575 L82.2222222,13.3333333 L82.0915033,13.5947712 L82.0915033,13.8562092 L81.8300654,14.1176471 L81.5686275,14.379085 L80.7843137,14.6405229 L80.130719,14.9019608 L79.6078431,15.0326797 L79.0849673,15.1633987 L78.8235294,15.1633987 L78.6928105,15.2941176 L78.5620915,15.4248366 L78.4313725,15.5555556 L78.4313725,15.6862745 L78.4313725,15.9477124 L78.6928105,16.7320261 L78.6928105,16.8627451 L78.8235294,16.9934641 L78.9542484,17.124183 L79.0849673,17.124183 L79.2156863,17.124183 L79.4771242,16.9934641 L79.7385621,16.8627451 L81.4379085,16.6013072 L86.1437908,15.8169935 L88.2352941,15.8169935 L88.627451,15.6862745 L88.7581699,15.5555556 L88.8888889,15.4248366 L89.0196078,15.1633987 L89.1503268,14.9019608 L89.1503268,14.379085 L89.1503268,14.1176471 L89.0196078,13.9869281 L88.8888889,13.8562092 L88.627451,13.7254902 L88.3660131,13.7254902 L88.1045752,13.5947712 L87.9738562,13.4640523 L86.9281046,11.6339869 L86.9281046,11.503268 L87.0588235,11.372549 L87.1895425,11.1111111 L87.4509804,10.8496732 L87.5816993,10.0653595 L87.4509804,9.93464052 L87.3202614,9.80392157 L87.0588235,9.67320261 L86.7973856,9.67320261 L85.2287582,9.80392157 L84.7058824,9.80392157 L84.9673203,9.80392157 L84.8366013,9.1503268 L84.9673203,8.88888889 L84.9673203,8.75816993 L85.0980392,8.75816993 L86.1437908,8.36601307 L86.2745098,8.23529412 L86.4052288,8.23529412 L86.5359477,8.10457516 L86.7973856,7.97385621 L87.1895425,7.84313725 L87.3202614,7.7124183 L87.4509804,7.58169935 L87.4509804,7.84313725 L87.5816993,7.7124183 L87.7124183,7.84313725 L87.7124183,7.18954248 L87.7124183,7.32026144 L87.8431373,6.79738562 L87.7124183,6.66666667 L87.4509804,6.53594771 L87.3202614,6.40522876 L87.0588235,6.40522876 L86.2745098,6.40522876 L86.0130719,6.40522876 L85.751634,6.53594771 L85.4901961,6.53594771 L85.0980392,6.66666667 L84.5751634,6.79738562 L84.0522876,6.92810458 L83.3986928,7.18954248 L82.4836601,7.45098039 L81.4379085,7.84313725 L80.7843137,7.97385621 L80.3921569,8.10457516 L80.130719,8.23529412 L80,8.36601307 L80,8.62745098 L80,8.88888889 L80,9.1503268 L80.130719,9.41176471 L80,9.67320261 L80.5228758,10.0653595 L81.1764706,9.93464052 L81.6993464,9.93464052 L82.0915033,9.93464052 L82.3529412,10.0653595 L82.4836601,10.1960784 L82.6143791,10.3267974 L82.6143791,10.4575163 L82.745098,10.5882353 L82.6143791,10.9803922 L82.4836601,11.1111111 L82.4836601,11.2418301 L81.6993464,11.372549 L80.9150327,11.6339869 L80.130719,11.7647059 L79.7385621,11.7647059 L79.6078431,11.8954248 L79.4771242,11.8954248 L79.3464052,12.0261438 L79.2156863,12.1568627 L79.2156863,12.2875817 L79.0849673,12.8104575 L79.0849673,12.9411765 L79.2156863,12.9411765 L79.3464052,13.2026144 L79.3464052,13.4640523 L79.4771242,13.5947712 L79.6078431,13.7254902 L79.7385621,13.8562092 L80,13.9869281 L80.3921569,13.9869281 L80.3921569,12.9411765 Z M85.0980392,12.1568627 L85.2287582,12.1568627 L85.4901961,12.2875817 L85.620915,12.5490196 L85.751634,12.8104575 L85.751634,13.0718954 L85.8823529,13.3333333 L86.0130719,13.4640523 L86.1437908,13.5947712 L86.1437908,13.7254902 L86.0130719,13.8562092 L85.751634,13.8562092 L85.4901961,13.8562092 L85.0980392,13.9869281 L84.9673203,13.9869281 L84.8366013,13.8562092 L84.7058824,13.7254902 L84.5751634,13.5947712 L84.4444444,13.3333333 L84.3137255,12.9411765 L84.3137255,12.8104575 L84.4444444,12.6797386 L84.4444444,12.5490196 L84.5751634,12.4183007 L84.8366013,12.2875817 L84.9673203,12.2875817 L85.0980392,12.2875817 L85.0980392,12.1568627 Z M99.3464052,20.5228758 L99.7385621,20.6535948 L100.130719,20.5228758 L100.653595,20.3921569 L101.176471,20.2614379 L102.222222,19.7385621 L102.745098,19.4771242 L103.398693,19.2156863 L103.529412,19.0849673 L103.79085,18.9542484 L104.313725,18.6928105 L104.444444,18.5620915 L104.575163,18.3006536 L104.836601,17.5163399 L105.490196,16.4705882 L106.013072,15.8169935 L106.405229,15.4248366 L106.535948,15.2941176 L106.666667,15.1633987 L106.797386,15.1633987 L106.797386,15.4248366 L106.797386,15.9477124 L106.797386,16.6013072 L106.666667,17.3856209 L106.535948,18.1699346 L106.535948,19.0849673 L106.535948,19.869281 L106.666667,20.5228758 L106.797386,21.1764706 L106.928105,21.8300654 L107.058824,22.3529412 L107.320261,22.875817 L107.45098,23.1372549 L107.581699,23.3986928 L107.712418,23.5294118 L107.843137,23.6601307 L107.973856,23.6601307 L108.104575,23.6601307 L108.366013,23.3986928 L108.75817,23.1372549 L109.150327,22.875817 L109.542484,22.6143791 L109.673203,22.4836601 L109.803922,22.2222222 L110.588235,21.5686275 L111.633987,20.3921569 L112.026144,19.869281 L112.287582,19.3464052 L112.287582,19.2156863 L112.418301,19.0849673 L112.54902,18.8235294 L112.679739,18.3006536 L113.333333,16.8627451 L113.856209,16.9934641 L114.248366,17.124183 L114.640523,17.3856209 L114.901961,17.6470588 L115.294118,17.9084967 L115.555556,18.3006536 L115.816993,18.6928105 L116.078431,19.2156863 L116.20915,19.3464052 L116.339869,19.4771242 L116.470588,19.6078431 L116.732026,19.7385621 L117.254902,19.869281 L117.647059,20 L118.039216,20 L118.954248,20 L119.869281,19.869281 L120.653595,19.7385621 L121.30719,19.6078431 L121.960784,19.4771242 L122.614379,19.3464052 L123.137255,19.0849673 L123.529412,18.9542484 L123.529412,18.8235294 L123.660131,18.6928105 L123.529412,18.4313725 L123.267974,18.3006536 L123.006536,18.0392157 L122.48366,17.9084967 L121.960784,17.7777778 L121.30719,17.6470588 L119.869281,17.3856209 L118.300654,17.124183 L117.777778,17.124183 L117.124183,16.8627451 L116.339869,16.6013072 L114.771242,15.9477124 L113.594771,15.2941176 L113.071895,15.0326797 L112.810458,14.7712418 L112.54902,14.5098039 L112.418301,14.248366 L112.54902,14.1176471 L112.679739,13.9869281 L113.464052,13.7254902 L113.986928,13.4640523 L114.509804,13.0718954 L114.640523,12.9411765 L114.771242,12.8104575 L115.294118,12.2875817 L115.555556,12.1568627 L115.947712,11.8954248 L116.078431,11.7647059 L116.339869,11.6339869 L117.124183,11.1111111 L117.385621,10.9803922 L117.385621,10.8496732 L117.51634,10.7189542 L117.385621,10.5882353 L117.254902,10.3267974 L117.124183,10.1960784 L116.993464,9.93464052 L116.732026,9.80392157 L116.601307,9.67320261 L116.339869,9.54248366 L116.078431,9.54248366 L115.816993,9.67320261 L115.555556,9.93464052 L115.163399,10.1960784 L114.640523,10.7189542 L113.986928,11.372549 L113.72549,11.6339869 L113.594771,11.7647059 L113.464052,11.8954248 L112.418301,12.4183007 L110.980392,13.2026144 L110.326797,12.9411765 L109.673203,12.4183007 L109.281046,12.0261438 L109.019608,11.7647059 L108.888889,11.503268 L108.75817,11.372549 L108.888889,11.2418301 L109.019608,10.9803922 L109.542484,10.0653595 L109.673203,9.67320261 L109.803922,9.41176471 L109.934641,9.1503268 L110.457516,7.97385621 L110.588235,7.58169935 L110.718954,7.18954248 L110.849673,6.92810458 L110.980392,6.79738562 L111.111111,6.66666667 L112.287582,6.14379085 L112.54902,6.0130719 L112.810458,5.88235294 L113.202614,6.0130719 L113.333333,6.14379085 L113.464052,6.2745098 L113.594771,6.40522876 L113.72549,6.53594771 L113.856209,6.66666667 L113.856209,6.79738562 L113.986928,7.05882353 L113.856209,7.18954248 L113.856209,7.45098039 L113.72549,7.58169935 L113.594771,7.84313725 L113.202614,8.36601307 L112.54902,8.88888889 L111.895425,9.41176471 L111.24183,9.93464052 L111.111111,10.0653595 L110.980392,10.1960784 L111.111111,10.3267974 L111.633987,10.3267974 L112.287582,10.1960784 L112.54902,10.0653595 L112.810458,10.0653595 L113.333333,9.93464052 L113.856209,9.67320261 L114.379085,9.41176471 L114.901961,9.1503268 L115.424837,8.75816993 L115.555556,8.62745098 L115.816993,8.36601307 L116.339869,8.10457516 L116.993464,7.7124183 L117.254902,7.58169935 L117.51634,7.32026144 L117.51634,7.05882353 L116.078431,6.14379085 L115.555556,5.62091503 L115.294118,5.49019608 L115.03268,5.35947712 L114.509804,5.22875817 L113.986928,5.09803922 L113.464052,4.96732026 L112.941176,4.83660131 L112.287582,4.96732026 L110.849673,5.22875817 L110.718954,5.22875817 L110.718954,5.09803922 L110.588235,4.70588235 L110.588235,4.31372549 L110.588235,3.79084967 L110.718954,3.1372549 L110.718954,2.74509804 L110.849673,2.48366013 L110.980392,2.35294118 L110.980392,1.96078431 L111.111111,1.56862745 L111.372549,0.91503268 L111.24183,0.784313725 L110.980392,0.653594771 L110.718954,0.522875817 L110.457516,0.522875817 L110.065359,0.392156863 L109.673203,0.653594771 L109.411765,0.784313725 L109.281046,0.91503268 L109.150327,1.96078431 L109.019608,2.48366013 L108.888889,3.00653595 L108.75817,4.05228758 L108.627451,5.09803922 L108.627451,6.14379085 L108.496732,6.2745098 L108.235294,6.40522876 L107.058824,6.92810458 L106.928105,7.05882353 L106.928105,7.58169935 L106.928105,8.10457516 L107.058824,8.23529412 L107.058824,8.36601307 L107.189542,8.49673203 L107.320261,8.62745098 L107.581699,8.75816993 L107.712418,8.75816993 L107.973856,8.62745098 L108.104575,8.62745098 L107.058824,11.6339869 L106.928105,11.7647059 L106.405229,12.5490196 L105.359477,14.1176471 L104.836601,14.6405229 L104.444444,15.1633987 L103.137255,16.7320261 L102.48366,17.3856209 L102.222222,17.6470588 L101.960784,18.0392157 L101.699346,18.3006536 L101.045752,18.6928105 L100.522876,19.2156863 L100,19.7385621 L99.7385621,20.2614379 L99.6078431,20.2614379 L99.6078431,20.3921569 L99.3464052,20.5228758 L99.3464052,20.5228758 L99.3464052,20.5228758 Z M107.581699,19.0849673 L107.843137,17.6470588 L107.973856,16.8627451 L107.973856,16.2091503 L108.104575,15.6862745 L108.235294,15.1633987 L108.235294,14.9019608 L108.366013,14.7712418 L108.496732,14.7712418 L109.281046,15.0326797 L109.803922,15.1633987 L109.934641,15.2941176 L110.196078,15.4248366 L110.718954,15.6862745 L111.24183,16.0784314 L111.764706,16.6013072 L112.287582,16.9934641 L112.418301,17.124183 L112.287582,17.254902 L112.156863,17.5163399 L112.026144,17.6470588 L111.764706,17.9084967 L110.980392,18.8235294 L110.849673,18.9542484 L109.803922,19.6078431 L109.019608,20.130719 L108.627451,20.3921569 L108.366013,20.5228758 L108.104575,20.6535948 L107.973856,20.6535948 L107.712418,20.6535948 L107.581699,20.6535948 L107.45098,20.5228758 L107.320261,20.3921569 L107.320261,20.2614379 L107.189542,19.869281 L107.320261,19.6078431 L107.320261,19.3464052 L107.45098,19.2156863 L107.581699,19.0849673 L107.581699,19.0849673 Z M102.222222,11.1111111 L102.352941,11.2418301 L102.48366,11.372549 L102.745098,11.503268 L102.875817,11.6339869 L103.529412,11.7647059 L104.183007,11.8954248 L104.96732,12.0261438 L105.490196,12.1568627 L105.620915,12.1568627 L105.751634,12.0261438 L105.882353,11.8954248 L106.013072,11.7647059 L105.882353,10.9803922 L105.882353,10.4575163 L105.751634,9.93464052 L105.751634,9.41176471 L105.882353,9.1503268 L105.882353,8.88888889 L106.013072,8.49673203 L106.013072,8.36601307 L106.143791,8.23529412 L106.013072,7.97385621 L105.751634,7.84313725 L105.359477,7.84313725 L105.228758,7.97385621 L104.96732,8.23529412 L103.921569,9.28104575 L102.614379,10.9803922 L102.614379,11.1111111 L102.222222,11.1111111 Z M132.941176,13.7254902 L133.333333,16.2091503 L133.333333,16.7320261 L133.202614,16.9934641 L133.071895,17.254902 L132.941176,17.5163399 L132.679739,17.6470588 L132.287582,17.9084967 L131.764706,18.0392157 L131.111111,18.3006536 L130.588235,18.4313725 L129.411765,18.6928105 L128.627451,18.9542484 L128.366013,18.9542484 L127.712418,19.2156863 L126.666667,19.4771242 L126.143791,19.6078431 L125.620915,19.6078431 L125.490196,19.7385621 L125.490196,19.7385621 L125.359477,19.869281 L125.359477,20 L125.359477,20.2614379 L125.490196,20.6535948 L126.013072,21.6993464 L126.013072,21.8300654 L126.143791,21.9607843 L126.405229,21.9607843 L126.666667,21.8300654 L127.189542,21.5686275 L127.712418,21.3071895 L128.366013,21.0457516 L129.019608,20.7843137 L129.673203,20.5228758 L130.457516,20.3921569 L131.503268,20.130719 L132.54902,20 L133.594771,19.869281 L135.294118,19.6078431 L136.339869,19.3464052 L136.993464,19.2156863 L137.647059,19.0849673 L138.562092,18.9542484 L139.607843,18.9542484 L140.653595,18.8235294 L141.699346,18.6928105 L142.614379,18.6928105 L143.529412,18.8235294 L143.79085,18.9542484 L144.575163,19.2156863 L145.751634,19.4771242 L146.27451,19.6078431 L147.189542,19.869281 L147.320261,19.869281 L147.45098,19.7385621 L147.581699,19.6078431 L147.581699,19.4771242 L147.712418,19.2156863 L147.581699,18.5620915 L147.45098,18.1699346 L147.320261,17.6470588 L147.058824,16.4705882 L146.928105,16.3398693 L146.797386,16.0784314 L146.535948,15.8169935 L146.405229,15.6862745 L146.143791,15.5555556 L146.013072,15.4248366 L145.751634,15.5555556 L145.228758,15.6862745 L144.96732,15.8169935 L144.705882,15.9477124 L144.444444,15.9477124 L144.183007,15.9477124 L143.921569,16.0784314 L143.79085,16.2091503 L141.568627,16.3398693 L140.915033,16.4705882 L140.653595,16.6013072 L138.954248,16.6013072 L138.823529,16.4705882 L138.954248,15.4248366 L138.954248,15.1633987 L138.954248,15.0326797 L139.084967,14.9019608 L139.215686,14.7712418 L139.477124,14.6405229 L139.738562,14.5098039 L140.261438,13.9869281 L141.045752,13.3333333 L142.091503,12.4183007 L143.267974,11.2418301 L143.398693,11.1111111 L143.660131,10.9803922 L143.79085,10.8496732 L144.313725,10.5882353 L144.575163,10.3267974 L144.836601,10.0653595 L144.96732,9.93464052 L144.96732,9.80392157 L144.836601,9.67320261 L144.705882,9.54248366 L144.575163,9.28104575 L144.183007,8.75816993 L143.921569,8.36601307 L143.529412,8.23529412 L143.398693,8.10457516 L143.137255,8.10457516 L143.006536,8.10457516 L142.875817,8.23529412 L142.745098,8.36601307 L142.614379,8.49673203 L142.48366,8.75816993 L141.960784,9.41176471 L141.699346,9.80392157 L141.437908,10.0653595 L141.176471,10.5882353 L140.784314,11.1111111 L139.738562,12.2875817 L139.607843,12.2875817 L139.869281,7.45098039 L140,6.92810458 L140.130719,5.88235294 L140.261438,5.09803922 L140.392157,4.70588235 L140.522876,4.44444444 L140.784314,3.92156863 L140.915033,3.79084967 L141.045752,3.66013072 L141.045752,3.52941176 L140.915033,3.39869281 L140.784314,3.26797386 L140.392157,3.00653595 L139.869281,2.61437908 L139.346405,2.48366013 L138.823529,2.35294118 L138.562092,2.48366013 L138.300654,2.61437908 L138.169935,2.74509804 L138.039216,3.00653595 L137.908497,3.39869281 L137.777778,3.92156863 L137.647059,5.35947712 L137.51634,6.14379085 L137.51634,7.18954248 L137.254902,10.0653595 L137.124183,12.0261438 L136.993464,13.7254902 L136.862745,14.379085 L136.732026,15.0326797 L136.601307,15.5555556 L136.470588,15.9477124 L136.339869,16.3398693 L136.20915,16.6013072 L136.078431,16.8627451 L135.947712,16.9934641 L135.424837,17.124183 L135.294118,17.124183 L135.163399,16.9934641 L135.03268,16.8627451 L135.03268,16.7320261 L134.901961,15.1633987 L134.771242,14.379085 L134.771242,10.5882353 L134.901961,9.01960784 L134.901961,8.88888889 L135.163399,8.23529412 L135.294118,7.97385621 L135.294118,7.84313725 L135.163399,7.7124183 L135.03268,7.58169935 L134.901961,7.45098039 L134.640523,7.32026144 L132.679739,6.79738562 L132.418301,6.92810458 L132.156863,7.05882353 L132.026144,7.18954248 L131.895425,7.32026144 L131.764706,7.58169935 L131.633987,7.84313725 L131.633987,8.49673203 L131.764706,9.28104575 L131.895425,10.7189542 L132.026144,12.4183007 L131.895425,12.6797386 L130.326797,13.4640523 L129.803922,13.7254902 L129.542484,13.8562092 L128.496732,13.8562092 L127.973856,13.9869281 L127.843137,14.1176471 L127.843137,14.248366 L127.712418,14.5098039 L127.843137,14.9019608 L127.973856,15.0326797 L128.104575,15.2941176 L128.366013,15.6862745 L128.888889,16.2091503 L129.150327,16.6013072 L129.411765,16.8627451 L129.673203,16.9934641 L129.934641,16.9934641 L130.065359,16.8627451 L130.326797,16.6013072 L131.372549,15.4248366 L131.633987,15.1633987 L131.764706,14.7712418 L131.895425,14.6405229 L132.941176,14.6405229 L132.941176,13.7254902 Z M153.333333,10.7189542 L152.54902,11.7647059 L151.764706,12.8104575 L150.980392,13.9869281 L150.849673,14.5098039 L150.849673,14.7712418 L150.980392,14.9019608 L151.111111,15.0326797 L151.24183,15.0326797 L151.503268,15.0326797 L151.764706,14.9019608 L152.026144,14.7712418 L152.287582,14.6405229 L152.941176,14.248366 L153.72549,13.5947712 L154.379085,13.0718954 L154.640523,13.0718954 L154.771242,13.3333333 L155.03268,13.8562092 L155.03268,13.9869281 L155.294118,14.248366 L155.686275,14.7712418 L155.816993,14.9019608 L155.816993,15.1633987 L155.686275,15.2941176 L155.555556,15.4248366 L155.294118,15.5555556 L154.379085,16.0784314 L153.202614,16.0784314 L152.941176,16.0784314 L152.810458,16.2091503 L152.679739,16.3398693 L152.679739,16.6013072 L152.679739,16.9934641 L152.810458,17.5163399 L152.941176,18.0392157 L153.071895,18.5620915 L153.202614,18.6928105 L153.333333,18.8235294 L153.464052,18.9542484 L155.163399,18.3006536 L155.294118,18.3006536 L155.424837,18.4313725 L155.424837,18.5620915 L155.555556,18.6928105 L155.555556,20.130719 L155.686275,21.1764706 L155.816993,21.6993464 L155.947712,22.0915033 L156.078431,22.6143791 L156.20915,22.745098 L156.470588,22.875817 L156.601307,22.745098 L157.124183,22.3529412 L157.647059,22.0915033 L157.777778,21.9607843 L158.039216,21.6993464 L158.562092,21.0457516 L159.215686,20 L160.130719,18.6928105 L160.522876,17.3856209 L160.653595,16.7320261 L160.653595,16.6013072 L160.522876,16.4705882 L160.392157,16.6013072 L160.130719,16.7320261 L159.869281,16.9934641 L159.477124,16.9934641 L158.69281,17.7777778 L158.169935,18.3006536 L157.908497,18.5620915 L157.647059,18.6928105 L157.51634,18.8235294 L157.385621,18.9542484 L157.124183,18.8235294 L156.993464,18.8235294 L156.862745,18.6928105 L156.732026,18.4313725 L156.862745,18.3006536 L156.993464,18.0392157 L156.993464,17.7777778 L157.124183,17.5163399 L157.254902,17.254902 L157.647059,16.8627451 L158.169935,16.4705882 L158.431373,16.2091503 L159.215686,15.4248366 L159.477124,15.1633987 L159.607843,14.9019608 L159.738562,14.6405229 L159.738562,14.379085 L159.738562,14.1176471 L159.607843,13.8562092 L159.607843,13.7254902 L159.477124,13.7254902 L159.215686,13.5947712 L158.431373,13.7254902 L158.300654,13.4640523 L159.084967,12.0261438 L159.215686,11.7647059 L159.346405,11.503268 L159.346405,11.2418301 L159.346405,10.9803922 L159.346405,10.5882353 L159.215686,10.4575163 L159.084967,10.3267974 L158.954248,10.1960784 L158.823529,10.0653595 L158.562092,9.93464052 L158.039216,9.93464052 L157.51634,10.1960784 L156.993464,10.4575163 L156.339869,10.8496732 L155.816993,11.1111111 L155.686275,11.2418301 L155.424837,11.2418301 L155.294118,11.2418301 L155.163399,11.1111111 L155.03268,10.9803922 L155.03268,10.8496732 L155.03268,10.4575163 L155.163399,10.1960784 L155.294118,9.93464052 L155.424837,9.67320261 L155.686275,9.41176471 L155.947712,9.1503268 L156.339869,8.88888889 L156.601307,8.62745098 L156.993464,8.36601307 L157.254902,8.23529412 L157.385621,8.23529412 L157.647059,8.36601307 L157.908497,8.49673203 L158.823529,9.1503268 L159.215686,9.01960784 L159.477124,8.88888889 L159.738562,8.62745098 L160.130719,8.36601307 L160.392157,8.10457516 L160.653595,7.84313725 L160.784314,7.58169935 L160.915033,7.32026144 L160.784314,7.05882353 L160.653595,6.79738562 L160.392157,6.53594771 L160.261438,6.40522876 L160.130719,6.40522876 L158.954248,6.66666667 L158.823529,6.66666667 L158.69281,6.53594771 L158.69281,6.40522876 L158.562092,6.2745098 L158.69281,6.0130719 L158.954248,5.62091503 L159.215686,5.09803922 L159.738562,4.5751634 L159.869281,4.31372549 L160,4.18300654 L160,4.05228758 L160,3.79084967 L160,3.66013072 L159.869281,3.52941176 L159.738562,3.26797386 L159.607843,3.1372549 L159.215686,2.87581699 L158.823529,2.61437908 L158.431373,2.35294118 L158.169935,2.35294118 L158.039216,2.35294118 L157.908497,2.48366013 L157.777778,2.74509804 L157.647059,3.1372549 L157.124183,4.18300654 L156.601307,5.22875817 L156.078431,6.2745098 L155.555556,7.18954248 L154.901961,8.23529412 L154.248366,9.1503268 L153.333333,10.7189542 L153.333333,10.7189542 Z M164.444444,13.5947712 L164.575163,13.4640523 L165.098039,12.9411765 L165.882353,12.4183007 L166.405229,12.0261438 L166.797386,11.7647059 L167.058824,11.503268 L167.320261,11.1111111 L167.581699,10.7189542 L167.843137,10.1960784 L167.973856,9.67320261 L168.104575,9.01960784 L168.235294,8.23529412 L168.366013,7.84313725 L168.496732,7.45098039 L168.627451,6.92810458 L168.75817,6.66666667 L169.411765,4.83660131 L169.411765,4.70588235 L169.281046,4.5751634 L168.888889,4.31372549 L168.496732,4.05228758 L167.973856,3.92156863 L167.45098,3.79084967 L166.928105,3.66013072 L166.27451,3.79084967 L165.751634,3.92156863 L165.098039,4.18300654 L164.444444,4.44444444 L163.660131,4.70588235 L161.830065,5.88235294 L161.30719,6.2745098 L161.176471,6.40522876 L161.045752,6.53594771 L161.045752,6.66666667 L161.176471,7.45098039 L161.176471,8.62745098 L161.30719,11.8954248 L161.30719,12.8104575 L161.176471,13.7254902 L161.045752,14.6405229 L161.045752,16.6013072 L161.176471,17.6470588 L161.30719,18.6928105 L161.437908,19.7385621 L161.568627,20.7843137 L161.699346,21.0457516 L161.830065,21.3071895 L162.091503,22.4836601 L162.222222,22.745098 L162.352941,23.0065359 L162.48366,23.1372549 L162.614379,23.1372549 L162.745098,23.1372549 L163.006536,23.0065359 L163.137255,22.875817 L163.398693,22.745098 L163.921569,22.3529412 L164.444444,21.6993464 L164.705882,21.3071895 L165.228758,20.6535948 L165.751634,20.130719 L166.013072,19.869281 L166.143791,19.6078431 L166.27451,19.3464052 L166.27451,19.2156863 L166.405229,19.2156863 L166.666667,18.8235294 L166.797386,18.4313725 L166.928105,18.1699346 L167.058824,17.9084967 L167.189542,17.6470588 L167.320261,17.3856209 L167.45098,17.254902 L167.581699,17.124183 L167.712418,17.124183 L167.973856,17.254902 L169.150327,17.7777778 L169.542484,18.1699346 L169.803922,18.6928105 L170.065359,19.2156863 L170.196078,19.7385621 L170.326797,19.869281 L170.457516,20 L170.588235,20.130719 L170.718954,20.2614379 L170.980392,20.3921569 L171.503268,20.5228758 L172.156863,20.6535948 L172.941176,20.7843137 L173.986928,20.6535948 L174.248366,20.6535948 L174.640523,20.5228758 L175.163399,20.2614379 L175.424837,20.130719 L175.686275,20 L175.947712,19.869281 L176.20915,19.6078431 L176.078431,19.4771242 L175.947712,19.3464052 L175.686275,19.0849673 L175.163399,18.8235294 L174.379085,18.5620915 L173.333333,18.1699346 L170.457516,17.3856209 L168.496732,16.6013072 L167.712418,16.2091503 L167.189542,15.9477124 L166.928105,15.6862745 L166.797386,15.5555556 L166.666667,15.4248366 L166.797386,15.2941176 L166.928105,15.1633987 L167.973856,14.5098039 L168.104575,14.379085 L168.496732,13.9869281 L169.150327,13.3333333 L169.281046,13.2026144 L169.411765,12.9411765 L169.934641,12.2875817 L170.326797,11.8954248 L170.457516,11.7647059 L170.849673,11.2418301 L170.980392,10.9803922 L170.980392,10.8496732 L170.849673,10.5882353 L170.588235,10.1960784 L170.457516,9.93464052 L170.326797,9.67320261 L170.196078,9.54248366 L170.065359,9.41176471 L169.934641,9.54248366 L169.673203,9.67320261 L169.411765,9.93464052 L169.150327,10.1960784 L168.496732,10.7189542 L167.058824,11.8954248 L166.27451,12.5490196 L165.228758,13.0718954 L165.098039,13.2026144 L164.444444,13.5947712 L164.444444,13.5947712 L164.444444,13.5947712 Z M163.398693,15.8169935 L163.529412,15.8169935 L163.660131,15.9477124 L164.183007,16.2091503 L165.228758,16.7320261 L165.490196,16.8627451 L165.620915,16.9934641 L165.751634,17.124183 L165.882353,17.254902 L165.751634,17.3856209 L165.620915,17.5163399 L165.359477,17.9084967 L164.836601,18.4313725 L164.575163,18.6928105 L164.313725,18.9542484 L164.052288,19.2156863 L163.660131,19.4771242 L163.398693,19.6078431 L163.137255,19.7385621 L162.875817,19.7385621 L162.745098,19.7385621 L162.614379,19.6078431 L162.48366,19.4771242 L162.352941,19.3464052 L162.222222,18.6928105 L162.222222,17.9084967 L162.352941,17.124183 L162.48366,16.2091503 L162.48366,16.0784314 L162.614379,15.9477124 L162.875817,15.8169935 L163.398693,15.8169935 L163.398693,15.8169935 Z M164.052288,6.92810458 L164.183007,6.66666667 L164.444444,6.2745098 L164.705882,6.0130719 L164.96732,5.88235294 L165.228758,5.75163399 L165.490196,5.88235294 L165.620915,6.0130719 L165.751634,6.14379085 L165.882353,6.2745098 L165.882353,6.53594771 L165.882353,6.79738562 L165.882353,7.58169935 L165.751634,8.49673203 L165.620915,9.1503268 L165.490196,9.80392157 L165.359477,10.1960784 L165.228758,10.3267974 L165.098039,10.4575163 L164.836601,10.8496732 L164.575163,11.1111111 L163.529412,11.7647059 L163.398693,11.7647059 L163.267974,11.8954248 L163.137255,11.7647059 L163.006536,11.6339869 L162.875817,11.503268 L162.875817,11.2418301 L163.006536,11.1111111 L163.137255,10.9803922 L163.267974,10.8496732 L163.529412,10.5882353 L164.052288,10.0653595 L164.836601,9.41176471 L165.359477,8.75816993 L165.490196,8.49673203 L165.620915,8.36601307 L165.620915,8.23529412 L165.620915,7.97385621 L165.490196,7.84313725 L165.359477,7.7124183 L165.228758,7.58169935 L164.96732,7.45098039 L164.444444,7.58169935 L164.052288,7.7124183 L163.398693,8.10457516 L163.267974,8.10457516 L163.267974,7.97385621 L163.267974,7.84313725 L163.267974,7.84313725 L163.398693,7.58169935 L163.660131,7.32026144 L164.052288,6.92810458 L164.052288,6.92810458 Z M177.777778,18.0392157 L177.777778,18.0392157 L177.908497,18.1699346 L178.039216,18.3006536 L178.169935,18.3006536 L178.562092,18.3006536 L178.823529,18.1699346 L179.477124,17.9084967 L179.869281,17.7777778 L180.130719,17.5163399 L180.392157,17.254902 L180.653595,16.9934641 L181.30719,16.3398693 L181.437908,16.0784314 L181.437908,15.8169935 L181.568627,15.5555556 L181.699346,15.2941176 L181.960784,14.9019608 L182.091503,14.6405229 L182.352941,14.379085 L182.48366,14.248366 L182.614379,14.379085 L182.745098,14.5098039 L182.875817,14.6405229 L182.875817,14.7712418 L183.006536,15.4248366 L183.137255,16.2091503 L183.006536,16.7320261 L182.875817,18.9542484 L182.745098,20.5228758 L182.614379,20.7843137 L182.614379,21.0457516 L182.745098,21.1764706 L182.875817,21.3071895 L183.006536,21.4379085 L183.137255,21.5686275 L183.398693,21.5686275 L183.660131,21.5686275 L184.052288,21.5686275 L184.183007,21.4379085 L184.313725,21.3071895 L184.444444,21.1764706 L184.444444,21.0457516 L184.575163,20.6535948 L184.575163,20.130719 L184.444444,19.4771242 L184.444444,18.9542484 L184.444444,17.9084967 L184.575163,16.3398693 L184.575163,15.6862745 L184.705882,15.1633987 L184.705882,15.0326797 L184.705882,14.9019608 L184.836601,14.5098039 L184.96732,13.0718954 L185.098039,12.0261438 L185.228758,11.372549 L185.359477,11.1111111 L185.620915,10.7189542 L185.882353,10.4575163 L186.013072,10.1960784 L186.013072,10.0653595 L186.013072,10.4575163 L185.751634,10.1960784 L185.490196,9.93464052 L185.228758,9.80392157 L184.96732,9.67320261 L184.705882,9.67320261 L184.575163,9.67320261 L184.444444,9.67320261 L184.183007,9.80392157 L184.052288,10.0653595 L183.79085,10.3267974 L183.398693,10.8496732 L183.137255,11.2418301 L182.875817,11.503268 L182.745098,11.7647059 L182.745098,11.8954248 L182.614379,12.0261438 L182.091503,12.8104575 L181.30719,13.8562092 L180.130719,15.4248366 L178.562092,17.124183 L178.300654,17.3856209 L178.039216,17.6470588 L177.908497,17.9084967 L177.777778,18.0392157 L177.777778,18.0392157 L177.777778,18.0392157 L177.777778,18.0392157 Z M185.620915,7.18954248 L186.013072,6.92810458 L186.27451,6.66666667 L186.405229,6.40522876 L186.405229,6.14379085 L186.27451,6.0130719 L186.143791,5.75163399 L185.882353,5.49019608 L185.490196,5.09803922 L184.836601,4.70588235 L184.575163,4.5751634 L184.444444,4.5751634 L184.313725,4.5751634 L184.183007,4.70588235 L183.921569,4.96732026 L183.660131,5.22875817 L183.006536,6.0130719 L182.352941,7.32026144 L181.699346,8.23529412 L181.30719,8.88888889 L181.045752,9.41176471 L180.915033,9.67320261 L180.915033,9.80392157 L180.915033,10.0653595 L181.045752,10.3267974 L181.30719,10.4575163 L181.437908,10.3267974 L181.699346,10.1960784 L182.091503,9.93464052 L182.48366,9.54248366 L182.745098,9.41176471 L183.006536,9.1503268 L184.052288,8.49673203 L184.183007,8.36601307 L184.313725,8.10457516 L184.575163,7.84313725 L184.705882,7.7124183 L184.836601,7.58169935 L185.098039,7.32026144 L185.620915,7.18954248 L185.620915,7.18954248 Z M190.588235,10.4575163 L189.934641,10.5882353 L189.411765,10.7189542 L188.75817,10.8496732 L188.235294,10.8496732 L187.973856,10.8496732 L187.843137,10.9803922 L186.666667,11.2418301 L186.405229,11.2418301 L186.143791,11.372549 L186.013072,11.503268 L185.882353,11.7647059 L186.013072,11.8954248 L186.143791,12.0261438 L186.27451,12.2875817 L186.405229,12.5490196 L186.666667,12.8104575 L186.928105,13.2026144 L186.928105,13.3333333 L187.058824,13.3333333 L187.45098,13.4640523 L187.973856,13.2026144 L188.627451,12.9411765 L189.281046,12.6797386 L190.065359,12.4183007 L190.849673,12.2875817 L191.503268,12.2875817 L191.895425,12.2875817 L192.156863,12.4183007 L192.287582,12.5490196 L192.418301,12.8104575 L192.54902,13.3333333 L192.679739,13.9869281 L192.810458,14.6405229 L192.810458,15.1633987 L192.810458,15.8169935 L192.941176,16.9934641 L192.941176,18.0392157 L193.071895,19.0849673 L193.071895,20.130719 L192.941176,20.5228758 L192.810458,20.6535948 L192.54902,20.7843137 L192.287582,20.9150327 L192.026144,20.9150327 L191.503268,20.9150327 L190.980392,20.7843137 L190.457516,20.6535948 L189.803922,20.5228758 L189.150327,20.2614379 L188.888889,20.2614379 L188.496732,20.130719 L188.235294,20 L187.712418,19.869281 L187.45098,19.7385621 L187.320261,19.7385621 L187.320261,19.869281 L187.320261,20 L187.45098,20.130719 L187.581699,20.2614379 L187.843137,20.3921569 L188.366013,20.9150327 L189.019608,21.4379085 L189.542484,21.9607843 L190.065359,22.2222222 L190.849673,22.4836601 L191.764706,22.745098 L192.941176,23.1372549 L194.509804,23.5294118 L194.901961,23.6601307 L195.163399,23.6601307 L195.294118,23.6601307 L195.424837,23.5294118 L195.555556,23.3986928 L195.686275,23.2679739 L195.294118,20.7843137 L195.163399,20.130719 L195.163399,19.869281 L195.294118,14.7712418 L195.294118,13.0718954 L195.424837,12.9411765 L195.555556,12.4183007 L195.686275,12.2875817 L195.816993,12.1568627 L195.947712,12.0261438 L196.20915,12.0261438 L196.470588,11.8954248 L196.732026,11.8954248 L197.51634,12.0261438 L198.431373,12.1568627 L198.823529,12.1568627 L199.084967,12.0261438 L199.346405,11.8954248 L199.346405,11.7647059 L199.477124,11.6339869 L199.477124,11.372549 L199.346405,10.8496732 L199.215686,10.5882353 L199.084967,10.3267974 L198.823529,9.80392157 L198.300654,9.28104575 L198.039216,9.1503268 L197.385621,9.1503268 L196.862745,9.1503268 L196.339869,9.1503268 L195.686275,9.28104575 L195.03268,9.41176471 L193.464052,9.67320261 L193.202614,9.80392157 L192.679739,9.93464052 L192.156863,10.0653595 L190.588235,10.4575163 L190.588235,10.4575163 Z M195.294118,6.92810458 L195.555556,6.79738562 L195.686275,6.66666667 L195.816993,6.53594771 L195.947712,6.40522876 L195.816993,6.14379085 L195.686275,5.88235294 L195.555556,5.49019608 L195.424837,5.09803922 L195.294118,4.96732026 L195.163399,4.83660131 L195.03268,4.83660131 L194.771242,4.70588235 L194.248366,4.83660131 L193.594771,5.09803922 L191.24183,5.88235294 L190.457516,6.14379085 L189.803922,6.2745098 L189.281046,6.40522876 L188.888889,6.53594771 L188.75817,6.66666667 L188.627451,6.79738562 L188.496732,6.92810458 L188.496732,7.05882353 L188.496732,7.18954248 L188.627451,7.32026144 L188.75817,7.84313725 L188.888889,7.97385621 L189.019608,8.62745098 L189.150327,8.75816993 L189.281046,8.88888889 L189.411765,9.01960784 L189.542484,9.01960784 L190.065359,8.88888889 L190.718954,8.75816993 L192.418301,8.62745098 L193.071895,8.23529412 L193.594771,7.97385621 L194.379085,7.7124183 L195.294118,6.92810458 L195.294118,6.92810458 Z" id="Shape" fill="#040000"></path>
                                <path d="M51.8954248,34.6405229 L53.5947712,34.6405229 L52.8104575,32.4183007 L51.8954248,34.6405229 L51.8954248,34.6405229 Z M51.8954248,31.1111111 L53.4640523,31.1111111 L55.8169935,36.7320261 L54.248366,36.7320261 L53.8562092,35.5555556 L51.372549,35.5555556 L50.8496732,36.7320261 L49.4117647,36.7320261 L51.8954248,31.1111111 L51.8954248,31.1111111 Z M61.1764706,32.8104575 L61.0457516,32.6797386 L60.9150327,32.5490196 L60.7843137,32.2875817 L60.6535948,32.1568627 L60.5228758,32.0261438 L60.2614379,31.8954248 L59.869281,31.7647059 L59.4771242,31.7647059 L59.0849673,31.7647059 L58.6928105,31.8954248 L58.5620915,32.0261438 L58.4313725,32.1568627 L58.1699346,32.4183007 L57.9084967,32.6797386 L57.7777778,33.0718954 L57.6470588,33.5947712 L57.6470588,34.1176471 L57.6470588,34.6405229 L57.7777778,35.1633987 L57.9084967,35.2941176 L58.0392157,35.4248366 L58.1699346,35.5555556 L58.3006536,35.6862745 L58.5620915,35.8169935 L58.8235294,35.9477124 L59.0849673,36.0784314 L59.4771242,36.0784314 L59.7385621,36.0784314 L60,35.9477124 L60.130719,35.9477124 L60.2614379,35.8169935 L60.5228758,35.6862745 L60.6535948,35.4248366 L60.7843137,35.1633987 L60.9150327,34.9019608 L61.0457516,34.6405229 L59.4771242,34.6405229 L59.4771242,33.5947712 L62.2222222,33.5947712 L62.2222222,36.6013072 L61.3071895,36.6013072 L61.1764706,35.9477124 L60.7843137,36.3398693 L60.5228758,36.6013072 L60.2614379,36.7320261 L60,36.8627451 L59.6078431,36.8627451 L59.2156863,36.8627451 L58.9542484,36.8627451 L58.8235294,36.8627451 L58.5620915,36.7320261 L58.3006536,36.6013072 L58.0392157,36.4705882 L57.7777778,36.3398693 L57.254902,35.9477124 L56.9934641,35.6862745 L56.8627451,35.5555556 L56.7320261,35.2941176 L56.6013072,35.0326797 L56.4705882,34.7712418 L56.3398693,34.5098039 L56.2091503,34.248366 L56.2091503,33.9869281 L56.2091503,33.5947712 L56.3398693,33.3333333 L56.4705882,33.0718954 L56.6013072,32.8104575 L56.7320261,32.5490196 L56.8627451,32.2875817 L56.9934641,32.0261438 L57.254902,31.7647059 L57.5163399,31.503268 L57.7777778,31.372549 L58.3006536,31.1111111 L58.5620915,30.9803922 L58.8235294,30.8496732 L59.4771242,30.8496732 L60.130719,30.8496732 L60.6535948,30.9803922 L60.9150327,31.1111111 L61.1764706,31.2418301 L61.5686275,31.503268 L61.9607843,31.7647059 L62.2222222,32.0261438 L62.3529412,32.1568627 L62.4836601,32.4183007 L62.6143791,32.8104575 L61.1764706,32.8104575 L61.1764706,32.8104575 Z M65.3594771,32.1568627 L65.3594771,33.7254902 L66.9281046,33.7254902 L67.4509804,33.5947712 L67.7124183,33.5947712 L67.9738562,33.4640523 L68.1045752,33.3333333 L68.2352941,33.2026144 L68.2352941,32.9411765 L68.2352941,32.6797386 L68.1045752,32.4183007 L67.9738562,32.2875817 L67.8431373,32.1568627 L67.5816993,32.0261438 L67.1895425,32.0261438 L65.3594771,32.0261438 L65.3594771,32.1568627 Z M68.3660131,31.2418301 L68.496732,31.372549 L68.627451,31.503268 L68.7581699,31.6339869 L68.8888889,31.7647059 L69.1503268,32.0261438 L69.2810458,32.2875817 L69.4117647,32.5490196 L69.4117647,32.8104575 L69.2810458,33.2026144 L69.1503268,33.5947712 L69.0196078,33.8562092 L68.8888889,33.9869281 L68.627451,34.1176471 L68.3660131,34.248366 L68.7581699,34.379085 L68.8888889,34.5098039 L69.0196078,34.6405229 L69.1503268,35.0326797 L69.2810458,35.2941176 L69.2810458,35.5555556 L69.2810458,35.9477124 L69.2810458,36.4705882 L69.4117647,36.7320261 L69.6732026,36.8627451 L69.6732026,36.9934641 L67.9738562,36.9934641 L67.8431373,36.7320261 L67.8431373,36.4705882 L67.8431373,36.2091503 L67.7124183,35.6862745 L67.7124183,35.2941176 L67.7124183,35.0326797 L67.5816993,34.9019608 L67.4509804,34.7712418 L67.3202614,34.6405229 L67.0588235,34.6405229 L66.7973856,34.5098039 L66.6666667,34.5098039 L65.3594771,34.5098039 L65.3594771,36.7320261 L63.9215686,36.7320261 L63.9215686,31.1111111 L67.1895425,31.1111111 L67.8431373,31.1111111 L68.3660131,31.2418301 L68.3660131,31.2418301 Z M71.8954248,36.7320261 L70.4575163,36.7320261 L70.4575163,31.1111111 L71.8954248,31.1111111 L71.8954248,36.7320261 L71.8954248,36.7320261 Z M73.8562092,31.6339869 L74.1176471,31.503268 L74.379085,31.372549 L74.6405229,31.2418301 L74.9019608,31.1111111 L75.4248366,30.9803922 L75.6862745,30.8496732 L75.9477124,30.8496732 L76.3398693,30.8496732 L76.7320261,30.9803922 L77.124183,31.1111111 L77.3856209,31.2418301 L77.6470588,31.372549 L77.9084967,31.503268 L78.0392157,31.6339869 L78.1699346,31.7647059 L78.3006536,31.8954248 L78.4313725,32.0261438 L78.6928105,32.2875817 L78.8235294,32.5490196 L78.9542484,32.8104575 L78.9542484,33.0718954 L77.5163399,33.0718954 L77.3856209,32.6797386 L77.124183,32.4183007 L76.9934641,32.2875817 L76.7320261,32.1568627 L76.4705882,32.0261438 L76.2091503,32.0261438 L75.8169935,32.0261438 L75.5555556,32.1568627 L75.2941176,32.2875817 L75.1633987,32.4183007 L75.0326797,32.5490196 L74.7712418,32.8104575 L74.6405229,33.2026144 L74.5098039,33.5947712 L74.379085,34.1176471 L74.5098039,34.6405229 L74.6405229,35.0326797 L74.7712418,35.2941176 L74.9019608,35.5555556 L75.1633987,35.8169935 L75.4248366,35.9477124 L75.6862745,36.0784314 L76.0784314,36.0784314 L76.3398693,36.0784314 L76.6013072,35.9477124 L76.8627451,35.8169935 L76.9934641,35.6862745 L77.254902,35.4248366 L77.3856209,35.0326797 L78.8235294,35.0326797 L78.6928105,35.5555556 L78.5620915,35.9477124 L78.3006536,36.3398693 L78.1699346,36.4705882 L78.0392157,36.6013072 L77.7777778,36.7320261 L77.6470588,36.8627451 L77.124183,37.124183 L76.8627451,37.124183 L76.6013072,37.254902 L76.0784314,37.3856209 L75.6862745,37.254902 L75.4248366,37.254902 L75.1633987,37.124183 L74.9019608,36.9934641 L74.6405229,36.8627451 L74.379085,36.7320261 L74.1176471,36.6013072 L73.8562092,36.3398693 L73.5947712,35.9477124 L73.4640523,35.6862745 L73.3333333,35.4248366 L73.2026144,35.1633987 L73.0718954,34.9019608 L73.0718954,34.6405229 L73.0718954,33.9869281 L73.0718954,33.5947712 L73.0718954,33.2026144 L73.2026144,32.9411765 L73.3333333,32.6797386 L73.4640523,32.4183007 L73.7254902,32.1568627 L73.8562092,31.8954248 L73.8562092,31.6339869 L73.8562092,31.6339869 Z M79.869281,31.1111111 L81.3071895,31.1111111 L81.3071895,34.6405229 L81.4379085,35.1633987 L81.5686275,35.4248366 L81.5686275,35.5555556 L81.6993464,35.6862745 L81.8300654,35.8169935 L82.0915033,35.9477124 L82.3529412,36.0784314 L82.745098,36.0784314 L83.1372549,36.0784314 L83.3986928,35.9477124 L83.6601307,35.8169935 L83.7908497,35.5555556 L83.9215686,35.4248366 L84.0522876,35.1633987 L84.0522876,34.6405229 L84.0522876,31.1111111 L85.4901961,31.1111111 L85.4901961,34.6405229 L85.4901961,35.0326797 L85.3594771,35.4248366 L85.2287582,35.8169935 L85.0980392,36.0784314 L84.8366013,36.3398693 L84.7058824,36.6013072 L84.4444444,36.7320261 L84.1830065,36.8627451 L83.9215686,36.9934641 L83.5294118,37.124183 L83.1372549,37.124183 L82.745098,37.124183 L82.2222222,37.124183 L81.8300654,37.124183 L81.5686275,36.9934641 L81.3071895,36.8627451 L81.0457516,36.7320261 L80.7843137,36.6013072 L80.5228758,36.3398693 L80.3921569,36.0784314 L80.2614379,35.8169935 L80.130719,35.4248366 L80,35.0326797 L80,34.6405229 L80,31.1111111 L79.869281,31.1111111 Z M86.5359477,31.1111111 L87.9738562,31.1111111 L87.9738562,35.8169935 L91.2418301,35.8169935 L91.2418301,36.8627451 L86.5359477,36.8627451 L86.5359477,31.1111111 L86.5359477,31.1111111 Z M96.3398693,31.1111111 L96.3398693,32.1568627 L94.379085,32.1568627 L94.379085,36.8627451 L92.9411765,36.8627451 L92.9411765,32.1568627 L90.9803922,32.1568627 L90.9803922,31.1111111 L96.3398693,31.1111111 L96.3398693,31.1111111 Z M97.124183,31.1111111 L98.5620915,31.1111111 L98.5620915,34.6405229 L98.5620915,35.1633987 L98.6928105,35.4248366 L98.8235294,35.5555556 L98.9542484,35.6862745 L99.0849673,35.8169935 L99.3464052,35.9477124 L99.6078431,36.0784314 L100,36.0784314 L100.392157,36.0784314 L100.653595,35.9477124 L100.915033,35.8169935 L101.176471,35.5555556 L101.176471,35.2941176 L101.30719,35.0326797 L101.437908,34.5098039 L101.437908,30.9803922 L102.875817,30.9803922 L102.875817,34.5098039 L102.875817,34.9019608 L102.745098,35.2941176 L102.614379,35.6862745 L102.48366,35.9477124 L102.352941,36.2091503 L102.091503,36.4705882 L101.830065,36.6013072 L101.568627,36.7320261 L101.30719,36.8627451 L101.045752,36.9934641 L100.653595,36.9934641 L100.130719,36.9934641 L99.7385621,36.9934641 L99.3464052,36.9934641 L98.9542484,36.8627451 L98.6928105,36.7320261 L98.4313725,36.6013072 L98.1699346,36.4705882 L98.0392157,36.2091503 L97.7777778,35.9477124 L97.6470588,35.6862745 L97.5163399,35.2941176 L97.3856209,34.9019608 L97.3856209,34.5098039 L97.3856209,31.1111111 L97.124183,31.1111111 Z M105.228758,32.1568627 L105.228758,33.7254902 L106.797386,33.7254902 L107.320261,33.5947712 L107.581699,33.5947712 L107.712418,33.4640523 L107.843137,33.3333333 L107.973856,33.2026144 L107.973856,32.9411765 L107.973856,32.6797386 L107.843137,32.4183007 L107.712418,32.2875817 L107.581699,32.1568627 L107.320261,32.0261438 L106.928105,32.0261438 L105.228758,32.0261438 L105.228758,32.1568627 Z M108.235294,31.2418301 L108.366013,31.372549 L108.496732,31.503268 L108.627451,31.6339869 L108.75817,31.7647059 L109.019608,32.0261438 L109.150327,32.2875817 L109.281046,32.5490196 L109.281046,32.8104575 L109.281046,33.2026144 L109.019608,33.5947712 L108.888889,33.8562092 L108.75817,33.9869281 L108.496732,34.1176471 L108.235294,34.248366 L108.627451,34.379085 L108.75817,34.5098039 L108.888889,34.6405229 L109.019608,35.0326797 L109.150327,35.2941176 L109.150327,35.5555556 L109.150327,35.9477124 L109.150327,36.4705882 L109.281046,36.7320261 L109.411765,36.8627451 L109.411765,36.9934641 L107.843137,36.9934641 L107.712418,36.7320261 L107.712418,36.4705882 L107.712418,36.2091503 L107.712418,35.6862745 L107.581699,35.4248366 L107.581699,35.1633987 L107.45098,35.0326797 L107.320261,34.9019608 L107.189542,34.7712418 L107.189542,34.7712418 L106.928105,34.6405229 L106.666667,34.6405229 L105.228758,34.6405229 L105.228758,36.8627451 L103.79085,36.8627451 L103.79085,31.2418301 L107.058824,31.2418301 L107.712418,31.2418301 L108.235294,31.2418301 L108.235294,31.2418301 Z M112.418301,34.6405229 L114.117647,34.6405229 L113.333333,32.4183007 L112.418301,34.6405229 L112.418301,34.6405229 Z M112.54902,31.1111111 L114.117647,31.1111111 L116.470588,36.7320261 L114.901961,36.7320261 L114.509804,35.5555556 L112.026144,35.5555556 L111.503268,36.7320261 L110.065359,36.7320261 L112.54902,31.1111111 L112.54902,31.1111111 Z M117.254902,31.1111111 L118.69281,31.1111111 L118.69281,35.8169935 L122.091503,35.8169935 L122.091503,36.8627451 L117.385621,36.8627451 L117.385621,31.1111111 L117.254902,31.1111111 Z M126.666667,32.1568627 L126.666667,33.3333333 L128.366013,33.3333333 L128.75817,33.3333333 L129.019608,33.2026144 L129.150327,33.0718954 L129.281046,32.9411765 L129.281046,32.8104575 L129.411765,32.6797386 L129.281046,32.4183007 L129.281046,32.2875817 L129.150327,32.1568627 L129.019608,32.0261438 L128.627451,31.8954248 L128.235294,31.8954248 L126.666667,31.8954248 L126.666667,32.1568627 Z M126.666667,34.379085 L126.666667,35.8169935 L128.366013,35.8169935 L128.75817,35.8169935 L129.019608,35.6862745 L129.150327,35.5555556 L129.281046,35.4248366 L129.411765,35.1633987 L129.542484,34.9019608 L129.411765,34.6405229 L129.281046,34.5098039 L129.150327,34.379085 L129.019608,34.248366 L128.75817,34.1176471 L128.366013,34.1176471 L126.666667,34.1176471 L126.666667,34.379085 Z M130.326797,31.7647059 L130.457516,31.8954248 L130.588235,32.1568627 L130.718954,32.4183007 L130.718954,32.6797386 L130.718954,32.9411765 L130.588235,33.2026144 L130.457516,33.4640523 L130.326797,33.5947712 L130.065359,33.7254902 L129.803922,33.8562092 L130.065359,33.9869281 L130.196078,34.1176471 L130.457516,34.248366 L130.588235,34.379085 L130.718954,34.5098039 L130.849673,34.7712418 L130.980392,35.0326797 L130.980392,35.2941176 L130.980392,35.5555556 L130.849673,35.8169935 L130.718954,36.0784314 L130.588235,36.3398693 L130.326797,36.6013072 L130.065359,36.8627451 L129.673203,36.9934641 L129.281046,37.124183 L128.75817,37.254902 L128.235294,37.254902 L125.228758,37.254902 L125.228758,31.6339869 L128.496732,31.6339869 L129.150327,31.6339869 L129.411765,31.7647059 L129.673203,31.8954248 L130.065359,32.0261438 L130.196078,32.1568627 L130.326797,31.7647059 L130.326797,31.7647059 Z M133.856209,34.6405229 L135.555556,34.6405229 L134.771242,32.4183007 L133.856209,34.6405229 L133.856209,34.6405229 Z M133.856209,31.1111111 L135.424837,31.1111111 L137.777778,36.7320261 L136.339869,36.7320261 L135.816993,35.5555556 L133.333333,35.5555556 L132.810458,36.7320261 L131.372549,36.7320261 L133.856209,31.1111111 L133.856209,31.1111111 Z M138.69281,31.1111111 L140.130719,31.1111111 L142.745098,35.0326797 L142.745098,31.1111111 L144.052288,31.1111111 L144.052288,36.7320261 L142.614379,36.7320261 L139.869281,32.6797386 L139.869281,36.7320261 L138.562092,36.7320261 L138.562092,31.1111111 L138.69281,31.1111111 Z M145.359477,31.1111111 L146.797386,31.1111111 L146.797386,33.4640523 L149.411765,31.1111111 L151.111111,31.1111111 L148.366013,33.4640523 L151.24183,36.8627451 L149.542484,36.8627451 L147.45098,34.379085 L146.797386,34.9019608 L146.797386,36.8627451 L145.359477,36.8627451 L145.359477,31.1111111 L145.359477,31.1111111 Z M158.954248,35.4248366 L159.084967,35.1633987 L159.215686,34.7712418 L159.346405,34.379085 L159.346405,33.9869281 L159.346405,33.4640523 L159.215686,33.0718954 L159.084967,32.6797386 L158.954248,32.5490196 L158.823529,32.4183007 L158.69281,32.2875817 L158.562092,32.1568627 L158.300654,32.0261438 L158.039216,31.8954248 L157.647059,31.8954248 L157.124183,31.8954248 L156.862745,32.0261438 L156.732026,32.1568627 L156.601307,32.2875817 L156.470588,32.4183007 L156.339869,32.5490196 L156.078431,32.8104575 L155.947712,33.2026144 L155.816993,33.5947712 L155.816993,34.1176471 L155.816993,34.6405229 L155.947712,35.0326797 L156.078431,35.4248366 L156.20915,35.5555556 L156.339869,35.6862745 L156.470588,35.8169935 L156.601307,35.9477124 L156.862745,36.2091503 L157.124183,36.3398693 L157.647059,36.3398693 L158.039216,36.3398693 L158.300654,36.2091503 L158.431373,36.0784314 L158.562092,35.9477124 L158.69281,35.8169935 L158.954248,35.4248366 L158.954248,35.4248366 Z M159.738562,36.3398693 L159.477124,36.4705882 L159.346405,36.6013072 L158.823529,36.7320261 L158.169935,36.8627451 L157.51634,36.9934641 L156.862745,36.8627451 L156.601307,36.7320261 L156.339869,36.6013072 L155.816993,36.4705882 L155.686275,36.3398693 L155.424837,36.2091503 L155.163399,35.9477124 L154.901961,35.6862745 L154.771242,35.4248366 L154.640523,35.1633987 L154.509804,34.9019608 L154.379085,34.5098039 L154.248366,34.248366 L154.248366,33.9869281 L154.248366,33.5947712 L154.379085,33.2026144 L154.509804,32.9411765 L154.640523,32.6797386 L154.771242,32.4183007 L154.901961,32.1568627 L155.163399,31.8954248 L155.424837,31.6339869 L155.686275,31.503268 L155.816993,31.372549 L156.339869,31.2418301 L156.993464,31.1111111 L157.647059,30.9803922 L158.300654,31.1111111 L158.562092,31.2418301 L158.823529,31.372549 L159.346405,31.503268 L159.477124,31.6339869 L159.738562,31.7647059 L160,32.0261438 L160.261438,32.2875817 L160.392157,32.5490196 L160.522876,32.8104575 L160.653595,33.0718954 L160.784314,33.3333333 L160.915033,33.7254902 L160.915033,34.1176471 L160.915033,34.5098039 L160.784314,34.7712418 L160.653595,35.1633987 L160.522876,35.4248366 L160.392157,35.6862745 L160.261438,35.9477124 L160,36.2091503 L159.738562,36.3398693 L159.738562,36.3398693 Z M161.830065,31.1111111 L166.535948,31.1111111 L166.535948,32.1568627 L163.137255,32.1568627 L163.137255,33.4640523 L166.013072,33.4640523 L166.013072,34.5098039 L163.137255,34.5098039 L163.137255,36.8627451 L161.699346,36.8627451 L161.699346,31.1111111 L161.830065,31.1111111 Z M170.718954,31.6339869 L170.980392,31.503268 L171.24183,31.372549 L171.503268,31.2418301 L171.764706,31.1111111 L172.287582,30.9803922 L172.54902,30.8496732 L172.810458,30.8496732 L173.333333,30.8496732 L173.594771,30.9803922 L173.986928,31.1111111 L174.248366,31.2418301 L174.509804,31.372549 L174.771242,31.503268 L174.901961,31.6339869 L175.03268,31.7647059 L175.163399,31.8954248 L175.294118,32.0261438 L175.555556,32.2875817 L175.686275,32.5490196 L175.816993,32.8104575 L175.816993,33.0718954 L174.379085,33.0718954 L174.248366,32.6797386 L174.117647,32.4183007 L173.856209,32.2875817 L173.594771,32.1568627 L173.333333,32.0261438 L173.071895,32.0261438 L172.54902,32.0261438 L172.287582,32.1568627 L172.026144,32.2875817 L171.895425,32.4183007 L171.764706,32.5490196 L171.633987,32.8104575 L171.503268,33.2026144 L171.372549,33.5947712 L171.372549,34.1176471 L171.372549,34.6405229 L171.503268,35.0326797 L171.633987,35.2941176 L171.895425,35.5555556 L172.156863,35.8169935 L172.418301,35.9477124 L172.810458,36.0784314 L173.071895,36.0784314 L173.333333,36.0784314 L173.594771,35.9477124 L173.856209,35.8169935 L174.117647,35.6862745 L174.248366,35.4248366 L174.379085,35.0326797 L175.816993,35.0326797 L175.686275,35.5555556 L175.424837,35.9477124 L175.163399,36.3398693 L174.901961,36.4705882 L174.771242,36.6013072 L174.640523,36.7320261 L174.379085,36.8627451 L173.856209,37.124183 L173.594771,37.124183 L173.333333,37.254902 L172.810458,37.3856209 L172.54902,37.254902 L172.156863,37.254902 L171.895425,37.124183 L171.633987,36.9934641 L171.372549,36.8627451 L171.111111,36.7320261 L170.849673,36.6013072 L170.718954,36.3398693 L170.326797,35.9477124 L170.196078,35.6862745 L170.065359,35.4248366 L169.934641,35.1633987 L169.934641,34.9019608 L169.803922,34.6405229 L169.803922,33.9869281 L169.803922,33.5947712 L169.934641,33.2026144 L170.065359,32.9411765 L170.196078,32.6797386 L170.326797,32.4183007 L170.457516,32.1568627 L170.588235,31.8954248 L170.718954,31.6339869 L170.718954,31.6339869 Z M176.732026,36.7320261 L176.732026,31.1111111 L178.169935,31.1111111 L178.169935,33.2026144 L180.784314,33.2026144 L180.784314,31.1111111 L182.222222,31.1111111 L182.222222,36.7320261 L180.784314,36.7320261 L180.784314,34.248366 L178.169935,34.248366 L178.169935,36.7320261 L176.732026,36.7320261 L176.732026,36.7320261 Z M184.705882,36.7320261 L183.267974,36.7320261 L183.267974,31.1111111 L184.705882,31.1111111 L184.705882,36.7320261 L184.705882,36.7320261 Z M186.013072,31.1111111 L187.45098,31.1111111 L190.065359,35.0326797 L190.065359,31.1111111 L191.372549,31.1111111 L191.372549,36.7320261 L189.934641,36.7320261 L187.320261,32.6797386 L187.320261,36.7320261 L186.013072,36.7320261 L186.013072,31.1111111 L186.013072,31.1111111 Z M194.509804,34.6405229 L196.20915,34.6405229 L195.424837,32.4183007 L194.509804,34.6405229 L194.509804,34.6405229 Z M194.640523,31.1111111 L196.20915,31.1111111 L198.562092,36.7320261 L196.993464,36.7320261 L196.470588,35.5555556 L193.986928,35.5555556 L193.464052,36.7320261 L192.026144,36.7320261 L194.640523,31.1111111 L194.640523,31.1111111 Z" id="Shape" fill="#067E68"></path>
                            </g>
                        </g>
                    </g>
                </g>
            </g>
        </g>
    </g>
</svg>