<?xml version="1.0" encoding="UTF-8"?>
<svg width="200px" height="50px" viewBox="0 0 200 50" version="1.1" xmlns="http://www.w3.org/2000/svg" xmlns:xlink="http://www.w3.org/1999/xlink">
    <!-- Generator: Sketch 42 (36781) - http://www.bohemiancoding.com/sketch -->
    <title>svg</title>
    <desc>Created with Sketch.</desc>
    <defs></defs>
    <g id="Page-1" stroke="none" stroke-width="1" fill="none" fill-rule="evenodd">
        <g id="svg" fill="#003B96">
            <g id="Page_1">
                <g id="图层_1_1_">
                    <path d="M164.22619,46.7261905 L162.440476,46.7261905 L162.440476,32.0833333 L164.22619,32.0833333 L164.22619,37.9166667 L170.654762,32.0833333 L173.452381,32.0833333 L166.25,38.8095238 L174.166667,46.7857143 L171.666667,46.7857143 L164.285714,39.5238095 L164.285714,46.7261905 L164.22619,46.7261905 Z M78.0357143,45.3571429 L79.4047619,44.3452381 C80.4166667,45.5357143 81.9047619,45.8333333 83.2142857,45.4761905 C84.4047619,45.1190476 85.2380952,44.4642857 85.4166667,43.1547619 C85.5357143,42.4404762 85.4166667,41.7261905 85,41.25 C84.5833333,40.7738095 83.6309524,40.5357143 82.7380952,40.2380952 C81.1309524,39.7619048 79.8214286,39.047619 78.8095238,37.6785714 C77.2619048,35.5357143 78.0952381,32.3809524 80.8928571,31.4285714 C82.8571429,30.7738095 85.297619,31.0119048 87.0238095,32.9761905 L86.1904762,34.4047619 C85.2380952,33.0357143 82.797619,32.7380952 81.3095238,33.3333333 C80,34.047619 79.2261905,36.0119048 81.0119048,37.4404762 C82.6785714,38.8095238 85.1190476,38.452381 86.4880952,40.0595238 C87.5595238,41.3095238 87.7380952,43.0952381 87.0833333,44.5833333 C86.547619,45.8928571 85.4166667,47.0238095 84.1071429,47.3809524 C81.7857143,47.9166667 78.5119048,47.0238095 78.0357143,45.3571429 L78.0357143,45.3571429 Z M91.7857143,38.5714286 L96.3690476,38.5714286 C98.9880952,37.2619048 97.4404762,33.8690476 96.3690476,33.5119048 L91.8452381,33.5119048 L91.8452381,38.5714286 L91.7857143,38.5714286 Z M91.8452381,47.0833333 L89.7619048,47.0833333 L89.7619048,31.7857143 L94.2261905,31.7857143 C95.1785714,31.7857143 95.8928571,31.8452381 96.4285714,31.9047619 C96.9047619,32.0238095 97.3809524,32.1428571 97.7380952,32.3809524 C98.3333333,32.7380952 98.8095238,33.2738095 99.1666667,33.9880952 C99.5238095,34.702381 99.702381,35.4166667 99.702381,36.25 C99.702381,37.6785714 99.2261905,38.8095238 98.3333333,39.6428571 C97.4404762,40.4761905 96.1904762,40.4761905 94.5833333,40.4761905 L91.7857143,40.4761905 L91.7857143,47.0833333 L91.8452381,47.0833333 Z M105.892857,47.0833333 L101.607143,47.0833333 L101.607143,31.6071429 L106.547619,31.6071429 C108.869048,31.6071429 110.714286,32.3214286 112.083333,33.75 C113.511905,35.1785714 114.166667,37.0833333 114.166667,39.4047619 C114.166667,40.7142857 113.928571,41.9047619 113.392857,43.0357143 C112.857143,44.1071429 112.083333,45 111.130952,45.7738095 C110.47619,46.25 109.761905,46.6071429 108.988095,46.8452381 C108.214286,46.9642857 107.202381,47.0833333 105.892857,47.0833333 L105.892857,47.0833333 Z M103.27381,45.3571429 L106.25,45.3571429 C108.154762,45.3571429 109.583333,44.8214286 110.714286,43.75 C111.785714,42.6785714 112.380952,41.25 112.380952,39.4047619 C112.380952,37.5 111.785714,36.0119048 110.654762,34.9404762 C109.52381,33.8690476 107.916667,33.3333333 105.833333,33.3333333 L103.333333,33.3333333 L103.333333,45.3571429 L103.27381,45.3571429 Z M121.607143,38.0357143 L126.071429,38.0952381 C127.857143,37.0833333 128.154762,33.6904762 126.666667,33.0357143 L121.607143,33.0357143 L121.607143,38.0357143 L121.607143,38.0357143 Z M121.607143,45.6547619 L126.428571,45.6547619 C128.035714,45.0595238 129.404762,41.0119048 126.369048,39.4642857 L121.607143,39.4642857 L121.607143,45.6547619 L121.607143,45.6547619 Z M126.488095,31.4880952 C128.511905,32.1428571 129.821429,33.8095238 129.345238,35.8333333 C129.107143,36.9047619 128.452381,37.9166667 127.5,38.452381 C129.52381,39.2857143 130,42.3214286 129.464286,44.1666667 C129.166667,45.1785714 127.797619,46.9642857 126.666667,47.0238095 C126.011905,47.0833333 124.702381,47.0238095 123.511905,47.0238095 L119.642857,47.0238095 L119.642857,31.4285714 L126.488095,31.4880952 L126.488095,31.4880952 Z M141.190476,41.3690476 L138.095238,33.9285714 L134.702381,41.4285714 L141.190476,41.4285714 L141.190476,41.3690476 Z M134.166667,42.9761905 L132.380952,47.0238095 L130.059524,47.0238095 L136.666667,31.8452381 L139.047619,31.8452381 L145.654762,47.0238095 L143.630952,47.0238095 L141.785714,43.0357143 L134.166667,42.9761905 L134.166667,42.9761905 Z M148.988095,46.7857143 L147.202381,46.7857143 L147.202381,32.1428571 L149.642857,32.1428571 L158.392857,44.1071429 L158.27381,32.1428571 L159.880952,32.1428571 L159.880952,46.7857143 L157.678571,46.7857143 L148.809524,34.1666667 L148.988095,46.7857143 L148.988095,46.7857143 Z M9.4047619,50 L0.297619048,43.8095238 L0.416666667,20.5952381 C0.416666667,20.5952381 0.178571429,13.5119048 6.25,10.1190476 C9.3452381,8.39285714 12.9761905,7.85714286 16.3690476,9.16666667 C18.5714286,10.0595238 21.3095238,11.8452381 24.1071429,15.5357143 C24.1071429,15.5357143 11.4285714,14.8809524 9.3452381,25.5357143 L9.4047619,50 L9.4047619,50 Z M11.0119048,33.5119048 C11.0119048,33.5119048 13.8690476,41.4880952 21.7857143,41.0119048 C25.6547619,40.7738095 29.1666667,38.9880952 31.547619,35.8333333 C34.2857143,32.202381 33.6904762,28.9285714 34.8214286,25.0595238 C35.297619,23.452381 36.1904762,21.4880952 37.797619,19.6428571 C39.2857143,17.9166667 40.952381,16.7857143 43.2142857,16.1309524 C44.702381,15.7142857 46.7261905,15.4761905 48.9285714,16.0714286 C48.9285714,16.0714286 45.6547619,7.44047619 36.9047619,8.63095238 C36.9047619,8.63095238 32.8571429,8.57142857 29.2857143,12.3214286 C26.9642857,14.7619048 26.1309524,16.9047619 25.6547619,19.4642857 C25.1190476,22.3809524 25,24.4047619 23.6309524,27.1428571 C21.9047619,30.5357143 19.4047619,32.5595238 15.8333333,33.3928571 C14.3452381,33.75 12.5595238,33.9880952 11.0119048,33.5119048 L11.0119048,33.5119048 Z M50.2380952,0 L50.3571429,24.1666667 C50.3571429,24.1666667 49.3452381,34.6428571 35.6547619,34.4047619 C35.6547619,34.4047619 40.0595238,41.9642857 47.5595238,41.4880952 C49.8809524,41.3690476 52.0238095,40.4761905 53.9285714,39.1666667 C55.952381,37.797619 58.5119048,35.297619 59.1071429,31.3095238 L58.9880952,6.13095238 C59.047619,6.13095238 50.2380952,0.119047619 50.2380952,0 L50.2380952,0 Z M79.4642857,15.3571429 C78.0357143,18.6904762 77.5,20.4166667 75.1785714,24.8214286 L77.3809524,26.1904762 C78.2142857,25.1190476 80.2380952,21.3095238 81.4285714,16.6666667 L79.4642857,15.3571429 L79.4642857,15.3571429 Z M74.2261905,10.1785714 C74.2261905,10.1785714 76.7261905,12.0833333 79.1666667,14.4047619 L81.1904762,13.0357143 C81.1904762,13.0357143 78.452381,10.2380952 76.4285714,8.69047619 L74.2261905,10.1785714 L74.2261905,10.1785714 Z M82.1428571,9.88095238 L88.3928571,9.88095238 L88.3928571,8.0952381 L81.7857143,8.0952381 L82.1428571,8.39285714 L80.5357143,9.46428571 C79.8809524,8.80952381 75.8333333,5.41666667 75.7142857,5.41666667 C75.5952381,5.41666667 77.7380952,3.80952381 77.7380952,3.80952381 L81.0714286,6.72619048 L81.0714286,6.19047619 L88.452381,6.19047619 L88.452381,2.97619048 L90.2380952,2.97619048 L90.2380952,6.19047619 L93.2142857,6.19047619 C92.6785714,5.47619048 91.7857143,4.58333333 91.7857143,4.58333333 L93.5119048,3.03571429 C93.5119048,3.03571429 94.9404762,4.4047619 96.4880952,6.19047619 L98.2142857,6.19047619 L98.2142857,8.21428571 L90.1785714,8.21428571 L90.1785714,10 L96.4285714,10 L96.4880952,25.7142857 C95.7738095,27.7380952 92.6785714,26.7261905 92.6785714,26.7261905 C92.4404762,26.0714286 91.9047619,24.3452381 91.9047619,24.3452381 L94.3452381,24.3452381 L94.2261905,20.7738095 L90.1190476,20.7738095 L90.1190476,26.1904762 L88.3333333,26.1904762 L88.3333333,20.7738095 L84.5238095,20.7738095 L84.5238095,27.0238095 L82.1428571,27.0238095 L82.1428571,9.88095238 L82.1428571,9.88095238 Z M90.1785714,12.202381 L94.3452381,12.202381 L94.3452381,14.2261905 L90.1785714,14.2261905 L90.1785714,12.202381 L90.1785714,12.202381 Z M90.1785714,16.25 L94.3452381,16.25 L94.3452381,18.2738095 L90.1785714,18.2738095 L90.1785714,16.25 L90.1785714,16.25 Z M84.702381,16.25 L88.3333333,16.25 L88.3333333,18.2738095 L84.702381,18.2738095 L84.702381,16.25 L84.702381,16.25 Z M84.702381,12.1428571 L88.3333333,12.1428571 L88.3333333,14.1666667 L84.702381,14.1666667 L84.702381,12.1428571 L84.702381,12.1428571 Z M115.357143,19.702381 C116.488095,18.3333333 117.142857,17.0238095 117.380952,16.25 L112.797619,16.25 C113.214286,17.0238095 113.988095,18.3333333 115.357143,19.702381 L115.357143,19.702381 Z M123.75,11.6071429 L112.321429,11.6071429 C112.202381,12.1428571 112.02381,12.6785714 111.845238,13.2142857 L120.119048,13.2142857 L120.119048,16.25 C119.047619,18.2142857 118.214286,19.8214286 116.964286,21.3095238 C118.75,22.797619 121.190476,24.1666667 124.404762,24.9404762 L122.857143,26.9642857 C122.857143,26.9642857 118.988095,25.7142857 115.416667,22.8571429 C111.72619,26.1904762 107.202381,27.0238095 107.202381,27.0238095 L106.25,24.9404762 C109.583333,24.1666667 111.964286,22.797619 113.690476,21.3095238 C112.440476,20 111.309524,18.452381 110.535714,16.6666667 C108.988095,20.1785714 106.607143,23.6904762 102.797619,26.3095238 L101.011905,24.3452381 C103.988095,21.6666667 107.619048,19.8809524 109.880952,11.547619 L104.166667,11.547619 L104.166667,8.92857143 C104.821429,7.67857143 105.595238,5 106.25,3.69047619 C107.261905,3.98809524 107.797619,4.22619048 108.154762,4.4047619 C107.857143,6.60714286 107.083333,8.63095238 106.666667,9.52380952 L110.357143,9.52380952 C110.714286,7.79761905 111.011905,5.83333333 111.309524,3.63095238 C111.607143,3.69047619 113.690476,3.51190476 113.690476,3.57142857 C113.452381,4.94047619 113.214286,7.02380952 112.678571,9.52380952 L123.630952,9.52380952 L123.630952,11.6071429 L123.75,11.6071429 Z M116.011905,4.82142857 L117.97619,3.03571429 C117.97619,3.03571429 121.071429,6.07142857 122.321429,7.85714286 L120.654762,9.22619048 C120.595238,9.16666667 117.559524,5.95238095 116.011905,4.82142857 L116.011905,4.82142857 Z M139.940476,6.19047619 L146.547619,6.19047619 L146.547619,9.22619048 L139.940476,9.22619048 L139.940476,6.19047619 L139.940476,6.19047619 Z M139.940476,10.952381 L146.547619,10.952381 L146.547619,13.9880952 L139.940476,13.9880952 L139.940476,10.952381 L139.940476,10.952381 Z M140,4.10714286 L139.22619,4.10714286 L138.035714,4.10714286 L138.035714,25.0595238 L139.107143,26.7857143 C139.702381,26.4285714 144.285714,24.7619048 144.285714,24.7619048 L144.285714,22.6785714 C142.380952,23.2142857 140.595238,23.75 140.059524,23.9285714 L140.059524,15.7142857 L142.261905,15.7142857 C142.559524,17.797619 143.869048,23.6309524 149.583333,26.1309524 L151.071429,24.8809524 C151.071429,24.8809524 152.380952,23.8690476 149.880952,23.6309524 C149.880952,23.6309524 147.440476,22.3809524 146.488095,20.7738095 C146.488095,20.7738095 148.988095,18.75 149.761905,17.5595238 L148.035714,16.3690476 C148.035714,16.3690476 145.892857,18.5119048 145.357143,18.9285714 C145.357143,18.9285714 144.583333,18.3928571 144.345238,15.7142857 L148.571429,15.7142857 L148.571429,4.10714286 L140,4.10714286 L140,4.10714286 Z M136.785714,10.4166667 L131.547619,10.4166667 C131.785714,9.88095238 132.083333,9.28571429 132.321429,8.69047619 L137.083333,8.69047619 L137.083333,6.72619048 L132.97619,6.72619048 C133.214286,5.77380952 133.452381,4.82142857 133.571429,3.75 C133.511905,3.75 131.369048,2.55952381 131.369048,2.73809524 C130.714286,5.95238095 130.595238,9.04761905 126.964286,12.9761905 L128.75,14.8214286 C128.75,14.8214286 129.52381,13.9285714 130.47619,12.3809524 L132.02381,12.3809524 L132.02381,15.1190476 L128.511905,15.1190476 L128.511905,17.0833333 L132.02381,17.0833333 L131.964286,24.5833333 L133.214286,26.6666667 L137.321429,24.1071429 L137.142857,22.202381 C135.535714,22.7380952 134.52381,23.6309524 134.047619,23.8690476 L133.988095,17.0833333 L137.738095,17.0833333 L137.738095,15.1190476 L133.988095,15.1190476 L133.988095,12.3809524 L136.785714,12.3809524 L136.785714,10.4166667 L136.785714,10.4166667 Z M161.666667,13.9285714 L161.666667,26.9047619 L159.22619,26.9047619 L159.22619,16.547619 C158.690476,17.0238095 157.857143,17.6785714 156.72619,18.6309524 L154.821429,17.0238095 C154.821429,17.0238095 160.297619,12.9166667 162.857143,8.86904762 L164.702381,10.3571429 C164.702381,10.3571429 163.035714,12.4404762 161.666667,13.9285714 L161.666667,13.9285714 Z M155.059524,9.82142857 L157.142857,11.4880952 C157.142857,11.4880952 160.416667,9.4047619 163.452381,4.04761905 L161.666667,2.67857143 C161.666667,2.73809524 158.095238,7.44047619 155.059524,9.82142857 L155.059524,9.82142857 Z M164.52381,10.8333333 L177.857143,10.8333333 L177.857143,13.0952381 L173.690476,13.0952381 L173.690476,24.2857143 C173.809524,26.25 172.619048,27.0238095 170.892857,26.9047619 L168.214286,26.8452381 C166.72619,26.3690476 167.083333,24.3452381 167.083333,24.3452381 L171.190476,24.3452381 L171.190476,13.0952381 L164.464286,13.0952381 L164.464286,10.8333333 L164.52381,10.8333333 Z M164.880952,4.76190476 L176.666667,4.76190476 L176.666667,7.02380952 L164.880952,7.02380952 L164.880952,4.76190476 L164.880952,4.76190476 Z" id="Shape"></path>
                </g>
            </g>
        </g>
    </g>
</svg>