<?xml version="1.0" encoding="UTF-8"?>
<svg width="510px" height="100px" viewBox="0 0 510 100" version="1.1" xmlns="http://www.w3.org/2000/svg" xmlns:xlink="http://www.w3.org/1999/xlink">
    <!-- Generator: Sketch 41 (35326) - http://www.bohemiancoding.com/sketch -->
    <title>Group</title>
    <desc>Created with Sketch.</desc>
    <defs></defs>
    <g id="Page-1" stroke="none" stroke-width="1" fill="none" fill-rule="evenodd">
        <g id="Page_1">
            <g id="图层_1_1_">
                <g id="Group">
                    <path d="M97.8,5.6 C97.8,5.6 77.7,-2.8 51.5,2.8 C40.7,5.1 27.2,10.4 16.9,18.5 C14.7,20.3 12.6,22.2 10.6,24.2 C2.8,32.4 -0.2,42.1 0.1,50.9 C0.3,57.4 2.4,63.3 6.3,69.2 C21.2,91.4 53.8,99.4 78.4,98.9 C78.4,98.9 129.3,100.1 149.4,66.1 C149.4,66.1 165.4,41.5 136.3,24.1 C125.6,17.7 112,14.8 98.4,14.2 C77.9,13.2 57,17.9 43,30.8 C43,30.8 39.6,33.7 37.6,37.5 C33.7,45.3 38.7,49.6 44.4,52.9 C46.1,53.9 48.5,55.1 51.4,56.8 L65.8,65 C67.5,66 69,67 70.5,67.9 C75.6,70.9 79.8,71.1 84.7,67.9 C93.7,62.2 112.1,52.1 112.1,52.1 C112.1,52.1 118,48.2 112.6,42.9 L101.3,36.5 L78.3,49.8 C78.3,49.8 77.9,50.5 76.2,49.3 C74.8,48.4 64.7,42.6 61.2,40.6 C59.7,39.8 59.6,39.8 61.4,38.4 C61.9,38 62.6,37.6 63.6,36.9 C64.5,36.3 66.7,35 70,33.7 C76.5,31.1 87.1,28.2 99.4,29.1 C109.7,29.8 128.1,34.4 133.1,45.1 C136.5,52.4 131.9,60.6 126.6,65.7 C122,70.1 114.4,75.2 102,78.3 C94,80.3 85.3,81.5 76.5,81.3 C69.1,81.2 59,79.9 49.3,76.9 C39.4,73.8 30.4,68.9 24.7,61.9 C17.3,53 17,44.2 22,34.4 C28.8,21.2 43.1,13.5 55.4,9.6 C65.1,6.5 74.8,5.1 82.2,5.3 L90.1,5.4 L96.1,5.5 L97.8,5.6 L97.8,5.6 Z" id="Shape" fill="#1B2D74"></path>
                    <polygon id="Shape" fill="#000000" points="178.6 75.8 509.3 75.8 509.3 74.4 178.6 74.4 178.6 75.8"></polygon>
                    <path d="M178.4,37.1 L183.7,37.3 L223.6,37.3 L223.6,37.3 L226.3,29.3 L226.3,29.3 L227.5,25.7 L228.5,21.8 L228.5,21.8 L230.4,13.3 L230.4,13.3 L231.4,7.3 L231.9,3.7 C231.9,2.6 232.4,3 233.4,3.2 L233.4,3.2 L236.1,4.2 L236.1,4.2 L239,5.4 L241.9,6.9 L241.9,6.9 L244.1,8.1 C244.6,8.5 245.6,9.3 245.2,10 C244.8,10.8 243,11 242.2,11.2 L242.2,11.2 L238.6,18 L238.6,18 L226,37.3 L234.5,37.3 L234.5,37.3 L238.4,32.5 L238.4,32.5 L239.4,31.3 C240.1,30.5 240.7,30.5 241.6,31 C244,33.1 246.6,35.4 248.7,37.8 C248.8,37.9 248.8,38 248.9,38.1 C248.9,38.3 248.9,38.4 248.8,38.5 C248.7,38.6 248.5,38.7 248.3,38.8 C248,38.9 247.6,39 247.4,39 L184.7,39 L180.1,39.2 L178.4,37.1 L178.4,37.1 L178.4,37.1 Z M198,61 L198,61 C195.8,62.4 193.8,63.7 191.6,64.8 C188.9,66.2 185.9,67.6 183,68.7 L180.8,69.5 L180.8,69.5 L180.2,69.7 C179.6,69.8 179.5,69.1 179.7,68.9 L180.3,68.5 L183,66.6 L183,66.6 L185.9,64.2 L185.9,64.2 C189.9,60.2 194.4,56.2 197.1,51.1 L199.2,47.3 L200.4,44.9 L200.4,44.9 C200.8,44.2 200.8,43.8 201.6,44.2 L201.6,44.2 L205,45.7 C207.3,46.9 209.9,48.1 211.7,50 C212,50.4 212.4,50.8 212.1,51.2 C211.8,51.9 209.7,52.1 209,52.2 L209,52.2 L203.4,57 L198,61 L198,61 L198,61 Z M232,49.9 C235.1,51.1 237.5,52.3 240,54.4 C240.7,54.9 241.3,55.6 242,56.3 L242,56.3 C243.5,58.1 244.5,59.9 244.9,62.3 L244.9,62.3 C244.9,64.2 244.3,66.8 242.8,68 C241,69.4 238.1,69.3 236.3,68 C235.7,67.5 235.1,66.8 234.3,65.7 C233.3,63.5 232.4,61.4 231.2,59.6 C230,57.7 228.5,55.9 226.8,54.1 C224.9,51.9 223,50.3 220.3,48.9 L218.1,47.8 L218.1,47.8 C218,47.7 217.8,47.6 217.7,47.5 C217.4,47.2 217.3,46.9 217.5,46.6 C217.6,46.5 217.8,46.4 218,46.4 L219.2,46.4 C220.2,46.6 221.2,46.8 222.3,47.1 C225.5,47.9 228.8,48.6 232,49.9 L232,49.9 Z M207.6,5.2 L210.5,8.1 L213.2,10.5 L215.1,12.7 C216.9,14.8 217.5,16 218.7,18.5 C219.6,21 219.9,23.6 219.9,26.2 L219.7,27.7 C219.4,29.1 218.5,30.3 217.4,31.2 C215.6,32.5 212.9,32.9 211,31.6 C209.3,30.5 208.8,28.7 208.8,26.2 L208.8,26.2 L209,24 L209,24 L209.2,22.1 L209.3,21.4 C209.8,17.3 208.9,12.6 207.1,8.9 C206.6,7.8 206,6.7 205.3,5.6 C204.8,5 204.3,4.1 204.7,3.5 C204.8,3.3 205,3.3 205.2,3.4 C206.1,3.8 207,4.7 207.6,5.2 L207.6,5.2 Z M189.5,8.1 L189.5,8.1 L193.6,11 L193.6,11 L196.3,13.4 L199.4,16.8 L199.4,16.8 C201.7,20.2 202.4,21.7 202.8,25.8 L202.8,25.8 C202.8,29.1 202.5,31.1 199.9,33.1 C198.3,33.9 197,34.2 195.3,33.8 C191.1,31.7 191.7,29.1 192.2,25.1 L192.2,25.1 C192.2,22 192.3,19.6 191.7,16.6 C190.9,14.3 190.1,12.7 188.8,10.6 L188.8,10.6 L186.9,8.2 L186.9,8.2 L186.7,7.5 L186.7,7.5 L186.7,7 L186.7,7 L187.2,6.8 L187.7,7 L189.5,8.1 L189.5,8.1 L189.5,8.1 Z" id="Shape" fill="#1B2D74"></path>
                    <path d="M265.7,66.4 L270.8,66.9 L288,66.9 L288,13.4 L287.3,3 L287.3,3 L287.8,2.8 L288,2.6 L289.5,2.6 L289.5,2.6 L294.3,3.3 L297.4,4 L297.4,4 L298.4,4.2 L298.9,4.7 L299.1,4.9 L299.1,5.4 L299.1,5.4 L298.9,5.9 L298.4,6.4 L296.5,7.9 L296.5,66.9 L304,66.9 L304,14.4 L303.3,4.2 L303.3,4.2 L303.5,3.7 L304,3.5 L305.5,3.5 L305.5,3.5 L310.3,4.2 L313,4.9 L313,4.9 L314.2,5.4 L314.9,5.9 L314.9,5.9 L315.1,6.4 L315.1,6.9 L315.1,6.9 L314.1,7.6 L312.4,9.1 L312.4,50.2 L312.4,50.2 L314.1,46.6 L314.1,46.6 L316,41.3 L316,41.3 C318.1,35.3 320,29.6 321.6,23.4 L322.1,20.7 L322.3,18.5 L322.3,18.5 L322.5,18.3 L323,18.3 L324.2,18.5 C327.5,19.8 330.3,20.9 333.3,22.9 C334.3,23.6 334.3,24.6 333.1,25.1 C332.6,25.3 332,25.4 331.5,25.6 L331.5,25.6 L326.4,34.6 C322,42.1 317.5,49.2 312.4,56.4 L312.4,67 L320.6,67 L320.6,67 C322.2,65 323.7,62.9 325.3,60.9 C325.5,60.6 325.7,60.4 326,60.3 C326.5,60.1 327,60.4 327.4,60.7 C329.9,62.8 332.3,64.7 334.4,67.2 C335.3,68.1 333.7,68.4 333.1,68.4 L272.4,68.4 L267.8,68.6 L265.7,66.4 L265.7,66.4 L265.7,66.4 Z M272.5,21.9 C276.6,26.4 279.7,30.2 282.3,35.5 C283.7,38.4 284.7,41.3 285.1,44.6 C285.1,46.7 284.9,48.4 284.1,50.4 C282.3,53.4 279.5,53.9 276.7,52.6 C274.9,51.8 274.5,50.5 274.5,47.5 L275,43.4 L275,43.4 C275,38.8 274.6,35.3 273.8,30.8 L273.8,30.8 C273.1,27.7 272,24.6 270.4,21.8 L270.4,21.8 C270,21.1 269.3,19.6 270.6,20.3 C271.1,20.6 271.6,21 272.1,21.4 C272.2,21.6 272.3,21.7 272.5,21.9 L272.5,21.9 Z" id="Shape" fill="#1B2D74"></path>
                    <path d="M391.5,35.7 L398.3,35.7 L398.3,35.7 C398.9,42 399.6,47.5 401.4,53.6 L401.4,53.6 L391.5,57.7 L391.5,35.7 L391.5,35.7 L391.5,35.7 Z M383.8,6 C383.7,8.6 383.9,11.1 383.8,13.7 L383.8,15.7 L383.8,58.9 L383.8,58.9 C383.8,60.4 383.2,60.8 382.5,61.7 C382.3,62 382.3,62.3 382.6,62.9 L385.8,70 L385.8,70 C386.5,71.2 386.6,72 387.8,70.6 L389.9,68.3 L389.9,68.3 L392.3,65.4 L395.4,61.8 L395.4,61.8 L401.7,54.5 C402.3,56.1 402.9,57.6 403.5,59.1 C404.9,62.4 406.4,65.4 408.9,68.1 C409.9,69.2 411,70.2 412.4,71.2 L413,71.7 C413.4,72 413.6,72 413.9,71.5 C414.4,70.7 414.8,70 415.3,69.3 C416.4,67.8 417.4,66.7 419.1,66 C420.1,65.6 421.1,65.3 422.2,64.9 L422.2,64.9 C422.9,64.6 423,64.1 422.2,63.7 C417.8,61.9 414.3,59.6 411.1,56.5 C408.8,54.3 407.3,52.1 405.5,49.5 C410.2,47.9 414.8,46 419.5,44.3 C420.2,44.1 420.9,43.8 421.6,43.6 C422.2,43.4 422.5,43 421.9,42.4 C421.7,42.2 421.3,41.9 421,41.7 C418.9,40.5 416.5,39.5 414.3,38.5 C413.1,37.9 412.5,37.8 411.6,39.2 C409.6,42.5 407.2,45 404.6,47.8 C402.5,43.7 401.2,40.1 399.8,35.7 L407.3,35.7 L407.3,36.4 L407.3,36.4 C407.1,37.9 408.3,37.9 409.7,37.9 L409.7,37.9 C411.4,37.9 415.6,37.8 415.6,35.1 L415.5,27.8 L415.5,11.8 L415.5,11.8 L416.5,11.2 C417.8,10.4 418.5,9.7 416.7,8.7 C414.4,7.6 413.1,6.9 410.7,6.1 C409.4,5.5 408.8,5.3 407.8,6.5 L407.8,6.5 L406.3,8.4 L392,8.4 L385,5.3 C383.6,4.6 383.8,4.6 383.8,6 L383.8,6 Z M391.5,22.6 L407.2,22.6 L407.2,34.2 L391.5,34.2 L391.5,22.6 L391.5,22.6 L391.5,22.6 Z M391.5,9.8 L407.2,9.8 L407.2,21.2 L391.5,21.2 L391.5,9.8 L391.5,9.8 L391.5,9.8 Z M371.2,5.9 C371.3,5.8 371.4,5.7 371.5,5.6 L371.6,5.5 C371.9,5.1 372.2,4.6 371.4,4.3 C368.3,3.1 365,2.2 361.8,1.4 C360.9,1.2 360.9,1.1 360.8,1.8 L360.6,2.7 L359.6,6.3 L359.6,6.3 L358.4,11.6 L358.4,11.6 L357.4,15 L356.4,17.9 L356.4,17.9 L354.5,23.2 L354.5,23.2 L352.8,26.8 L352.1,28.5 C351.9,28.9 351.8,29.2 351.7,29.6 C351.6,30.2 351.6,30.6 352.5,29.8 L353.8,28.7 L355.3,27.2 L357,28.9 L360.4,28.7 L363.3,28.7 L363.3,39 L357.3,39 L352.5,38.8 L354.7,40.7 L357.8,40.5 L363.4,40.5 L363.4,56.1 C363.4,57.8 363,59.3 361.5,60.4 L361.5,60.4 L362,61.4 L366.1,69.6 L366.1,69.6 L366.6,70.3 L366.6,70.3 L366.8,70.3 L367.3,69.8 L370.7,65.7 L370.7,65.7 L381.1,53.4 L383,51.1 C383.5,50.5 384,49.4 382.8,50 L379.2,51.9 L379.2,51.9 L371,56 L371,40.5 L382.4,40.5 L382.4,40.5 L382.6,40.5 C383.7,40.4 382.7,39.4 382.4,39.1 L380,36.7 L378.1,35 C377.4,34.4 377.1,34 376.3,34.7 L376.3,34.7 L372.4,39.1 L370.9,39.1 L370.9,30.9 L372.4,29 L379.4,29 C380.2,29 380.5,28.2 380,27.7 L374.1,23 L374.1,23 L372.4,24.7 L372.4,24.7 L369.5,27.6 L359.8,27.6 L355.9,27.1 L355.9,27.1 L359.5,22.7 L363.6,17.1 L382.2,17.1 C383.7,17.1 382.5,15.9 382.1,15.5 L376.9,11 L376.7,10.8 L376.7,10.8 L372.1,15.6 L364.4,15.6 L364.4,15.6 L369.2,7.1 L370.3,6.5 L371.2,5.9 L371.2,5.9 Z" id="Shape" fill="#1B2D74"></path>
                    <path d="M460.7,12.9 L454.4,17 L454.4,17 L448.8,20.1 L443.5,22.5 L441.5,23.4 C441,23.6 440.6,23.9 440.1,23.8 C439.7,23.7 439.7,23.8 439.7,23.4 C439.7,22.9 440.2,22.4 440.6,22 L442.4,20.3 C443.8,19.2 444.7,18.4 445.9,17.1 L447,15.9 L449.9,12.5 L449.9,12.5 L452.8,8.9 L455.5,5.3 L457,3.1 L457.7,1.6 L457.7,1.6 L458.4,1.6 L458.4,1.6 L459.1,1.8 L460.1,2.5 L463.2,4.9 L463.2,4.9 L465.9,7.1 L465.9,7.1 C466.6,7.8 468.2,8.9 467.3,10.1 C466.8,10.8 465.6,10.5 464.4,10.5 L464.4,10.5 L460.7,12.9 L460.7,12.9 L460.7,12.9 Z M460.4,30.1 L460.4,30.1 L462,31.1 C462.4,31.4 462.7,31.6 462.9,31.8 C463.1,32.1 463.1,32.4 462.9,32.7 C462.6,33.3 462.2,33.5 461.6,33.9 L461.6,59.8 L461.8,67.1 C461.8,68.4 461.6,68.9 460.4,69.5 C458.3,70.2 456.7,70.2 454.4,70.2 C453.5,69.9 453.3,70 452.9,69 L453.1,60.5 L453.1,36.6 L453.1,36.6 L447.3,41 L442.7,44.1 L441,45.2 C440.6,45.4 440.4,45.7 440.1,45.3 C439.6,44.8 440,44.2 440.4,43.8 L441.8,42.2 L441.8,42.2 L445.2,38.3 L445.2,38.3 L447.1,35.6 L450,31.2 L450,31.2 L453.1,26.4 C454.9,23.4 456.5,20.3 458.4,17.4 L458.4,17.4 C460.7,18.5 462.7,19.9 464.9,21.3 C465.8,21.9 466.6,22.5 467.3,23.2 L467.8,23.7 C468,24.4 467.7,24.8 467.2,25.1 C466.6,25.4 465.7,25.4 465.1,25.4 L465.1,25.4 L460.4,30.1 L460.4,30.1 L460.4,30.1 Z M495.5,29.4 L495.5,29.4 L497.4,26.3 C498.1,25.2 499.4,22.8 500.9,22.7 C501.6,22.7 502.2,23.2 503.4,24.1 L503.4,24.1 L508,28.2 C509.1,29.2 510.2,30.8 507.8,30.8 L499,30.8 L498.1,30.8 L498.1,30.8 L496.9,32.5 L496.9,61.5 C496.9,62.9 496.8,64 496.7,65.4 C496.4,66.9 496.2,67.4 495.2,68.1 C493.6,69.3 491.5,69.7 489.5,70.1 C488.6,70.3 487.8,70.4 487,70.4 C486.3,70.4 484.9,70.5 484.6,69.6 C484.5,69.4 484.5,69 484.5,68.5 L484.5,68.5 L484.5,67.5 L484.3,66.5 L484.3,66.5 L483.8,65.8 L482.8,64.8 L482.8,64.8 L481.6,63.8 L479.9,63.1 L477.5,62.1 L477.5,62.1 L477,62 C476.7,61.9 476.5,61.8 476.5,61.7 C476.4,61.4 476.9,60.9 477.2,60.9 L477.7,60.9 L479.6,61.1 L484.4,61.3 L484.4,61.3 C486.2,61.3 487.3,61.2 487.8,59.4 L487.8,57.9 L487.8,30.6 L471.1,30.6 L467,30.8 L464.8,28.6 L470.1,29.1 L495.5,29.1 L495.5,29.4 L495.5,29.4 Z M491.1,9.5 L491.1,9.5 L494.1,5.5 C494.6,4.8 495.7,3.3 496.5,3.3 C497.7,3.3 500.6,6.1 501.3,6.6 L501.3,6.6 L504,9.3 L504,9.3 C504.4,9.7 504.9,10.1 504.8,10.5 C504.7,11.1 504,11 503.5,11 L475.9,11 L471.8,11.2 L469.6,9 L474.9,9.5 L491.1,9.5 L491.1,9.5 L491.1,9.5 Z" id="Shape" fill="#1B2D74"></path>
                    <path d="M179.6,96.1 L179.6,96.1 C181.5,96.1 181.8,96.1 181.8,94.2 L181.8,84.5 L181.8,84.5 L181.8,83.5 L181.6,82.8 L180.9,82.6 L179.7,82.6 L179.7,82.1 L186.2,82.1 L186.2,82.6 L186.2,82.6 L185.2,82.6 L184.5,82.8 L184.3,83.3 L184.1,84.5 L184.1,93.4 C184.1,94.5 183.9,96.1 185.4,96.1 L186.3,96.1 L186.3,96.6 L179.8,96.6 L179.8,96.1 L179.6,96.1 L179.6,96.1 Z" id="Shape" fill="#1B2D74"></path>
                    <path d="M203.8,82.6 L203.8,82.6 C202,82.6 201.9,83.7 201.9,85.3 L201.9,96.9 L201.4,96.9 L191.7,84.8 L191.7,84.8 L191.7,93.5 L191.7,93.5 C191.7,95.1 191.8,96.2 193.6,96.2 L193.6,96.7 L188.5,96.7 L188.5,96.2 L188.5,96.2 C190.7,96.2 190.7,95.1 190.7,93.4 L190.7,84.2 C190.7,83.4 189.7,82.6 189,82.6 L188.5,82.6 L188.5,82.1 L192.4,82.1 L200.9,92.7 L200.9,92.7 L200.9,85.9 C200.9,84.3 201,82.5 198.7,82.5 L198.7,82 L203.8,82 L203.8,82.6 L203.8,82.6 L203.8,82.6 Z" id="Shape" fill="#1B2D74"></path>
                    <path d="M210.3,83.8 L210.3,83.8 L210.3,83.1 C213,82.8 215.9,83.4 217.5,85.7 C218.9,87.8 218.9,92.5 216.9,94.1 C215.4,95.3 213.5,95.9 211.5,95.8 C210.8,95.8 210.3,95.7 210.3,94.9 L210.3,83.8 L210.3,83.8 L210.3,83.8 Z M206.2,96.6 L212.5,96.6 L212.5,96.6 C216.3,96.2 219.8,95.3 220.8,91.1 C221.2,89.4 220.8,87.1 220,85.7 C218.6,83.2 215.4,82.1 212.2,82.1 L206.2,82.1 L206.2,82.6 L206.2,82.6 C208,82.6 208.1,82.8 208.1,84.5 L208.1,94.2 L208.1,94.2 C208.1,96 207.9,96.1 206.2,96.1 L206.2,96.6 L206.2,96.6 L206.2,96.6 Z" id="Shape" fill="#1B2D74"></path>
                    <path d="M239.1,82.6 L239.1,82.6 C237.1,82.6 236.9,83.4 236.9,85.3 L236.9,91.1 L236.9,91.1 L236.9,92.1 C236.9,94.2 235.5,96.2 233.4,96.7 C232.7,96.9 231.8,96.9 231,96.9 C227.3,96.8 225.8,95.2 225.8,91.3 L225.8,84.5 L225.8,84.5 C225.8,82.9 225.4,82.6 223.9,82.6 L223.9,82.1 L229.9,82.1 L229.9,82.6 L229.9,82.6 C228.3,82.6 228,82.9 228,84.5 L228,91.5 L228,91.5 C228,92.6 228,93.1 228.6,94.1 C229.3,95.3 230.1,95.8 231.9,95.8 L231.9,95.8 C233.8,95.8 235.4,95.1 235.9,93.1 L236,91.2 L236,85.2 L236,85.2 C236,83.6 235.9,82.5 234.1,82.5 L234.1,82 L239.2,82 L239.2,82.6 L239.1,82.6 L239.1,82.6 Z" id="Shape" fill="#1B2D74"></path>
                    <path d="M251.4,86.4 L250.9,86.4 L250.9,86.4 C250.5,85.2 250.1,84.2 249.1,83.4 C248.5,82.9 247.6,82.6 246.7,82.6 C245.8,82.6 244.8,83 244.5,83.9 C244.3,84.4 244.4,84.8 244.6,85.2 C245.5,87.2 247.6,87.8 249.2,89.1 C250.8,90.4 252.6,91.7 251.9,94.1 C251.8,94.5 251.6,94.8 251.4,95.1 C250.8,95.9 249.8,96.6 248.7,96.8 C248.1,96.9 247.6,96.9 246.8,96.9 C246.2,96.9 245.5,96.8 244.8,96.6 L243.7,96.2 L243.7,96.2 L243.2,96.4 L243.2,96.9 L242.7,96.9 L242,92.3 L242.5,92.3 L242.5,92.3 L243,93.3 L243.5,94.2 C244.3,95.8 246.2,96.5 247.8,96 C248.5,95.8 249.1,95.4 249.4,94.8 C250.2,93.1 249,91.7 247.6,90.8 L246.1,89.8 L246.1,89.8 C245.1,89.1 244.4,88.7 243.8,88.1 C242.9,87.1 242.6,86 242.8,84.7 C243.2,81.8 246.1,81.5 248.5,82.1 L249.7,82.6 L249.7,82.6 L249.9,82.4 L250.1,82.2 L250.3,82 L250.8,82 L251.4,86.4 L251.4,86.4 L251.4,86.4 Z" id="Shape" fill="#1B2D74"></path>
                    <path d="M265,96.6 L258.5,96.6 L258.5,96.1 L258.5,96.1 C260.4,96.1 260.7,95.6 260.7,93.9 L260.7,83 L259.5,83 L259.5,83 L258.3,83 C256.3,83 256.4,84.1 255.9,85.7 L255.4,85.7 L255.6,82.1 L267.9,82.1 L268.1,85.7 L267.6,85.7 L267.6,85.7 C266.9,83.5 266.6,83 264.4,83 L262.8,83 L262.8,94.1 L262.8,94.1 C262.8,95.9 263.3,96 265,96 L265,96.6 L265,96.6 L265,96.6 Z" id="Shape" fill="#1B2D74"></path>
                    <path d="M274.7,83.5 L274.7,83.5 C274.7,83 274.6,82.8 275.3,82.8 C275.9,82.8 276.8,82.8 277,82.9 C277.8,83 278.5,83.4 279,83.9 C279.8,84.7 279.9,85.6 279.8,86.6 C279.5,88.1 278.3,89.2 276.6,89.2 L274.8,89.2 L274.8,83.5 L274.7,83.5 L274.7,83.5 Z M284.6,96.1 L284.6,96.1 C284.3,96.1 284.1,96 283.8,96 C282.2,95.3 280.8,92.9 279.8,91.6 L278.2,89.6 L278.2,89.6 L279.2,89.4 C280.9,88.8 282.1,88.1 282.1,86 L282.1,86 C281.4,82.7 279.5,82.1 276.5,82.1 L270.5,82.1 L270.5,82.6 L270.5,82.6 L272,82.6 C272.3,82.7 272.4,82.9 272.4,83.2 C272.5,83.8 272.4,84.6 272.4,85.2 L272.4,93.2 C272.4,94.7 272.6,96.2 270.5,96.2 L270.5,96.7 L276.5,96.7 L276.5,96.2 L276.5,96.2 C274.7,96.2 274.6,96.1 274.6,94.5 L274.6,89.9 L275.8,89.9 L281.1,96.7 L284.5,96.7 L284.5,96.1 L284.6,96.1 L284.6,96.1 Z" id="Shape" fill="#1B2D74"></path>
                    <path d="M300.3,91 L302.7,85 L305.4,91 L300.3,91 L300.3,91 L300.3,91 Z M311.2,96.1 L311.2,96.1 C309.8,96.1 309.6,95.6 309,94.4 L303.7,81.8 L303.2,81.8 L299.1,91.4 C298.4,93 298.2,94.2 297.3,95.4 C296.8,96 296.7,96.1 296,96.1 L296,96.6 L300.4,96.6 L300.4,96.1 L300.4,96.1 C298.4,96.1 298.4,95.9 298.9,94.4 L299.9,91.7 L305.7,91.7 L306.7,93.9 L306.7,93.9 L307,94.6 C307.5,96 306.9,96.1 305.5,96.1 L305.5,96.6 L311.3,96.6 L311.3,96.1 L311.2,96.1 L311.2,96.1 Z" id="Shape" fill="#1B2D74"></path>
                    <path d="M319.6,82.6 L319.6,82.6 C318.7,82.6 317.5,82.5 317.4,83.7 L317.4,84.5 L317.4,94.5 C317.4,95.5 318,95.7 318.9,95.8 C320.6,95.9 323.4,95.9 324.5,94.5 C324.7,94.3 324.9,94 325.1,93.7 L325.6,92.7 L326.1,92.7 L325.1,96.6 L313.2,96.6 L313.2,96.1 L313.2,96.1 C314.8,96.1 315.1,95.8 315.1,94.2 L315.1,84.5 L315.1,84.5 C315.1,82.8 314.8,82.6 313.2,82.6 L313.2,82.1 L319.5,82.1 L319.5,82.6 L319.6,82.6 L319.6,82.6 Z" id="Shape" fill="#1B2D74"></path>
                    <path d="M340.2,84 L340.2,88.6 L342.1,88.6 C343.1,88.6 343.7,88.4 344.2,88.1 C345.2,87.4 345.6,86.3 345.4,85.2 C345.2,84.4 344.6,83.6 343.8,83.2 C343.1,82.9 342.3,82.9 341.3,82.9 L340.8,82.9 C340.1,83.1 340.2,83.5 340.2,84 L340.2,84 Z M335.9,82.6 L335.9,82.6 L335.9,82.1 L341.9,82.1 C343.1,82.1 343.8,82.2 344.8,82.4 C346.7,82.8 347.8,84.3 347.7,86.2 C347.6,86.8 347.5,87.3 347.2,87.7 C346.7,88.4 345.9,88.7 344.8,88.9 L344.8,88.9 L344.8,89.1 C347.2,89.5 348.4,90.4 348.4,92.7 L348.4,92.7 C348.4,95.8 345.5,96.6 343.1,96.6 L343.1,96.6 L335.8,96.6 L335.8,96.1 L336.8,96.1 L337.5,95.9 L337.7,95.2 L337.7,94.2 L337.7,94.2 L337.7,84.5 L337.7,83.5 L337.5,82.8 L336.8,82.6 L335.9,82.6 L335.9,82.6 L335.9,82.6 Z M340.2,89.7 L340.2,90.2 L340.2,90.4 L340.2,94.9 L340.2,95.4 C340.9,96.1 343.4,95.7 344.3,95.3 C344.7,95.1 345,94.9 345.3,94.5 C346.2,93.3 346.1,91.6 345,90.5 C344.6,90.1 344.1,89.9 343.3,89.7 C342.6,89.6 341.9,89.6 341.1,89.6 L340.9,89.6 L340.2,89.7 L340.2,89.7 Z" id="Shape" fill="#1B2D74"></path>
                    <path d="M395.4,82.1 L401.2,82.1 L401.2,82.6 L401.2,82.6 L400.5,82.6 C399.3,82.6 398.6,83.5 397.8,84.3 L393.7,88.4 L398.8,94 L398.8,94 C399.5,94.7 400.6,96.2 401.6,96.2 L402.2,96.2 L402.2,96.7 L395.4,96.7 L395.4,96.2 L395.4,96.2 L396.4,96.2 C397.6,96.2 396.9,95.5 396.6,95 L395.9,94 L394.2,92.1 L391.8,89.7 L391.3,90.2 L391.3,94.3 L391.3,94.3 C391.3,95.3 391.2,96.2 392.6,96.2 L393.3,96.2 L393.3,96.7 L387,96.7 L387,96.2 L387,96.2 L387.9,96.2 C389.1,96.2 388.9,94.8 388.9,94 L388.9,84.6 L388.9,84.6 C388.9,82.8 388.7,82.7 387,82.7 L387,82.2 L393.3,82.2 L393.3,82.7 L393.3,82.7 C391.5,82.7 391.4,82.9 391.4,84.6 L391.4,89 L391.4,89 L395.8,85.1 C396.3,84.6 397.5,83.4 396.8,82.7 L395.6,82.7 L395.6,82.1 L395.4,82.1 L395.4,82.1 Z" id="Shape" fill="#1B2D74"></path>
                    <path d="M424.1,86.7 L424.1,86.7 C423.8,85.9 423.4,85.1 422.9,84.4 C422.4,83.7 421.8,83.3 421.1,83 C420.5,82.7 419.9,82.6 419.2,82.7 C417.1,82.8 415.4,83.9 414.6,85.9 C413.1,89.7 414.4,95.9 419.3,96 C420.1,96 420.9,95.9 421.8,95.6 C422.9,95.2 423.7,94.7 424.5,93.9 L424.7,94.4 L424.7,94.4 C424.4,95.1 423.8,95.4 423.2,95.9 C421.8,96.8 420.5,97.1 418.8,97.2 C414.5,97.4 411.4,93.8 411.3,89.6 C411.3,85.5 414.6,82.2 418.8,82.2 L418.8,82.2 C420.4,82.2 421.2,82.4 422.7,82.9 L422.7,82.9 L423.2,82.7 L423.4,82.5 L423.6,82.3 L424.1,82.3 L424.3,87.1 L424.1,87.1 L424.1,86.7 L424.1,86.7 Z" id="Shape" fill="#1B2D74"></path>
                    <path d="M435.3,96.1 C430.8,96.1 430.3,90.2 430.9,86.9 C431.1,85.7 431.5,84.7 432.2,83.9 C432.9,83.1 433.9,82.6 435.3,82.6 L435.3,82.6 C439.5,82.6 440.5,88 440,91.3 C439.9,92.2 439.5,93.1 439,94 C438.1,95.5 436.9,96.1 435.3,96.1 L435.3,96.1 Z M435.3,96.8 C437.3,96.8 439.3,96.3 440.6,94.8 C441.8,93.5 442.5,91 442.5,89.2 C442.5,87.6 441.8,85.4 440.7,84.1 C440.1,83.3 439.3,82.6 438.1,82.2 C436.6,81.6 433.7,81.6 432.3,82.3 C430.6,83.1 429.5,84.4 428.9,86 C427.9,88.3 427.8,90.6 428.8,92.9 C429.2,93.7 429.6,94.3 430.2,94.9 C431.6,96.3 433.3,96.8 435.3,96.8 L435.3,96.8 Z" id="Shape" fill="#1B2D74"></path>
                    <path d="M287,96.1 L287,96.1 C288.9,96.1 289.2,96.1 289.2,94.2 L289.2,84.5 L289.2,84.5 L289.2,83.5 L289,82.8 L288.3,82.6 L287,82.6 L287,82.1 L293.5,82.1 L293.5,82.6 L293.5,82.6 L292.5,82.6 L291.8,82.8 L291.6,83.3 L291.4,84.5 L291.4,93.4 C291.4,94.5 291.2,96.1 292.7,96.1 L293.6,96.1 L293.6,96.6 L287,96.6 L287,96.1 L287,96.1 L287,96.1 Z" id="Shape" fill="#1B2D74"></path>
                    <path d="M355.7,91 L358.1,85 L360.8,91 L355.7,91 L355.7,91 L355.7,91 Z M366.6,96.1 L366.6,96.1 C365.2,96.1 365,95.6 364.4,94.4 L359.1,81.8 L358.6,81.8 L354.5,91.4 C353.8,93 353.6,94.2 352.7,95.4 C352.2,96 352.1,96.1 351.4,96.1 L351.4,96.6 L355.8,96.6 L355.8,96.1 L355.8,96.1 C353.8,96.1 353.8,95.9 354.3,94.4 L355.3,91.7 L361.1,91.7 L362.1,93.9 L362.1,93.9 L362.4,94.6 C362.9,96 362.3,96.1 360.9,96.1 L360.9,96.6 L366.7,96.6 L366.7,96.1 L366.6,96.1 L366.6,96.1 Z" id="Shape" fill="#1B2D74"></path>
                    <path d="M384.1,82.6 L384.1,82.6 C382.3,82.6 382.2,83.7 382.2,85.3 L382.2,96.9 L381.7,96.9 L372,84.8 L372,84.8 L372,93.5 L372,93.5 C372,95.1 372.1,96.2 373.9,96.2 L373.9,96.7 L368.8,96.7 L368.8,96.2 L368.8,96.2 C371,96.2 371,95.1 371,93.4 L371,84.2 C371,83.4 370,82.6 369.3,82.6 L368.8,82.6 L368.8,82.1 L372.7,82.1 L381.2,92.7 L381.2,92.7 L381.2,85.9 C381.2,84.3 381.3,82.5 379,82.5 L379,82 L384.1,82 L384.1,82.6 L384.1,82.6 L384.1,82.6 Z" id="Shape" fill="#1B2D74"></path>
                    <path d="M454.6,94.3 C454.2,94.3 453.9,94.4 453.7,94.7 C453.5,94.9 453.4,95.2 453.4,95.6 C453.4,95.9 453.5,96.3 453.8,96.5 C453.9,96.6 454,96.7 454.2,96.8 C454.3,96.9 454.5,97 454.7,97.1 C454.7,97.4 454.6,97.7 454.5,98 C454.3,98.4 454,98.9 453.7,99.2 L453.9,99.8 C454.9,99.1 455.5,98.4 455.8,97.5 C456.1,96.7 456.4,95.4 455.6,94.8 C455.3,94.4 455,94.3 454.6,94.3 L454.6,94.3 Z" id="Shape" fill="#1B2D74"></path>
                    <path d="M447.8,94.4 C447.4,94.4 447.1,94.5 446.9,94.8 C446.7,95 446.5,95.3 446.5,95.7 C446.5,96.1 446.6,96.4 446.8,96.6 C447.1,96.9 447.4,97 447.7,97 C448.1,97 448.4,96.9 448.6,96.6 C448.8,96.4 448.9,96.1 448.9,95.7 C448.9,95.3 448.8,95 448.6,94.8 C448.4,94.5 448.1,94.4 447.8,94.4 L447.8,94.4 Z" id="Shape" fill="#1B2D74"></path>
                    <path d="M507.8,94.4 C507.4,94.4 507.1,94.5 506.9,94.8 C506.7,95 506.5,95.3 506.5,95.7 C506.5,96.1 506.6,96.4 506.8,96.6 C507.1,96.9 507.4,97 507.7,97 C508.1,97 508.4,96.9 508.6,96.6 C508.8,96.4 508.9,96.1 508.9,95.7 C508.9,95.3 508.8,95 508.6,94.8 C508.5,94.5 508.2,94.4 507.8,94.4 L507.8,94.4 Z" id="Shape" fill="#1B2D74"></path>
                    <path d="M492,83.8 L492,83.8 L492,83.1 C494.7,82.8 497.6,83.4 499.2,85.7 C500.6,87.8 500.6,92.5 498.6,94.1 C497.1,95.3 495.2,95.9 493.2,95.8 C492.5,95.8 492,95.7 492,94.9 L492,83.8 L492,83.8 L492,83.8 Z M487.9,96.6 L494.2,96.6 L494.2,96.6 C498,96.2 501.5,95.3 502.5,91.1 C502.9,89.4 502.5,87.1 501.7,85.7 C500.3,83.2 497.1,82.1 493.9,82.1 L487.9,82.1 L487.9,82.6 L487.9,82.6 C489.7,82.6 489.8,82.8 489.8,84.5 L489.8,94.2 L489.8,94.2 C489.8,96 489.6,96.1 487.9,96.1 L487.9,96.6 L487.9,96.6 L487.9,96.6 Z" id="Shape" fill="#1B2D74"></path>
                    <path d="M482.4,96.6 L475.9,96.6 L475.9,96.1 L475.9,96.1 C477.8,96.1 478.1,95.6 478.1,93.9 L478.1,83 L476.9,83 L476.9,83 L475.7,83 C473.7,83 473.8,84.1 473.3,85.7 L472.8,85.7 L473,82.1 L485.3,82.1 L485.5,85.7 L485,85.7 L485,85.7 C484.3,83.5 484,83 481.8,83 L480.2,83 L480.2,94.1 L480.2,94.1 C480.2,95.9 480.7,96 482.4,96 L482.4,96.6 L482.4,96.6 L482.4,96.6 Z" id="Shape" fill="#1B2D74"></path>
                    <path d="M465.9,82.6 L465.9,82.6 C465,82.6 463.8,82.5 463.7,83.7 L463.7,84.5 L463.7,94.5 C463.7,95.5 464.3,95.7 465.2,95.8 C466.9,95.9 469.7,95.9 470.8,94.5 C471,94.3 471.2,94 471.4,93.7 L471.9,92.7 L472.4,92.7 L471.4,96.6 L459.5,96.6 L459.5,96.1 L459.5,96.1 C461.1,96.1 461.4,95.8 461.4,94.2 L461.4,84.5 L461.4,84.5 C461.4,82.8 461.1,82.6 459.5,82.6 L459.5,82.1 L465.8,82.1 L465.8,82.6 L465.9,82.6 L465.9,82.6 Z" id="Shape" fill="#1B2D74"></path>
                </g>
            </g>
        </g>
    </g>
</svg>