<?xml version="1.0" encoding="UTF-8"?>
<svg width="200px" height="50px" viewBox="0 0 200 50" version="1.1" xmlns="http://www.w3.org/2000/svg" xmlns:xlink="http://www.w3.org/1999/xlink">
    <!-- Generator: Sketch 42 (36781) - http://www.bohemiancoding.com/sketch -->
    <title>svg</title>
    <desc>Created with Sketch.</desc>
    <defs></defs>
    <g id="Page-1" stroke="none" stroke-width="1" fill="none" fill-rule="evenodd">
        <g id="svg">
            <g id="Page_1" transform="translate(0.000000, 8.000000)">
                <g id="Group">
                    <g id="Shape">
                        <path d="M19.173913,13.3043478 C17.6521739,16.3478261 15.9130435,19.3478261 14.0434783,22.173913 L14.0434783,22.173913 L14.0434783,22.173913 C9.17391304,22.4782609 4.43478261,23.2173913 0.0869565217,24.3913043 L0.0869565217,24.3913043 C6.26086957,17.6521739 11.3913043,8.86956522 14.0869565,0.130434783 L14.0869565,0.130434783 C15.2608696,4.43478261 17,8.91304348 19.173913,13.3043478 L19.173913,13.3043478 Z" fill="#BF0017"></path>
                        <path d="M14.0434783,22.173913 C17.4347826,21.9565217 20.9130435,21.9565217 24.3043478,22.2173913 C27,26.3043478 30.0434783,30.0869565 33.2608696,33.2173913 C24.3043478,31.2173913 14.0869565,31.173913 5.13043478,33.173913 L5.13043478,33.173913 L5.26086957,33.0434783 L5.39130435,32.9130435 L5.52173913,32.7826087 L5.65217391,32.6521739 L5.7826087,32.4782609 L5.91304348,32.3043478 L6.04347826,32.1304348 L6.17391304,31.9565217 L6.30434783,31.7826087 L6.30434783,31.7826087 L6.43478261,31.6086957 L6.43478261,31.6086957 L6.56521739,31.4347826 L6.56521739,31.4347826 L6.69565217,31.2608696 L6.69565217,31.2608696 L6.82608696,31.0869565 L6.82608696,31.0869565 L6.95652174,30.9130435 L6.95652174,30.9130435 L7.08695652,30.7391304 L7.08695652,30.7391304 L7.2173913,30.5652174 L7.2173913,30.5652174 L7.34782609,30.3913043 L7.34782609,30.3913043 L7.47826087,30.2173913 L7.47826087,30.2173913 L7.60869565,30.0434783 L7.60869565,30.0434783 L7.73913043,29.8695652 L7.73913043,29.8695652 L7.86956522,29.6956522 L7.86956522,29.6956522 L8,29.5217391 L8,29.5217391 L8.13043478,29.3478261 L8.13043478,29.3478261 L8.26086957,29.173913 L8.26086957,29.173913 C10.5652174,27.1304348 12.3478261,24.6956522 14.0434783,22.173913 L14.0434783,22.173913 Z" fill="#730000"></path>
                        <path d="M24.3478261,22.2173913 C22.4782609,19.3913043 20.7391304,16.3913043 19.2173913,13.3043478 C21.3913043,8.95652174 23.1304348,4.47826087 24.2608696,0.130434783 L24.2608696,0.130434783 C27.0434783,8.86956522 32.1304348,17.7391304 38.3913043,24.4347826 L38.3913043,24.4347826 C34,23.2608696 29.2173913,22.5217391 24.3478261,22.2173913 L24.3478261,22.2173913 Z" fill="#E60020"></path>
                        <path d="M24.3478261,22.2173913 C29.2608696,22.5217391 34.0434783,23.3043478 38.3913043,24.4347826 L33.3478261,33.2173913 C30.0869565,30.0434783 27.0434783,26.3043478 24.3478261,22.2173913 L24.3478261,22.2173913 Z" fill="#BF0017"></path>
                        <path d="M14.0434783,22.173913 C11.3478261,26.2173913 8.34782609,30 5.17391304,33.1304348 L0.0869565217,24.3478261 C4.43478261,23.2173913 9.17391304,22.4782609 14.0434783,22.173913 L14.0434783,22.173913 Z" fill="#E60020"></path>
                        <path d="M24.2173913,0.130434783 C23.0869565,4.47826087 21.3478261,8.95652174 19.173913,13.3043478 C17,8.95652174 15.2608696,4.43478261 14.0869565,0.130434783 L24.2173913,0.130434783 L24.2173913,0.130434783 Z" fill="#730000"></path>
                    </g>
                    <polygon id="Shape" fill="#231815" fill-rule="nonzero" points="142.26087 6.91304348 142.913043 6.91304348 142.913043 26.3043478 142.26087 26.3043478"></polygon>
                    <path d="M79.5652174,16.6086957 L85.173913,16.6086957 L85.173913,17.2608696 C85.173913,17.2608696 83.7391304,19.6521739 82.3913043,20.6521739 C82.3913043,20.6521739 80.6086957,19.4782609 79.2608696,17.0869565 L79.5652174,16.6086957 L79.5652174,16.6086957 Z M104.826087,13.0434783 L110.913043,13.0434783 L110.913043,15.6521739 L104.826087,15.6521739 L104.826087,13.0434783 L104.826087,13.0434783 Z M51.5217391,9.17391304 L59.6521739,9.17391304 C59.6521739,9.17391304 59.6086957,7.60869565 59.173913,7.04347826 L61.5217391,7.04347826 C61.5217391,7.04347826 62.0434783,8.91304348 61.9130435,9.2173913 L68.3478261,9.2173913 L68.3478261,11.3043478 L53.5652174,11.3043478 C53.5652174,11.3043478 53.6086957,15.7826087 53.5652174,17.5652174 C53.5217391,19.3478261 53.0869565,22.5217391 52.0869565,24.3043478 C51.3478261,25.6086957 50.6521739,26.3043478 50.6521739,26.3043478 L49.0869565,24.7391304 C49.0869565,24.7391304 51.173913,23 51.6086957,18.9565217 L51.5217391,9.17391304 L51.5217391,9.17391304 Z M72.9565217,6.95652174 L75,6.95652174 L74.3478261,10.4782609 L77.3913043,10.4782609 C77.3913043,10.4782609 77.9130435,8.26086957 78,7 L80.2173913,7 C80.2173913,7 79.7391304,10.173913 79.6086957,10.4782609 L85.8695652,10.4782609 C85.8695652,10.4782609 85.6956522,8.69565217 85.2173913,7.08695652 L87.4347826,7.08695652 C87.4347826,7.08695652 87.8695652,8.82608696 88,10.4347826 L90,10.4347826 L90,12.2608696 L79.173913,12.2608696 C79.173913,12.2608696 78.5652174,14.4782609 78.3043478,14.9565217 L86.4347826,14.9565217 L87.9565217,16.4347826 C87.9565217,16.4347826 86.173913,19.826087 83.8695652,21.8695652 C83.8695652,21.8695652 86.9130435,23.6956522 90.173913,24.5217391 L89.3913043,26.3043478 C89.3913043,26.3043478 84.5652174,24.9565217 82.3478261,23.173913 C82.3478261,23.173913 78.6086957,25.6521739 75.0869565,26.3043478 L74.0434783,24.3913043 C74.0434783,24.3913043 77.5217391,23.8695652 80.6086957,21.826087 C80.6086957,21.826087 78.3478261,19.3043478 77.1304348,17.3478261 C77.1304348,17.3478261 74.6521739,21.5217391 72.1304348,23.6521739 L70.6521739,22.2608696 C70.6521739,22.2608696 75.0434783,18.5652174 76.8695652,12.1304348 L72.9565217,12.1304348 L71.9565217,11.0434783 C72,11.173913 72.7826087,8.65217391 72.9565217,6.95652174 L72.9565217,6.95652174 Z M96,6.95652174 L98.173913,6.95652174 L97.3913043,9.56521739 L101.304348,9.56521739 L101.304348,11.2608696 L96.826087,11.2608696 L95.9130435,13.3043478 L96.173913,13.5217391 L100.695652,13.5217391 L100.695652,15.173913 L98.5217391,15.173913 L98.5217391,17.7826087 L101.086957,17.7826087 L101.086957,19.6521739 L98.5217391,19.6521739 L98.5217391,24.4347826 L101.043478,24.4347826 L101.043478,25.7391304 L99.1304348,25.7391304 C99.1304348,25.7391304 98.173913,26.0434783 97.8695652,26.2173913 L96.3913043,24.826087 L96.3913043,19.6521739 L94.2608696,19.6521739 L94.2608696,17.7391304 L96.4782609,17.7391304 L96.4782609,15.1304348 L95.1304348,15.1304348 L95.1304348,14.9130435 L93.8695652,13.5652174 C93.8695652,13.6086957 95.6521739,10.1304348 96,6.95652174 L96,6.95652174 Z M103.043478,7.47826087 L112.73913,7.47826087 L112.73913,17.3043478 L108.043478,17.3043478 C108.043478,17.3043478 108.434783,19.3043478 109.608696,20.4782609 L112.304348,18.6956522 L113.565217,20.3043478 C113.565217,20.3043478 111.26087,21.9565217 110.869565,22.0434783 C110.869565,22.0434783 111.26087,23.0434783 113.652174,24.826087 L112.043478,26.3913043 C112.043478,26.3913043 107.434783,22.5652174 105.826087,17.3913043 L104.826087,17.3913043 L104.826087,24.3478261 L107.130435,24.3478261 L107.130435,25.826087 C107.130435,25.826087 104.913043,25.9130435 103.913043,26.2173913 L102.913043,24.7391304 L103.043478,24.4347826 L103.043478,7.47826087 L103.043478,7.47826087 Z M104.826087,9.17391304 L110.913043,9.17391304 L110.913043,9.17391304 L110.913043,11.7826087 L110.913043,11.7826087 L104.826087,11.7826087 L104.826087,11.7826087 L104.826087,9.17391304 L104.826087,9.17391304 L104.826087,9.17391304 Z M120.826087,7.04347826 L122.956522,7.04347826 C122.956522,7.04347826 122.086957,11.173913 118.478261,13.9565217 L117.217391,12.4347826 C117.217391,12.4347826 120.086957,10.6086957 120.826087,7.04347826 L120.826087,7.04347826 Z M122.304348,12.0869565 L124.347826,12.0869565 C124.347826,12.0869565 124.086957,13.826087 122.043478,16.2173913 L122.043478,26.3043478 L120.304348,26.3043478 L120.304348,18.2608696 C120.304348,18.2608696 118.217391,20.2608696 117.913043,20.3913043 L116.826087,18.8695652 C116.826087,18.8695652 121.347826,15.2608696 122.304348,12.0869565 L122.304348,12.0869565 Z M126.173913,7.73913043 L135.782609,7.73913043 L135.782609,9.65217391 L126.173913,9.65217391 L126.173913,7.73913043 L126.173913,7.73913043 Z M125.478261,13.7826087 L136.391304,13.7826087 L136.391304,15.6521739 L134.347826,15.6521739 L134.347826,26.2608696 C134.347826,26.2608696 133.695652,25.8695652 132.782609,25.8695652 L127.913043,25.8695652 L127.913043,24.0434783 L132.521739,24.0434783 L132.521739,15.6086957 L125.434783,15.6086957 L125.478261,13.7826087 L125.478261,13.7826087 Z" id="Shape" fill="#231815"></path>
                    <g transform="translate(147.826087, 6.521739)" id="Shape" fill="#231815">
                        <path d="M27.5652174,0.304347826 C29.5652174,0.304347826 31.4347826,0.913043478 33,1.95652174 L32.173913,4.17391304 L32.1304348,4.13043478 L32.0869565,4.08695652 L32,4.04347826 L31.9565217,4 L31.8695652,3.91304348 L31.826087,3.86956522 L31.7391304,3.7826087 L31.6956522,3.73913043 C31.6521739,3.69565217 31.6086957,3.69565217 31.5652174,3.65217391 L31.5217391,3.60869565 C31.4782609,3.60869565 31.4347826,3.56521739 31.3913043,3.56521739 L31.3478261,3.52173913 L31.2608696,3.47826087 L31.173913,3.43478261 L31.0869565,3.39130435 L31.0434783,3.34782609 L30.9565217,3.30434783 L30.8695652,3.26086957 L30.7826087,3.2173913 L30.7391304,3.17391304 C30.6956522,3.17391304 30.6521739,3.13043478 30.6086957,3.13043478 L30.5652174,3.13043478 C30.5217391,3.13043478 30.4782609,3.08695652 30.4347826,3.08695652 L30.3913043,3.08695652 C30.3478261,3.08695652 30.3043478,3.04347826 30.2608696,3.04347826 L30.2173913,3.04347826 L30.0869565,3 L30.0434783,3 C30,3 29.9565217,2.95652174 29.8695652,2.95652174 L29.826087,2.95652174 C29.7826087,2.95652174 29.7391304,2.91304348 29.6956522,2.91304348 L29.6521739,2.91304348 C29.6086957,2.91304348 29.5652174,2.86956522 29.5217391,2.86956522 L29.4782609,2.86956522 C29.4347826,2.86956522 29.3913043,2.82608696 29.3478261,2.82608696 L29.3043478,2.82608696 C29.2608696,2.82608696 29.2173913,2.7826087 29.1304348,2.7826087 C29.0869565,2.7826087 29.0434783,2.7826087 28.9565217,2.73913043 L28.9130435,2.73913043 L28.7826087,2.73913043 L28.7391304,2.73913043 L28.6086957,2.73913043 L28.5652174,2.73913043 L28.3913043,2.73913043 L28.3478261,2.73913043 L28.173913,2.73913043 L28.173913,2.73913043 L27.7826087,2.73913043 L27.7826087,2.73913043 L27.6086957,2.73913043 C23.4347826,2.73913043 20.0869565,6.13043478 20.0869565,10.2608696 C20.0869565,14.4347826 23.4782609,17.7826087 27.6086957,17.7826087 C29,17.7826087 30.3043478,17.3913043 31.3913043,16.7391304 L31.3913043,12.173913 L26.2173913,12.2173913 L26.2173913,10.3478261 L33.4782609,10.3478261 L33.4782609,18.0434783 L33.4782609,18.0434783 L33.4782609,18.0434783 L33.4782609,18.0434783 L33.4782609,18.0434783 C31.826087,19.3043478 29.7826087,20.0434783 27.5217391,20.0434783 C22.0869565,20.0434783 17.6956522,15.6521739 17.6956522,10.2173913 C17.7391304,4.69565217 22.1304348,0.304347826 27.5652174,0.304347826 L27.5652174,0.304347826 Z" fill-rule="nonzero"></path>
                        <path d="M9.95652174,0.304347826 C11.9565217,0.304347826 13.826087,0.913043478 15.3913043,1.95652174 L14.5652174,4.17391304 C13.3043478,3.17391304 11.6956522,2.60869565 9.95652174,2.60869565 C5.7826087,2.60869565 2.43478261,6 2.43478261,10.1304348 C2.43478261,14.3043478 5.82608696,17.6521739 9.95652174,17.6521739 C11.7826087,17.6521739 13.4782609,17 14.7826087,15.9130435 L15.3043478,18.3478261 C13.7826087,19.3478261 11.9565217,19.9130435 9.95652174,19.9130435 C4.52173913,19.9130435 0.130434783,15.5217391 0.130434783,10.0869565 C0.130434783,4.69565217 4.52173913,0.304347826 9.95652174,0.304347826 L9.95652174,0.304347826 Z" fill-rule="nonzero"></path>
                        <path d="M40.8695652,11.1304348 L46.4347826,11.1304348 C46.8695652,11.1304348 49.4347826,11.9130435 49.4347826,14.3043478 C49.4782609,16.7826087 46.3043478,17.5217391 45.7391304,17.5217391 C45.6086957,17.5217391 40.826087,17.4782609 40.826087,17.4782609 L40.8695652,11.1304348 L40.8695652,11.1304348 Z M40.8695652,2.69565217 L46.3478261,2.69565217 C46.3478261,2.69565217 48.9565217,3.65217391 48.9565217,5.82608696 C48.9565217,7.69565217 46.6086957,8.95652174 46.5217391,8.95652174 L40.8695652,8.95652174 L40.8695652,2.69565217 L40.8695652,2.69565217 Z M38.6086957,0.913043478 L47.2173913,0.913043478 C47.2173913,0.913043478 51.2608696,2.08695652 51.2608696,5.60869565 C51.2608696,8.47826087 48.0434783,10 48.0434783,10 C48.0434783,10 51.9130435,11.1304348 51.9130435,14.6521739 C51.9130435,17.2608696 48.6086957,19.0869565 48.0434783,19.2173913 L38.5652174,19.2173913 L38.6086957,0.913043478 L38.6086957,0.913043478 Z"></path>
                    </g>
                </g>
            </g>
        </g>
    </g>
</svg>