<?xml version="1.0" encoding="UTF-8"?>
<svg width="200px" height="50px" viewBox="0 0 200 50" version="1.1" xmlns="http://www.w3.org/2000/svg" xmlns:xlink="http://www.w3.org/1999/xlink">
    <!-- Generator: Sketch 42 (36781) - http://www.bohemiancoding.com/sketch -->
    <title>svg</title>
    <desc>Created with Sketch.</desc>
    <defs></defs>
    <g id="Page-1" stroke="none" stroke-width="1" fill="none" fill-rule="evenodd">
        <g id="svg" fill-rule="nonzero">
            <g id="9-CMBC" transform="translate(0.000000, 9.000000)">
                <g id="Page-1">
                    <g id="Page_1">
                        <g id="图层_1_1_">
                            <g id="中国民生银行">
                                <path d="M60.1226994,1.96319018 C60.4907975,2.45398773 60.8588957,2.82208589 61.2269939,3.31288344 C64.1717791,3.55828221 67.1165644,3.92638037 69.9386503,4.17177914 C70.0613497,5.03067485 68.9570552,6.3803681 68.2208589,7.85276074 C67.7300613,8.83435583 68.0981595,10.1840491 67.8527607,10.797546 C65.1533742,10.6748466 63.190184,10.0613497 61.3496933,10.5521472 C60.2453988,12.2699387 61.2269939,16.4417178 60.2453988,18.5276074 C60,18.404908 59.3865031,18.6503067 59.1411043,18.5276074 C58.8957055,18.404908 58.8957055,17.9141104 58.7730061,17.791411 C58.8957055,16.809816 59.0184049,14.7239264 59.0184049,13.006135 C59.0184049,12.2699387 59.2638037,11.5337423 59.0184049,11.0429448 C58.8957055,10.797546 58.7730061,10.5521472 58.5276074,10.4294479 C55.9509202,11.0429448 53.3742331,11.6564417 50.9202454,12.1472393 C50.797546,12.0245399 50.797546,12.0245399 50.6748466,11.9018405 C50.9202454,9.69325153 52.0245399,9.69325153 52.1472393,7.11656442 C51.6564417,6.3803681 51.1656442,5.64417178 50.6748466,4.90797546 C50.797546,4.66257669 50.797546,4.41717791 50.9202454,4.29447853 C52.2699387,4.29447853 53.7423313,4.04907975 55.2147239,3.92638037 C56.809816,3.80368098 58.2822086,3.6809816 59.0184049,3.19018405 C59.5092025,2.6993865 59.7546012,2.33128834 60.1226994,1.96319018 L60.1226994,1.96319018 Z M87.1165644,2.57668712 C89.3251534,2.82208589 91.6564417,2.57668712 93.7423313,2.82208589 C94.4785276,2.94478528 95.7055215,2.94478528 95.8282209,3.43558282 L95.8282209,3.6809816 C95.3374233,5.15337423 95.3374233,5.15337423 94.7239264,6.62576687 C94.1104294,9.93865031 95.0920245,14.601227 94.2331288,17.5460123 L93.9877301,17.5460123 C91.5337423,16.5644172 88.5889571,16.3190184 85.6441718,16.3190184 C82.3312883,16.196319 79.0184049,16.3190184 76.3190184,16.9325153 C76.196319,16.6871166 76.196319,16.4417178 76.0736196,16.3190184 C76.3190184,15.5828221 76.0736196,14.7239264 76.196319,13.7423313 C76.3190184,12.2699387 76.6871166,10.5521472 76.6871166,8.95705521 C76.5644172,6.50306748 76.196319,4.17177914 76.809816,2.94478528 C80.2453988,2.6993865 83.6809816,2.6993865 87.1165644,2.57668712 L87.1165644,2.57668712 Z M109.570552,2.82208589 C112.02454,3.19018405 116.319018,3.43558282 119.386503,3.06748466 C119.263804,3.31288344 119.263804,3.6809816 119.141104,3.92638037 C117.055215,4.66257669 117.546012,6.25766871 116.319018,7.60736196 C114.723926,7.36196319 113.006135,7.2392638 111.90184,8.09815951 L111.90184,8.34355828 C112.147239,8.58895706 112.515337,8.83435583 112.760736,8.95705521 C114.110429,9.69325153 118.159509,8.34355828 119.509202,9.57055215 C119.631902,9.69325153 119.631902,10.0613497 119.754601,10.1840491 C119.631902,10.5521472 119.509202,10.5521472 118.650307,10.6748466 C117.300613,10.797546 114.723926,10.5521472 114.233129,11.1656442 C115.337423,13.2515337 116.441718,14.4785276 118.159509,15.2147239 C118.895706,15.5828221 120.122699,15.3374233 121.104294,15.5828221 C121.717791,15.7055215 122.08589,16.196319 122.699387,16.4417178 C122.453988,16.6871166 122.208589,17.0552147 122.08589,17.3006135 C121.349693,17.4233129 120.613497,18.0368098 120,18.1595092 C119.386503,18.2822086 118.773006,17.9141104 118.159509,18.0368098 C117.300613,17.4233129 116.441718,16.6871166 115.828221,15.8282209 C115.092025,14.7239264 114.601227,13.4969325 113.619632,12.7607362 C113.006135,13.2515337 112.883436,13.8650307 112.02454,14.2331288 C110.429448,14.8466258 107.852761,14.9693252 106.257669,15.5828221 C104.907975,16.0736196 104.171779,17.0552147 103.190184,17.5460123 C102.944785,17.4233129 102.699387,17.3006135 102.576687,17.0552147 L102.576687,16.809816 C102.699387,16.4417178 102.453988,15.9509202 102.576687,15.7055215 C102.944785,14.8466258 103.680982,14.3558282 103.92638,13.4969325 C104.662577,10.9202454 104.662577,7.73006135 103.803681,3.6809816 C103.92638,3.55828221 103.92638,3.55828221 104.04908,3.43558282 C105.889571,3.55828221 107.852761,3.55828221 109.570552,2.82208589 L109.570552,2.82208589 Z M156.441718,3.06748466 C156.809816,3.43558282 157.055215,3.92638037 157.300613,4.41717791 L160.981595,4.41717791 L160.981595,5.27607362 C160.490798,5.39877301 160.858896,5.76687117 160.368098,5.88957055 C159.263804,6.13496933 157.300613,5.76687117 156.196319,6.01226994 C155.582822,6.13496933 155.460123,6.87116564 155.092025,7.2392638 C155.214724,7.48466258 155.214724,7.73006135 155.337423,7.85276074 C156.564417,7.60736196 159.386503,6.87116564 160.613497,7.60736196 C160.858896,7.73006135 160.736196,8.09815951 160.858896,8.34355828 C160.613497,8.46625767 160.490798,8.83435583 160.245399,8.95705521 C159.631902,9.0797546 158.650307,8.83435583 158.159509,9.0797546 C157.91411,9.20245399 157.91411,9.57055215 157.791411,9.69325153 C158.03681,9.93865031 158.282209,10.3067485 158.404908,10.5521472 L160.613497,10.5521472 C160.368098,10.797546 160.122699,11.1656442 160,11.4110429 C158.650307,11.5337423 158.03681,11.9018405 157.546012,12.8834356 C157.423313,13.3742331 157.423313,13.7423313 157.300613,14.2331288 C157.546012,14.3558282 157.791411,14.4785276 157.91411,14.7239264 C158.404908,14.4785276 158.773006,13.8650307 159.263804,13.6196319 C159.509202,13.4969325 159.877301,13.7423313 160.122699,13.6196319 C159.877301,13.8650307 160.245399,13.9877301 160,14.2331288 C158.895706,15.3374233 157.300613,16.5644172 156.196319,17.6687117 C155.95092,17.9141104 155.460123,17.9141104 155.092025,18.1595092 C155.214724,17.791411 154.969325,17.5460123 155.092025,17.1779141 C155.337423,16.5644172 155.828221,16.0736196 156.07362,15.5828221 C156.564417,14.601227 156.687117,13.4969325 156.196319,12.0245399 C155.460123,12.1472393 154.723926,12.1472393 153.98773,12.2699387 L153.98773,11.6564417 C154.110429,11.5337423 154.110429,11.4110429 154.233129,11.1656442 C155.582822,11.0429448 156.196319,10.6748466 156.809816,9.81595092 C156.687117,9.69325153 156.441718,9.32515337 156.07362,9.32515337 C155.582822,9.20245399 154.846626,9.20245399 154.601227,8.95705521 C154.233129,8.58895706 154.846626,7.73006135 154.478528,7.48466258 C154.233129,7.36196319 153.619632,7.48466258 153.496933,7.36196319 C153.251534,7.2392638 153.619632,7.11656442 153.374233,6.99386503 C153.619632,6.13496933 153.619632,6.13496933 154.233129,5.64417178 C154.355828,5.39877301 154.355828,5.03067485 154.601227,4.90797546 C155.214724,4.17177914 155.95092,3.6809816 156.441718,3.06748466 L156.441718,3.06748466 Z M137.668712,3.31288344 C137.791411,3.55828221 138.159509,3.19018405 138.282209,3.43558282 C138.527607,4.04907975 138.527607,5.27607362 139.263804,5.64417178 C140.736196,6.3803681 144.04908,5.76687117 145.644172,6.3803681 C146.01227,6.50306748 145.766871,6.99386503 146.01227,7.2392638 L146.01227,7.48466258 C145.030675,7.60736196 143.803681,7.73006135 142.453988,7.60736196 C141.226994,7.60736196 139.631902,7.36196319 138.773006,7.85276074 C138.282209,8.09815951 138.404908,8.58895706 138.282209,9.20245399 C138.404908,9.44785276 138.527607,9.69325153 138.773006,9.81595092 C141.104294,10.0613497 143.558282,10.0613497 145.521472,10.6748466 C145.398773,10.9202454 145.398773,11.2883436 145.276074,11.5337423 C143.067485,11.5337423 140.245399,10.797546 138.282209,11.7791411 L138.282209,13.1288344 C138.404908,13.4969325 138.527607,13.8650307 138.773006,14.2331288 C141.840491,14.7239264 144.417178,15.7055215 147.361963,15.0920245 C147.116564,16.196319 146.871166,16.809816 146.01227,17.3006135 C144.907975,17.9141104 143.312883,17.0552147 141.349693,16.4417178 C139.877301,16.0736196 138.03681,15.9509202 136.687117,15.9509202 C133.865031,16.3190184 131.042945,16.6871166 128.09816,17.0552147 C127.97546,16.809816 127.97546,16.5644172 127.852761,16.4417178 L127.852761,15.9509202 C128.09816,15.7055215 128.466258,15.3374233 128.711656,15.0920245 C129.93865,15.2147239 131.411043,14.8466258 132.638037,14.7239264 C134.355828,14.4785276 135.95092,14.3558282 136.809816,13.8650307 C136.687117,13.1288344 136.564417,12.392638 136.319018,11.6564417 C133.865031,11.7791411 131.656442,12.392638 129.93865,11.6564417 C130.06135,11.4110429 130.06135,11.1656442 130.184049,11.0429448 C130.306748,10.9202454 130.429448,10.797546 130.674847,10.5521472 C132.02454,10.6748466 135.337423,10.4294479 136.564417,9.69325153 C137.055215,9.20245399 136.932515,9.32515337 137.055215,8.34355828 C136.932515,8.09815951 136.809816,7.85276074 136.564417,7.73006135 C133.865031,7.85276074 131.411043,8.83435583 129.570552,9.69325153 C129.079755,9.93865031 128.588957,9.69325153 127.97546,9.57055215 L127.97546,8.95705521 C129.447853,7.85276074 130.184049,6.50306748 131.042945,4.78527607 C131.288344,4.90797546 131.533742,5.03067485 131.656442,5.27607362 C131.779141,5.76687117 131.90184,6.25766871 132.147239,6.74846626 C134.110429,6.74846626 135.705521,6.3803681 137.177914,5.39877301 C137.300613,5.03067485 137.055215,4.41717791 137.177914,4.04907975 C137.177914,3.55828221 137.546012,3.55828221 137.668712,3.31288344 L137.668712,3.31288344 Z M182.822086,3.43558282 C184.294479,3.31288344 185.766871,3.43558282 186.503067,4.04907975 C186.380368,4.29447853 186.257669,4.5398773 186.01227,4.66257669 C184.539877,5.27607362 182.944785,6.01226994 181.472393,6.62576687 C181.226994,6.50306748 180.858896,6.62576687 180.736196,6.62576687 C180.490798,6.50306748 180.245399,6.13496933 180,6.01226994 L180,4.29447853 C180.122699,4.17177914 180.122699,4.04907975 180.245399,3.80368098 C180.981595,3.80368098 181.96319,3.6809816 182.822086,3.43558282 L182.822086,3.43558282 Z M192.02454,3.43558282 C193.251534,3.43558282 194.969325,3.19018405 196.441718,3.43558282 C197.300613,3.55828221 197.91411,4.04907975 198.527607,4.29447853 C198.404908,4.5398773 198.404908,4.78527607 198.282209,4.90797546 C198.159509,5.03067485 198.03681,5.15337423 197.791411,5.39877301 C196.07362,5.27607362 193.98773,5.15337423 192.147239,5.27607362 C190.552147,5.39877301 189.325153,5.88957055 188.343558,5.76687117 C188.220859,5.52147239 188.220859,5.27607362 188.09816,5.15337423 C188.343558,4.78527607 188.588957,4.41717791 188.711656,4.04907975 C189.202454,3.92638037 189.447853,3.6809816 189.93865,3.55828221 C190.674847,3.55828221 191.411043,3.55828221 192.02454,3.43558282 L192.02454,3.43558282 Z M82.9447853,3.6809816 C81.4723926,4.17177914 79.2638037,3.80368098 78.404908,4.78527607 C77.791411,5.39877301 77.9141104,7.36196319 77.9141104,9.32515337 C77.9141104,11.9018405 77.791411,14.4785276 78.1595092,15.3374233 C79.3865031,15.2147239 79.7546012,14.8466258 80.8588957,14.601227 C82.0858896,14.3558282 83.803681,14.3558282 85.398773,14.4785276 L87.8527607,14.4785276 C89.4478528,14.7239264 91.0429448,15.0920245 92.6380368,15.3374233 C92.7607362,15.2147239 92.7607362,15.2147239 92.8834356,15.0920245 C93.1288344,14.9693252 93.3742331,14.8466258 93.4969325,14.601227 L93.4969325,9.81595092 C93.6196319,7.97546012 94.1104294,5.64417178 93.006135,4.17177914 C89.5705521,3.92638037 86.2576687,3.80368098 82.9447853,3.6809816 L82.9447853,3.6809816 Z M165.644172,3.6809816 C167.730061,3.55828221 170.552147,3.55828221 171.288344,4.29447853 C171.042945,5.03067485 170.552147,6.25766871 170.306748,7.48466258 C170.06135,8.46625767 170.306748,9.57055215 170.06135,10.4294479 C169.815951,11.1656442 169.325153,11.7791411 168.957055,12.2699387 C170.06135,14.7239264 172.638037,15.7055215 173.496933,17.9141104 C172.760736,18.0368098 172.02454,18.1595092 171.288344,18.404908 C170.797546,18.1595092 170.184049,17.791411 169.815951,17.1779141 C169.447853,16.6871166 169.447853,15.8282209 169.079755,15.5828221 C168.711656,15.3374233 168.588957,16.196319 168.09816,16.0736196 C166.871166,16.4417178 165.521472,16.4417178 164.294479,16.6871166 C162.699387,17.0552147 161.104294,17.6687117 159.386503,18.1595092 C159.263804,18.0368098 159.263804,17.9141104 159.141104,17.6687117 C160.122699,16.4417178 162.576687,15.9509202 162.208589,14.1104294 C162.576687,12.7607362 162.699387,10.5521472 162.699387,8.58895706 C162.576687,6.99386503 162.208589,5.52147239 162.453988,4.5398773 C162.576687,4.17177914 162.944785,4.04907975 163.067485,3.80368098 C164.171779,4.17177914 165.030675,4.17177914 165.644172,3.6809816 L165.644172,3.6809816 Z M111.656442,4.04907975 C110.674847,4.41717791 109.447853,4.29447853 108.466258,4.41717791 C107.361963,4.5398773 106.625767,4.90797546 105.766871,5.39877301 L105.766871,5.64417178 C106.01227,6.62576687 106.01227,6.3803681 106.380368,6.99386503 C109.079755,6.13496933 113.006135,6.87116564 116.196319,6.13496933 L116.196319,5.03067485 C116.07362,4.78527607 115.95092,4.5398773 115.705521,4.41717791 C114.355828,4.17177914 113.006135,4.29447853 111.656442,4.04907975 L111.656442,4.04907975 Z M61.595092,4.78527607 C61.3496933,5.27607362 61.1042945,5.64417178 60.9815951,6.13496933 L60.9815951,7.85276074 C61.2269939,8.2208589 60.9815951,7.97546012 61.4723926,8.34355828 C63.3128834,9.81595092 68.7116564,8.71165644 66.7484663,5.27607362 C65.0306748,5.03067485 63.3128834,4.90797546 61.595092,4.78527607 L61.595092,4.78527607 Z M57.6687117,5.03067485 C56.5644172,5.39877301 55.4601227,5.76687117 54.3558282,6.13496933 C53.8650307,6.99386503 53.2515337,7.60736196 53.7423313,8.71165644 C53.8650307,8.95705521 53.9877301,9.20245399 54.2331288,9.32515337 C56.0736196,9.32515337 58.0368098,8.71165644 59.2638037,7.97546012 C59.3865031,7.2392638 59.5092025,6.50306748 59.7546012,5.76687117 C59.6319018,5.52147239 59.5092025,5.27607362 59.2638037,5.15337423 C58.7730061,5.15337423 58.2822086,5.03067485 57.6687117,5.03067485 L57.6687117,5.03067485 Z M166.993865,5.27607362 C166.503067,5.52147239 165.766871,5.52147239 165.153374,5.64417178 C164.785276,5.76687117 164.539877,6.13496933 164.171779,6.3803681 C164.294479,6.74846626 164.294479,7.11656442 164.417178,7.48466258 C166.503067,7.48466258 168.343558,7.60736196 169.693252,6.87116564 L169.693252,6.62576687 L169.693252,6.01226994 C169.447853,5.76687117 169.202454,5.52147239 169.079755,5.39877301 C168.343558,5.27607362 167.730061,5.27607362 166.993865,5.27607362 L166.993865,5.27607362 Z M83.3128834,5.39877301 C86.0122699,5.27607362 90.1840491,4.90797546 91.9018405,6.01226994 C92.0245399,6.13496933 92.1472393,6.13496933 92.392638,6.25766871 C92.1472393,6.50306748 91.9018405,6.74846626 91.7791411,6.87116564 C90.9202454,6.62576687 89.8159509,6.62576687 88.8343558,6.62576687 C87.8527607,6.62576687 86.993865,6.62576687 86.1349693,6.87116564 L86.1349693,7.97546012 L86.6257669,7.97546012 C88.3435583,8.2208589 90.1840491,8.46625767 91.9018405,8.58895706 L91.9018405,8.83435583 L91.9018405,9.32515337 C90.6748466,9.69325153 90.0613497,9.69325153 89.3251534,10.4294479 C89.4478528,10.5521472 89.5705521,10.6748466 89.8159509,10.9202454 C90.4294479,11.5337423 91.7791411,11.7791411 92.392638,12.2699387 C92.2699387,12.5153374 92.1472393,12.7607362 91.9018405,12.8834356 C87.9754601,12.2699387 83.3128834,12.7607362 79.8773006,13.1288344 C79.7546012,12.392638 79.6319018,12.392638 80.1226994,11.7791411 C81.7177914,12.1472393 83.5582822,11.2883436 84.9079755,10.6748466 C84.7852761,10.3067485 84.6625767,9.93865031 84.4171779,9.57055215 C82.5766871,9.69325153 80.3680982,10.5521472 79.8773006,9.0797546 L80.3680982,9.0797546 C81.595092,8.46625767 83.803681,8.46625767 84.7852761,7.60736196 C84.6625767,7.36196319 84.6625767,6.99386503 84.5398773,6.74846626 C83.0674847,6.87116564 81.4723926,6.87116564 80,6.99386503 C79.8773006,6.87116564 79.8773006,6.74846626 79.7546012,6.50306748 C79.8773006,6.3803681 79.8773006,6.25766871 80,6.01226994 C81.1042945,6.13496933 82.4539877,6.01226994 83.3128834,5.39877301 L83.3128834,5.39877301 Z M108.711656,7.60736196 C107.97546,7.73006135 107.239264,7.85276074 106.503067,8.09815951 C106.134969,8.71165644 106.380368,8.34355828 105.889571,8.71165644 C106.01227,8.95705521 106.01227,9.32515337 106.134969,9.57055215 C106.380368,10.0613497 106.380368,9.93865031 106.748466,10.1840491 C107.97546,9.81595092 110.306748,9.57055215 111.165644,8.71165644 C110.920245,8.34355828 110.674847,7.97546012 110.552147,7.60736196 L108.711656,7.60736196 L108.711656,7.60736196 Z M185.398773,7.60736196 C185.889571,7.85276074 185.766871,7.85276074 186.01227,8.2208589 C185.521472,8.95705521 185.030675,9.69325153 184.785276,10.5521472 C184.417178,11.6564417 184.417178,12.8834356 184.04908,13.9877301 C183.558282,15.2147239 182.699387,16.0736196 181.717791,16.809816 C180.613497,16.5644172 180.245399,16.3190184 180,15.3374233 C182.699387,15.2147239 184.785276,12.392638 183.558282,9.81595092 C182.331288,10.0613497 181.226994,10.4294479 180,10.6748466 L180,9.20245399 C180.122699,9.0797546 180.122699,8.95705521 180.245399,8.71165644 C181.96319,8.34355828 183.680982,7.97546012 185.398773,7.60736196 L185.398773,7.60736196 Z M190.920245,7.60736196 C193.496933,7.73006135 199.263804,7.48466258 199.263804,8.46625767 C199.263804,9.57055215 198.527607,9.81595092 197.791411,9.93865031 C196.809816,10.0613497 195.460123,9.81595092 194.233129,10.1840491 C193.865031,12.5153374 195.214724,17.791411 193.619632,18.5276074 C194.110429,18.6503067 193.496933,18.404908 193.128834,18.1595092 C192.515337,14.9693252 193.619632,11.6564417 192.392638,9.44785276 C192.269939,9.44785276 191.90184,9.20245399 191.90184,9.20245399 C190.429448,9.44785276 189.447853,10.1840491 187.97546,9.81595092 C187.730061,8.95705521 187.730061,9.32515337 187.730061,8.46625767 C188.343558,7.85276074 189.815951,7.97546012 190.920245,7.60736196 L190.920245,7.60736196 Z M167.484663,8.34355828 C166.257669,8.83435583 165.030675,8.71165644 164.171779,9.69325153 C164.04908,10.0613497 164.04908,10.4294479 163.92638,10.797546 L164.417178,10.797546 C165.521472,11.1656442 168.220859,10.6748466 168.957055,10.1840491 L168.957055,9.93865031 C168.711656,9.0797546 168.711656,9.0797546 168.09816,8.58895706 C167.852761,8.46625767 167.730061,8.34355828 167.484663,8.34355828 L167.484663,8.34355828 Z M86.3803681,9.44785276 C85.6441718,11.0429448 86.7484663,11.9018405 88.3435583,10.9202454 L88.3435583,10.6748466 C88.2208589,10.3067485 88.0981595,9.93865031 87.8527607,9.57055215 C87.4846626,9.57055215 86.8711656,9.44785276 86.3803681,9.44785276 L86.3803681,9.44785276 Z M111.411043,10.3067485 C109.693252,10.6748466 107.852761,11.0429448 106.134969,11.4110429 C105.889571,11.9018405 105.644172,12.2699387 105.521472,12.7607362 C105.644172,13.1288344 105.644172,13.4969325 105.766871,13.8650307 C108.09816,13.3742331 110.429448,13.006135 112.760736,12.5153374 C113.251534,12.0245399 113.006135,12.392638 113.251534,11.6564417 C113.006135,11.4110429 112.760736,11.0429448 112.638037,10.797546 C112.147239,10.5521472 111.779141,10.4294479 111.411043,10.3067485 L111.411043,10.3067485 Z M165.030675,11.5337423 C164.539877,12.0245399 164.04908,12.392638 163.558282,12.8834356 C163.435583,14.4785276 163.558282,14.7239264 164.417178,15.4601227 C164.539877,15.3374233 164.662577,15.4601227 164.907975,15.3374233 C165.889571,14.8466258 166.134969,13.9877301 166.625767,12.8834356 C166.503067,12.392638 166.380368,12.0245399 166.134969,11.5337423 L165.030675,11.5337423 L165.030675,11.5337423 Z M167.484663,13.1288344 C167.239264,13.4969325 166.871166,13.8650307 166.625767,14.2331288 C166.748466,14.601227 166.748466,14.9693252 166.871166,15.3374233 C167.484663,15.2147239 168.09816,15.2147239 168.588957,15.0920245 C168.711656,14.9693252 168.711656,14.8466258 168.834356,14.601227 C168.711656,14.1104294 168.588957,13.7423313 168.343558,13.2515337 C167.97546,13.2515337 167.730061,13.1288344 167.484663,13.1288344 L167.484663,13.1288344 Z" id="Shape" fill="#000000"></path>
                                <path d="M20.9815951,7.48466258 L25.0306748,9.69325153 L21.1042945,12.0245399 L17.0552147,9.93865031 L20.9815951,7.48466258 L20.9815951,7.48466258 Z M21.2269939,4.90797546 L30.3067485,9.93865031 L26.2576687,12.392638 C26.2576687,12.392638 36.3190184,13.4969325 40.1226994,18.2822086 C40.1226994,18.2822086 45.6441718,26.2576687 32.6380368,30.3067485 C32.6380368,30.3067485 7.48466258,36.4417178 0.490797546,22.4539877 L6.3803681,22.208589 C6.3803681,22.208589 10.9202454,30.797546 20.6134969,29.8159509 C20.6134969,29.8159509 37.6687117,29.202454 34.7239264,19.8773006 C34.7239264,19.8773006 31.2883436,13.6196319 19.6319018,13.7423313 L12.5153374,9.69325153 L21.2269939,4.90797546 L21.2269939,4.90797546 Z" id="Shape" fill="#1D2088"></path>
                                <path d="M16.9325153,21.8404908 L20.9815951,19.6319018 L25.1533742,21.8404908 L20.8588957,24.0490798 L16.9325153,21.8404908 L16.9325153,21.8404908 Z M21.7177914,0.122699387 C28.0981595,0.613496933 38.6503067,2.08588957 41.7177914,9.57055215 L35.4601227,9.57055215 C33.2515337,-0.122699387 10.6748466,-1.59509202 7.36196319,8.09815951 C5.64417178,12.5153374 12.0245399,17.6687117 16.6871166,17.5460123 C17.6687117,17.5460123 19.1411043,17.0552147 20.6134969,17.3006135 L28.8343558,21.7177914 L20.6134969,26.5030675 C17.6687117,24.7852761 14.601227,23.0674847 11.6564417,21.3496933 C13.006135,20.4907975 14.3558282,19.7546012 15.8282209,18.8957055 C9.0797546,18.1595092 -0.490797546,14.4785276 0.736196319,8.2208589 C2.33128834,0.490797546 15.3374233,-0.245398773 21.7177914,0.122699387 L21.7177914,0.122699387 Z" id="Shape" fill="#5AA572"></path>
                                <g id="Group" transform="translate(49.079755, 22.085890)" fill="#000000">
                                    <path d="M4.78527607,4.66257669 L4.90797546,4.66257669 L4.66257669,6.01226994 C4.29447853,6.25766871 3.92638037,6.3803681 3.43558282,6.50306748 C3.06748466,6.62576687 2.6993865,6.62576687 2.33128834,6.62576687 C1.96319018,6.62576687 1.71779141,6.50306748 1.47239264,6.3803681 C1.22699387,6.25766871 1.10429448,6.01226994 0.981595092,5.76687117 C0.858895706,5.52147239 0.858895706,5.15337423 0.858895706,4.78527607 C0.858895706,4.41717791 0.981595092,4.04907975 1.10429448,3.6809816 C1.22699387,3.31288344 1.47239264,2.94478528 1.71779141,2.6993865 C1.96319018,2.33128834 2.20858896,2.08588957 2.57668712,1.8404908 C2.94478528,1.47239264 3.31288344,1.34969325 3.6809816,1.10429448 C4.04907975,0.981595092 4.5398773,0.858895706 4.90797546,0.858895706 C5.27607362,0.858895706 5.52147239,0.858895706 5.76687117,0.981595092 C6.01226994,1.10429448 6.25766871,1.22699387 6.50306748,1.47239264 L5.52147239,3.06748466 L5.39877301,3.06748466 C5.64417178,2.33128834 5.64417178,1.8404908 5.64417178,1.59509202 C5.64417178,1.34969325 5.39877301,1.10429448 5.03067485,1.10429448 C4.66257669,1.10429448 4.17177914,1.34969325 3.80368098,1.8404908 C3.31288344,2.33128834 2.94478528,2.94478528 2.6993865,3.80368098 C2.45398773,4.5398773 2.33128834,5.03067485 2.45398773,5.52147239 C2.57668712,6.01226994 2.82208589,6.13496933 3.19018405,6.13496933 C3.55828221,6.13496933 3.80368098,6.01226994 4.17177914,5.76687117 C4.17177914,5.64417178 4.5398773,5.15337423 4.78527607,4.66257669 L4.78527607,4.66257669 Z M5.15337423,6.62576687 L5.15337423,6.62576687 C5.39877301,6.3803681 5.64417178,6.25766871 5.76687117,6.01226994 C5.88957055,5.76687117 6.13496933,5.27607362 6.3803681,4.66257669 L6.50306748,4.29447853 L7.36196319,1.96319018 C7.48466258,1.71779141 7.48466258,1.59509202 7.48466258,1.47239264 C7.48466258,1.34969325 7.48466258,1.34969325 7.36196319,1.22699387 L7.36196319,1.10429448 L7.97546012,1.10429448 L8.34355828,1.10429448 L8.71165644,1.10429448 L9.32515337,1.10429448 L9.32515337,1.22699387 C9.20245399,1.22699387 9.0797546,1.34969325 9.0797546,1.47239264 C8.95705521,1.59509202 8.95705521,1.71779141 8.83435583,1.96319018 L8.2208589,3.55828221 L8.34355828,3.55828221 L8.71165644,3.55828221 L9.20245399,3.55828221 L9.44785276,3.55828221 L9.81595092,3.55828221 L10.4294479,1.96319018 C10.5521472,1.71779141 10.5521472,1.59509202 10.5521472,1.47239264 C10.5521472,1.34969325 10.5521472,1.34969325 10.4294479,1.22699387 L10.4294479,1.10429448 L11.0429448,1.10429448 L11.4110429,1.10429448 L11.7791411,1.10429448 L12.392638,1.10429448 L12.392638,1.22699387 C12.2699387,1.22699387 12.1472393,1.34969325 12.1472393,1.47239264 C12.0245399,1.59509202 12.0245399,1.71779141 11.9018405,1.96319018 L10.9202454,4.5398773 C10.6748466,5.27607362 10.4294479,5.76687117 10.4294479,6.01226994 C10.4294479,6.25766871 10.4294479,6.3803681 10.5521472,6.50306748 L10.5521472,6.62576687 L10.0613497,6.62576687 L9.44785276,6.62576687 L8.83435583,6.62576687 L8.2208589,6.62576687 L8.2208589,6.50306748 C8.46625767,6.3803681 8.58895706,6.25766871 8.83435583,6.01226994 L9.57055215,4.5398773 L9.69325153,4.29447853 L9.81595092,3.92638037 L9.57055215,3.92638037 L9.20245399,3.92638037 L8.71165644,3.92638037 L8.34355828,3.92638037 L8.09815951,3.92638037 L7.85276074,4.66257669 C7.60736196,5.39877301 7.48466258,5.76687117 7.36196319,6.01226994 C7.36196319,6.25766871 7.36196319,6.3803681 7.48466258,6.50306748 L7.48466258,6.62576687 L6.99386503,6.62576687 L6.3803681,6.62576687 L5.76687117,6.62576687 L5.15337423,6.62576687 L5.15337423,6.62576687 Z M11.1656442,6.62576687 L11.1656442,6.62576687 C11.4110429,6.3803681 11.6564417,6.25766871 11.7791411,6.01226994 C11.9018405,5.76687117 12.1472393,5.27607362 12.392638,4.66257669 L12.5153374,4.29447853 L13.3742331,1.96319018 C13.4969325,1.71779141 13.4969325,1.59509202 13.4969325,1.47239264 C13.4969325,1.34969325 13.4969325,1.34969325 13.3742331,1.22699387 L13.3742331,1.10429448 L13.9877301,1.10429448 L14.3558282,1.10429448 L14.7239264,1.10429448 L15.3374233,1.10429448 L15.3374233,1.22699387 C15.2147239,1.22699387 15.0920245,1.34969325 15.0920245,1.47239264 C14.9693252,1.59509202 14.9693252,1.71779141 14.8466258,1.96319018 L13.7423313,4.66257669 C13.4969325,5.39877301 13.3742331,5.76687117 13.2515337,6.01226994 C13.2515337,6.25766871 13.2515337,6.3803681 13.3742331,6.50306748 L13.3742331,6.62576687 L12.8834356,6.62576687 L12.2699387,6.62576687 L11.6564417,6.62576687 L11.1656442,6.62576687 L11.1656442,6.62576687 Z M16.5644172,2.33128834 L15.8282209,4.04907975 C15.4601227,4.90797546 15.3374233,5.52147239 15.3374233,5.88957055 C15.3374233,6.13496933 15.4601227,6.3803681 15.7055215,6.50306748 L15.7055215,6.62576687 L15.3374233,6.62576687 L14.8466258,6.62576687 L14.3558282,6.62576687 L13.8650307,6.62576687 L13.8650307,6.50306748 C14.2331288,6.3803681 14.4785276,6.13496933 14.7239264,5.88957055 C14.9693252,5.64417178 15.2147239,5.03067485 15.5828221,4.04907975 L16.3190184,2.33128834 C16.4417178,1.96319018 16.5644172,1.71779141 16.4417178,1.59509202 C16.4417178,1.47239264 16.3190184,1.34969325 16.0736196,1.22699387 L16.0736196,1.10429448 L16.5644172,1.10429448 L17.1779141,1.10429448 L17.5460123,1.10429448 L17.9141104,1.10429448 L19.0184049,4.17177914 L19.2638037,3.55828221 C19.6319018,2.6993865 19.7546012,2.08588957 19.8773006,1.71779141 C19.8773006,1.47239264 19.7546012,1.22699387 19.5092025,1.10429448 L19.5092025,0.981595092 L19.8773006,0.981595092 L20.4907975,0.981595092 L21.1042945,0.981595092 L21.4723926,0.981595092 L21.4723926,1.10429448 C21.1042945,1.22699387 20.8588957,1.47239264 20.6134969,1.71779141 C20.3680982,1.96319018 20.1226994,2.57668712 19.7546012,3.55828221 L18.5276074,6.62576687 L18.404908,6.62576687 L16.5644172,2.33128834 L16.5644172,2.33128834 Z M22.6993865,4.04907975 L22.6993865,2.82208589 L21.7177914,4.04907975 L22.6993865,4.04907975 L22.6993865,4.04907975 Z M19.0184049,6.62576687 L19.0184049,6.62576687 C19.3865031,6.3803681 20,5.88957055 20.7361963,4.90797546 L20.8588957,4.78527607 L23.9263804,1.10429448 L24.0490798,1.10429448 L24.1717791,5.76687117 C24.1717791,6.13496933 24.1717791,6.25766871 24.2944785,6.3803681 C24.2944785,6.50306748 24.4171779,6.50306748 24.5398773,6.50306748 L24.5398773,6.62576687 C24.5398773,6.62576687 24.5398773,6.62576687 24.4171779,6.62576687 L23.3128834,6.62576687 L22.0858896,6.62576687 L21.9631902,6.62576687 L21.9631902,6.50306748 C22.0858896,6.50306748 22.208589,6.50306748 22.3312883,6.3803681 C22.4539877,6.25766871 22.4539877,6.25766871 22.5766871,6.01226994 C22.5766871,5.88957055 22.5766871,5.88957055 22.6993865,5.76687117 L22.6993865,5.52147239 L22.6993865,4.41717791 L21.595092,4.41717791 C21.3496933,4.78527607 21.1042945,5.03067485 20.9815951,5.27607362 C20.8588957,5.52147239 20.7361963,5.64417178 20.6134969,5.88957055 C20.4907975,6.01226994 20.4907975,6.25766871 20.6134969,6.3803681 C20.6134969,6.50306748 20.7361963,6.50306748 20.8588957,6.62576687 L20.8588957,6.74846626 L20.3680982,6.74846626 L20,6.74846626 L19.6319018,6.74846626 C19.3865031,6.62576687 19.1411043,6.62576687 19.0184049,6.62576687 L19.0184049,6.62576687 Z M26.3803681,6.62576687 L26.3803681,6.62576687 C26.7484663,6.3803681 26.993865,6.25766871 27.2392638,5.88957055 C27.4846626,5.64417178 27.7300613,5.03067485 28.0981595,4.04907975 L28.8343558,2.33128834 C28.9570552,1.96319018 29.0797546,1.71779141 28.9570552,1.59509202 C28.9570552,1.47239264 28.8343558,1.34969325 28.5889571,1.22699387 L28.5889571,1.10429448 L28.9570552,1.10429448 L29.5705521,1.10429448 L30.1840491,1.10429448 L30.5521472,1.10429448 L30.3067485,4.17177914 L32.6380368,1.10429448 L33.006135,1.10429448 L33.2515337,1.10429448 L34.2331288,1.10429448 L34.2331288,1.10429448 L34.2331288,1.22699387 C34.1104294,1.22699387 33.9877301,1.34969325 33.9877301,1.47239264 C33.8650307,1.59509202 33.8650307,1.71779141 33.7423313,1.96319018 L32.7607362,4.5398773 C32.5153374,5.27607362 32.2699387,5.76687117 32.2699387,6.01226994 C32.2699387,6.25766871 32.2699387,6.3803681 32.392638,6.50306748 L32.392638,6.62576687 L31.9018405,6.62576687 L31.2883436,6.62576687 L30.6748466,6.62576687 L30.1840491,6.62576687 L30.1840491,6.50306748 C30.4294479,6.3803681 30.5521472,6.25766871 30.797546,6.01226994 C30.9202454,5.76687117 31.1656442,5.27607362 31.5337423,4.5398773 L31.6564417,4.29447853 L32.392638,2.33128834 L29.0797546,6.74846626 L28.9570552,6.74846626 L29.202454,2.45398773 L28.5889571,4.04907975 C28.2208589,4.90797546 28.0981595,5.52147239 27.9754601,5.88957055 C27.9754601,6.13496933 28.0981595,6.3803681 28.3435583,6.50306748 L28.3435583,6.62576687 L27.9754601,6.62576687 L27.4846626,6.62576687 L26.993865,6.62576687 L26.3803681,6.62576687 L26.3803681,6.62576687 Z M33.006135,6.62576687 L33.006135,6.62576687 C33.2515337,6.3803681 33.4969325,6.25766871 33.6196319,6.01226994 C33.7423313,5.76687117 33.9877301,5.27607362 34.2331288,4.66257669 L34.3558282,4.29447853 L35.2147239,1.96319018 C35.3374233,1.71779141 35.3374233,1.59509202 35.3374233,1.47239264 C35.3374233,1.34969325 35.3374233,1.34969325 35.2147239,1.22699387 L35.2147239,1.10429448 L35.8282209,1.10429448 L36.196319,1.10429448 L36.5644172,1.10429448 L37.1779141,1.10429448 L37.1779141,1.22699387 C37.0552147,1.22699387 36.9325153,1.34969325 36.9325153,1.47239264 C36.809816,1.59509202 36.809816,1.71779141 36.6871166,1.96319018 L35.5828221,4.66257669 C35.3374233,5.39877301 35.2147239,5.76687117 35.0920245,6.01226994 C35.0920245,6.25766871 35.0920245,6.3803681 35.2147239,6.50306748 L35.2147239,6.62576687 L34.7239264,6.62576687 L34.1104294,6.62576687 L33.4969325,6.62576687 L33.006135,6.62576687 L33.006135,6.62576687 Z M38.5276074,2.33128834 L37.791411,4.04907975 C37.4233129,4.90797546 37.3006135,5.52147239 37.3006135,5.88957055 C37.3006135,6.13496933 37.4233129,6.3803681 37.6687117,6.50306748 L37.6687117,6.62576687 L37.3006135,6.62576687 L36.809816,6.62576687 L36.3190184,6.62576687 L35.8282209,6.62576687 L35.8282209,6.50306748 C36.196319,6.3803681 36.4417178,6.13496933 36.6871166,5.88957055 C36.9325153,5.64417178 37.1779141,5.03067485 37.5460123,4.04907975 L38.2822086,2.33128834 C38.404908,1.96319018 38.5276074,1.71779141 38.404908,1.59509202 C38.404908,1.47239264 38.2822086,1.34969325 38.0368098,1.22699387 L38.0368098,1.10429448 L38.5276074,1.10429448 L39.1411043,1.10429448 L39.5092025,1.10429448 L39.8773006,1.10429448 L40.9815951,4.17177914 L41.2269939,3.55828221 C41.595092,2.6993865 41.7177914,2.08588957 41.8404908,1.71779141 C41.8404908,1.47239264 41.7177914,1.22699387 41.4723926,1.10429448 L41.4723926,0.981595092 L41.8404908,0.981595092 L42.4539877,0.981595092 L43.0674847,0.981595092 L43.4355828,0.981595092 L43.4355828,1.10429448 C43.0674847,1.22699387 42.8220859,1.47239264 42.5766871,1.71779141 C42.3312883,1.96319018 42.0858896,2.57668712 41.7177914,3.55828221 L40.4907975,6.62576687 L40.3680982,6.62576687 L38.5276074,2.33128834 L38.5276074,2.33128834 Z M41.595092,6.13496933 L42.5766871,4.66257669 L42.6993865,4.66257669 C42.5766871,5.15337423 42.5766871,5.64417178 42.6993865,5.88957055 C42.8220859,6.25766871 43.0674847,6.3803681 43.4355828,6.3803681 C43.6809816,6.3803681 44.0490798,6.25766871 44.2944785,6.13496933 C44.5398773,5.88957055 44.7852761,5.64417178 44.9079755,5.39877301 C45.0306748,5.15337423 45.0306748,4.90797546 44.9079755,4.78527607 C44.7852761,4.66257669 44.6625767,4.5398773 44.4171779,4.41717791 C44.4171779,4.41717791 44.2944785,4.41717791 44.1717791,4.29447853 C43.6809816,4.17177914 43.4355828,4.04907975 43.3128834,3.80368098 C43.190184,3.6809816 43.190184,3.55828221 43.190184,3.31288344 C43.190184,3.19018405 43.190184,2.94478528 43.3128834,2.6993865 C43.5582822,2.20858896 43.9263804,1.71779141 44.4171779,1.47239264 C44.9079755,1.10429448 45.5214724,0.981595092 46.1349693,0.981595092 C46.3803681,0.981595092 46.6257669,0.981595092 46.8711656,1.10429448 C47.1165644,1.22699387 47.3619632,1.34969325 47.607362,1.47239264 L46.7484663,2.82208589 L46.6257669,2.82208589 C46.7484663,2.45398773 46.7484663,2.08588957 46.6257669,1.8404908 C46.5030675,1.59509202 46.2576687,1.47239264 46.0122699,1.47239264 C45.7668712,1.47239264 45.5214724,1.59509202 45.398773,1.71779141 C45.1533742,1.8404908 45.0306748,2.08588957 44.9079755,2.33128834 C44.7852761,2.57668712 44.7852761,2.82208589 44.9079755,2.94478528 C45.0306748,3.06748466 45.1533742,3.19018405 45.6441718,3.31288344 C46.1349693,3.43558282 46.5030675,3.6809816 46.6257669,3.92638037 C46.7484663,4.17177914 46.7484663,4.5398773 46.5030675,5.03067485 C46.2576687,5.64417178 45.8895706,6.01226994 45.398773,6.3803681 C44.9079755,6.74846626 44.2944785,6.87116564 43.5582822,6.87116564 C43.190184,6.87116564 42.8220859,6.87116564 42.5766871,6.74846626 C42.0858896,6.50306748 41.7177914,6.3803681 41.595092,6.13496933 L41.595092,6.13496933 Z M46.5030675,6.62576687 L46.5030675,6.62576687 C46.7484663,6.3803681 46.993865,6.25766871 47.1165644,6.01226994 C47.2392638,5.76687117 47.4846626,5.27607362 47.7300613,4.66257669 L47.8527607,4.29447853 L48.7116564,1.96319018 C48.8343558,1.71779141 48.8343558,1.59509202 48.8343558,1.47239264 C48.8343558,1.34969325 48.8343558,1.34969325 48.7116564,1.22699387 L48.7116564,1.10429448 L49.3251534,1.10429448 L49.6932515,1.10429448 L50.0613497,1.10429448 L50.6748466,1.10429448 L50.6748466,1.22699387 C50.5521472,1.22699387 50.4294479,1.34969325 50.4294479,1.47239264 C50.3067485,1.59509202 50.3067485,1.71779141 50.1840491,1.96319018 L49.5705521,3.55828221 L49.6932515,3.55828221 L50.0613497,3.55828221 L50.5521472,3.55828221 L50.797546,3.55828221 L51.1656442,3.55828221 L51.7791411,1.96319018 C51.9018405,1.71779141 51.9018405,1.59509202 51.9018405,1.47239264 C51.9018405,1.34969325 51.9018405,1.34969325 51.7791411,1.22699387 L51.7791411,1.10429448 L52.392638,1.10429448 L52.7607362,1.10429448 L53.1288344,1.10429448 L53.7423313,1.10429448 L53.7423313,1.22699387 C53.6196319,1.22699387 53.4969325,1.34969325 53.4969325,1.47239264 C53.3742331,1.59509202 53.3742331,1.71779141 53.2515337,1.96319018 L52.2699387,4.5398773 C52.0245399,5.27607362 51.7791411,5.76687117 51.7791411,6.01226994 C51.7791411,6.25766871 51.7791411,6.3803681 51.9018405,6.50306748 L51.9018405,6.62576687 L51.4110429,6.62576687 L50.797546,6.62576687 L50.1840491,6.62576687 L49.5705521,6.62576687 L49.5705521,6.50306748 C49.8159509,6.3803681 49.9386503,6.25766871 50.1840491,6.01226994 C50.3067485,5.76687117 50.5521472,5.27607362 50.9202454,4.5398773 L51.0429448,4.29447853 L51.1656442,3.92638037 L50.9202454,3.92638037 L50.5521472,3.92638037 L50.0613497,3.92638037 L49.6932515,3.92638037 L49.4478528,3.92638037 L49.202454,4.66257669 C48.9570552,5.39877301 48.8343558,5.76687117 48.7116564,6.01226994 C48.7116564,6.25766871 48.7116564,6.3803681 48.8343558,6.50306748 L48.8343558,6.62576687 L48.3435583,6.62576687 L47.7300613,6.62576687 L47.1165644,6.62576687 L46.5030675,6.62576687 L46.5030675,6.62576687 Z M52.392638,6.62576687 L52.392638,6.62576687 C52.6380368,6.3803681 52.8834356,6.25766871 53.006135,6.01226994 C53.1288344,5.76687117 53.3742331,5.39877301 53.4969325,4.90797546 L54.601227,1.96319018 C54.7239264,1.71779141 54.7239264,1.59509202 54.7239264,1.47239264 C54.7239264,1.34969325 54.7239264,1.34969325 54.601227,1.22699387 L54.601227,1.10429448 L55.4601227,1.10429448 L56.196319,1.10429448 L58.1595092,1.10429448 L57.9141104,2.57668712 L57.791411,2.57668712 C57.6687117,2.08588957 57.4233129,1.8404908 57.1779141,1.59509202 C56.9325153,1.34969325 56.6871166,1.34969325 56.3190184,1.34969325 L56.196319,1.34969325 C56.196319,1.34969325 56.196319,1.34969325 56.0736196,1.34969325 L55.2147239,3.43558282 L55.3374233,3.43558282 L55.4601227,3.43558282 C55.8282209,3.43558282 56.0736196,3.31288344 56.3190184,3.19018405 C56.5644172,3.06748466 56.809816,2.82208589 57.0552147,2.57668712 L57.1779141,2.57668712 L56.3190184,4.66257669 L56.196319,4.66257669 C56.196319,4.41717791 56.196319,4.17177914 56.0736196,4.04907975 C55.9509202,3.92638037 55.7055215,3.80368098 55.3374233,3.80368098 L55.2147239,3.80368098 L55.0920245,3.80368098 L54.601227,5.03067485 C54.4785276,5.39877301 54.3558282,5.76687117 54.4785276,5.88957055 C54.4785276,6.01226994 54.7239264,6.13496933 54.9693252,6.13496933 C55.2147239,6.13496933 55.5828221,6.01226994 56.0736196,5.76687117 C56.4417178,5.52147239 56.9325153,5.15337423 57.5460123,4.66257669 L57.6687117,4.66257669 L56.5644172,6.50306748 L54.2331288,6.50306748 L53.4969325,6.50306748 C53.2515337,6.62576687 52.8834356,6.62576687 52.392638,6.62576687 L52.392638,6.62576687 Z M60,2.33128834 L59.2638037,4.04907975 C58.8957055,4.90797546 58.7730061,5.52147239 58.7730061,5.88957055 C58.7730061,6.25766871 58.8957055,6.3803681 59.1411043,6.50306748 L59.1411043,6.62576687 L58.7730061,6.62576687 L58.2822086,6.62576687 L57.791411,6.62576687 L57.3006135,6.62576687 L57.3006135,6.50306748 C57.6687117,6.3803681 57.9141104,6.13496933 58.1595092,5.88957055 C58.404908,5.64417178 58.6503067,5.03067485 59.0184049,4.04907975 L59.7546012,2.33128834 C59.8773006,1.96319018 60,1.71779141 59.8773006,1.59509202 C59.8773006,1.47239264 59.7546012,1.34969325 59.5092025,1.22699387 L59.5092025,1.10429448 L60,1.10429448 L60.6134969,1.10429448 L60.9815951,1.10429448 L61.3496933,1.10429448 L62.4539877,4.17177914 L62.6993865,3.55828221 C63.0674847,2.6993865 63.190184,2.08588957 63.3128834,1.71779141 C63.3128834,1.47239264 63.190184,1.22699387 62.9447853,1.10429448 L62.9447853,0.981595092 L63.3128834,0.981595092 L63.9263804,0.981595092 L64.5398773,0.981595092 L64.9079755,0.981595092 L64.9079755,1.10429448 C64.5398773,1.22699387 64.2944785,1.47239264 64.0490798,1.71779141 C63.803681,1.96319018 63.5582822,2.57668712 63.190184,3.55828221 L61.9631902,6.62576687 L61.8404908,6.62576687 L60,2.33128834 L60,2.33128834 Z M69.202454,3.80368098 L69.202454,3.80368098 C68.9570552,3.92638037 68.8343558,4.04907975 68.7116564,4.29447853 C68.5889571,4.5398773 68.3435583,4.90797546 68.0981595,5.52147239 L67.9754601,5.76687117 L67.8527607,6.01226994 C67.4846626,6.25766871 66.993865,6.3803681 66.6257669,6.50306748 C66.2576687,6.62576687 65.8895706,6.62576687 65.398773,6.62576687 C65.0306748,6.62576687 64.6625767,6.50306748 64.4171779,6.3803681 C64.1717791,6.25766871 64.0490798,6.01226994 63.9263804,5.76687117 C63.803681,5.52147239 63.803681,5.15337423 63.803681,4.78527607 C63.803681,4.41717791 63.9263804,4.04907975 64.0490798,3.6809816 C64.1717791,3.31288344 64.4171779,2.94478528 64.6625767,2.6993865 C64.9079755,2.33128834 65.1533742,2.08588957 65.5214724,1.8404908 C65.8895706,1.47239264 66.2576687,1.34969325 66.6257669,1.10429448 C66.993865,0.981595092 67.4846626,0.858895706 67.8527607,0.858895706 C68.2208589,0.858895706 68.4662577,0.858895706 68.7116564,0.981595092 C68.9570552,1.10429448 69.202454,1.22699387 69.5705521,1.47239264 L68.5889571,2.94478528 L68.4662577,2.94478528 C68.5889571,2.33128834 68.5889571,1.96319018 68.5889571,1.59509202 C68.4662577,1.34969325 68.2208589,1.10429448 67.9754601,1.10429448 C67.607362,1.10429448 67.1165644,1.34969325 66.7484663,1.8404908 C66.2576687,2.33128834 65.8895706,2.94478528 65.6441718,3.6809816 C65.398773,4.41717791 65.1533742,5.03067485 65.2760736,5.52147239 C65.2760736,6.01226994 65.5214724,6.13496933 65.8895706,6.13496933 C66.1349693,6.13496933 66.3803681,6.01226994 66.5030675,5.88957055 C66.7484663,5.64417178 66.8711656,5.39877301 66.993865,5.03067485 C67.2392638,4.5398773 67.3619632,4.17177914 67.3619632,3.92638037 C67.3619632,3.80368098 67.2392638,3.6809816 67.1165644,3.55828221 L67.1165644,3.43558282 L67.607362,3.43558282 L68.2208589,3.43558282 L68.8343558,3.43558282 C68.8343558,3.80368098 68.9570552,3.80368098 69.202454,3.80368098 L69.202454,3.80368098 Z M73.6196319,3.43558282 L73.7423313,3.43558282 L73.8650307,3.43558282 L74.1104294,3.43558282 C74.3558282,3.43558282 74.601227,3.31288344 74.8466258,3.19018405 C75.0920245,3.06748466 75.2147239,2.6993865 75.3374233,2.45398773 C75.4601227,2.08588957 75.4601227,1.8404908 75.4601227,1.71779141 C75.3374233,1.59509202 75.2147239,1.47239264 74.8466258,1.47239264 L74.601227,1.47239264 L74.3558282,1.47239264 L73.6196319,3.43558282 L73.6196319,3.43558282 Z M70.6748466,6.62576687 L70.6748466,6.62576687 C70.9202454,6.3803681 71.1656442,6.25766871 71.2883436,6.01226994 C71.4110429,5.76687117 71.6564417,5.27607362 71.9018405,4.66257669 L72.0245399,4.29447853 L72.8834356,1.96319018 C73.006135,1.71779141 73.006135,1.59509202 73.006135,1.47239264 C73.006135,1.34969325 73.006135,1.34969325 72.8834356,1.22699387 L72.8834356,1.10429448 L73.4969325,1.10429448 L73.9877301,1.10429448 L74.601227,1.10429448 L75.2147239,1.10429448 C75.8282209,1.10429448 76.3190184,1.22699387 76.5644172,1.34969325 C76.809816,1.59509202 76.809816,1.8404908 76.6871166,2.33128834 C76.5644172,2.6993865 76.3190184,2.94478528 76.0736196,3.19018405 C75.8282209,3.43558282 75.3374233,3.55828221 74.8466258,3.55828221 C75.3374233,3.55828221 75.7055215,3.80368098 75.9509202,4.04907975 C76.196319,4.29447853 76.196319,4.66257669 75.9509202,5.03067485 C75.7055215,5.52147239 75.4601227,5.88957055 74.9693252,6.13496933 C74.4785276,6.3803681 73.8650307,6.50306748 73.2515337,6.50306748 L72.6380368,6.50306748 L71.9018405,6.50306748 L71.2883436,6.50306748 C71.0429448,6.62576687 70.797546,6.62576687 70.6748466,6.62576687 L70.6748466,6.62576687 Z M73.4969325,3.80368098 L72.8834356,5.39877301 C72.7607362,5.76687117 72.6380368,6.01226994 72.7607362,6.13496933 C72.7607362,6.25766871 72.8834356,6.25766871 73.1288344,6.25766871 C73.4969325,6.25766871 73.7423313,6.13496933 73.9877301,6.01226994 C74.2331288,5.76687117 74.4785276,5.52147239 74.601227,5.15337423 C74.7239264,4.66257669 74.8466258,4.41717791 74.7239264,4.17177914 C74.601227,3.92638037 74.3558282,3.92638037 73.9877301,3.92638037 L73.7423313,3.92638037 C73.7423313,3.80368098 73.6196319,3.80368098 73.4969325,3.80368098 L73.4969325,3.80368098 L73.4969325,3.80368098 Z M79.3865031,4.04907975 L79.3865031,2.82208589 L78.404908,4.04907975 L79.3865031,4.04907975 L79.3865031,4.04907975 Z M75.7055215,6.62576687 L75.7055215,6.62576687 C76.0736196,6.3803681 76.6871166,5.88957055 77.4233129,4.90797546 L77.5460123,4.78527607 L80.6134969,1.10429448 L80.7361963,1.10429448 L80.8588957,5.76687117 C80.8588957,6.13496933 80.8588957,6.25766871 80.9815951,6.3803681 C80.9815951,6.50306748 81.1042945,6.50306748 81.2269939,6.50306748 L81.2269939,6.62576687 C81.2269939,6.62576687 81.2269939,6.62576687 81.1042945,6.62576687 L80,6.62576687 L78.7730061,6.62576687 L78.6503067,6.62576687 L78.6503067,6.50306748 C78.7730061,6.50306748 78.8957055,6.50306748 79.0184049,6.3803681 C79.1411043,6.25766871 79.1411043,6.25766871 79.2638037,6.01226994 C79.2638037,5.88957055 79.2638037,5.88957055 79.3865031,5.76687117 L79.3865031,5.52147239 L79.3865031,4.41717791 L78.2822086,4.41717791 C78.0368098,4.78527607 77.791411,5.03067485 77.6687117,5.27607362 C77.5460123,5.52147239 77.4233129,5.64417178 77.3006135,5.88957055 C77.1779141,6.01226994 77.1779141,6.25766871 77.3006135,6.3803681 C77.3006135,6.50306748 77.4233129,6.50306748 77.5460123,6.62576687 L77.5460123,6.74846626 L77.0552147,6.74846626 L76.6871166,6.74846626 L76.3190184,6.74846626 C76.0736196,6.62576687 75.8282209,6.62576687 75.7055215,6.62576687 L75.7055215,6.62576687 Z M83.9263804,2.33128834 L83.190184,4.04907975 C82.8220859,4.90797546 82.6993865,5.52147239 82.6993865,5.88957055 C82.6993865,6.13496933 82.8220859,6.3803681 83.0674847,6.50306748 L83.0674847,6.62576687 L82.6993865,6.62576687 L82.208589,6.62576687 L81.7177914,6.62576687 L81.2269939,6.62576687 L81.2269939,6.50306748 C81.595092,6.3803681 81.8404908,6.13496933 82.0858896,5.88957055 C82.3312883,5.64417178 82.5766871,5.03067485 82.9447853,4.04907975 L83.6809816,2.33128834 C83.803681,1.96319018 83.9263804,1.71779141 83.803681,1.59509202 C83.803681,1.47239264 83.6809816,1.34969325 83.4355828,1.22699387 L83.4355828,1.10429448 L83.9263804,1.10429448 L84.5398773,1.10429448 L84.9079755,1.10429448 L85.2760736,1.10429448 L86.3803681,4.17177914 L86.6257669,3.55828221 C86.993865,2.6993865 87.1165644,2.08588957 87.2392638,1.71779141 C87.2392638,1.47239264 87.1165644,1.22699387 86.8711656,1.10429448 L86.8711656,0.981595092 L87.2392638,0.981595092 L87.8527607,0.981595092 L88.4662577,0.981595092 L88.8343558,0.981595092 L88.8343558,1.10429448 C88.4662577,1.22699387 88.2208589,1.47239264 87.9754601,1.71779141 C87.7300613,1.96319018 87.4846626,2.57668712 87.1165644,3.55828221 L85.8895706,6.62576687 L85.7668712,6.62576687 L83.9263804,2.33128834 L83.9263804,2.33128834 Z M86.993865,6.50306748 C87.2392638,6.3803681 87.3619632,6.25766871 87.607362,6.01226994 C87.7300613,5.76687117 87.9754601,5.27607362 88.2208589,4.66257669 L88.3435583,4.29447853 L89.202454,1.96319018 C89.3251534,1.71779141 89.3251534,1.59509202 89.3251534,1.47239264 C89.3251534,1.34969325 89.3251534,1.34969325 89.202454,1.22699387 L89.202454,1.10429448 L89.8159509,1.10429448 L90.1840491,1.10429448 L90.5521472,1.10429448 L91.1656442,1.10429448 L91.1656442,1.22699387 C91.0429448,1.22699387 90.9202454,1.34969325 90.9202454,1.47239264 C90.797546,1.59509202 90.797546,1.71779141 90.6748466,1.96319018 L90.0613497,3.55828221 L91.4110429,2.57668712 C91.6564417,2.45398773 91.7791411,2.20858896 91.9018405,2.08588957 C92.0245399,1.96319018 92.1472393,1.8404908 92.1472393,1.71779141 L92.1472393,1.47239264 C92.1472393,1.34969325 92.0245399,1.34969325 91.9018405,1.34969325 L91.9018405,1.22699387 L91.9018405,1.22699387 L92.7607362,1.22699387 L93.1288344,1.22699387 L93.6196319,1.22699387 L93.6196319,1.34969325 C93.2515337,1.47239264 92.6380368,1.96319018 91.7791411,2.57668712 L91.7791411,2.57668712 L90.3067485,3.6809816 L90.4294479,3.6809816 L90.6748466,3.6809816 L91.0429448,3.6809816 C91.1656442,3.6809816 91.2883436,3.6809816 91.2883436,3.80368098 C91.5337423,3.92638037 91.6564417,4.29447853 91.6564417,4.78527607 L91.6564417,4.90797546 L91.6564417,5.64417178 C91.6564417,6.01226994 91.6564417,6.25766871 91.7791411,6.3803681 C91.7791411,6.50306748 91.9018405,6.50306748 92.0245399,6.62576687 L92.0245399,6.74846626 L91.6564417,6.74846626 L91.1656442,6.74846626 L90.6748466,6.74846626 L90.1840491,6.74846626 L90.3067485,4.90797546 L90.3067485,4.78527607 C90.3067485,4.41717791 90.3067485,4.17177914 90.0613497,4.17177914 C89.9386503,4.17177914 89.9386503,4.17177914 89.8159509,4.29447853 C89.6932515,4.41717791 89.6932515,4.5398773 89.5705521,4.78527607 L89.4478528,5.15337423 C89.3251534,5.52147239 89.202454,5.88957055 89.202454,6.13496933 C89.202454,6.3803681 89.202454,6.50306748 89.3251534,6.62576687 L89.3251534,6.74846626 L88.8343558,6.74846626 L88.2208589,6.74846626 L87.607362,6.74846626 C87.2392638,6.62576687 87.1165644,6.62576687 86.993865,6.50306748 L86.993865,6.50306748 L86.993865,6.50306748 Z M92.2699387,6.62576687 L92.2699387,6.62576687 C92.5153374,6.3803681 92.7607362,6.25766871 92.8834356,6.01226994 C93.006135,5.76687117 93.2515337,5.27607362 93.4969325,4.66257669 L93.6196319,4.29447853 L94.4785276,1.96319018 C94.601227,1.71779141 94.601227,1.59509202 94.601227,1.47239264 C94.601227,1.34969325 94.601227,1.34969325 94.4785276,1.22699387 L94.4785276,1.10429448 L95.0920245,1.10429448 L95.4601227,1.10429448 L95.8282209,1.10429448 L96.4417178,1.10429448 L96.4417178,1.22699387 C96.3190184,1.22699387 96.196319,1.34969325 96.196319,1.47239264 C96.0736196,1.59509202 96.0736196,1.71779141 95.9509202,1.96319018 L94.8466258,4.66257669 C94.601227,5.39877301 94.4785276,5.76687117 94.3558282,6.01226994 C94.3558282,6.25766871 94.3558282,6.3803681 94.4785276,6.50306748 L94.4785276,6.62576687 L93.9877301,6.62576687 L93.3742331,6.62576687 L92.7607362,6.62576687 L92.2699387,6.62576687 L92.2699387,6.62576687 Z M97.791411,2.33128834 L97.0552147,4.04907975 C96.6871166,4.90797546 96.5644172,5.52147239 96.5644172,5.88957055 C96.5644172,6.13496933 96.6871166,6.3803681 96.9325153,6.50306748 L96.9325153,6.62576687 L96.5644172,6.62576687 L96.0736196,6.62576687 L95.5828221,6.62576687 L95.0920245,6.62576687 L95.0920245,6.50306748 C95.4601227,6.3803681 95.7055215,6.13496933 95.9509202,5.88957055 C96.196319,5.64417178 96.4417178,5.03067485 96.809816,4.04907975 L97.5460123,2.33128834 C97.6687117,1.96319018 97.791411,1.71779141 97.6687117,1.59509202 C97.6687117,1.47239264 97.5460123,1.34969325 97.3006135,1.22699387 L97.3006135,1.10429448 L97.791411,1.10429448 L98.404908,1.10429448 L98.7730061,1.10429448 L99.1411043,1.10429448 L100.245399,4.17177914 L100.490798,3.55828221 C100.858896,2.6993865 100.981595,2.08588957 101.104294,1.71779141 C101.104294,1.47239264 100.981595,1.22699387 100.736196,1.10429448 L100.736196,0.981595092 L101.104294,0.981595092 L101.717791,0.981595092 L102.331288,0.981595092 L102.699387,0.981595092 L102.699387,1.10429448 C102.331288,1.22699387 102.08589,1.47239264 101.840491,1.71779141 C101.595092,1.96319018 101.349693,2.57668712 100.981595,3.55828221 L99.7546012,6.62576687 L99.3865031,6.62576687 L97.791411,2.33128834 L97.791411,2.33128834 Z" id="Shape"></path>
                                    <path d="M106.993865,3.80368098 L106.993865,3.80368098 C106.748466,3.92638037 106.625767,4.04907975 106.503067,4.29447853 C106.380368,4.5398773 106.134969,4.90797546 105.889571,5.52147239 L105.766871,5.76687117 L105.644172,6.01226994 C105.276074,6.25766871 104.785276,6.3803681 104.417178,6.50306748 C104.04908,6.62576687 103.680982,6.62576687 103.190184,6.62576687 C102.822086,6.62576687 102.453988,6.50306748 102.208589,6.3803681 C101.96319,6.25766871 101.840491,6.01226994 101.717791,5.76687117 C101.595092,5.52147239 101.595092,5.15337423 101.595092,4.78527607 C101.595092,4.41717791 101.717791,4.04907975 101.840491,3.6809816 C101.96319,3.31288344 102.208589,2.94478528 102.453988,2.6993865 C102.699387,2.33128834 102.944785,2.08588957 103.312883,1.8404908 C103.680982,1.47239264 104.04908,1.34969325 104.417178,1.10429448 C104.785276,0.981595092 105.276074,0.858895706 105.644172,0.858895706 C106.01227,0.858895706 106.257669,0.858895706 106.503067,0.981595092 C106.748466,1.10429448 106.993865,1.22699387 107.361963,1.47239264 L106.380368,2.94478528 L106.257669,2.94478528 C106.380368,2.33128834 106.380368,1.96319018 106.380368,1.59509202 C106.257669,1.34969325 106.01227,1.10429448 105.766871,1.10429448 C105.398773,1.10429448 104.907975,1.34969325 104.539877,1.8404908 C104.04908,2.33128834 103.680982,2.94478528 103.435583,3.6809816 C103.190184,4.41717791 102.944785,5.03067485 103.067485,5.52147239 C103.067485,6.01226994 103.312883,6.13496933 103.680982,6.13496933 C103.92638,6.13496933 104.171779,6.01226994 104.294479,5.88957055 C104.539877,5.64417178 104.662577,5.39877301 104.785276,5.03067485 C105.030675,4.5398773 105.153374,4.17177914 105.153374,3.92638037 C105.153374,3.80368098 105.030675,3.6809816 104.907975,3.55828221 L104.907975,3.43558282 L105.398773,3.43558282 L106.01227,3.43558282 L106.625767,3.43558282 C106.625767,3.80368098 106.748466,3.80368098 106.993865,3.80368098 L106.993865,3.80368098 Z M113.374233,4.66257669 L113.496933,4.66257669 L113.251534,6.01226994 C112.883436,6.25766871 112.515337,6.3803681 112.02454,6.50306748 C111.656442,6.62576687 111.288344,6.62576687 110.920245,6.62576687 C110.552147,6.62576687 110.306748,6.50306748 110.06135,6.3803681 C109.815951,6.25766871 109.693252,6.01226994 109.570552,5.76687117 C109.447853,5.52147239 109.447853,5.15337423 109.447853,4.78527607 C109.447853,4.41717791 109.570552,4.04907975 109.693252,3.6809816 C109.815951,3.31288344 110.06135,2.94478528 110.306748,2.6993865 C110.552147,2.33128834 110.797546,2.08588957 111.165644,1.8404908 C111.533742,1.47239264 111.90184,1.34969325 112.269939,1.10429448 C112.638037,0.981595092 113.128834,0.858895706 113.496933,0.858895706 C113.865031,0.858895706 114.110429,0.858895706 114.355828,0.981595092 C114.601227,1.10429448 114.846626,1.22699387 115.092025,1.47239264 L114.110429,3.06748466 L113.98773,3.06748466 C114.233129,2.33128834 114.233129,1.8404908 114.233129,1.59509202 C114.233129,1.34969325 113.98773,1.10429448 113.619632,1.10429448 C113.251534,1.10429448 112.760736,1.34969325 112.392638,1.8404908 C111.90184,2.33128834 111.533742,2.94478528 111.288344,3.80368098 C111.042945,4.5398773 110.920245,5.03067485 111.042945,5.52147239 C111.165644,6.01226994 111.411043,6.13496933 111.779141,6.13496933 C112.147239,6.13496933 112.392638,6.01226994 112.760736,5.76687117 C112.638037,5.64417178 113.006135,5.15337423 113.374233,4.66257669 L113.374233,4.66257669 Z M116.441718,6.50306748 C116.809816,6.50306748 117.177914,6.25766871 117.546012,5.88957055 C117.91411,5.52147239 118.282209,4.78527607 118.650307,3.92638037 C119.018405,3.06748466 119.141104,2.45398773 119.141104,1.96319018 C119.141104,1.59509202 118.895706,1.34969325 118.527607,1.34969325 C118.159509,1.34969325 117.791411,1.59509202 117.423313,1.96319018 C117.055215,2.33128834 116.687117,3.06748466 116.319018,3.92638037 C115.95092,4.78527607 115.828221,5.39877301 115.828221,5.88957055 C115.828221,6.25766871 116.07362,6.50306748 116.441718,6.50306748 L116.441718,6.50306748 Z M114.846626,3.80368098 C114.969325,3.43558282 115.214724,2.94478528 115.460123,2.57668712 C115.705521,2.20858896 116.07362,1.96319018 116.441718,1.59509202 C116.809816,1.34969325 117.055215,1.22699387 117.423313,1.10429448 C117.791411,0.981595092 118.159509,0.858895706 118.404908,0.858895706 C118.773006,0.858895706 119.018405,0.858895706 119.263804,1.10429448 C119.509202,1.22699387 119.754601,1.47239264 119.877301,1.71779141 C120,1.96319018 120.122699,2.33128834 120.122699,2.6993865 C120.122699,3.06748466 120,3.43558282 119.877301,3.80368098 C119.754601,4.17177914 119.631902,4.41717791 119.386503,4.66257669 C119.263804,4.90797546 119.018405,5.15337423 118.773006,5.39877301 C118.404908,5.76687117 117.91411,6.13496933 117.546012,6.25766871 C117.055215,6.50306748 116.687117,6.62576687 116.196319,6.62576687 C115.828221,6.62576687 115.582822,6.50306748 115.337423,6.3803681 C115.092025,6.25766871 114.846626,6.01226994 114.723926,5.76687117 C114.601227,5.52147239 114.478528,5.15337423 114.478528,4.78527607 C114.601227,4.66257669 114.723926,4.29447853 114.846626,3.80368098 L114.846626,3.80368098 Z M119.754601,6.62576687 L119.754601,6.62576687 C120,6.3803681 120.245399,6.25766871 120.368098,6.01226994 C120.490798,5.76687117 120.736196,5.27607362 120.981595,4.66257669 L121.104294,4.29447853 L121.96319,1.96319018 C122.08589,1.71779141 122.08589,1.59509202 122.08589,1.47239264 C122.08589,1.34969325 122.08589,1.34969325 121.96319,1.22699387 L121.96319,1.10429448 L122.576687,1.10429448 L123.435583,1.10429448 L124.04908,1.10429448 C124.907975,1.10429448 125.398773,1.22699387 125.766871,1.34969325 C126.01227,1.59509202 126.134969,1.8404908 125.889571,2.33128834 C125.766871,2.6993865 125.521472,2.94478528 125.153374,3.19018405 C124.785276,3.43558282 124.417178,3.55828221 123.803681,3.6809816 C124.171779,3.6809816 124.294479,3.80368098 124.539877,4.04907975 C124.662577,4.17177914 124.785276,4.41717791 124.785276,4.78527607 L124.785276,5.27607362 C124.785276,6.01226994 124.907975,6.3803681 125.030675,6.3803681 L125.030675,6.50306748 L124.294479,6.50306748 L123.803681,6.50306748 L123.312883,6.50306748 L123.067485,6.50306748 C123.067485,6.3803681 123.067485,6.25766871 123.190184,6.01226994 C123.435583,4.5398773 123.312883,3.80368098 122.822086,3.80368098 L122.699387,3.80368098 L122.699387,3.80368098 L122.453988,4.41717791 C122.208589,5.15337423 121.96319,5.64417178 121.96319,5.88957055 C121.96319,6.13496933 121.96319,6.25766871 122.08589,6.3803681 L122.08589,6.50306748 L121.595092,6.50306748 L120.981595,6.50306748 L120.368098,6.50306748 C120.122699,6.62576687 119.877301,6.62576687 119.754601,6.62576687 L119.754601,6.62576687 Z M122.699387,3.55828221 L122.822086,3.55828221 L123.067485,3.55828221 C123.435583,3.55828221 123.680982,3.43558282 123.92638,3.31288344 C124.171779,3.19018405 124.294479,2.82208589 124.417178,2.45398773 C124.539877,2.08588957 124.539877,1.8404908 124.539877,1.71779141 C124.417178,1.59509202 124.294479,1.47239264 123.92638,1.47239264 L123.680982,1.47239264 L123.558282,1.47239264 L122.699387,3.55828221 L122.699387,3.55828221 Z M128.09816,3.6809816 L128.343558,3.6809816 L128.466258,3.6809816 C128.711656,3.6809816 128.957055,3.55828221 129.202454,3.31288344 C129.447853,3.06748466 129.693252,2.82208589 129.815951,2.45398773 C129.93865,2.08588957 130.06135,1.8404908 129.93865,1.59509202 C129.815951,1.47239264 129.693252,1.34969325 129.325153,1.34969325 L129.202454,1.34969325 L129.079755,1.34969325 L128.09816,3.6809816 L128.09816,3.6809816 Z M125.153374,6.62576687 L125.153374,6.62576687 C125.398773,6.3803681 125.644172,6.25766871 125.766871,6.01226994 C125.889571,5.76687117 126.134969,5.27607362 126.380368,4.66257669 L126.503067,4.29447853 L127.361963,1.96319018 C127.484663,1.71779141 127.484663,1.59509202 127.484663,1.47239264 C127.484663,1.34969325 127.484663,1.34969325 127.361963,1.22699387 L127.361963,1.10429448 L127.97546,1.10429448 L128.711656,1.10429448 L129.325153,1.10429448 C130.184049,1.10429448 130.674847,1.22699387 130.920245,1.47239264 C131.165644,1.71779141 131.288344,2.08588957 131.042945,2.57668712 C130.920245,3.06748466 130.552147,3.43558282 130.06135,3.6809816 C129.570552,3.92638037 129.079755,4.04907975 128.343558,4.04907975 L128.09816,4.04907975 L127.730061,4.04907975 L127.484663,4.5398773 C127.239264,5.27607362 126.993865,5.76687117 126.993865,6.01226994 C126.993865,6.25766871 126.993865,6.3803681 127.116564,6.50306748 L127.116564,6.62576687 L126.625767,6.62576687 L126.01227,6.62576687 L125.398773,6.62576687 C125.521472,6.62576687 125.398773,6.62576687 125.153374,6.62576687 L125.153374,6.62576687 Z M129.325153,6.01226994 C129.447853,5.76687117 129.570552,5.64417178 129.693252,5.52147239 C129.815951,5.39877301 130.06135,5.27607362 130.184049,5.27607362 C130.306748,5.27607362 130.429448,5.39877301 130.552147,5.52147239 C130.674847,5.64417178 130.674847,5.76687117 130.552147,6.01226994 C130.429448,6.13496933 130.306748,6.3803681 130.184049,6.50306748 C130.06135,6.62576687 129.815951,6.74846626 129.693252,6.74846626 C129.570552,6.74846626 129.447853,6.62576687 129.325153,6.50306748 C129.202454,6.3803681 129.202454,6.25766871 129.325153,6.01226994 L129.325153,6.01226994 Z M131.779141,7.73006135 L131.656442,7.60736196 C131.779141,7.48466258 132.02454,7.2392638 132.147239,7.11656442 C132.269939,6.99386503 132.392638,6.74846626 132.392638,6.62576687 C132.147239,6.62576687 132.02454,6.50306748 132.02454,6.50306748 C131.90184,6.3803681 132.02454,6.25766871 132.02454,6.01226994 C132.147239,5.76687117 132.269939,5.64417178 132.392638,5.52147239 C132.515337,5.39877301 132.760736,5.39877301 132.883436,5.39877301 C133.128834,5.39877301 133.251534,5.52147239 133.251534,5.64417178 C133.251534,5.76687117 133.251534,6.01226994 133.128834,6.25766871 C133.006135,6.50306748 132.883436,6.74846626 132.638037,6.99386503 C132.515337,7.2392638 132.147239,7.48466258 131.779141,7.73006135 L131.779141,7.73006135 Z M134.478528,6.62576687 L134.478528,6.62576687 C134.723926,6.3803681 134.969325,6.25766871 135.092025,6.01226994 C135.214724,5.76687117 135.460123,5.39877301 135.582822,4.90797546 L136.687117,1.96319018 C136.809816,1.71779141 136.809816,1.59509202 136.809816,1.47239264 C136.809816,1.34969325 136.809816,1.34969325 136.687117,1.22699387 L136.687117,1.10429448 L137.300613,1.10429448 L137.668712,1.10429448 L138.03681,1.10429448 L138.650307,1.10429448 L138.650307,1.22699387 C138.527607,1.22699387 138.404908,1.34969325 138.404908,1.47239264 C138.282209,1.59509202 138.282209,1.71779141 138.159509,1.96319018 L136.932515,5.15337423 C136.809816,5.52147239 136.687117,5.88957055 136.809816,6.01226994 C136.809816,6.13496933 136.932515,6.25766871 137.177914,6.25766871 C137.423313,6.25766871 137.791411,6.13496933 138.159509,5.88957055 C138.527607,5.64417178 139.018405,5.27607362 139.509202,4.78527607 L139.631902,4.78527607 L138.527607,6.62576687 L136.441718,6.62576687 L135.705521,6.62576687 L134.478528,6.62576687 L134.478528,6.62576687 Z M139.631902,6.62576687 L139.631902,6.62576687 C139.877301,6.3803681 140.122699,6.25766871 140.245399,6.01226994 C140.368098,5.76687117 140.613497,5.27607362 140.858896,4.66257669 L140.981595,4.29447853 L141.96319,1.8404908 L141.96319,1.59509202 C141.96319,1.59509202 141.96319,1.59509202 141.840491,1.59509202 C141.717791,1.59509202 141.472393,1.71779141 141.104294,1.96319018 C140.736196,2.20858896 140.368098,2.45398773 140,2.82208589 L139.877301,2.82208589 L140.736196,1.34969325 L144.785276,1.34969325 L144.539877,2.82208589 L144.417178,2.82208589 C144.294479,2.45398773 144.171779,2.20858896 144.04908,1.96319018 C143.92638,1.71779141 143.680982,1.59509202 143.558282,1.59509202 L143.435583,1.59509202 C143.435583,1.59509202 143.312883,1.71779141 143.312883,1.8404908 L143.190184,2.08588957 L142.208589,4.66257669 C141.96319,5.39877301 141.840491,5.76687117 141.717791,6.01226994 C141.717791,6.25766871 141.717791,6.3803681 141.840491,6.50306748 L141.840491,6.62576687 L141.349693,6.62576687 L140.736196,6.62576687 L140.122699,6.62576687 L139.631902,6.62576687 L139.631902,6.62576687 Z M147.484663,1.47239264 L146.01227,5.03067485 C145.766871,5.52147239 145.766871,5.88957055 145.766871,6.01226994 C145.766871,6.13496933 145.889571,6.25766871 146.134969,6.25766871 C146.503067,6.25766871 146.993865,6.01226994 147.361963,5.64417178 C147.730061,5.27607362 148.09816,4.66257669 148.466258,3.80368098 C148.834356,2.94478528 148.957055,2.33128834 148.834356,1.96319018 C148.834356,1.59509202 148.588957,1.34969325 148.09816,1.34969325 L147.852761,1.34969325 C147.730061,1.47239264 147.607362,1.47239264 147.484663,1.47239264 L147.484663,1.47239264 Z M143.680982,6.62576687 L143.680982,6.62576687 C143.92638,6.3803681 144.171779,6.25766871 144.294479,6.01226994 L145.030675,4.5398773 L145.153374,4.29447853 L146.01227,1.96319018 C146.134969,1.71779141 146.134969,1.59509202 146.134969,1.47239264 C146.134969,1.34969325 146.134969,1.34969325 146.01227,1.22699387 L146.01227,1.10429448 L146.625767,1.10429448 L147.116564,1.10429448 L147.730061,1.10429448 L148.220859,1.10429448 C149.079755,1.10429448 149.570552,1.34969325 149.93865,1.71779141 C150.184049,2.20858896 150.184049,2.82208589 149.815951,3.6809816 C149.447853,4.5398773 148.957055,5.27607362 148.343558,5.76687117 C147.730061,6.25766871 146.993865,6.50306748 146.134969,6.50306748 L145.644172,6.50306748 L145.030675,6.50306748 L144.662577,6.50306748 C144.417178,6.62576687 144.04908,6.62576687 143.680982,6.62576687 L143.680982,6.62576687 Z M149.447853,6.01226994 C149.570552,5.76687117 149.693252,5.64417178 149.815951,5.52147239 C149.93865,5.39877301 150.184049,5.27607362 150.306748,5.27607362 C150.429448,5.27607362 150.552147,5.39877301 150.674847,5.52147239 C150.797546,5.64417178 150.797546,5.76687117 150.674847,6.01226994 C150.552147,6.13496933 150.429448,6.3803681 150.306748,6.50306748 C150.184049,6.62576687 149.93865,6.74846626 149.815951,6.74846626 C149.693252,6.74846626 149.570552,6.62576687 149.447853,6.50306748 L149.447853,6.01226994 L149.447853,6.01226994 Z" id="Shape"></path>
                                </g>
                            </g>
                        </g>
                    </g>
                </g>
            </g>
        </g>
    </g>
</svg>