<?xml version="1.0" encoding="utf-8"?>
<!-- Generator: Adobe Illustrator 21.0.0, SVG Export Plug-In . SVG Version: 6.00 Build 0)  -->
<svg version="1.1" id="图层_1" xmlns="http://www.w3.org/2000/svg" xmlns:xlink="http://www.w3.org/1999/xlink" x="0px" y="0px"
	 viewBox="0 0 841.9 595.3" style="enable-background:new 0 0 841.9 595.3;" xml:space="preserve">
<style type="text/css">
	.st0{fill:#E03333;}
	.st1{fill:#004889;}
	.st2{fill:#008089;}
	.st3{fill:#00A0E9;}
	.st4{fill:#FFFFFF;}
	.st5{font-family:'ArialMT';}
	.st6{font-size:9.2099px;}
	.st7{fill:#595757;}
	.st8{font-family:'FZYZHHJW--GB1-0';}
	.st9{font-family:'MyriadPro-Regular';}
	.st10{letter-spacing:5;}
	.st11{fill:#DF3232;}
	.st12{fill:#00808A;}
	.st13{fill-rule:evenodd;clip-rule:evenodd;fill:#FFFFFF;}
	.st14{fill:#082F67;}
	.st15{fill:#ED171F;}
	.st16{fill:#006A65;}
	.st17{fill:#004481;}
</style>
<rect x="353.4" y="60.6" class="st0" width="8.2" height="8.2"/>
<rect x="353.4" y="78.3" class="st1" width="8.2" height="8.2"/>
<rect x="353.4" y="95.9" class="st2" width="8.2" height="8.2"/>
<rect x="353.4" y="196" class="st0" width="8.2" height="8.2"/>
<rect x="353.4" y="213.7" class="st1" width="8.2" height="8.2"/>
<rect x="353.4" y="231.3" class="st2" width="8.2" height="8.2"/>
<rect x="353.4" y="331.5" class="st0" width="8.2" height="8.2"/>
<rect x="353.4" y="349.1" class="st1" width="8.2" height="8.2"/>
<rect x="353.4" y="366.8" class="st2" width="8.2" height="8.2"/>
<path d="M141.9,503l0.2-0.5h-2.5l-0.2,0.5h2.1C141.8,503,141.9,503,141.9,503 M142.4,501.4l0.2-0.6h-2.5l-0.4,1.2
	c0,0,0.5-0.4,1.3-0.6C141.2,501.4,142.4,501.4,142.4,501.4 M147.2,493.2c0.5-0.2,0.8-0.7,0.9-1.2c0.1-0.6-0.1-1.1-0.5-1.2
	c0,0-1.2-0.1-1.2-0.1l-0.2,0l0,0.1l0,0.1c0,0-0.6,2.4-0.6,2.4l0,0.1h0.3C146.4,493.5,146.8,493.4,147.2,493.2 M134.2,496.7
	c0.2,0,0.4-0.1,0.5-0.3c0.2-0.3,0.4-0.9,0.4-1.1c0.2-0.8,0.2-1.3-0.3-1.3c-0.5,0-0.7,0.7-0.9,1.5c-0.1,0.3-0.1,0.5-0.1,0.8
	C133.8,496.7,134.1,496.7,134.2,496.7 M145.8,506.3h1.3l0.4-1.2h-1.3L145.8,506.3z M151.2,496.7c0.2,0,0.5-0.1,0.7-0.3
	c0.1-0.1,0.1-0.2,0.2-0.4c0.1-0.2,0.1-0.5,0.2-0.7c0-0.2,0.1-0.3,0.1-0.4c0-0.5-0.1-0.9-0.5-0.9c-0.5,0-0.8,0.7-0.9,1.4
	c-0.1,0.3-0.1,0.5-0.1,0.8C150.8,496.7,151.1,496.7,151.2,496.7 M147.5,500.8l-0.4,1.4c0,0,0.5-0.2,0.7-0.3c0.3-0.1,0.7-0.1,0.7-0.1
	l0.3-1H147.5z M161.6,480.9h-13.3c-1.9,0-3.8,1.5-4.2,3.4l-1.7,7.3c-0.2-0.1-0.6-0.1-0.8-0.1l1.7-7.3c0.3-1.4,1.4-2.6,2.6-3.3h-12.4
	c-1.9,0-3.8,1.5-4.2,3.4l-1.6,7.1c-0.3,0-0.7,0.1-0.9,0.1l1.7-7.3c0.3-1.4,1.4-2.6,2.6-3.3h-10.3c-1.9,0-3.8,1.5-4.2,3.4l-6.3,27
	c-0.4,1.9,0.7,3.4,2.6,3.4h10.5c-0.3-0.2-0.5-0.4-0.7-0.6c-0.6-0.8-0.8-1.8-0.6-2.9l2.8-12h0.9l-2.8,12.1c-0.4,1.9,0.7,3.4,2.6,3.4
	h12.7c-0.3-0.2-0.5-0.4-0.7-0.6c-0.6-0.8-0.8-1.8-0.6-2.9l0.5-2.1h0.9l-0.5,2.3c-0.4,1.9,0.7,3.4,2.6,3.4h13.3
	c1.9,0,3.8-1.5,4.2-3.4l6.3-27C164.7,482.4,163.5,480.9,161.6,480.9 M152,493c0.3,0.1,0.5,0.3,0.6,0.5c0-0.1,0-0.1,0-0.2l0.1-0.1
	c0.8-0.1,1-0.1,1.9-0.3l0,0.1c-0.2,0.6-0.3,1.3-0.5,1.9c-0.3,1.3-0.4,2-0.5,2.7l-0.1,0.1c-0.8,0-1.1,0-1.8,0l0-0.1
	c0-0.1,0-0.2,0.1-0.3c-0.3,0.2-0.6,0.4-0.9,0.4c-0.3,0-0.6,0-0.9-0.2c-1.1-0.4-0.9-1.6-0.7-2.2c0.1-0.6,0.4-1.3,0.9-1.8
	C150.7,493,151.6,492.8,152,493 M143.9,492.2c0,0,0.5-2.4,0.5-2.4s0-0.2,0.1-0.3c0.2,0,0.8,0,2.3,0c0,0,0.6,0,0.6,0
	c1.1,0,2.1,0,2.6,0.7c0.2,0.3,0.3,0.6,0.3,0.9c0,0.3,0,0.5-0.1,0.7c-0.2,0.9-0.7,1.6-1.3,2.1c-1,0.7-2.2,0.7-3.3,0.7h-0.1
	c-0.1,0-0.2,0.2-0.2,0.2c0,0-0.3,1.1-0.3,1.1c0,0-0.3,1.4-0.4,1.7c-0.2,0-0.7,0-2,0C142.7,497.4,143.9,492.2,143.9,492.2
	 M137.4,495.9c0.3-1.5,0.4-2.1,0.5-2.8l0.1,0c0.8-0.1,1-0.1,1.8-0.3l0.1,0.1l-0.1,0.5c0.1-0.1,0.3-0.2,0.4-0.3
	c0.4-0.2,0.8-0.3,1.1-0.3c0.4,0,0.8,0.1,1,0.5c0.2,0.4,0.1,0.9-0.2,1.8l-0.1,0.5c-0.2,1-0.3,1.2-0.4,1.9l-0.1,0.1
	c-0.7,0-0.9,0-1.7,0l0-0.1c0.1-0.3,0.1-0.6,0.2-0.9l0.1-0.4c0.1-0.6,0.3-1.4,0.3-1.6c0-0.1,0.1-0.5-0.3-0.5c-0.2,0-0.3,0.1-0.5,0.2
	c-0.1,0.3-0.3,1.3-0.4,1.7c-0.2,0.9-0.2,1-0.3,1.5l-0.1,0.1c-0.7,0-0.9,0-1.7,0l0-0.1C137.2,497,137.3,496.5,137.4,495.9
	 M138.1,500.3l-0.3,1.1h-2.4l-0.3,0.2c-0.1,0.1-0.2,0.1-0.3,0.1c-0.1,0.1-0.4,0.2-0.8,0.2h-0.8l0.3-1h0.2c0.2,0,0.3,0,0.4-0.1
	c0.1,0,0.2-0.2,0.3-0.3l0.4-0.8h1.8l-0.3,0.6H138.1z M123,494.7c-0.2,0.9-0.5,1.8-1.6,2.4c-0.6,0.4-1.5,0.6-2.4,0.6
	c-0.7,0-2-0.1-2.5-0.9c-0.1-0.3-0.2-0.5-0.2-0.9l0.2-1.2l0.1-0.4l1-4.4c0,0,0.1-0.2,0.1-0.3c0,0,0.4,0,2.3,0c0,0,0,0,0,0.1
	c-0.2,0.5-1.2,4.5-1.2,4.5c0,0-0.2,1.2-0.2,1.2l0,0.2c0.1,0.6,0.4,0.9,1,0.9c0.4,0,0.7-0.1,1-0.3c0.5-0.4,0.6-1,0.8-1.9
	c0,0,0.9-4.3,1-4.6c0.1,0,0.5,0,1.9,0c0,0,0,0,0,0.1c-0.2,0.5-1.2,4.6-1.2,4.6L123,494.7z M128.6,495.2l-0.1,0.5
	c-0.2,1-0.3,1.2-0.4,1.9l-0.1,0.1c-0.7,0-0.9,0-1.7,0l0-0.1c0.1-0.3,0.1-0.6,0.2-0.9l0.1-0.4c0.1-0.6,0.3-1.4,0.3-1.6
	c0-0.1,0.1-0.5-0.3-0.5c-0.2,0-0.3,0.1-0.5,0.2c-0.1,0.3-0.3,1.3-0.4,1.7c-0.2,0.9-0.2,1-0.3,1.5l-0.1,0.1c-0.7,0-0.9,0-1.7,0l0-0.1
	c0.1-0.5,0.3-1.1,0.4-1.7c0.3-1.5,0.4-2.1,0.5-2.8l0.1,0c0.8-0.1,1-0.1,1.8-0.3l0.1,0.1l-0.1,0.5c0.1-0.1,0.3-0.2,0.4-0.3
	c0.4-0.2,0.8-0.3,1.1-0.3c0.4,0,0.8,0.1,0.9,0.5C128.9,493.7,128.8,494.2,128.6,495.2 M131.4,494.9c-0.1,0.3-0.2,0.6-0.2,1
	c-0.1,0.7-0.2,0.9-0.2,1.1c0,0.2,0,0.3-0.1,0.6l0,0l0,0c-0.4,0-0.7,0-0.9,0c-0.3,0-0.5,0-0.9,0l0,0l0,0c0.1-0.4,0.2-0.5,0.2-0.7
	c0-0.1,0.1-0.3,0.2-0.7c0.1-0.5,0.2-0.9,0.2-1.2c0.1-0.3,0.1-0.6,0.1-0.9l0,0l0,0c0.4-0.1,0.7-0.1,0.9-0.1c0.3,0,0.5-0.1,1-0.2l0,0
	l0,0C131.6,494.2,131.5,494.5,131.4,494.9 M131.5,493.5c-0.5,0.3-1.1,0.4-1.5,0.2c-0.4-0.2-0.3-0.7,0.1-1c0.5-0.3,1.1-0.4,1.5-0.2
	C132,492.7,132,493.1,131.5,493.5 M132.1,495.3c0.1-0.6,0.4-1.3,0.9-1.8c0.7-0.7,1.7-0.7,2-0.7c0.6,0,1.3,0.1,1.6,0.6
	c0.2,0.3,0.4,0.8,0.2,1.8c-0.1,0.3-0.3,1.1-0.7,1.6c-0.6,0.6-1.4,0.8-2.2,0.8c-0.3,0-0.8,0-1.1-0.2C131.8,497.1,132,496,132.1,495.3
	 M135.8,507.7h-2c-0.2,0-0.3,0-0.5-0.1c-0.2,0-0.2-0.1-0.3-0.2c-0.1-0.1-0.2-0.2-0.1-0.5l0.6-1.9h-1l0.3-1.1h1l0.3-0.9h-1l0.3-1h4.3
	l-0.3,1h-1.7l-0.3,0.9h1.8l-0.3,1.1h-1.8l-0.4,1.4c-0.1,0.2,0.4,0.2,0.6,0.2l0.9-0.1L135.8,507.7z M139.4,507.7h-1.2
	c-0.4,0-0.6,0-0.8,0c-0.2,0-0.4,0-0.5-0.1c-0.1-0.1-0.3-0.2-0.3-0.3c0-0.1,0.1-0.3,0.1-0.6l2.1-7h1.5l-0.2,0.8c0,0,0.5-0.4,0.8-0.5
	c0.3-0.1,1.1-0.2,1.1-0.2l2.4,0l-0.8,2.8c-0.1,0.5-0.3,0.8-0.4,0.9c-0.1,0.1-0.2,0.3-0.4,0.4c-0.2,0.1-0.4,0.2-0.6,0.2
	c-0.2,0-0.4,0-0.7,0h-2.3l-0.7,2.2c-0.1,0.2-0.1,0.3-0.1,0.4c0,0.1,0.1,0.1,0.2,0.1l1-0.1L139.4,507.7z M143.1,504.8
	c-0.1,0.2-0.1,0.4-0.3,0.5c-0.2,0.1-0.4,0.3-0.8,0.3l-0.8,0l0,0.8c0,0.2,0,0.2,0.1,0.2c0,0,0.1,0.1,0.1,0.1l0.3,0l0.8,0l-0.3,1.1
	h-0.9c-0.6,0-1.1,0-1.3-0.1c-0.2-0.1-0.2-0.2-0.2-0.4l0.1-2.9h1.5l0,0.6h0.4c0.1,0,0.2,0,0.3,0c0,0,0.1-0.1,0.1-0.2l0.1-0.5h1.1
	L143.1,504.8z M148.2,507.7h-1.6l0.1-0.3h-3.2l0.3-1h0.3l1.7-5.5l0.3-1.1h1.6l-0.2,0.6c0,0,0.4-0.3,0.8-0.4c0.3-0.1,2-0.1,2.5-0.1v0
	h1.7l0,0.6c0,0.1,0.1,0.2,0.3,0.2h0.4l-0.3,1.1h-0.9c-0.8,0.1-1.1-0.3-1.1-0.7l0-0.6l-0.2,0.6h-0.5l-1.6,5.5h0.4l-0.3,1.1h-0.4
	L148.2,507.7z M155.3,502.9h-1.7l-0.3,0.9h1.7l-0.3,0.9h-1.9l-0.3,0.4h0.8l0.2,1.2c0,0.1,0,0.2,0.1,0.2c0,0,0.3,0.1,0.4,0.1h0.2
	l-0.3,1.1h-0.6c-0.1,0-0.2,0-0.4,0c-0.2,0-0.3-0.1-0.4-0.2c-0.1-0.1-0.3-0.2-0.3-0.4l-0.2-1.2l-0.8,1.2c-0.3,0.4-0.6,0.6-1.2,0.6
	h-1.2l0.3-1h0.5c0.1,0,0.2,0,0.3-0.1c0.1,0,0.2-0.1,0.2-0.2l1.2-1.7h-1.6l0.3-0.9h1.9l0.3-0.9h-1.8l0.3-1.1h5.1L155.3,502.9z
	 M156.4,499.7L156.4,499.7L156.4,499.7l-0.7,1.2c-0.2,0.4-0.6,0.7-1.2,0.7l-1.1,0l0.3-1h0.2c0.1,0,0.2,0,0.2,0
	c0.1,0,0.1-0.1,0.1-0.1l0.4-0.6h0c0.5-0.8,0.7-1.1,1.2-2c-0.1-1-0.1-1.3-0.2-2c0-0.4-0.1-0.8-0.2-1.2c-0.1-0.8-0.1-0.7-0.2-1.2l0,0
	c0,0,0-0.1,0-0.1l0.1-0.1c0.8-0.1,0.8-0.1,1.7-0.3l0.1,0.1l0.1,2.3c0,0,0,0.1,0,0.1c0.5-1,0.4-0.8,1-2.1l0,0c0,0,0,0,0,0l0.1-0.1
	c0.8-0.1,0.9-0.1,1.8-0.3l0.1,0.1C160.2,492.9,156.8,498.7,156.4,499.7 M146.4,504.3c0,0,0.5-0.2,0.7-0.3c0.3-0.1,0.7-0.1,0.7-0.1
	l0.3-1h-1.3L146.4,504.3z"/>
<rect x="110.4" y="39.9" class="st3" width="9.3" height="9.3"/>
<text transform="matrix(1 0 0 1 112.4604 47.8008)" class="st4 st5 st6">•</text>
<rect x="110.4" y="175.8" class="st3" width="9.3" height="9.3"/>
<text transform="matrix(1 0 0 1 112.4604 183.6182)" class="st4 st5 st6">•</text>
<rect x="110.4" y="311.4" class="st3" width="9.3" height="9.3"/>
<text transform="matrix(1 0 0 1 112.4604 319.2647)" class="st4 st5 st6">•</text>
<rect x="110.4" y="446.8" class="st3" width="9.3" height="9.3"/>
<text transform="matrix(1 0 0 1 112.4604 454.6299)" class="st4 st5 st6">•</text>
<text transform="matrix(1 0 0 1 122.6928 47.4863)" class="st7 st8 st6">四</text>
<text transform="matrix(1 0 0 1 131.6636 47.4863)" class="st7 st8 st6">色</text>
<text transform="matrix(1 0 0 1 140.8735 47.4863)" class="st7 st8 st6">版</text>
<text transform="matrix(1 0 0 1 150.0747 47.4863)" class="st7 st8 st6">本</text>
<text transform="matrix(1 0 0 1 122.6938 183.6182)" class="st7 st8 st6">专</text>
<text transform="matrix(1 0 0 1 131.8755 183.6182)" class="st7 st8 st6">色</text>
<text transform="matrix(1 0 0 1 141.0854 183.6182)" class="st7 st8 st6">版</text>
<text transform="matrix(1 0 0 1 150.2856 183.6182)" class="st7 st8 st6">本</text>
<text transform="matrix(1 0 0 1 122.6938 319.2608)" class="st7 st8 st6">多</text>
<text transform="matrix(1 0 0 1 131.5991 319.2608)" class="st7 st8 st6">媒</text>
<text transform="matrix(1 0 0 1 140.7261 319.2608)" class="st7 st8 st6">体</text>
<text transform="matrix(1 0 0 1 149.8716 319.2608)" class="st7 st8 st6">版</text>
<text transform="matrix(1 0 0 1 159.0727 319.2608)" class="st7 st8 st6">本</text>
<text transform="matrix(1 0 0 1 122.6938 455.4014)" class="st7 st8 st6">单</text>
<text transform="matrix(1 0 0 1 131.4243 455.4014)" class="st7 st8 st6">色</text>
<text transform="matrix(1 0 0 1 140.6343 455.4014)" class="st7 st8 st6">版</text>
<text transform="matrix(1 0 0 1 149.8345 455.4014)" class="st7 st8 st6">本</text>
<text transform="matrix(1 0 0 1 370.0249 68.1807)" class="st7 st8 st6">红</text>
<text transform="matrix(1 0 0 1 385.1938 68.0332)" class="st7 st8 st6">C</text>
<text transform="matrix(1 0 0 1 390.0464 68.0332)"><tspan x="0" y="0" class="st7 st8 st6">0</tspan><tspan x="4.9" y="0" class="st7 st8 st6"> </tspan></text>
<text transform="matrix(1 0 0 1 398.0405 68.0332)" class="st7 st8 st6">M</text>
<text transform="matrix(1 0 0 1 405.6948 68.0332)" class="st7 st8 st6">9</text>
<text transform="matrix(1 0 0 1 411.0639 68.0332)"><tspan x="0" y="0" class="st7 st8 st6">1</tspan><tspan x="4.9" y="0" class="st7 st8 st6"> </tspan></text>
<text transform="matrix(1 0 0 1 418.3305 68.0332)" class="st7 st8 st6">Y</text>
<text transform="matrix(1 0 0 1 424.0776 68.0332)" class="st7 st8 st6">7</text>
<text transform="matrix(1 0 0 1 428.9126 68.0332)"><tspan x="0" y="0" class="st7 st8 st6">6 </tspan><tspan x="7" y="0" class="st7 st8 st6">K</tspan></text>
<text transform="matrix(1 0 0 1 442.4594 68.0332)" class="st7 st8 st6">6</text>
<text transform="matrix(1 0 0 1 370.0249 203.3721)" class="st7 st8 st6">红</text>
<text transform="matrix(1 0 0 1 385.2485 203.2256)" class="st7 st8 st6">P</text>
<text transform="matrix(1 0 0 1 390.6274 203.2256)" class="st7 st8 st6">a</text>
<text transform="matrix(1 0 0 1 395.5083 203.2256)" class="st7 st8 st6">n</text>
<text transform="matrix(1 0 0 1 400.8315 203.2256)" class="st7 st8 st6">t</text>
<text transform="matrix(1 0 0 1 404.4135 203.2256)"><tspan x="0" y="0" class="st7 st8 st6">o</tspan><tspan x="6" y="0" class="st7 st8 st6">n</tspan></text>
<text transform="matrix(1 0 0 1 415.0708 203.2256)"><tspan x="0" y="0" class="st7 st8 st6">e</tspan><tspan x="5.8" y="0" class="st7 st8 st6"> </tspan></text>
<text transform="matrix(1 0 0 1 422.3823 203.2256)" class="st7 st8 st6">1</text>
<text transform="matrix(1 0 0 1 426.979 203.2256)"><tspan x="0" y="0" class="st7 st8 st6">8</tspan><tspan x="5.1" y="0" class="st7 st8 st6">6</tspan></text>
<text transform="matrix(1 0 0 1 438.7212 203.2256)" class="st7 st8 st6">C</text>
<text transform="matrix(1 0 0 1 443.8979 203.2256)" class="st7 st8 st6">/</text>
<text transform="matrix(1 0 0 1 447.6274 203.2256)" class="st7 st8 st6">U</text>
<text transform="matrix(1 0 0 1 370.0249 338.9981)"><tspan x="0" y="0" class="st7 st8 st6">红</tspan><tspan x="9.2" y="0" class="st7 st5 st6">•</tspan></text>
<text transform="matrix(1 0 0 1 385.2485 338.8496)" class="st7 st9 st6">R</text>
<text transform="matrix(1 0 0 1 390.185 338.8496)" class="st7 st9 st6">2</text>
<text transform="matrix(1 0 0 1 394.7817 338.8496)" class="st7 st9 st6">3</text>
<text transform="matrix(1 0 0 1 399.1001 338.8496)"><tspan x="0" y="0" class="st7 st9 st6">7</tspan><tspan x="4.5" y="0" class="st7 st9 st6"> </tspan></text>
<text transform="matrix(1 0 0 1 405.3354 338.8496)" class="st7 st9 st6">G</text>
<text transform="matrix(1 0 0 1 411.1196 338.8496)" class="st7 st9 st6">2</text>
<text transform="matrix(1 0 0 1 415.7153 338.8496)"><tspan x="0" y="0" class="st7 st9 st6">3</tspan><tspan x="4.5" y="0" class="st7 st9 st6"> </tspan></text>
<text transform="matrix(1 0 0 1 421.9497 338.8496)" class="st7 st9 st6">B</text>
<text transform="matrix(1 0 0 1 426.7026 338.8496)" class="st7 st9 st6">3</text>
<text transform="matrix(1 0 0 1 430.8471 338.8496)"><tspan x="0" y="0" class="st7 st9 st6">1  </tspan><tspan x="8" y="0" class="st7 st9 st6"> </tspan></text>
<text transform="matrix(1 0 0 1 440.5444 338.8496)" class="st7 st9 st6">H</text>
<text transform="matrix(1 0 0 1 446.4673 338.8496)" class="st7 st9 st6">E</text>
<text transform="matrix(1 0 0 1 450.9975 338.8496)" class="st7 st9 st6">X</text>
<text transform="matrix(1 0 0 1 456.3579 338.8496)" class="st7 st9 st6">/</text>
<text transform="matrix(1 0 0 1 459.7016 338.8496)" class="st7 st9 st6">W</text>
<text transform="matrix(1 0 0 1 467.1899 338.8496)" class="st7 st9 st6">e</text>
<text transform="matrix(1 0 0 1 471.7114 338.8496)" class="st7 st9 st6">b</text>
<text transform="matrix(1 0 0 1 476.7671 338.8496)" class="st7 st9 st6">:</text>
<text transform="matrix(1 0 0 1 478.6274 338.8496)" class="st7 st9 st6">F</text>
<text transform="matrix(1 0 0 1 482.8452 338.8496)" class="st7 st9 st6">F</text>
<text transform="matrix(1 0 0 1 487.1469 338.8496)" class="st7 st9 st6">0</text>
<text transform="matrix(1 0 0 1 491.9077 338.8496)" class="st7 st9 st6">0</text>
<text transform="matrix(1 0 0 1 496.4018 338.8496)" class="st7 st9 st6">3</text>
<text transform="matrix(1 0 0 1 500.7856 338.8496)" class="st7 st9 st6">3</text>
<text transform="matrix(1 0 0 1 370.0249 85.8819)" class="st7 st8 st6">蓝</text>
<text transform="matrix(1 0 0 1 385.2026 85.7354)" class="st7 st8 st6">C</text>
<text transform="matrix(1 0 0 1 389.936 85.7354)" class="st7 st8 st6">1</text>
<text transform="matrix(1 0 0 1 394.5786 85.7354)" class="st7 st8 st6">0</text>
<text transform="matrix(1 0 0 1 400.4907 85.7354)"><tspan x="0" y="0" class="st7 st8 st6">0</tspan><tspan x="4.9" y="0" class="st7 st8 st6"> </tspan></text>
<text transform="matrix(1 0 0 1 408.4858 85.7354)" class="st7 st8 st6">M</text>
<text transform="matrix(1 0 0 1 416.1753 85.7354)" class="st7 st8 st6">5</text>
<text transform="matrix(1 0 0 1 421.3969 85.7354)"><tspan x="0" y="0" class="st7 st8 st6">6</tspan><tspan x="4.9" y="0" class="st7 st8 st6"> </tspan></text>
<text transform="matrix(1 0 0 1 429.3276 85.7354)" class="st7 st8 st6">Y</text>
<text transform="matrix(1 0 0 1 434.7524 85.7354)"><tspan x="0" y="0" class="st7 st8 st6">0</tspan><tspan x="4.9" y="0" class="st7 st8 st6"> </tspan></text>
<text transform="matrix(1 0 0 1 442.7466 85.7354)" class="st7 st8 st6">K</text>
<text transform="matrix(1 0 0 1 448.6596 85.7354)" class="st7 st8 st6">3</text>
<text transform="matrix(1 0 0 1 454.0825 85.7354)" class="st7 st8 st6">4</text>
<text transform="matrix(1 0 0 1 370.0249 221.0742)" class="st7 st8 st6">蓝</text>
<text transform="matrix(1 0 0 1 385.2671 220.9268)" class="st7 st8 st6">P</text>
<text transform="matrix(1 0 0 1 390.645 220.9268)" class="st7 st8 st6">a</text>
<text transform="matrix(1 0 0 1 395.5268 220.9268)" class="st7 st8 st6">n</text>
<text transform="matrix(1 0 0 1 400.8501 220.9268)" class="st7 st8 st6">t</text>
<text transform="matrix(1 0 0 1 404.4331 220.9268)"><tspan x="0" y="0" class="st7 st8 st6">o</tspan><tspan x="6" y="0" class="st7 st8 st6">n</tspan></text>
<text transform="matrix(1 0 0 1 415.0883 220.9268)"><tspan x="0" y="0" class="st7 st8 st6">e</tspan><tspan x="5.8" y="0" class="st7 st8 st6"> </tspan></text>
<text transform="matrix(1 0 0 1 422.4008 220.9268)" class="st7 st8 st6">2</text>
<text transform="matrix(1 0 0 1 427.6411 220.9268)" class="st7 st8 st6">9</text>
<text transform="matrix(1 0 0 1 433.2319 220.9268)" class="st7 st8 st6">5</text>
<text transform="matrix(1 0 0 1 438.4262 220.9268)" class="st7 st8 st6">C</text>
<text transform="matrix(1 0 0 1 443.602 220.9268)" class="st7 st8 st6">/</text>
<text transform="matrix(1 0 0 1 447.3325 220.9268)" class="st7 st8 st6">U</text>
<text transform="matrix(1 0 0 1 370.0249 356.6992)"><tspan x="0" y="0" class="st7 st5 st6 st10"> </tspan><tspan x="8.5" y="0" class="st7 st5 st6">•</tspan></text>
<text transform="matrix(1 0 0 1 385.2671 356.5518)" class="st7 st9 st6">R</text>
<text transform="matrix(1 0 0 1 390.1567 356.5518)"><tspan x="0" y="0" class="st7 st9 st6">8</tspan><tspan x="4.5" y="0" class="st7 st9 st6"> </tspan></text>
<text transform="matrix(1 0 0 1 396.3921 356.5518)" class="st7 st9 st6">G</text>
<text transform="matrix(1 0 0 1 402.3051 356.5518)" class="st7 st9 st6">4</text>
<text transform="matrix(1 0 0 1 406.5786 356.5518)"><tspan x="0" y="0" class="st7 st9 st6">7</tspan><tspan x="4.5" y="0" class="st7 st9 st6"> </tspan></text>
<text transform="matrix(1 0 0 1 412.813 356.5518)" class="st7 st9 st6">B</text>
<text transform="matrix(1 0 0 1 417.3266 356.5518)" class="st7 st9 st6">1</text>
<text transform="matrix(1 0 0 1 421.5454 356.5518)" class="st7 st9 st6">0</text>
<text transform="matrix(1 0 0 1 426.0395 356.5518)"><tspan x="0" y="0" class="st7 st9 st6">3    </tspan><tspan x="11.5" y="0" class="st7 st9 st6"> </tspan></text>
<text transform="matrix(1 0 0 1 439.1997 356.5518)" class="st7 st9 st6">H</text>
<text transform="matrix(1 0 0 1 445.1225 356.5518)" class="st7 st9 st6">E</text>
<text transform="matrix(1 0 0 1 449.6528 356.5518)" class="st7 st9 st6">X</text>
<text transform="matrix(1 0 0 1 455.0132 356.5518)" class="st7 st9 st6">/</text>
<text transform="matrix(1 0 0 1 458.3559 356.5518)" class="st7 st9 st6">W</text>
<text transform="matrix(1 0 0 1 465.8354 356.5518)" class="st7 st9 st6">e</text>
<text transform="matrix(1 0 0 1 470.3569 356.5518)" class="st7 st9 st6">b</text>
<text transform="matrix(1 0 0 1 475.4126 356.5518)" class="st7 st9 st6">:</text>
<text transform="matrix(1 0 0 1 477.3198 356.5518)" class="st7 st9 st6">0</text>
<text transform="matrix(1 0 0 1 482.0815 356.5518)" class="st7 st9 st6">0</text>
<text transform="matrix(1 0 0 1 486.5757 356.5518)" class="st7 st9 st6">3</text>
<text transform="matrix(1 0 0 1 490.9682 356.5518)" class="st7 st9 st6">3</text>
<text transform="matrix(1 0 0 1 495.5268 356.5518)" class="st7 st9 st6">6</text>
<text transform="matrix(1 0 0 1 500.2339 356.5518)" class="st7 st9 st6">6</text>
<text transform="matrix(1 0 0 1 370.0249 103.3994)" class="st7 st8 st6">绿</text>
<text transform="matrix(1 0 0 1 380.7553 103.0664)" class="st7 st5 st6 st10">•</text>
<text transform="matrix(1 0 0 1 380.7553 203.7334)" class="st7 st5 st6 st10">•</text>
<text transform="matrix(1 0 0 1 380.7553 220.7334)" class="st7 st5 st6 st10">•</text>
<text transform="matrix(1 0 0 1 380.7553 238.7334)" class="st7 st5 st6 st10">•</text>
<text transform="matrix(1 0 0 1 385.3042 103.252)" class="st7 st8 st6">C</text>
<text transform="matrix(1 0 0 1 390.0376 103.252)" class="st7 st8 st6">1</text>
<text transform="matrix(1 0 0 1 394.6801 103.252)" class="st7 st8 st6">0</text>
<text transform="matrix(1 0 0 1 400.5923 103.252)"><tspan x="0" y="0" class="st7 st8 st6">0</tspan><tspan x="4.9" y="0" class="st7 st8 st6"> </tspan></text>
<text transform="matrix(1 0 0 1 408.5874 103.252)" class="st7 st8 st6">M</text>
<text transform="matrix(1 0 0 1 416.3872 103.252)"><tspan x="0" y="0" class="st7 st8 st6">0</tspan><tspan x="4.9" y="0" class="st7 st8 st6"> </tspan></text>
<text transform="matrix(1 0 0 1 424.3823 103.252)" class="st7 st8 st6">Y</text>
<text transform="matrix(1 0 0 1 430.0171 103.252)" class="st7 st8 st6">3</text>
<text transform="matrix(1 0 0 1 435.351 103.252)"><tspan x="0" y="0" class="st7 st8 st6">8</tspan><tspan x="4.9" y="0" class="st7 st8 st6"> </tspan></text>
<text transform="matrix(1 0 0 1 443.4917 103.252)" class="st7 st8 st6">K</text>
<text transform="matrix(1 0 0 1 449.4048 103.252)" class="st7 st8 st6">3</text>
<text transform="matrix(1 0 0 1 454.7456 103.252)" class="st7 st8 st6">0</text>
<text transform="matrix(1 0 0 1 370.0249 238.5908)" class="st7 st8 st6">绿</text>
<text transform="matrix(1 0 0 1 385.3686 238.4444)" class="st7 st8 st6">P</text>
<text transform="matrix(1 0 0 1 390.7553 238.4444)" class="st7 st8 st6">a</text>
<text transform="matrix(1 0 0 1 395.6372 238.4444)" class="st7 st8 st6">n</text>
<text transform="matrix(1 0 0 1 400.9604 238.4444)" class="st7 st8 st6">t</text>
<text transform="matrix(1 0 0 1 404.5434 238.4444)" class="st7 st8 st6">o</text>
<text transform="matrix(1 0 0 1 409.7837 238.4444)" class="st7 st8 st6">n</text>
<text transform="matrix(1 0 0 1 415.1899 238.4444)"><tspan x="0" y="0" class="st7 st8 st6">e</tspan><tspan x="5.8" y="0" class="st7 st8 st6"> </tspan></text>
<text transform="matrix(1 0 0 1 422.5024 238.4444)" class="st7 st8 st6">3</text>
<text transform="matrix(1 0 0 1 427.6411 238.4444)" class="st7 st8 st6">2</text>
<text transform="matrix(1 0 0 1 432.9272 238.4444)" class="st7 st8 st6">2</text>
<text transform="matrix(1 0 0 1 438.1411 238.4444)" class="st7 st8 st6">C</text>
<text transform="matrix(1 0 0 1 443.3169 238.4444)" class="st7 st8 st6">/</text>
<text transform="matrix(1 0 0 1 447.0464 238.4444)" class="st7 st8 st6">U</text>
<text transform="matrix(1 0 0 1 370.0249 374.2159)"><tspan x="0" y="0" class="st7 st8 st6">绿</tspan><tspan x="9.2" y="0" class="st7 st5 st6">•</tspan></text>
<text transform="matrix(1 0 0 1 385.3686 374.0684)" class="st7 st9 st6">R</text>
<text transform="matrix(1 0 0 1 390.2954 374.0684)"><tspan x="0" y="0" class="st7 st9 st6">0</tspan><tspan x="4.5" y="0" class="st7 st9 st6"> </tspan></text>
<text transform="matrix(1 0 0 1 396.5317 374.0684)" class="st7 st9 st6">G</text>
<text transform="matrix(1 0 0 1 401.9008 374.0684)" class="st7 st9 st6">1</text>
<text transform="matrix(1 0 0 1 406.1176 374.0684)" class="st7 st9 st6">0</text>
<text transform="matrix(1 0 0 1 410.8432 374.0684)"><tspan x="0" y="0" class="st7 st9 st6">6</tspan><tspan x="4.5" y="0" class="st7 st9 st6"> </tspan></text>
<text transform="matrix(1 0 0 1 417.0776 374.0684)" class="st7 st9 st6">B</text>
<text transform="matrix(1 0 0 1 421.5913 374.0684)" class="st7 st9 st6">1</text>
<text transform="matrix(1 0 0 1 425.8091 374.0684)" class="st7 st9 st6">0</text>
<text transform="matrix(1 0 0 1 430.0542 374.0684)"><tspan x="0" y="0" class="st7 st9 st6">1  </tspan><tspan x="8" y="0" class="st7 st9 st6"> </tspan></text>
<text transform="matrix(1 0 0 1 439.7524 374.0684)" class="st7 st9 st6">H</text>
<text transform="matrix(1 0 0 1 445.6841 374.0684)" class="st7 st9 st6">E</text>
<text transform="matrix(1 0 0 1 450.2153 374.0684)" class="st7 st9 st6">X</text>
<text transform="matrix(1 0 0 1 455.5844 374.0684)" class="st7 st9 st6">/</text>
<text transform="matrix(1 0 0 1 458.9282 374.0684)" class="st7 st9 st6">W</text>
<text transform="matrix(1 0 0 1 466.4145 374.0684)" class="st7 st9 st6">e</text>
<text transform="matrix(1 0 0 1 470.938 374.0684)" class="st7 st9 st6">b</text>
<text transform="matrix(1 0 0 1 475.9936 374.0684)" class="st7 st9 st6">:</text>
<text transform="matrix(1 0 0 1 477.8999 374.0684)" class="st7 st9 st6">0</text>
<text transform="matrix(1 0 0 1 482.6616 374.0684)" class="st7 st9 st6">0</text>
<text transform="matrix(1 0 0 1 487.3862 374.0684)"><tspan x="0" y="0" class="st7 st9 st6">66</tspan><tspan x="9.4" y="0" class="st7 st9 st6">6</tspan></text>
<text transform="matrix(1 0 0 1 501.5053 374.0684)" class="st7 st9 st6">6</text>
<path class="st1" d="M171.3,81.2L171.3,81.2L171.3,81.2z"/>
<path class="st1" d="M172,81.2l-0.6,0C171.7,81.2,172,81.2,172,81.2"/>
<path class="st11" d="M120.8,61.7H134c1.8,0,3,1.5,2.6,3.4l-6.2,26.4c-0.4,1.8-2.3,3.4-4.1,3.4H113c-1.8,0-3-1.5-2.6-3.4l6.2-26.4
	C117.1,63.2,118.9,61.7,120.8,61.7"/>
<path class="st1" d="M132.9,61.7h15.2c1.8,0,1,1.5,0.6,3.4l-6.2,26.4c-0.4,1.8-0.3,3.4-2.1,3.4h-15.2c-1.9,0-3-1.5-2.6-3.4l6.2-26.4
	C129.2,63.2,131,61.7,132.9,61.7"/>
<path class="st12" d="M147.5,61.7h13.2c1.8,0,3,1.5,2.6,3.4l-6.2,26.4c-0.4,1.8-2.3,3.4-4.1,3.4h-13.2c-1.8,0-3-1.5-2.6-3.4
	l6.2-26.4C143.8,63.2,145.6,61.7,147.5,61.7"/>
<path class="st13" d="M145.3,86.6h1.2l0.4-1.2h-1.2L145.3,86.6z M146.3,83.3l-0.4,1.4c0,0,0.5-0.2,0.7-0.3c0.3-0.1,0.6-0.1,0.6-0.1
	l0.3-1H146.3z M146.9,81.2l-0.4,1.4c0,0,0.5-0.2,0.7-0.3c0.3-0.1,0.6-0.1,0.6-0.1l0.3-1H146.9z M149.7,81.2l-1.6,5.3h0.4l-0.3,1.1
	h-0.4l-0.1,0.3h-1.5l0.1-0.3h-3.1l0.3-1h0.3l1.6-5.4l0.3-1.1h1.6l-0.2,0.6c0,0,0.4-0.3,0.8-0.4c0.4-0.1,2.7-0.1,2.7-0.1l-0.3,1.1
	H149.7z"/>
<path class="st4" d="M150.3,80.1h1.7l0,0.6c0,0.1,0.1,0.2,0.3,0.2h0.3l-0.3,1h-0.9c-0.8,0.1-1.1-0.3-1.1-0.7L150.3,80.1z"/>
<path class="st4" d="M150.6,85H149l0.3-0.9h1.8l0.3-0.8h-1.8l0.3-1h5l-0.3,1h-1.7l-0.3,0.8h1.7L154,85h-1.8l-0.3,0.4h0.7l0.2,1.2
	c0,0.1,0,0.2,0.1,0.2c0,0,0.3,0.1,0.4,0.1h0.2l-0.3,1.1h-0.6c-0.1,0-0.2,0-0.4,0c-0.2,0-0.3-0.1-0.4-0.2c-0.1-0.1-0.3-0.2-0.3-0.4
	l-0.2-1.1l-0.8,1.1c-0.3,0.4-0.6,0.6-1.2,0.6h-1.2l0.3-1h0.4c0.1,0,0.2,0,0.3-0.1c0.1,0,0.2-0.1,0.2-0.2L150.6,85z"/>
<path class="st4" d="M133.1,82.5h4.2l-0.3,1h-1.7l-0.3,0.9h1.7l-0.3,1h-1.7l-0.4,1.4c-0.1,0.2,0.4,0.2,0.6,0.2l0.9-0.1l-0.3,1.1
	h-1.9c-0.2,0-0.3,0-0.4-0.1c-0.2,0-0.2-0.1-0.3-0.2c-0.1-0.1-0.2-0.2-0.1-0.4l0.6-1.8h-1l0.3-1.1h1l0.3-0.9h-1L133.1,82.5z"/>
<path class="st4" d="M136,80.7h1.7l-0.3,1H135l-0.3,0.2c-0.1,0.1-0.1,0.1-0.3,0.1c-0.1,0.1-0.4,0.2-0.8,0.2h-0.8l0.3-1h0.2
	c0.2,0,0.3,0,0.4-0.1c0.1,0,0.2-0.2,0.3-0.3l0.4-0.8h1.7L136,80.7z"/>
<path class="st13" d="M139.3,82.4c0,0,0.5-0.4,1.3-0.6c0.2,0,1.3,0,1.3,0l0.2-0.6h-2.4L139.3,82.4z M141.6,82.9h-2.4l-0.1,0.5h2.1
	c0.2,0,0.3,0,0.3,0L141.6,82.9z M138.4,80.1h1.5l-0.2,0.7c0,0,0.5-0.4,0.8-0.5c0.3-0.1,1.1-0.2,1.1-0.2l2.4,0l-0.8,2.7
	c-0.1,0.5-0.3,0.8-0.4,0.9c-0.1,0.1-0.2,0.3-0.4,0.4c-0.2,0.1-0.4,0.2-0.6,0.2c-0.2,0-0.4,0-0.7,0h-2.3l-0.6,2.1
	c-0.1,0.2-0.1,0.3,0,0.4c0,0.1,0.1,0.1,0.2,0.1l1-0.1l-0.3,1.2h-1.1c-0.4,0-0.6,0-0.8,0c-0.2,0-0.4,0-0.5-0.1
	c-0.1-0.1-0.3-0.2-0.3-0.3c0-0.1,0.1-0.3,0.1-0.6L138.4,80.1z"/>
<path class="st4" d="M142.7,84.5l-0.1,0.6c-0.1,0.2-0.1,0.4-0.3,0.5c-0.2,0.1-0.4,0.3-0.8,0.3l-0.8,0l0,0.7c0,0.2,0,0.2,0.1,0.2
	c0,0,0.1,0.1,0.1,0.1l0.3,0l0.8,0l-0.3,1.1h-0.9c-0.6,0-1.1,0-1.2-0.1c-0.1-0.1-0.2-0.2-0.2-0.4l0.1-2.9h1.4l0,0.6h0.3
	c0.1,0,0.2,0,0.2,0c0,0,0.1-0.1,0.1-0.1l0.1-0.5H142.7z"/>
<path class="st4" d="M122.3,70.1c-0.1,0.2-1,4.5-1,4.5c-0.2,0.9-0.3,1.5-0.8,1.9c-0.3,0.2-0.6,0.3-1,0.3c-0.6,0-1-0.3-1-0.9l0-0.2
	c0,0,0.2-1.1,0.2-1.2c0,0,1-3.9,1.1-4.4c0,0,0,0,0-0.1c-1.9,0-2.2,0-2.2,0c0,0-0.1,0.3-0.1,0.3l-1,4.3l-0.1,0.4l-0.2,1.2
	c0,0.4,0.1,0.6,0.2,0.9c0.5,0.8,1.7,0.9,2.5,0.9c0.9,0,1.8-0.2,2.4-0.6c1-0.6,1.3-1.6,1.5-2.4l0.1-0.4c0,0,1-4,1.2-4.5
	c0,0,0,0,0-0.1C122.9,70.2,122.5,70.2,122.3,70.1"/>
<path class="st4" d="M127.8,78.1c-0.7,0-0.9,0-1.7,0l0-0.1c0.1-0.3,0.1-0.6,0.2-0.9l0.1-0.4c0.1-0.6,0.3-1.4,0.3-1.6
	c0-0.1,0.1-0.5-0.3-0.5c-0.2,0-0.3,0.1-0.5,0.2c-0.1,0.3-0.3,1.3-0.4,1.7c-0.2,0.9-0.2,1-0.3,1.5l-0.1,0.1c-0.7,0-0.9,0-1.7,0l0-0.1
	c0.1-0.5,0.3-1.1,0.4-1.6c0.3-1.5,0.4-2,0.5-2.8l0.1,0c0.8-0.1,1-0.1,1.8-0.3l0.1,0.1l-0.1,0.5c0.1-0.1,0.3-0.2,0.4-0.2
	c0.4-0.2,0.8-0.2,1.1-0.2c0.4,0,0.8,0.1,0.9,0.5c0.2,0.4,0.1,0.8-0.2,1.8l-0.1,0.5C128,77.2,128,77.4,127.8,78.1L127.8,78.1z"/>
<path class="st4" d="M130.5,78.1c-0.4,0-0.7,0-0.9,0c-0.3,0-0.5,0-0.9,0l0,0l0,0c0.1-0.4,0.2-0.5,0.2-0.7c0.1-0.1,0.1-0.3,0.2-0.7
	c0.1-0.5,0.2-0.9,0.2-1.2c0.1-0.3,0.1-0.6,0.1-0.9l0,0l0,0c0.4-0.1,0.7-0.1,0.9-0.1c0.3,0,0.5-0.1,0.9-0.2l0,0l0,0
	c-0.1,0.3-0.2,0.6-0.2,1c-0.1,0.3-0.1,0.6-0.2,0.9c-0.1,0.7-0.2,0.9-0.2,1.1C130.7,77.6,130.7,77.7,130.5,78.1L130.5,78.1
	L130.5,78.1z"/>
<path class="st4" d="M134.8,75.7c0,0.2-0.2,0.8-0.4,1.1c-0.1,0.2-0.3,0.3-0.5,0.3c-0.1,0-0.4,0-0.4-0.5c0-0.2,0-0.5,0.1-0.8
	c0.2-0.8,0.4-1.4,0.9-1.4C134.9,74.5,134.9,75,134.8,75.7 M136.5,75.8c0.2-1,0.1-1.5-0.2-1.8c-0.3-0.4-1-0.6-1.6-0.6
	c-0.4,0-1.3,0-2,0.7c-0.5,0.5-0.7,1.1-0.9,1.7c-0.1,0.6-0.3,1.8,0.7,2.2c0.3,0.1,0.8,0.2,1.1,0.2c0.8,0,1.5-0.2,2.1-0.8
	C136.2,76.9,136.4,76.1,136.5,75.8"/>
<path class="st4" d="M153.8,73.5c-0.8,0.2-1.1,0.2-1.8,0.3l-0.1,0.1c0,0.1,0,0.1,0,0.2c-0.1-0.2-0.3-0.4-0.6-0.5
	c-0.4-0.1-1.2,0-1.9,0.7c-0.5,0.5-0.7,1.1-0.9,1.7c-0.1,0.6-0.3,1.7,0.7,2.1c0.3,0.1,0.6,0.2,0.9,0.2c0.3,0,0.6-0.2,0.9-0.4
	c0,0.1,0,0.2-0.1,0.3l0,0.1c0.7,0,1,0,1.8,0l0.1-0.1c0.1-0.7,0.2-1.4,0.5-2.7C153.5,74.8,153.7,74.2,153.8,73.5L153.8,73.5z
	 M151.2,76.9c-0.1,0.2-0.5,0.3-0.6,0.3c-0.1,0-0.4,0-0.4-0.5c0-0.2,0-0.5,0.1-0.8c0.2-0.8,0.4-1.4,0.9-1.4c0.3,0,0.5,0.3,0.5,0.8
	c0,0.1-0.1,0.3-0.1,0.4c-0.1,0.2-0.1,0.5-0.2,0.7C151.3,76.7,151.2,76.8,151.2,76.9"/>
<path class="st4" d="M141,78.1c-0.7,0-0.9,0-1.7,0l0-0.1c0.1-0.3,0.1-0.6,0.2-0.9l0.1-0.4c0.1-0.6,0.3-1.4,0.3-1.6
	c0-0.1,0.1-0.5-0.3-0.5c-0.2,0-0.3,0.1-0.5,0.2c-0.1,0.3-0.3,1.3-0.4,1.7c-0.2,0.9-0.2,1-0.3,1.5l-0.1,0.1c-0.7,0-0.9,0-1.7,0l0-0.1
	c0.1-0.5,0.3-1.1,0.4-1.6c0.3-1.5,0.4-2,0.5-2.8l0.1,0c0.8-0.1,1-0.1,1.8-0.3l0.1,0.1l-0.1,0.5c0.1-0.1,0.3-0.2,0.4-0.2
	c0.4-0.2,0.8-0.2,1.1-0.2c0.4,0,0.8,0.1,0.9,0.5c0.2,0.4,0.1,0.8-0.2,1.8l-0.1,0.5C141.3,77.2,141.2,77.4,141,78.1L141,78.1z"/>
<path class="st4" d="M146.8,70.1c0,0-0.6,0-0.6,0c-1.4,0-2,0-2.3,0c0,0.1-0.1,0.3-0.1,0.3s-0.5,2.4-0.5,2.4c0,0-1.2,5.1-1.3,5.3
	c1.3,0,1.8,0,2,0c0-0.2,0.3-1.7,0.3-1.7c0,0,0.2-1,0.3-1.1c0,0,0.1-0.1,0.2-0.1h0.1c1.1,0,2.3,0,3.3-0.7c0.6-0.5,1.1-1.2,1.3-2.1
	c0.1-0.2,0.1-0.5,0.1-0.7c0-0.3-0.1-0.7-0.3-0.9C148.9,70.2,147.9,70.2,146.8,70.1 M147.5,72.6c-0.1,0.5-0.5,1-0.9,1.2
	c-0.4,0.2-0.8,0.2-1.3,0.2H145l0-0.1c0,0,0.5-2.4,0.5-2.4l0-0.1l0-0.1l0.2,0c0,0,1.1,0.1,1.2,0.1C147.5,71.6,147.6,72,147.5,72.6"/>
<path class="st4" d="M131.2,74c0.4-0.3,0.5-0.7,0.1-1c-0.4-0.2-1-0.2-1.5,0.2c-0.4,0.3-0.5,0.7-0.1,0.9
	C130.1,74.4,130.8,74.3,131.2,74"/>
<path class="st4" d="M159.3,73.5L159.3,73.5c-0.9,0.1-1,0.1-1.8,0.2l-0.1,0.1c0,0,0,0,0,0l0,0c-0.6,1.3-0.5,1-1,2c0,0,0-0.1,0-0.1
	l-0.1-2.2l-0.1-0.1c-0.9,0.2-0.9,0.2-1.7,0.3l-0.1,0.1c0,0,0,0.1,0,0.1l0,0c0.1,0.5,0.1,0.4,0.2,1.2c0,0.4,0.1,0.8,0.2,1.2
	c0.1,0.6,0.1,1,0.2,2c-0.5,0.9-0.7,1.2-1.2,2l0,0l-0.4,0.6c0,0.1-0.1,0.1-0.1,0.1c-0.1,0-0.1,0-0.2,0H153l-0.3,1l1,0
	c0.6,0,1-0.3,1.2-0.7l0.6-1.1h0l0.1-0.1C156,79.1,159.3,73.5,159.3,73.5"/>
<path class="st1" d="M235.7,73.3c0.5,1.1,0.5,1,1.2,1.1h1.8c-0.4-0.5-1.3-3-1.5-3.4c-0.2-0.3-0.8-0.3-0.8-0.3h-1.6
	C234.7,70.7,235.3,72.3,235.7,73.3"/>
<path class="st1" d="M203.5,65.2c0.5,1,0.4,0.9,1,1h1.5c-0.4-0.5-0.7-1.5-0.9-1.9c-0.2-0.3-0.6-0.3-0.6-0.3h-1.6
	C202.9,63.9,203.2,64.3,203.5,65.2"/>
<path class="st1" d="M244.3,63.9h-2.1l-0.6,2.6H233l-0.3,1.2h8.6l0,0.1l-2.4,10.6c-0.1,0.4-0.2,0.8-0.3,1.1
	c-0.3,0.4-0.6,0.5-1.3,0.5c-0.4,0-2.3,0-3.1,0c0,0-0.1,0.4,0,0.7c0.2,0.4,0.6,0.5,1.2,0.5c0.7,0,3.2,0,3.7,0c0.6,0,1.4-0.5,1.6-1.2
	l2.8-12.2h1.9c0,0,0.2-0.5,0-0.8c-0.3-0.5-1-0.4-1-0.4h-0.6L244.3,63.9z"/>
<path class="st1" d="M227.5,81.2h2.1l2.7-11.6c0.5-0.9,1.2-2.1,2-3.6c0.3-0.5,0.9-1.5,1-1.7l0.2-0.4h-2.1l-0.1,0.2
	c-0.9,1.7-2.1,3.7-2.8,4.8c-1.1,1.8-2.1,2.8-2.8,3l-0.3,1.3h0.3c0.7,0,1.3-0.2,1.7-0.4L227.5,81.2z"/>
<path class="st1" d="M206.3,67.8c0,0,0-0.3-0.1-0.6c-0.2-0.6-0.9-0.6-0.9-0.6l-7.8,0c-0.5,0-0.9,0.2-1.3,0.6
	c-0.1,0.1-0.1,0.1-0.2,0.2c-0.8,0.9-2.6,2.9-3.1,3.4c-0.5,0-1.5,0-1.9,0c0.9-1,0.5-0.5,0.7-0.9c1.1-1.3,5.3-5.9,5.3-5.9h-1.6
	c-0.2,0-0.4,0.1-0.6,0.1c-0.4,0.2-0.7,0.6-0.7,0.6s-3.2,3.8-4.6,5.3c-0.3,0.3-0.4,0.8-0.4,0.8c-0.2,0.7,0.2,1.1,1,1.2
	c0,0,1.1,0,1.7,0c-1.8,2-2.7,3-3.6,3.9c-0.4,0.4-0.4,0.8-0.5,1c0,0,0.1-0.5,0-0.1c-0.2,0.8,1.1,0.9,1.1,0.9c2.9,0,3.9,0,4,0
	c0,0,0.5-0.1,0.9-0.5c0.2-0.3,0.3-0.8,0.3-0.8c-1.9,0-4.1,0-4.3,0c0,0,5.9-6.6,6.8-7.6c0.5-0.5,0.9-1,1.7-1L206.3,67.8z"/>
<path class="st1" d="M205.3,71.9c0,0,0.2-0.4-0.1-0.8c-0.3-0.5-0.8-0.4-0.8-0.4l-2.1,0h-3.6c0,0,0,0,0,0h-2c0,0-0.6,0-0.9,0.5
	c-0.3,0.5-0.3,0.7-0.3,0.7H205.3z"/>
<path class="st1" d="M203.8,80.7c0.4-0.3,0.5-0.8,0.5-0.8c-2.1,0-2.8,0-3.1,0c0,0-0.9,0.1-0.9-0.8l1.4-15.2h-2.1l-1.4,15.3h0
	c-0.1,0.9,0.3,1.9,2.4,1.9c2,0-0.4,0,1.9,0C202.6,81.2,203.4,81.1,203.8,80.7"/>
<path class="st1" d="M223.3,80.8c0.4-0.4,0.5-0.8,0.5-0.8c0,0-1.3-0.2-1.7-0.3c-0.4-0.1-1.9-0.8-4.6-3c1.7-1,3.4-2,5-3l0,0
	c0.4-0.3,1.1-1.1,1-2c-0.1-0.7-0.7-1-1.1-1h-4.2l0.7-2.9l6.9,0c0,0,0.2-0.5-0.1-0.9c-0.2-0.4-0.8-0.4-0.8-0.4l-5.8,0l0.6-2.6h-2.2
	l-0.6,2.6h-5.8c0,0-0.6,0-0.9,0.3c-0.5,0.4-0.5,0.9-0.5,0.9h7l-0.7,2.9l-4.4,0c0,0-0.6,0-1,0.4c-0.3,0.3-0.4,0.8-0.4,0.8l10.5,0
	c0.2,0,0.7,0.5-0.3,1c-1.6,1-3.6,2.2-4.4,2.7c-0.2-0.1-1.4-1.2-2.4-2c-0.1-0.1-0.4-0.4-1-0.4h-2.3c0.9,0.8,3.5,3.3,3.8,3.5
	c-1,0.6-2.1,1.3-3.4,2c-1.8,1-2,0.9-2.6,1l-2,0.3c0,0-0.1,0.4,0.1,0.8c0.3,0.4,0.5,0.4,0.7,0.4l1.7,0c0.5,0,3.2-1.3,3.5-1.5
	c1.4-0.7,2.5-1.3,3.3-1.8c0.2,0.2,4.2,2.8,5.1,3.3l1.8,0C222.5,81.2,222.8,81.2,223.3,80.8"/>
<path class="st1" d="M184.1,80l-4.8,0l1.3-5.6h3.9c0,0,0.2-0.6-0.1-0.9c-0.3-0.4-1-0.3-1-0.3l-2.6,0l0.9-4h-2.2l-0.9,4h-2.5
	c0,0-0.7-0.1-1.1,0.3c-0.4,0.4-0.4,0.9-0.4,0.9h3.8l-1.3,5.6h0l0,0l-3.5,0c-0.6,0-0.8-0.2-1-0.6c-0.1-0.3,0-0.9,0-0.9l1.6-6.7
	c1.1-1.3,2.2-2.6,3.4-4l9.3,0c0,0,0.1-0.3-0.1-0.8c-0.2-0.4-0.9-0.4-0.9-0.4l-7.3,0c0.1-0.1,0.2-0.2,0.3-0.4l1.9-2.3h-2.5l0,0
	c-0.2,0.2-2,2.4-2.2,2.7h-3.7c0,0-0.5,0-0.9,0.2c-0.5,0.3-0.6,1-0.6,1h4.2c-3.9,4.8-4,5.2-5.7,6.1c0,0-0.2,1-0.3,1.2
	c0,0,1.3-0.4,2.4-1.3l-1.4,6.2c0,0-0.1,0.4,0.2,0.9c0.2,0.2,0.6,0.3,0.9,0.4h10l0,0c0.6,0,1.2,0,1.2,0s0.9,0.1,1.4-0.5
	C184.1,80.3,184.1,80,184.1,80"/>
<path class="st1" d="M193.8,79.5c-0.4,0.6-1,0.6-1,0.6l-5.8,1c0,0,0.2-0.9,0.6-1.3c0.4-0.5,1-0.5,1-0.5l5.6-0.5
	C194.1,78.8,194,79.1,193.8,79.5"/>
<path class="st1" d="M202.7,73.2c0,0-0.7,1.5-1.8,2.5c-0.5,0.4-1,0.6-1.5,0.7c-0.7,0-1.4,0-2,0c-0.4,0-0.7,0-1,0h-0.1
	c-0.5,0-0.9,0.1-1.2,0.3c-0.5,0.4-0.5,0.9-0.5,0.9h2.6c3,0,3.8,0,5.3-1.2c1-0.9,2.5-3.2,2.5-3.2H202.7z"/>
<path class="st1" d="M167.8,89.4c0.2-0.7,0.4-1.2,0.7-1.7c0.2-0.3,0.5-0.6,0.8-0.9c0.3-0.3,0.7-0.5,1-0.6c0.5-0.2,1-0.3,1.5-0.3
	c1,0,1.7,0.3,2.1,0.9c0.4,0.6,0.5,1.5,0.3,2.5c-0.2,1.1-0.7,1.9-1.5,2.5c-0.7,0.6-1.6,0.9-2.6,0.9c-1,0-1.7-0.3-2.2-0.9
	C167.7,91.3,167.6,90.5,167.8,89.4 M169.2,89.4c-0.2,0.8-0.1,1.3,0.1,1.7c0.3,0.4,0.7,0.6,1.2,0.6c0.5,0,1-0.2,1.5-0.6
	c0.4-0.4,0.7-1,0.9-1.7c0.2-0.8,0.1-1.3-0.1-1.7c-0.2-0.4-0.6-0.6-1.2-0.6c-0.6,0-1,0.2-1.5,0.6C169.7,88.1,169.4,88.6,169.2,89.4"
	/>
<path class="st1" d="M178.9,92.7h-1.3l0.6-2.5c0.1-0.5,0.2-0.9,0.2-1c0-0.2-0.1-0.3-0.2-0.4c-0.1-0.1-0.2-0.1-0.4-0.1
	c-0.2,0-0.4,0.1-0.6,0.2c-0.2,0.1-0.4,0.3-0.5,0.5c-0.1,0.2-0.2,0.6-0.4,1.1l-0.5,2.2h-1.3l1.1-4.8h1.2l-0.2,0.7
	c0.5-0.5,1.1-0.8,1.8-0.8c0.3,0,0.5,0.1,0.7,0.2c0.2,0.1,0.4,0.2,0.4,0.4c0.1,0.2,0.1,0.3,0.1,0.5c0,0.2,0,0.5-0.1,0.9L178.9,92.7z"
	/>
<polygon class="st1" points="180.2,92.7 181.8,86.1 183,86.1 181.5,92.7 "/>
<path class="st1" d="M182.8,92.7l1.1-4.8h1.3l-1.1,4.8H182.8z M184.1,87.3l0.3-1.2h1.3l-0.3,1.2H184.1z"/>
<path class="st1" d="M189.8,92.7h-1.3l0.6-2.5c0.1-0.5,0.2-0.9,0.2-1c0-0.2-0.1-0.3-0.2-0.4c-0.1-0.1-0.2-0.1-0.4-0.1
	c-0.2,0-0.4,0.1-0.6,0.2c-0.2,0.1-0.4,0.3-0.5,0.5c-0.1,0.2-0.2,0.6-0.4,1.1l-0.5,2.2h-1.3l1.1-4.8h1.2l-0.2,0.7
	c0.5-0.5,1.1-0.8,1.8-0.8c0.3,0,0.5,0.1,0.7,0.2c0.2,0.1,0.4,0.2,0.4,0.4c0.1,0.2,0.1,0.3,0.1,0.5c0,0.2,0,0.5-0.1,0.9L189.8,92.7z"
	/>
<path class="st1" d="M194.2,91.2l1.2,0.2c-0.3,0.5-0.6,0.8-1,1.1c-0.4,0.2-0.9,0.4-1.4,0.4c-0.8,0-1.4-0.3-1.7-0.8
	c-0.2-0.4-0.2-1-0.1-1.7c0.2-0.8,0.5-1.4,1.1-1.9c0.5-0.5,1.1-0.7,1.7-0.7c0.7,0,1.2,0.2,1.5,0.7c0.3,0.5,0.3,1.2,0.1,2.2h-3.2
	c-0.1,0.4,0,0.7,0.1,0.9c0.1,0.2,0.4,0.3,0.7,0.3c0.2,0,0.4-0.1,0.5-0.2C193.9,91.6,194.1,91.4,194.2,91.2 M194.6,89.9
	c0.1-0.4,0-0.6-0.1-0.8c-0.1-0.2-0.3-0.3-0.6-0.3c-0.3,0-0.5,0.1-0.8,0.3c-0.2,0.2-0.4,0.5-0.5,0.8H194.6z"/>
<path class="st1" d="M201.4,92.7l1.5-6.7h2.2c0.8,0,1.3,0,1.6,0.1c0.4,0.1,0.6,0.3,0.8,0.7c0.2,0.3,0.2,0.8,0.1,1.3
	c-0.1,0.4-0.2,0.8-0.5,1c-0.2,0.3-0.4,0.5-0.7,0.7c-0.3,0.2-0.5,0.3-0.8,0.3c-0.3,0.1-0.8,0.1-1.4,0.1h-0.9l-0.6,2.5H201.4z
	 M204,87.2l-0.4,1.9h0.7c0.5,0,0.9,0,1.1-0.1c0.2-0.1,0.4-0.2,0.5-0.3c0.1-0.1,0.2-0.3,0.3-0.5c0.1-0.2,0-0.4-0.1-0.6
	c-0.1-0.2-0.3-0.3-0.5-0.3c-0.2,0-0.5,0-1,0H204z"/>
<path class="st1" d="M209.3,89.4l-1.1-0.2c0.2-0.5,0.5-0.8,0.9-1c0.4-0.2,0.9-0.3,1.5-0.3c0.6,0,1,0.1,1.2,0.2
	c0.2,0.1,0.4,0.3,0.5,0.5c0.1,0.2,0,0.6-0.1,1.1l-0.4,1.5c-0.1,0.4-0.1,0.7-0.2,0.9c0,0.2,0,0.4,0.1,0.6h-1.3c0-0.1,0-0.2,0-0.4
	c0-0.1,0-0.1,0-0.1c-0.3,0.2-0.5,0.4-0.8,0.5c-0.3,0.1-0.5,0.2-0.8,0.2c-0.5,0-0.9-0.1-1.1-0.4c-0.2-0.3-0.3-0.6-0.2-1
	c0.1-0.3,0.2-0.5,0.4-0.7c0.2-0.2,0.4-0.4,0.7-0.5c0.3-0.1,0.6-0.2,1.1-0.3c0.6-0.1,1.1-0.2,1.3-0.3l0-0.1c0.1-0.2,0-0.4-0.1-0.5
	c-0.1-0.1-0.3-0.2-0.6-0.2c-0.2,0-0.4,0-0.6,0.1C209.6,89,209.5,89.2,209.3,89.4 M210.8,90.4c-0.2,0.1-0.4,0.1-0.8,0.2
	c-0.4,0.1-0.6,0.1-0.7,0.2c-0.2,0.1-0.3,0.3-0.4,0.5c0,0.2,0,0.3,0.1,0.5c0.1,0.1,0.3,0.2,0.5,0.2c0.2,0,0.5-0.1,0.7-0.2
	c0.2-0.1,0.3-0.3,0.4-0.4c0.1-0.1,0.1-0.3,0.2-0.6L210.8,90.4z"/>
<path class="st1" d="M213.3,87.9h1.4l0.4,3.4l1.9-3.4h1.3l-2.8,4.6l-0.5,0.8c-0.2,0.3-0.3,0.5-0.5,0.6c-0.1,0.1-0.3,0.3-0.4,0.4
	c-0.2,0.1-0.3,0.2-0.5,0.2c-0.2,0.1-0.4,0.1-0.7,0.1c-0.2,0-0.5,0-0.7-0.1l0.1-1c0.2,0,0.4,0.1,0.5,0.1c0.3,0,0.5-0.1,0.7-0.3
	c0.2-0.2,0.3-0.4,0.5-0.7L213.3,87.9z"/>
<path class="st1" d="M219,87.9h1.2l-0.2,0.7c0.5-0.5,1.1-0.8,1.7-0.8c0.3,0,0.6,0.1,0.8,0.2c0.2,0.1,0.3,0.3,0.4,0.6
	c0.3-0.3,0.5-0.4,0.8-0.6c0.3-0.1,0.6-0.2,0.8-0.2c0.4,0,0.6,0.1,0.8,0.2c0.2,0.1,0.3,0.4,0.4,0.6c0,0.2,0,0.5-0.1,1l-0.7,3.1h-1.3
	l0.6-2.8c0.1-0.5,0.1-0.8,0.1-0.9c-0.1-0.2-0.2-0.3-0.5-0.3c-0.2,0-0.4,0.1-0.5,0.2c-0.2,0.1-0.3,0.3-0.5,0.5
	c-0.1,0.2-0.2,0.5-0.3,1l-0.5,2.3h-1.3l0.6-2.6c0.1-0.5,0.2-0.8,0.1-0.9c0-0.1-0.1-0.2-0.1-0.3c-0.1-0.1-0.2-0.1-0.4-0.1
	c-0.2,0-0.4,0.1-0.6,0.2c-0.2,0.1-0.3,0.3-0.4,0.5c-0.1,0.2-0.2,0.5-0.3,1l-0.5,2.3h-1.3L219,87.9z"/>
<path class="st1" d="M229.4,91.2l1.2,0.2c-0.3,0.5-0.6,0.8-1,1.1c-0.4,0.2-0.9,0.4-1.4,0.4c-0.8,0-1.4-0.3-1.7-0.8
	c-0.2-0.4-0.2-1-0.1-1.7c0.2-0.8,0.5-1.4,1.1-1.9c0.5-0.5,1.1-0.7,1.7-0.7c0.7,0,1.2,0.2,1.5,0.7c0.3,0.5,0.3,1.2,0.1,2.2h-3.2
	c-0.1,0.4,0,0.7,0.1,0.9c0.1,0.2,0.4,0.3,0.7,0.3c0.2,0,0.4-0.1,0.5-0.2C229.1,91.6,229.2,91.4,229.4,91.2 M229.7,89.9
	c0.1-0.4,0-0.6-0.1-0.8c-0.1-0.2-0.3-0.3-0.6-0.3c-0.3,0-0.5,0.1-0.8,0.3c-0.2,0.2-0.4,0.5-0.5,0.8H229.7z"/>
<path class="st1" d="M235.8,92.7h-1.3l0.6-2.5c0.1-0.5,0.2-0.9,0.2-1c0-0.2-0.1-0.3-0.2-0.4c-0.1-0.1-0.2-0.1-0.4-0.1
	c-0.2,0-0.4,0.1-0.6,0.2c-0.2,0.1-0.4,0.3-0.5,0.5c-0.1,0.2-0.2,0.6-0.4,1.1l-0.5,2.2h-1.3l1.1-4.8h1.2l-0.2,0.7
	c0.5-0.5,1.1-0.8,1.8-0.8c0.3,0,0.5,0.1,0.7,0.2c0.2,0.1,0.4,0.2,0.4,0.4c0.1,0.2,0.1,0.3,0.1,0.5c0,0.2,0,0.5-0.1,0.9L235.8,92.7z"
	/>
<path class="st1" d="M240.4,87.9l-0.2,1h-0.9l-0.4,1.9c-0.1,0.4-0.1,0.6-0.1,0.7c0,0.1,0,0.1,0.1,0.2c0,0,0.1,0.1,0.2,0.1
	c0.1,0,0.3,0,0.5-0.1l-0.1,1c-0.3,0.1-0.7,0.2-1.1,0.2c-0.2,0-0.4,0-0.6-0.1c-0.2-0.1-0.3-0.2-0.3-0.3c-0.1-0.1-0.1-0.3-0.1-0.5
	c0-0.1,0.1-0.4,0.2-0.9l0.5-2.1h-0.6l0.2-1h0.6l0.3-1.7h1.4l-0.4,1.7H240.4z"/>
<path class="st1" d="M203.5,200.7c0.5,1,0.4,0.9,1,1h1.5c-0.4-0.5-0.7-1.5-0.9-1.9c-0.2-0.3-0.6-0.3-0.6-0.3h-1.6
	C202.9,199.3,203.2,199.7,203.5,200.7"/>
<path class="st14" d="M203.3,335.9c0.5,1,0.4,0.9,1,1h1.5c-0.4-0.5-0.7-1.5-0.9-1.9c-0.2-0.3-0.6-0.3-0.6-0.3h-1.6
	C202.7,334.6,202.9,335,203.3,335.9"/>
<path class="st1" d="M171.3,216.6L171.3,216.6L171.3,216.6z"/>
<path class="st1" d="M172,216.6l-0.6,0C171.7,216.6,172,216.6,172,216.6"/>
<path class="st0" d="M120.8,197.1H134c1.8,0,3,1.5,2.6,3.4l-6.2,26.4c-0.4,1.8-2.3,3.4-4.1,3.4H113c-1.8,0-3-1.5-2.6-3.4l6.2-26.4
	C117.1,198.6,118.9,197.1,120.8,197.1"/>
<path class="st1" d="M132.9,197.1h15.2c1.8,0,1,1.5,0.6,3.4l-6.2,26.4c-0.4,1.8-0.3,3.4-2.1,3.4h-15.2c-1.9,0-3-1.5-2.6-3.4
	l6.2-26.4C129.2,198.6,131,197.1,132.9,197.1"/>
<path class="st2" d="M147.5,197.1h13.2c1.8,0,3,1.5,2.6,3.4l-6.2,26.4c-0.4,1.8-2.3,3.4-4.1,3.4h-13.2c-1.8,0-3-1.5-2.6-3.4
	l6.2-26.4C143.8,198.6,145.6,197.1,147.5,197.1"/>
<path class="st13" d="M145.3,222h1.2l0.4-1.2h-1.2L145.3,222z M146.3,218.7l-0.4,1.4c0,0,0.5-0.2,0.7-0.3c0.3-0.1,0.6-0.1,0.6-0.1
	l0.3-1H146.3z M146.9,216.6l-0.4,1.4c0,0,0.5-0.2,0.7-0.3c0.3-0.1,0.6-0.1,0.6-0.1l0.3-1H146.9z M149.7,216.6L148,222h0.4l-0.3,1.1
	h-0.4l-0.1,0.3h-1.5l0.1-0.3h-3.1l0.3-1h0.3l1.6-5.4l0.3-1.1h1.6l-0.2,0.6c0,0,0.4-0.3,0.8-0.4c0.4-0.1,2.7-0.1,2.7-0.1l-0.3,1.1
	H149.7z"/>
<path class="st4" d="M150.3,215.6h1.7l0,0.6c0,0.1,0.1,0.2,0.3,0.2h0.3l-0.3,1h-0.9c-0.8,0.1-1.1-0.3-1.1-0.7L150.3,215.6z"/>
<path class="st4" d="M150.6,220.4H149l0.3-0.9h1.8l0.3-0.8h-1.8l0.3-1h5l-0.3,1h-1.7l-0.3,0.8h1.7l-0.3,0.9h-1.8l-0.3,0.4h0.7
	l0.2,1.2c0,0.1,0,0.2,0.1,0.2c0,0,0.3,0.1,0.4,0.1h0.2l-0.3,1.1h-0.6c-0.1,0-0.2,0-0.4,0c-0.2,0-0.3-0.1-0.4-0.2
	c-0.1-0.1-0.3-0.2-0.3-0.4l-0.2-1.2l-0.8,1.1c-0.3,0.4-0.6,0.6-1.2,0.6h-1.2l0.3-1h0.4c0.1,0,0.2,0,0.3-0.1c0.1,0,0.2-0.1,0.2-0.2
	L150.6,220.4z"/>
<path class="st4" d="M133.1,217.9h4.2l-0.3,1h-1.7l-0.3,0.9h1.7l-0.3,1h-1.7l-0.4,1.4c-0.1,0.2,0.4,0.2,0.6,0.2l0.9-0.1l-0.3,1.1
	h-1.9c-0.2,0-0.3,0-0.4-0.1c-0.2,0-0.2-0.1-0.3-0.2c-0.1-0.1-0.2-0.2-0.1-0.4l0.6-1.8h-1l0.3-1.1h1l0.3-0.9h-1L133.1,217.9z"/>
<path class="st4" d="M136,216.1h1.7l-0.3,1.1H135l-0.3,0.2c-0.1,0.1-0.1,0.1-0.3,0.1c-0.1,0.1-0.4,0.2-0.8,0.2h-0.8l0.3-1h0.2
	c0.2,0,0.3,0,0.4-0.1c0.1,0,0.2-0.2,0.3-0.3l0.4-0.8h1.7L136,216.1z"/>
<path class="st13" d="M139.3,217.8c0,0,0.5-0.4,1.3-0.6c0.2,0,1.3,0,1.3,0l0.2-0.6h-2.4L139.3,217.8z M141.6,218.3h-2.4l-0.1,0.5
	h2.1c0.2,0,0.3,0,0.3,0L141.6,218.3z M138.4,215.6h1.5l-0.2,0.7c0,0,0.5-0.4,0.8-0.5c0.3-0.1,1.1-0.2,1.1-0.2l2.4,0l-0.8,2.7
	c-0.1,0.5-0.3,0.8-0.4,0.9c-0.1,0.1-0.2,0.3-0.4,0.4c-0.2,0.1-0.4,0.2-0.6,0.2c-0.2,0-0.4,0-0.7,0h-2.3l-0.6,2.1
	c-0.1,0.2-0.1,0.3,0,0.4c0,0.1,0.1,0.1,0.2,0.1l1-0.1l-0.3,1.2h-1.1c-0.4,0-0.6,0-0.8,0c-0.2,0-0.4,0-0.5-0.1
	c-0.1-0.1-0.3-0.2-0.3-0.3c0-0.1,0.1-0.3,0.1-0.6L138.4,215.6z"/>
<path class="st4" d="M142.7,219.9l-0.1,0.6c-0.1,0.2-0.1,0.4-0.3,0.5c-0.2,0.1-0.4,0.3-0.8,0.3l-0.8,0l0,0.7c0,0.2,0,0.2,0.1,0.2
	c0,0,0.1,0.1,0.1,0.1l0.3,0l0.8,0l-0.3,1.1h-0.9c-0.6,0-1.1,0-1.2-0.1c-0.1-0.1-0.2-0.2-0.2-0.4l0.1-2.9h1.4l0,0.6h0.3
	c0.1,0,0.2,0,0.2,0c0,0,0.1-0.1,0.1-0.1l0.1-0.5H142.7z"/>
<path class="st4" d="M122.3,205.6c-0.1,0.2-1,4.5-1,4.5c-0.2,0.9-0.3,1.5-0.8,1.9c-0.3,0.2-0.6,0.3-1,0.3c-0.6,0-1-0.3-1-0.9l0-0.2
	c0,0,0.2-1.1,0.2-1.2c0,0,1-3.9,1.1-4.4c0,0,0,0,0-0.1c-1.9,0-2.2,0-2.2,0c0,0-0.1,0.3-0.1,0.3l-1,4.3l-0.1,0.4l-0.2,1.2
	c0,0.4,0.1,0.6,0.2,0.9c0.5,0.8,1.7,0.9,2.5,0.9c0.9,0,1.8-0.2,2.4-0.6c1-0.6,1.3-1.6,1.5-2.4l0.1-0.4c0,0,1-4,1.2-4.5
	c0,0,0,0,0-0.1C122.9,205.6,122.5,205.6,122.3,205.6"/>
<path class="st4" d="M127.8,213.5c-0.7,0-0.9,0-1.7,0l0-0.1c0.1-0.3,0.1-0.6,0.2-0.9l0.1-0.4c0.1-0.6,0.3-1.4,0.3-1.6
	c0-0.1,0.1-0.5-0.3-0.5c-0.2,0-0.3,0.1-0.5,0.2c-0.1,0.3-0.3,1.3-0.4,1.7c-0.2,0.9-0.2,1-0.3,1.5l-0.1,0.1c-0.7,0-0.9,0-1.7,0l0-0.1
	c0.1-0.5,0.3-1.1,0.4-1.6c0.3-1.5,0.4-2,0.5-2.8l0.1,0c0.8-0.1,1-0.1,1.8-0.3l0.1,0.1l-0.1,0.5c0.1-0.1,0.3-0.2,0.4-0.2
	c0.4-0.2,0.8-0.2,1.1-0.2c0.4,0,0.8,0.1,0.9,0.5c0.2,0.4,0.1,0.8-0.2,1.8l-0.1,0.5C128,212.6,128,212.8,127.8,213.5L127.8,213.5z"/>
<path class="st4" d="M130.5,213.5c-0.4,0-0.7,0-0.9,0c-0.3,0-0.5,0-0.9,0l0,0l0,0c0.1-0.4,0.2-0.5,0.2-0.7c0.1-0.1,0.1-0.3,0.2-0.7
	c0.1-0.5,0.2-0.9,0.2-1.2c0.1-0.3,0.1-0.6,0.1-0.9l0,0l0,0c0.4-0.1,0.7-0.1,0.9-0.1c0.3,0,0.5-0.1,0.9-0.2l0,0l0,0
	c-0.1,0.3-0.2,0.6-0.2,1c-0.1,0.3-0.1,0.6-0.2,0.9c-0.1,0.7-0.2,0.9-0.2,1.1C130.7,213,130.7,213.1,130.5,213.5L130.5,213.5
	L130.5,213.5z"/>
<path class="st4" d="M134.8,211.2c0,0.2-0.2,0.8-0.4,1.1c-0.1,0.2-0.3,0.3-0.5,0.3c-0.1,0-0.4,0-0.4-0.5c0-0.2,0-0.5,0.1-0.8
	c0.2-0.8,0.4-1.4,0.9-1.4C134.9,209.9,134.9,210.4,134.8,211.2 M136.5,211.2c0.2-1,0.1-1.5-0.2-1.8c-0.3-0.4-1-0.6-1.6-0.6
	c-0.4,0-1.3,0-2,0.7c-0.5,0.5-0.7,1.1-0.9,1.7c-0.1,0.6-0.3,1.8,0.7,2.2c0.3,0.1,0.8,0.2,1.1,0.2c0.8,0,1.5-0.2,2.1-0.8
	C136.2,212.3,136.4,211.5,136.5,211.2"/>
<path class="st4" d="M153.8,208.9c-0.8,0.2-1.1,0.2-1.8,0.3l-0.1,0.1c0,0.1,0,0.1,0,0.2c-0.1-0.2-0.3-0.4-0.6-0.5
	c-0.4-0.1-1.2,0-1.9,0.7c-0.5,0.5-0.7,1.1-0.9,1.7c-0.1,0.6-0.3,1.7,0.7,2.1c0.3,0.1,0.6,0.2,0.9,0.2c0.3,0,0.6-0.2,0.9-0.4
	c0,0.1,0,0.2-0.1,0.3l0,0.1c0.7,0,1,0,1.8,0l0.1-0.1c0.1-0.7,0.2-1.4,0.5-2.7C153.5,210.2,153.7,209.6,153.8,208.9L153.8,208.9z
	 M151.2,212.3c-0.1,0.2-0.5,0.3-0.6,0.3c-0.1,0-0.4,0-0.4-0.5c0-0.2,0-0.5,0.1-0.8c0.2-0.8,0.4-1.4,0.9-1.4c0.3,0,0.5,0.3,0.5,0.8
	c0,0.1-0.1,0.3-0.1,0.4c-0.1,0.2-0.1,0.5-0.2,0.7C151.3,212.1,151.2,212.2,151.2,212.3"/>
<path class="st4" d="M141,213.5c-0.7,0-0.9,0-1.7,0l0-0.1c0.1-0.3,0.1-0.6,0.2-0.9l0.1-0.4c0.1-0.6,0.3-1.4,0.3-1.6
	c0-0.1,0.1-0.5-0.3-0.5c-0.2,0-0.3,0.1-0.5,0.2c-0.1,0.3-0.3,1.3-0.4,1.7c-0.2,0.9-0.2,1-0.3,1.5l-0.1,0.1c-0.7,0-0.9,0-1.7,0l0-0.1
	c0.1-0.5,0.3-1.1,0.4-1.6c0.3-1.5,0.4-2,0.5-2.8l0.1,0c0.8-0.1,1-0.1,1.8-0.3l0.1,0.1l-0.1,0.5c0.1-0.1,0.3-0.2,0.4-0.2
	c0.4-0.2,0.8-0.2,1.1-0.2c0.4,0,0.8,0.1,0.9,0.5c0.2,0.4,0.1,0.8-0.2,1.8l-0.1,0.5C141.3,212.6,141.2,212.8,141,213.5L141,213.5z"/>
<path class="st4" d="M146.8,205.6c0,0-0.6,0-0.6,0c-1.4,0-2,0-2.3,0c0,0.1-0.1,0.3-0.1,0.3s-0.5,2.4-0.5,2.4c0,0-1.2,5.1-1.3,5.3
	c1.3,0,1.8,0,2,0c0-0.2,0.3-1.7,0.3-1.7c0,0,0.2-1,0.3-1.1c0,0,0.1-0.1,0.2-0.1h0.1c1.1,0,2.3,0,3.3-0.7c0.6-0.5,1.1-1.2,1.3-2.1
	c0.1-0.2,0.1-0.5,0.1-0.7c0-0.3-0.1-0.7-0.3-0.9C148.9,205.6,147.9,205.6,146.8,205.6 M147.5,208c-0.1,0.5-0.5,1-0.9,1.2
	c-0.4,0.2-0.8,0.2-1.3,0.2H145l0-0.1c0,0,0.5-2.4,0.5-2.4l0-0.1l0-0.1l0.2,0c0,0,1.1,0.1,1.2,0.1C147.5,207,147.6,207.5,147.5,208"
	/>
<path class="st4" d="M131.2,209.4c0.4-0.3,0.5-0.7,0.1-1c-0.4-0.2-1-0.2-1.5,0.2c-0.4,0.3-0.5,0.7-0.1,0.9
	C130.1,209.8,130.8,209.7,131.2,209.4"/>
<path class="st4" d="M159.3,208.9L159.3,208.9c-0.9,0.1-1,0.1-1.8,0.2l-0.1,0.1c0,0,0,0,0,0l0,0c-0.6,1.3-0.5,1-1,2c0,0,0-0.1,0-0.1
	l-0.1-2.2l-0.1-0.1c-0.9,0.2-0.9,0.2-1.7,0.3l-0.1,0.1c0,0,0,0.1,0,0.1l0,0c0.1,0.5,0.1,0.4,0.2,1.2c0,0.4,0.1,0.8,0.2,1.2
	c0.1,0.6,0.1,1,0.2,2c-0.5,0.9-0.7,1.2-1.2,2l0,0l-0.4,0.6c0,0.1-0.1,0.1-0.1,0.1c-0.1,0-0.1,0-0.2,0H153l-0.3,1l1,0
	c0.6,0,1-0.3,1.2-0.7l0.6-1.1h0l0.1-0.1C156,214.6,159.3,208.9,159.3,208.9"/>
<path class="st1" d="M235.7,208.7c0.5,1.1,0.5,1,1.2,1.1h1.8c-0.4-0.5-1.3-3-1.5-3.4c-0.2-0.3-0.8-0.3-0.8-0.3h-1.6
	C234.7,206.1,235.3,207.7,235.7,208.7"/>
<path class="st1" d="M244.3,199.3h-2.1l-0.6,2.6H233l-0.3,1.2h8.6l0,0.1l-2.4,10.6c-0.1,0.4-0.2,0.8-0.3,1.1
	c-0.3,0.4-0.6,0.5-1.3,0.5c-0.4,0-2.3,0-3.1,0c0,0-0.1,0.4,0,0.7c0.2,0.4,0.6,0.5,1.2,0.5c0.7,0,3.2,0,3.7,0c0.6,0,1.4-0.5,1.6-1.2
	l2.8-12.2h1.9c0,0,0.2-0.5,0-0.8c-0.3-0.5-1-0.4-1-0.4h-0.6L244.3,199.3z"/>
<path class="st1" d="M227.5,216.6h2.1l2.7-11.6c0.5-0.9,1.2-2.1,2-3.6c0.3-0.5,0.9-1.5,1-1.7l0.2-0.4h-2.1l-0.1,0.2
	c-0.9,1.7-2.1,3.7-2.8,4.8c-1.1,1.7-2.1,2.8-2.8,3l-0.3,1.3h0.3c0.7,0,1.3-0.2,1.7-0.4L227.5,216.6z"/>
<path class="st1" d="M206.3,203.2c0,0,0-0.3-0.1-0.6c-0.2-0.6-0.9-0.6-0.9-0.6l-7.8,0c-0.5,0-0.9,0.2-1.3,0.6
	c-0.1,0.1-0.1,0.1-0.2,0.2c-0.8,0.9-2.6,2.9-3.1,3.4c-0.5,0-1.5,0-1.9,0c0.9-1,0.5-0.5,0.7-0.9c1.1-1.3,5.3-5.9,5.3-5.9h-1.6
	c-0.2,0-0.4,0.1-0.6,0.1c-0.4,0.2-0.7,0.6-0.7,0.6s-3.2,3.8-4.6,5.3c-0.3,0.3-0.4,0.8-0.4,0.8c-0.2,0.7,0.2,1.1,1,1.2
	c0,0,1.1,0,1.7,0c-1.8,2-2.7,3-3.6,3.9c-0.4,0.4-0.4,0.8-0.5,1c0,0,0.1-0.5,0-0.1c-0.2,0.8,1.1,0.9,1.1,0.9c2.9,0,3.9,0,4,0
	c0,0,0.5-0.1,0.9-0.4c0.2-0.3,0.3-0.8,0.3-0.8c-1.9,0-4.1,0-4.3,0c0,0,5.9-6.6,6.8-7.6c0.5-0.5,0.9-1,1.7-1L206.3,203.2z"/>
<path class="st1" d="M205.3,207.3c0,0,0.2-0.4-0.1-0.8c-0.3-0.5-0.8-0.4-0.8-0.4l-2.1,0h-3.6c0,0,0,0,0,0h-2c0,0-0.6,0-0.9,0.5
	c-0.3,0.5-0.3,0.7-0.3,0.7H205.3z"/>
<path class="st1" d="M203.8,216.2c0.4-0.3,0.5-0.8,0.5-0.8c-2.1,0-2.8,0-3.1,0c0,0-0.9,0.1-0.9-0.8l1.4-15.2h-2.1l-1.4,15.3h0
	c-0.1,0.9,0.3,1.9,2.4,1.9c2,0-0.4,0,1.9,0C202.6,216.6,203.4,216.6,203.8,216.2"/>
<path class="st1" d="M223.3,216.2c0.4-0.4,0.5-0.8,0.5-0.8c0,0-1.3-0.2-1.7-0.3c-0.4-0.1-1.9-0.8-4.6-3c1.7-1,3.4-2,5-3l0,0
	c0.4-0.3,1.1-1.1,1-2c-0.1-0.7-0.7-1-1.1-1h-4.2l0.7-2.9l6.9,0c0,0,0.2-0.5-0.1-0.9c-0.2-0.4-0.8-0.4-0.8-0.4l-5.8,0l0.6-2.6h-2.2
	L217,202h-5.8c0,0-0.6,0-0.9,0.3c-0.5,0.4-0.5,0.9-0.5,0.9h7l-0.7,2.9l-4.4,0c0,0-0.6,0-1,0.4c-0.3,0.3-0.4,0.8-0.4,0.8l10.5,0
	c0.2,0,0.7,0.5-0.3,1c-1.6,1-3.6,2.2-4.4,2.7c-0.2-0.1-1.4-1.2-2.4-2c-0.1-0.1-0.4-0.4-1-0.4h-2.3c0.9,0.8,3.5,3.3,3.8,3.5
	c-1,0.6-2.1,1.3-3.4,2c-1.8,1-2,0.9-2.6,1l-2,0.3c0,0-0.1,0.4,0.1,0.8c0.3,0.4,0.5,0.4,0.7,0.4l1.7,0c0.5,0,3.2-1.3,3.5-1.5
	c1.4-0.7,2.5-1.3,3.3-1.8c0.2,0.2,4.2,2.8,5.1,3.3l1.8,0C222.5,216.6,222.8,216.6,223.3,216.2"/>
<path class="st1" d="M184.1,215.4l-4.8,0l1.3-5.6h3.9c0,0,0.2-0.6-0.1-0.9c-0.3-0.4-1-0.3-1-0.3l-2.6,0l0.9-4h-2.2l-0.9,4h-2.5
	c0,0-0.7-0.1-1.1,0.3c-0.4,0.4-0.4,0.9-0.4,0.9h3.8l-1.3,5.6h0l0,0l-3.5,0c-0.6,0-0.8-0.2-1-0.6c-0.1-0.3,0-0.9,0-0.9l1.6-6.7
	c1.1-1.3,2.2-2.6,3.4-4l9.3,0c0,0,0.1-0.3-0.1-0.8c-0.2-0.4-0.9-0.4-0.9-0.4l-7.3,0c0.1-0.1,0.2-0.2,0.3-0.4l1.9-2.3h-2.5l0,0
	c-0.2,0.2-2,2.4-2.2,2.7h-3.7c0,0-0.5,0-0.9,0.2c-0.5,0.3-0.6,1-0.6,1h4.2c-3.9,4.8-4,5.2-5.7,6.1c0,0-0.2,1-0.3,1.2
	c0,0,1.3-0.4,2.4-1.3l-1.4,6.2c0,0-0.1,0.4,0.2,0.9c0.2,0.2,0.6,0.3,0.9,0.4h10l0,0c0.6,0,1.2,0,1.2,0s0.9,0.1,1.4-0.5
	C184.1,215.8,184.1,215.4,184.1,215.4"/>
<path class="st1" d="M193.8,214.9c-0.4,0.6-1,0.6-1,0.6l-5.8,1c0,0,0.2-0.9,0.6-1.3c0.4-0.5,1-0.5,1-0.5l5.6-0.5
	C194.1,214.2,194,214.6,193.8,214.9"/>
<path class="st1" d="M202.7,208.6c0,0-0.7,1.5-1.8,2.5c-0.5,0.4-1,0.6-1.5,0.7c-0.7,0-1.4,0-2,0c-0.4,0-0.7,0-1,0h-0.1
	c-0.5,0-0.9,0.1-1.2,0.3c-0.5,0.4-0.5,0.9-0.5,0.9h2.6c3,0,3.8,0,5.3-1.2c1-0.9,2.5-3.2,2.5-3.2H202.7z"/>
<path class="st1" d="M167.8,224.9c0.2-0.7,0.4-1.2,0.7-1.7c0.2-0.3,0.5-0.6,0.8-0.9c0.3-0.3,0.7-0.5,1-0.6c0.5-0.2,1-0.3,1.5-0.3
	c1,0,1.7,0.3,2.1,0.9c0.4,0.6,0.5,1.5,0.3,2.5c-0.2,1.1-0.7,1.9-1.5,2.5c-0.7,0.6-1.6,0.9-2.6,0.9c-1,0-1.7-0.3-2.2-0.9
	C167.7,226.8,167.6,225.9,167.8,224.9 M169.2,224.8c-0.2,0.8-0.1,1.3,0.1,1.7c0.3,0.4,0.7,0.6,1.2,0.6c0.5,0,1-0.2,1.5-0.6
	c0.4-0.4,0.7-1,0.9-1.7c0.2-0.8,0.1-1.3-0.1-1.7c-0.2-0.4-0.6-0.6-1.2-0.6c-0.6,0-1,0.2-1.5,0.6
	C169.7,223.5,169.4,224.1,169.2,224.8"/>
<path class="st1" d="M178.9,228.2h-1.3l0.6-2.5c0.1-0.5,0.2-0.9,0.2-1c0-0.2-0.1-0.3-0.2-0.4c-0.1-0.1-0.2-0.1-0.4-0.1
	c-0.2,0-0.4,0.1-0.6,0.2c-0.2,0.1-0.4,0.3-0.5,0.5c-0.1,0.2-0.2,0.6-0.4,1.1l-0.5,2.2h-1.3l1.1-4.8h1.2l-0.2,0.7
	c0.5-0.5,1.1-0.8,1.8-0.8c0.3,0,0.5,0.1,0.7,0.2c0.2,0.1,0.4,0.2,0.4,0.4c0.1,0.2,0.1,0.3,0.1,0.5c0,0.2,0,0.5-0.1,0.9L178.9,228.2z
	"/>
<polygon class="st1" points="180.2,228.2 181.8,221.5 183,221.5 181.5,228.2 "/>
<path class="st1" d="M182.8,228.2l1.1-4.8h1.3l-1.1,4.8H182.8z M184.1,222.7l0.3-1.2h1.3l-0.3,1.2H184.1z"/>
<path class="st1" d="M189.8,228.2h-1.3l0.6-2.5c0.1-0.5,0.2-0.9,0.2-1c0-0.2-0.1-0.3-0.2-0.4c-0.1-0.1-0.2-0.1-0.4-0.1
	c-0.2,0-0.4,0.1-0.6,0.2c-0.2,0.1-0.4,0.3-0.5,0.5c-0.1,0.2-0.2,0.6-0.4,1.1l-0.5,2.2h-1.3l1.1-4.8h1.2l-0.2,0.7
	c0.5-0.5,1.1-0.8,1.8-0.8c0.3,0,0.5,0.1,0.7,0.2c0.2,0.1,0.4,0.2,0.4,0.4c0.1,0.2,0.1,0.3,0.1,0.5c0,0.2,0,0.5-0.1,0.9L189.8,228.2z
	"/>
<path class="st1" d="M194.2,226.6l1.2,0.2c-0.3,0.5-0.6,0.8-1,1.1c-0.4,0.2-0.9,0.4-1.4,0.4c-0.8,0-1.4-0.3-1.7-0.8
	c-0.2-0.4-0.2-1-0.1-1.7c0.2-0.8,0.5-1.4,1.1-1.9c0.5-0.5,1.1-0.7,1.7-0.7c0.7,0,1.2,0.2,1.5,0.7c0.3,0.5,0.3,1.2,0.1,2.2h-3.2
	c-0.1,0.4,0,0.7,0.1,0.9c0.1,0.2,0.4,0.3,0.7,0.3c0.2,0,0.4-0.1,0.5-0.2C193.9,227,194.1,226.9,194.2,226.6 M194.6,225.3
	c0.1-0.4,0-0.6-0.1-0.8c-0.1-0.2-0.3-0.3-0.6-0.3c-0.3,0-0.5,0.1-0.8,0.3c-0.2,0.2-0.4,0.5-0.5,0.8H194.6z"/>
<path class="st1" d="M201.4,228.2l1.5-6.7h2.2c0.8,0,1.3,0,1.6,0.1c0.4,0.1,0.6,0.3,0.8,0.7c0.2,0.3,0.2,0.8,0.1,1.3
	c-0.1,0.4-0.2,0.8-0.5,1c-0.2,0.3-0.4,0.5-0.7,0.7c-0.3,0.2-0.5,0.3-0.8,0.3c-0.3,0.1-0.8,0.1-1.4,0.1h-0.9l-0.6,2.5H201.4z
	 M204,222.6l-0.4,1.9h0.7c0.5,0,0.9,0,1.1-0.1c0.2-0.1,0.4-0.2,0.5-0.3c0.1-0.1,0.2-0.3,0.3-0.5c0.1-0.2,0-0.4-0.1-0.6
	c-0.1-0.2-0.3-0.3-0.5-0.3c-0.2,0-0.5,0-1,0H204z"/>
<path class="st1" d="M209.3,224.8l-1.1-0.2c0.2-0.5,0.5-0.8,0.9-1c0.4-0.2,0.9-0.3,1.5-0.3c0.6,0,1,0.1,1.2,0.2
	c0.2,0.1,0.4,0.3,0.5,0.5c0.1,0.2,0,0.6-0.1,1.1l-0.4,1.5c-0.1,0.4-0.1,0.7-0.2,0.9c0,0.2,0,0.4,0.1,0.6h-1.3c0-0.1,0-0.2,0-0.4
	c0-0.1,0-0.1,0-0.2c-0.3,0.2-0.5,0.4-0.8,0.5c-0.3,0.1-0.5,0.2-0.8,0.2c-0.5,0-0.9-0.1-1.1-0.4c-0.2-0.3-0.3-0.6-0.2-1
	c0.1-0.3,0.2-0.5,0.4-0.7c0.2-0.2,0.4-0.4,0.7-0.5c0.3-0.1,0.6-0.2,1.1-0.3c0.6-0.1,1.1-0.2,1.3-0.3l0-0.1c0.1-0.2,0-0.4-0.1-0.5
	c-0.1-0.1-0.3-0.2-0.6-0.2c-0.2,0-0.4,0-0.6,0.1C209.6,224.4,209.5,224.6,209.3,224.8 M210.8,225.8c-0.2,0.1-0.4,0.1-0.8,0.2
	c-0.4,0.1-0.6,0.2-0.7,0.2c-0.2,0.1-0.3,0.3-0.4,0.5c0,0.2,0,0.3,0.1,0.5c0.1,0.1,0.3,0.2,0.5,0.2c0.2,0,0.5-0.1,0.7-0.2
	c0.2-0.1,0.3-0.3,0.4-0.4c0.1-0.1,0.1-0.3,0.2-0.6L210.8,225.8z"/>
<path class="st1" d="M213.3,223.3h1.4l0.4,3.4l1.9-3.4h1.3l-2.8,4.6l-0.5,0.8c-0.2,0.3-0.3,0.5-0.5,0.6c-0.1,0.1-0.3,0.3-0.4,0.4
	c-0.2,0.1-0.3,0.2-0.5,0.2c-0.2,0.1-0.4,0.1-0.7,0.1c-0.2,0-0.5,0-0.7-0.1l0.1-1c0.2,0,0.4,0.1,0.5,0.1c0.3,0,0.5-0.1,0.7-0.3
	c0.2-0.2,0.3-0.4,0.5-0.7L213.3,223.3z"/>
<path class="st1" d="M219,223.3h1.2L220,224c0.5-0.5,1.1-0.8,1.7-0.8c0.3,0,0.6,0.1,0.8,0.2c0.2,0.1,0.3,0.3,0.4,0.6
	c0.3-0.3,0.5-0.4,0.8-0.6c0.3-0.1,0.6-0.2,0.8-0.2c0.4,0,0.6,0.1,0.8,0.2c0.2,0.1,0.3,0.4,0.4,0.6c0,0.2,0,0.5-0.1,1l-0.7,3.1h-1.3
	l0.6-2.8c0.1-0.5,0.1-0.8,0.1-0.9c-0.1-0.2-0.2-0.3-0.5-0.3c-0.2,0-0.4,0.1-0.5,0.2c-0.2,0.1-0.3,0.3-0.5,0.5
	c-0.1,0.2-0.2,0.5-0.3,1l-0.5,2.3h-1.3l0.6-2.6c0.1-0.5,0.2-0.8,0.1-0.9c0-0.1-0.1-0.2-0.1-0.3c-0.1-0.1-0.2-0.1-0.4-0.1
	c-0.2,0-0.4,0.1-0.6,0.2c-0.2,0.1-0.3,0.3-0.4,0.5c-0.1,0.2-0.2,0.5-0.3,1l-0.5,2.3h-1.3L219,223.3z"/>
<path class="st1" d="M229.4,226.6l1.2,0.2c-0.3,0.5-0.6,0.8-1,1.1c-0.4,0.2-0.9,0.4-1.4,0.4c-0.8,0-1.4-0.3-1.7-0.8
	c-0.2-0.4-0.2-1-0.1-1.7c0.2-0.8,0.5-1.4,1.1-1.9c0.5-0.5,1.1-0.7,1.7-0.7c0.7,0,1.2,0.2,1.5,0.7c0.3,0.5,0.3,1.2,0.1,2.2h-3.2
	c-0.1,0.4,0,0.7,0.1,0.9c0.1,0.2,0.4,0.3,0.7,0.3c0.2,0,0.4-0.1,0.5-0.2C229.1,227,229.2,226.9,229.4,226.6 M229.7,225.3
	c0.1-0.4,0-0.6-0.1-0.8c-0.1-0.2-0.3-0.3-0.6-0.3c-0.3,0-0.5,0.1-0.8,0.3c-0.2,0.2-0.4,0.5-0.5,0.8H229.7z"/>
<path class="st1" d="M235.8,228.2h-1.3l0.6-2.5c0.1-0.5,0.2-0.9,0.2-1c0-0.2-0.1-0.3-0.2-0.4c-0.1-0.1-0.2-0.1-0.4-0.1
	c-0.2,0-0.4,0.1-0.6,0.2c-0.2,0.1-0.4,0.3-0.5,0.5c-0.1,0.2-0.2,0.6-0.4,1.1l-0.5,2.2h-1.3l1.1-4.8h1.2l-0.2,0.7
	c0.5-0.5,1.1-0.8,1.8-0.8c0.3,0,0.5,0.1,0.7,0.2c0.2,0.1,0.4,0.2,0.4,0.4c0.1,0.2,0.1,0.3,0.1,0.5c0,0.2,0,0.5-0.1,0.9L235.8,228.2z
	"/>
<path class="st1" d="M240.4,223.3l-0.2,1h-0.9l-0.4,1.9c-0.1,0.4-0.1,0.6-0.1,0.7c0,0.1,0,0.1,0.1,0.2c0,0,0.1,0.1,0.2,0.1
	c0.1,0,0.3,0,0.5-0.1l-0.1,1c-0.3,0.1-0.7,0.2-1.1,0.2c-0.2,0-0.4,0-0.6-0.1c-0.2-0.1-0.3-0.2-0.3-0.3c-0.1-0.1-0.1-0.3-0.1-0.5
	c0-0.1,0.1-0.4,0.2-0.9l0.5-2.1h-0.6l0.2-1h0.6l0.3-1.7h1.4l-0.4,1.7H240.4z"/>
<path class="st1" d="M171.3,352L171.3,352L171.3,352z"/>
<path class="st1" d="M172,352l-0.6,0C171.7,352,172,352,172,352"/>
<path class="st15" d="M120.8,332.5H134c1.8,0,3,1.5,2.6,3.4l-6.2,26.4c-0.4,1.8-2.3,3.4-4.1,3.4H113c-1.8,0-3-1.5-2.6-3.4l6.2-26.4
	C117.1,334,118.9,332.5,120.8,332.5"/>
<path class="st14" d="M132.9,332.5h15.2c1.8,0,1,1.5,0.6,3.4l-6.2,26.4c-0.4,1.8-0.3,3.4-2.1,3.4h-15.2c-1.9,0-3-1.5-2.6-3.4
	l6.2-26.4C129.2,334,131,332.5,132.9,332.5"/>
<path class="st16" d="M147.5,332.5h13.2c1.8,0,3,1.5,2.6,3.4l-6.2,26.4c-0.4,1.8-2.3,3.4-4.1,3.4h-13.2c-1.8,0-3-1.5-2.6-3.4
	l6.2-26.4C143.8,334,145.6,332.5,147.5,332.5"/>
<path class="st13" d="M145.3,357.4h1.2l0.4-1.2h-1.2L145.3,357.4z M146.3,354.1l-0.4,1.4c0,0,0.5-0.2,0.7-0.3
	c0.3-0.1,0.6-0.1,0.6-0.1l0.3-1H146.3z M146.9,352.1l-0.4,1.4c0,0,0.5-0.2,0.7-0.3c0.3-0.1,0.6-0.1,0.6-0.1l0.3-1H146.9z
	 M149.7,352.1l-1.6,5.3h0.4l-0.3,1.1h-0.4l-0.1,0.3h-1.5l0.1-0.3h-3.1l0.3-1h0.3l1.6-5.4l0.3-1.1h1.6l-0.2,0.6c0,0,0.4-0.3,0.8-0.4
	c0.4-0.1,2.7-0.1,2.7-0.1l-0.3,1.1H149.7z"/>
<path class="st4" d="M150.3,351h1.7l0,0.6c0,0.1,0.1,0.2,0.3,0.2h0.3l-0.3,1h-0.9c-0.8,0.1-1.1-0.3-1.1-0.7L150.3,351z"/>
<path class="st4" d="M150.6,355.8H149l0.3-0.9h1.8l0.3-0.8h-1.8l0.3-1h5l-0.3,1h-1.7l-0.3,0.8h1.7l-0.3,0.9h-1.8l-0.3,0.4h0.7
	l0.2,1.2c0,0.1,0,0.2,0.1,0.2c0,0,0.3,0.1,0.4,0.1h0.2l-0.3,1.1h-0.6c-0.1,0-0.2,0-0.4,0c-0.2,0-0.3-0.1-0.4-0.2
	c-0.1-0.1-0.3-0.2-0.3-0.4l-0.2-1.2l-0.8,1.1c-0.3,0.4-0.6,0.6-1.2,0.6h-1.2l0.3-1h0.4c0.1,0,0.2-0.1,0.3-0.1c0.1,0,0.2-0.1,0.2-0.2
	L150.6,355.8z"/>
<path class="st4" d="M133.1,353.3h4.2l-0.3,1h-1.7l-0.3,0.9h1.7l-0.3,1h-1.7l-0.4,1.4c-0.1,0.2,0.4,0.2,0.6,0.2l0.9-0.1l-0.3,1.1
	h-1.9c-0.2,0-0.3,0-0.4-0.1c-0.2,0-0.2-0.1-0.3-0.2c-0.1-0.1-0.2-0.2-0.1-0.4l0.6-1.8h-1l0.3-1.1h1l0.3-0.9h-1L133.1,353.3z"/>
<path class="st4" d="M136,351.5h1.7l-0.3,1.1H135l-0.3,0.2c-0.1,0.1-0.1,0.1-0.3,0.1c-0.1,0.1-0.4,0.2-0.8,0.2h-0.8l0.3-1h0.2
	c0.2,0,0.3,0,0.4-0.1c0.1,0,0.2-0.2,0.3-0.3l0.4-0.8h1.7L136,351.5z"/>
<path class="st13" d="M139.3,353.3c0,0,0.5-0.4,1.3-0.6c0.2,0,1.3,0,1.3,0l0.2-0.6h-2.4L139.3,353.3z M141.6,353.7h-2.4l-0.1,0.5
	h2.1c0.2,0,0.3,0,0.3,0L141.6,353.7z M138.4,351h1.5l-0.2,0.7c0,0,0.5-0.4,0.8-0.5c0.3-0.1,1.1-0.2,1.1-0.2l2.4,0l-0.8,2.7
	c-0.1,0.5-0.3,0.8-0.4,0.9c-0.1,0.1-0.2,0.3-0.4,0.4c-0.2,0.1-0.4,0.2-0.6,0.2c-0.2,0-0.4,0-0.7,0h-2.3l-0.6,2.1
	c-0.1,0.2-0.1,0.3,0,0.4c0,0.1,0.1,0.1,0.2,0.1l1-0.1l-0.3,1.2h-1.1c-0.4,0-0.6,0-0.8,0c-0.2,0-0.4,0-0.5-0.1
	c-0.1-0.1-0.3-0.2-0.3-0.3c0-0.1,0.1-0.3,0.1-0.6L138.4,351z"/>
<path class="st4" d="M142.7,355.3l-0.1,0.6c-0.1,0.2-0.1,0.4-0.3,0.5c-0.2,0.1-0.4,0.3-0.8,0.3l-0.8,0l0,0.7c0,0.2,0,0.2,0.1,0.2
	c0,0,0.1,0.1,0.1,0.1l0.3,0l0.8,0l-0.3,1.1h-0.9c-0.6,0-1.1,0-1.2-0.1c-0.1-0.1-0.2-0.2-0.2-0.4l0.1-2.9h1.4l0,0.6h0.3
	c0.1,0,0.2,0,0.2,0c0,0,0.1-0.1,0.1-0.2l0.1-0.5H142.7z"/>
<path class="st4" d="M122.3,341c-0.1,0.2-1,4.5-1,4.5c-0.2,0.9-0.3,1.5-0.8,1.9c-0.3,0.2-0.6,0.3-1,0.3c-0.6,0-1-0.3-1-0.9l0-0.2
	c0,0,0.2-1.1,0.2-1.2c0,0,1-3.9,1.1-4.4c0,0,0,0,0-0.1c-1.9,0-2.2,0-2.2,0c0,0-0.1,0.3-0.1,0.3l-1,4.3l-0.1,0.4l-0.2,1.2
	c0,0.4,0.1,0.7,0.2,0.9c0.5,0.8,1.7,0.9,2.5,0.9c0.9,0,1.8-0.2,2.4-0.6c1-0.6,1.3-1.6,1.5-2.4l0.1-0.4c0,0,1-4,1.2-4.5
	c0,0,0,0,0-0.1C122.9,341,122.5,341,122.3,341"/>
<path class="st4" d="M127.8,348.9c-0.7,0-0.9,0-1.7,0l0-0.1c0.1-0.3,0.1-0.6,0.2-0.9l0.1-0.4c0.1-0.6,0.3-1.4,0.3-1.6
	c0-0.1,0.1-0.5-0.3-0.5c-0.2,0-0.3,0.1-0.5,0.2c-0.1,0.3-0.3,1.3-0.4,1.7c-0.2,0.9-0.2,1-0.3,1.5l-0.1,0.1c-0.7,0-0.9,0-1.7,0l0-0.1
	c0.1-0.5,0.3-1.1,0.4-1.6c0.3-1.5,0.4-2,0.5-2.8l0.1,0c0.8-0.1,1-0.1,1.8-0.3l0.1,0.1l-0.1,0.5c0.1-0.1,0.3-0.2,0.4-0.2
	c0.4-0.2,0.8-0.2,1.1-0.2c0.4,0,0.8,0.1,0.9,0.5c0.2,0.4,0.1,0.8-0.2,1.8l-0.1,0.5C128,348,128,348.2,127.8,348.9L127.8,348.9z"/>
<path class="st4" d="M130.5,348.9c-0.4,0-0.7,0-0.9,0c-0.3,0-0.5,0-0.9,0l0,0l0,0c0.1-0.4,0.2-0.5,0.2-0.7c0.1-0.1,0.1-0.3,0.2-0.7
	c0.1-0.5,0.2-0.9,0.2-1.2c0.1-0.3,0.1-0.6,0.1-0.9l0,0l0,0c0.4-0.1,0.7-0.1,0.9-0.1c0.3,0,0.5-0.1,0.9-0.2l0,0l0,0
	c-0.1,0.3-0.2,0.6-0.2,1c-0.1,0.3-0.1,0.6-0.2,0.9c-0.1,0.7-0.2,0.9-0.2,1.1C130.7,348.4,130.7,348.5,130.5,348.9L130.5,348.9
	L130.5,348.9z"/>
<path class="st4" d="M134.8,346.6c0,0.2-0.2,0.8-0.4,1.1c-0.1,0.2-0.3,0.3-0.5,0.3c-0.1,0-0.4,0-0.4-0.5c0-0.2,0-0.5,0.1-0.8
	c0.2-0.8,0.4-1.4,0.9-1.4C134.9,345.3,134.9,345.8,134.8,346.6 M136.5,346.6c0.2-1,0.1-1.5-0.2-1.8c-0.3-0.4-1-0.6-1.6-0.6
	c-0.4,0-1.3,0-2,0.7c-0.5,0.5-0.7,1.1-0.9,1.7c-0.1,0.6-0.3,1.8,0.7,2.2c0.3,0.1,0.8,0.2,1.1,0.2c0.8,0,1.5-0.2,2.1-0.8
	C136.2,347.7,136.4,347,136.5,346.6"/>
<path class="st4" d="M153.8,344.3c-0.8,0.2-1.1,0.2-1.8,0.3l-0.1,0c0,0.1,0,0.1,0,0.2c-0.1-0.2-0.3-0.4-0.6-0.5
	c-0.4-0.1-1.2,0-1.9,0.7c-0.5,0.5-0.7,1.1-0.9,1.7c-0.1,0.6-0.3,1.7,0.7,2.1c0.3,0.1,0.6,0.2,0.9,0.2c0.3,0,0.6-0.2,0.9-0.4
	c0,0.1,0,0.2-0.1,0.3l0,0.1c0.7,0,1,0,1.8,0l0.1-0.1c0.1-0.7,0.2-1.4,0.5-2.7C153.5,345.6,153.7,345,153.8,344.3L153.8,344.3z
	 M151.2,347.7c-0.1,0.2-0.5,0.3-0.6,0.3c-0.1,0-0.4,0-0.4-0.5c0-0.2,0-0.5,0.1-0.8c0.2-0.8,0.4-1.4,0.9-1.4c0.3,0,0.5,0.3,0.5,0.8
	c0,0.1-0.1,0.3-0.1,0.4c-0.1,0.2-0.1,0.5-0.2,0.7C151.3,347.5,151.2,347.6,151.2,347.7"/>
<path class="st4" d="M141,348.9c-0.7,0-0.9,0-1.7,0l0-0.1c0.1-0.3,0.1-0.6,0.2-0.9l0.1-0.4c0.1-0.6,0.3-1.4,0.3-1.6
	c0-0.1,0.1-0.5-0.3-0.5c-0.2,0-0.3,0.1-0.5,0.2c-0.1,0.3-0.3,1.3-0.4,1.7c-0.2,0.9-0.2,1-0.3,1.5l-0.1,0.1c-0.7,0-0.9,0-1.7,0l0-0.1
	c0.1-0.5,0.3-1.1,0.4-1.6c0.3-1.5,0.4-2,0.5-2.8l0.1,0c0.8-0.1,1-0.1,1.8-0.3l0.1,0.1l-0.1,0.5c0.1-0.1,0.3-0.2,0.4-0.2
	c0.4-0.2,0.8-0.2,1.1-0.2c0.4,0,0.8,0.1,0.9,0.5c0.2,0.4,0.1,0.8-0.2,1.8l-0.1,0.5C141.3,348,141.2,348.2,141,348.9L141,348.9z"/>
<path class="st4" d="M146.8,341c0,0-0.6,0-0.6,0c-1.4,0-2,0-2.3,0c0,0.1-0.1,0.3-0.1,0.3s-0.5,2.4-0.5,2.4c0,0-1.2,5.1-1.3,5.3
	c1.3,0,1.8,0,2,0c0-0.2,0.3-1.7,0.3-1.7c0,0,0.2-1,0.3-1.1c0,0,0.1-0.1,0.2-0.1h0.1c1.1,0,2.3,0,3.3-0.7c0.6-0.5,1.1-1.2,1.3-2.1
	c0.1-0.2,0.1-0.5,0.1-0.7c0-0.3-0.1-0.7-0.3-0.9C148.9,341,147.9,341,146.8,341 M147.5,343.5c-0.1,0.5-0.5,1-0.9,1.2
	c-0.4,0.2-0.8,0.2-1.3,0.2H145l0-0.1c0,0,0.5-2.4,0.5-2.4l0-0.1l0-0.1l0.2,0c0,0,1.1,0.1,1.2,0.1
	C147.5,342.4,147.6,342.9,147.5,343.5"/>
<path class="st4" d="M131.2,344.9c0.4-0.3,0.5-0.7,0.1-0.9c-0.4-0.2-1-0.2-1.5,0.2c-0.4,0.3-0.5,0.7-0.1,0.9
	C130.1,345.2,130.8,345.2,131.2,344.9"/>
<path class="st4" d="M159.3,344.3L159.3,344.3c-0.9,0.1-1,0.1-1.8,0.2l-0.1,0.1c0,0,0,0,0,0l0,0c-0.6,1.3-0.5,1-1,2c0,0,0-0.1,0-0.1
	l-0.1-2.2l-0.1-0.1c-0.9,0.2-0.9,0.2-1.7,0.3l-0.1,0.1c0,0,0,0.1,0,0.1l0,0c0.1,0.5,0.1,0.4,0.2,1.2c0,0.4,0.1,0.8,0.2,1.2
	c0.1,0.6,0.1,1,0.2,2c-0.5,0.9-0.7,1.2-1.2,2l0,0l-0.4,0.6c0,0.1-0.1,0.1-0.1,0.1c-0.1,0-0.1,0-0.2,0H153l-0.3,1l1,0
	c0.6,0,1-0.3,1.2-0.7l0.6-1.1h0l0.1-0.1C156,350,159.3,344.3,159.3,344.3"/>
<path class="st14" d="M235.7,344.1c0.5,1.1,0.5,1,1.2,1.1h1.8c-0.4-0.5-1.3-3-1.5-3.4c-0.2-0.3-0.8-0.3-0.8-0.3h-1.6
	C234.7,341.5,235.3,343.1,235.7,344.1"/>
<path class="st14" d="M244.3,334.7h-2.1l-0.6,2.7H233l-0.3,1.2h8.6l0,0.1l-2.4,10.6c-0.1,0.4-0.2,0.8-0.3,1.1
	c-0.3,0.4-0.6,0.5-1.3,0.5c-0.4,0-2.3,0-3.1,0c0,0-0.1,0.4,0,0.7c0.2,0.4,0.6,0.5,1.2,0.5c0.7,0,3.2,0,3.7,0c0.6,0,1.4-0.5,1.6-1.2
	l2.8-12.2h1.9c0,0,0.2-0.5,0-0.8c-0.3-0.5-1-0.4-1-0.4h-0.6L244.3,334.7z"/>
<path class="st14" d="M227.5,352h2.1l2.7-11.6c0.5-0.9,1.2-2.1,2-3.6c0.3-0.5,0.9-1.5,1-1.7l0.2-0.4h-2.1l-0.1,0.2
	c-0.9,1.7-2.1,3.7-2.8,4.8c-1.1,1.8-2.1,2.8-2.8,3l-0.3,1.3h0.3c0.7,0,1.3-0.2,1.7-0.4L227.5,352z"/>
<path class="st14" d="M206.3,338.6c0,0,0-0.3-0.1-0.6c-0.2-0.6-0.9-0.6-0.9-0.6l-7.8,0c-0.5,0-0.9,0.2-1.3,0.6
	c-0.1,0.1-0.1,0.1-0.2,0.2c-0.8,0.9-2.6,2.9-3.1,3.4c-0.5,0-1.5,0-1.9,0c0.9-1,0.5-0.5,0.7-0.9c1.1-1.3,5.3-5.9,5.3-5.9h-1.6
	c-0.2,0-0.4,0.1-0.6,0.1c-0.4,0.2-0.7,0.6-0.7,0.6s-3.2,3.8-4.6,5.3c-0.3,0.3-0.4,0.8-0.4,0.8c-0.2,0.7,0.2,1.1,1,1.2
	c0,0,1.1,0,1.7,0c-1.8,2-2.7,3-3.6,3.9c-0.4,0.4-0.4,0.8-0.5,1c0,0,0.1-0.5,0-0.1c-0.2,0.8,1.1,0.9,1.1,0.9c2.9,0,3.9,0,4,0
	c0,0,0.5-0.1,0.9-0.4c0.2-0.3,0.3-0.8,0.3-0.8c-1.9,0-4.1,0-4.3,0c0,0,5.9-6.6,6.8-7.6c0.5-0.5,0.9-1,1.7-1H206.3z"/>
<path class="st14" d="M205.3,342.7c0,0,0.2-0.4-0.1-0.8c-0.3-0.5-0.8-0.4-0.8-0.4l-2.1,0h-3.6c0,0,0,0,0,0h-2c0,0-0.6,0-0.9,0.5
	c-0.3,0.5-0.3,0.7-0.3,0.7H205.3z"/>
<path class="st14" d="M203.8,351.6c0.4-0.3,0.5-0.8,0.5-0.8c-2.1,0-2.8,0-3.1,0c0,0-0.9,0.1-0.9-0.8l1.4-15.2h-2.1l-1.4,15.3h0
	c-0.1,0.9,0.3,1.9,2.4,1.9c2,0-0.4,0,1.9,0C202.6,352,203.4,352,203.8,351.6"/>
<path class="st14" d="M223.3,351.6c0.4-0.4,0.5-0.8,0.5-0.8c0,0-1.3-0.2-1.7-0.3c-0.4-0.1-1.9-0.8-4.6-3c1.7-1,3.4-2,5-3l0,0
	c0.4-0.3,1.1-1.1,1-2c-0.1-0.7-0.7-1-1.1-1h-4.2l0.7-2.9l6.9,0c0,0,0.2-0.5-0.1-0.8c-0.2-0.4-0.8-0.4-0.8-0.4l-5.8,0l0.6-2.6h-2.2
	l-0.6,2.6h-5.8c0,0-0.6,0-0.9,0.3c-0.5,0.4-0.5,0.9-0.5,0.9h7l-0.7,2.9l-4.4,0c0,0-0.6,0-1,0.4c-0.3,0.3-0.4,0.8-0.4,0.8l10.5,0
	c0.2,0,0.7,0.5-0.3,1c-1.6,1-3.6,2.2-4.4,2.7c-0.2-0.2-1.4-1.2-2.4-2c-0.1-0.1-0.4-0.4-1-0.4h-2.3c0.9,0.8,3.5,3.3,3.8,3.5
	c-1,0.6-2.1,1.3-3.4,2c-1.8,1-2,0.9-2.6,1l-2,0.3c0,0-0.1,0.4,0.1,0.8c0.3,0.4,0.5,0.4,0.7,0.4l1.7,0c0.5,0,3.2-1.3,3.5-1.5
	c1.4-0.7,2.5-1.3,3.3-1.8c0.2,0.2,4.2,2.8,5.1,3.3l1.8,0C222.5,352,222.8,352,223.3,351.6"/>
<path class="st14" d="M184.1,350.8l-4.8,0l1.3-5.6h3.9c0,0,0.2-0.6-0.1-0.9c-0.3-0.4-1-0.3-1-0.3l-2.6,0l0.9-4h-2.2l-0.9,4h-2.5
	c0,0-0.7-0.1-1.1,0.3c-0.4,0.4-0.4,0.9-0.4,0.9h3.8l-1.3,5.6h0l0,0l-3.5,0c-0.6,0-0.8-0.2-1-0.6c-0.1-0.3,0-0.9,0-0.9l1.6-6.7
	c1.1-1.3,2.2-2.6,3.4-4l9.3,0c0,0,0.1-0.3-0.1-0.8c-0.2-0.4-0.9-0.4-0.9-0.4l-7.3,0c0.1-0.1,0.2-0.2,0.3-0.4l1.9-2.3h-2.5l0,0
	c-0.2,0.2-2,2.4-2.2,2.7h-3.7c0,0-0.5,0-0.9,0.2c-0.5,0.3-0.6,1-0.6,1h4.2c-3.9,4.8-4,5.2-5.7,6.1c0,0-0.2,1-0.3,1.2
	c0,0,1.3-0.4,2.4-1.3l-1.4,6.2c0,0-0.1,0.4,0.2,0.9c0.2,0.2,0.6,0.3,0.9,0.4h10l0,0c0.6,0,1.2,0,1.2,0s0.9,0.1,1.4-0.5
	C184.1,351.2,184.1,350.8,184.1,350.8"/>
<path class="st14" d="M193.8,350.3c-0.4,0.6-1,0.6-1,0.6l-5.8,1c0,0,0.2-0.9,0.6-1.3c0.4-0.5,1-0.5,1-0.5l5.6-0.5
	C194.1,349.6,194,350,193.8,350.3"/>
<path class="st14" d="M202.7,344c0,0-0.7,1.5-1.8,2.5c-0.5,0.4-1,0.6-1.5,0.7c-0.7,0-1.4,0-2,0c-0.4,0-0.7,0-1,0h-0.1
	c-0.5,0-0.9,0.1-1.2,0.3c-0.5,0.4-0.5,0.9-0.5,0.9h2.6c3,0,3.8,0,5.3-1.2c1-0.9,2.5-3.2,2.5-3.2H202.7z"/>
<path class="st14" d="M167.8,360.3c0.2-0.7,0.4-1.2,0.7-1.7c0.2-0.3,0.5-0.6,0.8-0.9c0.3-0.3,0.7-0.5,1-0.6c0.5-0.2,1-0.3,1.5-0.3
	c1,0,1.7,0.3,2.1,0.9c0.4,0.6,0.5,1.5,0.3,2.5c-0.2,1.1-0.7,1.9-1.5,2.5c-0.7,0.6-1.6,0.9-2.6,0.9c-1,0-1.7-0.3-2.2-0.9
	C167.7,362.2,167.6,361.3,167.8,360.3 M169.2,360.2c-0.2,0.8-0.1,1.3,0.1,1.7c0.3,0.4,0.7,0.6,1.2,0.6c0.5,0,1-0.2,1.5-0.6
	c0.4-0.4,0.7-1,0.9-1.7c0.2-0.8,0.1-1.3-0.1-1.7c-0.2-0.4-0.6-0.6-1.2-0.6c-0.6,0-1,0.2-1.5,0.6
	C169.7,358.9,169.4,359.5,169.2,360.2"/>
<path class="st14" d="M178.9,363.6h-1.3l0.6-2.5c0.1-0.5,0.2-0.9,0.2-1c0-0.2-0.1-0.3-0.2-0.4c-0.1-0.1-0.2-0.1-0.4-0.1
	c-0.2,0-0.4,0.1-0.6,0.2c-0.2,0.1-0.4,0.3-0.5,0.5c-0.1,0.2-0.2,0.6-0.4,1.1l-0.5,2.2h-1.3l1.1-4.8h1.2l-0.2,0.7
	c0.5-0.5,1.1-0.8,1.8-0.8c0.3,0,0.5,0.1,0.7,0.2c0.2,0.1,0.4,0.2,0.4,0.4c0.1,0.2,0.1,0.3,0.1,0.5c0,0.2,0,0.5-0.1,0.9L178.9,363.6z
	"/>
<polygon class="st14" points="180.2,363.6 181.8,356.9 183,356.9 181.5,363.6 "/>
<path class="st14" d="M182.8,363.6l1.1-4.8h1.3l-1.1,4.8H182.8z M184.1,358.1l0.3-1.2h1.3l-0.3,1.2H184.1z"/>
<path class="st14" d="M189.8,363.6h-1.3l0.6-2.5c0.1-0.5,0.2-0.9,0.2-1c0-0.2-0.1-0.3-0.2-0.4c-0.1-0.1-0.2-0.1-0.4-0.1
	c-0.2,0-0.4,0.1-0.6,0.2c-0.2,0.1-0.4,0.3-0.5,0.5c-0.1,0.2-0.2,0.6-0.4,1.1l-0.5,2.2h-1.3l1.1-4.8h1.2l-0.2,0.7
	c0.5-0.5,1.1-0.8,1.8-0.8c0.3,0,0.5,0.1,0.7,0.2c0.2,0.1,0.4,0.2,0.4,0.4c0.1,0.2,0.1,0.3,0.1,0.5c0,0.2,0,0.5-0.1,0.9L189.8,363.6z
	"/>
<path class="st14" d="M194.2,362l1.2,0.2c-0.3,0.5-0.6,0.8-1,1.1c-0.4,0.2-0.9,0.4-1.4,0.4c-0.8,0-1.4-0.3-1.7-0.8
	c-0.2-0.4-0.2-1-0.1-1.7c0.2-0.8,0.5-1.4,1.1-1.9c0.5-0.5,1.1-0.7,1.7-0.7c0.7,0,1.2,0.2,1.5,0.7c0.3,0.5,0.3,1.2,0.1,2.2h-3.2
	c-0.1,0.4,0,0.7,0.1,0.9c0.1,0.2,0.4,0.3,0.7,0.3c0.2,0,0.4-0.1,0.5-0.2C193.9,362.4,194.1,362.3,194.2,362 M194.6,360.7
	c0.1-0.4,0-0.6-0.1-0.8c-0.1-0.2-0.3-0.3-0.6-0.3c-0.3,0-0.5,0.1-0.8,0.3c-0.2,0.2-0.4,0.5-0.5,0.8H194.6z"/>
<path class="st14" d="M201.4,363.6l1.5-6.7h2.2c0.8,0,1.3,0,1.6,0.1c0.4,0.1,0.6,0.3,0.8,0.7c0.2,0.3,0.2,0.8,0.1,1.3
	c-0.1,0.4-0.2,0.8-0.5,1c-0.2,0.3-0.4,0.5-0.7,0.7c-0.3,0.2-0.5,0.3-0.8,0.3c-0.3,0.1-0.8,0.1-1.4,0.1h-0.9l-0.6,2.5H201.4z
	 M204,358l-0.4,1.9h0.7c0.5,0,0.9,0,1.1-0.1c0.2-0.1,0.4-0.2,0.5-0.3c0.1-0.1,0.2-0.3,0.3-0.5c0.1-0.2,0-0.4-0.1-0.6
	c-0.1-0.2-0.3-0.3-0.5-0.3c-0.2,0-0.5,0-1,0H204z"/>
<path class="st14" d="M209.3,360.2l-1.1-0.2c0.2-0.5,0.5-0.8,0.9-1c0.4-0.2,0.9-0.3,1.5-0.3c0.6,0,1,0.1,1.2,0.2
	c0.2,0.1,0.4,0.3,0.5,0.5c0.1,0.2,0,0.6-0.1,1.1l-0.4,1.5c-0.1,0.4-0.1,0.7-0.2,0.9c0,0.2,0,0.4,0.1,0.6h-1.3c0-0.1,0-0.2,0-0.4
	c0-0.1,0-0.1,0-0.2c-0.3,0.2-0.5,0.4-0.8,0.5c-0.3,0.1-0.5,0.2-0.8,0.2c-0.5,0-0.9-0.1-1.1-0.4c-0.2-0.3-0.3-0.6-0.2-1
	c0.1-0.3,0.2-0.5,0.4-0.7c0.2-0.2,0.4-0.4,0.7-0.5c0.3-0.1,0.6-0.2,1.1-0.3c0.6-0.1,1.1-0.2,1.3-0.3l0-0.1c0.1-0.2,0-0.4-0.1-0.5
	c-0.1-0.1-0.3-0.2-0.6-0.2c-0.2,0-0.4,0-0.6,0.1C209.6,359.8,209.5,360,209.3,360.2 M210.8,361.2c-0.2,0.1-0.4,0.1-0.8,0.2
	c-0.4,0.1-0.6,0.2-0.7,0.2c-0.2,0.1-0.3,0.3-0.4,0.4c0,0.2,0,0.3,0.1,0.5c0.1,0.1,0.3,0.2,0.5,0.2c0.2,0,0.5-0.1,0.7-0.2
	c0.2-0.1,0.3-0.3,0.4-0.4c0.1-0.1,0.1-0.3,0.2-0.6L210.8,361.2z"/>
<path class="st14" d="M213.3,358.7h1.4l0.4,3.4l1.9-3.4h1.3l-2.8,4.6l-0.5,0.8c-0.2,0.3-0.3,0.5-0.5,0.6c-0.1,0.1-0.3,0.3-0.4,0.4
	c-0.2,0.1-0.3,0.2-0.5,0.2c-0.2,0.1-0.4,0.1-0.7,0.1c-0.2,0-0.5,0-0.7-0.1l0.1-1c0.2,0,0.4,0.1,0.5,0.1c0.3,0,0.5-0.1,0.7-0.3
	c0.2-0.2,0.3-0.4,0.5-0.7L213.3,358.7z"/>
<path class="st14" d="M219,358.7h1.2l-0.2,0.7c0.5-0.5,1.1-0.8,1.7-0.8c0.3,0,0.6,0.1,0.8,0.2c0.2,0.1,0.3,0.3,0.4,0.6
	c0.3-0.3,0.5-0.4,0.8-0.6c0.3-0.1,0.6-0.2,0.8-0.2c0.4,0,0.6,0.1,0.8,0.2c0.2,0.1,0.3,0.4,0.4,0.6c0,0.2,0,0.5-0.1,1l-0.7,3.1h-1.3
	l0.6-2.8c0.1-0.5,0.1-0.8,0.1-0.9c-0.1-0.2-0.2-0.3-0.5-0.3c-0.2,0-0.4,0.1-0.5,0.2c-0.2,0.1-0.3,0.3-0.5,0.5
	c-0.1,0.2-0.2,0.5-0.3,1l-0.5,2.3h-1.3l0.6-2.6c0.1-0.5,0.2-0.8,0.1-0.9c0-0.1-0.1-0.2-0.1-0.3c-0.1-0.1-0.2-0.1-0.4-0.1
	c-0.2,0-0.4,0.1-0.6,0.2c-0.2,0.1-0.3,0.3-0.4,0.5c-0.1,0.2-0.2,0.5-0.3,1l-0.5,2.3h-1.3L219,358.7z"/>
<path class="st14" d="M229.4,362l1.2,0.2c-0.3,0.5-0.6,0.8-1,1.1c-0.4,0.2-0.9,0.4-1.4,0.4c-0.8,0-1.4-0.3-1.7-0.8
	c-0.2-0.4-0.2-1-0.1-1.7c0.2-0.8,0.5-1.4,1.1-1.9c0.5-0.5,1.1-0.7,1.7-0.7c0.7,0,1.2,0.2,1.5,0.7c0.3,0.5,0.3,1.2,0.1,2.2h-3.2
	c-0.1,0.4,0,0.7,0.1,0.9c0.1,0.2,0.4,0.3,0.7,0.3c0.2,0,0.4-0.1,0.5-0.2C229.1,362.4,229.2,362.3,229.4,362 M229.7,360.7
	c0.1-0.4,0-0.6-0.1-0.8c-0.1-0.2-0.3-0.3-0.6-0.3c-0.3,0-0.5,0.1-0.8,0.3c-0.2,0.2-0.4,0.5-0.5,0.8H229.7z"/>
<path class="st14" d="M235.8,363.6h-1.3l0.6-2.5c0.1-0.5,0.2-0.9,0.2-1c0-0.2-0.1-0.3-0.2-0.4c-0.1-0.1-0.2-0.1-0.4-0.1
	c-0.2,0-0.4,0.1-0.6,0.2c-0.2,0.1-0.4,0.3-0.5,0.5c-0.1,0.2-0.2,0.6-0.4,1.1l-0.5,2.2h-1.3l1.1-4.8h1.2l-0.2,0.7
	c0.5-0.5,1.1-0.8,1.8-0.8c0.3,0,0.5,0.1,0.7,0.2c0.2,0.1,0.4,0.2,0.4,0.4c0.1,0.2,0.1,0.3,0.1,0.5c0,0.2,0,0.5-0.1,0.9L235.8,363.6z
	"/>
<path class="st14" d="M240.4,358.7l-0.2,1h-0.9l-0.4,1.9c-0.1,0.4-0.1,0.6-0.1,0.7c0,0.1,0,0.1,0.1,0.2c0,0,0.1,0.1,0.2,0.1
	c0.1,0,0.3,0,0.5-0.1l-0.1,1c-0.3,0.1-0.7,0.2-1.1,0.2c-0.2,0-0.4,0-0.6-0.1c-0.2-0.1-0.3-0.2-0.3-0.3c-0.1-0.1-0.1-0.3-0.1-0.5
	c0-0.1,0.1-0.5,0.2-0.9l0.5-2.1h-0.6l0.2-1h0.6l0.3-1.7h1.4l-0.4,1.7H240.4z"/>
<path class="st17" d="M172.8,500.6L172.8,500.6L172.8,500.6z"/>
<path class="st17" d="M173.5,500.6l-0.7,0C173.2,500.6,173.5,500.6,173.5,500.6"/>
<path d="M239.2,492.5c0.5,1.1,0.6,1,1.2,1.1h1.8c-0.4-0.5-1.3-3.1-1.5-3.5c-0.2-0.4-0.9-0.3-0.9-0.3h-1.7
	C238.2,489.8,238.9,491.4,239.2,492.5"/>
<path d="M206.1,484.2c0.6,1,0.4,0.9,1.1,1h1.6c-0.4-0.5-0.7-1.6-1-2c-0.2-0.3-0.6-0.3-0.6-0.3h-1.7
	C205.4,482.8,205.7,483.1,206.1,484.2"/>
<path d="M248.2,482.8H246l-0.6,2.7h-8.9l-0.3,1.2h8.9l0,0.1l-2.5,11c-0.1,0.4-0.2,0.9-0.3,1.1c-0.3,0.4-0.7,0.5-1.4,0.5
	c-0.4,0-2.4,0-3.2,0c0,0-0.1,0.5,0,0.7c0.2,0.4,0.6,0.5,1.2,0.5c0.7,0,3.3,0,3.8,0c0.7,0,1.5-0.5,1.7-1.2l2.9-12.6h2
	c0,0,0.2-0.5,0-0.8c-0.3-0.5-1-0.4-1-0.4h-0.6L248.2,482.8z"/>
<path d="M230.8,500.6h2.2l2.8-11.9c0.6-0.9,1.3-2.2,2.1-3.7c0.3-0.5,0.9-1.6,1-1.8l0.2-0.5h-2.2l-0.1,0.3c-1,1.7-2.2,3.8-2.9,4.9
	c-1.1,1.8-2.1,2.9-2.9,3.1l-0.3,1.3h0.3c0.7,0,1.3-0.2,1.8-0.4L230.8,500.6z"/>
<path d="M208.9,486.7c0,0,0-0.3-0.1-0.6c-0.2-0.6-1-0.6-1-0.6l-8,0c-0.5,0-0.9,0.2-1.3,0.6c-0.1,0.1-0.1,0.1-0.2,0.2
	c-0.8,0.9-2.7,3-3.2,3.5c-0.6,0-1.5,0-1.9,0c0.9-1,0.5-0.5,0.8-0.9c1.1-1.3,5.5-6.1,5.5-6.1h-1.6c-0.2,0-0.4,0.1-0.6,0.1
	c-0.4,0.2-0.7,0.6-0.7,0.6s-3.3,3.9-4.8,5.5c-0.3,0.3-0.4,0.8-0.4,0.8c-0.2,0.7,0.2,1.2,1,1.3c0,0,1.2,0,1.7,0c-1.9,2.1-2.8,3-3.7,4
	c-0.4,0.4-0.4,0.8-0.5,1c0,0,0.1-0.5,0-0.1c-0.2,0.8,1.1,0.9,1.1,0.9c3,0,4,0,4.2,0c0,0,0.5-0.1,0.9-0.5c0.2-0.3,0.3-0.8,0.3-0.8
	c-1.9,0-4.3,0-4.4,0c0,0,6.1-6.8,7-7.8c0.6-0.6,1-1,1.7-1H208.9z"/>
<path d="M207.9,491c0,0,0.2-0.4-0.1-0.8c-0.3-0.5-0.8-0.4-0.8-0.4l-2.1,0h-3.7c0,0,0,0,0,0h-2c0,0-0.6,0-1,0.5
	c-0.3,0.5-0.3,0.7-0.3,0.7H207.9z"/>
<path d="M206.3,500.2c0.4-0.3,0.5-0.8,0.5-0.8c-2.1,0-2.9,0-3.2,0c0,0-0.9,0.1-0.9-0.8l1.4-15.7H202l-1.4,15.8h0
	c-0.1,0.9,0.3,2,2.5,2c2.1,0-0.4,0,1.9,0C205.1,500.6,205.9,500.6,206.3,500.2"/>
<path d="M226.5,500.2c0.5-0.4,0.6-0.8,0.5-0.8c0,0-1.3-0.2-1.8-0.3c-0.5-0.1-2-0.9-4.8-3.1c1.8-1.1,3.5-2.1,5.1-3.1l0,0
	c0.5-0.3,1.2-1.1,1.1-2.1c-0.1-0.7-0.7-1-1.1-1h-4.3l0.7-3l7.2,0c0,0,0.2-0.5-0.1-0.9c-0.3-0.4-0.9-0.4-0.9-0.4l-6,0l0.6-2.7h-2.2
	l-0.6,2.7h-6c0,0-0.6,0-1,0.3c-0.5,0.4-0.5,1-0.5,1h7.2l-0.7,3l-4.6,0c0,0-0.6,0-1,0.4c-0.3,0.3-0.4,0.8-0.4,0.8l10.9,0
	c0.3,0,0.7,0.5-0.3,1.1c-1.7,1-3.7,2.2-4.6,2.7c-0.2-0.2-1.5-1.2-2.4-2.1c-0.1-0.1-0.4-0.4-1.1-0.4h-2.4c0.9,0.8,3.6,3.4,3.9,3.6
	c-1,0.6-2.2,1.3-3.5,2c-1.9,1-2,0.9-2.7,1.1l-2,0.3c0,0-0.1,0.4,0.1,0.8c0.3,0.4,0.5,0.4,0.7,0.4l1.7,0c0.5,0,3.3-1.4,3.6-1.5
	c1.4-0.7,2.6-1.4,3.4-1.9c0.2,0.2,4.3,2.9,5.3,3.4l1.8,0C225.6,500.6,226,500.6,226.5,500.2"/>
<path d="M186,499.4l-5,0l1.3-5.7h4c0,0,0.2-0.6-0.1-0.9c-0.3-0.4-1-0.3-1-0.3l-2.7,0l1-4.2h-2.2l-1,4.2h-2.6c0,0-0.8-0.1-1.2,0.3
	c-0.4,0.4-0.4,0.9-0.4,0.9h3.9l-1.3,5.7h0l0,0l-3.6,0c-0.6,0-0.8-0.2-1.1-0.7c-0.1-0.3,0-0.9,0-0.9l1.6-7c1.1-1.3,2.3-2.7,3.5-4.1
	l9.6,0c0,0,0.1-0.3-0.1-0.8c-0.2-0.4-0.9-0.4-0.9-0.4l-7.6,0c0.1-0.1,0.2-0.2,0.3-0.4l2-2.4h-2.5l0,0c-0.2,0.2-2.1,2.5-2.3,2.8H174
	c0,0-0.5,0-0.9,0.2c-0.5,0.3-0.6,1-0.6,1h4.3c-4.1,4.9-4.1,5.4-5.9,6.3c0,0-0.2,1-0.3,1.2c0,0,1.4-0.4,2.5-1.3l-1.5,6.4
	c0,0-0.1,0.5,0.2,0.9c0.2,0.2,0.6,0.3,1,0.4h10.3l0,0c0.6,0,1.2,0,1.2,0s0.9,0.1,1.4-0.5C186,499.8,186,499.4,186,499.4"/>
<path d="M196,498.9c-0.4,0.6-1,0.6-1,0.6l-6,1.1c0,0,0.2-0.9,0.6-1.4c0.4-0.5,1-0.5,1-0.5l5.8-0.6
	C196.3,498.1,196.2,498.5,196,498.9"/>
<path d="M205.2,492.4c0,0-0.8,1.6-1.9,2.6c-0.5,0.4-1,0.6-1.5,0.7c-0.7,0-1.4,0-2.1,0c-0.4,0-0.7,0-1.1,0h-0.1
	c-0.6,0-0.9,0.1-1.2,0.3c-0.5,0.4-0.6,1-0.6,1h2.7c3.1,0,3.9,0,5.4-1.2c1.1-0.9,2.6-3.3,2.6-3.3H205.2z"/>
<path d="M169.2,509.1c0.2-0.7,0.4-1.3,0.7-1.8c0.2-0.3,0.5-0.7,0.9-0.9c0.3-0.3,0.7-0.5,1-0.6c0.5-0.2,1-0.3,1.5-0.3
	c1,0,1.7,0.3,2.2,0.9c0.5,0.6,0.6,1.5,0.3,2.6c-0.3,1.1-0.8,2-1.5,2.6c-0.7,0.6-1.6,0.9-2.6,0.9c-1,0-1.8-0.3-2.2-0.9
	C169.1,511.1,168.9,510.2,169.2,509.1 M170.6,509.1c-0.2,0.8-0.1,1.4,0.1,1.8c0.3,0.4,0.7,0.6,1.2,0.6c0.6,0,1.1-0.2,1.5-0.6
	c0.4-0.4,0.8-1,0.9-1.8c0.2-0.8,0.1-1.4-0.1-1.8c-0.3-0.4-0.7-0.6-1.2-0.6c-0.6,0-1.1,0.2-1.5,0.6
	C171.1,507.7,170.8,508.3,170.6,509.1"/>
<path d="M180.7,512.5h-1.3l0.6-2.5c0.1-0.5,0.2-0.9,0.2-1c0-0.2-0.1-0.3-0.2-0.4c-0.1-0.1-0.2-0.1-0.4-0.1c-0.2,0-0.4,0.1-0.7,0.2
	c-0.2,0.1-0.4,0.3-0.5,0.5c-0.1,0.2-0.2,0.6-0.4,1.1l-0.5,2.3h-1.3l1.1-5h1.2l-0.2,0.7c0.6-0.6,1.2-0.8,1.8-0.8
	c0.3,0,0.5,0.1,0.8,0.2c0.2,0.1,0.4,0.2,0.5,0.4c0.1,0.2,0.1,0.3,0.1,0.6c0,0.2,0,0.5-0.1,0.9L180.7,512.5z"/>
<polygon points="182,512.5 183.6,505.7 184.9,505.7 183.3,512.5 "/>
<path d="M184.7,512.5l1.1-5h1.3l-1.1,5H184.7z M186,506.9l0.3-1.2h1.3l-0.3,1.2H186z"/>
<path d="M191.9,512.5h-1.3l0.6-2.5c0.1-0.5,0.2-0.9,0.2-1c0-0.2-0.1-0.3-0.2-0.4c-0.1-0.1-0.2-0.1-0.4-0.1c-0.2,0-0.4,0.1-0.7,0.2
	c-0.2,0.1-0.4,0.3-0.5,0.5c-0.1,0.2-0.2,0.6-0.4,1.1l-0.5,2.3h-1.3l1.1-5h1.2l-0.2,0.7c0.6-0.6,1.2-0.8,1.8-0.8
	c0.3,0,0.5,0.1,0.8,0.2c0.2,0.1,0.4,0.2,0.5,0.4c0.1,0.2,0.1,0.3,0.1,0.6c0,0.2,0,0.5-0.1,0.9L191.9,512.5z"/>
<path d="M196.4,511l1.3,0.2c-0.3,0.5-0.6,0.8-1.1,1.1c-0.4,0.3-0.9,0.4-1.5,0.4c-0.9,0-1.4-0.3-1.7-0.8c-0.2-0.5-0.3-1-0.1-1.7
	c0.2-0.8,0.6-1.5,1.1-1.9c0.5-0.5,1.1-0.7,1.8-0.7c0.7,0,1.3,0.2,1.6,0.7c0.3,0.5,0.3,1.2,0.1,2.2h-3.3c-0.1,0.4,0,0.7,0.1,0.9
	c0.2,0.2,0.4,0.3,0.7,0.3c0.2,0,0.4-0.1,0.6-0.2C196.2,511.4,196.3,511.2,196.4,511 M196.8,509.6c0.1-0.4,0-0.7-0.1-0.9
	c-0.1-0.2-0.3-0.3-0.6-0.3c-0.3,0-0.5,0.1-0.8,0.3c-0.2,0.2-0.4,0.5-0.5,0.9H196.8z"/>
<path d="M203.9,512.5l1.6-6.9h2.2c0.8,0,1.4,0,1.6,0.1c0.4,0.1,0.6,0.3,0.8,0.7c0.2,0.3,0.2,0.8,0.1,1.3c-0.1,0.4-0.3,0.8-0.5,1.1
	c-0.2,0.3-0.5,0.5-0.7,0.7c-0.3,0.2-0.5,0.3-0.8,0.3c-0.3,0.1-0.8,0.1-1.5,0.1h-0.9l-0.6,2.6H203.9z M206.6,506.8l-0.5,1.9h0.8
	c0.5,0,0.9,0,1.1-0.1c0.2-0.1,0.4-0.2,0.5-0.3c0.1-0.2,0.2-0.3,0.3-0.5c0.1-0.2,0-0.5-0.1-0.6c-0.1-0.2-0.3-0.3-0.5-0.3
	c-0.2,0-0.5,0-1,0H206.6z"/>
<path d="M212,509.1l-1.1-0.2c0.2-0.5,0.6-0.8,0.9-1.1c0.4-0.2,0.9-0.3,1.5-0.3c0.6,0,1,0.1,1.3,0.2c0.3,0.1,0.4,0.3,0.5,0.5
	c0.1,0.2,0,0.6-0.1,1.2l-0.4,1.5c-0.1,0.4-0.2,0.8-0.2,1c0,0.2,0,0.4,0.1,0.7h-1.3c0-0.1,0-0.2,0-0.4c0-0.1,0-0.1,0-0.2
	c-0.3,0.2-0.6,0.4-0.8,0.5c-0.3,0.1-0.6,0.2-0.9,0.2c-0.5,0-0.9-0.1-1.1-0.4c-0.2-0.3-0.3-0.6-0.2-1.1c0.1-0.3,0.2-0.5,0.4-0.8
	c0.2-0.2,0.4-0.4,0.7-0.5c0.3-0.1,0.6-0.2,1.1-0.3c0.6-0.1,1.1-0.2,1.4-0.3l0-0.1c0.1-0.3,0-0.4-0.1-0.5c-0.1-0.1-0.3-0.2-0.7-0.2
	c-0.2,0-0.4,0-0.6,0.1C212.3,508.7,212.2,508.8,212,509.1 M213.6,510.1c-0.2,0.1-0.5,0.1-0.8,0.2c-0.4,0.1-0.6,0.2-0.8,0.2
	c-0.2,0.1-0.3,0.3-0.4,0.5c0,0.2,0,0.3,0.1,0.5c0.1,0.1,0.3,0.2,0.5,0.2c0.2,0,0.5-0.1,0.7-0.2c0.2-0.1,0.3-0.3,0.4-0.4
	c0.1-0.1,0.1-0.3,0.2-0.6L213.6,510.1z"/>
<path d="M216.1,507.6h1.4l0.4,3.5l2-3.5h1.4l-2.9,4.8l-0.5,0.9c-0.2,0.3-0.3,0.5-0.5,0.7c-0.1,0.2-0.3,0.3-0.4,0.4
	c-0.2,0.1-0.3,0.2-0.6,0.2c-0.2,0.1-0.4,0.1-0.7,0.1c-0.3,0-0.5,0-0.7-0.1l0.1-1c0.2,0,0.4,0.1,0.5,0.1c0.3,0,0.6-0.1,0.7-0.3
	c0.2-0.2,0.4-0.4,0.5-0.7L216.1,507.6z"/>
<path d="M222,507.6h1.2l-0.2,0.7c0.6-0.5,1.1-0.8,1.7-0.8c0.3,0,0.6,0.1,0.8,0.2c0.2,0.1,0.3,0.3,0.4,0.6c0.3-0.3,0.6-0.5,0.8-0.6
	c0.3-0.1,0.6-0.2,0.9-0.2c0.4,0,0.7,0.1,0.9,0.2c0.2,0.1,0.4,0.4,0.4,0.7c0,0.2,0,0.6-0.1,1l-0.7,3.2h-1.3l0.7-2.8
	c0.1-0.5,0.1-0.8,0.1-1c-0.1-0.2-0.2-0.3-0.5-0.3c-0.2,0-0.4,0.1-0.6,0.2c-0.2,0.1-0.3,0.3-0.5,0.5c-0.1,0.2-0.2,0.6-0.3,1l-0.6,2.4
	h-1.3l0.6-2.7c0.1-0.5,0.2-0.8,0.1-0.9c0-0.1-0.1-0.2-0.1-0.3c-0.1-0.1-0.2-0.1-0.4-0.1c-0.2,0-0.4,0.1-0.6,0.2
	c-0.2,0.1-0.3,0.3-0.5,0.5c-0.1,0.2-0.2,0.5-0.3,1l-0.6,2.4h-1.3L222,507.6z"/>
<path d="M232.7,511l1.3,0.2c-0.3,0.5-0.6,0.8-1.1,1.1c-0.4,0.3-0.9,0.4-1.5,0.4c-0.9,0-1.4-0.3-1.7-0.8c-0.2-0.5-0.3-1-0.1-1.7
	c0.2-0.8,0.6-1.5,1.1-1.9c0.5-0.5,1.1-0.7,1.8-0.7c0.7,0,1.3,0.2,1.6,0.7c0.3,0.5,0.3,1.2,0.1,2.2h-3.3c-0.1,0.4,0,0.7,0.1,0.9
	c0.2,0.2,0.4,0.3,0.7,0.3c0.2,0,0.4-0.1,0.6-0.2C232.4,511.4,232.6,511.2,232.7,511 M233.1,509.6c0.1-0.4,0-0.7-0.1-0.9
	c-0.1-0.2-0.3-0.3-0.6-0.3c-0.3,0-0.5,0.1-0.8,0.3c-0.2,0.2-0.4,0.5-0.5,0.9H233.1z"/>
<path d="M239.3,512.5H238l0.6-2.5c0.1-0.5,0.2-0.9,0.2-1c0-0.2-0.1-0.3-0.2-0.4c-0.1-0.1-0.2-0.1-0.4-0.1c-0.2,0-0.4,0.1-0.7,0.2
	c-0.2,0.1-0.4,0.3-0.5,0.5c-0.1,0.2-0.2,0.6-0.4,1.1l-0.5,2.3h-1.3l1.1-5h1.2l-0.2,0.7c0.6-0.6,1.2-0.8,1.8-0.8
	c0.3,0,0.5,0.1,0.8,0.2c0.2,0.1,0.4,0.2,0.5,0.4c0.1,0.2,0.1,0.3,0.1,0.6c0,0.2,0,0.5-0.1,0.9L239.3,512.5z"/>
<path d="M244.1,507.5l-0.2,1H243l-0.5,2c-0.1,0.4-0.1,0.6-0.1,0.7c0,0.1,0,0.1,0.1,0.2c0,0,0.1,0.1,0.2,0.1c0.1,0,0.3,0,0.6-0.1
	l-0.1,1c-0.3,0.1-0.7,0.2-1.1,0.2c-0.2,0-0.4,0-0.6-0.1c-0.2-0.1-0.3-0.2-0.3-0.3c-0.1-0.1-0.1-0.3-0.1-0.5c0-0.2,0.1-0.5,0.2-0.9
	l0.5-2.2h-0.6l0.2-1h0.6l0.3-1.8h1.4l-0.4,1.8H244.1z"/>
<text transform="matrix(1 0 0 1 370.0249 356.5742)" class="st7 st8 st6">蓝</text>
<text transform="matrix(1 0 0 1 380.4223 68.7334)" class="st7 st5 st6 st10">•</text>
<text transform="matrix(1 0 0 1 380.4223 85.7334)" class="st7 st5 st6 st10">•</text>
</svg>
